<?xml version="1.0" encoding="utf-8"?>
<!-- Generator: Adobe Illustrator 16.0.0, SVG Export Plug-In . SVG Version: 6.00 Build 0)  -->
<!DOCTYPE svg PUBLIC "-//W3C//DTD SVG 1.1//EN" "http://www.w3.org/Graphics/SVG/1.1/DTD/svg11.dtd">
<svg version="1.1" id="Layer_1" xmlns="http://www.w3.org/2000/svg" xmlns:xlink="http://www.w3.org/1999/xlink" x="0px" y="0px"
	 width="700px" height="700px" viewBox="0 0 700 700" enable-background="new 0 0 700 700" xml:space="preserve">
<g>
	<g>
		<g>
			<path fill-rule="evenodd" clip-rule="evenodd" fill-opacity="0.2471" d="M662.1,612.4H464.4l-11.3-25.7l-2.6-62.4h182.1
				L662.1,612.4z M310,514.2h19v88.3l-9.7,26.4H310H6.5l57.3-103.5l30.4-11.2H310z"/>
		</g>
		<g>
			<g>
				
					<linearGradient id="SVGID_1_" gradientUnits="userSpaceOnUse" x1="171.7998" y1="165.25" x2="171.7998" y2="174.85" gradientTransform="matrix(1.1465 0 0 1.1465 347.7999 393.1505)">
					<stop  offset="0" style="stop-color:#070707"/>
					<stop  offset="0.549" style="stop-color:#090909"/>
					<stop  offset="0.6471" style="stop-color:#0B0B0B;stop-opacity:0.498"/>
					<stop  offset="1" style="stop-color:#0E0E0E;stop-opacity:0"/>
				</linearGradient>
				<polygon fill-rule="evenodd" clip-rule="evenodd" fill="url(#SVGID_1_)" points="637,594.5 457.3,594.5 453.2,586 452.6,548.7 
					622,547.4 				"/>
				
					<linearGradient id="SVGID_2_" gradientUnits="userSpaceOnUse" x1="-137.8247" y1="173.7749" x2="-137.8247" y2="189.6249" gradientTransform="matrix(1.1465 0 0 1.1465 347.7999 393.1505)">
					<stop  offset="0" style="stop-color:#070707"/>
					<stop  offset="0.549" style="stop-color:#090909"/>
					<stop  offset="0.6471" style="stop-color:#0B0B0B;stop-opacity:0.498"/>
					<stop  offset="1" style="stop-color:#0E0E0E;stop-opacity:0"/>
				</linearGradient>
				<polygon fill-rule="evenodd" clip-rule="evenodd" fill="url(#SVGID_2_)" points="327.6,605.2 325.7,611 58.4,611 51.9,611 
					58.4,596.2 80.7,545.4 327.6,545.4 				"/>
			</g>
		</g>
	</g>
	<g>
		<g>
			<g>
				<path fill-rule="evenodd" clip-rule="evenodd" fill="#8BA6FD" d="M324,466.3v-5.7v-4.8H63.6v4.8v5.7v10.3v7.7v42.3v70.1H324
					v-70.1v-42.3v-7.7V466.3z M57.7,451.3h271v9.2v141.9h-271V451.3z"/>
				
					<linearGradient id="SVGID_3_" gradientUnits="userSpaceOnUse" x1="-38.458" y1="30.2603" x2="-230.1574" y2="201.8109" gradientTransform="matrix(1.1465 0 0 1.1465 347.7999 393.1505)">
					<stop  offset="0" style="stop-color:#D1D4DB"/>
					<stop  offset="1" style="stop-color:#90939A"/>
				</linearGradient>
				<polygon fill-rule="evenodd" clip-rule="evenodd" fill="url(#SVGID_3_)" points="324,466.3 324,476.6 324,484.4 324,526.6 
					324,596.7 63.6,596.7 63.6,526.6 63.6,484.4 63.6,476.6 63.6,466.3 63.6,460.6 63.6,455.8 324,455.8 324,460.6 				"/>
				<polygon fill-rule="evenodd" clip-rule="evenodd" fill="#6683C7" points="328.8,451.3 57.7,451.3 73.1,409.4 327.6,409.4 				
					"/>
			</g>
		</g>
		<g>
			<g>
				<polygon fill-rule="evenodd" clip-rule="evenodd" fill="#969BA9" points="324,596.4 322.1,594.7 322.1,458.4 324,455.8 
					324,460.6 324,466.3 324,467.9 324,476.6 324,484.4 324,526.6 324,585.3 324,591.7 				"/>
				
					<linearGradient id="SVGID_4_" gradientUnits="userSpaceOnUse" x1="-134.2749" y1="48.0498" x2="-134.2749" y2="61.1498" gradientTransform="matrix(1.1465 0 0 1.1465 347.7999 393.1505)">
					<stop  offset="0" style="stop-color:#000000"/>
					<stop  offset="1" style="stop-color:#000000;stop-opacity:0"/>
				</linearGradient>
				<polygon fill-rule="evenodd" clip-rule="evenodd" fill="url(#SVGID_4_)" points="322.1,458.4 67.1,458.4 67.1,458.3 63.7,455.8 
					324,455.8 				"/>
				<polygon fill-rule="evenodd" clip-rule="evenodd" fill="#DCDFE5" points="67.1,594.6 322.1,594.7 324,596.4 324,596.7 
					320.3,596.7 312,596.7 80,596.7 64.3,596.7 				"/>
				<polygon fill-rule="evenodd" clip-rule="evenodd" fill="#C2C7D0" points="67.1,458.4 67.1,594.6 64.3,596.7 63.6,596.7 
					63.6,591.7 63.6,585.3 63.6,526.6 63.6,484.4 63.6,476.6 63.6,467.9 63.6,466.3 63.6,460.6 63.6,458.4 63.6,455.8 63.7,455.8 
					67.1,458.3 				"/>
			</g>
		</g>
		<g>
			<g>
				
					<radialGradient id="SVGID_5_" cx="-81.4771" cy="116.3965" r="30.0565" gradientTransform="matrix(1.1448 6.198623e-002 -0.1864 1.2803 350.1901 376.7334)" gradientUnits="userSpaceOnUse">
					<stop  offset="0" style="stop-color:#000000;stop-opacity:0.8"/>
					<stop  offset="0.7412" style="stop-color:#000000;stop-opacity:0.4431"/>
					<stop  offset="0.9804" style="stop-color:#000000;stop-opacity:0"/>
				</radialGradient>
				<path fill-rule="evenodd" clip-rule="evenodd" fill="url(#SVGID_5_)" d="M276,503.4c1.1,5.2,1.3,10.7,0.5,16.6
					c-1.7,11.7-7,21.5-16.1,29.5c-7.7,7-16.2,10.7-25.3,11.1c-1.4,0.1-2.8,0.1-4.1,0.1c-10.8-0.6-19.5-5.3-25.9-14.2
					c-6.4-8.8-8.7-19-7.1-30.7c0.2-1.5,0.5-2.9,0.9-4.4c2.3-9.9,7.3-18.3,15-25.4c8.9-7.9,18.7-11.5,29.6-10.9
					c1.4,0.1,2.7,0.2,4,0.4c8.9,1.5,16.2,6,21.8,13.5C272.6,493.5,274.8,498.3,276,503.4z"/>
			</g>
			<g>
				<path fill-rule="evenodd" clip-rule="evenodd" d="M246,484c6.7,0.4,12.4,3,17.1,8c4.7,5,6.9,10.7,6.7,17.3
					c-0.2,6.6-2.8,12.1-7.7,16.6c-5,4.5-10.8,6.5-17.5,6.1c-6.8-0.4-12.5-3-17.1-8c-4.7-5-6.9-10.8-6.7-17.4
					c0.2-6.6,2.8-12.1,7.7-16.5C233.4,485.7,239.3,483.6,246,484z"/>
			</g>
			<g>
				<g>
					
						<linearGradient id="SVGID_6_" gradientUnits="userSpaceOnUse" x1="-106.1289" y1="97.7632" x2="-66.2891" y2="97.7632" gradientTransform="matrix(1.1448 6.184468e-002 -3.515449e-002 1.1463 347.8002 393.1506)">
						<stop  offset="0" style="stop-color:#222222"/>
						<stop  offset="0.3294" style="stop-color:#222222"/>
						<stop  offset="0.5255" style="stop-color:#4D4D4D"/>
						<stop  offset="0.6627" style="stop-color:#222222"/>
						<stop  offset="1" style="stop-color:#222222"/>
					</linearGradient>
					<path fill-rule="evenodd" clip-rule="evenodd" fill="url(#SVGID_6_)" d="M222.5,509.1l0.9-6.7c0.4-1.3,0.9-2.5,1.5-3.7
						c1.1-2.2,2.7-4.2,4.7-6c4.6-4.2,10-6.1,16.3-5.8c6.3,0.3,11.6,2.8,15.9,7.5c4.4,4.7,6.4,10.2,6.2,16.5c0,1.1-0.2,2.3-0.3,3.3
						c0-6-2.1-11.2-6.2-15.7c-4.4-4.7-9.7-7.2-15.9-7.5c-6.3-0.3-11.7,1.6-16.3,5.8c-1.9,1.6-3.4,3.5-4.5,5.6
						C223.7,504.4,223,506.7,222.5,509.1z"/>
					<path fill-rule="evenodd" clip-rule="evenodd" d="M267.8,514.2c0,0.2,0,0.5,0,0.7c0,0.2,0,0.3,0,0.5c0,0.6-0.1,1.2-0.2,1.8
						c-0.7,5.3-3,9.7-7.1,13.4c-4.6,4.2-10,6.1-16.3,5.8c-6.3-0.3-11.6-2.8-15.9-7.5c-1.7-1.9-3.1-3.9-4.1-6
						c-1.5-3.2-2.2-6.7-2.1-10.4c0-0.6,0-1.2,0.1-1.8c0-0.5,0.1-1.1,0.2-1.5c0.4-2.4,1.2-4.6,2.4-6.7c1.1-2.1,2.7-4,4.5-5.6
						c4.5-4.2,10-6.1,16.3-5.8c6.3,0.3,11.6,2.8,15.9,7.5C265.8,502.9,267.8,508.2,267.8,514.2z"/>
				</g>
			</g>
			<g>
				<g>
					<path fill-rule="evenodd" clip-rule="evenodd" fill="#1C1F20" d="M265.9,512.8v1.3v0l0.2,17.8c-0.1-0.9-0.2-1.8-0.5-2.8
						c-0.3-1.3-0.8-2.6-1.4-3.8c-0.9-1.9-2.3-3.8-4.1-5.7c-1.4-1.4-3-2.7-4.9-3.8c-3-1.8-6.5-2.8-10.4-3c-0.8,0-1.6,0-2.5,0
						c-0.8,0-1.6,0.1-2.5,0.2c-4,0.6-7.6,2.2-10.8,4.9c-0.5,0.5-1.1,1.1-1.7,1.7l-0.7,0.7c-1.5,1.7-2.5,3.5-3.2,5.4
						c-0.2,0.5-0.4,1-0.5,1.5c-0.3,1.1-0.5,2.1-0.6,3.2l2.1-23.7c0.1-0.3,0.2-0.6,0.3-0.9c1.1-2.9,2.9-5.5,5.6-7.8
						c4.2-3.7,9.3-5.3,15.1-5c5.8,0.3,10.7,2.5,14.7,6.6c3.6,3.7,5.5,8,5.7,12.8V512.8z"/>
					<path fill-rule="evenodd" clip-rule="evenodd" fill="none" d="M265.9,512.8v-0.1c-0.2-4.8-2.1-9.1-5.7-12.8
						c-4-4.1-8.9-6.3-14.7-6.6c-5.8-0.3-10.9,1.3-15.1,5c-2.6,2.3-4.5,4.9-5.6,7.8c-0.1,0.3-0.2,0.6-0.3,0.9l-2.1,23.7 M265.9,514.2
						L265.9,514.2c0-0.2,0-0.3,0.1-0.3c0-0.3,0-0.6,0-0.9c0,0-0.1-0.1-0.1-0.2 M265.9,512.7v-0.5l0.1,0.7"/>
				</g>
			</g>
			<g>
				
					<linearGradient id="SVGID_7_" gradientUnits="userSpaceOnUse" x1="100.0391" y1="86.7686" x2="134.1552" y2="86.7686" gradientTransform="matrix(-3.528652e-002 1.146 -1.1451 -6.204131e-002 347.7998 393.1505)">
					<stop  offset="0" style="stop-color:#4E4D5E"/>
					<stop  offset="1" style="stop-color:#0C0C0E"/>
				</linearGradient>
				<path fill-rule="evenodd" clip-rule="evenodd" fill="url(#SVGID_7_)" d="M244.8,507.2c3.9,0.2,7.4,1.2,10.4,3
					c1.9,1.1,3.5,2.4,4.9,3.8c1.8,1.8,3.1,3.7,4.1,5.7c0.6,1.3,1.1,2.5,1.4,3.8c0.3,0.9,0.4,1.8,0.5,2.8c0,0.3,0,0.7,0,1.1v1.5
					c-0.2,5.7-2.4,10.4-6.8,14.2c-2.6,2.3-5.6,3.9-8.9,4.7c-2.1,0.5-4.3,0.7-6.8,0.5l-1.9-0.1c-5.1-0.6-9.6-2.9-13.4-6.8
					c-0.7-0.7-1.4-1.5-2.2-2.5c-2.6-3.4-3.9-7.5-3.8-12.3c0-0.2,0.1-0.3,0.1-0.4c0-0.4,0-0.8,0.1-1.3c0.1-1,0.3-2.1,0.6-3.2
					c0.1-0.5,0.3-1,0.6-1.5c0.7-1.9,1.8-3.7,3.2-5.4l0.6-0.8c0.6-0.6,1.1-1.1,1.7-1.6c3.2-2.8,6.8-4.4,10.8-4.9
					c0.8-0.1,1.7-0.2,2.5-0.2C243.1,507.2,244,507.1,244.8,507.2z"/>
			</g>
			<g>
				<path fill-rule="evenodd" clip-rule="evenodd" fill="#FFFFFF" fill-opacity="0.1137" d="M245.1,493.5c0.5,0,1,0,1.4,0.1
					l-0.6,13.7c-0.4,0-0.8-0.1-1.2-0.1c-0.1,0-0.1,0-0.2,0L245.1,493.5z M227,501.6c0.5-0.6,1-1.3,1.6-1.8l-1.1,14.2
					c-0.2,0.1-0.3,0.2-0.5,0.3l-0.6,0.8c-0.2,0.2-0.3,0.3-0.5,0.6L227,501.6z M250.8,494.5c0.4,0.2,0.9,0.3,1.3,0.5l-0.1,13.7
					c-0.5-0.2-0.9-0.3-1.4-0.5L250.8,494.5z M233.4,496c0.5-0.3,1-0.6,1.5-0.7l-1.1,13.9c-0.5,0.2-1,0.5-1.5,0.8L233.4,496z
					 M239.8,493.8c0.5-0.1,1-0.2,1.4-0.2l-0.9,13.8c-0.2,0-0.4,0-0.5,0.1c-0.3,0-0.6,0.1-0.9,0.1L239.8,493.8z M261.2,501.6
					c0.3,0.4,0.6,0.8,0.9,1.1l0.4,14c-0.5-0.6-1-1.3-1.5-1.9l-0.3-12.6c0-0.2,0.1-0.3,0.2-0.5C260.9,501.7,261,501.6,261.2,501.6z
					 M256.1,497c0.5,0.3,0.9,0.7,1.4,1.1v13.8c-0.5-0.4-0.9-0.7-1.4-1V497z"/>
			</g>
			<g>
				<g>
					<path fill-rule="evenodd" clip-rule="evenodd" fill-opacity="0.6196" d="M246.3,493.4c0.5,0,1,0,1.4,0.1l-0.6,14
						c-0.5-0.1-0.9-0.1-1.4-0.2L246.3,493.4z M251.9,494.5c0.5,0.2,0.9,0.3,1.4,0.6l-0.2,14c-0.5-0.2-1-0.4-1.4-0.6L251.9,494.5z
						 M234.7,495.4c0.5-0.3,1-0.5,1.5-0.7l-1.1,14c-0.5,0.2-1,0.5-1.5,0.7L234.7,495.4z M241.2,493.4c0.5-0.1,1-0.1,1.4-0.2l-0.9,14
						c-0.5,0-1,0.1-1.4,0.1L241.2,493.4z M228.3,500.2c0.5-0.6,1-1.1,1.5-1.6l-1.1,14c-0.5,0.4-0.9,0.9-1.4,1.3l-0.2,0.3
						L228.3,500.2z M261.9,501.8c0.5,0.7,1,1.4,1.4,2.1l0.3,14.8c-0.5-0.8-0.9-1.5-1.4-2.2l-0.3-14.4
						C261.9,502,261.9,501.9,261.9,501.8z M257.2,497.3c0.5,0.3,1,0.7,1.4,1.1l0.1,14.4c-0.5-0.4-0.9-0.8-1.4-1.1L257.2,497.3z"/>
				</g>
			</g>
			<g>
				
					<linearGradient id="SVGID_8_" gradientUnits="userSpaceOnUse" x1="72.834" y1="119.4653" x2="107.463" y2="119.4653" gradientTransform="matrix(0.3203 1.1009 -1.1076 0.297 347.7999 393.1502)">
					<stop  offset="0" style="stop-color:#000000"/>
					<stop  offset="1" style="stop-color:#303030"/>
				</linearGradient>
				<path fill-rule="evenodd" clip-rule="evenodd" fill="url(#SVGID_8_)" d="M231.4,514.7c-3.7,3.2-5.6,7.3-5.8,12.1
					c-0.2,4.9,1.5,9.2,5,12.8c3.6,3.6,7.9,5.5,13.1,5.8c5.2,0.3,9.7-1.2,13.4-4.4c3.7-3.2,5.6-7.3,5.8-12.3c0.2-4.8-1.5-9-5-12.6
					v-0.1c-3.5-3.6-7.8-5.6-13.1-5.8C239.7,510,235.2,511.5,231.4,514.7L231.4,514.7z M224.5,526.7c0.2-5.1,2.2-9.4,6.1-12.8
					c4-3.4,8.7-5,14.2-4.7c5.5,0.3,10.1,2.3,13.8,6.2c3.8,3.8,5.6,8.3,5.4,13.4c-0.2,5.2-2.2,9.6-6.2,13.1v-0.1
					c-3.9,3.4-8.7,4.9-14.2,4.6c-5.5-0.3-10.1-2.3-13.9-6.1v-0.1C226.2,536.4,224.4,531.9,224.5,526.7z"/>
			</g>
			<g>
				
					<radialGradient id="SVGID_9_" cx="-85.9399" cy="83.9346" r="13.5701" gradientTransform="matrix(1.1448 6.231034e-002 -1.372940e-002 0.4541 346.0429 451.2497)" gradientUnits="userSpaceOnUse">
					<stop  offset="0" style="stop-color:#FFFFFF"/>
					<stop  offset="0.1765" style="stop-color:#FFFFFF"/>
					<stop  offset="0.3059" style="stop-color:#FFFFFF;stop-opacity:0.4235"/>
					<stop  offset="0.4902" style="stop-color:#FFFFFF;stop-opacity:0.2314"/>
					<stop  offset="0.651" style="stop-color:#FFFFFF;stop-opacity:8.235294e-002"/>
					<stop  offset="1" style="stop-color:#FFFFFF;stop-opacity:0"/>
				</radialGradient>
				<path fill-rule="evenodd" clip-rule="evenodd" fill="url(#SVGID_9_)" d="M261.9,484.9c-0.1,1.7-1.6,3.1-4.7,4
					c-3.1,1.1-6.7,1.5-10.9,1.3c-4.2-0.2-7.8-1.1-10.8-2.5c-2.8-1.3-4.2-2.8-4.1-4.5c0-1.7,1.5-3,4.4-4c3.1-1.1,6.8-1.5,10.9-1.3
					c4.2,0.2,7.8,1.1,10.8,2.5C260.5,481.7,262,483.2,261.9,484.9z"/>
			</g>
		</g>
		<g>
			<g>
				
					<linearGradient id="SVGID_10_" gradientUnits="userSpaceOnUse" x1="-41.1494" y1="130.8198" x2="-41.7494" y2="107.5198" gradientTransform="matrix(1.1465 0 0 1.1465 347.7999 393.1505)">
					<stop  offset="0" style="stop-color:#2D2929"/>
					<stop  offset="1" style="stop-color:#433E3D"/>
				</linearGradient>
				<path fill-rule="evenodd" clip-rule="evenodd" fill="url(#SVGID_10_)" d="M313.4,519.8v19.9c0,2.1-1,3.2-3,3.2h-20.1
					c-2.1,0-3.2-1.1-3.2-3.2v-19.9c0-2.1,1.1-3.2,3.2-3.2h20.1C312.4,516.6,313.4,517.7,313.4,519.8z"/>
			</g>
			<g>
				<path fill-rule="evenodd" clip-rule="evenodd" fill-opacity="0.4902" d="M301.4,536.8c0.4,0.3,0.7,0.7,0.9,1.1
					c0.2,0.4,0.3,0.5,0.3,0.1C302.6,537.6,302.2,537.2,301.4,536.8L301.4,536.8z M303.5,539.2c0,0.8-0.3,1.6-0.9,2.2
					c-0.6,0.6-1.3,0.9-2.2,0.9c-0.9,0-1.6-0.3-2.2-0.9c-0.6-0.6-0.9-1.4-0.9-2.2c0-0.3,0.1-0.6,0.2-0.9c0.2-0.5,0.4-0.9,0.7-1.3
					c0.6-0.6,1.4-0.9,2.2-0.9c0.9,0,1.6,0.3,2.2,0.9c0.4,0.4,0.7,0.9,0.9,1.4C303.5,538.6,303.5,538.9,303.5,539.2z M299.9,537.2
					c0.1-0.4,0-0.6-0.3-0.6c-0.2,0.1-0.4,0.2-0.5,0.3C299.2,537.4,299.5,537.5,299.9,537.2L299.9,537.2z"/>
			</g>
			<g>
				<g>
					<polygon fill-rule="evenodd" clip-rule="evenodd" points="306.1,533.4 300.2,537.1 294.4,533.3 294.4,527.2 294.4,527.1 
						299.4,524.5 300.2,524 300.4,524 306,527.3 306.1,527.4 					"/>
				</g>
				<g>
					<g>
						<path fill-rule="evenodd" clip-rule="evenodd" fill="#60605E" d="M300.4,525.3V524l5.2,3.2l-1.2,0.5c-0.2-0.3-0.5-0.7-0.7-1
							C302.7,525.8,301.7,525.3,300.4,525.3z"/>
						
							<linearGradient id="SVGID_11_" gradientUnits="userSpaceOnUse" x1="-45.0127" y1="119.5244" x2="-36.4877" y2="119.5244" gradientTransform="matrix(1.1465 0 0 1.1465 347.7999 393.1505)">
							<stop  offset="0.1922" style="stop-color:#424242"/>
							<stop  offset="0.3843" style="stop-color:#A3A5A5"/>
							<stop  offset="0.5098" style="stop-color:#4D4C49"/>
							<stop  offset="1" style="stop-color:#000000"/>
							<stop  offset="1" style="stop-color:#000000"/>
							<stop  offset="1" style="stop-color:#111111"/>
						</linearGradient>
						<path fill-rule="evenodd" clip-rule="evenodd" fill="url(#SVGID_11_)" d="M295.7,532.4c-0.3-0.7-0.5-1.4-0.5-2.2
							s0.2-1.5,0.5-2.2c0.2-0.5,0.5-0.9,0.9-1.2c0.9-0.8,2-1.3,3.2-1.4c0,0,0.2,0,0.3,0h0.2c1.3,0,2.4,0.5,3.3,1.4
							c0.3,0.3,0.5,0.6,0.7,1c0.4,0.8,0.6,1.6,0.6,2.5c0,0.9-0.2,1.7-0.5,2.4c-0.2,0.3-0.4,0.6-0.6,0.9c-0.1,0.1-0.2,0.2-0.2,0.2
							l-0.1,0.1c-0.9,0.9-2,1.4-3.4,1.4c-1.4,0-2.5-0.5-3.5-1.4C296.3,533.3,296,532.9,295.7,532.4z M302.6,532.5c0,0,0-0.1,0.1-0.2
							c0.5-0.6,0.8-1.3,0.8-2.2s-0.3-1.6-0.9-2.3c-0.6-0.6-1.4-1-2.4-1c-1,0-1.7,0.3-2.4,1c-0.6,0.7-1,1.5-1,2.3
							c0,0.9,0.3,1.7,1,2.4c0.6,0.7,1.4,1,2.4,1c0.9,0,1.7-0.3,2.4-0.9V532.5z"/>
						<path fill-rule="evenodd" clip-rule="evenodd" fill="#555555" d="M304.5,532.5c0.3-0.7,0.5-1.5,0.5-2.4c0-0.8-0.2-1.7-0.6-2.5
							l1.2-0.5l0.1,0.1l0.1,5.7L304.5,532.5z"/>
						
							<linearGradient id="SVGID_12_" gradientUnits="userSpaceOnUse" x1="-41.3994" y1="116.6118" x2="-41.6494" y2="122.3868" gradientTransform="matrix(1.1465 0 0 1.1465 347.7999 393.1505)">
							<stop  offset="0" style="stop-color:#A3A5A5"/>
							<stop  offset="0.3922" style="stop-color:#424242"/>
							<stop  offset="1" style="stop-color:#000000"/>
							<stop  offset="1" style="stop-color:#000000"/>
							<stop  offset="1" style="stop-color:#111111"/>
						</linearGradient>
						<path fill-rule="evenodd" clip-rule="evenodd" fill="url(#SVGID_12_)" d="M302.9,530.2c0-0.7-0.3-1.3-0.8-1.8
							c-0.5-0.5-1.2-0.8-1.9-0.8c-0.8,0-1.4,0.3-1.9,0.8c-0.5,0.5-0.7,1.1-0.7,1.8c0,0.7,0.2,1.4,0.7,1.9c0.5,0.5,1.2,0.8,1.9,0.8
							c0.7,0,1.3-0.3,1.8-0.8h0.1c0,0,0.1-0.1,0.1-0.1C302.7,531.4,302.9,530.8,302.9,530.2z M302.6,532.5v0.1
							c-0.6,0.6-1.4,0.9-2.4,0.9c-1,0-1.7-0.3-2.4-1c-0.6-0.6-1-1.4-1-2.4c0-0.8,0.3-1.6,1-2.3c0.6-0.6,1.4-1,2.4-1
							c0.9,0,1.7,0.3,2.4,1c0.6,0.7,0.9,1.5,0.9,2.3s-0.3,1.6-0.8,2.2C302.6,532.4,302.6,532.5,302.6,532.5z"/>
						<path fill-rule="evenodd" clip-rule="evenodd" fill="#191A1F" d="M302.9,530.2c0,0.7-0.2,1.3-0.7,1.8c0,0-0.1,0.1-0.1,0.1H302
							c-0.5,0.5-1.1,0.8-1.8,0.8c-0.8,0-1.4-0.3-1.9-0.8c-0.5-0.5-0.7-1.2-0.7-1.9c0-0.7,0.2-1.3,0.7-1.8c0.5-0.5,1.2-0.8,1.9-0.8
							c0.7,0,1.4,0.3,1.9,0.8C302.6,528.9,302.9,529.5,302.9,530.2z"/>
						<path fill-rule="evenodd" clip-rule="evenodd" fill="#454345" d="M304.5,532.5l1.3,0.6v0.1l-5.6,3.4v-1.5
							c1.3,0,2.5-0.5,3.4-1.4l0.1-0.1c0.1-0.1,0.2-0.2,0.2-0.2C304.1,533.2,304.3,532.9,304.5,532.5z"/>
						
							<linearGradient id="SVGID_13_" gradientUnits="userSpaceOnUse" x1="-44.4419" y1="116.105" x2="-41.4892" y2="115.4166" gradientTransform="matrix(1.1465 0 0 1.1465 347.7999 393.1505)">
							<stop  offset="0" style="stop-color:#4E4F4A"/>
							<stop  offset="0.5059" style="stop-color:#424242"/>
							<stop  offset="0.7686" style="stop-color:#A2A7A0"/>
							<stop  offset="1" style="stop-color:#60605E"/>
							<stop  offset="1" style="stop-color:#000000"/>
							<stop  offset="1" style="stop-color:#111111"/>
						</linearGradient>
						<path fill-rule="evenodd" clip-rule="evenodd" fill="url(#SVGID_13_)" d="M295.8,527.9l-1-0.7V527l4.6-2.5l0.7-0.4l0.2-0.1
							v1.3h-0.2c-0.2,0-0.3,0-0.3,0c-1.2,0.1-2.2,0.6-3.2,1.4C296.3,527.1,296,527.5,295.8,527.9z"/>
						<path fill-rule="evenodd" clip-rule="evenodd" fill="#373536" d="M294.8,533l0.9-0.6c0.2,0.5,0.6,0.9,1,1.3
							c1,1,2.1,1.4,3.5,1.4v1.5L294.8,533L294.8,533z"/>
						<path fill-rule="evenodd" clip-rule="evenodd" fill="#333533" d="M295.8,527.9c-0.3,0.7-0.5,1.4-0.5,2.2s0.2,1.5,0.5,2.2
							l-0.9,0.6v-5.8L295.8,527.9z"/>
					</g>
				</g>
			</g>
			<g>
				<g>
					
						<radialGradient id="SVGID_14_" cx="-41.75" cy="125.1499" r="3.025" gradientTransform="matrix(1.1465 0 0 1.1465 347.7999 393.1505)" gradientUnits="userSpaceOnUse">
						<stop  offset="0" style="stop-color:#FFFFFF"/>
						<stop  offset="0.4275" style="stop-color:#737373"/>
						<stop  offset="0.6275" style="stop-color:#6F6F6F"/>
						<stop  offset="1" style="stop-color:#404040"/>
						<stop  offset="1" style="stop-color:#2F2F2F"/>
						<stop  offset="1" style="stop-color:#2F2F2F"/>
					</radialGradient>
					<path fill-rule="evenodd" clip-rule="evenodd" fill="url(#SVGID_14_)" d="M297.5,536.6c0.2-0.5,0.4-0.9,0.7-1.2
						c0.6-0.6,1.4-0.9,2.2-0.9c0.9,0,1.6,0.3,2.2,0.9c0.4,0.3,0.7,0.8,0.9,1.3c0,0.3,0.1,0.5,0.1,0.8c0,0.9-0.3,1.6-0.9,2.2
						c-0.6,0.6-1.3,0.9-2.2,0.9c-0.9,0-1.6-0.3-2.2-0.9c-0.6-0.6-0.9-1.3-0.9-2.2C297.4,537.2,297.4,536.9,297.5,536.6z"/>
					
						<linearGradient id="SVGID_15_" gradientUnits="userSpaceOnUse" x1="-43.75" y1="121.8198" x2="-39.5499" y2="121.699" gradientTransform="matrix(1.1465 0 0 1.1465 347.7999 393.1505)">
						<stop  offset="0" style="stop-color:#121212"/>
						<stop  offset="0.4627" style="stop-color:#6F6F6F"/>
						<stop  offset="0.5843" style="stop-color:#FFFFFF"/>
						<stop  offset="0.7255" style="stop-color:#484848"/>
						<stop  offset="1" style="stop-color:#000000"/>
						<stop  offset="1" style="stop-color:#111111"/>
						<stop  offset="1" style="stop-color:#1E1E1E"/>
					</linearGradient>
					<path fill-rule="evenodd" clip-rule="evenodd" fill="url(#SVGID_15_)" d="M303.5,536.8c-0.2-0.5-0.5-1-0.9-1.3
						c-0.6-0.6-1.3-0.9-2.2-0.9c-0.9,0-1.6,0.3-2.2,0.9c-0.3,0.3-0.5,0.7-0.7,1.2l1.2-7.2c0.4-0.7,1.2-1,2.2-0.8
						c0.4,0.1,0.7,0.4,0.9,0.9L303.5,536.8z"/>
				</g>
			</g>
			<g>
				<g>
					
						<linearGradient id="SVGID_16_" gradientUnits="userSpaceOnUse" x1="-51.7739" y1="108.8755" x2="-49.9744" y2="110.675" gradientTransform="matrix(1.1465 0 0 1.1465 347.7999 393.1505)">
						<stop  offset="0" style="stop-color:#666666"/>
						<stop  offset="1" style="stop-color:#FFFFFF"/>
					</linearGradient>
					<path fill-rule="evenodd" clip-rule="evenodd" fill="url(#SVGID_16_)" d="M290.9,519c0,0.4-0.1,0.8-0.4,1.1
						c-0.3,0.3-0.6,0.4-1,0.3c-0.4,0-0.7-0.2-1-0.5c-0.3-0.3-0.4-0.6-0.4-1s0.2-0.7,0.5-1c0.3-0.3,0.6-0.4,1-0.4
						c0.4,0,0.7,0.1,1,0.4C290.8,518.3,290.9,518.7,290.9,519z"/>
				</g>
				<g>
					
						<rect x="289.3" y="517.9" transform="matrix(-0.7071 -0.7071 0.7071 -0.7071 127.2207 1090.8284)" fill-rule="evenodd" clip-rule="evenodd" width="0.5" height="2.4"/>
				</g>
			</g>
			<g>
				<g>
					
						<linearGradient id="SVGID_17_" gradientUnits="userSpaceOnUse" x1="-33.2056" y1="110.4995" x2="-30.9869" y2="109.2136" gradientTransform="matrix(1.1465 0 0 1.1465 347.7999 393.1505)">
						<stop  offset="0" style="stop-color:#666666"/>
						<stop  offset="1" style="stop-color:#FFFFFF"/>
					</linearGradient>
					<path fill-rule="evenodd" clip-rule="evenodd" fill="url(#SVGID_17_)" d="M312.3,518.3c0.2,0.3,0.2,0.7,0.1,1.1
						c-0.1,0.4-0.3,0.7-0.7,0.9c-0.3,0.2-0.7,0.2-1,0.1c-0.4-0.1-0.7-0.3-0.9-0.6c-0.2-0.3-0.2-0.7-0.1-1.1c0.1-0.4,0.3-0.7,0.6-0.8
						c0.4-0.2,0.8-0.3,1.1-0.2S312.1,518,312.3,518.3z"/>
				</g>
				<g>
					<polygon fill-rule="evenodd" clip-rule="evenodd" points="310.7,517.9 311.8,520 311.4,520.2 310.2,518.2 					"/>
				</g>
			</g>
			<g>
				<g>
					
						<linearGradient id="SVGID_18_" gradientUnits="userSpaceOnUse" x1="-51.7739" y1="127.5254" x2="-49.9744" y2="129.3249" gradientTransform="matrix(1.1465 0 0 1.1465 347.7999 393.1505)">
						<stop  offset="0" style="stop-color:#666666"/>
						<stop  offset="1" style="stop-color:#FFFFFF"/>
					</linearGradient>
					<path fill-rule="evenodd" clip-rule="evenodd" fill="url(#SVGID_18_)" d="M290.5,541.5c-0.3,0.3-0.6,0.4-1,0.3
						c-0.4,0-0.7-0.2-1-0.5c-0.3-0.3-0.4-0.6-0.4-1c0-0.4,0.2-0.7,0.5-1c0.3-0.3,0.6-0.4,1-0.4c0.4,0,0.7,0.1,1,0.4
						c0.3,0.3,0.5,0.6,0.5,1C291,540.8,290.8,541.2,290.5,541.5z"/>
				</g>
				<g>
					
						<rect x="288.4" y="540.2" transform="matrix(0.7069 -0.7073 0.7073 0.7069 -297.4059 363.1932)" fill-rule="evenodd" clip-rule="evenodd" width="2.4" height="0.5"/>
				</g>
			</g>
			<g>
				<g>
					
						<linearGradient id="SVGID_19_" gradientUnits="userSpaceOnUse" x1="-33.2134" y1="127.8364" x2="-31.0079" y2="129.102" gradientTransform="matrix(1.1465 0 0 1.1465 347.7999 393.1505)">
						<stop  offset="0" style="stop-color:#666666"/>
						<stop  offset="1" style="stop-color:#FFFFFF"/>
					</linearGradient>
					<path fill-rule="evenodd" clip-rule="evenodd" fill="url(#SVGID_19_)" d="M311.4,541.8c-0.4,0.1-0.8,0.1-1.1-0.2
						c-0.3-0.2-0.5-0.5-0.6-0.8c-0.1-0.4-0.1-0.8,0.1-1.1c0.2-0.3,0.5-0.5,0.9-0.6c0.4-0.1,0.7,0,1,0.2c0.4,0.2,0.6,0.5,0.8,0.9
						c0.1,0.3,0.1,0.7-0.2,1.1C312.1,541.5,311.8,541.7,311.4,541.8z"/>
				</g>
				<g>
					<polygon fill-rule="evenodd" clip-rule="evenodd" points="310.7,541.6 310.3,541.3 311.4,539.3 311.9,539.6 					"/>
				</g>
			</g>
		</g>
		<g>
			<g>
				
					<radialGradient id="SVGID_20_" cx="-61.6396" cy="76.332" r="8.4205" gradientTransform="matrix(1.0968 -0.3338 0.2793 1.199 346.3778 387.0492)" gradientUnits="userSpaceOnUse">
					<stop  offset="0" style="stop-color:#8A8A8A"/>
					<stop  offset="0.5333" style="stop-color:#959595"/>
					<stop  offset="1" style="stop-color:#000000;stop-opacity:0"/>
				</radialGradient>
				<path fill-rule="evenodd" clip-rule="evenodd" fill="url(#SVGID_20_)" d="M293.7,491.7c1.7-2.1,3.7-3.2,6.1-3.3
					c2.4,0,4.5,1,6.2,3c1.8,2.1,2.7,4.6,2.8,7.6c0.1,3-0.7,5.5-2.4,7.6c-1.7,2.1-3.7,3.2-6.1,3.3c-2.4,0-4.5-1-6.2-3
					c-1.8-2.1-2.7-4.7-2.8-7.6C291.3,496.3,292.1,493.8,293.7,491.7z"/>
			</g>
			<g>
				<g>
					<g>
						<g>
							<radialGradient id="SVGID_21_" cx="300.1001" cy="497.0996" r="5.7875" gradientUnits="userSpaceOnUse">
								<stop  offset="0" style="stop-color:#000000"/>
								<stop  offset="1" style="stop-color:#2F1A17"/>
							</radialGradient>
							<path fill-rule="evenodd" clip-rule="evenodd" fill="url(#SVGID_21_)" d="M299.9,491.8c-1.3,0-2.5,0.5-3.5,1.5
								c-1,1-1.4,2.2-1.4,3.5c0,0.2,0,0.3,0.1,0.5c0,1.2,0.5,2.2,1.4,3.1c1,0.9,2.2,1.3,3.5,1.3c1.3,0,2.5-0.4,3.6-1.3
								c0.8-0.9,1.2-2,1.3-3.3c0,0,0-0.1,0-0.3c0-1.3-0.4-2.5-1.3-3.5C302.4,492.3,301.2,491.8,299.9,491.8z M300,491.6
								c1.5,0,2.9,0.5,4,1.6c1.1,1.1,1.6,2.4,1.6,3.8c0,0.2,0,0.3,0,0.3c-0.1,1.5-0.6,2.7-1.6,3.7c-1.1,1.1-2.4,1.6-4,1.6
								c-1.5,0-2.8-0.5-3.9-1.6c-1-1-1.5-2.1-1.5-3.4c-0.1-0.2-0.1-0.4-0.1-0.6c0-1.4,0.5-2.7,1.6-3.8
								C297.3,492.1,298.6,491.6,300,491.6z"/>
							<linearGradient id="SVGID_22_" gradientUnits="userSpaceOnUse" x1="300.1499" y1="489.7002" x2="300.1499" y2="504.6002">
								<stop  offset="0" style="stop-color:#575350"/>
								<stop  offset="0.3961" style="stop-color:#54504D"/>
								<stop  offset="1" style="stop-color:#353231"/>
							</linearGradient>
							<path fill-rule="evenodd" clip-rule="evenodd" fill="url(#SVGID_22_)" d="M307.5,496.2c0,0.3,0.1,0.6,0.1,1c0,0,0,0.1,0,0.1
								c0,2-0.8,3.7-2.3,5.1c-1.4,1.5-3.2,2.2-5.2,2.2s-3.8-0.7-5.2-2.2c-1.5-1.4-2.2-3.1-2.2-5.2c0,0,0-0.1,0-0.2
								c0-0.1,0-0.2,0-0.3c0-0.1,0-0.2,0-0.2c0.1-0.6,0.2-1.2,0.3-1.8c0.3-1.1,1-2,1.9-2.9c1.4-1.4,3.2-2.1,5.2-2.1s3.8,0.7,5.2,2.1
								c0.9,0.9,1.6,1.8,1.9,2.9C307.4,495.2,307.5,495.7,307.5,496.2z M300,491.6c-1.5,0-2.8,0.5-3.9,1.6c-1.1,1.1-1.6,2.4-1.6,3.8
								c0,0.2,0,0.4,0.1,0.6c0,1.3,0.5,2.4,1.5,3.4c1.1,1.1,2.4,1.6,3.9,1.6c1.5,0,2.9-0.5,4-1.6c1-1,1.5-2.2,1.6-3.7
								c0,0,0-0.1,0-0.3c0-1.4-0.5-2.7-1.6-3.8C302.9,492.1,301.6,491.6,300,491.6z"/>
							<linearGradient id="SVGID_23_" gradientUnits="userSpaceOnUse" x1="292.6626" y1="492.2754" x2="307.5376" y2="492.2754">
								<stop  offset="0" style="stop-color:#696971"/>
								<stop  offset="0.1725" style="stop-color:#B0B0B5"/>
								<stop  offset="0.4784" style="stop-color:#888891"/>
								<stop  offset="0.6745" style="stop-color:#787880"/>
								<stop  offset="0.8667" style="stop-color:#F2F2F2"/>
								<stop  offset="1" style="stop-color:#6B6B6F"/>
								<stop  offset="1" style="stop-color:#3B3B40"/>
								<stop  offset="1" style="stop-color:#6B6B6F"/>
							</linearGradient>
							<path fill-rule="evenodd" clip-rule="evenodd" fill="url(#SVGID_23_)" d="M292.7,496.5l0.2-3.1c0-0.3,0.1-0.6,0.1-0.9
								c0.3-0.9,1-1.8,1.9-2.6c1.4-1.3,3.2-2,5.2-2s3.8,0.7,5.2,2c0.9,0.8,1.6,1.7,1.9,2.6c0,0.2,0.1,0.4,0.2,0.6l0.1,3
								c-0.1-0.5-0.2-1-0.3-1.4c-0.3-1.1-1-2-1.9-2.9c-1.4-1.4-3.2-2.1-5.2-2.1s-3.8,0.7-5.2,2.1c-0.9,0.9-1.5,1.8-1.9,2.9
								C292.9,495.3,292.8,495.9,292.7,496.5z"/>
							<radialGradient id="SVGID_24_" cx="299.1001" cy="495.4502" r="5.2" gradientUnits="userSpaceOnUse">
								<stop  offset="0" style="stop-color:#FF4D4D"/>
								<stop  offset="1" style="stop-color:#FF0000"/>
							</radialGradient>
							<path fill-rule="evenodd" clip-rule="evenodd" fill="url(#SVGID_24_)" d="M299.9,491.8c1.3,0,2.5,0.5,3.6,1.5
								c0.9,1,1.3,2.2,1.3,3.5c0,0.1,0,0.2,0,0.3c-0.1,1.3-0.5,2.4-1.3,3.3c-1.1,0.9-2.3,1.3-3.6,1.3c-1.3,0-2.5-0.4-3.5-1.3
								c-0.9-0.9-1.3-2-1.4-3.1c-0.1-0.1-0.1-0.3-0.1-0.5c0-1.3,0.5-2.5,1.4-3.5C297.4,492.3,298.6,491.8,299.9,491.8z"/>
						</g>
					</g>
					<g>
						
							<radialGradient id="SVGID_25_" cx="-40.5" cy="84.2998" r="3.8414" gradientTransform="matrix(1.1343 0.1669 -6.753236e-002 0.4588 352.9979 457.8836)" gradientUnits="userSpaceOnUse">
							<stop  offset="0" style="stop-color:#FFFFFF"/>
							<stop  offset="0.1765" style="stop-color:#FFFFFF"/>
							<stop  offset="0.3059" style="stop-color:#FFFFFF;stop-opacity:0.4235"/>
							<stop  offset="0.4902" style="stop-color:#FFFFFF;stop-opacity:0.2314"/>
							<stop  offset="0.651" style="stop-color:#FFFFFF;stop-opacity:8.235294e-002"/>
							<stop  offset="1" style="stop-color:#FFFFFF;stop-opacity:0"/>
						</radialGradient>
						<path fill-rule="evenodd" clip-rule="evenodd" fill="url(#SVGID_25_)" d="M298.5,488.2c0.9-0.3,1.9-0.3,3.1-0.2
							c1.1,0.2,2.1,0.5,3,1c0.8,0.5,1.2,0.9,1.1,1.4c-0.1,0.5-0.6,0.8-1.5,1c-0.9,0.2-2,0.2-3.2,0.1c-1.1-0.2-2.1-0.5-3-0.9
							c-0.7-0.5-1.1-0.9-1-1.4C297.2,488.7,297.7,488.4,298.5,488.2z"/>
					</g>
					<g>
						
							<radialGradient id="SVGID_26_" cx="-40.7002" cy="88.6001" r="3.7875" gradientTransform="matrix(1.1465 0 0 1.1465 347.7999 393.1505)" gradientUnits="userSpaceOnUse">
							<stop  offset="0" style="stop-color:#FFFFFF"/>
							<stop  offset="0.1765" style="stop-color:#FFFFFF"/>
							<stop  offset="0.3059" style="stop-color:#FFFFFF;stop-opacity:0.4235"/>
							<stop  offset="0.4902" style="stop-color:#FFFFFF;stop-opacity:0.2314"/>
							<stop  offset="0.651" style="stop-color:#FFFFFF;stop-opacity:8.235294e-002"/>
							<stop  offset="1" style="stop-color:#FFFFFF;stop-opacity:0"/>
						</radialGradient>
						<path fill-rule="evenodd" clip-rule="evenodd" fill="url(#SVGID_26_)" d="M297,494.7c0-1.2,0.4-2.2,1.1-2.9
							c0.9-0.9,1.9-1.3,3-1.3c1.2,0,2.2,0.4,3.1,1.3c0.8,0.8,1.2,1.7,1.2,2.9c0,1.2-0.4,2.2-1.2,3c-0.9,0.8-1.9,1.3-3.1,1.3
							c-1.1,0-2.2-0.4-3-1.3C297.3,497,297,496,297,494.7z"/>
					</g>
					<g>
						
							<radialGradient id="SVGID_27_" cx="-44.5" cy="90.75" r="1.5625" gradientTransform="matrix(1.1465 0 0 1.1465 347.7999 393.1505)" gradientUnits="userSpaceOnUse">
							<stop  offset="0" style="stop-color:#FFFFFF"/>
							<stop  offset="0.1765" style="stop-color:#FFFFFF"/>
							<stop  offset="0.3059" style="stop-color:#FFFFFF;stop-opacity:0.4235"/>
							<stop  offset="0.4902" style="stop-color:#FFFFFF;stop-opacity:0.2314"/>
							<stop  offset="0.651" style="stop-color:#FFFFFF;stop-opacity:8.235294e-002"/>
							<stop  offset="1" style="stop-color:#FFFFFF;stop-opacity:0"/>
						</radialGradient>
						<path fill-rule="evenodd" clip-rule="evenodd" fill="url(#SVGID_27_)" d="M298,498.5c-0.3,0.4-0.8,0.6-1.3,0.6
							s-0.9-0.2-1.2-0.6c-0.3-0.3-0.5-0.8-0.5-1.3c0-0.5,0.2-0.9,0.5-1.1c0.3-0.4,0.7-0.6,1.2-0.6s0.9,0.2,1.3,0.6
							c0.4,0.3,0.6,0.6,0.6,1.1C298.6,497.7,298.4,498.1,298,498.5z"/>
					</g>
				</g>
			</g>
		</g>
		<g>
			<g>
				<path fill-rule="evenodd" clip-rule="evenodd" fill-opacity="0.251" d="M182.5,583.7l-0.1-0.2v0.2H182.5z M191.5,583.9l-3.9,4.1
					H69.2V474.3l4-4.8l114.5,4.8l3.9,97.9V583.9z M82.2,543.7l0.1,3.3v-3.3H82.2z"/>
			</g>
			<g>
				<g>
					
						<linearGradient id="SVGID_28_" gradientUnits="userSpaceOnUse" x1="-276.9248" y1="54.208" x2="-192.2725" y2="113.1547" gradientTransform="matrix(1.1465 0 0 1.1465 347.7999 393.1505)">
						<stop  offset="0" style="stop-color:#636362"/>
						<stop  offset="1" style="stop-color:#000000"/>
					</linearGradient>
					<path fill-rule="evenodd" clip-rule="evenodd" fill="url(#SVGID_28_)" d="M191.6,469.5v113.8H73.2V469.5H191.6z M78.4,578.7
						l-0.2,0.2h0.2h107.7V475.1H78.4V578.7z"/>
					<polygon fill-rule="evenodd" clip-rule="evenodd" fill="#D6D6D6" points="78.4,578.9 78.4,578.7 78.4,475.1 186.1,475.1 
						186.1,578.9 					"/>
				</g>
			</g>
			<g>
				
					<polygon fill-rule="evenodd" clip-rule="evenodd" fill="none" stroke="#666666" stroke-linecap="round" stroke-linejoin="round" stroke-miterlimit="3" points="
					107.1,570.4 107,569.2 106.4,568.1 107.6,567.7 108.4,566.7 109.1,567.8 110.3,568.2 109.6,569.2 109.6,570.4 108.4,570.1 				
					"/>
				<g>
					<path fill-rule="evenodd" clip-rule="evenodd" d="M108.5,568.1c0,0-0.1-0.1-0.1-0.1s-0.1,0-0.1,0c0,0-0.1,0-0.2,0
						c-0.1,0-0.1,0.1-0.2,0.1v-0.2c0.1,0,0.1-0.1,0.2-0.1c0.1,0,0.2-0.1,0.2-0.1c0,0,0.1,0,0.1,0.1c0.1,0,0.1,0,0.2,0.1
						c0,0,0.1,0.1,0.1,0.1c0,0,0.1,0.1,0.1,0.2c0,0,0,0.1,0,0.1c0,0-0.1,0.1-0.1,0.1c0,0-0.1,0-0.1,0.1c0,0-0.1,0.1-0.1,0.1
						c0,0-0.1,0-0.1,0.1l-0.1,0.1c0,0-0.1,0.1-0.1,0.1v0.1c0,0,0,0.1,0,0.1v0.1h-0.1c0,0,0-0.1-0.1-0.1c0,0,0-0.1,0-0.1
						c0,0,0-0.1,0.1-0.1c0,0,0-0.1,0.1-0.1c0,0,0-0.1,0.1-0.1c0,0,0-0.1,0.1-0.1c0,0,0.1-0.1,0.1-0.1c0,0,0.1,0,0.1-0.1
						c0,0,0.1,0,0.1-0.1c0,0,0-0.1,0-0.1S108.5,568.1,108.5,568.1C108.5,568.1,108.5,568.1,108.5,568.1z M108.3,569.5L108.3,569.5
						h-0.1c0,0-0.1,0-0.1-0.1v-0.1c0,0,0-0.1,0.1-0.1h0.1c0,0,0.1,0,0.1,0.1L108.3,569.5C108.4,569.5,108.3,569.5,108.3,569.5z"/>
				</g>
			</g>
			<g>
				<path fill-rule="evenodd" clip-rule="evenodd" fill="#666666" d="M121.6,569.3v-0.7c0-0.3-0.1-0.7-0.3-0.9h-0.1
					c-0.3-0.2-0.6-0.3-0.9-0.3h-3.4c-0.3,0-0.6,0.1-0.9,0.3c-0.2,0.3-0.3,0.6-0.3,0.9v0.7c0,0.4,0.1,0.7,0.3,1
					c0.3,0.2,0.6,0.3,0.9,0.4h3.4c0.3-0.1,0.6-0.2,1-0.4C121.5,570,121.6,569.6,121.6,569.3z M115.3,569.3v-0.7
					c0-0.5,0.1-0.9,0.5-1.2c0.3-0.3,0.7-0.5,1.2-0.5h3.4c0.4,0,0.8,0.1,1.2,0.5v0.1c0.3,0.3,0.5,0.7,0.5,1.1v0.7
					c0,0.5-0.2,0.9-0.5,1.3c-0.4,0.3-0.8,0.5-1.2,0.5h-3.4c-0.5,0-0.8-0.2-1.1-0.5h-0.1C115.4,570.2,115.2,569.8,115.3,569.3z
					 M117.7,567.6l1,2.4h-0.5l-0.2-0.5h-1l-0.2,0.5h-0.5l0.9-2.4H117.7z M117.8,569l-0.3-0.9l-0.3,0.9H117.8z M120.7,568h-1.3v0.5
					h1.2v0.5h-1.2v0.7h1.4v0.3h-1.9v-2.4h1.8V568z"/>
			</g>
			<g>
				<path fill-rule="evenodd" clip-rule="evenodd" fill="#333333" d="M173.1,495.9c0.5,0.5,0.7,1.4,0.7,2.6c0,1.2-0.2,2.1-0.7,2.6
					c-0.3,0.4-0.8,0.6-1.4,0.6c-0.6,0-1.2-0.2-1.5-0.7c-0.4-0.5-0.6-1.4-0.6-2.6s0.2-2.1,0.6-2.6c0.4-0.5,0.9-0.7,1.5-0.7
					C172.3,495.2,172.7,495.5,173.1,495.9z M171,496.9c-0.1,0.3-0.2,0.9-0.2,1.7c0,0.7,0.1,1.2,0.2,1.5c0,0.3,0.1,0.5,0.3,0.6
					c0.1,0.1,0.2,0.2,0.4,0.2s0.3-0.1,0.3-0.2c0.2-0.1,0.2-0.2,0.3-0.5c0.1-0.3,0.2-0.8,0.2-1.5c0-0.8-0.1-1.3-0.2-1.6
					c0-0.3-0.1-0.5-0.3-0.6c-0.1-0.1-0.2-0.2-0.3-0.2s-0.3,0.1-0.4,0.2C171.1,496.5,171,496.7,171,496.9z M166.7,495.2h1v6.5h-1.2
					v-4.6c-0.4,0.4-1,0.7-1.6,0.9v-1.1c0.3-0.1,0.7-0.3,1-0.5C166.3,496,166.6,495.7,166.7,495.2z M135.2,506.5
					c0.3,0.3,0.5,0.7,0.6,1.2l-1.2,0.2c0-0.3-0.1-0.4-0.2-0.5c-0.2-0.2-0.3-0.2-0.4-0.2c-0.3,0-0.5,0.1-0.7,0.3
					c-0.2,0.3-0.3,0.7-0.4,1.4c0.3-0.3,0.7-0.5,1.1-0.5c0.5,0,1,0.2,1.3,0.6c0.4,0.4,0.6,0.9,0.6,1.5c0,0.7-0.2,1.2-0.6,1.5
					c-0.4,0.4-0.9,0.6-1.5,0.6c-0.6,0-1.2-0.2-1.7-0.7c-0.4-0.5-0.6-1.3-0.6-2.5c0-1.1,0.2-2,0.7-2.5c0.5-0.5,1-0.7,1.7-0.7
					C134.4,506.1,134.8,506.3,135.2,506.5z M149.6,502.8c0,0.3,0.1,0.6,0.3,0.7c0.2,0.2,0.4,0.3,0.6,0.3c0.2,0,0.5-0.1,0.7-0.2
					c0.2-0.2,0.2-0.5,0.2-0.8c0-0.3-0.1-0.6-0.2-0.7c-0.2-0.2-0.5-0.2-0.7-0.2c-0.3,0-0.5,0.1-0.7,0.3
					C149.7,502.3,149.6,502.5,149.6,502.8z M149.5,501.3c-0.3-0.2-0.5-0.4-0.7-0.6c-0.2-0.2-0.2-0.4-0.2-0.7c0-0.5,0.2-0.9,0.5-1.2
					c0.3-0.3,0.8-0.4,1.4-0.4c0.6,0,1.1,0.1,1.4,0.4c0.3,0.3,0.5,0.7,0.5,1.2c0,0.3-0.1,0.6-0.3,0.9c-0.2,0.2-0.4,0.4-0.6,0.5
					c0.3,0.2,0.6,0.3,0.9,0.6c0.1,0.3,0.2,0.6,0.2,1c0,0.6-0.2,1.1-0.5,1.4c-0.4,0.4-0.9,0.6-1.5,0.6s-1.1-0.2-1.5-0.5
					c-0.5-0.4-0.7-0.9-0.7-1.5c0-0.3,0.1-0.6,0.2-0.9C148.8,501.6,149.1,501.4,149.5,501.3z M149.9,500.6c0.2,0.2,0.4,0.2,0.6,0.2
					c0.2,0,0.4-0.1,0.5-0.2c0.2-0.2,0.2-0.3,0.2-0.6c0-0.3-0.1-0.4-0.2-0.5c-0.1-0.2-0.3-0.2-0.5-0.2c-0.3,0-0.5,0.1-0.6,0.2
					c-0.1,0.1-0.1,0.2-0.1,0.5C149.8,500.2,149.8,500.4,149.9,500.6z M133.8,509.3c-0.2,0-0.4,0.1-0.6,0.3c-0.2,0.2-0.2,0.5-0.2,0.8
					c0,0.4,0.1,0.7,0.2,0.9c0.2,0.3,0.4,0.4,0.7,0.4c0.2,0,0.4-0.1,0.5-0.3c0.2-0.1,0.2-0.4,0.2-0.8c0-0.5-0.1-0.8-0.2-1
					C134.3,509.4,134.1,509.3,133.8,509.3z M119.9,519.6v4.1h0.8v1.1h-0.8v1.3h-1.2v-1.3H116v-1.1l2.8-4.1H119.9z M118.7,521.4
					l-1.4,2.2h1.4V521.4z M111.3,538.6c0,0.3-0.1,0.6-0.2,0.9c-0.1,0.2-0.3,0.5-0.5,0.8c-0.2,0.2-0.4,0.4-0.9,0.9
					c-0.4,0.3-0.6,0.6-0.7,0.6c-0.1,0.1-0.2,0.2-0.2,0.4h2.5v1.1h-4.4c0-0.5,0.2-0.9,0.5-1.2c0.2-0.4,0.6-1,1.3-1.6
					c0.6-0.5,0.9-0.8,1-1c0.2-0.3,0.2-0.5,0.2-0.7c0-0.3-0.1-0.5-0.2-0.7c-0.1-0.2-0.3-0.2-0.6-0.2s-0.5,0.1-0.6,0.3
					c-0.2,0.2-0.3,0.4-0.3,0.7l-1.2-0.1c0.1-0.7,0.3-1.1,0.7-1.4c0.4-0.3,0.9-0.5,1.4-0.5c0.6,0,1.1,0.2,1.5,0.5
					C111.1,537.7,111.3,538.1,111.3,538.6z M103.8,558.4c0.3-0.4,0.8-0.6,1.5-0.6c0.6,0,1.1,0.2,1.4,0.6c0.5,0.5,0.7,1.4,0.7,2.6
					c0,1.2-0.2,2.1-0.7,2.6c-0.3,0.4-0.8,0.6-1.4,0.6c-0.6,0-1.1-0.2-1.5-0.6c-0.4-0.5-0.6-1.4-0.6-2.6
					C103.1,559.7,103.3,558.9,103.8,558.4z M105.3,558.7c-0.2,0-0.3,0-0.4,0.1c-0.1,0.1-0.2,0.3-0.3,0.5c-0.1,0.4-0.1,0.9-0.1,1.7
					c0,0.8,0,1.3,0.1,1.5c0.1,0.3,0.2,0.5,0.3,0.6c0.1,0.1,0.2,0.1,0.4,0.1s0.3,0,0.4-0.1c0.1-0.1,0.2-0.3,0.3-0.5
					c0.1-0.3,0.1-0.8,0.1-1.6c0-0.7,0-1.2-0.1-1.5c-0.1-0.3-0.2-0.5-0.3-0.6C105.5,558.7,105.4,558.7,105.3,558.7z"/>
			</g>
			<g>
				<g>
					<path fill-rule="evenodd" clip-rule="evenodd" d="M92.1,541l0.1-0.4l9.9,2.5l-0.1,0.3L92.1,541z M89.9,556.4V556l10.1,0.6v0.4
						L89.9,556.4z M91.1,545.8l0.1-0.4l9.9,2l-0.1,0.4L91.1,545.8z M90.2,550.9l0.1-0.4l0.2,0.1l9.6,1.3h0.2l-0.1,0.3h-0.2l-9.7-1.3
						L90.2,550.9z M95.5,531.2l0.1-0.4l9.5,3.8l-0.2,0.3L95.5,531.2z M100.3,521.6l0.1,0.1l8.7,4.9l-0.2,0.3l-0.2-0.1l-8.4-4.8
						l-0.2-0.1L100.3,521.6z M97.7,526.3l0.2-0.3l0.1,0.1l9,4.4l-0.2,0.3l-0.1-0.1l-8.8-4.3L97.7,526.3z M102.9,517.6l0.2-0.3
						l8.4,5.6l-0.2,0.3L102.9,517.6z M116.5,516.6l-0.1-0.2l-7.3-6.3l-0.2-0.1l0.2-0.3l0.2,0.1l7.3,6.3l0.1,0.1L116.5,516.6z
						 M149.9,484.9l0.4-0.1l2.4,9.7l-0.3,0.1L149.9,484.9z M140.7,487.9l-0.1-0.1l0.4-0.2l3.7,9.3l-0.4,0.2L140.7,487.9z
						 M159.7,483.3l0.1,0.2l1.2,9.5v0.2l-0.4,0.1v-0.1l-1.2-9.5l-0.1-0.2L159.7,483.3z M154.6,484l0.4-0.1l1.9,9.8l-0.4,0.1
						L154.6,484z M127.5,494.2l0.3-0.2l0.1,0.2l5.3,8.4l-0.4,0.2l-0.1-0.2L127.5,494.2z M115.8,503l0.2-0.2l6.9,7.5l-0.3,0.3
						L115.8,503z M119.6,499.8l0.3-0.2l6.3,7.9l-0.3,0.2L119.6,499.8z M132,491.6l0.1,0.2l4.6,8.5l0.2,0.2l-0.4,0.2l-0.1-0.2
						l-4.6-8.7L132,491.6z M136.2,489.6l0.3-0.1l0.2,0.1l4.2,8.9l-0.4,0.2l-4.2-8.9L136.2,489.6z M112.6,506.1l0.2,0.1l6.9,6.8
						l0.2,0.1l-0.3,0.3l-7.1-7L112.6,506.1z M164.2,483h0.4l0.6,9.9h-0.3L164.2,483z"/>
				</g>
				<g>
					<g>
						<path fill-rule="evenodd" clip-rule="evenodd" d="M103.6,538.8l-0.3,0.7l-9.9-3.4l0.2-0.6L103.6,538.8z M89.5,561.5v-0.7H100
							v0.7H89.5z M113.9,520l-8.4-6.3l0.5-0.6l8.4,6.2L113.9,520z M148.1,496.1l-0.2-0.4l-3-9.6l0.7-0.2l3.2,9.9L148.1,496.1z
							 M129.9,504.8l-0.6,0.5l-6.1-8.4l0.6-0.5L129.9,504.8z M168.8,493v-10.3h0.7V493H168.8z"/>
					</g>
				</g>
				<g>
					<g>
						<g>
							<path fill-rule="evenodd" clip-rule="evenodd" d="M97.9,539.8h-0.2l-4.8-1.5l0.2-0.4l0.1,0.1l4.7,1.4l0.1,0.1L97.9,539.8z
								 M89.8,558.9v-0.4l5.2,0.2v0.3L89.8,558.9z M91.6,543.2l0.1-0.3l5.1,1.2l-0.1,0.3L91.6,543.2z M90.6,548.5l0.1-0.4l5.2,0.9
								l-0.1,0.3L90.6,548.5z M90.1,553.7v-0.3h0.1l4.8,0.5h0.2v0.3h-0.2l-4.8-0.5H90.1z M94.5,533.5l0.2-0.3l0.1,0.1l4.6,1.8
								l0.2,0.1l-0.1,0.3h-0.2l-4.5-1.8L94.5,533.5z M96.5,528.8l0.2-0.4l4.8,2.1l-0.2,0.3L96.5,528.8z M103.3,526.4l-4.3-2.3
								l-0.1-0.1l0.1-0.3l0.2,0.1l4.3,2.3l0.2,0.1l-0.2,0.4L103.3,526.4z M101.8,519.6l-0.2-0.1l0.2-0.3l4.3,2.6l0.2,0.1l-0.2,0.3
								L101.8,519.6z M104.5,515.4l4.2,3l-0.2,0.3l-4.2-3L104.5,515.4z M107.4,511.8l0.2-0.3l4.1,3.3l-0.2,0.3L107.4,511.8z
								 M114.5,511.6l-3.8-3.5l0.2-0.2l3.9,3.4L114.5,511.6z M148.8,490.5l-1.4-4.9l0.3-0.2l0.1,0.2l1.3,4.9l-0.3,0.1L148.8,490.5z
								 M143,487.1l-0.1-0.2l0.4-0.1l0.1,0.1l1.6,4.6v0.2l-0.3,0.1l-0.1-0.1L143,487.1z M152.2,484.4l0.3-0.1l1,5.2l-0.3,0.1
								L152.2,484.4z M157,483.7l0.4-0.1l0.8,5.1l-0.3,0.1L157,483.7z M129.9,492.7l2.7,4.6l-0.3,0.2l-2.6-4.7L129.9,492.7z
								 M120.8,505.2l-3.2-3.6l-0.1-0.1l0.2-0.2l0.1,0.1l3.2,3.6l0.2,0.1l-0.3,0.3L120.8,505.2z M121.6,498.2l0.3-0.2l3.2,4.2
								l-0.3,0.2L121.6,498.2z M125.5,495.5l0.3-0.2l2.9,4.4l-0.3,0.2L125.5,495.5z M138.3,488.7l0.3-0.1l2.1,4.8l-0.4,0.2
								L138.3,488.7z M134,490.8l-0.1-0.2l0.3-0.1l0.1,0.1l2.3,4.5l-0.4,0.2l-0.1-0.2L134,490.8z M114,504.6l0.2-0.2l3.7,3.7
								l-0.3,0.3L114,504.6z M162.1,483.2v0.1l0.5,4.8v0.2h-0.3v-0.2l-0.5-4.8v-0.1H162.1z M166.6,483h0.3l0.2,5.1h-0.4L166.6,483z"
								/>
						</g>
					</g>
				</g>
			</g>
			<g>
				<path fill-rule="evenodd" clip-rule="evenodd" d="M98,488.9l4.5,10.7h-1.7l-1.3-3.2h-4.5l-1.1,3.2h-1.5l4.1-10.7H98z M97.2,490
					c-0.1,0.7-0.3,1.4-0.5,2l-1.2,3.2h3.7l-1.1-2.9C97.7,491.3,97.4,490.6,97.2,490z"/>
			</g>
			<g>
				<g>
					
						<linearGradient id="SVGID_29_" gradientUnits="userSpaceOnUse" x1="-234.8501" y1="74.4248" x2="-140.9501" y2="74.4248" gradientTransform="matrix(1.1465 0 0 1.1465 347.7999 393.1505)">
						<stop  offset="0" style="stop-color:#848484"/>
						<stop  offset="1" style="stop-color:#999999"/>
					</linearGradient>
					<polygon fill-rule="evenodd" clip-rule="evenodd" fill="url(#SVGID_29_)" points="186.3,475.2 178.8,481.8 85.8,481.8 
						78.5,475.1 186.3,475.1 					"/>
					<path fill-rule="evenodd" clip-rule="evenodd" fill="#BEBEBE" d="M85.8,481.8v89.6l-7.3,7.3V475.1L85.8,481.8z M178.8,571.4
						v-89.6l7.5-6.7v103.4c-0.1,0.1-0.1,0.2-0.2,0.4h-7.4v-0.1c0-2.6,0-4.1,0.1-4.6V571.4z"/>
					<path fill-rule="evenodd" clip-rule="evenodd" fill="#CFCFCF" d="M178.8,571.4v2.8c0,0.5-0.1,2-0.1,4.6v0.1H78.5v-0.2l7.3-7.3
						h92.8C178.7,571.4,178.8,571.4,178.8,571.4z"/>
				</g>
			</g>
			<g>
				
					<radialGradient id="SVGID_30_" cx="-154.7998" cy="123.4502" r="3.1" gradientTransform="matrix(1.1075 0.2967 -0.2967 1.1075 365.2997 444.7996)" gradientUnits="userSpaceOnUse">
					<stop  offset="0" style="stop-color:#FFFFFF"/>
					<stop  offset="1" style="stop-color:#505050"/>
				</radialGradient>
				<path fill-rule="evenodd" clip-rule="evenodd" fill="url(#SVGID_30_)" d="M158.6,538c-0.7,0.4-1.4,0.5-2.1,0.3
					c-0.7-0.2-1.3-0.6-1.7-1.3c-0.4-0.7-0.5-1.4-0.3-2.1s0.6-1.3,1.3-1.7c0.7-0.4,1.4-0.5,2.1-0.3c0.7,0.2,1.3,0.6,1.7,1.3
					s0.5,1.4,0.3,2.1C159.7,537,159.3,537.6,158.6,538z"/>
				
					<rect x="155.4" y="535" transform="matrix(0.2588 -0.9659 0.9659 0.2588 -400.6547 548.6411)" fill-rule="evenodd" clip-rule="evenodd" width="3.6" height="0.8"/>
				
					<rect x="155.4" y="535.2" transform="matrix(0.9659 0.2588 -0.2588 0.9659 143.9771 -22.436)" fill-rule="evenodd" clip-rule="evenodd" width="3.5" height="0.8"/>
			</g>
			<g>
				
					<radialGradient id="SVGID_31_" cx="-154.7998" cy="123.4502" r="3.1" gradientTransform="matrix(0.9927 -0.5731 0.5731 0.9927 223.1498 342.9998)" gradientUnits="userSpaceOnUse">
					<stop  offset="0" style="stop-color:#FFFFFF"/>
					<stop  offset="1" style="stop-color:#505050"/>
				</radialGradient>
				<path fill-rule="evenodd" clip-rule="evenodd" fill="url(#SVGID_31_)" d="M142.9,555c-0.2,0.7-0.6,1.3-1.3,1.7
					c-0.7,0.4-1.4,0.5-2.1,0.3s-1.3-0.6-1.7-1.3c-0.4-0.7-0.5-1.4-0.3-2.1c0.2-0.7,0.6-1.3,1.3-1.7c0.7-0.4,1.4-0.5,2.1-0.3
					c0.7,0.2,1.3,0.6,1.7,1.3C143,553.6,143.1,554.3,142.9,555z"/>
				
					<rect x="138.3" y="553.7" transform="matrix(-0.5 -0.866 0.866 -0.5 -269.7686 952.4016)" fill-rule="evenodd" clip-rule="evenodd" width="3.6" height="0.8"/>
				
					<rect x="138.5" y="553.9" transform="matrix(0.8661 -0.4999 0.4999 0.8661 -258.3014 144.3417)" fill-rule="evenodd" clip-rule="evenodd" width="3.5" height="0.8"/>
			</g>
		</g>
		<g>
			<g>
				
					<radialGradient id="SVGID_32_" cx="-133.6001" cy="50.3999" r="118.2" gradientTransform="matrix(1.1465 0 0 1.6051 347.7999 370.0392)" gradientUnits="userSpaceOnUse">
					<stop  offset="0" style="stop-color:#FFFFFF"/>
					<stop  offset="1" style="stop-color:#FFFFFF;stop-opacity:0"/>
				</radialGradient>
				<path fill-rule="evenodd" clip-rule="evenodd" fill="url(#SVGID_32_)" d="M328.4,450.9c0,0.1,0,0.2-0.1,0.3
					c-0.1,0-0.2,0.1-0.2,0.1H59.8c-0.1,0-0.1,0-0.2-0.1c-0.1-0.1-0.1-0.2-0.1-0.3c0-0.1,0-0.2,0.1-0.2c0-0.1,0.1-0.2,0.2-0.2h268.3
					c0.1,0,0.2,0.1,0.2,0.2C328.3,450.7,328.4,450.8,328.4,450.9z"/>
				
					<radialGradient id="SVGID_33_" cx="-248.3496" cy="119.25" r="60.1625" gradientTransform="matrix(-5.011576e-008 1.1465 -4.0546 -1.772326e-007 546.5754 814.6089)" gradientUnits="userSpaceOnUse">
					<stop  offset="0" style="stop-color:#FFFFFF"/>
					<stop  offset="1" style="stop-color:#FFFFFF;stop-opacity:0"/>
				</radialGradient>
				<path fill-rule="evenodd" clip-rule="evenodd" fill="url(#SVGID_33_)" d="M63.1,460.6c0.2,0,0.3,0,0.4,0.1
					c0.1,0,0.1,0.1,0.1,0.2v136.9c0,0.1,0,0.2-0.1,0.2c-0.1,0-0.2,0.1-0.4,0.1s-0.2,0-0.3-0.1c-0.2-0.1-0.2-0.2-0.2-0.2V460.9
					c0-0.1,0.1-0.1,0.2-0.2C62.8,460.6,62.9,460.6,63.1,460.6z"/>
			</g>
		</g>
	</g>
	<g>
		<g>
			<path fill-rule="evenodd" clip-rule="evenodd" fill-opacity="0.2471" d="M148.6,277.4c0,0.5-0.2,0.9-0.5,1.2
				c-0.3,0.3-0.7,0.5-1.2,0.5h-18.1c-8.3,5.2-16.9,8.5-25.9,9.9l0.5-0.4c-3.1,1.3-15.3,3.4-36.6,6.3c-5.7,0.7-9.8,1.7-12.4,2.8
				c-1.5,0.6-2.2,1.3-2.1,1.9c1.3,2.8,8.8,6.5,22.5,11c15.3,5.1,22.7,12.9,22.2,23.3c-0.3,10-8.2,22.5-23.8,37.4
				c-29.9,28.6-42.1,66.4-36.5,113.3c5.6,47.7,8.3,76.3,8.2,85.9c-0.1,9.8-4,21.1-11.8,33.8c-1.5,2.5-1.9,4.6-1.1,6.5
				c1,2,3.3,3.6,6.9,4.9c8.1,3,22.1,4.5,42,4.4c40.4-0.2,69.9-0.8,88.6-1.8c17.7-1,28.1-6.9,31.4-17.7c3.2-11.3,4.3-20.7,3.1-28
				c-0.1-0.5,0-0.9,0.3-1.3c0.3-0.4,0.6-0.6,1.1-0.7c0.5-0.1,0.9,0,1.3,0.3c0.4,0.3,0.6,0.6,0.7,1.1c1.3,7.8,0.2,17.6-3.2,29.6
				c-3.4,12.3-14.9,19.1-34.5,20.2c-18.7,1.1-48.3,1.7-88.7,1.8c-20.5,0-34.9-1.5-43.3-4.6c-4.7-1.7-7.6-3.9-8.8-6.7
				c-1.5-2.8-1-6,1.3-9.7c7.3-12.1,11-22.8,11.2-32.1c0.1-9.6-2.6-38-8.2-85.4c-5.7-48.2,6.8-86.9,37.6-116.2h-0.1
				c14.7-14.1,22.3-25.8,22.8-35.1c0.2-8.9-6.4-15.5-19.8-19.9c-15.2-5.1-23.4-9.4-24.5-13c-1.3-2.6,0-4.7,3.9-6.4
				c2.7-1.2,7.1-2.2,13.3-3c22.7-3.1,34.3-4.7,34.7-4.9c0.1-0.3,0.3-0.5,0.5-0.7c0.2-0.2,0.5-0.2,0.8-0.3c8.7-1.4,17-4.6,25-9.7
				c0.3-0.2,0.6-0.3,0.9-0.3h18.6c0.5,0,0.9,0.2,1.2,0.5C148.5,276.5,148.6,277,148.6,277.4z"/>
		</g>
		<g>
			<path fill-rule="evenodd" clip-rule="evenodd" d="M67.1,295c-2.3,0.9-3.9,1.8-4.8,2.7c-0.1,0.1-0.2,0.1-0.2-0.1
				c2.6,4.1,11.7,9.2,27.4,15.5c10,3.7,12.9,11.9,8.9,24.5c-3.5,11-13,25.7-28.5,44.3C40,417.7,32.7,471.4,48.1,543
				c0,0,0,0.1,0.1,0.2c4.1,27.6,2,45.8-6.4,54.6c-4,4.4-5.7,7.8-5.1,10.2c1.1,2.3,4.6,3.8,10.6,4.7c6.3,0.9,22.8,1.5,49.6,1.8
				c25.5,0.3,48.4,0.2,68.8-0.2l1.5-0.1c7.1-0.2,13.1-3,17.7-8.4c4.3-5.2,7-11.7,8.1-19.7c1.3-10,3.6-16.7,6.9-20.1
				c4.3-5.1,11.7-6.7,22.1-4.6c0.8,0.2,1.4,0.6,1.8,1.2c0.4,0.6,0.6,1.4,0.4,2.2c-0.2,0.8-0.6,1.4-1.2,1.8c-0.6,0.4-1.4,0.6-2.1,0.4
				c-7.9-1.5-13.5-0.5-16.8,2.9c-2.5,2.9-4.4,8.6-5.5,17.1c-1.3,9.2-4.5,16.8-9.5,22.6c-5.7,6.7-13,10.2-21.9,10.4c0,0-0.1,0-0.1,0
				l-1.5,0.1c-20.4,0.4-43.4,0.5-68.9,0.2c-27.2-0.3-44-0.9-50.3-1.8c-8.9-1.3-14-4.1-15.2-8.4c-1.9-4.1,0.2-9.5,6.2-16.1v0.1
				c7-8.1,8.6-24.7,4.9-49.8c-15.8-73.8-8.2-129.1,22.9-165.9c14.9-17.8,24-31.9,27.5-42.4c2.9-8.9,1-14.7-5.5-17.5
				c-17.5-7-27.5-13-30.2-18c-1.5-2.3-1.1-4.5,1-6.8c1.2-1.4,3.5-2.7,6.8-4c5.7-2.3,15-4.6,27.8-6.8c23.4-4.1,36-13.8,37.9-29.1
				c1.7-18.8,15.3-26.3,40.8-22.6c0.8,0.1,1.4,0.4,1.9,1.1c0.5,0.6,0.7,1.4,0.6,2.1c-0.1,0.8-0.5,1.4-1.1,1.9
				c-0.6,0.5-1.4,0.7-2.1,0.6c-21.1-3.1-32.5,2.8-34.3,17.5c-1.7,18.1-15.9,29.4-42.6,34.1v0.1C81.5,290.7,72.6,292.8,67.1,295z"/>
		</g>
		<g>
			<g>
				
					<radialGradient id="SVGID_34_" cx="-165.3169" cy="-137.7998" r="11.3162" gradientTransform="matrix(1.1465 0 0 1.1465 347.7999 393.1505)" gradientUnits="userSpaceOnUse">
					<stop  offset="0" style="stop-color:#FFFFFF"/>
					<stop  offset="1" style="stop-color:#FFFFFF;stop-opacity:7.843138e-003"/>
				</radialGradient>
				<path fill-rule="evenodd" clip-rule="evenodd" fill="url(#SVGID_34_)" d="M145.6,236.9c-0.2,0-0.3,0-0.5-0.1
					c-0.2,0-0.2-0.1-0.3-0.3c-0.1-0.2-0.1-0.3,0-0.5s0.2-0.2,0.3-0.3c8.7-3.6,17.4-4.4,26-2.5c0.2,0,0.3,0.1,0.4,0.3
					c0.1,0.1,0.1,0.2,0.1,0.4s-0.1,0.3-0.2,0.4c-0.2,0.1-0.3,0.1-0.5,0.1C162.6,232.7,154.1,233.5,145.6,236.9z"/>
				
					<radialGradient id="SVGID_35_" cx="-206.0498" cy="-102.25" r="21.2" gradientTransform="matrix(1.1465 0 0 1.1465 347.7999 393.1505)" gradientUnits="userSpaceOnUse">
					<stop  offset="0" style="stop-color:#FFFFFF"/>
					<stop  offset="1" style="stop-color:#FFFFFF;stop-opacity:7.843138e-003"/>
				</radialGradient>
				<path fill-rule="evenodd" clip-rule="evenodd" fill="url(#SVGID_35_)" d="M132,262c0.1,0.1,0.1,0.2,0.1,0.4
					c-2.6,13.3-22,22.6-58.1,28c-0.2,0-0.3,0-0.5-0.1c-0.1-0.1-0.2-0.2-0.2-0.3c0-0.2,0-0.3,0.1-0.5c0.1-0.1,0.2-0.2,0.4-0.2
					c35.4-5.3,54.5-14.3,57.2-27.1c0-0.2,0.1-0.3,0.3-0.3c0.1-0.1,0.2-0.2,0.4-0.1S131.9,261.8,132,262z"/>
				
					<radialGradient id="SVGID_36_" cx="-223.25" cy="-58.25" r="14.75" gradientTransform="matrix(1.1465 0 0 1.1465 347.7999 393.1505)" gradientUnits="userSpaceOnUse">
					<stop  offset="0" style="stop-color:#FFFFFF"/>
					<stop  offset="1" style="stop-color:#FFFFFF;stop-opacity:7.843138e-003"/>
				</radialGradient>
				<path fill-rule="evenodd" clip-rule="evenodd" fill="url(#SVGID_36_)" d="M80.7,312.2c0.1-0.1,0.2-0.2,0.4-0.1
					c8.6,1.9,13.9,5.5,15.9,11c2,5.4,0.7,12.6-4,21.6c-0.1,0.1-0.2,0.2-0.3,0.3c-0.2,0-0.3,0-0.4-0.1c-0.2-0.1-0.2-0.2-0.3-0.3
					c-0.1-0.2-0.1-0.3,0-0.4c4.4-8.6,5.7-15.5,3.9-20.6c-1.9-5.1-6.9-8.5-15-10.3c-0.2,0-0.3-0.1-0.3-0.2c-0.1-0.2-0.2-0.3-0.1-0.5
					C80.5,312.4,80.6,312.3,80.7,312.2z"/>
				
					<radialGradient id="SVGID_37_" cx="-246.0498" cy="45.3999" r="72.15" gradientTransform="matrix(1.1465 0 0 1.1465 347.7999 393.1505)" gradientUnits="userSpaceOnUse">
					<stop  offset="0" style="stop-color:#FFFFFF"/>
					<stop  offset="1" style="stop-color:#FFFFFF;stop-opacity:7.843138e-003"/>
				</radialGradient>
				<path fill-rule="evenodd" clip-rule="evenodd" fill="url(#SVGID_37_)" d="M72.5,375c0,0.2,0,0.3-0.1,0.4
					c-32.7,35.5-42.8,84.9-30.3,148.2c0,0.2,0,0.3-0.1,0.5c-0.1,0.1-0.2,0.2-0.4,0.2s-0.3,0-0.4-0.1c-0.2-0.1-0.2-0.2-0.3-0.4
					C28.4,460,38.5,410.3,71.5,374.6c0.1-0.1,0.2-0.2,0.4-0.2c0.2,0,0.3,0.1,0.4,0.2C72.4,374.7,72.5,374.8,72.5,375z"/>
				
					<radialGradient id="SVGID_38_" cx="-126.3999" cy="152.3501" r="16.2" gradientTransform="matrix(1.1465 0 0 1.1465 347.7999 393.1505)" gradientUnits="userSpaceOnUse">
					<stop  offset="0" style="stop-color:#FFFFFF"/>
					<stop  offset="1" style="stop-color:#FFFFFF;stop-opacity:7.843138e-003"/>
				</radialGradient>
				<path fill-rule="evenodd" clip-rule="evenodd" fill="url(#SVGID_38_)" d="M215.2,562.8c0.2,0,0.3,0.1,0.4,0.2
					c0.1,0.1,0.1,0.2,0.1,0.4c0,0.2-0.1,0.3-0.2,0.4c-0.2,0.1-0.3,0.1-0.5,0.1c-5.8-0.6-10.3,1.1-13.5,5c-3.2,4-5,10.3-5.4,18.9
					c0,0.2-0.1,0.3-0.2,0.4c-0.1,0.1-0.2,0.1-0.4,0.1c-0.2,0-0.3-0.1-0.4-0.2c-0.1-0.1-0.2-0.2-0.2-0.4c0.4-8.9,2.3-15.4,5.6-19.5
					C204.1,564,208.9,562.2,215.2,562.8z"/>
				
					<radialGradient id="SVGID_39_" cx="-265.2002" cy="171.0498" r="12.85" gradientTransform="matrix(1.1465 0 0 1.1465 347.7999 393.1505)" gradientUnits="userSpaceOnUse">
					<stop  offset="0" style="stop-color:#FFFFFF"/>
					<stop  offset="1" style="stop-color:#FFFFFF;stop-opacity:7.843138e-003"/>
				</radialGradient>
				<path fill-rule="evenodd" clip-rule="evenodd" fill="url(#SVGID_39_)" d="M47.6,572.8c0.1,0.1,0.1,0.2,0.1,0.4
					c-0.7,11.5-4.3,20.4-10.8,26.8c-0.1,0.1-0.2,0.2-0.4,0.2s-0.3-0.1-0.4-0.2c-0.1-0.1-0.2-0.2-0.2-0.4c0-0.2,0.1-0.3,0.2-0.4
					c6.3-6.2,9.7-14.9,10.4-26.1c0-0.2,0.1-0.3,0.2-0.4c0.1-0.1,0.2-0.2,0.4-0.2C47.3,572.5,47.5,572.6,47.6,572.8z"/>
				
					<radialGradient id="SVGID_40_" cx="-214.625" cy="194.75" r="40.0746" gradientTransform="matrix(1.1465 0 0 1.1465 347.7999 393.1505)" gradientUnits="userSpaceOnUse">
					<stop  offset="0" style="stop-color:#FFFFFF"/>
					<stop  offset="1" style="stop-color:#FFFFFF;stop-opacity:7.843138e-003"/>
				</radialGradient>
				<path fill-rule="evenodd" clip-rule="evenodd" fill="url(#SVGID_40_)" d="M55.4,615.9c-0.1-0.2-0.2-0.3-0.2-0.5
					c0-0.2,0.1-0.3,0.2-0.3c0.1-0.1,0.2-0.2,0.4-0.2c19.7,2,50.3,2.6,91.7,1.8c0.2,0,0.3,0.1,0.4,0.2c0.1,0.1,0.2,0.2,0.2,0.4
					c0,0.2-0.1,0.3-0.2,0.4c-0.1,0.1-0.2,0.2-0.4,0.2c-41.5,0.8-72.1,0.2-91.8-1.8C55.6,616.1,55.5,616,55.4,615.9z"/>
			</g>
		</g>
	</g>
	<g>
		<g>
			<path fill-rule="evenodd" clip-rule="evenodd" fill-opacity="0.149" d="M624.6,317c-5.4,2.5-14.2,4.9-26.5,7.3
				c-48.4,9.3-99.6,33.3-153.6,71.9c-53.5,38.2-71.1,82.4-52.7,132.6c9.6,26,11.5,46.4,5.8,61.3c-5.7,15.1-19.1,24.6-40.2,28.4h0.1
				c-16,3.4-27.2,5.6-33.7,6.5c-7.9,1.1-14,1.1-18.1,0.2c-3.7-0.8-7.6-2.9-11.6-6.3l-0.1-0.1c-5-4.7-9.6-8.8-13.6-12.2
				c-0.3-0.2-0.5-0.5-0.6-0.9l-1.8-7.4c-0.1-0.5,0-0.9,0.2-1.3c0.2-0.4,0.6-0.7,1-0.8c0.5-0.1,0.9,0,1.3,0.2c0.4,0.2,0.6,0.6,0.7,1
				l1.7,6.8c3.9,3.3,8.4,7.3,13.2,11.9l0.1,0.1c3.5,2.9,6.8,4.8,10.1,5.6c3.8,0.9,9.4,0.8,16.9-0.2c6.4-1,17.6-3.1,33.4-6.5h0.1
				c19.7-3.5,32.2-12.2,37.6-26.2c5.3-14.3,3.4-33.9-5.8-58.9c-19.1-51.8-1.2-97.3,53.9-136.6c54.5-39,106.2-63.2,155-72.5
				c11.9-2.3,20.5-4.7,25.7-7.1c2.3-1.1,3.8-2.1,4.6-3.2c0.5-0.6,0.5-1.2,0.1-1.8c-3.2-4.7-19.7-9.7-49.5-15c-0.1,0-0.2-0.1-0.3-0.1
				c-4.9-1.9-13.1-3.2-24.8-3.8c-0.5,0-0.9-0.2-1.2-0.6c-0.3-0.3-0.5-0.7-0.5-1.2c0-0.5,0.2-0.9,0.6-1.2c0.3-0.3,0.8-0.5,1.3-0.5
				c12,0.6,20.6,1.9,25.7,4c31.3,5.6,48.5,11.1,51.7,16.5c1.2,1.9,1.1,3.8-0.3,5.7C629.6,314.2,627.6,315.6,624.6,317z"/>
		</g>
		<g>
			<path fill-rule="evenodd" clip-rule="evenodd" fill="#930000" d="M509.1,235.3c-0.8,0.1-1.5-0.1-2.1-0.6c-0.6-0.5-1-1.2-1-1.9
				c-0.1-0.8,0.1-1.5,0.6-2.1c0.5-0.6,1.1-1,1.9-1c21.3-2.3,36.7-0.9,46.1,4.1c10.4,5.2,14.4,14.4,11.8,27.4
				c-1.7,8.4-0.8,15,2.8,19.7c3.7,4.6,10.1,7.5,19.1,8.5c0,0,0,0,0.1,0c28.4,4.3,43,9.3,43.6,15.1c1.6,6.3-11.2,12.3-38.2,17.8
				c-49.3,10.1-100.7,34.9-154.3,74.6c-52.6,39-69.7,82.8-51.1,131.3c9.9,25.8,12,45.9,6.4,60.5c-5.5,15.1-19.1,24.4-40.5,27.9
				l0.1-0.1c-15.1,2.9-26.1,4.5-33.1,4.8c-7.9,0.4-13.1-0.6-15.6-2.9c-2.6-1.9-3.7-5.6-3.2-11.1c0,0,0-0.1,0.1-0.2
				c0.8-5.7,1.3-10.5,1.5-14.2c0.5-10.2-1.9-17.3-7-21.2c-4.7-3.1-11.6-3.9-20.6-2.4v-5.8c10.4-1.7,18.4-0.5,23.8,3.5
				c6.9,4.6,10,13.3,9.5,26.1v0.1c-0.2,3.8-0.7,8.7-1.5,14.6c-0.2,3.1,0.2,5.2,1.2,6.3c1.9,1.3,5.7,1.9,11.5,1.5h0.1
				c6.8-0.3,17.6-1.9,32.3-4.7h0.1c19-3.1,31-11.2,36.1-24.2c5-13.6,2.9-32.4-6.4-56.5c-19.9-51.1-2.3-97.1,53-138
				c54.3-40.3,106.5-65.5,156.6-75.7c22.7-4.6,34-8.3,33.7-11c-1.1-3.3-14.1-6.8-38.9-10.5h0.1c-11-1.2-18.6-4.8-23-10.7
				c-4.6-5.8-5.9-13.9-3.8-24.3V260c2-10-0.9-17.1-8.8-21.2C543.2,234.4,528.9,233.3,509.1,235.3z"/>
		</g>
		<g>
			<g>
				
					<radialGradient id="SVGID_41_" cx="181.5" cy="-135.5" r="18.9" gradientTransform="matrix(1.1465 0 0 1.1465 347.7999 393.1505)" gradientUnits="userSpaceOnUse">
					<stop  offset="0" style="stop-color:#FFFFFF"/>
					<stop  offset="1" style="stop-color:#FFFFFF;stop-opacity:0"/>
				</radialGradient>
				<path fill-rule="evenodd" clip-rule="evenodd" fill="url(#SVGID_41_)" d="M533.1,232.2c-0.2,0-0.3-0.1-0.4-0.2
					c-0.1-0.1-0.2-0.2-0.2-0.4c0-0.2,0.1-0.3,0.2-0.4c0.1-0.1,0.2-0.2,0.4-0.2c12.1,0.7,20.7,3.7,25.8,9.1
					c5.2,5.3,6.8,12.9,4.8,22.8c0,0.2-0.1,0.3-0.2,0.4c-0.2,0.1-0.3,0.1-0.5,0.1c-0.2,0-0.3-0.1-0.3-0.2c-0.1-0.2-0.2-0.3-0.1-0.5
					c1.9-9.4,0.4-16.7-4.5-21.8C553.2,235.8,544.9,232.9,533.1,232.2z"/>
				
					<radialGradient id="SVGID_42_" cx="220.8501" cy="-84.0498" r="21.65" gradientTransform="matrix(1.1465 0 0 1.1465 347.7999 393.1505)" gradientUnits="userSpaceOnUse">
					<stop  offset="0" style="stop-color:#FFFFFF"/>
					<stop  offset="1" style="stop-color:#FFFFFF;stop-opacity:0"/>
				</radialGradient>
				<path fill-rule="evenodd" clip-rule="evenodd" fill="url(#SVGID_42_)" d="M576.9,289.3c0.1-0.1,0.2-0.2,0.4-0.1
					c35.4,6.1,52.6,10.9,51.4,14.3c-0.1,0.1-0.2,0.2-0.3,0.3c-0.2,0.1-0.3,0.1-0.5,0.1c-0.2-0.1-0.3-0.2-0.3-0.3
					c-0.1-0.2-0.1-0.3,0-0.5c0.9-2.6-15.9-6.8-50.5-12.8c-0.2,0-0.3-0.1-0.4-0.2c-0.1-0.2-0.2-0.3-0.1-0.4
					C576.7,289.5,576.8,289.4,576.9,289.3z"/>
				
					<radialGradient id="SVGID_43_" cx="101.9521" cy="-2.1924" r="80.1938" gradientTransform="matrix(1.1465 0 0 1.1465 347.7999 393.1505)" gradientUnits="userSpaceOnUse">
					<stop  offset="0" style="stop-color:#FFFFFF"/>
					<stop  offset="1" style="stop-color:#FFFFFF;stop-opacity:0"/>
				</radialGradient>
				<path fill-rule="evenodd" clip-rule="evenodd" fill="url(#SVGID_43_)" d="M538.5,335.7c0.2-0.1,0.3-0.1,0.5,0
					c0.1,0,0.2,0.1,0.3,0.3c0.1,0.2,0.1,0.3,0.1,0.5c-0.1,0.1-0.2,0.2-0.3,0.3c-73,32.4-122.3,68.7-147.8,108.7
					c-0.1,0.1-0.2,0.2-0.4,0.2c-0.2,0-0.3,0-0.4-0.1c-0.2-0.1-0.2-0.2-0.3-0.4c0-0.2,0-0.3,0.1-0.4
					C415.7,404.5,465.2,368.1,538.5,335.7z"/>
				
					<radialGradient id="SVGID_44_" cx="34" cy="94" r="35.05" gradientTransform="matrix(1.1465 0 0 1.1465 347.7999 393.1505)" gradientUnits="userSpaceOnUse">
					<stop  offset="0" style="stop-color:#FFFFFF"/>
					<stop  offset="1" style="stop-color:#FFFFFF;stop-opacity:0"/>
				</radialGradient>
				<path fill-rule="evenodd" clip-rule="evenodd" fill="url(#SVGID_44_)" d="M382.5,460.8c0.1,0.1,0.1,0.2,0.1,0.4
					c-7.4,24.5-4.9,50.6,7.4,78.3c0.1,0.2,0.1,0.3,0.1,0.5c-0.1,0.1-0.2,0.2-0.3,0.3c-0.2,0.1-0.3,0.1-0.4,0.1
					c-0.2-0.1-0.3-0.2-0.3-0.3c-12.5-28-15-54.3-7.5-79.1c0-0.2,0.1-0.3,0.3-0.3c0.1-0.1,0.2-0.1,0.4,0
					C382.3,460.5,382.4,460.6,382.5,460.8z"/>
				
					<radialGradient id="SVGID_45_" cx="-11.6499" cy="195.3999" r="29.675" gradientTransform="matrix(1.1465 0 0 1.1465 347.7999 393.1505)" gradientUnits="userSpaceOnUse">
					<stop  offset="0" style="stop-color:#FFFFFF"/>
					<stop  offset="1" style="stop-color:#FFFFFF;stop-opacity:0"/>
				</radialGradient>
				<path fill-rule="evenodd" clip-rule="evenodd" fill="url(#SVGID_45_)" d="M369.2,609.1c0.2-0.1,0.3-0.1,0.5,0.1
					c0.1,0,0.2,0.1,0.3,0.3c0,0.2,0,0.3-0.1,0.5c-0.1,0.1-0.2,0.2-0.3,0.3c-33.9,9.8-54.5,11.9-62,6.4c-0.1-0.1-0.2-0.2-0.2-0.3
					c0-0.2,0-0.3,0.1-0.5c0.1-0.1,0.2-0.2,0.4-0.2c0.2,0,0.3,0,0.4,0.1C315.5,620.9,335.9,618.7,369.2,609.1z"/>
				
					<radialGradient id="SVGID_46_" cx="-42.7998" cy="154.2002" r="14.45" gradientTransform="matrix(1.1465 0 0 1.1465 347.7999 393.1505)" gradientUnits="userSpaceOnUse">
					<stop  offset="0" style="stop-color:#FFFFFF"/>
					<stop  offset="1" style="stop-color:#FFFFFF;stop-opacity:0"/>
				</radialGradient>
				<path fill-rule="evenodd" clip-rule="evenodd" fill="url(#SVGID_46_)" d="M285.1,566.1c-0.2,0-0.3-0.1-0.4-0.2
					c-0.1-0.1-0.2-0.2-0.2-0.4c0-0.2,0.1-0.3,0.2-0.4c0.1-0.1,0.2-0.2,0.4-0.2c15,0.7,22.6,9.1,22.7,25.1c0,0.2-0.1,0.3-0.2,0.4
					c-0.1,0.1-0.2,0.2-0.4,0.2s-0.3-0.1-0.4-0.2c-0.1-0.1-0.2-0.2-0.2-0.4C306.6,574.8,299.4,566.8,285.1,566.1z"/>
			</g>
		</g>
	</g>
	<g>
		<g>
			
				<radialGradient id="SVGID_47_" cx="-51.5747" cy="162.7002" r="17.1875" gradientTransform="matrix(1.1465 0 -9.922564e-002 1.2941 349.6409 369.1379)" gradientUnits="userSpaceOnUse">
				<stop  offset="0" style="stop-color:#000000;stop-opacity:0.8"/>
				<stop  offset="0.7412" style="stop-color:#000000;stop-opacity:0.4431"/>
				<stop  offset="0.9804" style="stop-color:#000000;stop-opacity:0"/>
			</radialGradient>
			<path fill-rule="evenodd" clip-rule="evenodd" fill="url(#SVGID_47_)" d="M253.3,575.6c0.9-5.8,3.4-10.8,7.5-15.1
				c4.8-4.8,10.3-7.2,16.5-7.2c0.8,0,1.6,0,2.4,0.1c5.1,0.5,9.4,2.9,12.9,7.1c2.1,2.4,3.6,5.1,4.5,8c0.8,2.9,1.1,6.1,0.9,9.5
				c-0.6,6.8-3.2,12.6-8,17.4c-4.2,4.3-8.9,6.7-14.1,7.2c-0.7,0.1-1.5,0.2-2.3,0.2c-6.2,0-11.3-2.4-15.4-7.3
				c-4-4.9-5.7-10.7-5.2-17.4C253,577.2,253.1,576.4,253.3,575.6z"/>
		</g>
		<g>
			<path fill-rule="evenodd" clip-rule="evenodd" d="M279.1,558.3c3.9,0,7.2,1.4,10.1,4.1c2.8,2.7,4.3,6,4.5,9.7
				c0.2,3.8-1.1,7-3.8,9.7c-2.6,2.7-5.9,4-9.7,4c-3.9,0-7.3-1.3-10.1-4c-2.8-2.7-4.3-6-4.5-9.7c-0.2-3.8,1.1-7,3.8-9.7
				C272,559.7,275.2,558.3,279.1,558.3z"/>
		</g>
		<g>
			<g>
				<path fill-rule="evenodd" clip-rule="evenodd" d="M292.8,575c0,0.1,0,0.2,0,0.4c0,0.1,0,0.2,0,0.3c0,0.3,0,0.7,0,1.1
					c-0.2,3-1.4,5.6-3.6,7.9c-2.5,2.6-5.5,3.8-9.1,3.8c-3.6,0-6.8-1.3-9.4-3.8c-1-1-1.9-2.1-2.6-3.3c-1-1.8-1.5-3.8-1.5-5.9
					c0-0.4,0-0.7-0.1-1c0-0.3,0.1-0.6,0.1-0.9c0.1-1.4,0.5-2.7,1-4c0.6-1.2,1.4-2.3,2.4-3.4c2.5-2.5,5.5-3.8,9.2-3.8
					c3.6,0,6.6,1.3,9.3,3.8C291.1,568.5,292.5,571.5,292.8,575z"/>
				
					<linearGradient id="SVGID_48_" gradientUnits="userSpaceOnUse" x1="-76.4517" y1="152.0249" x2="-53.6517" y2="152.0249" gradientTransform="matrix(1.1465 0 4.157211e-002 1.1465 347.7995 393.1505)">
					<stop  offset="0" style="stop-color:#222222"/>
					<stop  offset="0.3294" style="stop-color:#222222"/>
					<stop  offset="0.5255" style="stop-color:#4D4D4D"/>
					<stop  offset="0.6627" style="stop-color:#222222"/>
					<stop  offset="1" style="stop-color:#222222"/>
				</linearGradient>
				<path fill-rule="evenodd" clip-rule="evenodd" fill="url(#SVGID_48_)" d="M266.7,573.4l0.2-3.9c0.2-0.8,0.4-1.5,0.7-2.2
					c0.6-1.3,1.4-2.5,2.5-3.6c2.4-2.6,5.5-3.8,9.1-3.8c3.6,0,6.7,1.3,9.3,3.8c2.7,2.6,4.1,5.6,4.2,9.2c0,0.7,0,1.4,0,2
					c-0.3-3.5-1.7-6.4-4.2-8.9c-2.6-2.5-5.7-3.8-9.3-3.8c-3.6,0-6.7,1.3-9.2,3.8c-1,1-1.7,2.2-2.4,3.4
					C267.1,570.7,266.8,572,266.7,573.4z"/>
			</g>
		</g>
		<g>
			<g>
				<path fill-rule="evenodd" clip-rule="evenodd" fill="#1C1F20" d="M291.7,575l0.7,10.3c-0.1-0.5-0.2-1.1-0.4-1.6
					c-0.2-0.7-0.5-1.4-0.9-2.1c-0.6-1.1-1.5-2.2-2.5-3.2c-0.9-0.8-1.9-1.5-2.9-2.1c-1.8-0.9-3.8-1.4-6.1-1.4c-0.5,0-0.9,0-1.4,0.1
					c-0.5,0-0.9,0.1-1.4,0.2c-2.3,0.5-4.3,1.5-6,3.2c-0.3,0.3-0.6,0.7-0.9,1l-0.3,0.4c-0.8,1-1.3,2.1-1.7,3.3
					c-0.1,0.3-0.2,0.6-0.2,0.9c-0.1,0.5-0.2,1.1-0.2,1.6l0.2-13.4c0-0.2,0.1-0.4,0.1-0.5c0.5-1.7,1.5-3.3,2.9-4.6
					c2.3-2.2,5.1-3.3,8.4-3.3c3.3,0,6.2,1.1,8.7,3.3c2.2,2,3.5,4.4,3.7,7.2v0.1L291.7,575z"/>
				<path fill-rule="evenodd" clip-rule="evenodd" fill="none" d="M291.7,575c0-0.1,0-0.2,0-0.2c0-0.2-0.1-0.3-0.1-0.5
					c0,0,0-0.1-0.1-0.1v-0.1c-0.3-2.8-1.5-5.1-3.7-7.2c-2.5-2.2-5.4-3.3-8.7-3.3c-3.4,0-6.2,1.1-8.4,3.3c-1.4,1.4-2.4,2.9-2.9,4.6
					c0,0.2-0.1,0.3-0.1,0.5l-0.2,13.4v0.3 M291.6,574.1v-0.2l0.1,0.4"/>
			</g>
		</g>
		<g>
			
				<linearGradient id="SVGID_49_" gradientUnits="userSpaceOnUse" x1="153.4019" y1="65.4697" x2="173.0153" y2="65.4697" gradientTransform="matrix(4.238037e-002 1.1457 -1.1473 5.232826e-005 347.7993 393.1505)">
				<stop  offset="0" style="stop-color:#4E4D5E"/>
				<stop  offset="1" style="stop-color:#0C0C0E"/>
			</linearGradient>
			<path fill-rule="evenodd" clip-rule="evenodd" fill="url(#SVGID_49_)" d="M285.3,573c1.1,0.6,2.1,1.3,3,2.1c1.1,1,1.9,2,2.5,3.2
				c0.4,0.7,0.7,1.4,0.9,2.1c0.2,0.5,0.3,1.1,0.4,1.6c0,0.2,0,0.4,0.1,0.6l0.1,0.9c0.1,3.3-1,6.1-3.4,8.4c-1.4,1.4-3.1,2.4-4.9,2.9
				c-1.1,0.4-2.4,0.6-3.8,0.6l-1.1-0.1c-2.9-0.2-5.6-1.3-7.9-3.4c-0.4-0.3-0.9-0.8-1.4-1.4c-1.6-1.9-2.5-4.2-2.6-6.9
				c0-0.1,0-0.2,0-0.2c0-0.2,0-0.5,0.1-0.7c0-0.6,0.1-1.2,0.2-1.8c0-0.3,0.1-0.6,0.3-0.9c0.3-1.1,0.8-2.2,1.6-3.3l0.3-0.4
				c0.3-0.4,0.6-0.7,0.9-1c1.7-1.6,3.7-2.7,6-3.2c0.5-0.1,0.9-0.1,1.4-0.2c0.5-0.1,1-0.1,1.4-0.1C281.6,571.7,283.6,572.1,285.3,573
				z"/>
		</g>
		<g>
			<path fill-rule="evenodd" clip-rule="evenodd" fill="#FFFFFF" fill-opacity="0.1137" d="M269.1,568.9c0.2-0.4,0.5-0.7,0.8-1.1
				l-0.1,8.1c-0.1,0.1-0.2,0.2-0.2,0.3l-0.3,0.4c-0.1,0.2-0.2,0.3-0.2,0.4L269.1,568.9z M276.1,564c0.3-0.1,0.5-0.1,0.8-0.2l0.1,8.1
				c-0.2,0-0.4,0-0.5,0.1c-0.1,0-0.2,0-0.3,0.1L276.1,564z M272.6,565.5c0.2-0.2,0.5-0.3,0.7-0.5v8.1c-0.3,0.2-0.6,0.3-0.9,0.5
				L272.6,565.5z M279.1,563.6c0.3,0,0.6,0,0.9,0l0.2,8.1c-0.3,0-0.5-0.1-0.8-0.1L279.1,563.6z M282.4,564c0.3,0.1,0.5,0.2,0.8,0.2
				l0.5,8.1c-0.3-0.1-0.6-0.2-0.9-0.2L282.4,564z M288.6,567.8c0.2,0.2,0.3,0.4,0.6,0.6l0.7,8.5c-0.3-0.4-0.6-0.7-0.9-1.1l-0.7-7.6
				c0-0.2,0.1-0.2,0.2-0.3C288.5,567.9,288.6,567.8,288.6,567.8z M285.6,565.3c0.3,0.2,0.5,0.4,0.8,0.6l0.6,8.2
				c-0.3-0.2-0.6-0.4-0.9-0.6L285.6,565.3z"/>
		</g>
		<g>
			<g>
				<path fill-rule="evenodd" clip-rule="evenodd" fill-opacity="0.6196" d="M269.6,568.2c0.3-0.3,0.6-0.6,0.9-1l-0.1,8.1
					c-0.3,0.2-0.5,0.5-0.7,0.8l-0.1,0.1L269.6,568.2z M276.7,563.9c0.3,0,0.5-0.1,0.7-0.1l0.1,8c-0.3,0-0.5,0.1-0.8,0.1V563.9z
					 M273,565.2c0.3-0.2,0.6-0.3,0.9-0.5l-0.1,8.1c-0.3,0.1-0.6,0.3-0.8,0.5L273,565.2z M279.6,563.6c0.3,0,0.5,0,0.8,0.1l0.2,8
					c-0.3,0-0.5,0-0.8,0L279.6,563.6z M282.9,564.2c0.3,0.1,0.5,0.2,0.8,0.3l0.4,8.1c-0.3-0.1-0.5-0.2-0.8-0.3L282.9,564.2z
					 M288.9,568.1c0.3,0.4,0.6,0.8,0.9,1.1l0.7,8.5c-0.3-0.5-0.6-0.9-0.9-1.2l-0.8-8.3C288.8,568.1,288.8,568.1,288.9,568.1z
					 M286,565.6c0.3,0.2,0.6,0.4,0.9,0.6l0.6,8.3c-0.3-0.2-0.5-0.4-0.8-0.6L286,565.6z"/>
			</g>
		</g>
		<g>
			
				<linearGradient id="SVGID_50_" gradientUnits="userSpaceOnUse" x1="129.1431" y1="112.4336" x2="149.1201" y2="112.4336" gradientTransform="matrix(0.3917 1.0775 -1.0891 0.3599 347.7995 393.1506)">
				<stop  offset="0" style="stop-color:#000000"/>
				<stop  offset="1" style="stop-color:#303030"/>
			</linearGradient>
			<path fill-rule="evenodd" clip-rule="evenodd" fill="url(#SVGID_50_)" d="M279.4,572.8c3.2,0,5.9,1,8.1,3.1
				c2.3,2.1,3.5,4.6,3.6,7.6c0.1,3-0.9,5.6-3,7.7v-0.1c-2.1,2.1-4.7,3.2-7.9,3.2c-3.1,0-5.8-1-8.1-3.1v-0.1
				c-2.3-2.1-3.4-4.6-3.6-7.6c-0.1-2.9,0.9-5.5,3-7.6C273.6,573.8,276.3,572.8,279.4,572.8z M287.1,576.4c-2.1-2-4.7-3-7.7-3
				c-3,0-5.5,1-7.5,3v-0.1c-2,2-2.9,4.4-2.8,7.1c0.1,2.8,1.2,5.2,3.3,7.2c2.2,1.9,4.8,2.9,7.7,2.9c3,0,5.5-1,7.5-2.9
				c2-2,3-4.4,2.9-7.2C290.4,580.7,289.3,578.4,287.1,576.4L287.1,576.4z"/>
		</g>
		<g>
			
				<radialGradient id="SVGID_51_" cx="-64.9487" cy="144.0498" r="7.7625" gradientTransform="matrix(1.1465 0 1.661616e-002 0.456 351.4238 492.6159)" gradientUnits="userSpaceOnUse">
				<stop  offset="0" style="stop-color:#FFFFFF"/>
				<stop  offset="0.1765" style="stop-color:#FFFFFF"/>
				<stop  offset="0.3059" style="stop-color:#FFFFFF;stop-opacity:0.4235"/>
				<stop  offset="0.4902" style="stop-color:#FFFFFF;stop-opacity:0.2314"/>
				<stop  offset="0.651" style="stop-color:#FFFFFF;stop-opacity:8.235294e-002"/>
				<stop  offset="1" style="stop-color:#FFFFFF;stop-opacity:0"/>
			</radialGradient>
			<path fill-rule="evenodd" clip-rule="evenodd" fill="url(#SVGID_51_)" d="M273.2,560.8c-1.6-0.6-2.5-1.5-2.5-2.5
				c0-1,0.7-1.8,2.3-2.4c1.8-0.7,3.9-1,6.2-1c2.4,0,4.5,0.3,6.2,1c1.8,0.6,2.7,1.5,2.7,2.4c0,1-0.8,1.8-2.5,2.5
				c-1.8,0.7-3.9,1-6.2,1C277.1,561.8,275,561.5,273.2,560.8z"/>
		</g>
		<g>
			
				<radialGradient id="SVGID_52_" cx="-66.668" cy="158.2998" r="7.3375" gradientTransform="matrix(1.1465 0 1.757859e-002 0.4824 351.63 498.2742)" gradientUnits="userSpaceOnUse">
				<stop  offset="0" style="stop-color:#FFFFFF"/>
				<stop  offset="0.1765" style="stop-color:#FFFFFF"/>
				<stop  offset="0.3059" style="stop-color:#FFFFFF;stop-opacity:0.4235"/>
				<stop  offset="0.4902" style="stop-color:#FFFFFF;stop-opacity:0.2314"/>
				<stop  offset="0.651" style="stop-color:#FFFFFF;stop-opacity:8.235294e-002"/>
				<stop  offset="1" style="stop-color:#FFFFFF;stop-opacity:0"/>
			</radialGradient>
			<path fill-rule="evenodd" clip-rule="evenodd" fill="url(#SVGID_52_)" d="M278.1,578.1c-2.3,0-4.2-0.4-6-1.1
				c-1.6-0.6-2.4-1.4-2.4-2.4c0-1,0.7-1.8,2.2-2.4c1.6-0.7,3.6-1.1,5.8-1.1s4.2,0.4,5.9,1.1c1.7,0.6,2.6,1.5,2.6,2.4
				c0,1-0.8,1.8-2.4,2.4C282.3,577.8,280.4,578.1,278.1,578.1z"/>
		</g>
	</g>
	<g>
		<g>
			
				<radialGradient id="SVGID_53_" cx="-101.8994" cy="162.7002" r="17.1875" gradientTransform="matrix(1.1465 0 -0.1468 1.2941 350.5227 369.1379)" gradientUnits="userSpaceOnUse">
				<stop  offset="0" style="stop-color:#000000;stop-opacity:0.8"/>
				<stop  offset="0.7412" style="stop-color:#000000;stop-opacity:0.4431"/>
				<stop  offset="0.9804" style="stop-color:#000000;stop-opacity:0"/>
			</radialGradient>
			<path fill-rule="evenodd" clip-rule="evenodd" fill="url(#SVGID_53_)" d="M216.1,553.4c5.1,0.5,9.3,2.9,12.7,7.1
				c1.9,2.4,3.3,5.1,4.1,8c0.7,2.9,0.9,6.1,0.6,9.5c-0.8,6.8-3.7,12.6-8.7,17.4c-4.3,4.3-9.1,6.7-14.3,7.2c-0.8,0.1-1.5,0.2-2.4,0.2
				c-6.2,0-11.2-2.4-15.1-7.3c-3.8-4.9-5.3-10.7-4.5-17.4c0.1-0.8,0.2-1.7,0.4-2.5c1.1-5.8,3.8-10.8,8.1-15.1
				c5-4.8,10.5-7.2,16.7-7.2C214.5,553.3,215.3,553.4,216.1,553.4z"/>
		</g>
		<g>
			<path fill-rule="evenodd" clip-rule="evenodd" d="M225.3,562.4c2.8,2.7,4.1,6,4.1,9.7c0,3.8-1.4,7-4.1,9.7c-2.8,2.7-6.1,4-9.9,4
				c-3.9,0-7.2-1.3-10-4c-2.8-2.7-4.1-6-4.1-9.7c0-3.8,1.4-7,4.1-9.7c2.8-2.7,6.1-4.1,10-4.1C219.2,558.3,222.5,559.7,225.3,562.4z"
				/>
		</g>
		<g>
			<g>
				<path fill-rule="evenodd" clip-rule="evenodd" d="M202.4,573.4c0.2-1.4,0.6-2.7,1.2-4c0.6-1.2,1.5-2.3,2.5-3.4
					c2.6-2.5,5.7-3.8,9.3-3.8c3.6,0,6.6,1.3,9.2,3.8c2.5,2.4,3.8,5.4,3.9,8.9c0,0.1,0,0.2,0,0.4c0,0.1,0,0.2,0,0.3
					c0,0.3,0,0.7-0.1,1.1c-0.3,3-1.6,5.6-3.8,7.9c-2.6,2.6-5.6,3.8-9.2,3.8c-3.6,0-6.7-1.3-9.3-3.8c-1-1-1.8-2.1-2.5-3.3
					c-0.9-1.8-1.3-3.8-1.3-5.9c0-0.4,0-0.7,0-1C202.3,574.1,202.3,573.7,202.4,573.4z"/>
				
					<linearGradient id="SVGID_54_" gradientUnits="userSpaceOnUse" x1="-126.8501" y1="152.0249" x2="-104.0498" y2="152.0249" gradientTransform="matrix(1.1465 0 0 1.1465 347.7999 393.1505)">
					<stop  offset="0" style="stop-color:#222222"/>
					<stop  offset="0.3294" style="stop-color:#222222"/>
					<stop  offset="0.5255" style="stop-color:#4D4D4D"/>
					<stop  offset="0.6627" style="stop-color:#222222"/>
					<stop  offset="1" style="stop-color:#222222"/>
				</linearGradient>
				<path fill-rule="evenodd" clip-rule="evenodd" fill="url(#SVGID_54_)" d="M228.4,575c-0.1-3.5-1.4-6.4-3.9-8.9
					c-2.6-2.5-5.6-3.8-9.2-3.8c-3.6,0-6.7,1.3-9.3,3.8c-1,1-1.8,2.2-2.5,3.4c-0.6,1.2-1,2.5-1.2,4l0.4-3.9c0.2-0.8,0.5-1.5,0.8-2.2
					c0.6-1.3,1.5-2.5,2.6-3.6c2.6-2.6,5.7-3.8,9.3-3.8c3.6,0,6.6,1.3,9.2,3.8c2.6,2.6,3.9,5.6,3.9,9.2
					C228.5,573.7,228.5,574.3,228.4,575z"/>
			</g>
		</g>
		<g>
			<g>
				<path fill-rule="evenodd" clip-rule="evenodd" fill="#1C1F20" d="M202.7,585.6l0.7-13.5c0-0.2,0.1-0.4,0.1-0.5
					c0.6-1.7,1.6-3.3,3-4.6c2.4-2.2,5.2-3.3,8.6-3.3c3.3,0,6.2,1.1,8.5,3.3c2.1,2,3.3,4.4,3.5,7.2v0.1l0.1,0.8l0.4,10.3
					c-0.1-0.5-0.2-1.1-0.3-1.6c-0.2-0.7-0.5-1.4-0.9-2.1c-0.6-1.1-1.4-2.2-2.4-3.2c-0.8-0.8-1.8-1.5-2.9-2.1c-1.8-0.9-3.8-1.4-6-1.4
					c-0.5,0-0.9,0-1.4,0.1c-0.5,0-0.9,0.1-1.4,0.2c-2.3,0.5-4.3,1.5-6.1,3.2c-0.3,0.3-0.7,0.7-1,1l-0.3,0.4c-0.8,1-1.4,2.1-1.8,3.3
					c-0.1,0.3-0.2,0.6-0.2,0.9C202.9,584.5,202.8,585.1,202.7,585.6z"/>
				<path fill-rule="evenodd" clip-rule="evenodd" fill="none" d="M227.2,574.2L227.2,574.2c-0.2-2.8-1.4-5.2-3.5-7.3
					c-2.4-2.2-5.2-3.3-8.5-3.3c-3.4,0-6.2,1.1-8.6,3.3c-1.5,1.4-2.5,2.9-3,4.6c0,0.2-0.1,0.3-0.1,0.5l-0.7,13.5 M227.2,574.1v-0.2
					l0.1,0.4c0,0.2,0,0.3,0,0.5c0,0.1,0,0.2,0,0.2 M227.3,574.3C227.3,574.3,227.2,574.2,227.3,574.3"/>
			</g>
		</g>
		<g>
			
				<linearGradient id="SVGID_55_" gradientUnits="userSpaceOnUse" x1="-115.7749" y1="153.2998" x2="-115.7749" y2="172.8998" gradientTransform="matrix(1.1465 0 0 1.1465 347.7999 393.1505)">
				<stop  offset="0" style="stop-color:#4E4D5E"/>
				<stop  offset="1" style="stop-color:#0C0C0E"/>
			</linearGradient>
			<path fill-rule="evenodd" clip-rule="evenodd" fill="url(#SVGID_55_)" d="M205.2,576.1c0.3-0.4,0.6-0.7,0.9-1
				c1.8-1.6,3.8-2.7,6.1-3.2c0.5-0.1,0.9-0.1,1.4-0.2c0.5-0.1,1-0.1,1.4-0.1c2.3,0,4.3,0.5,6,1.4c1.1,0.6,2,1.3,2.9,2.1
				c1,1,1.8,2,2.4,3.2c0.4,0.7,0.7,1.4,0.9,2.1c0.2,0.5,0.3,1.1,0.3,1.6c0,0.2,0,0.4,0.1,0.6l0.1,0.9c0,3.3-1.2,6.1-3.7,8.4
				c-1.5,1.4-3.1,2.4-5,2.9c-1.2,0.4-2.5,0.6-3.9,0.6l-1.1-0.1c-2.9-0.2-5.5-1.3-7.8-3.4c-0.4-0.3-0.8-0.8-1.3-1.4
				c-1.6-1.9-2.4-4.2-2.4-6.9c0-0.1,0-0.2,0-0.2c0-0.2,0-0.5,0.1-0.7c0-0.6,0.1-1.2,0.3-1.8c0-0.3,0.1-0.6,0.3-0.9
				c0.3-1.1,0.9-2.2,1.7-3.3L205.2,576.1z"/>
		</g>
		<g>
			<path fill-rule="evenodd" clip-rule="evenodd" fill="#FFFFFF" fill-opacity="0.1137" d="M212.2,564c0.3-0.1,0.5-0.1,0.8-0.2
				l-0.2,8.1c-0.2,0-0.4,0-0.5,0.1c-0.1,0-0.2,0-0.3,0.1L212.2,564z M208.6,565.5c0.3-0.2,0.5-0.3,0.8-0.5l-0.3,8.1
				c-0.3,0.2-0.6,0.3-0.9,0.5L208.6,565.5z M218.5,564c0.3,0.1,0.5,0.2,0.8,0.2l0.2,8.1c-0.3-0.1-0.6-0.2-0.9-0.2L218.5,564z
				 M215.2,563.6c0.3,0,0.6,0,0.9,0l-0.1,8.1c-0.3,0-0.5-0.1-0.8-0.1L215.2,563.6z M221.6,565.3c0.3,0.2,0.5,0.4,0.8,0.6l0.3,8.2
				c-0.3-0.2-0.6-0.4-0.9-0.6L221.6,565.3z M224.4,567.9c0-0.1,0.1-0.1,0.2-0.1c0.2,0.2,0.3,0.4,0.5,0.6l0.5,8.5
				c-0.3-0.4-0.6-0.7-0.9-1.1l-0.5-7.6C224.2,568.1,224.3,568,224.4,567.9z M205.9,567.8l-0.4,8.1c-0.1,0.1-0.2,0.2-0.2,0.3
				l-0.4,0.4c-0.1,0.2-0.2,0.3-0.2,0.4l0.4-8.1C205.2,568.5,205.5,568.1,205.9,567.8z"/>
		</g>
		<g>
			<g>
				<path fill-rule="evenodd" clip-rule="evenodd" fill-opacity="0.6196" d="M212.7,563.9c0.3,0,0.5-0.1,0.8-0.1l-0.3,8
					c-0.3,0-0.5,0.1-0.8,0.1L212.7,563.9z M209.1,565.2c0.3-0.2,0.6-0.3,0.9-0.5l-0.4,8.1c-0.3,0.1-0.6,0.3-0.9,0.5L209.1,565.2z
					 M218.9,564.2c0.3,0.1,0.5,0.2,0.8,0.3l0.1,8.1c-0.3-0.1-0.5-0.2-0.8-0.3L218.9,564.2z M215.7,563.6c0.3,0,0.5,0,0.8,0.1l-0.1,8
					c-0.3,0-0.5,0-0.8,0L215.7,563.6z M224.8,568.1c0.3,0.4,0.5,0.8,0.8,1.1l0.5,8.5c-0.3-0.5-0.6-0.9-0.9-1.2l-0.5-8.3
					C224.7,568.1,224.7,568.1,224.8,568.1z M222.3,573.8l-0.3-8.3c0.3,0.2,0.6,0.4,0.9,0.6l0.3,8.3
					C222.8,574.2,222.6,574,222.3,573.8z M205.2,576.1l-0.2,0.1l0.5-8.1c0.3-0.3,0.6-0.6,0.9-1l-0.4,8.1
					C205.7,575.6,205.5,575.8,205.2,576.1z"/>
			</g>
		</g>
		<g>
			
				<linearGradient id="SVGID_56_" gradientUnits="userSpaceOnUse" x1="-118.7319" y1="156.6694" x2="-112.6063" y2="175.4442" gradientTransform="matrix(1.1465 0 0 1.1465 347.7999 393.1505)">
				<stop  offset="0" style="stop-color:#000000"/>
				<stop  offset="1" style="stop-color:#303030"/>
			</linearGradient>
			<path fill-rule="evenodd" clip-rule="evenodd" fill="url(#SVGID_56_)" d="M207.5,576.4L207.5,576.4c-2,1.9-3,4.3-3,7.1
				c0,2.8,1,5.2,3,7.2c2.1,1.9,4.6,2.9,7.6,2.9c3,0,5.5-1,7.6-2.9c2.1-2,3.2-4.4,3.2-7.2c0-2.8-1.1-5.1-3.2-7.1v-0.1
				c-2-2-4.5-3-7.6-3C212.2,573.4,209.6,574.4,207.5,576.4z M207.1,591.1c-2.2-2.1-3.3-4.6-3.3-7.6c0-2.9,1.1-5.5,3.3-7.6
				c2.2-2.1,4.9-3.1,8-3.1c3.2,0,5.8,1,8,3.1c2.2,2.1,3.3,4.6,3.3,7.6c0,3-1.1,5.6-3.3,7.7v-0.1c-2.2,2.1-4.9,3.2-8,3.2
				C212,594.2,209.3,593.2,207.1,591.1L207.1,591.1z"/>
		</g>
		<g>
			
				<radialGradient id="SVGID_57_" cx="-115.2998" cy="144.0498" r="7.7625" gradientTransform="matrix(1.1465 0 0 0.456 347.7999 492.6159)" gradientUnits="userSpaceOnUse">
				<stop  offset="0" style="stop-color:#FFFFFF"/>
				<stop  offset="0.1765" style="stop-color:#FFFFFF"/>
				<stop  offset="0.3059" style="stop-color:#FFFFFF;stop-opacity:0.4235"/>
				<stop  offset="0.4902" style="stop-color:#FFFFFF;stop-opacity:0.2314"/>
				<stop  offset="0.651" style="stop-color:#FFFFFF;stop-opacity:8.235294e-002"/>
				<stop  offset="1" style="stop-color:#FFFFFF;stop-opacity:0"/>
			</radialGradient>
			<path fill-rule="evenodd" clip-rule="evenodd" fill="url(#SVGID_57_)" d="M221.9,560.8c-1.8,0.7-3.9,1-6.2,1
				c-2.4,0-4.5-0.3-6.2-1c-1.6-0.6-2.4-1.5-2.4-2.5c0-1,0.8-1.8,2.4-2.4c1.8-0.7,3.9-1,6.2-1c2.4,0,4.5,0.3,6.2,1
				c1.7,0.6,2.6,1.5,2.6,2.4C224.4,559.3,223.6,560.1,221.9,560.8z"/>
		</g>
		<g>
			
				<radialGradient id="SVGID_58_" cx="-117" cy="158.2998" r="7.3375" gradientTransform="matrix(1.1465 0 0 0.4824 347.7999 498.2742)" gradientUnits="userSpaceOnUse">
				<stop  offset="0" style="stop-color:#FFFFFF"/>
				<stop  offset="0.1765" style="stop-color:#FFFFFF"/>
				<stop  offset="0.3059" style="stop-color:#FFFFFF;stop-opacity:0.4235"/>
				<stop  offset="0.4902" style="stop-color:#FFFFFF;stop-opacity:0.2314"/>
				<stop  offset="0.651" style="stop-color:#FFFFFF;stop-opacity:8.235294e-002"/>
				<stop  offset="1" style="stop-color:#FFFFFF;stop-opacity:0"/>
			</radialGradient>
			<path fill-rule="evenodd" clip-rule="evenodd" fill="url(#SVGID_58_)" d="M205.5,574.6c0-1,0.8-1.8,2.3-2.4
				c1.7-0.7,3.6-1.1,5.9-1.1s4.2,0.4,5.8,1.1c1.7,0.6,2.5,1.5,2.5,2.4c0,1-0.8,1.8-2.5,2.4c-1.6,0.7-3.6,1.1-5.8,1.1
				s-4.2-0.4-5.9-1.1C206.2,576.4,205.5,575.6,205.5,574.6z"/>
		</g>
	</g>
	<g>
		<g>
			<g>
				<g>
					<path fill-rule="evenodd" clip-rule="evenodd" fill="#687691" d="M611.4,484.3h17c0.3,0,0.5,0,0.8,0.1c0.3,0,0.6,0,0.9,0.1
						c1.9,0.3,3.2,1.2,3.8,2.8c0.1,0.2,0.2,0.4,0.3,0.6c0,0.2,0.1,0.3,0.1,0.5c0,0.2,0.1,0.5,0.1,0.7v93.8c0,0.3,0,0.6-0.1,1
						c0,0-0.1,0.1-0.1,0.2c-0.6,2.8-2.6,4.2-6,4.2h-170c-3.6,0-5.6-1.6-6-4.9c0-0.3-0.1-0.7-0.1-1.1v-17.5v-4.8V539v-48.7
						c0-0.2,0-0.4,0-0.6c0-0.3,0.1-0.7,0.1-1c0-0.2,0-0.3,0.1-0.5c0-0.2,0.1-0.3,0.2-0.4c0-0.2,0.1-0.4,0.2-0.5
						c0.1-0.3,0.2-0.5,0.4-0.7c0.3-0.5,0.6-0.9,1-1.2c1-0.8,2.3-1.1,4.1-1.1h9.8H611.4z"/>
					
						<linearGradient id="SVGID_59_" gradientUnits="userSpaceOnUse" x1="230.3164" y1="63.2944" x2="246.6878" y2="57.9333" gradientTransform="matrix(1.1465 0 0 1.1465 347.7999 393.1505)">
						<stop  offset="0" style="stop-color:#CECECC"/>
						<stop  offset="0.4627" style="stop-color:#CECECC"/>
						<stop  offset="1" style="stop-color:#5B5B59"/>
					</linearGradient>
					<path fill-rule="evenodd" clip-rule="evenodd" fill="url(#SVGID_59_)" d="M611.4,484.3L596.5,442h17.9h0.3
						c2.8,0.1,4.4,1.2,4.9,3.3l14.3,42c-0.6-1.6-1.9-2.5-3.8-2.8c-0.3,0-0.6-0.1-0.9-0.1c-0.3,0-0.5-0.1-0.8-0.1H611.4z"/>
					
						<linearGradient id="SVGID_60_" gradientUnits="userSpaceOnUse" x1="76.2358" y1="65.4453" x2="109.9604" y2="63.7124" gradientTransform="matrix(1.1465 0 0 1.1465 347.7999 393.1505)">
						<stop  offset="0" style="stop-color:#AAAAA6"/>
						<stop  offset="0.4235" style="stop-color:#AAAAA6"/>
						<stop  offset="0.4745" style="stop-color:#FFFFFF"/>
						<stop  offset="0.6" style="stop-color:#CECECC"/>
						<stop  offset="1" style="stop-color:#CECECC"/>
					</linearGradient>
					<path fill-rule="evenodd" clip-rule="evenodd" fill="url(#SVGID_60_)" d="M452.4,489.7l0.1-1.8l-2.8-41.8
						c0.9-2.7,2.8-4.1,5.7-4.1h141.2l14.9,42.3H468.2h-9.8c-1.8,0-3.1,0.4-4.1,1.1c-0.4,0.3-0.8,0.7-1,1.2c-0.2,0.2-0.3,0.4-0.4,0.7
						c-0.1,0.2-0.1,0.3-0.2,0.5l-0.1,0.1l-0.1,0.3c0,0.1-0.1,0.3-0.1,0.5C452.5,489,452.5,489.3,452.4,489.7z"/>
					<path fill-rule="evenodd" clip-rule="evenodd" fill="#AAAAA6" d="M449.7,446.1l2.8,41.8l-0.1,1.8c0,0.2,0,0.4,0,0.6V539v20.9
						v4.8v17.5l-0.7-17.5h-0.2l-0.4-25.7l-0.7-17.4L449.7,446.1z"/>
				</g>
			</g>
			<g>
				
					<linearGradient id="SVGID_61_" gradientUnits="userSpaceOnUse" x1="170.8247" y1="84.2373" x2="170.8247" y2="165.5623" gradientTransform="matrix(1.1465 0 0 1.1465 347.7999 393.1505)">
					<stop  offset="0" style="stop-color:#464853"/>
					<stop  offset="3.137255e-002" style="stop-color:#606273"/>
					<stop  offset="0.6745" style="stop-color:#73758A"/>
					<stop  offset="0.9569" style="stop-color:#616374"/>
					<stop  offset="0.9882" style="stop-color:#3A3D45"/>
				</linearGradient>
				<path fill-rule="evenodd" clip-rule="evenodd" fill="url(#SVGID_61_)" d="M629.8,546.3v5.7v18.5v6.5c0,4.5-2.2,6.7-6.6,6.7h-159
					c-4.5,0-6.7-2.2-6.7-6.7v-6.5V552v-5.7v-50.8c0-4.4,2.2-6.6,6.7-6.6h159c4.4,0,6.6,2.2,6.6,6.6V546.3z"/>
			</g>
			<g>
				<g>
					
						<linearGradient id="SVGID_62_" gradientUnits="userSpaceOnUse" x1="246.2124" y1="124.7007" x2="228.2874" y2="124.7007" gradientTransform="matrix(1.1465 0 0 1.1465 347.7999 393.1505)">
						<stop  offset="0" style="stop-color:#464853"/>
						<stop  offset="0.2588" style="stop-color:#66687A;stop-opacity:0.2745"/>
						<stop  offset="0.6745" style="stop-color:#73758A;stop-opacity:0"/>
					</linearGradient>
					<path fill-rule="evenodd" clip-rule="evenodd" fill="url(#SVGID_62_)" d="M612.9,488.8h10.3c4.4,0,6.6,2.2,6.6,6.6v33.2v24.4
						v6.2v17.5c0,4.4-2.2,6.7-6.6,6.7h-10.3V488.8z"/>
					
						<linearGradient id="SVGID_63_" gradientUnits="userSpaceOnUse" x1="95.8252" y1="124.7998" x2="109.6752" y2="124.7998" gradientTransform="matrix(1.1465 0 0 1.1465 347.7999 393.1505)">
						<stop  offset="0" style="stop-color:#464853"/>
						<stop  offset="0.2588" style="stop-color:#66687A;stop-opacity:0.2745"/>
						<stop  offset="0.6745" style="stop-color:#73758A;stop-opacity:0"/>
					</linearGradient>
					<path fill-rule="evenodd" clip-rule="evenodd" fill="url(#SVGID_63_)" d="M457.5,495.5c0-4.4,2.2-6.6,6.7-6.6h12.9v94.8h-12.9
						c-4.5,0-6.7-2.2-6.7-6.7v-17.5v-5V533V495.5z"/>
				</g>
			</g>
			<g>
				<polygon fill-rule="evenodd" clip-rule="evenodd" fill-opacity="0.4118" points="582.6,496.7 582.6,534.2 469.6,534.2 
					467.3,532 469.6,494.4 578.8,494.3 				"/>
			</g>
			<g>
				<g>
					<polygon fill-rule="evenodd" clip-rule="evenodd" fill="#3F4335" points="571.8,527.7 570.7,527.7 570.7,527.2 570.7,500.6 
						477.2,500.6 476.2,500.2 476.2,500.1 477.2,500.1 570.7,500.1 571.8,500.1 571.8,500.6 571.8,501 571.8,503.9 571.8,504 
						571.8,509.6 571.8,511.9 571.8,513.6 571.8,527.2 					"/>
					
						<linearGradient id="SVGID_64_" gradientUnits="userSpaceOnUse" x1="195.375" y1="105.3999" x2="199.225" y2="105.3999" gradientTransform="matrix(1.1465 0 0 1.1465 347.7999 393.1505)">
						<stop  offset="0" style="stop-color:#7B838E"/>
						<stop  offset="1" style="stop-color:#535860"/>
						<stop  offset="1" style="stop-color:#1A1A1A"/>
						<stop  offset="1" style="stop-color:#7B838C"/>
					</linearGradient>
					<polygon fill-rule="evenodd" clip-rule="evenodd" fill="url(#SVGID_64_)" points="576.2,497.9 576.2,530.1 571.8,527.7 
						571.8,527.2 571.8,513.6 571.8,511.9 571.8,509.6 571.8,504 571.8,503.9 571.8,501 571.8,500.6 571.8,500.1 					"/>
					<polygon fill-rule="evenodd" clip-rule="evenodd" fill="#1E212A" points="476.2,500.1 471.4,497.9 576.2,497.9 571.8,500.1 
						570.7,500.1 477.2,500.1 					"/>
					<polygon fill-rule="evenodd" clip-rule="evenodd" fill="#7E8892" points="580,496 467.3,496 466.8,494.5 466.7,494.3 
						466.8,494.3 578.8,494.3 					"/>
					<path fill-rule="evenodd" clip-rule="evenodd" fill="#5B656E" d="M471.4,497.9L471.4,497.9l-0.1,32.2v0.1h104.8v-32.2H471.4z
						 M467.3,532v-36h0.1H580v36H467.3z M578.4,530.1l0.3,0.2v-0.2H578.4z"/>
					
						<linearGradient id="SVGID_65_" gradientUnits="userSpaceOnUse" x1="194.5376" y1="119.5254" x2="205.5626" y2="119.5254" gradientTransform="matrix(1.1465 0 0 1.1465 347.7999 393.1505)">
						<stop  offset="0" style="stop-color:#7B838E"/>
						<stop  offset="1" style="stop-color:#535860"/>
						<stop  offset="1" style="stop-color:#1A1A1A"/>
						<stop  offset="1" style="stop-color:#7B838C"/>
					</linearGradient>
					<polygon fill-rule="evenodd" clip-rule="evenodd" fill="url(#SVGID_65_)" points="578.4,530.1 578.7,530.1 578.7,530.3 					
						"/>
					<polygon fill-rule="evenodd" clip-rule="evenodd" fill="#323627" points="477.2,500.6 477.2,527.2 570.7,527.2 570.7,527.7 
						477.2,527.7 476.2,527.7 476.2,527.2 476.2,513.6 476.2,511.9 476.2,509.6 476.2,504 476.2,503.9 476.2,501 476.2,500.2 					
						"/>
					<polygon fill-rule="evenodd" clip-rule="evenodd" fill="#2B303C" points="471.3,530 476.2,527.7 477.2,527.7 570.7,527.7 
						571.8,527.7 576.2,530.1 471.3,530.1 					"/>
					<rect x="477.2" y="500.6" fill-rule="evenodd" clip-rule="evenodd" fill="#8A956E" width="93.4" height="26.7"/>
					<polygon fill-rule="evenodd" clip-rule="evenodd" fill="#545C65" points="467.3,496 467.3,496 467.3,532 466.8,529.2 
						466.8,494.5 					"/>
					
						<linearGradient id="SVGID_66_" gradientUnits="userSpaceOnUse" x1="104.1748" y1="105.375" x2="112.8248" y2="105.375" gradientTransform="matrix(1.1465 0 0 1.1465 347.7999 393.1505)">
						<stop  offset="0" style="stop-color:#363D41"/>
						<stop  offset="1" style="stop-color:#59646A"/>
						<stop  offset="1" style="stop-color:#393939"/>
						<stop  offset="1" style="stop-color:#1A1A1A"/>
					</linearGradient>
					<polygon fill-rule="evenodd" clip-rule="evenodd" fill="url(#SVGID_66_)" points="476.2,527.7 471.3,530 471.3,497.9 
						471.4,497.9 476.2,500.1 476.2,500.2 476.2,501 476.2,503.9 476.2,504 476.2,509.6 476.2,511.9 476.2,513.6 476.2,527.2 					
						"/>
				</g>
			</g>
			<g>
				<g>
					
						<radialGradient id="SVGID_67_" cx="169.7251" cy="79.2002" r="73.2252" gradientTransform="matrix(1.1465 0 0 1.1465 347.7999 393.1505)" gradientUnits="userSpaceOnUse">
						<stop  offset="0" style="stop-color:#FFFFFF;stop-opacity:0.7059"/>
						<stop  offset="0.8392" style="stop-color:#FFFFFF;stop-opacity:0.5373"/>
						<stop  offset="1" style="stop-color:#FFFFFF;stop-opacity:0"/>
					</radialGradient>
					<path fill-rule="evenodd" clip-rule="evenodd" fill="url(#SVGID_67_)" d="M626.7,484c0,0.1,0,0.2-0.1,0.3
						c-0.1,0-0.2,0.1-0.3,0.1H458.4c-0.1,0-0.2,0-0.2-0.1c-0.1-0.1-0.1-0.2-0.1-0.3c0-0.1,0-0.1,0.1-0.2c0-0.1,0.1-0.2,0.2-0.2
						h167.9c0.1,0,0.2,0.1,0.3,0.2C626.7,483.8,626.7,483.9,626.7,484z"/>
					
						<radialGradient id="SVGID_68_" cx="154.1499" cy="91.2002" r="45.7625" gradientTransform="matrix(1.1465 0 0 0.9652 347.7999 409.6873)" gradientUnits="userSpaceOnUse">
						<stop  offset="0" style="stop-color:#FFFFFF;stop-opacity:0.5451"/>
						<stop  offset="0.8392" style="stop-color:#FFFFFF;stop-opacity:0.2196"/>
						<stop  offset="1" style="stop-color:#FFFFFF;stop-opacity:0"/>
					</radialGradient>
					<path fill-rule="evenodd" clip-rule="evenodd" fill="url(#SVGID_68_)" d="M578.9,495.4c0.1,0,0.2,0,0.3,0.1
						c0,0.1,0.1,0.2,0.1,0.2c0,0.1,0,0.2-0.1,0.3c-0.1,0-0.2,0.1-0.3,0.1H467.2v-0.7H578.9z"/>
					
						<radialGradient id="SVGID_69_" cx="156.8501" cy="121.5" r="46.2" gradientTransform="matrix(1.1465 0 0 0.956 347.7999 416.292)" gradientUnits="userSpaceOnUse">
						<stop  offset="0" style="stop-color:#FFFFFF;stop-opacity:0.5412"/>
						<stop  offset="0.8392" style="stop-color:#FFFFFF;stop-opacity:0.2196"/>
						<stop  offset="1" style="stop-color:#FFFFFF;stop-opacity:0"/>
					</radialGradient>
					<path fill-rule="evenodd" clip-rule="evenodd" fill="url(#SVGID_69_)" d="M576,530.1c0.1,0,0.2,0.1,0.2,0.2
						c0.1,0,0.1,0.1,0.1,0.2c0,0.1,0,0.2-0.1,0.3c-0.1,0-0.2,0.1-0.2,0.1H471.6c-0.1,0-0.2,0-0.2-0.1c-0.1-0.1-0.1-0.2-0.1-0.3
						c0-0.1,0-0.1,0.1-0.2c0.1-0.1,0.2-0.2,0.2-0.2H576z"/>
					
						<radialGradient id="SVGID_70_" cx="107.75" cy="104.75" r="16.075" gradientTransform="matrix(1.1465 0 0 1.1465 347.7999 393.1505)" gradientUnits="userSpaceOnUse">
						<stop  offset="0" style="stop-color:#FFFFFF;stop-opacity:6.666667e-002"/>
						<stop  offset="0.8392" style="stop-color:#FFFFFF;stop-opacity:4.705882e-002"/>
						<stop  offset="1" style="stop-color:#FFFFFF;stop-opacity:0"/>
					</radialGradient>
					<path fill-rule="evenodd" clip-rule="evenodd" fill="url(#SVGID_70_)" d="M471.3,498.5c0.1,0,0.2,0,0.3,0.1
						c0,0,0.1,0.1,0.1,0.2v30.3c0,0.1,0,0.2-0.1,0.3c-0.1,0-0.2,0.1-0.3,0.1c-0.1,0-0.1,0-0.2-0.1c-0.1-0.1-0.2-0.2-0.2-0.3v-30.3
						c0-0.1,0.1-0.2,0.2-0.2C471.2,498.6,471.3,498.5,471.3,498.5z"/>
				</g>
			</g>
		</g>
	</g>
</g>
</svg>
