<?xml version="1.0" encoding="utf-8"?>
<!-- Generator: Adobe Illustrator 16.0.0, SVG Export Plug-In . SVG Version: 6.00 Build 0)  -->
<!DOCTYPE svg PUBLIC "-//W3C//DTD SVG 1.1//EN" "http://www.w3.org/Graphics/SVG/1.1/DTD/svg11.dtd">
<svg version="1.1" id="Layer_1" xmlns="http://www.w3.org/2000/svg" xmlns:xlink="http://www.w3.org/1999/xlink" x="0px" y="0px"
	 width="700px" height="700px" viewBox="0 0 700 700" enable-background="new 0 0 700 700" xml:space="preserve">
<g>
	<g>
		<g>
			<polygon fill-rule="evenodd" clip-rule="evenodd" fill="#DDDDDD" points="185.9,544.7 169.3,544.7 170.9,541.8 179.1,541.8 			
				"/>
			<path fill-rule="evenodd" clip-rule="evenodd" fill="#F2F2F2" d="M186.3,545.8H155c-0.4,0-0.8,0.1-1.2,0.3
				c-1.6,0.5-2.4,2-2.4,4.3l-0.1,4.8l0-5.8c0-2.3,0.9-3.7,2.5-4.3c0.3-0.1,0.7-0.2,1.2-0.3h14.4h16.6l0.4,0.3V545.8z"/>
			<linearGradient id="SVGID_1_" gradientUnits="userSpaceOnUse" x1="154.332" y1="544.1201" x2="183.541" y2="581.038">
				<stop  offset="0" style="stop-color:#E6E6E6"/>
				<stop  offset="1" style="stop-color:#C3C3C3"/>
			</linearGradient>
			<path fill-rule="evenodd" clip-rule="evenodd" fill="url(#SVGID_1_)" d="M151.3,579v-11.9l0-12l0.1-4.8c0.1-2.3,0.9-3.7,2.4-4.3
				c0.4-0.1,0.8-0.2,1.2-0.3h31.3V579H151.3z"/>
			<polygon fill-rule="evenodd" clip-rule="evenodd" fill="#C7C7C7" points="151.3,567.1 151.3,579 150.9,579 148.7,571.9 
				148.7,565.2 			"/>
		</g>
	</g>
	<g>
		<g>
			<path fill-rule="evenodd" clip-rule="evenodd" fill-opacity="0.2392" d="M170.9,566.2c-1.2,0-2.2-0.4-3.1-1.3
				c-0.8-0.8-1.2-1.9-1.2-3.1c0-1.2,0.4-2.2,1.2-3.1c0.8-0.8,1.9-1.2,3.1-1.2c1.2,0,2.2,0.4,3.1,1.2c0.8,0.9,1.3,1.9,1.3,3.1
				c0,1.2-0.4,2.2-1.3,3.1C173.1,565.7,172,566.2,170.9,566.2z"/>
		</g>
		<g>
			<linearGradient id="SVGID_2_" gradientUnits="userSpaceOnUse" x1="165.8374" y1="561.3496" x2="174.3624" y2="561.3496">
				<stop  offset="0" style="stop-color:#444444"/>
				<stop  offset="1" style="stop-color:#000000"/>
			</linearGradient>
			<path fill-rule="evenodd" clip-rule="evenodd" fill="url(#SVGID_2_)" d="M170.1,565.7c-1.2,0-2.2-0.4-3-1.3
				c-0.8-0.9-1.2-1.9-1.2-3.1s0.4-2.2,1.2-3c0.8-0.8,1.9-1.2,3-1.2c1.2,0,2.3,0.4,3.1,1.2c0.8,0.8,1.3,1.8,1.3,3s-0.4,2.2-1.3,3.1
				C172.4,565.2,171.4,565.7,170.1,565.7z"/>
		</g>
	</g>
	<g>
		<g>
			
				<radialGradient id="SVGID_3_" cx="167.2002" cy="559.7002" r="2.3206" gradientTransform="matrix(0.5818 -0.8133 0.6626 0.474 -300.9238 430.408)" gradientUnits="userSpaceOnUse">
				<stop  offset="0" style="stop-color:#FFFFFF"/>
				<stop  offset="0.1922" style="stop-color:#FFFFFF"/>
				<stop  offset="0.2824" style="stop-color:#FFFFFF;stop-opacity:0.7529"/>
				<stop  offset="0.4157" style="stop-color:#FFFFFF;stop-opacity:0.6"/>
				<stop  offset="0.5882" style="stop-color:#FEFEFE;stop-opacity:0.3647"/>
				<stop  offset="0.8157" style="stop-color:#FCFCFC;stop-opacity:0.1059"/>
				<stop  offset="1" style="stop-color:#F9F9F9;stop-opacity:0"/>
			</radialGradient>
			<path fill-rule="evenodd" clip-rule="evenodd" fill="url(#SVGID_3_)" d="M167.1,557.6c0.5-0.2,1-0.1,1.4,0.2
				c0.4,0.3,0.6,0.7,0.6,1.3c0.1,0.6,0,1.1-0.4,1.6s-0.8,0.8-1.4,1c-0.6,0.1-1.1,0-1.5-0.3c-0.4-0.3-0.6-0.7-0.6-1.3
				c0-0.6,0.1-1.2,0.5-1.7C166.1,558.1,166.5,557.8,167.1,557.6z"/>
		</g>
	</g>
</g>
</svg>
