<?xml version="1.0" encoding="utf-8"?>
<!-- Generator: Adobe Illustrator 16.0.0, SVG Export Plug-In . SVG Version: 6.00 Build 0)  -->
<!DOCTYPE svg PUBLIC "-//W3C//DTD SVG 1.1//EN" "http://www.w3.org/Graphics/SVG/1.1/DTD/svg11.dtd">
<svg version="1.1" id="Layer_1" xmlns="http://www.w3.org/2000/svg" xmlns:xlink="http://www.w3.org/1999/xlink" x="0px" y="0px"
	 width="700px" height="700px" viewBox="0 0 700 700" enable-background="new 0 0 700 700" xml:space="preserve">
<g>
	<g>
		<g>
			<g>
				
					<linearGradient id="SVGID_1_" gradientUnits="userSpaceOnUse" x1="-160.2002" y1="-156.2627" x2="-160.2002" y2="-121.7377" gradientTransform="matrix(1.1465 0 0 1.1465 347.7999 393.1505)">
					<stop  offset="0" style="stop-color:#5B5A5A"/>
					<stop  offset="8.235294e-002" style="stop-color:#828282"/>
					<stop  offset="0.1529" style="stop-color:#FFFFFF"/>
					<stop  offset="0.1961" style="stop-color:#FFFFFF"/>
					<stop  offset="0.2588" style="stop-color:#D1D1D1"/>
					<stop  offset="0.4078" style="stop-color:#B6B6B6"/>
					<stop  offset="0.6667" style="stop-color:#544D4D"/>
					<stop  offset="1" style="stop-color:#000000"/>
				</linearGradient>
				<path fill-rule="evenodd" clip-rule="evenodd" fill="url(#SVGID_1_)" d="M174.3,213.5c-0.2,0.2-0.4,0.4-0.5,0.8l-0.2,1
					c-0.1,0.3-0.2,0.7-0.2,1.2c0,0.1,0,0.2-0.1,0.3c-0.2,1.3-0.3,2.8-0.5,4.6c-0.1,2.1-0.2,4.6-0.4,7.5c0,0.3,0,0.7,0,1.1
					c-0.1,2.5-0.1,4.8-0.1,6.9c0,2,0,3.8,0.1,5.3c0,0.7,0,1.3,0,1.9c0.2,3.9,0.4,6.5,0.7,8c0.1,0.5,0.2,0.9,0.2,1.1
					c0.2,0.4,0.3,0.6,0.5,0.6h-18.4c-0.1,0-0.2-0.2-0.4-0.6c-0.5-1.3-0.8-4.4-0.9-9.1c0-0.6-0.1-1.3-0.1-1.9c0-1.8-0.1-3.5-0.1-5.3
					c0-2.3,0-4.6,0.1-6.9c0-0.4,0-0.7,0.1-1.1c0.1-2.8,0.2-5.3,0.3-7.5c0.2-1.8,0.3-3.3,0.5-4.6c0-0.2,0-0.3,0.1-0.3
					c0.2-0.9,0.3-1.6,0.4-2.2c0.2-0.4,0.3-0.6,0.5-0.7v-0.1H174.3z"/>
				
					<linearGradient id="SVGID_2_" gradientUnits="userSpaceOnUse" x1="-160.2002" y1="-156.2627" x2="-160.2002" y2="-121.7377" gradientTransform="matrix(1.1465 0 0 1.1465 347.7999 393.1505)">
					<stop  offset="0" style="stop-color:#5B5A5A"/>
					<stop  offset="8.235294e-002" style="stop-color:#828282"/>
					<stop  offset="0.1529" style="stop-color:#FFFFFF"/>
					<stop  offset="0.1961" style="stop-color:#FFFFFF"/>
					<stop  offset="0.2588" style="stop-color:#D1D1D1"/>
					<stop  offset="0.4078" style="stop-color:#B6B6B6"/>
					<stop  offset="0.6667" style="stop-color:#544D4D"/>
					<stop  offset="1" style="stop-color:#000000"/>
				</linearGradient>
				<path fill-rule="evenodd" clip-rule="evenodd" fill="url(#SVGID_2_)" d="M174.3,213.5c-0.2,0.2-0.4,0.4-0.5,0.8l-0.2,1
					c-0.1,0.3-0.2,0.7-0.2,1.2c0,0.1,0,0.2-0.1,0.3c-0.2,1.3-0.3,2.8-0.5,4.6c-0.1,2.1-0.2,4.6-0.4,7.5c0,0.3,0,0.7,0,1.1
					c-0.1,2.5-0.1,4.8-0.1,6.9c0,2,0,3.8,0.1,5.3c0,0.7,0,1.3,0,1.9c0.2,3.9,0.4,6.5,0.7,8c0.1,0.5,0.2,0.9,0.2,1.1
					c0.2,0.4,0.3,0.6,0.5,0.6h-18.4c-0.1,0-0.2-0.2-0.4-0.6c-0.5-1.3-0.8-4.4-0.9-9.1c0-0.6-0.1-1.3-0.1-1.9c0-1.8-0.1-3.5-0.1-5.3
					c0-2.3,0-4.6,0.1-6.9c0-0.4,0-0.7,0.1-1.1c0.1-2.8,0.2-5.3,0.3-7.5c0.2-1.8,0.3-3.3,0.5-4.6c0-0.2,0-0.3,0.1-0.3
					c0.2-0.9,0.3-1.6,0.4-2.2c0.2-0.4,0.3-0.6,0.5-0.7v-0.1H174.3z"/>
				
					<linearGradient id="SVGID_3_" gradientUnits="userSpaceOnUse" x1="-153.1001" y1="-139.0005" x2="-150.0001" y2="-139.0005" gradientTransform="matrix(1.1465 0 0 1.1465 347.7999 393.1505)">
					<stop  offset="0" style="stop-color:#FFFFFF"/>
					<stop  offset="1" style="stop-color:#000000"/>
				</linearGradient>
				<path fill-rule="evenodd" clip-rule="evenodd" fill="url(#SVGID_3_)" d="M174.3,213.5l0.1,0.1c0.1,0.1,0.2,0.3,0.3,0.6
					c0.2,0.6,0.4,1.5,0.5,2.7c0,0.2,0.1,0.5,0.1,0.7c0.1,1.2,0.2,2.5,0.3,4c0,0.6,0,1.2,0.1,1.9c0.1,2.1,0.1,4.3,0.2,6.6
					c0,2.7-0.1,5.6-0.2,8.6c-0.1,1.3-0.1,2.5-0.2,3.7c-0.2,3.7-0.4,6.6-0.8,8.8c-0.3,1.9-0.6,2.9-0.9,2.9c-0.2,0-0.3-0.2-0.5-0.6
					c-0.1-0.3-0.2-0.6-0.2-1.1c-0.3-1.5-0.6-4.1-0.7-8c0-0.6,0-1.3,0-1.9c-0.1-1.6-0.1-3.3-0.1-5.3c0-2.1,0-4.5,0.1-6.9
					c0-0.4,0-0.7,0-1.1c0.2-2.8,0.3-5.3,0.4-7.5c0.2-1.8,0.4-3.3,0.5-4.6c0-0.2,0.1-0.3,0.1-0.3c0.1-0.5,0.2-0.9,0.2-1.2l0.2-1
					C173.9,214,174.1,213.7,174.3,213.5z"/>
				
					<linearGradient id="SVGID_4_" gradientUnits="userSpaceOnUse" x1="-153.1001" y1="-139.0005" x2="-150.0001" y2="-139.0005" gradientTransform="matrix(1.1465 0 0 1.1465 347.7999 393.1505)">
					<stop  offset="0" style="stop-color:#FFFFFF"/>
					<stop  offset="1" style="stop-color:#000000"/>
				</linearGradient>
				<path fill-rule="evenodd" clip-rule="evenodd" fill="url(#SVGID_4_)" d="M174.3,213.5l0.1,0.1c0.1,0.1,0.2,0.3,0.3,0.6
					c0.2,0.6,0.4,1.5,0.5,2.7c0,0.2,0.1,0.5,0.1,0.7c0.1,1.2,0.2,2.5,0.3,4c0,0.6,0,1.2,0.1,1.9c0.1,2.1,0.1,4.3,0.2,6.6
					c0,2.7-0.1,5.6-0.2,8.6c-0.1,1.3-0.1,2.5-0.2,3.7c-0.2,3.7-0.4,6.6-0.8,8.8c-0.3,1.9-0.6,2.9-0.9,2.9c-0.2,0-0.3-0.2-0.5-0.6
					c-0.1-0.3-0.2-0.6-0.2-1.1c-0.3-1.5-0.6-4.1-0.7-8c0-0.6,0-1.3,0-1.9c-0.1-1.6-0.1-3.3-0.1-5.3c0-2.1,0-4.5,0.1-6.9
					c0-0.4,0-0.7,0-1.1c0.2-2.8,0.3-5.3,0.4-7.5c0.2-1.8,0.4-3.3,0.5-4.6c0-0.2,0.1-0.3,0.1-0.3c0.1-0.5,0.2-0.9,0.2-1.2l0.2-1
					C173.9,214,174.1,213.7,174.3,213.5z"/>
			</g>
		</g>
		<g>
			<g>
				
					<linearGradient id="SVGID_5_" gradientUnits="userSpaceOnUse" x1="-148.7251" y1="-124.4624" x2="-148.7251" y2="-117.4374" gradientTransform="matrix(1.1465 0 0 1.1465 347.7999 393.1505)">
					<stop  offset="0" style="stop-color:#8DA0A4"/>
					<stop  offset="0.102" style="stop-color:#96A7AA"/>
					<stop  offset="0.2275" style="stop-color:#4E5D60"/>
					<stop  offset="1" style="stop-color:#354346"/>
				</linearGradient>
				<path fill-rule="evenodd" clip-rule="evenodd" fill="url(#SVGID_5_)" d="M160.7,248.1h30.8c0,1.1,0,2.2,0.1,3.3
					c0.3,6.4,0.7,10.9,1.2,13.4c0.1,0.8,0.3,1.4,0.5,1.8c0.2,0.7,0.5,1.1,0.7,1.1h-30.8c-0.2,0-0.5-0.4-0.7-1.1
					c-0.8-2.2-1.3-7.3-1.6-15.2C160.8,250.3,160.7,249.2,160.7,248.1z"/>
				
					<linearGradient id="SVGID_6_" gradientUnits="userSpaceOnUse" x1="-148.7251" y1="-124.4624" x2="-148.7251" y2="-117.4374" gradientTransform="matrix(1.1465 0 0 1.1465 347.7999 393.1505)">
					<stop  offset="0" style="stop-color:#8DA0A4"/>
					<stop  offset="0.102" style="stop-color:#96A7AA"/>
					<stop  offset="0.2275" style="stop-color:#4E5D60"/>
					<stop  offset="1" style="stop-color:#354346"/>
				</linearGradient>
				<path fill-rule="evenodd" clip-rule="evenodd" fill="url(#SVGID_6_)" d="M160.7,248.1h30.8c0,1.1,0,2.2,0.1,3.3
					c0.3,6.4,0.7,10.9,1.2,13.4c0.1,0.8,0.3,1.4,0.5,1.8c0.2,0.7,0.5,1.1,0.7,1.1h-30.8c-0.2,0-0.5-0.4-0.7-1.1
					c-0.8-2.2-1.3-7.3-1.6-15.2C160.8,250.3,160.7,249.2,160.7,248.1z"/>
				
					<linearGradient id="SVGID_7_" gradientUnits="userSpaceOnUse" x1="-148.3003" y1="-170.3501" x2="-148.3003" y2="-142.6501" gradientTransform="matrix(1.1465 0 0 1.1465 347.7999 393.1505)">
					<stop  offset="0" style="stop-color:#8DA0A4"/>
					<stop  offset="1" style="stop-color:#6C797B"/>
				</linearGradient>
				<path fill-rule="evenodd" clip-rule="evenodd" fill="url(#SVGID_7_)" d="M191.5,227.5h-30.7c0-0.6,0-1.3,0.1-1.9
					c0.1-4.7,0.3-8.8,0.7-12.4c0.2-3.1,0.5-5.7,0.9-7.9c0-0.2,0-0.4,0.1-0.5c0.2-1.6,0.5-2.8,0.7-3.6c0.2-0.7,0.4-1.2,0.6-1.3
					c0,0,0.1-0.1,0.2-0.1h30.9c-0.4,0.3-0.7,0.8-0.9,1.4l-0.3,1.5c-0.2,0.5-0.3,1.2-0.4,2.1c0,0.1,0,0.3-0.1,0.5
					c-0.3,2.2-0.6,4.8-0.8,7.9c-0.3,3.6-0.6,7.7-0.7,12.4C191.5,226.3,191.5,226.9,191.5,227.5z"/>
				
					<linearGradient id="SVGID_8_" gradientUnits="userSpaceOnUse" x1="-148.3003" y1="-170.3501" x2="-148.3003" y2="-142.6501" gradientTransform="matrix(1.1465 0 0 1.1465 347.7999 393.1505)">
					<stop  offset="0" style="stop-color:#8DA0A4"/>
					<stop  offset="1" style="stop-color:#6C797B"/>
				</linearGradient>
				<path fill-rule="evenodd" clip-rule="evenodd" fill="url(#SVGID_8_)" d="M191.5,227.5h-30.7c0-0.6,0-1.3,0.1-1.9
					c0.1-4.7,0.3-8.8,0.7-12.4c0.2-3.1,0.5-5.7,0.9-7.9c0-0.2,0-0.4,0.1-0.5c0.2-1.6,0.5-2.8,0.7-3.6c0.2-0.7,0.4-1.2,0.6-1.3
					c0,0,0.1-0.1,0.2-0.1h30.9c-0.4,0.3-0.7,0.8-0.9,1.4l-0.3,1.5c-0.2,0.5-0.3,1.2-0.4,2.1c0,0.1,0,0.3-0.1,0.5
					c-0.3,2.2-0.6,4.8-0.8,7.9c-0.3,3.6-0.6,7.7-0.7,12.4C191.5,226.3,191.5,226.9,191.5,227.5z"/>
				
					<linearGradient id="SVGID_9_" gradientUnits="userSpaceOnUse" x1="-149.8003" y1="-144.4751" x2="-149.8003" y2="-140.0254" gradientTransform="matrix(1.1465 0 0 1.1465 347.7999 393.1505)">
					<stop  offset="0" style="stop-color:#717F81"/>
					<stop  offset="0.1373" style="stop-color:#94A5A8"/>
					<stop  offset="0.2941" style="stop-color:#8DA0A4"/>
					<stop  offset="1" style="stop-color:#8DA0A4"/>
				</linearGradient>
				<path fill-rule="evenodd" clip-rule="evenodd" fill="url(#SVGID_9_)" d="M191.4,232.6h-30.7c0-1.7,0-3.4,0.1-5.1h30.7
					C191.4,229.3,191.4,231,191.4,232.6z"/>
				
					<linearGradient id="SVGID_10_" gradientUnits="userSpaceOnUse" x1="-149.8003" y1="-144.4751" x2="-149.8003" y2="-140.0254" gradientTransform="matrix(1.1465 0 0 1.1465 347.7999 393.1505)">
					<stop  offset="0" style="stop-color:#717F81"/>
					<stop  offset="0.1373" style="stop-color:#94A5A8"/>
					<stop  offset="0.2941" style="stop-color:#8DA0A4"/>
					<stop  offset="1" style="stop-color:#8DA0A4"/>
				</linearGradient>
				<path fill-rule="evenodd" clip-rule="evenodd" fill="url(#SVGID_10_)" d="M191.4,232.6h-30.7c0-1.7,0-3.4,0.1-5.1h30.7
					C191.4,229.3,191.4,231,191.4,232.6z"/>
				<path fill-rule="evenodd" clip-rule="evenodd" fill="#8DA0A4" d="M191.5,248.1h-30.8c-0.1-2.9-0.1-5.9-0.2-8.9
					c0-2.2,0-4.4,0.1-6.6h30.7c0,2.3-0.1,4.5-0.1,6.6C191.3,242.5,191.4,245.5,191.5,248.1z"/>
				<path fill-rule="evenodd" clip-rule="evenodd" fill="#8DA0A4" d="M191.5,248.1h-30.8c-0.1-2.9-0.1-5.9-0.2-8.9
					c0-2.2,0-4.4,0.1-6.6h30.7c0,2.3-0.1,4.5-0.1,6.6C191.3,242.5,191.4,245.5,191.5,248.1z"/>
				<path fill-rule="evenodd" clip-rule="evenodd" fill="#685B57" d="M193.9,267.7c-0.2,0-0.5-0.4-0.7-1.1c-0.2-0.4-0.3-1-0.5-1.8
					c-0.5-2.5-0.9-7-1.2-13.4c0-1-0.1-2.1-0.1-3.3c-0.1-2.6-0.2-5.6-0.2-8.9c0-2.1,0-4.3,0.1-6.6c0-1.6,0.1-3.3,0.1-5.1
					c0-0.6,0.1-1.3,0.1-1.9c0.2-4.7,0.4-8.8,0.7-12.4c0.2-3.1,0.5-5.7,0.8-7.9c0-0.2,0.1-0.4,0.1-0.5c0.1-0.9,0.2-1.6,0.4-2.1
					l0.3-1.5c0.2-0.6,0.5-1.1,0.9-1.4l0.1,0.1c0.2,0.2,0.4,0.5,0.5,1c0.3,1,0.6,2.4,0.9,4.5c0,0.4,0.1,0.8,0.1,1.2
					c0.2,2,0.4,4.2,0.5,6.6c0,1,0.1,2,0.1,3.1c0.2,3.5,0.2,7.2,0.3,11.2c0,1.7,0,3.4,0,5.1c-0.1,3-0.2,6.1-0.3,9.3
					c-0.1,2.1-0.2,4.2-0.2,6.1c-0.3,6.2-0.8,11.1-1.4,14.7C194.9,266.1,194.4,267.7,193.9,267.7z"/>
				<path fill-rule="evenodd" clip-rule="evenodd" fill="#685B57" d="M193.9,267.7c-0.2,0-0.5-0.4-0.7-1.1c-0.2-0.4-0.3-1-0.5-1.8
					c-0.5-2.5-0.9-7-1.2-13.4c0-1-0.1-2.1-0.1-3.3c-0.1-2.6-0.2-5.6-0.2-8.9c0-2.1,0-4.3,0.1-6.6c0-1.6,0.1-3.3,0.1-5.1
					c0-0.6,0.1-1.3,0.1-1.9c0.2-4.7,0.4-8.8,0.7-12.4c0.2-3.1,0.5-5.7,0.8-7.9c0-0.2,0.1-0.4,0.1-0.5c0.1-0.9,0.2-1.6,0.4-2.1
					l0.3-1.5c0.2-0.6,0.5-1.1,0.9-1.4l0.1,0.1c0.2,0.2,0.4,0.5,0.5,1c0.3,1,0.6,2.4,0.9,4.5c0,0.4,0.1,0.8,0.1,1.2
					c0.2,2,0.4,4.2,0.5,6.6c0,1,0.1,2,0.1,3.1c0.2,3.5,0.2,7.2,0.3,11.2c0,1.7,0,3.4,0,5.1c-0.1,3-0.2,6.1-0.3,9.3
					c-0.1,2.1-0.2,4.2-0.2,6.1c-0.3,6.2-0.8,11.1-1.4,14.7C194.9,266.1,194.4,267.7,193.9,267.7z"/>
			</g>
		</g>
		<g>
			<g>
				
					<linearGradient id="SVGID_11_" gradientUnits="userSpaceOnUse" x1="-147.8501" y1="-191" x2="-147.8501" y2="-87.7998" gradientTransform="matrix(1.1465 0 0 1.1465 347.7999 393.1505)">
					<stop  offset="0" style="stop-color:#5B5A5A"/>
					<stop  offset="0.3922" style="stop-color:#B6B6B6"/>
					<stop  offset="0.6941" style="stop-color:#9C9A9A"/>
					<stop  offset="1" style="stop-color:#201E1D"/>
				</linearGradient>
				<path fill-rule="evenodd" clip-rule="evenodd" fill="url(#SVGID_11_)" d="M183.3,174.2c-0.1,0-0.2,0.1-0.2,0.2
					c-0.4,0.3-0.7,1.1-1.1,2.4c-0.2,0.7-0.4,1.6-0.6,2.6c-0.2,1.1-0.5,2.3-0.7,3.6c-1.3,8.3-2.2,20.4-2.8,36.2
					c-0.3,8.1-0.5,16-0.5,23.6c0,7.2,0.2,14.3,0.5,21.2c0.4,10.9,1.1,18.6,2,23.4c0.3,1.3,0.5,2.4,0.8,3.3c0.4,1.2,0.8,1.8,1.3,1.8
					h-4.1c-0.4,0-0.8-0.6-1.3-1.8c-1.3-3.9-2.3-12.8-2.8-26.7c-0.3-6.9-0.4-14-0.5-21.2c0-7.6,0.2-15.5,0.5-23.6
					c0.5-15.8,1.5-27.9,2.8-36.2c0.5-2.7,0.9-4.8,1.3-6.2c0.3-1.3,0.7-2,1.1-2.4c0-0.1,0.1-0.1,0.2-0.2H183.3z"/>
				
					<linearGradient id="SVGID_12_" gradientUnits="userSpaceOnUse" x1="-147.8501" y1="-191" x2="-147.8501" y2="-87.7998" gradientTransform="matrix(1.1465 0 0 1.1465 347.7999 393.1505)">
					<stop  offset="0" style="stop-color:#5B5A5A"/>
					<stop  offset="0.3922" style="stop-color:#B6B6B6"/>
					<stop  offset="0.6941" style="stop-color:#9C9A9A"/>
					<stop  offset="1" style="stop-color:#201E1D"/>
				</linearGradient>
				<path fill-rule="evenodd" clip-rule="evenodd" fill="url(#SVGID_12_)" d="M183.3,174.2c-0.1,0-0.2,0.1-0.2,0.2
					c-0.4,0.3-0.7,1.1-1.1,2.4c-0.2,0.7-0.4,1.6-0.6,2.6c-0.2,1.1-0.5,2.3-0.7,3.6c-1.3,8.3-2.2,20.4-2.8,36.2
					c-0.3,8.1-0.5,16-0.5,23.6c0,7.2,0.2,14.3,0.5,21.2c0.4,10.9,1.1,18.6,2,23.4c0.3,1.3,0.5,2.4,0.8,3.3c0.4,1.2,0.8,1.8,1.3,1.8
					h-4.1c-0.4,0-0.8-0.6-1.3-1.8c-1.3-3.9-2.3-12.8-2.8-26.7c-0.3-6.9-0.4-14-0.5-21.2c0-7.6,0.2-15.5,0.5-23.6
					c0.5-15.8,1.5-27.9,2.8-36.2c0.5-2.7,0.9-4.8,1.3-6.2c0.3-1.3,0.7-2,1.1-2.4c0-0.1,0.1-0.1,0.2-0.2H183.3z"/>
				<path fill-rule="evenodd" clip-rule="evenodd" fill="#1F1A17" d="M182,292.5c-0.4,0-0.8-0.6-1.3-1.8c-0.3-0.9-0.5-2-0.8-3.3
					c-0.9-4.7-1.6-12.5-2-23.4c-0.3-6.9-0.4-14-0.5-21.2c0-7.6,0.2-15.5,0.5-23.6c0.5-15.8,1.5-27.9,2.8-36.2
					c0.2-1.3,0.5-2.5,0.7-3.6c0.2-1,0.4-1.9,0.6-2.6c0.3-1.3,0.7-2,1.1-2.4c0-0.1,0.1-0.1,0.2-0.2c0.1,0,0.2,0,0.2,0
					c0,0,0.1,0.1,0.2,0.2c0.3,0.3,0.6,0.8,0.9,1.7c0.7,1.9,1.3,5.3,1.7,9.9c0.5,4.4,0.9,10.1,1.1,16.9c0.5,13.9,0.5,28.8-0.1,44.7
					c-0.5,15.8-1.5,27.9-2.8,36.3C183.7,289.6,182.8,292.4,182,292.5z"/>
				<path fill-rule="evenodd" clip-rule="evenodd" fill="#1F1A17" d="M182,292.5c-0.4,0-0.8-0.6-1.3-1.8c-0.3-0.9-0.5-2-0.8-3.3
					c-0.9-4.7-1.6-12.5-2-23.4c-0.3-6.9-0.4-14-0.5-21.2c0-7.6,0.2-15.5,0.5-23.6c0.5-15.8,1.5-27.9,2.8-36.2
					c0.2-1.3,0.5-2.5,0.7-3.6c0.2-1,0.4-1.9,0.6-2.6c0.3-1.3,0.7-2,1.1-2.4c0-0.1,0.1-0.1,0.2-0.2c0.1,0,0.2,0,0.2,0
					c0,0,0.1,0.1,0.2,0.2c0.3,0.3,0.6,0.8,0.9,1.7c0.7,1.9,1.3,5.3,1.7,9.9c0.5,4.4,0.9,10.1,1.1,16.9c0.5,13.9,0.5,28.8-0.1,44.7
					c-0.5,15.8-1.5,27.9-2.8,36.3C183.7,289.6,182.8,292.4,182,292.5z"/>
			</g>
		</g>
		<g>
			
				<linearGradient id="SVGID_13_" gradientUnits="userSpaceOnUse" x1="-93.6753" y1="-188.2749" x2="-93.6753" y2="-90.5249" gradientTransform="matrix(1.1465 0 0 1.1465 347.7999 393.1505)">
				<stop  offset="0" style="stop-color:#292929"/>
				<stop  offset="0.1294" style="stop-color:#7E7878"/>
				<stop  offset="0.2588" style="stop-color:#565656"/>
				<stop  offset="0.5176" style="stop-color:#8C7E7E"/>
				<stop  offset="0.7961" style="stop-color:#484343"/>
				<stop  offset="1" style="stop-color:#272727"/>
			</linearGradient>
			<path fill-rule="evenodd" clip-rule="evenodd" fill="url(#SVGID_13_)" d="M189.3,177.5h111.8v111.6H184c-0.4,0-0.8-0.6-1.2-1.7
				c-1.2-3.7-2.1-12.1-2.6-25.2c-0.2-4.6-0.3-9.2-0.3-13.9c0-2-0.1-4.1-0.1-6.1c0-7.2,0.1-14.6,0.4-22.3c0-1.3,0.1-2.5,0.2-3.7
				c0.3-7.6,0.7-14.2,1.2-19.9c0.3-3.1,0.6-5.8,1-8.3c0.1-0.8,0.2-1.6,0.3-2.3c0.4-2.5,0.8-4.4,1.2-5.8c0-0.1,0.1-0.2,0.1-0.2
				c0.3-1.1,0.7-1.7,1-2c0-0.1,0.1-0.1,0.2-0.2h4C189.2,177.5,189.2,177.5,189.3,177.5z"/>
			
				<linearGradient id="SVGID_14_" gradientUnits="userSpaceOnUse" x1="-93.6753" y1="-188.2749" x2="-93.6753" y2="-90.5249" gradientTransform="matrix(1.1465 0 0 1.1465 347.7999 393.1505)">
				<stop  offset="0" style="stop-color:#292929"/>
				<stop  offset="0.1294" style="stop-color:#7E7878"/>
				<stop  offset="0.2588" style="stop-color:#565656"/>
				<stop  offset="0.5176" style="stop-color:#8C7E7E"/>
				<stop  offset="0.7961" style="stop-color:#484343"/>
				<stop  offset="1" style="stop-color:#272727"/>
			</linearGradient>
			<path fill-rule="evenodd" clip-rule="evenodd" fill="url(#SVGID_14_)" d="M189.3,177.5h111.8v111.6H184c-0.4,0-0.8-0.6-1.2-1.7
				c-1.2-3.7-2.1-12.1-2.6-25.2c-0.2-4.6-0.3-9.2-0.3-13.9c0-2-0.1-4.1-0.1-6.1c0-7.2,0.1-14.6,0.4-22.3c0-1.3,0.1-2.5,0.2-3.7
				c0.3-7.6,0.7-14.2,1.2-19.9c0.3-3.1,0.6-5.8,1-8.3c0.1-0.8,0.2-1.6,0.3-2.3c0.4-2.5,0.8-4.4,1.2-5.8c0-0.1,0.1-0.2,0.1-0.2
				c0.3-1.1,0.7-1.7,1-2c0-0.1,0.1-0.1,0.2-0.2h4C189.2,177.5,189.2,177.5,189.3,177.5z"/>
		</g>
		<g>
			<g>
				<path fill-rule="evenodd" clip-rule="evenodd" fill="#1F1A17" d="M302.9,292.5c-0.2-0.2-0.4-0.8-0.6-1.8
					c-0.5-2.3-0.8-6.2-1.1-11.8c-0.2-4.1-0.4-9-0.6-14.8c-0.2-6.9-0.2-14-0.2-21.2c0-7.6,0.1-15.5,0.2-23.6
					c0.3-12.8,0.7-23.1,1.3-31c0.1-1.9,0.2-3.6,0.3-5.2c0.3-2.7,0.5-4.8,0.7-6.2c0.3-1.6,0.5-2.4,0.7-2.5c0,0,0.1,0,0.1,0
					c0.2,0.1,0.5,0.7,0.7,1.9c0.3,1.9,0.6,5.3,0.9,9.9c0.3,4.4,0.5,10.1,0.6,16.9c0.3,13.9,0.3,28.8,0,44.7
					c-0.3,15.8-0.9,27.9-1.5,36.3C303.9,289.6,303.4,292.4,302.9,292.5L302.9,292.5z"/>
				<path fill-rule="evenodd" clip-rule="evenodd" fill="#1F1A17" d="M302.9,292.5c-0.2-0.2-0.4-0.8-0.6-1.8
					c-0.5-2.3-0.8-6.2-1.1-11.8c-0.2-4.1-0.4-9-0.6-14.8c-0.2-6.9-0.2-14-0.2-21.2c0-7.6,0.1-15.5,0.2-23.6
					c0.3-12.8,0.7-23.1,1.3-31c0.1-1.9,0.2-3.6,0.3-5.2c0.3-2.7,0.5-4.8,0.7-6.2c0.3-1.6,0.5-2.4,0.7-2.5c0,0,0.1,0,0.1,0
					c0.2,0.1,0.5,0.7,0.7,1.9c0.3,1.9,0.6,5.3,0.9,9.9c0.3,4.4,0.5,10.1,0.6,16.9c0.3,13.9,0.3,28.8,0,44.7
					c-0.3,15.8-0.9,27.9-1.5,36.3C303.9,289.6,303.4,292.4,302.9,292.5L302.9,292.5z"/>
				
					<linearGradient id="SVGID_15_" gradientUnits="userSpaceOnUse" x1="-41.5503" y1="-191.0093" x2="-41.5503" y2="-87.7998" gradientTransform="matrix(1.1465 0 0 1.1465 347.7999 393.1505)">
					<stop  offset="0" style="stop-color:#5B5A5A"/>
					<stop  offset="0.3922" style="stop-color:#B6B6B6"/>
					<stop  offset="0.6941" style="stop-color:#9C9A9A"/>
					<stop  offset="1" style="stop-color:#201E1D"/>
				</linearGradient>
				<path fill-rule="evenodd" clip-rule="evenodd" fill="url(#SVGID_15_)" d="M303.7,174.2c-0.2,0.1-0.5,1-0.7,2.5
					c-0.2,1.5-0.5,3.6-0.7,6.2c-0.2,1.6-0.3,3.3-0.3,5.2c-0.6,7.9-1,18.2-1.3,31c-0.2,8.1-0.2,16-0.2,23.6c0,7.2,0.1,14.3,0.2,21.2
					c0.2,5.8,0.3,10.8,0.6,14.8c0.3,5.6,0.6,9.5,1.1,11.8c0.2,1.1,0.4,1.7,0.6,1.8h-3.7c-0.2,0-0.5-0.6-0.7-1.8
					c-0.8-3.9-1.3-12.8-1.7-26.7c-0.1-6.9-0.2-14-0.2-21.2c0-7.6,0.1-15.5,0.2-23.6c0.3-15.8,0.9-27.9,1.6-36.2
					c0.3-2.7,0.5-4.8,0.7-6.2c0.3-1.8,0.6-2.6,0.9-2.5H303.7z"/>
				
					<linearGradient id="SVGID_16_" gradientUnits="userSpaceOnUse" x1="-41.5503" y1="-191.0093" x2="-41.5503" y2="-87.7998" gradientTransform="matrix(1.1465 0 0 1.1465 347.7999 393.1505)">
					<stop  offset="0" style="stop-color:#5B5A5A"/>
					<stop  offset="0.3922" style="stop-color:#B6B6B6"/>
					<stop  offset="0.6941" style="stop-color:#9C9A9A"/>
					<stop  offset="1" style="stop-color:#201E1D"/>
				</linearGradient>
				<path fill-rule="evenodd" clip-rule="evenodd" fill="url(#SVGID_16_)" d="M303.7,174.2c-0.2,0.1-0.5,1-0.7,2.5
					c-0.2,1.5-0.5,3.6-0.7,6.2c-0.2,1.6-0.3,3.3-0.3,5.2c-0.6,7.9-1,18.2-1.3,31c-0.2,8.1-0.2,16-0.2,23.6c0,7.2,0.1,14.3,0.2,21.2
					c0.2,5.8,0.3,10.8,0.6,14.8c0.3,5.6,0.6,9.5,1.1,11.8c0.2,1.1,0.4,1.7,0.6,1.8h-3.7c-0.2,0-0.5-0.6-0.7-1.8
					c-0.8-3.9-1.3-12.8-1.7-26.7c-0.1-6.9-0.2-14-0.2-21.2c0-7.6,0.1-15.5,0.2-23.6c0.3-15.8,0.9-27.9,1.6-36.2
					c0.3-2.7,0.5-4.8,0.7-6.2c0.3-1.8,0.6-2.6,0.9-2.5H303.7z"/>
			</g>
		</g>
		<g>
			<g>
				
					<linearGradient id="SVGID_17_" gradientUnits="userSpaceOnUse" x1="-25.5635" y1="-151.4424" x2="-30.3936" y2="-145.316" gradientTransform="matrix(1.1465 0 0 1.1465 347.7999 393.1505)">
					<stop  offset="3.921569e-003" style="stop-color:#897B75"/>
					<stop  offset="0.3255" style="stop-color:#FFFFFF"/>
					<stop  offset="0.4196" style="stop-color:#D2C8C5"/>
					<stop  offset="0.7804" style="stop-color:#9F9490"/>
					<stop  offset="1" style="stop-color:#C6BEBA"/>
				</linearGradient>
				<path fill-rule="evenodd" clip-rule="evenodd" fill="url(#SVGID_17_)" d="M329.6,232.8c-7.4-2.7-16.1-6.3-26-10.8
					c0-1.4,0.1-2.6,0.2-3.8c0-0.3,0.1-0.5,0.1-0.8c0-0.7,0.1-1.4,0.1-2c0-0.8,0-1.5,0.1-2.1c0-0.2,0.1-0.4,0.1-0.5
					c0.1-0.9,0.2-1.6,0.3-2.1c0.1-0.7,0.2-1,0.3-1c0.1,0.1,0.2,0.3,0.3,0.5c0-0.2-0.1-0.4-0.1-0.5l24.8,21.6l0.1,0.1
					c0,0.1,0,0.2-0.1,0.3c0,0.1,0,0.2,0,0.2c0,0.2-0.1,0.3-0.1,0.5c0,0.1,0,0.2,0,0.4C329.6,232.7,329.6,232.8,329.6,232.8z"/>
				
					<linearGradient id="SVGID_18_" gradientUnits="userSpaceOnUse" x1="-25.5635" y1="-151.4424" x2="-30.3936" y2="-145.316" gradientTransform="matrix(1.1465 0 0 1.1465 347.7999 393.1505)">
					<stop  offset="3.921569e-003" style="stop-color:#897B75"/>
					<stop  offset="0.3255" style="stop-color:#FFFFFF"/>
					<stop  offset="0.4196" style="stop-color:#D2C8C5"/>
					<stop  offset="0.7804" style="stop-color:#9F9490"/>
					<stop  offset="1" style="stop-color:#C6BEBA"/>
				</linearGradient>
				<path fill-rule="evenodd" clip-rule="evenodd" fill="url(#SVGID_18_)" d="M329.6,232.8c-7.4-2.7-16.1-6.3-26-10.8
					c0-1.4,0.1-2.6,0.2-3.8c0-0.3,0.1-0.5,0.1-0.8c0-0.7,0.1-1.4,0.1-2c0-0.8,0-1.5,0.1-2.1c0-0.2,0.1-0.4,0.1-0.5
					c0.1-0.9,0.2-1.6,0.3-2.1c0.1-0.7,0.2-1,0.3-1c0.1,0.1,0.2,0.3,0.3,0.5c0-0.2-0.1-0.4-0.1-0.5l24.8,21.6l0.1,0.1
					c0,0.1,0,0.2-0.1,0.3c0,0.1,0,0.2,0,0.2c0,0.2-0.1,0.3-0.1,0.5c0,0.1,0,0.2,0,0.4C329.6,232.7,329.6,232.8,329.6,232.8z"/>
				<path fill-rule="evenodd" clip-rule="evenodd" fill="#1F1A17" d="M304.9,209.7c0,0.1,0.1,0.3,0.1,0.5c0-0.2-0.1-0.4-0.3-0.5h0.1
					C304.8,209.7,304.8,209.7,304.9,209.7z M304.2,258c0.1,0.4,0.2,0.5,0.3,0.5c0,0.1-0.1,0.2-0.1,0.2h-0.1
					C304.3,258.6,304.2,258.4,304.2,258z"/>
				<path fill-rule="evenodd" clip-rule="evenodd" fill="#1F1A17" d="M304.9,209.7c0,0.1,0.1,0.3,0.1,0.5c0-0.2-0.1-0.4-0.3-0.5h0.1
					C304.8,209.7,304.8,209.7,304.9,209.7z M304.2,258c0.1,0.4,0.2,0.5,0.3,0.5c0,0.1-0.1,0.2-0.1,0.2h-0.1
					C304.3,258.6,304.2,258.4,304.2,258z"/>
				<path fill-rule="evenodd" clip-rule="evenodd" fill="#AF9F98" d="M329.7,236.8L329.7,236.8c-0.1-0.2-0.1-0.4-0.1-0.6
					c0-0.2-0.1-0.5-0.1-0.7c0-0.2,0-0.3,0-0.5c0-0.1,0-0.2,0-0.2v-0.1c0-0.1,0-0.2,0-0.3c0-0.1,0-0.1,0-0.2c0-0.3,0-0.5,0-0.7
					c0-0.1,0-0.2,0-0.3v-0.1c0-0.2,0-0.3,0.1-0.4c0,0,0-0.1,0-0.1c0-0.2,0-0.3,0-0.4c0-0.2,0-0.4,0.1-0.5c0-0.1,0-0.2,0-0.2
					c0-0.1,0.1-0.2,0.1-0.3l0.2,0.1c0,0.1,0,0.2,0.1,0.3c0,0.2,0,0.4,0,0.7v0.1c0,0.1,0,0.2,0.1,0.3c0,0,0,0.1,0,0.1
					c0,0.1,0,0.2,0,0.3c0,0.2,0,0.3,0,0.5c0,0.1,0,0.2,0,0.4c0,0,0,0.1,0,0.2c0,0.1,0,0.2-0.1,0.2v0.1c0,0,0,0.1,0,0.2
					c0,0.6,0,1.2-0.1,1.5c0,0.1-0.1,0.2-0.1,0.3L329.7,236.8z"/>
				<path fill-rule="evenodd" clip-rule="evenodd" fill="#AF9F98" d="M329.7,236.8L329.7,236.8c-0.1-0.2-0.1-0.4-0.1-0.6
					c0-0.2-0.1-0.5-0.1-0.7c0-0.2,0-0.3,0-0.5c0-0.1,0-0.2,0-0.2v-0.1c0-0.1,0-0.2,0-0.3c0-0.1,0-0.1,0-0.2c0-0.3,0-0.5,0-0.7
					c0-0.1,0-0.2,0-0.3v-0.1c0-0.2,0-0.3,0.1-0.4c0,0,0-0.1,0-0.1c0-0.2,0-0.3,0-0.4c0-0.2,0-0.4,0.1-0.5c0-0.1,0-0.2,0-0.2
					c0-0.1,0.1-0.2,0.1-0.3l0.2,0.1c0,0.1,0,0.2,0.1,0.3c0,0.2,0,0.4,0,0.7v0.1c0,0.1,0,0.2,0.1,0.3c0,0,0,0.1,0,0.1
					c0,0.1,0,0.2,0,0.3c0,0.2,0,0.3,0,0.5c0,0.1,0,0.2,0,0.4c0,0,0,0.1,0,0.2c0,0.1,0,0.2-0.1,0.2v0.1c0,0,0,0.1,0,0.2
					c0,0.6,0,1.2-0.1,1.5c0,0.1-0.1,0.2-0.1,0.3L329.7,236.8z"/>
				
					<linearGradient id="SVGID_19_" gradientUnits="userSpaceOnUse" x1="-28.4922" y1="-135.396" x2="-27.3403" y2="-142.8707" gradientTransform="matrix(1.1465 0 0 1.1465 347.7999 393.1505)">
					<stop  offset="0" style="stop-color:#8A7972"/>
					<stop  offset="1" style="stop-color:#C6BEBA"/>
				</linearGradient>
				<path fill-rule="evenodd" clip-rule="evenodd" fill="url(#SVGID_19_)" d="M329.6,235l-26.1,9.2c0-1.9-0.1-3.8-0.1-5.8
					c0-0.1,0-0.2,0-0.4c0-1.1,0-2.2,0-3.3c0-1.3,0-2.7,0.1-4.1c0-0.8,0-1.6,0-2.4c0-1.9,0-3.7,0.1-5.3c0-0.3,0-0.6,0.1-0.9
					c10,4.5,18.6,8.1,26,10.8c0,0.1-0.1,0.2-0.1,0.4v0.1c0,0.1,0,0.2,0,0.3c0,0.2,0,0.4,0,0.7c0,0,0,0.1,0,0.2c0,0.1,0,0.2,0,0.3
					v0.1C329.6,234.8,329.6,234.9,329.6,235z"/>
				
					<linearGradient id="SVGID_20_" gradientUnits="userSpaceOnUse" x1="-28.4922" y1="-135.396" x2="-27.3403" y2="-142.8707" gradientTransform="matrix(1.1465 0 0 1.1465 347.7999 393.1505)">
					<stop  offset="0" style="stop-color:#8A7972"/>
					<stop  offset="1" style="stop-color:#C6BEBA"/>
				</linearGradient>
				<path fill-rule="evenodd" clip-rule="evenodd" fill="url(#SVGID_20_)" d="M329.6,235l-26.1,9.2c0-1.9-0.1-3.8-0.1-5.8
					c0-0.1,0-0.2,0-0.4c0-1.1,0-2.2,0-3.3c0-1.3,0-2.7,0.1-4.1c0-0.8,0-1.6,0-2.4c0-1.9,0-3.7,0.1-5.3c0-0.3,0-0.6,0.1-0.9
					c10,4.5,18.6,8.1,26,10.8c0,0.1-0.1,0.2-0.1,0.4v0.1c0,0.1,0,0.2,0,0.3c0,0.2,0,0.4,0,0.7c0,0,0,0.1,0,0.2c0,0.1,0,0.2,0,0.3
					v0.1C329.6,234.8,329.6,234.9,329.6,235z"/>
				
					<linearGradient id="SVGID_21_" gradientUnits="userSpaceOnUse" x1="-28.731" y1="-132.5557" x2="-25.9917" y2="-125.286" gradientTransform="matrix(1.1465 0 0 1.1465 347.7999 393.1505)">
					<stop  offset="0" style="stop-color:#90847F"/>
					<stop  offset="1" style="stop-color:#4A413D"/>
				</linearGradient>
				<path fill-rule="evenodd" clip-rule="evenodd" fill="url(#SVGID_21_)" d="M304.5,258.4c-0.2,0.1-0.3-0.1-0.3-0.5l-0.1-0.1
					c-0.2-1-0.3-2.6-0.5-4.9c-0.1-1.7-0.2-3.7-0.2-6.1c0-0.5,0-0.9,0-1.3c0-0.5,0-0.9,0-1.3l26.1-9.2c0,0.2,0,0.3,0,0.5
					c0,0.3,0,0.5,0.1,0.7c0,0.3,0,0.5,0.1,0.6l0.1,0.1L304.5,258.4z"/>
				
					<linearGradient id="SVGID_22_" gradientUnits="userSpaceOnUse" x1="-28.731" y1="-132.5557" x2="-25.9917" y2="-125.286" gradientTransform="matrix(1.1465 0 0 1.1465 347.7999 393.1505)">
					<stop  offset="0" style="stop-color:#90847F"/>
					<stop  offset="1" style="stop-color:#4A413D"/>
				</linearGradient>
				<path fill-rule="evenodd" clip-rule="evenodd" fill="url(#SVGID_22_)" d="M304.5,258.4c-0.2,0.1-0.3-0.1-0.3-0.5l-0.1-0.1
					c-0.2-1-0.3-2.6-0.5-4.9c-0.1-1.7-0.2-3.7-0.2-6.1c0-0.5,0-0.9,0-1.3c0-0.5,0-0.9,0-1.3l26.1-9.2c0,0.2,0,0.3,0,0.5
					c0,0.3,0,0.5,0.1,0.7c0,0.3,0,0.5,0.1,0.6l0.1,0.1L304.5,258.4z"/>
			</g>
		</g>
		<g>
			
				<linearGradient id="SVGID_23_" gradientUnits="userSpaceOnUse" x1="-27.125" y1="-151.1123" x2="-27.125" y2="-127.8873" gradientTransform="matrix(1.1465 0 0 1.1465 347.7999 393.1505)">
				<stop  offset="0" style="stop-color:#000000;stop-opacity:0"/>
				<stop  offset="1" style="stop-color:#000000;stop-opacity:0.3451"/>
			</linearGradient>
			<path fill-rule="evenodd" clip-rule="evenodd" fill="url(#SVGID_23_)" d="M304.1,212.7c0.1-0.9,0.2-1.6,0.3-2.1
				c0.1-0.7,0.2-1,0.3-1h0.1c0,0,0.1,0,0.1,0l24.8,21.6l0.1,0.1l0.2,0.1c0,0.1,0,0.2,0.1,0.3c0,0.2,0,0.5,0,0.8c0,0.1,0,0.2,0.1,0.3
				c0,0.3,0,0.6,0,0.9c0,0.1,0,0.2,0,0.4c0,0,0,0.1,0,0.2c0,0.1,0,0.2-0.1,0.2v0.1c0,0.7,0,1.3-0.1,1.7c0,0.1-0.1,0.2-0.1,0.3
				l-0.1,0.1l-25.2,21.6c0,0.1-0.1,0.2-0.1,0.2h-0.1c-0.1,0-0.1-0.2-0.2-0.6l-0.1-0.1c-0.2-1-0.3-2.6-0.5-4.9
				c-0.1-1.7-0.2-3.7-0.2-6.1c0-0.5,0-0.9,0-1.3c0-2.3-0.1-4.7-0.1-7.1c0-0.1,0-0.2,0-0.4c0-1.1,0-2.2,0-3.3c0-2.1,0-4.3,0.1-6.5
				c0-1.9,0-3.7,0.1-5.3c0.1-2,0.2-3.9,0.3-5.5c0-0.7,0.1-1.4,0.1-2c0-0.8,0-1.5,0.1-2.1C304.1,213,304.1,212.9,304.1,212.7z"/>
			
				<linearGradient id="SVGID_24_" gradientUnits="userSpaceOnUse" x1="-27.125" y1="-151.1123" x2="-27.125" y2="-127.8873" gradientTransform="matrix(1.1465 0 0 1.1465 347.7999 393.1505)">
				<stop  offset="0" style="stop-color:#000000;stop-opacity:0"/>
				<stop  offset="1" style="stop-color:#000000;stop-opacity:0.3451"/>
			</linearGradient>
			<path fill-rule="evenodd" clip-rule="evenodd" fill="url(#SVGID_24_)" d="M304.1,212.7c0.1-0.9,0.2-1.6,0.3-2.1
				c0.1-0.7,0.2-1,0.3-1h0.1c0,0,0.1,0,0.1,0l24.8,21.6l0.1,0.1l0.2,0.1c0,0.1,0,0.2,0.1,0.3c0,0.2,0,0.5,0,0.8c0,0.1,0,0.2,0.1,0.3
				c0,0.3,0,0.6,0,0.9c0,0.1,0,0.2,0,0.4c0,0,0,0.1,0,0.2c0,0.1,0,0.2-0.1,0.2v0.1c0,0.7,0,1.3-0.1,1.7c0,0.1-0.1,0.2-0.1,0.3
				l-0.1,0.1l-25.2,21.6c0,0.1-0.1,0.2-0.1,0.2h-0.1c-0.1,0-0.1-0.2-0.2-0.6l-0.1-0.1c-0.2-1-0.3-2.6-0.5-4.9
				c-0.1-1.7-0.2-3.7-0.2-6.1c0-0.5,0-0.9,0-1.3c0-2.3-0.1-4.7-0.1-7.1c0-0.1,0-0.2,0-0.4c0-1.1,0-2.2,0-3.3c0-2.1,0-4.3,0.1-6.5
				c0-1.9,0-3.7,0.1-5.3c0.1-2,0.2-3.9,0.3-5.5c0-0.7,0.1-1.4,0.1-2c0-0.8,0-1.5,0.1-2.1C304.1,213,304.1,212.9,304.1,212.7z"/>
		</g>
		<g>
			
				<radialGradient id="SVGID_25_" cx="-81.9102" cy="-112.582" r="10.2718" gradientTransform="matrix(0.992 0.5748 -0.1632 0.3809 380.6383 316.5291)" gradientUnits="userSpaceOnUse">
				<stop  offset="0" style="stop-color:#FFFFFF"/>
				<stop  offset="0.1922" style="stop-color:#FFFFFF"/>
				<stop  offset="0.2824" style="stop-color:#FFFFFF;stop-opacity:0.7529"/>
				<stop  offset="0.4157" style="stop-color:#FFFFFF;stop-opacity:0.6"/>
				<stop  offset="0.5882" style="stop-color:#FEFEFE;stop-opacity:0.3647"/>
				<stop  offset="0.8157" style="stop-color:#FCFCFC;stop-opacity:0.1059"/>
				<stop  offset="1" style="stop-color:#F9F9F9;stop-opacity:0"/>
			</radialGradient>
			<path fill-rule="evenodd" clip-rule="evenodd" fill="url(#SVGID_25_)" d="M319.3,222.7c2.8,1.6,5,3.4,6.7,5.3
				c1.6,1.8,2.1,3.3,1.7,4.4c-0.4,1.1-1.8,1.4-4.1,1.1c-2.2-0.4-4.7-1.5-7.5-3.1c-2.7-1.6-4.9-3.3-6.6-5.1c-1.6-1.8-2.2-3.3-1.7-4.4
				c0.5-1.1,1.8-1.4,4.1-1.1C314.1,220.1,316.6,221.1,319.3,222.7z"/>
			
				<radialGradient id="SVGID_26_" cx="-81.9102" cy="-112.582" r="10.2718" gradientTransform="matrix(0.992 0.5748 -0.1632 0.3809 380.6383 316.5291)" gradientUnits="userSpaceOnUse">
				<stop  offset="0" style="stop-color:#FFFFFF"/>
				<stop  offset="0.1922" style="stop-color:#FFFFFF"/>
				<stop  offset="0.2824" style="stop-color:#FFFFFF;stop-opacity:0.7529"/>
				<stop  offset="0.4157" style="stop-color:#FFFFFF;stop-opacity:0.6"/>
				<stop  offset="0.5882" style="stop-color:#FEFEFE;stop-opacity:0.3647"/>
				<stop  offset="0.8157" style="stop-color:#FCFCFC;stop-opacity:0.1059"/>
				<stop  offset="1" style="stop-color:#F9F9F9;stop-opacity:0"/>
			</radialGradient>
			<path fill-rule="evenodd" clip-rule="evenodd" fill="url(#SVGID_26_)" d="M319.3,222.7c2.8,1.6,5,3.4,6.7,5.3
				c1.6,1.8,2.1,3.3,1.7,4.4c-0.4,1.1-1.8,1.4-4.1,1.1c-2.2-0.4-4.7-1.5-7.5-3.1c-2.7-1.6-4.9-3.3-6.6-5.1c-1.6-1.8-2.2-3.3-1.7-4.4
				c0.5-1.1,1.8-1.4,4.1-1.1C314.1,220.1,316.6,221.1,319.3,222.7z"/>
		</g>
		<g>
			
				<radialGradient id="SVGID_27_" cx="-94.1001" cy="-176.6001" r="51.575" gradientTransform="matrix(1.1465 -3.070801e-003 4.822831e-004 0.1801 347.8846 222.1863)" gradientUnits="userSpaceOnUse">
				<stop  offset="0" style="stop-color:#FFFFFF;stop-opacity:0.502"/>
				<stop  offset="0.1922" style="stop-color:#FFFFFF;stop-opacity:0.502"/>
				<stop  offset="0.2824" style="stop-color:#FFFFFF;stop-opacity:0.3686"/>
				<stop  offset="0.4157" style="stop-color:#FFFFFF;stop-opacity:0.302"/>
				<stop  offset="0.5882" style="stop-color:#FEFEFE;stop-opacity:0.1686"/>
				<stop  offset="0.8157" style="stop-color:#FCFCFC;stop-opacity:5.882353e-002"/>
				<stop  offset="1" style="stop-color:#F9F9F9;stop-opacity:0"/>
			</radialGradient>
			<path fill-rule="evenodd" clip-rule="evenodd" fill="url(#SVGID_27_)" d="M280.7,197.1c-11.4,1.7-25.1,2.5-41.2,2.5
				c-15.8,0-29.4-0.8-40.8-2.5c-11.1-1.8-16.7-3.9-16.7-6.4c0-2.5,5.6-4.7,16.7-6.5c11.4-1.8,25-2.7,40.7-2.7
				c16.1,0,29.8,0.9,41.3,2.7c11.1,1.8,16.7,3.9,16.7,6.4C297.4,193.1,291.8,195.3,280.7,197.1z"/>
			
				<radialGradient id="SVGID_28_" cx="-94.1001" cy="-176.6001" r="51.575" gradientTransform="matrix(1.1465 -3.070801e-003 4.822831e-004 0.1801 347.8846 222.1863)" gradientUnits="userSpaceOnUse">
				<stop  offset="0" style="stop-color:#FFFFFF;stop-opacity:0.502"/>
				<stop  offset="0.1922" style="stop-color:#FFFFFF;stop-opacity:0.502"/>
				<stop  offset="0.2824" style="stop-color:#FFFFFF;stop-opacity:0.3686"/>
				<stop  offset="0.4157" style="stop-color:#FFFFFF;stop-opacity:0.302"/>
				<stop  offset="0.5882" style="stop-color:#FEFEFE;stop-opacity:0.1686"/>
				<stop  offset="0.8157" style="stop-color:#FCFCFC;stop-opacity:5.882353e-002"/>
				<stop  offset="1" style="stop-color:#F9F9F9;stop-opacity:0"/>
			</radialGradient>
			<path fill-rule="evenodd" clip-rule="evenodd" fill="url(#SVGID_28_)" d="M280.7,197.1c-11.4,1.7-25.1,2.5-41.2,2.5
				c-15.8,0-29.4-0.8-40.8-2.5c-11.1-1.8-16.7-3.9-16.7-6.4c0-2.5,5.6-4.7,16.7-6.5c11.4-1.8,25-2.7,40.7-2.7
				c16.1,0,29.8,0.9,41.3,2.7c11.1,1.8,16.7,3.9,16.7,6.4C297.4,193.1,291.8,195.3,280.7,197.1z"/>
		</g>
		<g>
			
				<radialGradient id="SVGID_29_" cx="-95.2002" cy="-177.2002" r="36.8375" gradientTransform="matrix(1.1465 -5.200901e-003 4.041573e-004 8.909372e-002 347.8704 205.2801)" gradientUnits="userSpaceOnUse">
				<stop  offset="0" style="stop-color:#FFFFFF"/>
				<stop  offset="0.1922" style="stop-color:#FFFFFF"/>
				<stop  offset="0.2824" style="stop-color:#FFFFFF;stop-opacity:0.7529"/>
				<stop  offset="0.4157" style="stop-color:#FFFFFF;stop-opacity:0.6"/>
				<stop  offset="0.5882" style="stop-color:#FEFEFE;stop-opacity:0.3647"/>
				<stop  offset="0.8157" style="stop-color:#FCFCFC;stop-opacity:0.1059"/>
				<stop  offset="1" style="stop-color:#F9F9F9;stop-opacity:0"/>
			</radialGradient>
			<path fill-rule="evenodd" clip-rule="evenodd" fill="url(#SVGID_29_)" d="M267.8,192.3c-8.2,0.6-18,0.9-29.5,0.9
				c-11.3,0-21-0.3-29.1-0.9c-7.9-0.6-11.9-1.4-11.9-2.3c0-0.9,4-1.6,11.9-2.3c8.1-0.6,17.8-1,29.1-1c11.4,0,21.2,0.3,29.5,1
				c7.9,0.6,11.9,1.4,11.9,2.3C279.7,190.9,275.7,191.6,267.8,192.3z"/>
			
				<radialGradient id="SVGID_30_" cx="-95.2002" cy="-177.2002" r="36.8375" gradientTransform="matrix(1.1465 -5.200901e-003 4.041573e-004 8.909372e-002 347.8704 205.2801)" gradientUnits="userSpaceOnUse">
				<stop  offset="0" style="stop-color:#FFFFFF"/>
				<stop  offset="0.1922" style="stop-color:#FFFFFF"/>
				<stop  offset="0.2824" style="stop-color:#FFFFFF;stop-opacity:0.7529"/>
				<stop  offset="0.4157" style="stop-color:#FFFFFF;stop-opacity:0.6"/>
				<stop  offset="0.5882" style="stop-color:#FEFEFE;stop-opacity:0.3647"/>
				<stop  offset="0.8157" style="stop-color:#FCFCFC;stop-opacity:0.1059"/>
				<stop  offset="1" style="stop-color:#F9F9F9;stop-opacity:0"/>
			</radialGradient>
			<path fill-rule="evenodd" clip-rule="evenodd" fill="url(#SVGID_30_)" d="M267.8,192.3c-8.2,0.6-18,0.9-29.5,0.9
				c-11.3,0-21-0.3-29.1-0.9c-7.9-0.6-11.9-1.4-11.9-2.3c0-0.9,4-1.6,11.9-2.3c8.1-0.6,17.8-1,29.1-1c11.4,0,21.2,0.3,29.5,1
				c7.9,0.6,11.9,1.4,11.9,2.3C279.7,190.9,275.7,191.6,267.8,192.3z"/>
		</g>
	</g>
	<g>
		<g>
			<g>
				
					<linearGradient id="SVGID_31_" gradientUnits="userSpaceOnUse" x1="-158.0996" y1="139.001" x2="-154.9996" y2="139.001" gradientTransform="matrix(-1.1465 0 0 -1.1465 347.7997 393.1513)">
					<stop  offset="0" style="stop-color:#FFFFFF"/>
					<stop  offset="1" style="stop-color:#000000"/>
				</linearGradient>
				<path fill-rule="evenodd" clip-rule="evenodd" fill="url(#SVGID_31_)" d="M527.5,254c-0.3,0-0.6-1-0.9-2.9
					c-0.4-2.2-0.6-5.2-0.8-8.8c0-1.1-0.1-2.4-0.2-3.7c-0.1-3-0.2-5.9-0.2-8.6c0-2.3,0.1-4.5,0.2-6.6c0-0.6,0.1-1.3,0.1-1.9
					c0.1-1.4,0.2-2.7,0.3-4c0-0.2,0.1-0.5,0.1-0.7c0.2-1.2,0.3-2.1,0.5-2.7c0.1-0.3,0.2-0.5,0.3-0.6l0.1-0.1
					c0.2,0.2,0.4,0.4,0.5,0.8l0.2,1c0.1,0.3,0.2,0.7,0.2,1.2c0,0.1,0,0.2,0.1,0.3c0.2,1.3,0.3,2.8,0.5,4.6c0.1,2.1,0.2,4.6,0.4,7.5
					c0,0.3,0,0.7,0,1.1c0.1,2.5,0.1,4.8,0.1,6.9c0,2,0,3.8-0.1,5.3c0,0.7,0,1.3,0,1.9c-0.2,3.9-0.4,6.5-0.7,8
					c-0.1,0.5-0.2,0.9-0.2,1.1C527.8,253.8,527.7,254,527.5,254z"/>
				
					<linearGradient id="SVGID_32_" gradientUnits="userSpaceOnUse" x1="-158.0996" y1="139.001" x2="-154.9996" y2="139.001" gradientTransform="matrix(-1.1465 0 0 -1.1465 347.7997 393.1513)">
					<stop  offset="0" style="stop-color:#FFFFFF"/>
					<stop  offset="1" style="stop-color:#000000"/>
				</linearGradient>
				<path fill-rule="evenodd" clip-rule="evenodd" fill="url(#SVGID_32_)" d="M527.5,254c-0.3,0-0.6-1-0.9-2.9
					c-0.4-2.2-0.6-5.2-0.8-8.8c0-1.1-0.1-2.4-0.2-3.7c-0.1-3-0.2-5.9-0.2-8.6c0-2.3,0.1-4.5,0.2-6.6c0-0.6,0.1-1.3,0.1-1.9
					c0.1-1.4,0.2-2.7,0.3-4c0-0.2,0.1-0.5,0.1-0.7c0.2-1.2,0.3-2.1,0.5-2.7c0.1-0.3,0.2-0.5,0.3-0.6l0.1-0.1
					c0.2,0.2,0.4,0.4,0.5,0.8l0.2,1c0.1,0.3,0.2,0.7,0.2,1.2c0,0.1,0,0.2,0.1,0.3c0.2,1.3,0.3,2.8,0.5,4.6c0.1,2.1,0.2,4.6,0.4,7.5
					c0,0.3,0,0.7,0,1.1c0.1,2.5,0.1,4.8,0.1,6.9c0,2,0,3.8-0.1,5.3c0,0.7,0,1.3,0,1.9c-0.2,3.9-0.4,6.5-0.7,8
					c-0.1,0.5-0.2,0.9-0.2,1.1C527.8,253.8,527.7,254,527.5,254z"/>
				
					<linearGradient id="SVGID_33_" gradientUnits="userSpaceOnUse" x1="-156.4277" y1="-165.2061" x2="-121.9027" y2="-165.2061" gradientTransform="matrix(3.320825e-005 1.1465 -1.1465 -1.146515e-003 347.7984 393.1507)">
					<stop  offset="0" style="stop-color:#5B5A5A"/>
					<stop  offset="8.235294e-002" style="stop-color:#828282"/>
					<stop  offset="0.1529" style="stop-color:#FFFFFF"/>
					<stop  offset="0.1961" style="stop-color:#FFFFFF"/>
					<stop  offset="0.2588" style="stop-color:#D1D1D1"/>
					<stop  offset="0.4078" style="stop-color:#B6B6B6"/>
					<stop  offset="0.6667" style="stop-color:#544D4D"/>
					<stop  offset="1" style="stop-color:#000000"/>
				</linearGradient>
				<path fill-rule="evenodd" clip-rule="evenodd" fill="url(#SVGID_33_)" d="M527,213.5h18.5v0.1c0.2,0.1,0.3,0.4,0.5,0.7
					c0.1,0.5,0.2,1.3,0.4,2.2c0,0.1,0.1,0.2,0.1,0.3c0.2,1.3,0.4,2.8,0.5,4.6c0.2,2.1,0.3,4.6,0.3,7.5c0,0.3,0.1,0.7,0.1,1.1
					c0.1,2.4,0.1,4.7,0.1,6.9c0,1.8,0,3.6-0.1,5.3c0,0.6-0.1,1.3-0.1,1.9c-0.2,4.7-0.5,7.8-0.9,9.1c-0.2,0.4-0.3,0.6-0.4,0.6h-18.4
					c0.2,0,0.3-0.2,0.5-0.6c0.1-0.3,0.2-0.6,0.2-1.1c0.3-1.5,0.6-4.1,0.7-8c0-0.6,0-1.3,0-1.9c0.1-1.6,0.1-3.3,0.1-5.3
					c0-2.1,0-4.5-0.1-6.9c0-0.4,0-0.7,0-1.1c-0.2-2.8-0.3-5.3-0.4-7.5c-0.2-1.8-0.4-3.3-0.5-4.6c0-0.2-0.1-0.3-0.1-0.3
					c-0.1-0.5-0.2-0.9-0.2-1.2l-0.2-1C527.4,214,527.2,213.7,527,213.5z"/>
				
					<linearGradient id="SVGID_34_" gradientUnits="userSpaceOnUse" x1="-156.4277" y1="-165.2061" x2="-121.9027" y2="-165.2061" gradientTransform="matrix(3.320825e-005 1.1465 -1.1465 -1.146515e-003 347.7984 393.1507)">
					<stop  offset="0" style="stop-color:#5B5A5A"/>
					<stop  offset="8.235294e-002" style="stop-color:#828282"/>
					<stop  offset="0.1529" style="stop-color:#FFFFFF"/>
					<stop  offset="0.1961" style="stop-color:#FFFFFF"/>
					<stop  offset="0.2588" style="stop-color:#D1D1D1"/>
					<stop  offset="0.4078" style="stop-color:#B6B6B6"/>
					<stop  offset="0.6667" style="stop-color:#544D4D"/>
					<stop  offset="1" style="stop-color:#000000"/>
				</linearGradient>
				<path fill-rule="evenodd" clip-rule="evenodd" fill="url(#SVGID_34_)" d="M527,213.5h18.5v0.1c0.2,0.1,0.3,0.4,0.5,0.7
					c0.1,0.5,0.2,1.3,0.4,2.2c0,0.1,0.1,0.2,0.1,0.3c0.2,1.3,0.4,2.8,0.5,4.6c0.2,2.1,0.3,4.6,0.3,7.5c0,0.3,0.1,0.7,0.1,1.1
					c0.1,2.4,0.1,4.7,0.1,6.9c0,1.8,0,3.6-0.1,5.3c0,0.6-0.1,1.3-0.1,1.9c-0.2,4.7-0.5,7.8-0.9,9.1c-0.2,0.4-0.3,0.6-0.4,0.6h-18.4
					c0.2,0,0.3-0.2,0.5-0.6c0.1-0.3,0.2-0.6,0.2-1.1c0.3-1.5,0.6-4.1,0.7-8c0-0.6,0-1.3,0-1.9c0.1-1.6,0.1-3.3,0.1-5.3
					c0-2.1,0-4.5-0.1-6.9c0-0.4,0-0.7,0-1.1c-0.2-2.8-0.3-5.3-0.4-7.5c-0.2-1.8-0.4-3.3-0.5-4.6c0-0.2-0.1-0.3-0.1-0.3
					c-0.1-0.5-0.2-0.9-0.2-1.2l-0.2-1C527.4,214,527.2,213.7,527,213.5z"/>
			</g>
		</g>
		<g>
			<g>
				<path fill-rule="evenodd" clip-rule="evenodd" fill="#685B57" d="M506.5,199.8c0.4,0.3,0.7,0.8,0.9,1.4l0.3,1.5
					c0.2,0.5,0.3,1.2,0.4,2.1c0,0.1,0,0.3,0.1,0.5c0.3,2.2,0.6,4.8,0.8,7.9c0.3,3.6,0.6,7.7,0.7,12.4c0,0.6,0,1.2,0.1,1.9
					c0,1.8,0.1,3.5,0.1,5.1c0,2.3,0.1,4.5,0.1,6.6c0,3.3-0.1,6.2-0.2,8.9c0,1.1,0,2.2-0.1,3.3c-0.3,6.4-0.7,10.9-1.2,13.4
					c-0.1,0.8-0.3,1.4-0.5,1.8c-0.2,0.7-0.5,1.1-0.7,1.1c-0.5,0-1.1-1.7-1.5-4.9c-0.6-3.7-1.1-8.6-1.4-14.7c0-1.9-0.1-4-0.2-6.1
					c-0.1-3.2-0.2-6.3-0.3-9.3c0-1.7,0-3.4,0-5.1c0-3.9,0.1-7.7,0.3-11.2c0-1.1,0.1-2.1,0.1-3.1c0.1-2.4,0.3-4.6,0.5-6.6
					c0-0.4,0.1-0.8,0.1-1.2c0.3-2,0.6-3.5,0.9-4.5c0.2-0.5,0.3-0.8,0.5-1L506.5,199.8z"/>
				<path fill-rule="evenodd" clip-rule="evenodd" fill="#685B57" d="M506.5,199.8c0.4,0.3,0.7,0.8,0.9,1.4l0.3,1.5
					c0.2,0.5,0.3,1.2,0.4,2.1c0,0.1,0,0.3,0.1,0.5c0.3,2.2,0.6,4.8,0.8,7.9c0.3,3.6,0.6,7.7,0.7,12.4c0,0.6,0,1.2,0.1,1.9
					c0,1.8,0.1,3.5,0.1,5.1c0,2.3,0.1,4.5,0.1,6.6c0,3.3-0.1,6.2-0.2,8.9c0,1.1,0,2.2-0.1,3.3c-0.3,6.4-0.7,10.9-1.2,13.4
					c-0.1,0.8-0.3,1.4-0.5,1.8c-0.2,0.7-0.5,1.1-0.7,1.1c-0.5,0-1.1-1.7-1.5-4.9c-0.6-3.7-1.1-8.6-1.4-14.7c0-1.9-0.1-4-0.2-6.1
					c-0.1-3.2-0.2-6.3-0.3-9.3c0-1.7,0-3.4,0-5.1c0-3.9,0.1-7.7,0.3-11.2c0-1.1,0.1-2.1,0.1-3.1c0.1-2.4,0.3-4.6,0.5-6.6
					c0-0.4,0.1-0.8,0.1-1.2c0.3-2,0.6-3.5,0.9-4.5c0.2-0.5,0.3-0.8,0.5-1L506.5,199.8z"/>
				
					<linearGradient id="SVGID_35_" gradientUnits="userSpaceOnUse" x1="-170.5034" y1="-153.3062" x2="-142.8034" y2="-153.3062" gradientTransform="matrix(4.139043e-005 1.1465 -1.1465 -1.146515e-003 347.7991 393.1497)">
					<stop  offset="0" style="stop-color:#8DA0A4"/>
					<stop  offset="1" style="stop-color:#6C797B"/>
				</linearGradient>
				<path fill-rule="evenodd" clip-rule="evenodd" fill="url(#SVGID_35_)" d="M540.6,227.5h-30.7c0-0.6-0.1-1.3-0.1-1.9
					c-0.2-4.7-0.4-8.8-0.7-12.4c-0.2-3.1-0.5-5.7-0.8-7.9c0-0.2-0.1-0.4-0.1-0.5c-0.1-0.9-0.2-1.6-0.4-2.1l-0.3-1.5
					c-0.2-0.6-0.5-1.1-0.9-1.4h30.9c0.1,0,0.1,0.1,0.2,0.1c0.2,0.2,0.4,0.6,0.6,1.3c0.2,0.8,0.5,2,0.7,3.6c0,0.1,0.1,0.3,0.1,0.5
					c0.3,2.2,0.6,4.8,0.9,7.9c0.3,3.6,0.6,7.7,0.7,12.4C540.6,226.3,540.6,226.9,540.6,227.5z"/>
				
					<linearGradient id="SVGID_36_" gradientUnits="userSpaceOnUse" x1="-170.5034" y1="-153.3062" x2="-142.8034" y2="-153.3062" gradientTransform="matrix(4.139043e-005 1.1465 -1.1465 -1.146515e-003 347.7991 393.1497)">
					<stop  offset="0" style="stop-color:#8DA0A4"/>
					<stop  offset="1" style="stop-color:#6C797B"/>
				</linearGradient>
				<path fill-rule="evenodd" clip-rule="evenodd" fill="url(#SVGID_36_)" d="M540.6,227.5h-30.7c0-0.6-0.1-1.3-0.1-1.9
					c-0.2-4.7-0.4-8.8-0.7-12.4c-0.2-3.1-0.5-5.7-0.8-7.9c0-0.2-0.1-0.4-0.1-0.5c-0.1-0.9-0.2-1.6-0.4-2.1l-0.3-1.5
					c-0.2-0.6-0.5-1.1-0.9-1.4h30.9c0.1,0,0.1,0.1,0.2,0.1c0.2,0.2,0.4,0.6,0.6,1.3c0.2,0.8,0.5,2,0.7,3.6c0,0.1,0.1,0.3,0.1,0.5
					c0.3,2.2,0.6,4.8,0.9,7.9c0.3,3.6,0.6,7.7,0.7,12.4C540.6,226.3,540.6,226.9,540.6,227.5z"/>
				
					<linearGradient id="SVGID_37_" gradientUnits="userSpaceOnUse" x1="-144.6299" y1="-154.833" x2="-140.1799" y2="-154.833" gradientTransform="matrix(2.576438e-004 1.1465 -1.1465 -1.146515e-003 347.7988 393.1507)">
					<stop  offset="0" style="stop-color:#717F81"/>
					<stop  offset="0.1373" style="stop-color:#94A5A8"/>
					<stop  offset="0.2941" style="stop-color:#8DA0A4"/>
					<stop  offset="1" style="stop-color:#8DA0A4"/>
				</linearGradient>
				<path fill-rule="evenodd" clip-rule="evenodd" fill="url(#SVGID_37_)" d="M509.9,227.5h30.7c0.1,1.7,0.1,3.4,0.1,5.1H510
					C509.9,231,509.9,229.3,509.9,227.5z"/>
				
					<linearGradient id="SVGID_38_" gradientUnits="userSpaceOnUse" x1="-144.6299" y1="-154.833" x2="-140.1799" y2="-154.833" gradientTransform="matrix(2.576438e-004 1.1465 -1.1465 -1.146515e-003 347.7988 393.1507)">
					<stop  offset="0" style="stop-color:#717F81"/>
					<stop  offset="0.1373" style="stop-color:#94A5A8"/>
					<stop  offset="0.2941" style="stop-color:#8DA0A4"/>
					<stop  offset="1" style="stop-color:#8DA0A4"/>
				</linearGradient>
				<path fill-rule="evenodd" clip-rule="evenodd" fill="url(#SVGID_38_)" d="M509.9,227.5h30.7c0.1,1.7,0.1,3.4,0.1,5.1H510
					C509.9,231,509.9,229.3,509.9,227.5z"/>
				<path fill-rule="evenodd" clip-rule="evenodd" fill="#8DA0A4" d="M540.6,248.1h-30.8c0.1-2.6,0.2-5.6,0.2-8.9
					c0-2.1,0-4.3-0.1-6.6h30.7c0.1,2.2,0.1,4.4,0.1,6.6C540.8,242.2,540.7,245.2,540.6,248.1z"/>
				<path fill-rule="evenodd" clip-rule="evenodd" fill="#8DA0A4" d="M540.6,248.1h-30.8c0.1-2.6,0.2-5.6,0.2-8.9
					c0-2.1,0-4.3-0.1-6.6h30.7c0.1,2.2,0.1,4.4,0.1,6.6C540.8,242.2,540.7,245.2,540.6,248.1z"/>
				
					<linearGradient id="SVGID_39_" gradientUnits="userSpaceOnUse" x1="-124.6152" y1="-153.7427" x2="-117.5902" y2="-153.7427" gradientTransform="matrix(1.632050e-004 1.1465 -1.1465 -1.146515e-003 347.7994 393.1507)">
					<stop  offset="0" style="stop-color:#8DA0A4"/>
					<stop  offset="0.102" style="stop-color:#96A7AA"/>
					<stop  offset="0.2275" style="stop-color:#4E5D60"/>
					<stop  offset="1" style="stop-color:#354346"/>
				</linearGradient>
				<path fill-rule="evenodd" clip-rule="evenodd" fill="url(#SVGID_39_)" d="M509.9,248.1h30.8c0,1.1-0.1,2.2-0.1,3.3
					c-0.3,7.9-0.8,13-1.6,15.2c-0.2,0.7-0.5,1.1-0.7,1.1h-30.8c0.2,0,0.5-0.4,0.7-1.1c0.2-0.4,0.3-1,0.5-1.8c0.5-2.5,0.9-7,1.2-13.4
					C509.8,250.4,509.9,249.3,509.9,248.1z"/>
				
					<linearGradient id="SVGID_40_" gradientUnits="userSpaceOnUse" x1="-124.6152" y1="-153.7427" x2="-117.5902" y2="-153.7427" gradientTransform="matrix(1.632050e-004 1.1465 -1.1465 -1.146515e-003 347.7994 393.1507)">
					<stop  offset="0" style="stop-color:#8DA0A4"/>
					<stop  offset="0.102" style="stop-color:#96A7AA"/>
					<stop  offset="0.2275" style="stop-color:#4E5D60"/>
					<stop  offset="1" style="stop-color:#354346"/>
				</linearGradient>
				<path fill-rule="evenodd" clip-rule="evenodd" fill="url(#SVGID_40_)" d="M509.9,248.1h30.8c0,1.1-0.1,2.2-0.1,3.3
					c-0.3,7.9-0.8,13-1.6,15.2c-0.2,0.7-0.5,1.1-0.7,1.1h-30.8c0.2,0,0.5-0.4,0.7-1.1c0.2-0.4,0.3-1,0.5-1.8c0.5-2.5,0.9-7,1.2-13.4
					C509.8,250.4,509.9,249.3,509.9,248.1z"/>
			</g>
		</g>
		<g>
			<g>
				
					<linearGradient id="SVGID_41_" gradientUnits="userSpaceOnUse" x1="-191.1523" y1="-152.8521" x2="-87.9497" y2="-152.8521" gradientTransform="matrix(1.110964e-005 1.1465 -1.1465 -1.146515e-003 347.7999 393.1497)">
					<stop  offset="0" style="stop-color:#5B5A5A"/>
					<stop  offset="0.3922" style="stop-color:#B6B6B6"/>
					<stop  offset="0.6941" style="stop-color:#9C9A9A"/>
					<stop  offset="1" style="stop-color:#201E1D"/>
				</linearGradient>
				<path fill-rule="evenodd" clip-rule="evenodd" fill="url(#SVGID_41_)" d="M519.4,292.5c0.4,0,0.8-0.6,1.3-1.8
					c0.3-0.9,0.5-2,0.8-3.3c0.9-4.7,1.6-12.5,2-23.4c0.3-6.9,0.4-14,0.5-21.2c0-7.6-0.2-15.5-0.5-23.6c-0.5-15.8-1.5-27.9-2.8-36.2
					c-0.2-1.3-0.5-2.5-0.7-3.6c-0.2-1-0.4-1.9-0.6-2.6c-0.3-1.3-0.7-2-1.1-2.4c0-0.1-0.1-0.1-0.2-0.2h4.2c0.1,0,0.1,0.1,0.2,0.2
					c0.4,0.3,0.7,1.1,1.1,2.4c0.4,1.5,0.9,3.6,1.3,6.2c1.3,8.3,2.2,20.4,2.8,36.2c0.3,8.1,0.5,16,0.5,23.6c0,7.2-0.2,14.3-0.5,21.2
					c-0.5,13.9-1.5,22.8-2.8,26.7c-0.4,1.2-0.8,1.8-1.3,1.8H519.4z"/>
				
					<linearGradient id="SVGID_42_" gradientUnits="userSpaceOnUse" x1="-191.1523" y1="-152.8521" x2="-87.9497" y2="-152.8521" gradientTransform="matrix(1.110964e-005 1.1465 -1.1465 -1.146515e-003 347.7999 393.1497)">
					<stop  offset="0" style="stop-color:#5B5A5A"/>
					<stop  offset="0.3922" style="stop-color:#B6B6B6"/>
					<stop  offset="0.6941" style="stop-color:#9C9A9A"/>
					<stop  offset="1" style="stop-color:#201E1D"/>
				</linearGradient>
				<path fill-rule="evenodd" clip-rule="evenodd" fill="url(#SVGID_42_)" d="M519.4,292.5c0.4,0,0.8-0.6,1.3-1.8
					c0.3-0.9,0.5-2,0.8-3.3c0.9-4.7,1.6-12.5,2-23.4c0.3-6.9,0.4-14,0.5-21.2c0-7.6-0.2-15.5-0.5-23.6c-0.5-15.8-1.5-27.9-2.8-36.2
					c-0.2-1.3-0.5-2.5-0.7-3.6c-0.2-1-0.4-1.9-0.6-2.6c-0.3-1.3-0.7-2-1.1-2.4c0-0.1-0.1-0.1-0.2-0.2h4.2c0.1,0,0.1,0.1,0.2,0.2
					c0.4,0.3,0.7,1.1,1.1,2.4c0.4,1.5,0.9,3.6,1.3,6.2c1.3,8.3,2.2,20.4,2.8,36.2c0.3,8.1,0.5,16,0.5,23.6c0,7.2-0.2,14.3-0.5,21.2
					c-0.5,13.9-1.5,22.8-2.8,26.7c-0.4,1.2-0.8,1.8-1.3,1.8H519.4z"/>
				<path fill-rule="evenodd" clip-rule="evenodd" fill="#1F1A17" d="M519.4,292.5c-0.9,0-1.8-2.9-2.6-8.5
					c-1.3-8.4-2.3-20.5-2.8-36.3c-0.6-15.9-0.6-30.8-0.1-44.7c0.3-6.8,0.6-12.5,1.1-16.9c0.5-4.7,1-8,1.7-9.9
					c0.3-0.9,0.6-1.5,0.9-1.7c0.1-0.1,0.2-0.1,0.2-0.2c0.1,0,0.2,0,0.2,0c0.1,0,0.2,0.1,0.2,0.2c0.4,0.3,0.7,1.1,1.1,2.4
					c0.2,0.7,0.4,1.6,0.6,2.6c0.2,1.1,0.5,2.3,0.7,3.6c1.3,8.3,2.2,20.4,2.8,36.2c0.3,8.1,0.5,16,0.5,23.6c0,7.2-0.2,14.3-0.5,21.2
					c-0.4,10.9-1.1,18.6-2,23.4c-0.3,1.3-0.5,2.4-0.8,3.3C520.2,291.9,519.8,292.5,519.4,292.5z"/>
				<path fill-rule="evenodd" clip-rule="evenodd" fill="#1F1A17" d="M519.4,292.5c-0.9,0-1.8-2.9-2.6-8.5
					c-1.3-8.4-2.3-20.5-2.8-36.3c-0.6-15.9-0.6-30.8-0.1-44.7c0.3-6.8,0.6-12.5,1.1-16.9c0.5-4.7,1-8,1.7-9.9
					c0.3-0.9,0.6-1.5,0.9-1.7c0.1-0.1,0.2-0.1,0.2-0.2c0.1,0,0.2,0,0.2,0c0.1,0,0.2,0.1,0.2,0.2c0.4,0.3,0.7,1.1,1.1,2.4
					c0.2,0.7,0.4,1.6,0.6,2.6c0.2,1.1,0.5,2.3,0.7,3.6c1.3,8.3,2.2,20.4,2.8,36.2c0.3,8.1,0.5,16,0.5,23.6c0,7.2-0.2,14.3-0.5,21.2
					c-0.4,10.9-1.1,18.6-2,23.4c-0.3,1.3-0.5,2.4-0.8,3.3C520.2,291.9,519.8,292.5,519.4,292.5z"/>
			</g>
		</g>
		<g>
			
				<linearGradient id="SVGID_43_" gradientUnits="userSpaceOnUse" x1="-188.3735" y1="-98.6758" x2="-90.6235" y2="-98.6758" gradientTransform="matrix(1.172905e-005 1.1465 -1.1465 -1.146515e-003 347.7999 393.1507)">
				<stop  offset="0" style="stop-color:#292929"/>
				<stop  offset="0.1294" style="stop-color:#7E7878"/>
				<stop  offset="0.2588" style="stop-color:#565656"/>
				<stop  offset="0.5176" style="stop-color:#8C7E7E"/>
				<stop  offset="0.7961" style="stop-color:#484343"/>
				<stop  offset="1" style="stop-color:#272727"/>
			</linearGradient>
			<path fill-rule="evenodd" clip-rule="evenodd" fill="url(#SVGID_43_)" d="M516.3,177.7c0.3,0.3,0.6,0.9,1,2c0,0.1,0,0.2,0.1,0.2
				c0.4,1.4,0.8,3.4,1.2,5.8c0.1,0.7,0.2,1.5,0.3,2.3c0.3,2.5,0.7,5.3,1,8.3c0.5,5.7,0.9,12.3,1.2,19.9c0.1,1.2,0.1,2.4,0.2,3.7
				c0.3,7.7,0.4,15.1,0.4,22.3c0,2.1,0,4.1-0.1,6.1c-0.1,4.7-0.2,9.3-0.3,13.9c-0.5,13.1-1.4,21.5-2.6,25.2
				c-0.4,1.1-0.8,1.7-1.2,1.7H400.3V177.5H512c0.1,0,0.1,0,0.2,0h4C516.2,177.5,516.3,177.6,516.3,177.7z"/>
			
				<linearGradient id="SVGID_44_" gradientUnits="userSpaceOnUse" x1="-188.3735" y1="-98.6758" x2="-90.6235" y2="-98.6758" gradientTransform="matrix(1.172905e-005 1.1465 -1.1465 -1.146515e-003 347.7999 393.1507)">
				<stop  offset="0" style="stop-color:#292929"/>
				<stop  offset="0.1294" style="stop-color:#7E7878"/>
				<stop  offset="0.2588" style="stop-color:#565656"/>
				<stop  offset="0.5176" style="stop-color:#8C7E7E"/>
				<stop  offset="0.7961" style="stop-color:#484343"/>
				<stop  offset="1" style="stop-color:#272727"/>
			</linearGradient>
			<path fill-rule="evenodd" clip-rule="evenodd" fill="url(#SVGID_44_)" d="M516.3,177.7c0.3,0.3,0.6,0.9,1,2c0,0.1,0,0.2,0.1,0.2
				c0.4,1.4,0.8,3.4,1.2,5.8c0.1,0.7,0.2,1.5,0.3,2.3c0.3,2.5,0.7,5.3,1,8.3c0.5,5.7,0.9,12.3,1.2,19.9c0.1,1.2,0.1,2.4,0.2,3.7
				c0.3,7.7,0.4,15.1,0.4,22.3c0,2.1,0,4.1-0.1,6.1c-0.1,4.7-0.2,9.3-0.3,13.9c-0.5,13.1-1.4,21.5-2.6,25.2
				c-0.4,1.1-0.8,1.7-1.2,1.7H400.3V177.5H512c0.1,0,0.1,0,0.2,0h4C516.2,177.5,516.3,177.6,516.3,177.7z"/>
		</g>
		<g>
			<g>
				
					<linearGradient id="SVGID_45_" gradientUnits="userSpaceOnUse" x1="-191.0562" y1="-46.5518" x2="-87.8442" y2="-46.5518" gradientTransform="matrix(1.110964e-005 1.1465 -1.1465 -1.146515e-003 347.7999 393.1497)">
					<stop  offset="0" style="stop-color:#5B5A5A"/>
					<stop  offset="0.3922" style="stop-color:#B6B6B6"/>
					<stop  offset="0.6941" style="stop-color:#9C9A9A"/>
					<stop  offset="1" style="stop-color:#201E1D"/>
				</linearGradient>
				<path fill-rule="evenodd" clip-rule="evenodd" fill="url(#SVGID_45_)" d="M398.5,292.5c0.2-0.2,0.4-0.8,0.6-1.8
					c0.5-2.3,0.8-6.2,1.1-11.8c0.2-4.1,0.4-9,0.6-14.8c0.2-6.9,0.2-14,0.2-21.2c0-7.6-0.1-15.5-0.2-23.6c-0.3-12.8-0.7-23.1-1.3-31
					c-0.1-1.9-0.2-3.6-0.3-5.2c-0.3-2.7-0.5-4.8-0.7-6.2c-0.3-1.6-0.5-2.4-0.7-2.5h3.6c0.3-0.1,0.6,0.7,0.9,2.5
					c0.2,1.5,0.5,3.6,0.7,6.2c0.7,8.3,1.3,20.4,1.6,36.2c0.1,8.1,0.2,16,0.2,23.6c0,7.2-0.1,14.3-0.2,21.2
					c-0.3,13.9-0.9,22.8-1.7,26.7c-0.2,1.2-0.5,1.8-0.7,1.8H398.5z"/>
				
					<linearGradient id="SVGID_46_" gradientUnits="userSpaceOnUse" x1="-191.0562" y1="-46.5518" x2="-87.8442" y2="-46.5518" gradientTransform="matrix(1.110964e-005 1.1465 -1.1465 -1.146515e-003 347.7999 393.1497)">
					<stop  offset="0" style="stop-color:#5B5A5A"/>
					<stop  offset="0.3922" style="stop-color:#B6B6B6"/>
					<stop  offset="0.6941" style="stop-color:#9C9A9A"/>
					<stop  offset="1" style="stop-color:#201E1D"/>
				</linearGradient>
				<path fill-rule="evenodd" clip-rule="evenodd" fill="url(#SVGID_46_)" d="M398.5,292.5c0.2-0.2,0.4-0.8,0.6-1.8
					c0.5-2.3,0.8-6.2,1.1-11.8c0.2-4.1,0.4-9,0.6-14.8c0.2-6.9,0.2-14,0.2-21.2c0-7.6-0.1-15.5-0.2-23.6c-0.3-12.8-0.7-23.1-1.3-31
					c-0.1-1.9-0.2-3.6-0.3-5.2c-0.3-2.7-0.5-4.8-0.7-6.2c-0.3-1.6-0.5-2.4-0.7-2.5h3.6c0.3-0.1,0.6,0.7,0.9,2.5
					c0.2,1.5,0.5,3.6,0.7,6.2c0.7,8.3,1.3,20.4,1.6,36.2c0.1,8.1,0.2,16,0.2,23.6c0,7.2-0.1,14.3-0.2,21.2
					c-0.3,13.9-0.9,22.8-1.7,26.7c-0.2,1.2-0.5,1.8-0.7,1.8H398.5z"/>
				<path fill-rule="evenodd" clip-rule="evenodd" fill="#1F1A17" d="M397.7,174.2c0.2,0.1,0.5,1,0.7,2.5c0.2,1.5,0.5,3.6,0.7,6.2
					c0.2,1.6,0.3,3.3,0.3,5.2c0.6,7.9,1,18.2,1.3,31c0.2,8.1,0.2,16,0.2,23.6c0,7.2-0.1,14.3-0.2,21.2c-0.2,5.8-0.3,10.8-0.6,14.8
					c-0.3,5.6-0.6,9.5-1.1,11.8c-0.2,1.1-0.4,1.7-0.6,1.8h-0.1c-0.5,0-1-2.9-1.5-8.5c-0.7-8.4-1.2-20.5-1.5-36.3
					c-0.3-15.9-0.3-30.8,0-44.7c0.2-6.8,0.4-12.5,0.6-16.9c0.3-4.7,0.6-8,0.9-9.9c0.2-1.1,0.5-1.8,0.7-1.9
					C397.6,174.2,397.6,174.2,397.7,174.2z"/>
				<path fill-rule="evenodd" clip-rule="evenodd" fill="#1F1A17" d="M397.7,174.2c0.2,0.1,0.5,1,0.7,2.5c0.2,1.5,0.5,3.6,0.7,6.2
					c0.2,1.6,0.3,3.3,0.3,5.2c0.6,7.9,1,18.2,1.3,31c0.2,8.1,0.2,16,0.2,23.6c0,7.2-0.1,14.3-0.2,21.2c-0.2,5.8-0.3,10.8-0.6,14.8
					c-0.3,5.6-0.6,9.5-1.1,11.8c-0.2,1.1-0.4,1.7-0.6,1.8h-0.1c-0.5,0-1-2.9-1.5-8.5c-0.7-8.4-1.2-20.5-1.5-36.3
					c-0.3-15.9-0.3-30.8,0-44.7c0.2-6.8,0.4-12.5,0.6-16.9c0.3-4.7,0.6-8,0.9-9.9c0.2-1.1,0.5-1.8,0.7-1.9
					C397.6,174.2,397.6,174.2,397.7,174.2z"/>
			</g>
		</g>
		<g>
			<g>
				
					<linearGradient id="SVGID_47_" gradientUnits="userSpaceOnUse" x1="-100.0034" y1="-117.7637" x2="-92.202" y2="-117.7637" gradientTransform="matrix(0.7098 0.9003 -0.9003 0.7098 347.7994 393.1506)">
					<stop  offset="3.921569e-003" style="stop-color:#897B75"/>
					<stop  offset="0.3255" style="stop-color:#FFFFFF"/>
					<stop  offset="0.4196" style="stop-color:#D2C8C5"/>
					<stop  offset="0.7804" style="stop-color:#9F9490"/>
					<stop  offset="1" style="stop-color:#C6BEBA"/>
				</linearGradient>
				<path fill-rule="evenodd" clip-rule="evenodd" fill="url(#SVGID_47_)" d="M396.5,209.7c0,0.1-0.1,0.3-0.1,0.5
					c0-0.2,0.1-0.4,0.3-0.5c0.1,0,0.2,0.3,0.3,1c0.1,0.5,0.2,1.2,0.3,2.1c0,0.1,0,0.3,0.1,0.5c0.1,0.6,0.1,1.4,0.1,2.1
					c0,0.6,0.1,1.3,0.1,2c0,0.3,0,0.5,0.1,0.8c0.1,1.1,0.1,2.4,0.2,3.8c-10,4.5-18.7,8.1-26,10.8c0,0,0-0.1,0-0.1c0-0.2,0-0.3,0-0.4
					c0-0.2,0-0.4-0.1-0.5c0-0.1,0-0.2,0-0.2c0-0.1-0.1-0.2-0.1-0.3l0.1-0.1L396.5,209.7z"/>
				
					<linearGradient id="SVGID_48_" gradientUnits="userSpaceOnUse" x1="-100.0034" y1="-117.7637" x2="-92.202" y2="-117.7637" gradientTransform="matrix(0.7098 0.9003 -0.9003 0.7098 347.7994 393.1506)">
					<stop  offset="3.921569e-003" style="stop-color:#897B75"/>
					<stop  offset="0.3255" style="stop-color:#FFFFFF"/>
					<stop  offset="0.4196" style="stop-color:#D2C8C5"/>
					<stop  offset="0.7804" style="stop-color:#9F9490"/>
					<stop  offset="1" style="stop-color:#C6BEBA"/>
				</linearGradient>
				<path fill-rule="evenodd" clip-rule="evenodd" fill="url(#SVGID_48_)" d="M396.5,209.7c0,0.1-0.1,0.3-0.1,0.5
					c0-0.2,0.1-0.4,0.3-0.5c0.1,0,0.2,0.3,0.3,1c0.1,0.5,0.2,1.2,0.3,2.1c0,0.1,0,0.3,0.1,0.5c0.1,0.6,0.1,1.4,0.1,2.1
					c0,0.6,0.1,1.3,0.1,2c0,0.3,0,0.5,0.1,0.8c0.1,1.1,0.1,2.4,0.2,3.8c-10,4.5-18.7,8.1-26,10.8c0,0,0-0.1,0-0.1c0-0.2,0-0.3,0-0.4
					c0-0.2,0-0.4-0.1-0.5c0-0.1,0-0.2,0-0.2c0-0.1-0.1-0.2-0.1-0.3l0.1-0.1L396.5,209.7z"/>
				<path fill-rule="evenodd" clip-rule="evenodd" fill="#1F1A17" d="M396.6,209.7c-0.1,0.1-0.2,0.3-0.3,0.5c0-0.2,0.1-0.4,0.1-0.5
					C396.5,209.7,396.5,209.7,396.6,209.7L396.6,209.7z M396.8,258.4c0.2,0.1,0.3-0.1,0.3-0.5c0,0.4-0.1,0.6-0.2,0.6h-0.1
					C396.9,258.6,396.9,258.5,396.8,258.4z"/>
				<path fill-rule="evenodd" clip-rule="evenodd" fill="#1F1A17" d="M396.6,209.7c-0.1,0.1-0.2,0.3-0.3,0.5c0-0.2,0.1-0.4,0.1-0.5
					C396.5,209.7,396.5,209.7,396.6,209.7L396.6,209.7z M396.8,258.4c0.2,0.1,0.3-0.1,0.3-0.5c0,0.4-0.1,0.6-0.2,0.6h-0.1
					C396.9,258.6,396.9,258.5,396.8,258.4z"/>
				<path fill-rule="evenodd" clip-rule="evenodd" fill="#AF9F98" d="M371.7,232.8c0,0.1,0.1,0.2,0.1,0.4v0.1c0,0.1,0,0.2,0,0.3
					c0,0.2,0,0.4,0,0.7c0,0,0,0.1,0,0.2c0,0.1,0,0.2,0,0.3v0.1c0,0.1,0,0.2,0,0.2c0,0.2,0,0.3,0,0.5c0,0.3,0,0.5-0.1,0.7
					c0,0.3,0,0.5-0.1,0.6l-0.1,0.1l-0.1-0.1c0-0.1,0-0.2-0.1-0.3c-0.1-0.4-0.1-0.9-0.1-1.5c0-0.1,0-0.1,0-0.2v-0.1
					c0-0.1-0.1-0.2-0.1-0.2c0-0.1,0-0.2,0-0.2c0-0.2,0-0.3,0-0.4c0-0.2,0-0.4,0-0.5c0-0.1,0-0.2,0-0.3c0,0,0-0.1,0-0.1
					c0-0.1,0.1-0.2,0.1-0.3v-0.1c0-0.3,0-0.6,0-0.7c0-0.1,0.1-0.2,0.1-0.3l0.2-0.1c0,0.1,0,0.2,0.1,0.3c0,0.1,0,0.2,0,0.2
					c0,0.2,0.1,0.3,0.1,0.5c0,0.1,0,0.2,0,0.4C371.7,232.7,371.7,232.8,371.7,232.8z"/>
				<path fill-rule="evenodd" clip-rule="evenodd" fill="#AF9F98" d="M371.7,232.8c0,0.1,0.1,0.2,0.1,0.4v0.1c0,0.1,0,0.2,0,0.3
					c0,0.2,0,0.4,0,0.7c0,0,0,0.1,0,0.2c0,0.1,0,0.2,0,0.3v0.1c0,0.1,0,0.2,0,0.2c0,0.2,0,0.3,0,0.5c0,0.3,0,0.5-0.1,0.7
					c0,0.3,0,0.5-0.1,0.6l-0.1,0.1l-0.1-0.1c0-0.1,0-0.2-0.1-0.3c-0.1-0.4-0.1-0.9-0.1-1.5c0-0.1,0-0.1,0-0.2v-0.1
					c0-0.1-0.1-0.2-0.1-0.2c0-0.1,0-0.2,0-0.2c0-0.2,0-0.3,0-0.4c0-0.2,0-0.4,0-0.5c0-0.1,0-0.2,0-0.3c0,0,0-0.1,0-0.1
					c0-0.1,0.1-0.2,0.1-0.3v-0.1c0-0.3,0-0.6,0-0.7c0-0.1,0.1-0.2,0.1-0.3l0.2-0.1c0,0.1,0,0.2,0.1,0.3c0,0.1,0,0.2,0,0.2
					c0,0.2,0.1,0.3,0.1,0.5c0,0.1,0,0.2,0,0.4C371.7,232.7,371.7,232.8,371.7,232.8z"/>
				
					<linearGradient id="SVGID_49_" gradientUnits="userSpaceOnUse" x1="128.7153" y1="53.7236" x2="136.2783" y2="53.7236" gradientTransform="matrix(-0.1746 -1.1331 1.1331 -0.1746 347.7997 393.1504)">
					<stop  offset="0" style="stop-color:#8A7972"/>
					<stop  offset="1" style="stop-color:#C6BEBA"/>
				</linearGradient>
				<path fill-rule="evenodd" clip-rule="evenodd" fill="url(#SVGID_49_)" d="M397.9,244.2l-26.1-9.2c0-0.1,0-0.2,0-0.2v-0.1
					c0-0.1,0-0.2,0-0.3c0-0.1,0-0.1,0-0.2c0-0.3,0-0.5,0-0.7c0-0.1,0-0.2,0-0.3v-0.1c0-0.2,0-0.3-0.1-0.4c7.4-2.7,16.1-6.3,26-10.8
					c0,0.3,0.1,0.6,0.1,0.9c0.1,1.6,0.1,3.4,0.1,5.3c0,0.8,0,1.6,0,2.4c0,1.4,0.1,2.7,0.1,4.1c0,1.1,0,2.2,0,3.3c0,0.2,0,0.3,0,0.4
					C398,240.4,397.9,242.3,397.9,244.2z"/>
				
					<linearGradient id="SVGID_50_" gradientUnits="userSpaceOnUse" x1="128.7153" y1="53.7236" x2="136.2783" y2="53.7236" gradientTransform="matrix(-0.1746 -1.1331 1.1331 -0.1746 347.7997 393.1504)">
					<stop  offset="0" style="stop-color:#8A7972"/>
					<stop  offset="1" style="stop-color:#C6BEBA"/>
				</linearGradient>
				<path fill-rule="evenodd" clip-rule="evenodd" fill="url(#SVGID_50_)" d="M397.9,244.2l-26.1-9.2c0-0.1,0-0.2,0-0.2v-0.1
					c0-0.1,0-0.2,0-0.3c0-0.1,0-0.1,0-0.2c0-0.3,0-0.5,0-0.7c0-0.1,0-0.2,0-0.3v-0.1c0-0.2,0-0.3-0.1-0.4c7.4-2.7,16.1-6.3,26-10.8
					c0,0.3,0.1,0.6,0.1,0.9c0.1,1.6,0.1,3.4,0.1,5.3c0,0.8,0,1.6,0,2.4c0,1.4,0.1,2.7,0.1,4.1c0,1.1,0,2.2,0,3.3c0,0.2,0,0.3,0,0.4
					C398,240.4,397.9,242.3,397.9,244.2z"/>
				
					<linearGradient id="SVGID_51_" gradientUnits="userSpaceOnUse" x1="-135.9351" y1="15.1768" x2="-128.1665" y2="15.1768" gradientTransform="matrix(-0.4043 1.0729 -1.0729 -0.4043 347.8005 393.1497)">
					<stop  offset="0" style="stop-color:#90847F"/>
					<stop  offset="1" style="stop-color:#4A413D"/>
				</linearGradient>
				<path fill-rule="evenodd" clip-rule="evenodd" fill="url(#SVGID_51_)" d="M396.8,258.4l-25.2-21.6l0.1-0.1
					c0-0.1,0.1-0.3,0.1-0.6c0-0.2,0.1-0.5,0.1-0.7c0-0.2,0-0.3,0-0.5l26.1,9.2c0,0.4,0,0.9,0,1.3c0,0.4,0,0.8,0,1.3
					c0,2.4-0.1,4.5-0.2,6.1c-0.1,2.3-0.3,4-0.5,4.9l-0.1,0.1C397.1,258.4,397,258.5,396.8,258.4z"/>
				
					<linearGradient id="SVGID_52_" gradientUnits="userSpaceOnUse" x1="-135.9351" y1="15.1768" x2="-128.1665" y2="15.1768" gradientTransform="matrix(-0.4043 1.0729 -1.0729 -0.4043 347.8005 393.1497)">
					<stop  offset="0" style="stop-color:#90847F"/>
					<stop  offset="1" style="stop-color:#4A413D"/>
				</linearGradient>
				<path fill-rule="evenodd" clip-rule="evenodd" fill="url(#SVGID_52_)" d="M396.8,258.4l-25.2-21.6l0.1-0.1
					c0-0.1,0.1-0.3,0.1-0.6c0-0.2,0.1-0.5,0.1-0.7c0-0.2,0-0.3,0-0.5l26.1,9.2c0,0.4,0,0.9,0,1.3c0,0.4,0,0.8,0,1.3
					c0,2.4-0.1,4.5-0.2,6.1c-0.1,2.3-0.3,4-0.5,4.9l-0.1,0.1C397.1,258.4,397,258.5,396.8,258.4z"/>
			</g>
		</g>
		<g>
			
				<linearGradient id="SVGID_53_" gradientUnits="userSpaceOnUse" x1="-151.146" y1="-32.1313" x2="-127.921" y2="-32.1313" gradientTransform="matrix(4.936555e-005 1.1465 -1.1465 -1.146515e-003 347.8001 393.1507)">
				<stop  offset="0" style="stop-color:#000000;stop-opacity:0"/>
				<stop  offset="1" style="stop-color:#000000;stop-opacity:0.3451"/>
			</linearGradient>
			<path fill-rule="evenodd" clip-rule="evenodd" fill="url(#SVGID_53_)" d="M397.2,212.7c0,0.1,0,0.3,0.1,0.5
				c0.1,0.6,0.1,1.4,0.1,2.1c0,0.6,0.1,1.3,0.1,2c0.1,1.6,0.2,3.5,0.3,5.5c0.1,1.6,0.1,3.4,0.1,5.3c0,2.2,0.1,4.4,0.1,6.5
				c0,1.1,0,2.2,0,3.3c0,0.2,0,0.3,0,0.4c0,2.4,0,4.8-0.1,7.1c0,0.4,0,0.8,0,1.3c0,2.4-0.1,4.5-0.2,6.1c-0.1,2.3-0.3,4-0.5,4.9
				l-0.1,0.1c0,0.4-0.1,0.6-0.2,0.6h-0.1c0,0-0.1-0.1-0.1-0.2l-25.2-21.6l-0.1-0.1c0-0.1,0-0.2-0.1-0.3c-0.1-0.4-0.1-1-0.1-1.7v-0.1
				c0-0.1-0.1-0.2-0.1-0.2c0-0.1,0-0.2,0-0.2c0-0.2,0-0.3,0-0.4c0-0.3,0-0.6,0-0.9c0-0.1,0.1-0.2,0.1-0.3c0-0.3,0-0.6,0-0.8
				c0-0.1,0.1-0.2,0.1-0.3l0.2-0.1l0.1-0.1l24.8-21.6c0,0,0.1,0,0.1,0h0.1c0.1,0,0.2,0.3,0.3,1C397,211.2,397.1,211.9,397.2,212.7z"
				/>
			
				<linearGradient id="SVGID_54_" gradientUnits="userSpaceOnUse" x1="-151.146" y1="-32.1313" x2="-127.921" y2="-32.1313" gradientTransform="matrix(4.936555e-005 1.1465 -1.1465 -1.146515e-003 347.8001 393.1507)">
				<stop  offset="0" style="stop-color:#000000;stop-opacity:0"/>
				<stop  offset="1" style="stop-color:#000000;stop-opacity:0.3451"/>
			</linearGradient>
			<path fill-rule="evenodd" clip-rule="evenodd" fill="url(#SVGID_54_)" d="M397.2,212.7c0,0.1,0,0.3,0.1,0.5
				c0.1,0.6,0.1,1.4,0.1,2.1c0,0.6,0.1,1.3,0.1,2c0.1,1.6,0.2,3.5,0.3,5.5c0.1,1.6,0.1,3.4,0.1,5.3c0,2.2,0.1,4.4,0.1,6.5
				c0,1.1,0,2.2,0,3.3c0,0.2,0,0.3,0,0.4c0,2.4,0,4.8-0.1,7.1c0,0.4,0,0.8,0,1.3c0,2.4-0.1,4.5-0.2,6.1c-0.1,2.3-0.3,4-0.5,4.9
				l-0.1,0.1c0,0.4-0.1,0.6-0.2,0.6h-0.1c0,0-0.1-0.1-0.1-0.2l-25.2-21.6l-0.1-0.1c0-0.1,0-0.2-0.1-0.3c-0.1-0.4-0.1-1-0.1-1.7v-0.1
				c0-0.1-0.1-0.2-0.1-0.2c0-0.1,0-0.2,0-0.2c0-0.2,0-0.3,0-0.4c0-0.3,0-0.6,0-0.9c0-0.1,0.1-0.2,0.1-0.3c0-0.3,0-0.6,0-0.8
				c0-0.1,0.1-0.2,0.1-0.3l0.2-0.1l0.1-0.1l24.8-21.6c0,0,0.1,0,0.1,0h0.1c0.1,0,0.2,0.3,0.3,1C397,211.2,397.1,211.9,397.2,212.7z"
				/>
		</g>
		<g>
			
				<radialGradient id="SVGID_55_" cx="-86.5391" cy="110.0752" r="10.2718" gradientTransform="matrix(-0.992 0.5748 0.1632 0.3809 279.7542 234.3799)" gradientUnits="userSpaceOnUse">
				<stop  offset="0" style="stop-color:#FFFFFF"/>
				<stop  offset="0.1922" style="stop-color:#FFFFFF"/>
				<stop  offset="0.2824" style="stop-color:#FFFFFF;stop-opacity:0.7529"/>
				<stop  offset="0.4157" style="stop-color:#FFFFFF;stop-opacity:0.6"/>
				<stop  offset="0.5882" style="stop-color:#FEFEFE;stop-opacity:0.3647"/>
				<stop  offset="0.8157" style="stop-color:#FCFCFC;stop-opacity:0.1059"/>
				<stop  offset="1" style="stop-color:#F9F9F9;stop-opacity:0"/>
			</radialGradient>
			<path fill-rule="evenodd" clip-rule="evenodd" fill="url(#SVGID_55_)" d="M382,222.7c2.7-1.6,5.2-2.5,7.5-2.9
				c2.3-0.3,3.6,0,4.1,1.1c0.5,1.1-0.1,2.5-1.7,4.4c-1.7,1.8-3.9,3.5-6.7,5.1c-2.8,1.6-5.2,2.7-7.5,3.1c-2.3,0.3-3.6,0-4.1-1.1
				c-0.5-1.1,0.1-2.5,1.7-4.4C377.1,226,379.3,224.3,382,222.7z"/>
			
				<radialGradient id="SVGID_56_" cx="-86.5391" cy="110.0752" r="10.2718" gradientTransform="matrix(-0.992 0.5748 0.1632 0.3809 279.7542 234.3799)" gradientUnits="userSpaceOnUse">
				<stop  offset="0" style="stop-color:#FFFFFF"/>
				<stop  offset="0.1922" style="stop-color:#FFFFFF"/>
				<stop  offset="0.2824" style="stop-color:#FFFFFF;stop-opacity:0.7529"/>
				<stop  offset="0.4157" style="stop-color:#FFFFFF;stop-opacity:0.6"/>
				<stop  offset="0.5882" style="stop-color:#FEFEFE;stop-opacity:0.3647"/>
				<stop  offset="0.8157" style="stop-color:#FCFCFC;stop-opacity:0.1059"/>
				<stop  offset="1" style="stop-color:#F9F9F9;stop-opacity:0"/>
			</radialGradient>
			<path fill-rule="evenodd" clip-rule="evenodd" fill="url(#SVGID_56_)" d="M382,222.7c2.7-1.6,5.2-2.5,7.5-2.9
				c2.3-0.3,3.6,0,4.1,1.1c0.5,1.1-0.1,2.5-1.7,4.4c-1.7,1.8-3.9,3.5-6.7,5.1c-2.8,1.6-5.2,2.7-7.5,3.1c-2.3,0.3-3.6,0-4.1-1.1
				c-0.5-1.1,0.1-2.5,1.7-4.4C377.1,226,379.3,224.3,382,222.7z"/>
		</g>
		<g>
			
				<radialGradient id="SVGID_57_" cx="-98.6265" cy="176.8643" r="51.575" gradientTransform="matrix(-1.1465 -3.070761e-003 -4.822767e-004 0.1801 348.4271 158.526)" gradientUnits="userSpaceOnUse">
				<stop  offset="0" style="stop-color:#FFFFFF;stop-opacity:0.502"/>
				<stop  offset="0.1922" style="stop-color:#FFFFFF;stop-opacity:0.502"/>
				<stop  offset="0.2824" style="stop-color:#FFFFFF;stop-opacity:0.3686"/>
				<stop  offset="0.4157" style="stop-color:#FFFFFF;stop-opacity:0.302"/>
				<stop  offset="0.5882" style="stop-color:#FEFEFE;stop-opacity:0.1686"/>
				<stop  offset="0.8157" style="stop-color:#FCFCFC;stop-opacity:5.882353e-002"/>
				<stop  offset="1" style="stop-color:#F9F9F9;stop-opacity:0"/>
			</radialGradient>
			<path fill-rule="evenodd" clip-rule="evenodd" fill="url(#SVGID_57_)" d="M519.3,190.7c0,2.5-5.6,4.6-16.7,6.4
				c-11.4,1.7-25,2.5-40.8,2.5c-16.1,0-29.8-0.8-41.2-2.5c-11.1-1.8-16.7-4-16.7-6.5c0-2.5,5.6-4.7,16.7-6.4
				c11.5-1.8,25.2-2.7,41.3-2.7c15.7,0,29.3,0.9,40.7,2.7C513.8,186,519.3,188.2,519.3,190.7z"/>
			
				<radialGradient id="SVGID_58_" cx="-98.6265" cy="176.8643" r="51.575" gradientTransform="matrix(-1.1465 -3.070761e-003 -4.822767e-004 0.1801 348.4271 158.526)" gradientUnits="userSpaceOnUse">
				<stop  offset="0" style="stop-color:#FFFFFF;stop-opacity:0.502"/>
				<stop  offset="0.1922" style="stop-color:#FFFFFF;stop-opacity:0.502"/>
				<stop  offset="0.2824" style="stop-color:#FFFFFF;stop-opacity:0.3686"/>
				<stop  offset="0.4157" style="stop-color:#FFFFFF;stop-opacity:0.302"/>
				<stop  offset="0.5882" style="stop-color:#FEFEFE;stop-opacity:0.1686"/>
				<stop  offset="0.8157" style="stop-color:#FCFCFC;stop-opacity:5.882353e-002"/>
				<stop  offset="1" style="stop-color:#F9F9F9;stop-opacity:0"/>
			</radialGradient>
			<path fill-rule="evenodd" clip-rule="evenodd" fill="url(#SVGID_58_)" d="M519.3,190.7c0,2.5-5.6,4.6-16.7,6.4
				c-11.4,1.7-25,2.5-40.8,2.5c-16.1,0-29.8-0.8-41.2-2.5c-11.1-1.8-16.7-4-16.7-6.5c0-2.5,5.6-4.7,16.7-6.4
				c11.5-1.8,25.2-2.7,41.3-2.7c15.7,0,29.3,0.9,40.7,2.7C513.8,186,519.3,188.2,519.3,190.7z"/>
		</g>
		<g>
			
				<radialGradient id="SVGID_59_" cx="-99.395" cy="177.6528" r="36.8375" gradientTransform="matrix(-1.1465 -5.200993e-003 -4.041644e-004 8.909373e-002 348.7953 173.6438)" gradientUnits="userSpaceOnUse">
				<stop  offset="0" style="stop-color:#FFFFFF"/>
				<stop  offset="0.1922" style="stop-color:#FFFFFF"/>
				<stop  offset="0.2824" style="stop-color:#FFFFFF;stop-opacity:0.7529"/>
				<stop  offset="0.4157" style="stop-color:#FFFFFF;stop-opacity:0.6"/>
				<stop  offset="0.5882" style="stop-color:#FEFEFE;stop-opacity:0.3647"/>
				<stop  offset="0.8157" style="stop-color:#FCFCFC;stop-opacity:0.1059"/>
				<stop  offset="1" style="stop-color:#F9F9F9;stop-opacity:0"/>
			</radialGradient>
			<path fill-rule="evenodd" clip-rule="evenodd" fill="url(#SVGID_59_)" d="M492.1,187.7c7.9,0.6,11.9,1.4,11.9,2.3
				c0,0.9-4,1.6-11.9,2.3c-8.1,0.6-17.8,0.9-29.1,0.9c-11.4,0-21.2-0.3-29.5-0.9c-7.9-0.6-11.9-1.4-11.9-2.3c0-0.9,4-1.6,11.9-2.3
				c8.2-0.6,18-1,29.5-1C474.2,186.7,483.9,187,492.1,187.7z"/>
			
				<radialGradient id="SVGID_60_" cx="-99.395" cy="177.6528" r="36.8375" gradientTransform="matrix(-1.1465 -5.200993e-003 -4.041644e-004 8.909373e-002 348.7953 173.6438)" gradientUnits="userSpaceOnUse">
				<stop  offset="0" style="stop-color:#FFFFFF"/>
				<stop  offset="0.1922" style="stop-color:#FFFFFF"/>
				<stop  offset="0.2824" style="stop-color:#FFFFFF;stop-opacity:0.7529"/>
				<stop  offset="0.4157" style="stop-color:#FFFFFF;stop-opacity:0.6"/>
				<stop  offset="0.5882" style="stop-color:#FEFEFE;stop-opacity:0.3647"/>
				<stop  offset="0.8157" style="stop-color:#FCFCFC;stop-opacity:0.1059"/>
				<stop  offset="1" style="stop-color:#F9F9F9;stop-opacity:0"/>
			</radialGradient>
			<path fill-rule="evenodd" clip-rule="evenodd" fill="url(#SVGID_60_)" d="M492.1,187.7c7.9,0.6,11.9,1.4,11.9,2.3
				c0,0.9-4,1.6-11.9,2.3c-8.1,0.6-17.8,0.9-29.1,0.9c-11.4,0-21.2-0.3-29.5-0.9c-7.9-0.6-11.9-1.4-11.9-2.3c0-0.9,4-1.6,11.9-2.3
				c8.2-0.6,18-1,29.5-1C474.2,186.7,483.9,187,492.1,187.7z"/>
		</g>
	</g>
</g>
</svg>
