<?xml version="1.0" encoding="utf-8"?>
<!-- Generator: Adobe Illustrator 16.0.0, SVG Export Plug-In . SVG Version: 6.00 Build 0)  -->
<!DOCTYPE svg PUBLIC "-//W3C//DTD SVG 1.1//EN" "http://www.w3.org/Graphics/SVG/1.1/DTD/svg11.dtd">
<svg version="1.1" xmlns="http://www.w3.org/2000/svg" xmlns:xlink="http://www.w3.org/1999/xlink" x="0px" y="0px" width="700px"
	 height="700px" viewBox="0 0 700 700" enable-background="new 0 0 700 700" xml:space="preserve">
<g id="Layer_1">
</g>
<g id="Layer_2">
	<g>
		<g>
			<path fill-rule="evenodd" clip-rule="evenodd" fill="#FFFFCC" fill-opacity="0.651" d="M361.5,280.8v-8c0-4.1,1.5-7.7,4.4-10.6
				c3-2.9,6.5-4.4,10.6-4.4H526c4.1,0,7.7,1.5,10.6,4.4c3,2.9,4.5,6.5,4.5,10.6v8c0,4.1-1.5,7.7-4.5,10.6c-2.9,2.9-6.5,4.4-10.6,4.4
				h-92.8l-45.2,38l22.8-38h-34.3c-4.1,0-7.6-1.5-10.6-4.4C363,288.5,361.5,284.9,361.5,280.8z"/>
			
				<path fill-rule="evenodd" clip-rule="evenodd" fill="none" stroke="#FFFFFF" stroke-linecap="round" stroke-linejoin="round" stroke-miterlimit="3" d="
				M361.5,280.8c0,4.1,1.5,7.7,4.4,10.6c3,2.9,6.5,4.4,10.6,4.4h34.3l-22.8,38l45.2-38H526c4.1,0,7.7-1.5,10.6-4.4
				c3-2.9,4.5-6.5,4.5-10.6v-8c0-4.1-1.5-7.7-4.5-10.6c-2.9-2.9-6.5-4.4-10.6-4.4H376.5c-4.1,0-7.6,1.5-10.6,4.4
				c-2.9,2.9-4.4,6.5-4.4,10.6V280.8z"/>
		</g>
	</g>
</g>
</svg>
