<?xml version="1.0" encoding="utf-8"?>
<!-- Generator: Adobe Illustrator 16.0.0, SVG Export Plug-In . SVG Version: 6.00 Build 0)  -->
<!DOCTYPE svg PUBLIC "-//W3C//DTD SVG 1.1//EN" "http://www.w3.org/Graphics/SVG/1.1/DTD/svg11.dtd">
<svg version="1.1" id="Layer_1" xmlns="http://www.w3.org/2000/svg" xmlns:xlink="http://www.w3.org/1999/xlink" x="0px" y="0px"
	 width="700px" height="700px" viewBox="0 0 700 700" enable-background="new 0 0 700 700" xml:space="preserve">
<g>
	<g>
		<path fill-rule="evenodd" clip-rule="evenodd" fill-opacity="0.149" d="M589.1,572.6l0.2,2.9c0,0.2,0,0.4-0.1,0.6l-5,20.3
			c0,0.2-0.1,0.3-0.2,0.6c-1.9,3.1-1.8,5.7,0.3,7.6c2.9,2.3,8.5,3.8,16.7,4.5c38.6,1.4,59.9-3.7,63.8-15.2c0.1-0.5,0.4-0.8,0.9-1
			c0.4-0.3,0.9-0.3,1.3-0.2c0.4,0.2,0.7,0.5,1,0.9c0.2,0.5,0.2,0.9,0.1,1.4c-3.9,13.3-26.3,19.1-67.3,17.7h-0.1
			c-9.2-0.8-15.4-2.6-18.6-5.3c-3.9-3.1-4.3-7.1-1.3-12.2l4.9-19.8l-0.2-2.9H589.1z M611.8,572.6h3.5l0.5,1.9c0.1,0.3,0.1,0.7,0,1
			c-0.1,0.3-0.3,0.6-0.6,0.8c-8.5,7.5-13,13.4-13.4,17.7c0,3.6,3.6,6.1,10.7,7.4c17,1.2,29.8-0.2,38.4-4.3c8-3.9,12-10.3,12-19.1
			c0-0.5,0.2-0.9,0.5-1.3c0.3-0.3,0.7-0.5,1.2-0.5c0.5,0,0.9,0.2,1.2,0.5c0.3,0.4,0.5,0.8,0.5,1.3c0,10.4-4.7,17.9-14,22.4
			c-8.9,4.4-22.3,5.9-40.1,4.6c0,0-0.1,0-0.2,0c-9.7-1.8-14.3-5.5-13.8-11.4c0.2-4.9,4.8-11.4,13.9-19.5L611.8,572.6z M579.2,617.8
			c-0.1,0-0.2-0.1-0.3-0.1c-16.3-5.4-33.4-6.1-51.4-2.4c-0.1,0-0.1,0-0.2,0c-15.3,1.3-25.5,0.3-30.6-3.1c-3.1-1.9-4.6-4.6-4.6-7.9
			c-0.1-3,1.2-6.6,3.8-10.8c0.3-0.5,1.9-4.4,4.9-11.9c3-7.5,4.4-10,4.2-7.6c-0.2,2.3-0.5,4.7-1,7.1c-0.5,2.3-2.1,6.1-4.6,11.5
			c-2.6,5.4-3.9,9.2-3.9,11.6c0.1,2,1.1,3.6,3,4.8c4.8,2.9,14.3,3.7,28.4,2.5c18.5-3.8,36.1-3,52.8,2.5c47.9,5.8,77.8,4.1,89.5-5
			c0.4-0.3,0.8-0.4,1.3-0.3c0.5,0,0.8,0.3,1.1,0.7c0.3,0.4,0.4,0.9,0.3,1.3c-0.1,0.5-0.3,0.9-0.7,1.3
			C659.2,621.8,628.5,623.7,579.2,617.8z M348.7,319.4c0.3,0.4,0.4,0.8,0.4,1.4c-0.8,15.2-2.8,30.3-6.1,45.3c0,0.2-0.1,0.5-0.3,0.7
			c-5.6,7.3-8.7,13.7-9.2,19c-0.4,4.9,1.5,9,5.7,12.2c9.4,6.9,29.3,9.9,59.6,9c0.1,0,0.2,0,0.2,0c22.7,2.6,44.9,3,66.4,1.4
			c0,0,0.1,0,0.1,0c10.4-0.2,19.3,0.9,26.9,3.3c40.4,7.7,78.9,11.6,115.7,11.8c0.1,0,0.2,0,0.3,0.1c26.8,4.5,42.1,24.1,45.8,58.7
			c0,0.1,0,0.2,0,0.2c-1.2,37.3,2.8,66,12.1,86.2c0.7,1.5,1.4,2.9,2,4.4c8.1,18.8,11.2,33.8,9.3,45.1c-0.9,6.8-15.6,10.9-44.2,12.2
			c-27.4,1.1-68-0.1-121.9-3.6c-24.3,0-40.6-2.6-48.9-7.6c-4.7-2.9-7.1-6.5-7.2-10.8c-0.3-4.1,1.7-8.8,5.8-14.1
			c0.1-0.2,0.3-0.3,0.5-0.4c8-5.2,13.1-12,15.3-20.6c0-0.2,0.1-0.4,0.2-0.6h3.5c-0.1,0.5-0.2,1.1-0.3,1.6
			c-2.4,9.4-7.9,16.9-16.6,22.5c-3.3,4.4-4.9,8.2-4.9,11.4c0.2,3.1,2,5.6,5.5,7.7c8,4.8,23.8,7.2,47.3,7.3c0,0,0.1,0,0.1,0
			c53.7,3.5,94.2,4.7,121.5,3.5c26.2-1.1,39.8-4.2,40.9-9.1c1.7-10.7-1.4-25.1-9.1-43c-0.6-1.4-1.3-2.8-1.9-4.2v-0.1
			c-9.5-20.5-13.7-49.7-12.4-87.6v-0.1c-3.5-32.5-17.7-51-42.8-55.4c-37-0.1-75.8-4.1-116.4-11.9c-0.1,0-0.1-0.1-0.2-0.1
			c-7.3-2.3-15.9-3.3-25.9-3.2h-0.1c-21.7,1.6-44,1.1-66.9-1.5c-31.3,1-51.8-2.3-61.5-9.7c-5.4-4-7.8-9.2-7.1-15.5
			c0.5-5.8,3.7-12.7,9.7-20.6c3.2-14.6,5.1-29.4,5.9-44.3c0-0.5,0.2-0.9,0.6-1.3c0.3-0.3,0.8-0.5,1.3-0.5
			C348,318.9,348.4,319.1,348.7,319.4z"/>
	</g>
	<g>
		<g>
			
				<linearGradient id="SVGID_1_" gradientUnits="userSpaceOnUse" x1="-69.0928" y1="-43.4233" x2="-64.6021" y2="-43.4233" gradientTransform="matrix(0.7978 0.8234 -1.1795 0.4303 347.8005 393.1506)">
				<stop  offset="0" style="stop-color:#E7E3E3"/>
				<stop  offset="1" style="stop-color:#5B5B5B"/>
			</linearGradient>
			<path fill-rule="evenodd" clip-rule="evenodd" fill="url(#SVGID_1_)" d="M342.9,316.3h1.1h0.1c0,0,0,0.1,0,0.2c0,1.5,1,2.8,3,3.8
				c0.2,0.1,0.5,0.3,0.7,0.5v0.8c-0.6-0.2-1.1-0.5-1.7-0.7c-2-1.1-3-2.3-3.2-3.7c-0.1-0.1-0.1-0.2-0.1-0.3v-0.2
				C342.9,316.5,342.9,316.4,342.9,316.3z"/>
			
				<linearGradient id="SVGID_2_" gradientUnits="userSpaceOnUse" x1="-3.1875" y1="-66.1255" x2="8.750010e-002" y2="-66.1255" gradientTransform="matrix(1.1465 0 0 1.1465 347.7999 393.1505)">
				<stop  offset="0" style="stop-color:#2E2B2B"/>
				<stop  offset="0.4784" style="stop-color:#807878"/>
				<stop  offset="1" style="stop-color:#4F4A4A"/>
			</linearGradient>
			<path fill-rule="evenodd" clip-rule="evenodd" fill="url(#SVGID_2_)" d="M347.9,320.7c-0.3-0.2-0.5-0.3-0.7-0.5c-2-1-3-2.3-3-3.8
				c0-0.1,0-0.1,0-0.2c0-0.9,0.5-1.7,1.3-2.4c0.5,0.8,1.3,1.5,2.5,2.1V320.7z"/>
			
				<linearGradient id="SVGID_3_" gradientUnits="userSpaceOnUse" x1="48.0361" y1="-65.1211" x2="52.0369" y2="-65.1211" gradientTransform="matrix(1.0818 -0.3797 0.858 0.9139 347.8 393.1505)">
				<stop  offset="0" style="stop-color:#E7E3E3"/>
				<stop  offset="1" style="stop-color:#BEBEBE"/>
			</linearGradient>
			<path fill-rule="evenodd" clip-rule="evenodd" fill="url(#SVGID_3_)" d="M344,316.3h-1.1h-0.1v-0.1c0-0.2,0-0.4,0.1-0.6l2.4-1.8
				C344.5,314.7,344.1,315.5,344,316.3z"/>
		</g>
	</g>
	<g>
		<g>
			
				<linearGradient id="SVGID_4_" gradientUnits="userSpaceOnUse" x1="73.2681" y1="-28.2041" x2="75.822" y2="-28.2041" gradientTransform="matrix(0.4489 -1.055 1.1615 0.1987 347.7999 393.1508)">
				<stop  offset="0" style="stop-color:#CCCCCC"/>
				<stop  offset="0.4078" style="stop-color:#FFFFFF"/>
				<stop  offset="0.7333" style="stop-color:#FFFFFF"/>
				<stop  offset="1" style="stop-color:#9B9B9B"/>
			</linearGradient>
			<polygon fill-rule="evenodd" clip-rule="evenodd" fill="url(#SVGID_4_)" points="349.2,310.3 347.9,310.3 347.9,308.4 
				347.9,307.5 349.1,307.5 			"/>
			
				<linearGradient id="SVGID_5_" gradientUnits="userSpaceOnUse" x1="-4.2627" y1="-70.4883" x2="6.230450e-002" y2="-70.4883" gradientTransform="matrix(1.1465 0 0 1.1465 347.7999 393.1505)">
				<stop  offset="0" style="stop-color:#2E2B2B"/>
				<stop  offset="0.1686" style="stop-color:#9C9B9B"/>
				<stop  offset="0.2863" style="stop-color:#E0DCDC"/>
				<stop  offset="0.5333" style="stop-color:#ABA9A9"/>
				<stop  offset="0.6824" style="stop-color:#FFFFFF"/>
				<stop  offset="0.7176" style="stop-color:#FFFFFF"/>
				<stop  offset="0.7961" style="stop-color:#C1BFBF"/>
				<stop  offset="1" style="stop-color:#4F4A4A"/>
			</linearGradient>
			<path fill-rule="evenodd" clip-rule="evenodd" fill="url(#SVGID_5_)" d="M347.9,311.5c-0.6,0.3-1.2,0.5-1.8,0.8
				c-0.4,0.2-0.7,0.5-1.1,0.7c-1.1,0.8-1.8,1.7-1.9,2.7c-0.1,0.2-0.1,0.4-0.1,0.5v-3c0.1-1.5,1.1-2.8,3.2-4c0.6-0.3,1.2-0.5,1.8-0.8
				v1.8V311.5z"/>
			
				<linearGradient id="SVGID_6_" gradientUnits="userSpaceOnUse" x1="0.625" y1="-72.3252" x2="0.625" y2="-59.9761" gradientTransform="matrix(1.1465 0 0 1.1465 347.7999 393.1505)">
				<stop  offset="0" style="stop-color:#CCCCCC"/>
				<stop  offset="1" style="stop-color:#404040"/>
			</linearGradient>
			<polygon fill-rule="evenodd" clip-rule="evenodd" fill="url(#SVGID_6_)" points="347.9,310.3 349.2,310.3 349.1,324.4 
				347.9,324.4 347.9,312.4 347.9,311.5 			"/>
			
				<linearGradient id="SVGID_7_" gradientUnits="userSpaceOnUse" x1="48.1157" y1="-66.1392" x2="52.1165" y2="-66.1392" gradientTransform="matrix(1.0818 -0.3797 0.858 0.9139 347.8 393.1505)">
				<stop  offset="0" style="stop-color:#E7E3E3"/>
				<stop  offset="1" style="stop-color:#BEBEBE"/>
			</linearGradient>
			<path fill-rule="evenodd" clip-rule="evenodd" fill="url(#SVGID_7_)" d="M343,315.7c0.2-1,0.8-1.9,1.9-2.7
				c0.3-0.2,0.7-0.5,1.1-0.7c0.6-0.3,1.2-0.5,1.8-0.8v0.9c-0.3,0.1-0.6,0.2-0.9,0.4c-0.5,0.3-1,0.6-1.3,0.9L343,315.7z"/>
		</g>
	</g>
	<g>
		<path fill-rule="evenodd" clip-rule="evenodd" fill="#930000" d="M600.1,596c2.9,3.2,10.8,4.5,23.6,3.7
			c25.6-1.5,38.1-9.4,37.7-23.8c0-0.3,0.1-0.6,0.3-0.8c0.2-0.3,0.4-0.5,0.7-0.5s0.6,0.1,0.9,0.4c0.2,0.2,0.3,0.4,0.3,0.7
			c0.8,16-12.5,24.8-39.9,26.4c-13.8,0.8-22.2-0.7-25.3-4.6c-3.7-4-1.6-10.2,6.2-18.7c1.8-2,3.4-3.8,4.9-5.6h3
			c-1.8,2.2-3.9,4.6-6.2,7.3C599.8,587.8,597.7,592.9,600.1,596z"/>
	</g>
	<g>
		<path fill-rule="evenodd" clip-rule="evenodd" fill="#930000" d="M592.2,571.8c-0.1,1.2-0.6,3.5-1.4,6.8s-2,6.6-3.4,9.9
			c-1.5,3.3-2.7,5.8-3.7,7.3s-1.3,3.2-0.8,4.8c0.7,1.6,2.4,3,5.3,4.1c6.5,2.3,18.2,3.2,35.1,2.6c16.7-0.5,28.7-3.1,35.9-7.7
			c6.8-4.4,9-10.8,6.7-19c-0.1-0.3,0-0.6,0.1-0.9c0.2-0.3,0.4-0.5,0.7-0.6c0.3-0.1,0.6-0.1,0.9,0.1c0.3,0.2,0.4,0.4,0.5,0.7
			c2.6,9.4,0.1,16.7-7.7,21.7c-7.4,4.8-19.7,7.5-37,8.1c-17.3,0.6-29.2-0.4-35.9-2.8c-3.7-1.4-6-3.2-6.7-5.4c-0.9-2.3-0.3-4.9,1.9-8
			c0,0,0-0.1,0.1-0.1c0.4-0.7,0.8-1.4,1.2-2c2.9-6.7,4.8-12.1,5.7-16.1c0.3-1.8,0.5-3.3,0.5-4.6c0-0.6,0-1.2-0.1-1.8h2.4
			C592.4,569.6,592.4,570.6,592.2,571.8z"/>
	</g>
	<g>
		<path fill-rule="evenodd" clip-rule="evenodd" fill="#23C8AA" d="M668,617.9c2.9-3.4,3.2-8.4,1-15.1c-5-15.3-6.2-24.5-3.5-27.6
			c0.2-0.3,0.4-0.5,0.7-0.5s0.6,0.1,0.9,0.3c0.2,0.2,0.4,0.5,0.4,0.8c0,0.3,0,0.6-0.2,0.9c-2,2.9-0.7,11.3,3.9,25.3
			c2.6,7.8,2.1,13.7-1.5,17.7c-3.4,3.9-9.9,5.8-19.3,5.8c-50.5,0.3-93.4,0-128.8-1c-29.7,0.2-49.1-2.6-58.2-8.5
			c-5-3.2-7.3-7.2-6.6-12c0.5-4.7,3.6-10.1,9.4-16.2c5.4-5.8,9.7-10.9,13-15.3h2.9c-3.4,4.9-8.2,10.5-14.3,17
			c-5.3,5.6-8.2,10.5-8.7,14.7c-0.4,3.9,1.4,7.1,5.6,9.7c9,5.7,28,8.4,57,8.1h0.1c35.3,1,78.2,1.4,128.7,1
			C658.9,623,664.8,621.3,668,617.9z"/>
	</g>
	<g>
		<g>
			
				<linearGradient id="SVGID_8_" gradientUnits="userSpaceOnUse" x1="278.7173" y1="-155.8438" x2="310.7189" y2="-155.8438" gradientTransform="matrix(0.5535 1.004 -0.9849 0.5882 347.7993 393.151)">
				<stop  offset="0" style="stop-color:#106858"/>
				<stop  offset="1" style="stop-color:#23C8AA"/>
				<stop  offset="1" style="stop-color:#000000"/>
			</linearGradient>
			<path fill-rule="evenodd" clip-rule="evenodd" fill="url(#SVGID_8_)" d="M659.9,615.2l-0.6-2.4c7.8-1.7,12.3-5.1,13.8-10.1
				c1.5-6.3-1.6-15.1-9.2-26.4c-0.2-0.3-0.2-0.6-0.2-0.9c0-0.4,0.2-0.6,0.5-0.8c0.2-0.2,0.5-0.2,0.9-0.2c0.3,0,0.6,0.2,0.7,0.5
				c8.1,12.1,11.3,21.6,9.5,28.5C673.9,609.2,668.8,613.2,659.9,615.2z"/>
			<path fill-rule="evenodd" clip-rule="evenodd" fill="#23C8AA" d="M655.1,615.9H655c-38.1,3.1-63.5,2.4-76.2-2.1
				c-13.4-4.6-32.9-5.6-58.5-2.9c-13.5,1.5-22.1-0.3-25.7-5.3c-3.9-5-2.8-13.1,3.4-24.4c1.7-3.1,3.1-6,4.3-8.6h2.5
				c-1.3,3-2.9,6.2-4.8,9.8c-5.5,10.1-6.7,17.3-3.6,21.7c3.4,4.2,11.3,5.7,23.7,4.4c26.1-2.8,46-1.7,59.6,3c12.6,4.4,37.7,5,75.3,2
				h0.1c0.3,0,0.1,0.2-0.5,0.8c-0.6,0.6-0.6,0.9,0.3,0.9c0.8,0,1.1,0.1,1,0.3C655.5,615.8,655.3,615.9,655.1,615.9z"/>
			
				<linearGradient id="SVGID_9_" gradientUnits="userSpaceOnUse" x1="267.7998" y1="192.9248" x2="270.9998" y2="192.9248" gradientTransform="matrix(1.1465 0 0 1.1465 347.7999 393.1505)">
				<stop  offset="7.843138e-003" style="stop-color:#23C8AA"/>
				<stop  offset="1" style="stop-color:#1FB79B"/>
				<stop  offset="1" style="stop-color:#000000"/>
			</linearGradient>
			<path fill-rule="evenodd" clip-rule="evenodd" fill="url(#SVGID_9_)" d="M659.9,615.2c-1.6,0.3-3.2,0.6-4.9,0.7
				c0.3,0,0.5-0.2,0.6-0.3c0.1-0.2-0.2-0.3-1-0.3c-0.8,0-0.9-0.3-0.3-0.9c0.6-0.6,0.8-0.8,0.5-0.8c1.6-0.2,3.1-0.4,4.5-0.7
				L659.9,615.2z"/>
		</g>
	</g>
	<g>
		<g>
			<g>
				<path fill-rule="evenodd" clip-rule="evenodd" fill="#9F2420" d="M656.7,557.9c-1.2-1.7-1.7-3.7-1.6-6c1.4,2,2.9,3.7,4.5,5.2
					c3.2,2.8,4.6,5.7,4.4,8.6l-1.5-1.7c-1-1.1-2.1-2.2-3.4-3.4C657.9,559.4,657.1,558.5,656.7,557.9z"/>
				<path fill-rule="evenodd" clip-rule="evenodd" fill="#CE2F2B" d="M664,565.6c1.3,1.9,1.9,3.9,1.8,6.1c-0.1-0.1-0.1-0.1-0.2-0.2
					l-0.1-0.1c-1.7-1.9-2.9-3.2-3.6-4c-0.7-0.8-1.5-1.6-2.3-2.5c-0.8-0.9-1.3-1.5-1.5-1.9c-1-1.5-1.4-3.2-1.4-5.2
					c0.3,0.6,1.1,1.5,2.4,2.6c1.3,1.1,2.4,2.3,3.4,3.4L664,565.6z"/>
				<path fill-rule="evenodd" clip-rule="evenodd" fill="#15806D" d="M665.8,571.7c1,1.6,1.4,3.2,1.3,4.9c-0.4-0.2-1.6-1.3-3.7-3.3
					c-2.1-2.1-3.3-3.4-3.7-4.1c-1.2-1.8-1.8-3.8-1.7-6.1c0.2,0.3,0.7,1,1.5,1.9c0.8,0.9,1.6,1.7,2.3,2.5c0.7,0.8,1.9,2.1,3.6,4
					l0.1,0.1C665.7,571.6,665.8,571.6,665.8,571.7z"/>
				<path fill-rule="evenodd" clip-rule="evenodd" fill="#1DA58D" d="M667.2,576.6c1.3,1.9,1.9,4.5,1.8,7.9
					c-5.2-6.1-7.9-9.9-8.3-11.4c-0.5-1.2-0.8-2.5-0.8-3.8c0.3,0.6,1.6,2,3.7,4.1C665.6,575.3,666.8,576.5,667.2,576.6z"/>
			</g>
		</g>
		<g>
			<g>
				<path fill-rule="evenodd" clip-rule="evenodd" fill="#CE2F2B" d="M647.8,483.7c0-0.1-0.1-0.1-0.1-0.2l-0.1-0.1
					c-1.1-1.4-1.9-2.5-2.5-3.2c-0.6-0.8-1-1.5-1.3-1.9c-0.3-0.5-1-1.5-1.8-3.1c-0.6-1.4-0.7-3.1-0.2-5.1c0.2,0.6,0.9,1.6,2.1,3
					s2,2.4,2.3,2.9l1.1,1.7C648.2,479.6,648.4,481.6,647.8,483.7z"/>
				<path fill-rule="evenodd" clip-rule="evenodd" fill="#9F2420" d="M647.2,477.8l-1.1-1.7c-0.3-0.5-1.1-1.5-2.3-2.9
					s-1.9-2.5-2.1-3c-0.8-1.6-0.9-3.6-0.3-6c1,2,2.1,3.7,3.4,5C647.3,472,648.1,474.9,647.2,477.8z"/>
				<path fill-rule="evenodd" clip-rule="evenodd" fill="#1DA58D" d="M642.2,481.3c0.4,0.7,1.1,1.7,2,2.9c0.9,1.2,2.2,2.7,3.7,4.4
					c0.9,1.9,1.1,3.8,0.5,5.8c-1.1-1.7-2.6-3.6-4.2-5.7C642.5,486.6,641.8,484.1,642.2,481.3z"/>
				<path fill-rule="evenodd" clip-rule="evenodd" fill="#15806D" d="M648,488.6c-1.6-1.7-2.8-3.2-3.7-4.4c-1-1.2-1.6-2.1-2-2.9
					c-0.8-1.8-0.9-3.8-0.3-6.1c0.9,1.6,1.5,2.6,1.8,3.1c0.3,0.5,0.7,1.1,1.3,1.9c0.6,0.7,1.4,1.8,2.5,3.2l0.1,0.1
					c0,0,0.1,0.1,0.1,0.2C648.4,485.3,648.5,487,648,488.6z"/>
			</g>
		</g>
		<g>
			<g>
				<path fill-rule="evenodd" clip-rule="evenodd" fill="#9F2420" d="M643.9,456l-1.3-1.5c-1-1.2-1.9-2.2-2.8-3
					c-0.9-0.8-1.6-1.5-2.3-2c-2.1-1.5-3.4-3.1-3.8-5c3.1,1.2,5.3,2.4,6.8,3.6C643.3,450.3,644.5,453,643.9,456z"/>
				<path fill-rule="evenodd" clip-rule="evenodd" fill="#CE2F2B" d="M645.1,461.9l-0.1-0.2c-0.2-0.2-0.9-0.9-2.3-2.2
					c-1.5-1.3-2.7-2.7-3.6-4.1c-0.3-0.3-0.6-0.6-0.8-1c-0.8-1.3-1-2.9-0.8-4.9c0.6,0.5,1.4,1.2,2.3,2c0.9,0.8,1.8,1.9,2.8,3l1.3,1.5
					c1.1,1.6,1.5,3.5,1.3,5.7V461.9z"/>
				<path fill-rule="evenodd" clip-rule="evenodd" fill="#15806D" d="M645.9,466.6l-1.3-1.3c-0.9-0.9-1.9-1.9-3-2.9
					c-1.2-0.9-1.9-1.6-2.2-2.1c-1-1.6-1.4-3.6-1-6c0.2,0.3,0.5,0.7,0.8,1c1,1.4,2.2,2.8,3.6,4.1c1.4,1.3,2.2,2,2.3,2.2l0.1,0.2
					c0,0,0.1,0.1,0.2,0.2C646,463.6,646.2,465.1,645.9,466.6z"/>
				<path fill-rule="evenodd" clip-rule="evenodd" fill="#1DA58D" d="M639.4,460.4c0.3,0.5,1.1,1.1,2.2,2.1c1.1,1,2.1,1.9,3,2.9
					l1.3,1.3c1.1,1.7,1.5,3.7,1.1,5.9c-1.8-2.2-3.6-4.1-5.4-5.7C639.9,465.3,639.2,463.1,639.4,460.4z"/>
			</g>
		</g>
		<g>
			<g>
				<path fill-rule="evenodd" clip-rule="evenodd" fill="#15806D" d="M627.8,435.3c0,0,0.7,0.4,2,1.3c1.3,0.9,3.7,2.3,7.5,4.4
					l0.1,0.1c0.1,0,0.2,0.1,0.2,0.1c1.3,1.3,2.1,2.8,2.4,4.5l-1.9-1.1c-1.2-0.7-2.6-1.4-4.1-2.1c-1.6-0.7-2.6-1.2-3-1.7
					c-1.6-1.2-2.6-3-3.1-5.3C627.9,435.4,627.8,435.4,627.8,435.3L627.8,435.3z"/>
				<path fill-rule="evenodd" clip-rule="evenodd" fill="#CE2F2B" d="M634.3,435.9c1.8,1.4,2.8,3.2,3.3,5.2c-0.1,0-0.2-0.1-0.2-0.1
					l-0.1-0.1c-3.7-2-6.2-3.5-7.5-4.4c-1.3-0.9-2-1.3-2-1.3c-1.3-1-3.1-2.7-5.6-5c2.5,1.4,4.5,2.3,6,2.8c1.5,0.4,2.9,0.9,4.1,1.6
					L634.3,435.9z"/>
				<path fill-rule="evenodd" clip-rule="evenodd" fill="#9F2420" d="M622.3,430.3c1.9-1.8,3.8-2.2,5.7-1.4c3.8,1.7,5.9,4.1,6.4,7
					l-1.9-1.3c-1.2-0.7-2.5-1.2-4.1-1.6C626.8,432.6,624.8,431.7,622.3,430.3z"/>
				<path fill-rule="evenodd" clip-rule="evenodd" fill="#1DA58D" d="M640,445.6c1.8,1.4,2.9,3.3,3.2,5.6c-2-1.9-4.4-3.4-7.1-4.6
					c-2.8-1.3-4.5-3.2-5.1-5.8c0.4,0.4,1.4,1,3,1.7c1.5,0.7,2.8,1.4,4.1,2.1L640,445.6z"/>
			</g>
		</g>
		<g>
			<g>
				<path fill-rule="evenodd" clip-rule="evenodd" fill="#9F2420" d="M649.4,500l-1.2-1.7c-0.7-0.8-1.6-1.8-2.7-3.1
					c-1.1-1.3-1.9-2.3-2.1-2.9c-0.9-1.7-1.1-3.7-0.6-6.1c1.1,2,2.3,3.7,3.7,5.2C649.1,494.2,650.1,497.1,649.4,500z"/>
				<path fill-rule="evenodd" clip-rule="evenodd" fill="#15806D" d="M644.6,503.5c-0.9-1.7-1.1-3.7-0.7-6.1
					c0.2,0.4,0.7,1.1,1.4,2.2c0.7,1.1,1.4,2,2.1,2.7c0.7,0.7,1.1,1.1,1.4,1.4c0.2,0.3,0.5,0.7,0.9,1.3c0.1,0.2,0.2,0.5,0.4,0.7
					l0.1,0.1c0,0,0.1,0.1,0.1,0.2c0.7,1.6,0.9,3.3,0.5,5l-1.3-1.7c-0.3-0.4-1.1-1.4-2.5-2.8C645.8,505,644.9,504,644.6,503.5z"/>
				<path fill-rule="evenodd" clip-rule="evenodd" fill="#1DA58D" d="M650.8,511c1,1.9,1.3,3.8,0.8,5.8c-1.6-2.1-3.3-4.1-5-6.1
					s-2.3-4.4-2-7.2c0.3,0.5,1.1,1.5,2.5,3c1.3,1.5,2.2,2.4,2.5,2.8L650.8,511z"/>
				<path fill-rule="evenodd" clip-rule="evenodd" fill="#CE2F2B" d="M649.4,500c1.1,1.9,1.4,3.9,0.9,6c0-0.1-0.1-0.2-0.1-0.2
					l-0.1-0.1c-0.2-0.3-0.3-0.5-0.4-0.7c-0.4-0.5-0.7-1-0.9-1.3c-0.2-0.3-0.7-0.7-1.4-1.4c-0.7-0.7-1.4-1.6-2.1-2.7
					c-0.7-1.1-1.2-1.9-1.4-2.2c-0.7-1.5-0.9-3.2-0.6-5.2c0.3,0.6,1,1.6,2.1,2.9c1.1,1.3,2,2.3,2.7,3.1L649.4,500z"/>
			</g>
		</g>
		<g>
			<g>
				<path fill-rule="evenodd" clip-rule="evenodd" fill="#CE2F2B" d="M647.2,519.4c-0.8-1.5-1.1-3.2-0.9-5.2c0.3,0.6,1,1.4,2.2,2.6
					c1.1,1.1,2.2,2.3,3,3.4l1.3,1.6c1.2,1.9,1.6,4,1.3,6.1c0-0.1-0.1-0.2-0.1-0.2l-0.1-0.1c-0.2-0.3-0.3-0.5-0.5-0.7
					c-0.4-0.5-0.9-1.1-1.5-1.8c-0.6-0.7-1.2-1.4-1.9-2c-0.7-0.7-1.3-1.4-1.7-2.1C647.8,520.3,647.4,519.8,647.2,519.4z"/>
				<path fill-rule="evenodd" clip-rule="evenodd" fill="#15806D" d="M648.3,525.5c-1-1.8-1.4-3.8-1.1-6.1c0.2,0.4,0.6,0.9,1.1,1.7
					c0.5,0.7,1,1.4,1.7,2.1c0.6,0.6,1.3,1.3,1.9,2c0.6,0.7,1.1,1.3,1.5,1.8c0.2,0.2,0.3,0.5,0.5,0.7l0.1,0.1c0,0,0.1,0.1,0.1,0.2
					c0.8,1.6,1.1,3.3,0.9,5l-1.4-1.7c-0.9-1.1-1.9-2.2-3.1-3.3C649.4,526.8,648.6,526,648.3,525.5z"/>
				<path fill-rule="evenodd" clip-rule="evenodd" fill="#1DA58D" d="M655,533c1.1,1.9,1.5,3.8,1.1,5.7c-1.8-2.3-3.7-4.4-5.6-6.4
					c-1.7-1.8-2.4-4.1-2.2-6.8c0.3,0.5,1.1,1.4,2.2,2.5c1.1,1.1,2.2,2.3,3.1,3.3L655,533z"/>
				<path fill-rule="evenodd" clip-rule="evenodd" fill="#9F2420" d="M646.3,514.2c-1-1.7-1.4-3.7-1-6.1c1.2,2,2.6,3.7,4,5.2
					c2.9,2.8,4.1,5.7,3.6,8.5l-1.3-1.6c-0.9-1.1-1.9-2.3-3-3.4C647.3,515.7,646.6,514.8,646.3,514.2z"/>
			</g>
		</g>
		<g>
			<g>
				<path fill-rule="evenodd" clip-rule="evenodd" fill="#CE2F2B" d="M650.8,536.4c0.5,0.7,1.4,1.6,2.7,2.9c1.3,1.2,2.4,2.3,3.1,3.1
					l1.5,1.7c1.3,1.9,1.9,3.9,1.8,6.1c-0.3-0.5-0.6-0.8-0.7-1c-0.5-0.5-0.9-1-1.3-1.5c-0.4-0.5-1-1.1-1.9-1.8
					c-0.9-0.8-1.7-1.6-2.4-2.4c-0.7-0.9-1.1-1.5-1.4-1.9C651.2,540.1,650.8,538.4,650.8,536.4z"/>
				<path fill-rule="evenodd" clip-rule="evenodd" fill="#9F2420" d="M650.8,536.4c-1.2-1.7-1.7-3.7-1.6-6.1c1.4,2,2.9,3.7,4.5,5.2
					c3.2,2.8,4.6,5.7,4.4,8.6l-1.5-1.7c-0.7-0.8-1.8-1.9-3.1-3.1C652.1,538,651.2,537.1,650.8,536.4z"/>
				<path fill-rule="evenodd" clip-rule="evenodd" fill="#15806D" d="M661.2,555.2c-1.9-1.6-3.5-3.1-4.8-4.5c-1.3-1.4-2.2-2.4-2.6-3
					c-1.2-1.7-1.8-3.8-1.7-6.1c0.2,0.4,0.7,1,1.4,1.9c0.7,0.8,1.5,1.6,2.4,2.4c0.9,0.7,1.5,1.3,1.9,1.8c0.4,0.5,0.8,1,1.3,1.5
					c0.2,0.2,0.4,0.6,0.7,1C660.9,551.8,661.3,553.4,661.2,555.2z"/>
				<path fill-rule="evenodd" clip-rule="evenodd" fill="#1DA58D" d="M661.2,555.2c1.3,1.8,1.9,3.7,1.7,5.7c-2-2.3-4.1-4.5-6.1-6.4
					c-1.9-1.8-2.8-4.1-2.9-6.8c0.4,0.7,1.3,1.7,2.6,3C657.7,552.1,659.3,553.5,661.2,555.2z"/>
			</g>
		</g>
		<g>
			<g>
				<path fill-rule="evenodd" clip-rule="evenodd" fill="#1DA58D" d="M618.8,427.8c1.4,0.1,2.8,0.1,4.4,0.1l4.1-0.2
					c1.9,0.5,3.4,1.7,4.5,3.5c-2.3-0.6-4.5-0.8-6.8-0.6C622.8,430.9,620.7,429.9,618.8,427.8z"/>
				<path fill-rule="evenodd" clip-rule="evenodd" fill="#9F2420" d="M618.9,422l-1.9-0.2c-1.1-0.2-2.4-0.2-3.8-0.2
					c-1.4,0.2-2.8,0.7-4.2,1.6c-2.3,0.5-4,0.4-5-0.3c1.2-1.3,3-2.5,5.4-3.5c2.4-1,4.1-1.2,5.2-0.9
					C616.7,419.4,618.1,420.6,618.9,422z"/>
				<path fill-rule="evenodd" clip-rule="evenodd" fill="#CE2F2B" d="M609,423.2c1.4-0.9,2.8-1.4,4.2-1.6c1.4-0.1,2.6,0,3.8,0.2
					l1.9,0.2c1.9,0.4,3.4,1.4,4.6,3c0,0-0.8,0-2.2,0.1c-1.4,0-2.8,0-4-0.2c-1.3-0.2-2.4-0.4-3.2-0.5
					C612.8,424.1,611.1,423.7,609,423.2z"/>
				<path fill-rule="evenodd" clip-rule="evenodd" fill="#15806D" d="M627.2,427.7l-4.1,0.2c-1.5,0.1-3,0.1-4.4-0.1
					c-1.7-0.4-3.3-1.6-4.6-3.4c0.8,0.1,1.9,0.3,3.2,0.5c1.3,0.2,2.6,0.2,4,0.2c1.4-0.1,2.1-0.1,2.2-0.1
					C625,425.6,626.3,426.5,627.2,427.7z"/>
			</g>
		</g>
		<g>
			<g>
				<path fill-rule="evenodd" clip-rule="evenodd" fill="#CE2F2B" d="M346.5,317.9c0.3,2,0.1,3.6-0.5,4.8c-0.2,0.3-0.5,0.9-1,1.7
					c-0.5,0.8-1.2,1.8-2,2.8c-0.9,1-1.5,1.8-1.9,2.2c-0.5,0.5-0.7,0.8-0.7,0.9h-0.1c-0.3-2,0-3.9,0.9-5.6l1.1-1.5
					c0.6-0.6,1.5-1.5,2.5-2.7C345.7,319.4,346.3,318.5,346.5,317.9z"/>
				<path fill-rule="evenodd" clip-rule="evenodd" fill="#9F2420" d="M341.2,324.8c-0.6-2.9,0.2-5.7,2.6-8.2c1.3-1.1,3-2.8,5-5.1
					c-0.6,2.7-1.4,4.9-2.2,6.5c-0.2,0.6-0.8,1.5-1.8,2.6c-1,1.1-1.8,2-2.5,2.7L341.2,324.8z"/>
				<path fill-rule="evenodd" clip-rule="evenodd" fill="#15806D" d="M340.2,330.4L340.2,330.4c0.1-0.2,0.3-0.5,0.8-0.9
					c0.4-0.4,1.1-1.1,1.9-2.2c0.8-1,1.5-2,2-2.8c0.5-0.8,0.8-1.4,1-1.7c0.4,2.4,0.2,4.4-0.7,6c-0.2,0.5-0.9,1.3-2,2.6l-3.6,3.8
					C339.5,333.6,339.6,332,340.2,330.4L340.2,330.4z"/>
				<path fill-rule="evenodd" clip-rule="evenodd" fill="#1DA58D" d="M345.3,328.8c0.4,3-0.2,5.2-1.8,6.5c-1.7,1.3-3.1,3.2-4.4,5.7
					c-0.5-2.1-0.2-4.1,0.6-5.9l3.6-3.8C344.4,330.1,345.1,329.2,345.3,328.8z"/>
			</g>
		</g>
		<g>
			<g>
				<path fill-rule="evenodd" clip-rule="evenodd" fill="#15806D" d="M580.7,421.2c-1.7,0.7-3.6,0.5-5.7-0.6
					c1.8-0.6,4.1-2.1,7.1-4.2c0.6-0.5,1.1-0.9,1.5-1.1c0,0,0.7-0.1,1.9-0.2s2.1,0.2,2.7,1.1c-1.8,1.5-3.4,2.7-4.6,3.6
					C582.3,420.6,581.3,421,580.7,421.2z"/>
				<path fill-rule="evenodd" clip-rule="evenodd" fill="#1DA58D" d="M588.1,416.3c1.9-0.7,3.8-0.7,5.8,0.1
					c-2.6,1.5-4.9,2.9-6.8,4.4c-1.9,1.3-4.1,1.5-6.5,0.6c0.6-0.2,1.6-0.7,2.9-1.4C584.7,419,586.3,417.8,588.1,416.3z"/>
				<path fill-rule="evenodd" clip-rule="evenodd" fill="#CE2F2B" d="M575,420.7c-1.4,0.5-3,0.4-4.8-0.4c0.5-0.1,1.4-0.6,2.5-1.3
					c1.1-0.8,2.9-1.9,5.2-3.4c1.6-0.6,3.4-0.7,5.6-0.2c-0.4,0.2-0.9,0.6-1.5,1.1C579.1,418.6,576.8,420,575,420.7z"/>
				<path fill-rule="evenodd" clip-rule="evenodd" fill="#9F2420" d="M570.2,420.3c-3.1,1.3-5.6,1.5-7.5,0.7
					c2.3-0.9,4.8-2.3,7.4-4.4c2.6-2.1,5.2-2.5,7.8-1.1c-2.3,1.5-4,2.7-5.2,3.4C571.6,419.7,570.8,420.2,570.2,420.3z"/>
			</g>
		</g>
		<g>
			<g>
				<path fill-rule="evenodd" clip-rule="evenodd" fill="#1DA58D" d="M566.3,415.5c1.8-0.7,3.8-0.7,5.9-0.1c-2.3,1.6-4.3,3.1-6,4.5
					c-1.8,1.3-4,1.5-6.6,0.6c0.5-0.2,1.3-0.8,2.3-1.8c1-0.8,2-1.5,3-2.2L566.3,415.5z"/>
				<path fill-rule="evenodd" clip-rule="evenodd" fill="#15806D" d="M561.6,415c1.6-0.4,3.1-0.3,4.7,0.4l-1.4,1c-1,0.7-2,1.4-3,2.2
					c-1,1-1.8,1.6-2.3,1.8c-1.6,0.6-3.5,0.5-5.8-0.5c0.3-0.1,1-0.5,2.1-1.2c1-0.8,2.1-1.5,3.1-2.3c1-0.8,1.7-1.2,2.1-1.3
					C561.3,415.1,561.5,415,561.6,415z"/>
				<path fill-rule="evenodd" clip-rule="evenodd" fill="#CE2F2B" d="M555.8,414.9c1.8-0.7,3.7-0.6,5.7,0.2c0,0-0.2,0.1-0.6,0.2
					c-0.3,0.1-1,0.6-2.1,1.3c-1,0.8-2.1,1.5-3.1,2.3c-1.1,0.7-1.8,1.1-2.1,1.2c-1.3,0.5-3,0.3-4.9-0.4c0.5-0.2,1.2-0.6,2.1-1.4
					c0.8-0.8,2-1.5,3.3-2.4L555.8,414.9z"/>
				<path fill-rule="evenodd" clip-rule="evenodd" fill="#9F2420" d="M548.8,419.6c-3.1,1-5.8,1.3-8.1,0.7c3.6-1.6,5.9-2.9,7-4
					c2.6-2.3,5.3-2.7,8.1-1.4l-1.6,1c-1.4,0.8-2.5,1.6-3.3,2.4C550.1,419,549.4,419.5,548.8,419.6z"/>
			</g>
		</g>
		<g>
			<g>
				<path fill-rule="evenodd" clip-rule="evenodd" fill="#1DA58D" d="M538.3,419.9c0.4-0.2,1-0.6,1.8-1.3c0.8-0.8,2-1.7,3.6-2.8
					l1.5-1.1c1.8-0.8,3.7-0.8,5.6-0.1c-2.3,1.6-4.3,3.2-6.1,4.7C542.9,420.8,540.7,421,538.3,419.9z"/>
				<path fill-rule="evenodd" clip-rule="evenodd" fill="#CE2F2B" d="M527.7,419.2c0.5-0.1,1.3-0.6,2.2-1.3c0.9-0.8,2.6-2,5-3.6
					c1.8-0.8,3.6-0.7,5.4,0.2c-1.3,1-2.6,2.1-4,3.2c-1.4,1.1-2.7,1.9-4,2.2C531.2,420,529.7,419.8,527.7,419.2z"/>
				<path fill-rule="evenodd" clip-rule="evenodd" fill="#15806D" d="M545.2,414.7l-1.5,1.1c-1.6,1.1-2.8,2-3.6,2.8
					c-0.8,0.7-1.5,1.2-1.8,1.3c-1.6,0.6-3.6,0.6-6,0c1.3-0.4,2.6-1.1,4-2.2c1.4-1.1,2.7-2.2,4-3.2C542,413.9,543.7,414,545.2,414.7z
					"/>
				<path fill-rule="evenodd" clip-rule="evenodd" fill="#9F2420" d="M535,414.3c-2.5,1.5-4.2,2.7-5,3.6c-0.9,0.8-1.6,1.2-2.2,1.3
					c-1.6,0.7-3.5,0.6-5.8-0.5c2.2-0.8,4.3-2.1,6.1-3.8C529.9,413.2,532.2,413,535,414.3z"/>
			</g>
		</g>
		<g>
			<g>
				<path fill-rule="evenodd" clip-rule="evenodd" fill="#15806D" d="M525.9,413.2l-1.5,1c-0.9,0.6-1.9,1.4-3.1,2.2
					c-1.2,0.8-2.2,1.4-2.9,1.7c-1.6,0.6-3.4,0.3-5.3-0.7c1.3-0.3,2.7-1,4.3-2.2c1.6-1.2,3-2.1,4.2-2.6
					C523.1,412.1,524.5,412.4,525.9,413.2z"/>
				<path fill-rule="evenodd" clip-rule="evenodd" fill="#CE2F2B" d="M508.6,416.7c0.6-0.1,1.5-0.6,2.8-1.5c1.2-0.9,2.3-1.6,3.3-2.2
					l1.7-0.9c1.8-0.7,3.6-0.5,5.3,0.5c-1.2,0.6-2.6,1.5-4.2,2.6c-1.6,1.1-3,1.9-4.3,2.2C511.8,417.8,510.4,417.6,508.6,416.7z"/>
				<path fill-rule="evenodd" clip-rule="evenodd" fill="#9F2420" d="M516.3,412.1l-1.7,0.9c-1,0.5-2,1.3-3.3,2.2
					c-1.3,0.9-2.2,1.4-2.8,1.5c-2.5,0.2-4.5-0.4-5.9-1.7c2.4,0,4.3-0.6,5.8-1.8C511.4,411,514,410.6,516.3,412.1z"/>
				<path fill-rule="evenodd" clip-rule="evenodd" fill="#1DA58D" d="M518.3,418.1c0.7-0.3,1.6-0.8,2.9-1.7c1.2-0.9,2.2-1.6,3.1-2.2
					l1.5-1c1.8-0.7,3.6-0.5,5.3,0.3c-2.1,1.4-4.2,2.8-6.3,4.1C522.8,419,520.6,419.1,518.3,418.1z"/>
			</g>
		</g>
		<g>
			<g>
				<path fill-rule="evenodd" clip-rule="evenodd" fill="#1DA58D" d="M481.5,409.5c0.5-0.1,1.3-0.5,2.4-1.2c1.2-0.7,2.9-1.5,5-2.5
					c1.8-0.4,3.6-0.1,5.3,0.7c-2.4,1.2-4.7,2.4-6.7,3.5C485.7,411.1,483.7,410.9,481.5,409.5z"/>
				<path fill-rule="evenodd" clip-rule="evenodd" fill="#9F2420" d="M479.5,403.5l-1.7,0.7c-1.1,0.4-2.2,1-3.4,1.6
					c-1.2,0.7-2.1,1.1-2.6,1.2c-1.6,0.3-3.3-0.2-5.2-1.5c1.9-0.3,3.6-1,5-1.9C474.6,401.8,477.2,401.8,479.5,403.5z"/>
				<path fill-rule="evenodd" clip-rule="evenodd" fill="#CE2F2B" d="M484.6,404.6c-3.6,1.8-5.7,2.8-6.2,3c-0.5,0.2-1.2,0.4-2.1,0.6
					c-1.3,0.2-2.8-0.2-4.5-1.1c0.6-0.1,1.5-0.5,2.6-1.2c1.1-0.6,2.3-1.2,3.4-1.6l1.7-0.7C481.3,403.1,483,403.5,484.6,404.6z"/>
				<path fill-rule="evenodd" clip-rule="evenodd" fill="#15806D" d="M476.3,408.2c0.9-0.2,1.6-0.4,2.1-0.6c0.5-0.2,2.6-1.2,6.2-3
					c1.6-0.1,3,0.4,4.4,1.3c-2.1,1-3.8,1.8-5,2.5c-1.1,0.7-1.9,1.1-2.4,1.2C479.9,409.9,478.1,409.4,476.3,408.2z"/>
			</g>
		</g>
		<g>
			<g>
				<path fill-rule="evenodd" clip-rule="evenodd" fill="#CE2F2B" d="M495.2,412.8c-1.3,0.2-2.8-0.2-4.5-1.2
					c0.6-0.1,1.5-0.5,2.8-1.3c1.3-0.8,2.4-1.4,3.3-1.8l1.7-0.7c1.8-0.5,3.6-0.1,5.3,1.1c-0.4,0.1-1.4,0.6-3,1.4
					c-1.6,0.8-2.8,1.4-3.4,1.7C496.6,412.4,495.9,412.6,495.2,412.8z"/>
				<path fill-rule="evenodd" clip-rule="evenodd" fill="#15806D" d="M500.5,414.1c-1.6,0.3-3.4-0.1-5.3-1.3
					c0.7-0.2,1.4-0.4,2.1-0.7c0.6-0.3,1.8-0.9,3.4-1.7c1.6-0.8,2.6-1.3,3-1.4c0,0,0.5-0.1,1.4-0.1c0.9,0,1.9,0.4,2.8,1.2l-1.5,0.8
					c-0.9,0.5-1.9,1.1-3.1,1.9C502.1,413.5,501.2,414,500.5,414.1z"/>
				<path fill-rule="evenodd" clip-rule="evenodd" fill="#9F2420" d="M490.7,411.6c-1.6,0.4-3.4,0.1-5.3-0.9c2-0.8,3.7-1.7,5.2-2.7
					c2.9-1.9,5.6-2,7.9-0.2l-1.7,0.7c-0.9,0.5-2,1.1-3.3,1.8C492.2,411.1,491.3,411.5,490.7,411.6z"/>
				<path fill-rule="evenodd" clip-rule="evenodd" fill="#1DA58D" d="M500.5,414.1c0.7-0.2,1.7-0.6,2.9-1.3c1.1-0.8,2.2-1.4,3.1-1.9
					l1.5-0.8c1.8-0.5,3.5-0.1,5.1,1.1c-2.9,1.3-5.2,2.5-6.9,3.6C504.3,415.8,502.4,415.6,500.5,414.1z"/>
			</g>
		</g>
		<g>
			<g>
				<path fill-rule="evenodd" clip-rule="evenodd" fill="#CE2F2B" d="M344.6,402.6c0.2-0.5,0.6-1.2,1.3-2.1c0.8-0.9,1.7-1.8,2.5-2.6
					c1.8-1,2.9-0.7,3.4,0.8c-0.2,0.3-0.6,0.7-1,1.1c-0.5,0.4-0.9,0.8-1.2,1.3c-0.4,0.4-0.7,0.9-1.1,1.3c-0.3,0.4-0.8,0.7-1.3,1
					C346.1,403.6,345.2,403.3,344.6,402.6z"/>
				<path fill-rule="evenodd" clip-rule="evenodd" fill="#15806D" d="M356.3,399.2c-0.7-0.2-1.5,0.2-2.5,1.1
					c-0.7,0.6-1.4,1.5-2.2,2.4c-0.8,1-1.3,1.5-1.7,1.8c-1.1,0.5-2,0.2-2.8-1.1c0.5-0.2,1-0.6,1.3-1c0.3-0.5,0.7-0.9,1.1-1.3
					c0.3-0.5,0.7-0.9,1.2-1.3c0.4-0.5,0.7-0.8,1-1.1C353.2,397.7,354.7,397.9,356.3,399.2z"/>
				<path fill-rule="evenodd" clip-rule="evenodd" fill="#1DA58D" d="M349.9,404.4c0.4-0.2,1-0.8,1.7-1.8c0.8-1,1.5-1.8,2.2-2.4
					c1-0.9,1.8-1.2,2.5-1.1c1-0.1,2.2,0.3,3.7,1.1c-2.9,1.2-5,2.5-6.4,4.1C352.4,405.7,351.1,405.7,349.9,404.4z"/>
				<path fill-rule="evenodd" clip-rule="evenodd" fill="#9F2420" d="M348.3,397.9c-0.8,0.8-1.6,1.7-2.5,2.6
					c-0.7,0.9-1.1,1.6-1.3,2.1c-1.7,0.3-2.7-0.4-3-2.1c1-0.3,1.9-1.3,2.8-2.9C345.1,396,346.4,396.1,348.3,397.9z"/>
			</g>
		</g>
		<g>
			<g>
				<path fill-rule="evenodd" clip-rule="evenodd" fill="#9F2420" d="M340.1,387.8c-1.2,2.3-1.9,3.7-2.1,4.5l-0.3,1.3
					c-2.2-1.4-2.6-3.2-1.2-5.4c0.8-1.1,2.1-2.2,3.8-3.3C341.2,385.5,341.2,386.5,340.1,387.8z"/>
				<path fill-rule="evenodd" clip-rule="evenodd" fill="#CE2F2B" d="M342,390.6c0,0.3-0.1,0.8-0.3,1.5c-0.2,0.7-0.6,1.8-1.3,3.3
					c-0.5,1.1-0.8,1.6-1,1.7c-1.4-1-2-2.2-1.8-3.6l0.3-1.3c0.2-0.7,0.9-2.2,2.1-4.5C341.5,388.8,342.1,389.7,342,390.6z"/>
				<path fill-rule="evenodd" clip-rule="evenodd" fill="#15806D" d="M344.2,394.2c0,0.4-0.3,1.1-1,2.1c-0.7,1-1.3,2.2-1.8,3.5
					c-1.1-0.8-1.7-1.7-1.9-2.8c0.2,0,0.5-0.6,1-1.7c0.6-1.5,1.1-2.5,1.3-3.3c0.2-0.7,0.2-1.2,0.3-1.5
					C343.6,391.8,344.3,393,344.2,394.2z"/>
				<path fill-rule="evenodd" clip-rule="evenodd" fill="#1DA58D" d="M341.3,399.9c0.5-1.3,1.1-2.5,1.8-3.5c0.7-1,1-1.7,1-2.1
					c0.8-0.3,1.4,0,1.8,0.8c0.4,0.8,0.4,1.4-0.1,1.9c-0.8,0.7-2,2.5-3.6,5.3C341.6,402,341.3,401.2,341.3,399.9z"/>
			</g>
		</g>
		<g>
			<g>
				<path fill-rule="evenodd" clip-rule="evenodd" fill="#9F2420" d="M340.1,360.5c-0.3,0.3-0.9,0.7-2,1.3c-1.1,0.5-2.1,0.9-3,1.4
					l-0.7,0.4c-1.3-1.9-0.6-3.3,2.1-4.3c1.4-0.5,3-1.4,4.8-2.8C342.1,357.8,341.8,359.1,340.1,360.5z"/>
				<path fill-rule="evenodd" clip-rule="evenodd" fill="#CE2F2B" d="M340.2,363.3c-1.2,1-2.4,1.8-3.4,2.2c-1.1,0.4-1.9,0.9-2.5,1.4
					l-0.4,0.3v-0.1h-0.1c-0.5-1.6-0.3-2.8,0.6-3.6l0.7-0.4c0.9-0.5,1.9-0.9,3-1.4c1.1-0.5,1.7-1,2-1.3
					C340.8,361.7,340.9,362.7,340.2,363.3z"/>
				<path fill-rule="evenodd" clip-rule="evenodd" fill="#1DA58D" d="M340.3,366.7c0.8,1.6,0.4,2.8-1.1,3.5
					c-1.7,0.6-3.4,1.5-4.9,2.5c-0.9-1.3-0.9-2.4,0.1-3.3l1.1-0.5c0.9-0.5,1.8-0.9,2.8-1.3C339.4,367.2,340.1,366.9,340.3,366.7z"/>
				<path fill-rule="evenodd" clip-rule="evenodd" fill="#15806D" d="M340.2,363.3c0.9,1.5,0.9,2.6,0.1,3.4c-0.2,0.2-0.9,0.5-2,0.9
					c-1,0.4-1.9,0.9-2.8,1.3l-1.1,0.5c-0.7-1-0.9-1.8-0.5-2.2l0.4-0.3c0.6-0.5,1.4-1,2.5-1.4C337.9,365.1,339,364.4,340.2,363.3z"/>
			</g>
		</g>
		<g>
			<g>
				<path fill-rule="evenodd" clip-rule="evenodd" fill="#CE2F2B" d="M344.4,337.6c0.7,1.3,0.7,2.2-0.1,2.8
					c-0.1,0.2-0.6,0.6-1.7,1.1c-1.1,0.5-1.9,0.9-2.4,1.2c-0.5,0.2-1,0.4-1.4,0.6c-0.4,0.3-0.7,0.5-1,0.7c-0.8-1.4-0.7-2.5,0.3-3.3
					l1.4-0.7c1.6-0.7,2.7-1.2,3.4-1.5C343.5,338.1,344,337.9,344.4,337.6z"/>
				<path fill-rule="evenodd" clip-rule="evenodd" fill="#9F2420" d="M338.1,340.7c-1.3-1.9-0.5-3.3,2.3-4.2c2.8-1,4.3-2.2,4.7-3.7
					c1,1.7,0.7,3.3-0.7,4.9c-0.3,0.3-0.8,0.5-1.5,0.8c-0.6,0.3-1.8,0.8-3.4,1.5L338.1,340.7z"/>
				<path fill-rule="evenodd" clip-rule="evenodd" fill="#15806D" d="M337.8,344c0.2-0.2,0.6-0.4,1-0.7c0.4-0.2,0.9-0.4,1.4-0.6
					c0.5-0.3,1.2-0.7,2.4-1.2c1.1-0.5,1.6-0.9,1.7-1.1c1,1.5,1,2.7,0.1,3.4c-0.1,0.2-0.7,0.6-1.8,1c-1.1,0.4-2.3,0.8-3.3,1.3
					l-1.3,0.6C337.2,345.7,337.2,344.8,337.8,344z"/>
				<path fill-rule="evenodd" clip-rule="evenodd" fill="#1DA58D" d="M337.9,346.8l1.3-0.6c1.1-0.5,2.2-0.9,3.3-1.3
					c1.1-0.5,1.7-0.8,1.8-1c0.8,1.6,0.3,2.8-1.3,3.6c-1.8,0.7-3.5,1.5-5.3,2.6C336.9,348.7,336.9,347.6,337.9,346.8z"/>
			</g>
		</g>
		<g>
			<g>
				<path fill-rule="evenodd" clip-rule="evenodd" fill="#15806D" d="M601.9,422.4c-1.7,0.6-3.6,0.5-5.7-0.5c2.3-1,4.1-1.9,5.4-2.9
					c1.3-1,2.4-1.7,3.4-2l0.8-0.3c1.5-0.3,2.7-0.1,3.5,0.7l-1.5,1c-1.1,0.7-2.2,1.5-3.4,2.3C603.2,421.7,602.4,422.3,601.9,422.4z"
					/>
				<path fill-rule="evenodd" clip-rule="evenodd" fill="#CE2F2B" d="M605.8,416.7l-0.8,0.3c-1,0.3-2.1,1-3.4,2
					c-1.3,1-3.1,1.9-5.4,2.9c-1.4,0.5-3,0.3-4.8-0.5c0.5-0.2,1.4-0.7,2.6-1.6c1.1-1,2.3-1.7,3.3-2.2l1.7-1c1.4-0.5,3-0.6,4.9-0.3
					L605.8,416.7z"/>
				<path fill-rule="evenodd" clip-rule="evenodd" fill="#1DA58D" d="M601.9,422.4c0.5-0.2,1.4-0.8,2.5-1.7c1.1-0.8,2.3-1.6,3.4-2.3
					l1.5-1c1.8-0.5,3.8,0,5.8,1.5c-1.3-0.5-3.1,0.1-5.3,1.8C607,422.8,604.3,423.4,601.9,422.4z"/>
				<path fill-rule="evenodd" clip-rule="evenodd" fill="#9F2420" d="M591.4,421.5c-3.1,1.3-5.5,1.4-7.5,0.4
					c3.2-1.4,5.5-2.7,6.9-3.8c2.9-2.3,5.6-2.7,8.2-1.4l-1.7,1c-1.1,0.5-2.2,1.3-3.3,2.2C592.8,420.8,592,421.3,591.4,421.5z"/>
			</g>
		</g>
		<g>
			<g>
				<path fill-rule="evenodd" clip-rule="evenodd" fill="#1DA58D" d="M397.4,407.3c0.6-0.2,1.5-0.7,2.8-1.5c1.5-0.9,2.8-1.6,3.9-2.2
					l2-0.8c1.9-0.8,3.5-0.7,4.8,0.2c-2.5,1.2-4.9,2.5-7.2,3.8C401.6,408,399.5,408.2,397.4,407.3z"/>
				<path fill-rule="evenodd" clip-rule="evenodd" fill="#CE2F2B" d="M392.1,406.9c-1.4,0.4-2.8,0.2-4.4-0.4
					c0.7-0.2,1.6-0.7,2.8-1.4c1.1-0.8,2.5-1.5,4.3-2.4l1.8-0.8c2-0.6,3.8-0.5,5.4,0.3c-0.1,0-0.4,0.1-0.7,0.2
					c-0.4,0.1-1,0.3-1.7,0.7c-0.8,0.4-1.8,0.9-2.8,1.5c-1,0.6-1.9,1.1-2.5,1.4C393.6,406.3,392.9,406.5,392.1,406.9z"/>
				<path fill-rule="evenodd" clip-rule="evenodd" fill="#15806D" d="M397.4,407.3c-1.8,0.6-3.6,0.4-5.3-0.5
					c0.8-0.3,1.5-0.6,2.1-0.9c0.6-0.3,1.4-0.8,2.5-1.4c1-0.6,1.9-1.1,2.8-1.5c0.7-0.4,1.3-0.6,1.7-0.7c0.4-0.1,0.6-0.2,0.7-0.2
					c1.5-0.5,2.9-0.3,4.2,0.6l-2,0.8c-1.1,0.6-2.4,1.4-3.9,2.2C399,406.6,398.1,407.1,397.4,407.3z"/>
				<path fill-rule="evenodd" clip-rule="evenodd" fill="#9F2420" d="M387.7,406.4c-1.8,0.5-3.5,0.3-5.1-0.6c2.1-0.6,4-1.5,5.7-2.6
					c3.5-2.2,6.2-2.6,8.3-1.4l-1.8,0.8c-1.8,0.8-3.2,1.6-4.3,2.4C389.3,405.7,388.4,406.2,387.7,406.4z"/>
			</g>
		</g>
		<g>
			<g>
				<path fill-rule="evenodd" clip-rule="evenodd" fill="#CE2F2B" d="M339.8,372.5c0.3,1.7,0.3,3-0.2,4c-0.3,0.8-1.2,2-2.5,3.6
					c-1.3,1.5-2.1,2.3-2.2,2.4c-0.9-1.5-1-2.9-0.3-4.2l0.7-1.3c0.5-0.7,1.2-1.5,2.1-2.4C338.2,373.8,339,373.1,339.8,372.5z"/>
				<path fill-rule="evenodd" clip-rule="evenodd" fill="#9F2420" d="M334.4,378.2c-1.4-3.9-1.1-6,0.9-6.4c2-0.5,3.8-1.7,5.3-3.6
					c0.2,1.9-0.1,3.4-0.9,4.4c-0.7,0.6-1.5,1.3-2.5,2c-0.9,0.9-1.6,1.7-2.1,2.4L334.4,378.2z"/>
				<path fill-rule="evenodd" clip-rule="evenodd" fill="#15806D" d="M339.5,376.5c1.1,1.8,1.4,3.3,0.7,4.6c0,0.3-0.6,0.9-1.8,1.9
					c-0.7,0.7-1.4,1.3-1.9,1.9l-1,1.1c-0.8-1.2-1.1-2.4-0.8-3.6c0.2-0.1,0.9-0.9,2.2-2.4C338.4,378.5,339.2,377.3,339.5,376.5z"/>
				<path fill-rule="evenodd" clip-rule="evenodd" fill="#1DA58D" d="M335.6,386l1-1.1c0.6-0.6,1.2-1.3,1.9-1.9
					c1.1-1,1.7-1.7,1.8-1.9c1.1,2,1,3.6-0.5,4.8c-1.5,1.2-2.9,2.8-4.2,4.8C335.1,388.9,335.1,387.4,335.6,386z"/>
			</g>
		</g>
		<g>
			<g>
				<path fill-rule="evenodd" clip-rule="evenodd" fill="#9F2420" d="M342.9,349.6c-0.3,0.3-1.1,0.5-2.1,0.6c-1.1,0.1-2.5,0.4-4.1,1
					c-0.8-1.6-0.1-2.6,2-2.9c2.1-0.2,4.1-1.2,6-2.9C345.4,347.3,344.8,348.7,342.9,349.6z"/>
				<path fill-rule="evenodd" clip-rule="evenodd" fill="#CE2F2B" d="M342.4,352.4c-1.4,0.7-2.8,1.2-4.2,1.5
					c-1.3,0.2-2.2,0.4-2.7,0.6h-0.1c-0.2-1.7,0.2-2.8,1.3-3.4c1.6-0.6,3-0.9,4.1-1c1.1-0.2,1.8-0.4,2.1-0.6
					C343.3,350.9,343.2,351.9,342.4,352.4z"/>
				<path fill-rule="evenodd" clip-rule="evenodd" fill="#15806D" d="M335.5,354.6c0.5-0.2,1.4-0.4,2.7-0.6c1.5-0.3,2.9-0.8,4.2-1.5
					c0.6,1.7,0.4,2.8-0.6,3.3c-0.3,0.1-1,0.2-2.1,0.4c-1.1,0.2-2.1,0.3-3,0.6l-1.3,0.3C334.9,355.8,334.9,355,335.5,354.6z"/>
				<path fill-rule="evenodd" clip-rule="evenodd" fill="#1DA58D" d="M335.4,357l1.3-0.3c0.9-0.2,1.9-0.4,3-0.6
					c1.1-0.2,1.9-0.3,2.1-0.4c0.4,1.7-0.2,2.8-1.8,3.2c-1.8,0.2-3.6,0.6-5.3,1.3C334,358.8,334.3,357.7,335.4,357z"/>
			</g>
		</g>
		<g>
			<g>
				<path fill-rule="evenodd" clip-rule="evenodd" fill="#15806D" d="M424.7,404.7l-2,0.9c-1.1,0.6-2.5,1.3-4,2.1
					c-1.3,0.8-2.3,1.3-2.9,1.5c-1.8,0.5-3.6,0.3-5.4-0.6c0.7-0.2,1.5-0.4,2.2-0.9c0.8-0.4,1.6-0.8,2.6-1.3c0.9-0.5,1.8-1,2.6-1.3
					c0.8-0.4,1.4-0.6,1.8-0.7l0.7-0.2C422,403.7,423.4,403.9,424.7,404.7z"/>
				<path fill-rule="evenodd" clip-rule="evenodd" fill="#CE2F2B" d="M405.9,408c0.8-0.2,1.8-0.7,3-1.5c1.5-0.8,2.9-1.5,4.2-2.1
					l1.8-0.8c2-0.5,3.9-0.3,5.5,0.5l-0.7,0.2c-0.5,0.1-1.1,0.3-1.8,0.7c-0.8,0.3-1.7,0.8-2.6,1.3c-1,0.5-1.8,0.9-2.6,1.3
					c-0.8,0.4-1.5,0.7-2.2,0.9C409.1,408.8,407.6,408.7,405.9,408z"/>
				<path fill-rule="evenodd" clip-rule="evenodd" fill="#1DA58D" d="M415.8,409.1c0.6-0.2,1.6-0.7,2.9-1.5c1.5-0.8,2.8-1.5,4-2.1
					l2-0.9c1.9-0.7,3.3-0.7,4.2,0c-1.9,1.4-4.1,2.7-6.3,3.9C420.3,409.8,418.1,410,415.8,409.1z"/>
				<path fill-rule="evenodd" clip-rule="evenodd" fill="#9F2420" d="M414.9,403.6l-1.8,0.8c-1.3,0.6-2.8,1.3-4.2,2.1
					c-1.2,0.8-2.2,1.3-3,1.5c-1.8,0.5-3.5,0.4-5.2-0.2c2.1-1,4-1.9,5.8-3C410.1,402.7,412.9,402.3,414.9,403.6z"/>
			</g>
		</g>
		<g>
			<g>
				<path fill-rule="evenodd" clip-rule="evenodd" fill="#1DA58D" d="M379.7,407c0.6-0.3,1.4-0.9,2.5-1.8c1.3-1,2.5-1.8,3.5-2.5
					l1.8-1c1.7-0.8,3.2-0.9,4.5-0.1c-2.3,1.4-4.4,2.9-6.5,4.5C383.6,407.3,381.7,407.7,379.7,407z"/>
				<path fill-rule="evenodd" clip-rule="evenodd" fill="#15806D" d="M374.6,406.9c0.4-0.2,0.8-0.4,1.1-0.6c1-0.5,1.9-1.2,2.9-1.9
					c1-0.7,1.8-1.3,2.6-1.8c0.6-0.4,1.2-0.7,1.7-0.9c0.2-0.1,0.4-0.1,0.5-0.2l0.2-0.1l-0.1,0.1c1.4-0.6,2.8-0.5,4.1,0.2l-1.8,1
					c-1,0.7-2.2,1.5-3.5,2.5c-1.1,0.9-1.9,1.5-2.5,1.8C378,407.7,376.3,407.6,374.6,406.9z"/>
				<path fill-rule="evenodd" clip-rule="evenodd" fill="#CE2F2B" d="M370.4,406.9c0.6-0.3,1.5-0.9,2.5-1.8c1.3-1,2.6-1.8,3.8-2.5
					l1.7-1c1.8-0.7,3.4-0.7,5-0.1c-0.2,0-0.3,0.1-0.5,0.2c-0.5,0.2-1,0.5-1.7,0.9c-0.8,0.5-1.6,1.1-2.6,1.8c-1,0.7-2,1.4-2.9,1.9
					c-0.4,0.3-0.8,0.5-1.1,0.6C373.3,407.3,371.9,407.3,370.4,406.9z"/>
				<path fill-rule="evenodd" clip-rule="evenodd" fill="#9F2420" d="M378.4,401.5l-1.7,1c-1.2,0.7-2.4,1.6-3.8,2.5
					c-1,0.9-1.9,1.5-2.5,1.8c-1.7,0.7-3.2,0.7-4.7,0.1c1.8-1,3.4-2.1,4.9-3.4C373.7,401.1,376.3,400.4,378.4,401.5z"/>
			</g>
		</g>
		<g>
			<g>
				<path fill-rule="evenodd" clip-rule="evenodd" fill="#CE2F2B" d="M362.6,400.9c1.5-0.6,2.9-0.5,4.2,0.3l-0.5,0.2
					c-0.4,0.2-1.2,0.7-2.4,1.7c-1.2,1-2.8,1.9-4.6,3c-1.3,0.3-2.5,0.2-3.8-0.4c0.6-0.3,1.3-0.8,2.2-1.6c1.1-0.8,2.2-1.6,3.3-2.4
					L362.6,400.9z"/>
				<path fill-rule="evenodd" clip-rule="evenodd" fill="#9F2420" d="M355.5,405.6c-1.5,0.6-2.9,0.4-4.3-0.5
					c1.6-0.7,3.2-1.6,4.5-2.8c2.7-2.2,5-2.7,6.9-1.5l-1.6,0.8c-1.1,0.7-2.2,1.5-3.3,2.4C356.9,404.8,356.1,405.4,355.5,405.6z"/>
				<path fill-rule="evenodd" clip-rule="evenodd" fill="#15806D" d="M363.6,406.4c-1.5,0.6-2.8,0.5-4.2-0.3c1.9-1,3.4-2,4.6-3
					c1.2-1,2-1.6,2.4-1.7l0.5-0.2c0,0,0.1,0,0.1,0c1.2-0.5,2.4-0.3,3.6,0.4l-1.7,1c-0.9,0.6-1.9,1.4-3,2.3
					C364.8,405.6,364.1,406.2,363.6,406.4z"/>
				<path fill-rule="evenodd" clip-rule="evenodd" fill="#1DA58D" d="M370.6,401.6c1.4-0.7,2.4-0.6,3.2,0.3c-1.6,1.2-3.3,2.5-5.1,4
					c-1.6,1.1-3.3,1.3-5.1,0.5c0.5-0.2,1.2-0.7,2.2-1.5c1.1-0.9,2.2-1.6,3-2.3L370.6,401.6z"/>
			</g>
		</g>
		<g>
			<g>
				<path fill-rule="evenodd" clip-rule="evenodd" fill="#1DA58D" d="M458.6,407.8c0.9-0.3,2.3-1,4.2-1.9c1.9-1,3.6-1.8,5.1-2.4
					l2.2-1c2.8-0.8,5.1-0.9,7-0.2c-3.4,1.4-6.6,2.8-9.8,4.2C464.6,407.9,461.7,408.3,458.6,407.8z"/>
				<path fill-rule="evenodd" clip-rule="evenodd" fill="#15806D" d="M458.6,407.8c-2.5,0.7-5,0.8-7.5,0.1c0.4-0.2,1.3-0.4,2.6-0.9
					c1.3-0.5,2.6-1,4-1.7c1.3-0.7,2.3-1.1,2.9-1.4c0.6-0.3,1.2-0.5,1.8-0.7c0.6-0.2,1.1-0.3,1.5-0.4c0.4-0.1,0.6-0.2,0.4-0.2
					c2-0.6,3.9-0.6,5.8-0.2l-2.2,1c-1.5,0.6-3.2,1.4-5.1,2.4C460.9,406.8,459.5,407.4,458.6,407.8z"/>
				<path fill-rule="evenodd" clip-rule="evenodd" fill="#CE2F2B" d="M456.4,402.8c3.6-0.9,6.2-0.9,8-0.2c0.2,0,0,0.1-0.4,0.2
					c-0.5,0.1-1,0.2-1.5,0.4c-0.6,0.2-1.2,0.4-1.8,0.7c-0.6,0.2-1.6,0.7-2.9,1.4c-1.3,0.7-2.7,1.3-4,1.7c-1.3,0.4-2.2,0.7-2.6,0.9
					c-2.1,0.6-4.3,0.7-6.5,0.2c0.6-0.2,1.8-0.7,3.7-1.7c1.8-0.9,3.7-1.7,5.6-2.5L456.4,402.8z"/>
				<path fill-rule="evenodd" clip-rule="evenodd" fill="#9F2420" d="M444.6,408.1c-2.4,0.6-4.8,0.6-7.3-0.1c2.9-0.8,5.4-1.8,7.6-3
					c4.6-2.3,8.4-3.1,11.5-2.2l-2.5,1.1c-1.9,0.8-3.8,1.6-5.6,2.5C446.5,407.4,445.2,407.9,444.6,408.1z"/>
			</g>
		</g>
		<g>
			<g>
				<path fill-rule="evenodd" clip-rule="evenodd" fill="#15806D" d="M436,408.7c-2,0.9-3.9,1-5.7,0.5c-0.1,0,0.3-0.2,1-0.6
					c0.7-0.3,2.2-1.1,4.4-2.4c2.2-1.3,3.8-2.2,5-2.8c1.5-0.5,3-0.6,4.5-0.1l-1.7,1.1c-1.6,1-3.1,1.9-4.5,2.9
					C437.4,408.1,436.4,408.6,436,408.7z"/>
				<path fill-rule="evenodd" clip-rule="evenodd" fill="#1DA58D" d="M445.1,403.2c2.2-0.9,4.2-1.1,5.9-0.5c-3,1.5-5.7,2.9-8.2,4.5
					c-2.2,1.4-4.5,1.9-6.8,1.4c0.5-0.1,1.4-0.6,2.9-1.5c1.5-0.9,3-1.9,4.5-2.9L445.1,403.2z"/>
				<path fill-rule="evenodd" clip-rule="evenodd" fill="#CE2F2B" d="M434.8,403.9c2.2-0.8,4.1-1,5.8-0.5c-1.1,0.6-2.8,1.5-5,2.8
					c-2.2,1.3-3.6,2.1-4.4,2.4c-0.8,0.4-1.1,0.6-1,0.6c-1.6,0.6-3.3,0.8-5,0.5c2.4-1.7,4.1-2.8,5-3.2
					C431.1,406,432.6,405.1,434.8,403.9z"/>
				<path fill-rule="evenodd" clip-rule="evenodd" fill="#9F2420" d="M425.2,409.6c-1.9,0.7-3.7,0.7-5.5,0.1
					c2.2-0.8,4.1-1.8,5.8-3.1c3.7-2.5,6.7-3.3,8.9-2.6h0.1c0.1,0,0.2-0.1,0.3-0.1c-2.2,1.3-3.7,2.1-4.6,2.5
					C429.3,406.8,427.6,407.9,425.2,409.6z"/>
			</g>
		</g>
	</g>
	<g>
		<g>
			
				<radialGradient id="SVGID_10_" cx="170.3506" cy="189" r="21.4495" gradientTransform="matrix(1.1465 0 0 1.212 347.7999 380.7753)" gradientUnits="userSpaceOnUse">
				<stop  offset="0" style="stop-color:#FFFFFF"/>
				<stop  offset="0.6824" style="stop-color:#FFFFFF;stop-opacity:0"/>
				<stop  offset="1" style="stop-color:#FFFFFF;stop-opacity:0"/>
			</radialGradient>
			<path fill-rule="evenodd" clip-rule="evenodd" fill="url(#SVGID_10_)" d="M567.8,609.3c0.1,0,0.1,0,0.2,0.1
				c0,0.1,0.1,0.2,0.1,0.2c0,0.1,0,0.1-0.1,0.2c-0.1,0-0.1,0.1-0.2,0.1c-15.4-1.9-31.8-1.7-49.1,0.6c-0.1,0-0.2,0-0.2-0.1
				c-0.1,0-0.1-0.1-0.1-0.2c0-0.1,0-0.2,0.1-0.3c0-0.1,0.1-0.1,0.2-0.1C535.9,607.5,552.3,607.4,567.8,609.3z"/>
			
				<radialGradient id="SVGID_11_" cx="229.9375" cy="192.7002" r="27.9125" gradientTransform="matrix(1.1465 0 0 1.2118 347.7999 380.5794)" gradientUnits="userSpaceOnUse">
				<stop  offset="0" style="stop-color:#FFFFFF"/>
				<stop  offset="0.6824" style="stop-color:#FFFFFF;stop-opacity:0"/>
				<stop  offset="1" style="stop-color:#FFFFFF;stop-opacity:0"/>
			</radialGradient>
			<path fill-rule="evenodd" clip-rule="evenodd" fill="url(#SVGID_11_)" d="M579.4,612.2c0.1,0,0.2,0,0.2,0
				c11.4,4.5,32.6,5.5,63.7,3.1c0.1,0,0.2,0,0.2,0.1c0,0,0.1,0.1,0.1,0.2c0,0.1,0,0.2-0.1,0.2c0,0-0.1,0.1-0.2,0.1
				c-31.2,2.4-52.5,1.4-64-3.2c-0.1,0-0.1-0.1-0.1-0.2c0-0.1,0-0.2,0-0.2C579.3,612.3,579.3,612.2,579.4,612.2z"/>
			
				<radialGradient id="SVGID_12_" cx="203.8999" cy="180.7998" r="5.25" gradientTransform="matrix(1.1465 0 0 1.212 347.7999 381.3053)" gradientUnits="userSpaceOnUse">
				<stop  offset="0" style="stop-color:#FFFFFF"/>
				<stop  offset="0.6824" style="stop-color:#FFFFFF;stop-opacity:0"/>
				<stop  offset="1" style="stop-color:#FFFFFF;stop-opacity:0"/>
			</radialGradient>
			<path fill-rule="evenodd" clip-rule="evenodd" fill="url(#SVGID_12_)" d="M584.2,592.8c0-0.1,0.1-0.1,0.2-0.1s0.2,0,0.2,0.1
				c0,0,0.1,0.1,0.1,0.2c0,0.1,0,0.2-0.1,0.3c-2.2,2.6-3.1,4.9-2.8,6.9c0.4,2,2,3.7,4.9,5.1c0.1,0,0.1,0.1,0.2,0.2c0,0,0,0.1,0,0.2
				c0,0.1-0.1,0.1-0.2,0.2c-0.1,0-0.2,0-0.2,0c-3.1-1.5-4.9-3.4-5.3-5.5C580.9,598,581.8,595.5,584.2,592.8z"/>
			
				<radialGradient id="SVGID_13_" cx="239.2627" cy="185.0498" r="27.2376" gradientTransform="matrix(1.1465 0 0 1.2117 347.7999 381.0825)" gradientUnits="userSpaceOnUse">
				<stop  offset="0" style="stop-color:#FFFFFF"/>
				<stop  offset="0.6824" style="stop-color:#FFFFFF;stop-opacity:0"/>
				<stop  offset="1" style="stop-color:#FFFFFF;stop-opacity:0"/>
			</radialGradient>
			<path fill-rule="evenodd" clip-rule="evenodd" fill="url(#SVGID_13_)" d="M590.9,607.1c-0.1,0-0.1-0.1-0.2-0.2
				c0-0.1-0.1-0.2-0.1-0.2c0-0.1,0-0.1,0.1-0.2c0.1,0,0.2-0.1,0.2-0.1c22.1,3.6,42.9,2.6,62.3-3.1c0.1,0,0.2,0,0.2,0.1
				c0,0,0.1,0.1,0.1,0.2c0,0.1,0,0.2,0,0.2c-0.1,0-0.1,0.1-0.2,0.1C633.9,609.7,613.1,610.7,590.9,607.1z"/>
			
				<radialGradient id="SVGID_14_" cx="245.5996" cy="177.8999" r="20.3505" gradientTransform="matrix(1.1465 0 0 1.2113 347.7999 381.6242)" gradientUnits="userSpaceOnUse">
				<stop  offset="0" style="stop-color:#FFFFFF"/>
				<stop  offset="0.6824" style="stop-color:#FFFFFF;stop-opacity:0"/>
				<stop  offset="1" style="stop-color:#FFFFFF;stop-opacity:0"/>
			</radialGradient>
			<path fill-rule="evenodd" clip-rule="evenodd" fill="url(#SVGID_14_)" d="M606.2,600.5c-0.1,0-0.1,0-0.2-0.1
				c0-0.1-0.1-0.2-0.1-0.2c0-0.1,0-0.2,0.1-0.2c0.1,0,0.2-0.1,0.2-0.1c15.4,2.6,30.8,0.5,46.1-6.1c0.1,0,0.2,0,0.2,0
				c0.1,0,0.1,0,0.2,0.1c0,0.1,0,0.2,0,0.3c0,0.1-0.1,0.1-0.2,0.2C637.1,601,621.6,603.1,606.2,600.5z"/>
			
				<radialGradient id="SVGID_15_" cx="280.2998" cy="179.2539" r="10.597" gradientTransform="matrix(1.1465 0 0 1.2114 347.7999 381.5174)" gradientUnits="userSpaceOnUse">
				<stop  offset="0" style="stop-color:#FFFFFF"/>
				<stop  offset="0.6824" style="stop-color:#FFFFFF;stop-opacity:0"/>
				<stop  offset="1" style="stop-color:#FFFFFF;stop-opacity:0"/>
			</radialGradient>
			<path fill-rule="evenodd" clip-rule="evenodd" fill="url(#SVGID_15_)" d="M671.2,585.7c0,0,0.1,0.1,0.2,0.2
				c3.1,5.8,4.3,10.9,3.6,15.2c-0.7,4.3-3.2,7.8-7.6,10.5c-0.1,0-0.2,0-0.2,0c-0.1,0-0.1-0.1-0.2-0.1c-0.1-0.1-0.1-0.2-0.1-0.2
				s0.1-0.1,0.2-0.2c4.2-2.6,6.6-6,7.3-10.1c0.6-4.2-0.6-9.1-3.6-14.7c-0.1-0.1-0.1-0.2-0.1-0.3c0-0.1,0.1-0.1,0.2-0.2
				C671,585.7,671.1,585.7,671.2,585.7z"/>
			
				<radialGradient id="SVGID_16_" cx="275.0498" cy="196.5" r="10.8" gradientTransform="matrix(1.1465 0 0 1.2115 347.7999 380.3736)" gradientUnits="userSpaceOnUse">
				<stop  offset="0" style="stop-color:#FFFFFF"/>
				<stop  offset="0.6824" style="stop-color:#FFFFFF;stop-opacity:0"/>
				<stop  offset="1" style="stop-color:#FFFFFF;stop-opacity:0"/>
			</radialGradient>
			<path fill-rule="evenodd" clip-rule="evenodd" fill="url(#SVGID_16_)" d="M671.4,611.6c0-0.1,0.1-0.1,0.2-0.1
				c0.1,0,0.2,0,0.2,0.1c0,0,0.1,0.1,0.1,0.2c-0.2,8.4-7.6,12.7-22,12.8c-0.1,0-0.1,0-0.2-0.1c-0.1-0.1-0.1-0.2-0.1-0.2
				s0-0.1,0.1-0.2c0-0.1,0.1-0.2,0.2-0.2c14-0.1,21.1-4.2,21.4-12.2C671.3,611.7,671.3,611.6,671.4,611.6z"/>
			
				<radialGradient id="SVGID_17_" cx="105.8008" cy="168.5" r="7.5494" gradientTransform="matrix(1.1465 0 0 1.213 347.7999 381.9558)" gradientUnits="userSpaceOnUse">
				<stop  offset="0" style="stop-color:#FFFFFF"/>
				<stop  offset="0.6824" style="stop-color:#FFFFFF;stop-opacity:0"/>
				<stop  offset="1" style="stop-color:#FFFFFF;stop-opacity:0"/>
			</radialGradient>
			<path fill-rule="evenodd" clip-rule="evenodd" fill="url(#SVGID_17_)" d="M475.3,579.6c0,0.1,0,0.2-0.1,0.2l-11.8,13.4
				c-0.1,0-0.2,0.1-0.2,0.1c-0.1,0-0.1,0-0.2-0.1c-0.1-0.1-0.1-0.2-0.1-0.3c0-0.1,0-0.1,0.1-0.2l11.8-13.4c0-0.1,0.1-0.1,0.2-0.1
				c0.1,0,0.2,0,0.2,0.1C475.3,579.4,475.3,579.5,475.3,579.6z"/>
			
				<radialGradient id="SVGID_18_" cx="100.7998" cy="188.8999" r="8.25" gradientTransform="matrix(1.1465 0 0 1.2125 347.7999 380.6809)" gradientUnits="userSpaceOnUse">
				<stop  offset="0" style="stop-color:#FFFFFF"/>
				<stop  offset="0.6824" style="stop-color:#FFFFFF;stop-opacity:0"/>
				<stop  offset="1" style="stop-color:#FFFFFF;stop-opacity:0"/>
			</radialGradient>
			<path fill-rule="evenodd" clip-rule="evenodd" fill="url(#SVGID_18_)" d="M458.7,600.9c0.1,0,0.1,0.1,0.2,0.2c0,0.1,0,0.2,0,0.2
				c-1.5,3.5-1.5,6.6,0.1,9.1c1.6,2.6,4.7,4.8,9.3,6.4c0.1,0,0.1,0,0.2,0.1c0,0.1,0,0.2,0,0.3c0,0.1-0.1,0.1-0.2,0.2
				c-0.1,0-0.1,0-0.2,0c-4.8-1.8-8-4-9.6-6.7c-1.7-2.7-1.7-5.9-0.2-9.7c0-0.1,0-0.2,0.1-0.2C458.5,600.9,458.6,600.9,458.7,600.9z"
				/>
			
				<radialGradient id="SVGID_19_" cx="138.6299" cy="180.5" r="9.85" gradientTransform="matrix(1.1465 0 -6.547356e-002 0.9865 345.8824 422.0388)" gradientUnits="userSpaceOnUse">
				<stop  offset="0" style="stop-color:#FFFFFF"/>
				<stop  offset="0.6824" style="stop-color:#FFFFFF;stop-opacity:0"/>
				<stop  offset="1" style="stop-color:#FFFFFF;stop-opacity:0"/>
			</radialGradient>
			<path fill-rule="evenodd" clip-rule="evenodd" fill="url(#SVGID_19_)" d="M495,589.9c0.1,0,0.2,0.1,0.2,0.2c0,0,0,0.1-0.1,0.2
				c-1.8,5.3-2.1,9.4-0.9,12.4c1.2,2.9,4,4.6,8.3,5.1c0.1,0,0.1,0,0.2,0.1c0,0.1,0.1,0.2,0.1,0.3c0,0,0,0.1-0.1,0.1
				c-0.1,0-0.1,0.1-0.2,0.1c-4.5-0.6-7.4-2.4-8.7-5.4c-1.3-3-1-7.2,0.9-12.7c0-0.1,0.1-0.2,0.2-0.2
				C494.9,589.9,494.9,589.9,495,589.9z"/>
			
				<radialGradient id="SVGID_20_" cx="181.25" cy="200.9502" r="56.45" gradientTransform="matrix(1.1465 0 0 1.2118 347.7999 380.0391)" gradientUnits="userSpaceOnUse">
				<stop  offset="0" style="stop-color:#FFFFFF"/>
				<stop  offset="0.6824" style="stop-color:#FFFFFF;stop-opacity:0"/>
				<stop  offset="1" style="stop-color:#FFFFFF;stop-opacity:0"/>
			</radialGradient>
			<path fill-rule="evenodd" clip-rule="evenodd" fill="url(#SVGID_20_)" d="M490.9,622.6c-0.1,0-0.1,0-0.2-0.1
				c-0.1-0.1-0.1-0.2-0.1-0.2c0-0.1,0-0.1,0.1-0.2c0-0.1,0.1-0.2,0.2-0.2l129.4,2.4c0.1,0,0.2,0,0.2,0.1c0,0,0.1,0.1,0.1,0.1
				c0,0.1,0,0.2-0.1,0.2c-0.1,0-0.2,0.1-0.2,0.1L490.9,622.6z"/>
		</g>
	</g>
	<g>
		<g>
			
				<linearGradient id="SVGID_21_" gradientUnits="userSpaceOnUse" x1="3.167" y1="-69.3984" x2="1.6137" y2="-136.0303" gradientTransform="matrix(1.1465 0 0 1.1465 347.7999 393.1505)">
				<stop  offset="3.921569e-003" style="stop-color:#82715F"/>
				<stop  offset="1" style="stop-color:#5C453F"/>
			</linearGradient>
			<path fill-rule="evenodd" clip-rule="evenodd" fill="url(#SVGID_21_)" d="M349.5,311.6c-0.2-0.6-0.4-1.2-0.5-1.9c0,0,0-0.1,0-0.2
				c0-0.2,0-0.4-0.1-0.7l-0.5-63.9v-0.1c0-0.2,0-0.4,0.1-0.5c0-0.3,0.2-0.5,0.3-0.7c0.3-0.3,0.6-0.5,1-0.5c0.3-0.1,0.7,0,1,0.3
				c0.3,0.3,0.4,0.6,0.4,1.1l2.3,63.9c0,0.2,0,0.3,0,0.4l0.1,0.4c0,0.2,0,0.4-0.1,0.6c0,0.2-0.1,0.4-0.1,0.6
				c-0.1,0.4-0.3,0.8-0.5,1.2c-0.4,0.6-0.9,1-1.5,1.1H351c-0.5-0.2-0.9-0.5-1.3-0.9C349.6,311.8,349.6,311.7,349.5,311.6z"/>
			
				<linearGradient id="SVGID_22_" gradientUnits="userSpaceOnUse" x1="-820.25" y1="-91.7754" x2="818.1501" y2="-91.7754" gradientTransform="matrix(1.1465 0 0 1.1465 347.7999 393.1505)">
				<stop  offset="0" style="stop-color:#F5F3F1"/>
				<stop  offset="1" style="stop-color:#CEC6C2"/>
			</linearGradient>
			<path fill-rule="evenodd" clip-rule="evenodd" fill="url(#SVGID_22_)" d="M349.5,311.6c-0.3-0.5-0.4-1-0.5-1.5l-0.1,20.8
				l-1.1-70.3l0.7-15.8l0.5,63.9c0,0.3,0.1,0.5,0.1,0.7c0,0.1,0,0.2,0,0.2C349.1,310.4,349.3,311.1,349.5,311.6z"/>
			<path fill-rule="evenodd" clip-rule="evenodd" fill="#504038" d="M348.9,331l0.1-20.8c0.1,0.5,0.2,1,0.5,1.5
				c0,0.1,0.1,0.2,0.1,0.2c0.4,0.5,0.8,0.8,1.3,0.9h0.5c0.6-0.1,1.1-0.4,1.5-1.1c0.2-0.4,0.4-0.8,0.5-1.2c0-0.2,0.1-0.4,0.1-0.6
				v31.4c0,0.8-0.2,1.5-0.6,2.2c-0.5,0.7-1,1.1-1.7,1.1c-0.4,0-0.8-0.1-1.1-0.4c-0.2-0.2-0.4-0.3-0.5-0.6c-0.3-0.5-0.5-1-0.6-1.7
				L348.9,331z"/>
		</g>
	</g>
	<g>
		
			<path fill-rule="evenodd" clip-rule="evenodd" fill="none" stroke="#363636" stroke-linecap="round" stroke-linejoin="round" stroke-miterlimit="3" stroke-opacity="0.498" d="
			M346.5,317.9c-0.2,0.6-0.8,1.5-1.8,2.6c-1,1.1-1.8,2-2.5,2.7l-1.1,1.5 M340.3,330.4c0-0.2,0.3-0.5,0.7-0.9
			c0.4-0.4,1.1-1.1,1.9-2.2c0.8-1,1.5-2,2-2.8c0.5-0.8,0.8-1.4,1-1.7 M339.8,335.1l3.6-3.8c1.1-1.3,1.8-2.1,2-2.6 M344.4,337.6
			c-0.3,0.3-0.8,0.5-1.5,0.8c-0.6,0.3-1.6,0.8-3,1.4c-0.1,0-0.2,0.1-0.3,0.1l-1.4,0.7 M337.8,344c0.2-0.2,0.6-0.4,1-0.7
			c0.4-0.2,0.9-0.4,1.4-0.6c0.5-0.3,1.2-0.7,2.4-1.2c1.1-0.5,1.6-0.9,1.7-1.1 M345.1,332.7c-0.4,1.5-1.9,2.8-4.7,3.7
			c-0.5,0.2-0.9,0.4-1.3,0.6 M344.4,343.8c-0.1,0.2-0.7,0.6-1.8,1c-1.1,0.4-2.3,0.8-3.3,1.3l-1.3,0.6 M337.2,348.8
			c0.3-0.2,0.8-0.4,1.5-0.5c2.1-0.2,4-1.2,5.9-2.8 M342.9,349.6c-0.3,0.3-1.1,0.5-2.1,0.6c-1.1,0.1-2.5,0.4-4.1,1 M340.1,360.5
			c-0.3,0.3-0.9,0.7-2,1.3c-1.1,0.5-2.1,0.9-3,1.4l-0.7,0.4 M335.4,357l1.3-0.3c0.9-0.2,1.9-0.4,3-0.6c1.1-0.2,1.9-0.3,2.1-0.4
			 M341.7,357.8c-0.3,0.6-0.9,1-1.8,1.2c-1.8,0.2-3.6,0.6-5.3,1.3 M342.4,352.4c-1.4,0.7-2.8,1.2-4.2,1.5c-1.3,0.2-2.2,0.4-2.7,0.6
			 M334.2,372.5c0.3-0.3,0.7-0.6,1.2-0.7c0.5-0.2,1-0.3,1.4-0.5c0.2-0.1,0.5-0.2,0.7-0.3c1.1-0.6,2.2-1.5,3.2-2.8 M339.8,372.5
			c-0.7,0.6-1.5,1.3-2.5,2c-0.9,0.9-1.6,1.7-2.1,2.4l-0.7,1.3 M340.3,366.7c-0.2,0.2-0.9,0.5-2,0.9c-1,0.4-1.9,0.9-2.8,1.3l-1.1,0.5
			 M333.9,367.2l0.4-0.3c0.6-0.5,1.4-1,2.5-1.4c1.1-0.4,2.2-1.1,3.4-2.2 M340.5,385.1c-0.2,0.2-0.4,0.5-0.7,0.7
			c-1.5,1.2-2.9,2.8-4.2,4.8 M340.1,387.8c-1.2,2.3-1.9,3.7-2.1,4.5l-0.3,1.3 M335.6,386l1-1.1c0.6-0.6,1.2-1.3,1.9-1.9
			c1.1-1,1.7-1.7,1.8-1.9 M339.4,397.1c0.2,0,0.5-0.6,1-1.7c0.6-1.5,1.1-2.5,1.3-3.3c0.2-0.7,0.2-1.2,0.3-1.5 M334.8,382.4
			c0.2-0.1,0.9-0.9,2.2-2.4c1.3-1.5,2.2-2.7,2.5-3.6 M348.3,397.9c-0.8,0.8-1.6,1.7-2.5,2.6c-0.7,0.9-1.1,1.6-1.3,2.1 M346.3,396.5
			c-0.1,0.2-0.2,0.3-0.3,0.4c-0.8,0.7-2,2.5-3.6,5.3 M344.2,394.2c0,0.4-0.3,1.1-1,2.1c-0.7,1-1.3,2.2-1.8,3.5 M634.3,435.9
			l-1.9-1.3c-1.2-0.7-2.5-1.2-4.1-1.6c-1.5-0.4-3.5-1.3-5.9-2.7c0.8,0.3,1.7,0.4,2.6,0.3c2.2-0.2,4.4,0,6.6,0.6 M634,445.4
			c0.6,0.5,1.3,0.9,2.1,1.2c2.7,1.2,5.1,2.8,7.1,4.6 M631,440.7c0.4,0.4,1.4,1,3,1.7c1.5,0.7,2.8,1.4,4.1,2.1l1.9,1.1 M627.8,435.3
			c0,0,0.7,0.4,2,1.3c1.3,0.9,3.7,2.3,7.5,4.4 M645.9,466.6l-1.3-1.3c-0.9-0.9-1.9-1.9-3-2.9c-1.2-0.9-1.9-1.6-2.2-2.1 M643.9,456
			l-1.3-1.5c-1-1.2-1.9-2.2-2.8-3c-0.9-0.8-1.6-1.5-2.3-2 M638.3,454.4c0.2,0.3,0.5,0.7,0.8,1c1,1.4,2.2,2.8,3.6,4.1
			c1.4,1.3,2.2,2,2.3,2.2 M647.2,477.8l-1.1-1.7c-0.3-0.5-1.1-1.5-2.3-2.9s-1.9-2.5-2.1-3 M646.9,472.4c-1.8-2.2-3.6-4-5.3-5.6
			c-0.2-0.2-0.4-0.4-0.6-0.6 M641.9,475.2c0.9,1.6,1.5,2.6,1.8,3.1c0.3,0.5,0.7,1.1,1.3,1.9c0.6,0.7,1.4,1.8,2.5,3.2 M648,488.6
			c-1.6-1.7-2.8-3.2-3.7-4.4c-1-1.2-1.6-2.1-2-2.9 M648.5,494.2c-0.5-1-1.2-1.9-2.1-2.8c-1.4-1.4-2.6-3.1-3.7-5.2 M643.4,492.3
			c0.3,0.6,1,1.6,2.1,2.9c1.1,1.3,2,2.3,2.7,3.1l1.2,1.7 M644.6,503.5c0.3,0.5,1.1,1.5,2.5,3c1.3,1.5,2.2,2.4,2.5,2.8l1.3,1.7
			 M643.9,497.4c0.2,0.4,0.7,1.1,1.4,2.2c0.7,1.1,1.4,2,2.1,2.7c0.7,0.7,1.1,1.1,1.4,1.4c0.2,0.3,0.5,0.7,0.9,1.3
			c0.1,0.2,0.2,0.5,0.4,0.7 M601.9,422.4c0.5-0.2,1.4-0.8,2.5-1.7c1.1-0.8,2.3-1.6,3.4-2.3l1.5-1 M596.2,421.9
			c2.3-1,4.1-1.9,5.4-2.9c1.3-1,2.4-1.7,3.4-2l0.8-0.3 M604.1,422.9c1.8,0,3.7-0.7,5.7-2.2c2.3-1.7,4-2.3,5.3-1.8 M594,416.3
			c-1,0.3-2,0.9-3,1.7c-1.4,1.2-3.7,2.5-6.8,3.8 M583.5,415.3c-0.4,0.2-0.9,0.6-1.5,1.1c-2.9,2.2-5.3,3.6-7.1,4.2 M580.7,421.2
			c0.6-0.2,1.6-0.7,2.9-1.4c1.2-0.8,2.8-2,4.6-3.6 M599.1,416.7l-1.7,1c-1.1,0.5-2.2,1.3-3.3,2.2c-1.2,0.9-2.1,1.5-2.6,1.6
			 M627.2,427.7l-4.1,0.2c-1.5,0.1-3,0.1-4.4-0.1 M614.1,424.4c0.8,0.1,1.9,0.3,3.2,0.5c1.3,0.2,2.6,0.2,4,0.2
			c1.4-0.1,2.1-0.1,2.2-0.1 M618.9,422l-1.9-0.2c-1.1-0.2-2.4-0.2-3.8-0.2c-1.4,0.2-2.8,0.7-4.2,1.6 M572.2,415.4
			c-2.3,1.6-4.3,3.1-6,4.5c-1,0.7-2.1,1.1-3.3,1.2 M559.6,420.5c0.5-0.2,1.3-0.8,2.3-1.8c1-0.8,2-1.5,3-2.2l1.4-1 M553.8,420
			c0.3-0.1,1-0.5,2.1-1.2c1-0.8,2.1-1.5,3.1-2.3c1-0.8,1.7-1.2,2.1-1.3c0.3-0.1,0.5-0.2,0.6-0.2 M570.2,420.3
			c0.5-0.1,1.4-0.6,2.5-1.3c1.1-0.8,2.9-1.9,5.2-3.4 M540.4,414.5c-1.3,1-2.6,2.1-4,3.2c-1.4,1.1-2.7,1.9-4,2.2 M538.3,419.9
			c0.4-0.2,1-0.6,1.8-1.3c0.8-0.8,2-1.7,3.6-2.8l1.5-1.1 M550.8,414.6c-2.3,1.6-4.3,3.2-6.1,4.7c-0.8,0.7-1.8,1.1-2.8,1.3
			 M555.8,414.9l-1.6,1c-1.4,0.8-2.5,1.6-3.3,2.4c-0.8,0.8-1.5,1.2-2.1,1.4 M647.2,519.4c0.2,0.4,0.6,0.9,1.1,1.7
			c0.5,0.7,1,1.4,1.7,2.1c0.6,0.6,1.3,1.3,1.9,2c0.6,0.7,1.1,1.3,1.5,1.8c0.2,0.2,0.3,0.5,0.5,0.7l0.1,0.1c0,0,0.1,0.1,0.1,0.2
			c0.8,1.6,1.1,3.3,0.9,5l-1.4-1.7c-0.9-1.1-1.9-2.2-3.1-3.3c-1.1-1.1-1.8-2-2.2-2.5 M652.8,521.8l-1.3-1.6c-0.9-1.1-1.9-2.3-3-3.4
			c-1.2-1.1-1.9-2-2.2-2.6 M651.7,516.3c-0.6-1-1.4-2-2.5-3c-1.4-1.4-2.7-3-3.9-5 M656.2,538.2c-0.7-0.9-1.5-1.8-2.5-2.7
			c-1.6-1.4-3-3.1-4.4-5 M650.8,536.4c0.5,0.7,1.4,1.6,2.7,2.9c1.3,1.2,2.4,2.3,3.1,3.1l1.5,1.7 M652.2,541.5c0.2,0.4,0.7,1,1.4,1.9
			c0.7,0.8,1.5,1.6,2.4,2.4c0.9,0.7,1.5,1.3,1.9,1.8c0.4,0.5,0.8,1,1.3,1.5c0.2,0.2,0.4,0.6,0.7,1 M662.9,560.9
			c-2-2.3-4.1-4.5-6.1-6.4c-0.7-0.7-1.2-1.3-1.6-2.1 M656.7,557.9c0.3,0.6,1.1,1.5,2.4,2.6c1.3,1.1,2.4,2.3,3.4,3.4l1.5,1.7
			 M653.9,547.6c0.4,0.7,1.3,1.7,2.6,3c1.3,1.4,2.9,2.9,4.8,4.5 M668.9,584.5c-4.4-5.2-7-8.7-8-10.5 M659.8,569.3
			c0.3,0.6,1.6,2,3.7,4.1c2.1,2,3.3,3.1,3.7,3.3 M665.6,571.5c-1.7-1.9-2.9-3.2-3.6-4c-0.7-0.8-1.5-1.6-2.3-2.5
			c-0.8-0.9-1.3-1.5-1.5-1.9 M513.1,417.3c1.3-0.3,2.7-1,4.3-2.2c1.6-1.2,3-2.1,4.2-2.6 M525.9,413.2l-1.5,1
			c-0.9,0.6-1.9,1.4-3.1,2.2c-1.2,0.8-2.2,1.4-2.9,1.7 M508.6,416.7c0.6-0.1,1.5-0.6,2.8-1.5c1.2-0.9,2.3-1.6,3.3-2.2l1.7-0.9
			 M527.7,419.2c0.5-0.1,1.3-0.6,2.2-1.3c0.9-0.8,2.6-2,5-3.6 M522,418.7c1-0.1,1.9-0.5,2.9-1.1c2.1-1.3,4.2-2.7,6.3-4.1
			 M490.7,411.6c0.6-0.1,1.5-0.5,2.8-1.3c1.3-0.8,2.4-1.4,3.3-1.8l1.7-0.7 M503.7,409c-0.4,0.1-1.4,0.6-3,1.4
			c-1.6,0.8-2.8,1.4-3.4,1.7c-0.7,0.3-1.4,0.5-2.1,0.7 M500.5,414.1c0.7-0.2,1.7-0.6,2.9-1.3c1.1-0.8,2.2-1.4,3.1-1.9l1.5-0.8
			 M503.1,415.3c1,0.2,2,0,3-0.5c1.8-1.1,4.1-2.3,6.9-3.6 M494.1,406.6c-1.1,0.2-2.3,0.7-3.5,1.4c-1.5,1-3.2,1.9-5.2,2.7 M471.8,407
			c0.6-0.1,1.5-0.5,2.6-1.2c1.1-0.6,2.3-1.2,3.4-1.6l1.7-0.7 M464.4,402.7c0.2,0,0,0.1-0.4,0.2c-0.5,0.1-1,0.2-1.5,0.4
			c-0.6,0.2-1.2,0.4-1.8,0.7c-0.6,0.2-1.6,0.7-2.9,1.4c-1.3,0.7-2.7,1.3-4,1.7c-1.3,0.4-2.2,0.7-2.6,0.9 M458.6,407.8
			c0.9-0.3,2.3-1,4.2-1.9c1.9-1,3.6-1.8,5.1-2.4l2.2-1 M481.5,409.5c0.5-0.1,1.3-0.5,2.4-1.2c1.2-0.7,2.9-1.5,5-2.5 M484.6,404.6
			c-3.6,1.8-5.7,2.8-6.2,3c-0.5,0.2-1.2,0.4-2.1,0.6 M468,406.3c3-1.4,6-2.7,9.2-4 M456.4,402.8l-2.5,1.1c-1.9,0.8-3.8,1.6-5.6,2.5
			c-1.8,0.9-3.1,1.5-3.7,1.7 M436,408.7c0.3-0.1,0.7-0.3,1.4-0.6c0.4-0.3,0.9-0.6,1.4-0.9c1.5-0.9,3-1.9,4.5-2.9l1.7-1.1
			 M450.9,402.8c-3,1.4-5.7,2.9-8.1,4.4c-0.9,0.6-1.8,1-2.7,1.3 M434.4,404c-2,1.2-3.4,2-4.2,2.4c-0.9,0.4-2.6,1.5-5,3.2
			 M430.2,409.1c-0.1,0,0.3-0.2,1-0.6c0.7-0.3,2.2-1.1,4.4-2.4c2.2-1.3,3.8-2.2,5-2.8 M419.7,409.7c0.2-0.1,0.4-0.1,0.6-0.2
			c2-0.8,3.7-1.8,5.2-2.9c1.2-0.8,2.3-1.4,3.4-1.9 M415.8,409.1c0.6-0.2,1.6-0.7,2.9-1.5c1.5-0.8,2.8-1.5,4-2.1l2-0.9 M420.4,404.1
			l-0.7,0.2c-0.5,0.1-1.1,0.3-1.8,0.7c-0.8,0.3-1.7,0.8-2.6,1.3c-1,0.5-1.8,0.9-2.6,1.3c-0.8,0.4-1.5,0.7-2.2,0.9 M400.8,407.8
			c2.1-1,4-1.9,5.8-3c1.6-1,3.1-1.6,4.4-1.8c1.6-0.3,2.9-0.1,4,0.6l-1.8,0.8c-1.3,0.6-2.8,1.3-4.2,2.1c-1.2,0.8-2.2,1.3-3,1.5
			 M396.5,401.9l-1.8,0.8c-1.8,0.8-3.2,1.6-4.3,2.4c-1.1,0.7-2,1.2-2.8,1.4 M392.1,406.9c0.8-0.3,1.5-0.6,2.1-0.9
			c0.6-0.3,1.4-0.8,2.5-1.4c1-0.6,1.9-1.1,2.8-1.5c0.7-0.4,1.3-0.6,1.7-0.7c0.4-0.1,0.6-0.2,0.7-0.2 M397.4,407.3
			c0.6-0.2,1.5-0.7,2.8-1.5c1.5-0.9,2.8-1.6,3.9-2.2l2-0.8 M392.1,401.5c-2.3,1.4-4.4,2.9-6.5,4.5c-0.3,0.2-0.7,0.4-1,0.6
			 M383.4,401.5c-0.2,0-0.3,0.1-0.5,0.2c-0.5,0.2-1,0.5-1.7,0.9c-0.8,0.5-1.6,1.1-2.6,1.8c-1,0.7-2,1.4-2.9,1.9
			c-0.4,0.3-0.8,0.5-1.1,0.6 M379.7,407c0.6-0.3,1.4-0.9,2.5-1.8c1.3-1,2.5-1.8,3.5-2.5l1.8-1 M370.4,406.9c0.6-0.3,1.5-0.9,2.5-1.8
			c1.3-1,2.6-1.8,3.8-2.5l1.7-1 M363.6,406.4c0.5-0.2,1.2-0.7,2.2-1.5c1.1-0.9,2.2-1.6,3-2.3l1.7-1 M373.8,401.9
			c-1.6,1.2-3.3,2.5-5.1,4c-1,0.7-1.9,1-2.9,1 M359.4,406c1.9-1,3.4-2,4.6-3c1.2-1,2-1.6,2.4-1.7l0.5-0.2 M362.6,400.9l-1.6,0.8
			c-1.1,0.7-2.2,1.5-3.3,2.4c-0.9,0.8-1.7,1.3-2.2,1.6 M359.9,400.3c-1.3,0.2-2.6,0.9-4.1,2.1c-1.4,1.1-2.9,2-4.5,2.8 M351.7,398.7
			c-0.2,0.3-0.6,0.7-1,1.1c-0.5,0.4-0.9,0.8-1.2,1.3c-0.4,0.4-0.7,0.9-1.1,1.3c-0.3,0.4-0.8,0.7-1.3,1 M349.9,404.4
			c0.4-0.2,1-0.8,1.7-1.8c0.8-1,1.5-1.8,2.2-2.4c1-0.9,1.8-1.2,2.5-1.1 M348.7,311.5c-2,2.3-3.7,4-5,5.1"/>
	</g>
</g>
</svg>
