<?xml version="1.0" encoding="utf-8"?>
<!-- Generator: Adobe Illustrator 16.0.0, SVG Export Plug-In . SVG Version: 6.00 Build 0)  -->
<!DOCTYPE svg PUBLIC "-//W3C//DTD SVG 1.1//EN" "http://www.w3.org/Graphics/SVG/1.1/DTD/svg11.dtd">
<svg version="1.1" id="Layer_1" xmlns="http://www.w3.org/2000/svg" xmlns:xlink="http://www.w3.org/1999/xlink" x="0px" y="0px"
	 width="700px" height="700px" viewBox="0 0 700 700" enable-background="new 0 0 700 700" xml:space="preserve">
<g>
	<g>
		<path fill-rule="evenodd" clip-rule="evenodd" fill-opacity="0.149" d="M589.1,574.6l0.2,2.8c0,0.2,0,0.4-0.1,0.6l-5,19.2
			c0,0.2-0.1,0.3-0.2,0.5c-1.9,3-1.8,5.4,0.3,7.2c2.9,2.1,8.5,3.5,16.7,4.2c38.6,1.3,59.9-3.5,63.8-14.3c0.1-0.5,0.4-0.8,0.9-1
			c0.4-0.2,0.9-0.3,1.3-0.1c0.4,0.1,0.7,0.4,1,0.9c0.2,0.4,0.2,0.9,0.1,1.3c-3.9,12.5-26.3,18.1-67.3,16.7h-0.1
			c-9.2-0.8-15.4-2.5-18.6-5c-3.9-2.9-4.3-6.7-1.3-11.5l4.9-18.6l-0.3-2.8H589.1z M611.8,574.6h3.5l0.5,1.8c0.1,0.3,0.1,0.6,0,1
			c-0.1,0.3-0.3,0.6-0.6,0.7c-8.5,7-13,12.6-13.4,16.7c0,3.4,3.6,5.8,10.7,7c17,1.1,29.8-0.2,38.4-4.1c8-3.7,12-9.7,12-18
			c0-0.5,0.2-0.9,0.5-1.2c0.3-0.3,0.7-0.5,1.2-0.5c0.5,0,0.9,0.2,1.2,0.5c0.3,0.3,0.5,0.7,0.5,1.2c0,9.8-4.7,16.9-14,21.2
			c-8.9,4.1-22.3,5.5-40.1,4.4c0,0-0.1,0-0.2,0c-9.7-1.6-14.3-5.2-13.8-10.7c0.2-4.7,4.8-10.8,13.9-18.4L611.8,574.6z M579.2,617.1
			c-0.1,0-0.2-0.1-0.3-0.1c-16.3-5-33.4-5.8-51.4-2.2c-0.1,0-0.1,0-0.2,0c-15.3,1.2-25.5,0.2-30.6-2.9c-3.1-1.8-4.6-4.3-4.6-7.4
			c-0.1-2.8,1.2-6.2,3.8-10.1c0.3-0.4,1.9-4.1,4.9-11.2c3-7,4.4-9.4,4.2-7.2c-0.2,2.2-0.6,4.4-1.1,6.6c-0.5,2.2-2,5.8-4.6,10.9
			c-2.6,5.1-3.9,8.7-3.9,11c0.1,1.9,1.1,3.4,3,4.5c4.8,2.8,14.3,3.6,28.4,2.4c18.5-3.6,36.1-2.8,52.8,2.3
			c47.9,5.5,77.8,3.9,89.5-4.7c0.4-0.3,0.8-0.4,1.3-0.3c0.5,0,0.8,0.2,1.1,0.6c0.3,0.4,0.4,0.8,0.3,1.3c-0.1,0.5-0.3,0.8-0.7,1.1
			C659.2,620.9,628.5,622.7,579.2,617.1z M348.7,335.9c0.3,0.3,0.4,0.8,0.4,1.3c-0.8,14.3-2.8,28.6-6.1,42.7c0,0.2-0.1,0.5-0.3,0.7
			c-5.6,6.9-8.7,12.9-9.2,17.9c-0.4,4.7,1.5,8.5,5.7,11.5c9.4,6.5,29.3,9.4,59.6,8.5c0.1,0,0.2,0,0.2,0c22.7,2.4,44.9,2.9,66.4,1.4
			c0,0,0.1,0,0.1,0c10.4-0.2,19.3,0.8,26.9,3.1c40.4,7.3,78.9,11,115.7,11.1c0.1,0,0.2,0,0.3,0.1c26.8,4.2,42.1,22.7,45.8,55.3
			c0,0.1,0,0.2,0,0.2c-1.2,35.2,2.8,62.2,12.1,81.2c0.7,1.4,1.4,2.7,2,4.1c8.1,17.7,11.2,31.9,9.3,42.5
			c-0.9,6.5-15.6,10.3-44.2,11.5c-27.4,1.1-68,0-121.9-3.4c-24.3,0-40.6-2.4-48.9-7.2c-4.7-2.7-7.1-6.1-7.2-10.1
			c-0.3-3.8,1.7-8.3,5.8-13.3c0.1-0.2,0.3-0.3,0.5-0.3c8-4.9,13.1-11.4,15.3-19.4c0-0.2,0.1-0.4,0.1-0.6h3.5c-0.1,0.5-0.2,1-0.3,1.5
			c-2.4,8.8-7.9,15.9-16.6,21.3c-3.3,4.1-4.9,7.7-4.9,10.7c0.2,2.9,2,5.3,5.5,7.3c8,4.5,23.8,6.8,47.3,6.8c0,0,0.1,0,0.1,0
			c53.7,3.3,94.2,4.4,121.5,3.3c26.2-1.1,39.8-3.9,40.9-8.6c1.7-10.1-1.4-23.6-9.1-40.5c-0.6-1.3-1.3-2.6-1.9-4v-0.1
			c-9.5-19.3-13.7-46.9-12.4-82.5v-0.1c-3.5-30.7-17.7-48.1-42.8-52.3c-37-0.1-75.8-3.8-116.4-11.2c-0.1,0-0.1-0.1-0.2-0.1
			c-7.3-2.2-15.9-3.2-25.9-3h-0.1c-21.7,1.5-44,1-66.9-1.4c-31.3,0.9-51.8-2.2-61.5-9.2c-5.4-3.8-7.8-8.7-7.1-14.6
			c0.5-5.5,3.7-12,9.7-19.4c3.2-13.8,5.1-27.7,5.9-41.7c0-0.5,0.2-0.9,0.6-1.2c0.3-0.3,0.8-0.5,1.3-0.5
			C348,335.3,348.4,335.5,348.7,335.9z"/>
	</g>
	<g>
		<g>
			
				<linearGradient id="SVGID_1_" gradientUnits="userSpaceOnUse" x1="-55.9736" y1="-34.4658" x2="-51.6069" y2="-34.4658" gradientTransform="matrix(0.8205 0.8008 -1.2194 0.412 347.7996 393.1499)">
				<stop  offset="0" style="stop-color:#E7E3E3"/>
				<stop  offset="1" style="stop-color:#5B5B5B"/>
			</linearGradient>
			<path fill-rule="evenodd" clip-rule="evenodd" fill="url(#SVGID_1_)" d="M342.9,333h1.1h0.1c0,0,0,0.1,0,0.2c0,1.4,1,2.6,3,3.6
				c0.2,0.1,0.5,0.2,0.7,0.4v0.8c-0.6-0.2-1.1-0.5-1.7-0.7c-2-1-3-2.2-3.2-3.5c-0.1-0.1-0.1-0.2-0.1-0.3v-0.1
				C342.9,333.1,342.9,333,342.9,333z"/>
			
				<linearGradient id="SVGID_2_" gradientUnits="userSpaceOnUse" x1="-3.1875" y1="-51.7002" x2="8.750010e-002" y2="-51.7002" gradientTransform="matrix(1.1465 0 0 1.1465 347.7999 393.1505)">
				<stop  offset="0" style="stop-color:#2E2B2B"/>
				<stop  offset="0.4784" style="stop-color:#807878"/>
				<stop  offset="1" style="stop-color:#4F4A4A"/>
			</linearGradient>
			<path fill-rule="evenodd" clip-rule="evenodd" fill="url(#SVGID_2_)" d="M347.9,337.1c-0.3-0.2-0.5-0.3-0.7-0.4c-2-1-3-2.1-3-3.6
				c0-0.1,0-0.1,0-0.2c0-0.8,0.5-1.6,1.3-2.3c0.5,0.7,1.3,1.4,2.5,1.9V337.1z"/>
			
				<linearGradient id="SVGID_3_" gradientUnits="userSpaceOnUse" x1="39.2422" y1="-51.6523" x2="43.2188" y2="-51.6523" gradientTransform="matrix(1.0884 -0.3604 0.9024 0.9089 347.7996 393.1506)">
				<stop  offset="0" style="stop-color:#E7E3E3"/>
				<stop  offset="1" style="stop-color:#BEBEBE"/>
			</linearGradient>
			<path fill-rule="evenodd" clip-rule="evenodd" fill="url(#SVGID_3_)" d="M344,333h-1.1h-0.1v-0.1c0-0.2,0-0.4,0.1-0.6l2.4-1.7
				C344.5,331.4,344.1,332.1,344,333z"/>
		</g>
	</g>
	<g>
		<g>
			
				<linearGradient id="SVGID_4_" gradientUnits="userSpaceOnUse" x1="58.9019" y1="-23.4629" x2="61.3412" y2="-23.4629" gradientTransform="matrix(0.47 -1.0458 1.1737 0.1853 347.7995 393.1508)">
				<stop  offset="0" style="stop-color:#CCCCCC"/>
				<stop  offset="0.4078" style="stop-color:#FFFFFF"/>
				<stop  offset="0.7333" style="stop-color:#FFFFFF"/>
				<stop  offset="1" style="stop-color:#9B9B9B"/>
			</linearGradient>
			<polygon fill-rule="evenodd" clip-rule="evenodd" fill="url(#SVGID_4_)" points="349.2,327.2 347.9,327.2 347.9,325.5 
				347.9,324.6 349.1,324.6 			"/>
			
				<linearGradient id="SVGID_5_" gradientUnits="userSpaceOnUse" x1="-4.2627" y1="-55.7881" x2="6.230450e-002" y2="-55.7881" gradientTransform="matrix(1.1465 0 0 1.1465 347.7999 393.1505)">
				<stop  offset="0" style="stop-color:#2E2B2B"/>
				<stop  offset="0.1686" style="stop-color:#9C9B9B"/>
				<stop  offset="0.2863" style="stop-color:#E0DCDC"/>
				<stop  offset="0.5333" style="stop-color:#ABA9A9"/>
				<stop  offset="0.6824" style="stop-color:#FFFFFF"/>
				<stop  offset="0.7176" style="stop-color:#FFFFFF"/>
				<stop  offset="0.7961" style="stop-color:#C1BFBF"/>
				<stop  offset="1" style="stop-color:#4F4A4A"/>
			</linearGradient>
			<path fill-rule="evenodd" clip-rule="evenodd" fill="url(#SVGID_5_)" d="M347.9,328.4c-0.6,0.2-1.2,0.5-1.8,0.7
				c-0.4,0.2-0.7,0.4-1.1,0.6c-1.1,0.8-1.8,1.6-1.9,2.5c-0.1,0.2-0.1,0.4-0.1,0.5V330c0.1-1.4,1.1-2.7,3.2-3.8
				c0.6-0.3,1.2-0.5,1.8-0.7v1.7V328.4z"/>
			
				<linearGradient id="SVGID_6_" gradientUnits="userSpaceOnUse" x1="0.625" y1="-57.5249" x2="0.625" y2="-45.875" gradientTransform="matrix(1.1465 0 0 1.1465 347.7999 393.1505)">
				<stop  offset="0" style="stop-color:#CCCCCC"/>
				<stop  offset="1" style="stop-color:#404040"/>
			</linearGradient>
			<polygon fill-rule="evenodd" clip-rule="evenodd" fill="url(#SVGID_6_)" points="347.9,327.2 349.2,327.2 349.1,340.6 
				347.9,340.6 347.9,329.2 347.9,328.4 			"/>
			
				<linearGradient id="SVGID_7_" gradientUnits="userSpaceOnUse" x1="39.3218" y1="-52.6191" x2="43.2983" y2="-52.6191" gradientTransform="matrix(1.0884 -0.3604 0.9024 0.9089 347.7996 393.1506)">
				<stop  offset="0" style="stop-color:#E7E3E3"/>
				<stop  offset="1" style="stop-color:#BEBEBE"/>
			</linearGradient>
			<path fill-rule="evenodd" clip-rule="evenodd" fill="url(#SVGID_7_)" d="M343,332.3c0.2-0.9,0.8-1.8,1.9-2.5
				c0.3-0.2,0.7-0.4,1.1-0.6c0.6-0.3,1.2-0.5,1.8-0.7v0.8c-0.3,0.1-0.6,0.2-0.9,0.3c-0.5,0.3-1,0.6-1.3,0.9L343,332.3z"/>
		</g>
	</g>
	<g>
		<path fill-rule="evenodd" clip-rule="evenodd" fill="#930000" d="M598.5,598.1c-3.7-3.7-1.6-9.6,6.2-17.6c1.8-1.9,3.4-3.6,4.9-5.3
			h3c-1.8,2.1-3.9,4.4-6.2,6.9c-6.6,6.7-8.6,11.6-6.2,14.5c2.9,3,10.8,4.2,23.6,3.5c25.6-1.4,38.1-8.9,37.7-22.4
			c0-0.3,0.1-0.6,0.3-0.8c0.2-0.3,0.4-0.4,0.7-0.4s0.6,0.1,0.9,0.3c0.2,0.2,0.3,0.4,0.3,0.7c0.8,15.1-12.5,23.3-39.9,24.8
			C610.1,603.2,601.6,601.7,598.5,598.1z"/>
	</g>
	<g>
		<path fill-rule="evenodd" clip-rule="evenodd" fill="#930000" d="M592.2,573.8c-0.1,1.2-0.6,3.3-1.4,6.4c-0.8,3.1-2,6.2-3.4,9.3
			c-1.5,3.1-2.7,5.4-3.7,6.9c-1,1.5-1.3,3-0.8,4.5c0.7,1.5,2.4,2.8,5.3,3.8c6.5,2.2,18.2,3,35.1,2.5c16.7-0.5,28.7-2.9,35.9-7.3
			c6.8-4.2,9-10.1,6.7-17.9c-0.1-0.3,0-0.6,0.1-0.9c0.2-0.3,0.4-0.5,0.7-0.6c0.3-0.1,0.6,0,0.9,0.1c0.3,0.2,0.4,0.4,0.5,0.7
			c2.6,8.9,0.1,15.7-7.7,20.5c-7.4,4.5-19.7,7.1-37,7.6c-17.3,0.5-29.2-0.3-35.9-2.6c-3.7-1.3-6-3-6.7-5.2c-0.9-2.2-0.3-4.7,1.9-7.6
			h0c0,0,0-0.1,0.1-0.1c0.4-0.6,0.8-1.3,1.2-1.9h0c2.9-6.3,4.8-11.4,5.7-15.2c0.3-1.7,0.5-3.1,0.5-4.3c0-0.6,0-1.1-0.1-1.7h2.4
			C592.4,571.7,592.4,572.6,592.2,573.8z"/>
	</g>
	<g>
		<path fill-rule="evenodd" clip-rule="evenodd" fill="#23C8AA" d="M667.1,576.7c0.2,0.2,0.4,0.4,0.4,0.7s0,0.6-0.2,0.9
			c-2,2.7-0.7,10.7,3.9,23.9c2.6,7.4,2.1,12.9-1.5,16.6c-3.4,3.7-9.9,5.5-19.3,5.5c-50.5,0.3-93.4,0-128.8-0.9
			c-29.7,0.2-49.1-2.4-58.2-8c-5-3-7.3-6.8-6.6-11.4c0.5-4.4,3.6-9.5,9.4-15.2c5.4-5.5,9.7-10.3,13-14.4h2.9
			c-3.4,4.6-8.1,9.9-14.2,16.1c-5.3,5.3-8.2,9.9-8.7,13.9c-0.4,3.7,1.4,6.7,5.6,9.2c9,5.3,28,7.9,57,7.6h0.1
			c35.3,1,78.2,1.3,128.7,1c8.6,0,14.4-1.7,17.6-4.9c2.9-3.2,3.2-8,1-14.3c-5-14.4-6.2-23.1-3.5-26.1c0.2-0.3,0.4-0.4,0.7-0.5
			C666.5,576.4,666.8,576.5,667.1,576.7z"/>
	</g>
	<g>
		<g>
			
				<linearGradient id="SVGID_8_" gradientUnits="userSpaceOnUse" x1="275.8491" y1="-148.2632" x2="306.4593" y2="-148.2632" gradientTransform="matrix(0.5787 0.9898 -0.9992 0.5626 347.7997 393.1508)">
				<stop  offset="0" style="stop-color:#106858"/>
				<stop  offset="1" style="stop-color:#23C8AA"/>
				<stop  offset="1" style="stop-color:#000000"/>
			</linearGradient>
			<path fill-rule="evenodd" clip-rule="evenodd" fill="url(#SVGID_8_)" d="M659.9,614.7l-0.6-2.2c7.8-1.6,12.3-4.8,13.8-9.6
				c1.5-6-1.6-14.3-9.2-24.9c-0.2-0.3-0.2-0.6-0.2-0.9c0-0.3,0.2-0.6,0.5-0.7c0.2-0.2,0.5-0.2,0.9-0.2c0.3,0,0.6,0.2,0.7,0.5
				c8.1,11.4,11.3,20.4,9.5,26.8C673.9,609.1,668.8,612.8,659.9,614.7z"/>
			<path fill-rule="evenodd" clip-rule="evenodd" fill="#23C8AA" d="M654.8,613.1c0.3,0,0.1,0.2-0.5,0.7c-0.6,0.5-0.6,0.8,0.3,0.9
				c0.8,0,1.1,0.1,1,0.3c-0.1,0.2-0.3,0.3-0.6,0.3H655c-38.1,2.9-63.5,2.3-76.2-1.9c-13.4-4.4-32.9-5.3-58.5-2.8
				c-13.5,1.3-22.1-0.3-25.7-5c-3.9-4.7-2.8-12.4,3.4-23c1.7-2.9,3.1-5.6,4.3-8.1h2.6c-1.3,2.8-2.9,5.9-4.8,9.2
				c-5.5,9.5-6.7,16.3-3.6,20.5c3.4,4,11.3,5.4,23.7,4.1c26.1-2.6,46-1.6,59.6,2.9C592.1,615.4,617.2,616,654.8,613.1L654.8,613.1z"
				/>
			
				<linearGradient id="SVGID_9_" gradientUnits="userSpaceOnUse" x1="267.7998" y1="192.5498" x2="270.9998" y2="192.5498" gradientTransform="matrix(1.1465 0 0 1.1465 347.7999 393.1505)">
				<stop  offset="7.843138e-003" style="stop-color:#23C8AA"/>
				<stop  offset="1" style="stop-color:#1FB79B"/>
				<stop  offset="1" style="stop-color:#000000"/>
			</linearGradient>
			<path fill-rule="evenodd" clip-rule="evenodd" fill="url(#SVGID_9_)" d="M659.3,612.4l0.6,2.2c-1.6,0.3-3.2,0.6-4.9,0.7
				c0.3,0,0.5-0.2,0.6-0.3c0.1-0.2-0.2-0.3-1-0.3c-0.8,0-0.9-0.3-0.3-0.9c0.6-0.5,0.8-0.8,0.5-0.7
				C656.4,612.9,657.9,612.7,659.3,612.4z"/>
		</g>
	</g>
	<g>
		<g>
			<g>
				<path fill-rule="evenodd" clip-rule="evenodd" fill="#9F2420" d="M656.7,560.7c-1.2-1.6-1.7-3.5-1.6-5.7
					c1.4,1.9,2.9,3.5,4.5,4.8c3.2,2.7,4.6,5.4,4.4,8.1l-1.5-1.6c-1-1.1-2.1-2.1-3.4-3.2C657.9,562.1,657.1,561.2,656.7,560.7z"/>
				<path fill-rule="evenodd" clip-rule="evenodd" fill="#CE2F2B" d="M665.8,573.7c-0.1-0.1-0.1-0.1-0.2-0.2l-0.1-0.1
					c-1.7-1.8-2.9-3-3.6-3.8c-0.7-0.8-1.5-1.5-2.3-2.4c-0.8-0.8-1.3-1.4-1.5-1.8c-1-1.4-1.4-3-1.4-4.9c0.3,0.5,1.1,1.4,2.4,2.5
					c1.3,1.1,2.4,2.1,3.4,3.2l1.5,1.6C665.3,569.8,666,571.7,665.8,573.7z"/>
				<path fill-rule="evenodd" clip-rule="evenodd" fill="#15806D" d="M667.2,578.4c-0.4-0.2-1.6-1.2-3.7-3.2
					c-2.1-1.9-3.3-3.2-3.7-3.8c-1.2-1.6-1.8-3.6-1.7-5.8c0.2,0.3,0.7,0.9,1.5,1.8c0.8,0.8,1.6,1.6,2.3,2.4c0.7,0.8,1.9,2,3.6,3.8
					l0.1,0.1c0,0,0.1,0.1,0.2,0.2C666.8,575.2,667.3,576.8,667.2,578.4z"/>
				<path fill-rule="evenodd" clip-rule="evenodd" fill="#1DA58D" d="M659.8,571.4c0.4,0.6,1.6,1.9,3.7,3.8c2.1,1.9,3.3,3,3.7,3.2
					c1.3,1.8,1.9,4.3,1.8,7.4c-5.2-5.7-7.9-9.3-8.3-10.8C660.1,573.9,659.8,572.7,659.8,571.4z"/>
			</g>
		</g>
		<g>
			<g>
				<path fill-rule="evenodd" clip-rule="evenodd" fill="#9F2420" d="M647.2,485.2l-1.1-1.6c-0.3-0.5-1.1-1.4-2.3-2.8
					c-1.2-1.4-1.9-2.3-2.1-2.9c-0.8-1.5-0.9-3.4-0.3-5.6c1,1.9,2.1,3.5,3.4,4.8C647.3,479.7,648.1,482.4,647.2,485.2z"/>
				<path fill-rule="evenodd" clip-rule="evenodd" fill="#CE2F2B" d="M647.8,490.8c0-0.1-0.1-0.1-0.1-0.2l-0.1-0.1
					c-1.1-1.3-2-2.3-2.5-3.1c-0.6-0.7-1-1.3-1.3-1.8c-0.3-0.5-0.9-1.4-1.8-2.9c-0.6-1.3-0.7-2.9-0.2-4.8c0.2,0.5,0.9,1.5,2.1,2.9
					c1.2,1.4,2,2.3,2.3,2.8l1.1,1.6C648.2,486.9,648.4,488.8,647.8,490.8z"/>
				<path fill-rule="evenodd" clip-rule="evenodd" fill="#15806D" d="M648,495.4c-1.6-1.7-2.8-3.1-3.8-4.2c-0.9-1.1-1.6-2-2-2.7
					c-0.8-1.6-0.9-3.6-0.3-5.7c0.9,1.5,1.5,2.5,1.8,2.9c0.3,0.5,0.8,1.1,1.3,1.8c0.6,0.7,1.4,1.7,2.5,3.1l0.1,0.1
					c0,0,0.1,0.1,0.1,0.2C648.4,492.3,648.5,493.8,648,495.4z"/>
				<path fill-rule="evenodd" clip-rule="evenodd" fill="#1DA58D" d="M642.2,488.5c0.4,0.7,1.1,1.6,2,2.7c0.9,1.1,2.2,2.5,3.8,4.2
					c0.9,1.8,1.1,3.6,0.5,5.4c-1.1-1.6-2.5-3.4-4.2-5.4C642.5,493.5,641.8,491.1,642.2,488.5z"/>
			</g>
		</g>
		<g>
			<g>
				<path fill-rule="evenodd" clip-rule="evenodd" fill="#CE2F2B" d="M638.3,463.1c-0.8-1.2-1-2.7-0.8-4.6c0.6,0.4,1.4,1.1,2.3,1.9
					c0.9,0.8,1.8,1.8,2.8,2.9l1.3,1.4c1.1,1.5,1.5,3.3,1.3,5.4v0l-0.1-0.1c-0.1-0.2-0.9-0.9-2.4-2.1c-1.4-1.2-2.6-2.5-3.6-3.9
					C638.8,463.7,638.6,463.4,638.3,463.1z"/>
				<path fill-rule="evenodd" clip-rule="evenodd" fill="#15806D" d="M645.9,474.7l-1.3-1.3c-0.9-0.9-1.9-1.8-3-2.7
					c-1.2-0.9-1.9-1.5-2.2-1.9c-1-1.5-1.4-3.4-1-5.7c0.2,0.3,0.5,0.6,0.8,0.9c1,1.3,2.1,2.6,3.6,3.9c1.4,1.2,2.2,1.9,2.4,2.1
					l0.1,0.1c0.1,0.1,0.1,0.2,0.1,0.2C646,471.7,646.2,473.2,645.9,474.7z"/>
				<path fill-rule="evenodd" clip-rule="evenodd" fill="#9F2420" d="M637.5,458.4c-2.1-1.4-3.4-2.9-3.8-4.7
					c3.1,1.1,5.3,2.3,6.8,3.3c2.8,2.2,4,4.7,3.4,7.6l-1.3-1.4c-0.9-1.1-1.9-2.1-2.8-2.9C638.9,459.5,638.2,458.9,637.5,458.4z"/>
				<path fill-rule="evenodd" clip-rule="evenodd" fill="#1DA58D" d="M639.4,468.8c0.3,0.4,1.1,1.1,2.2,1.9c1.1,0.9,2.1,1.8,3,2.7
					l1.3,1.3c1.1,1.6,1.5,3.5,1.1,5.6c-1.8-2.1-3.6-3.9-5.4-5.4C639.9,473.3,639.2,471.3,639.4,468.8z"/>
			</g>
		</g>
		<g>
			<g>
				<path fill-rule="evenodd" clip-rule="evenodd" fill="#9F2420" d="M634.3,445.7l-1.9-1.1c-1.2-0.6-2.5-1.2-4.1-1.5
					s-3.5-1.2-6-2.6c1.9-1.6,3.8-2.1,5.7-1.3C631.8,440.7,633.9,442.9,634.3,445.7z"/>
				<path fill-rule="evenodd" clip-rule="evenodd" fill="#15806D" d="M627.8,445.1c0,0,0.7,0.4,2,1.2c1.3,0.8,3.8,2.2,7.5,4.1
					l0.1,0.1c0.1,0,0.2,0.1,0.2,0.1c1.3,1.2,2.1,2.6,2.4,4.2l-1.9-1c-1.2-0.7-2.6-1.4-4.1-2c-1.6-0.6-2.6-1.2-3-1.5
					c-1.6-1.2-2.6-2.9-3.1-5C627.9,445.2,627.8,445.2,627.8,445.1C627.8,445.1,627.8,445.1,627.8,445.1z"/>
				<path fill-rule="evenodd" clip-rule="evenodd" fill="#CE2F2B" d="M622.3,440.4c2.5,1.3,4.5,2.2,6,2.6s2.9,0.9,4.1,1.5l1.9,1.1
					c1.8,1.3,2.8,3,3.3,4.9c-0.1,0-0.2-0.1-0.2-0.1l-0.1-0.1c-3.7-1.9-6.2-3.3-7.5-4.1c-1.3-0.8-2-1.2-2-1.2
					C626.6,444.1,624.7,442.6,622.3,440.4z"/>
				<path fill-rule="evenodd" clip-rule="evenodd" fill="#1DA58D" d="M640,454.8c1.8,1.3,2.9,3.1,3.2,5.3c-2-1.8-4.4-3.2-7.1-4.4
					c-2.7-1.2-4.4-3-5.1-5.5c0.4,0.4,1.4,0.9,3,1.5c1.5,0.7,2.8,1.3,4.1,2L640,454.8z"/>
			</g>
		</g>
		<g>
			<g>
				<path fill-rule="evenodd" clip-rule="evenodd" fill="#CE2F2B" d="M643.4,498.8c0.3,0.6,0.9,1.5,2.1,2.7s2.1,2.2,2.7,3l1.2,1.6
					c1.1,1.8,1.4,3.7,0.9,5.7c0-0.1-0.1-0.1-0.1-0.2l-0.1-0.1c-0.2-0.3-0.3-0.5-0.4-0.7c-0.4-0.5-0.7-0.9-0.9-1.1
					c-0.2-0.3-0.7-0.7-1.4-1.3c-0.7-0.6-1.4-1.5-2.1-2.5c-0.7-1.1-1.2-1.8-1.3-2.1C643.3,502.3,643.1,500.7,643.4,498.8z"/>
				<path fill-rule="evenodd" clip-rule="evenodd" fill="#15806D" d="M650.8,516.5l-1.3-1.5c-0.3-0.4-1.1-1.3-2.5-2.7
					c-1.3-1.4-2.2-2.3-2.5-2.8c-0.9-1.6-1.1-3.5-0.7-5.7c0.2,0.3,0.6,1,1.3,2.1c0.7,1.1,1.4,1.9,2.1,2.5c0.7,0.6,1.2,1.1,1.4,1.3
					c0.2,0.3,0.5,0.7,0.9,1.1c0.1,0.2,0.2,0.5,0.4,0.7l0.1,0.1c0,0,0.1,0.1,0.1,0.2C651,513.3,651.2,514.9,650.8,516.5z"/>
				<path fill-rule="evenodd" clip-rule="evenodd" fill="#9F2420" d="M643.4,498.8c-0.9-1.6-1.1-3.5-0.6-5.7
					c1.1,1.9,2.3,3.5,3.7,4.9c2.7,2.7,3.7,5.4,3,8.1l-1.2-1.6c-0.7-0.7-1.6-1.7-2.7-3S643.6,499.4,643.4,498.8z"/>
				<path fill-rule="evenodd" clip-rule="evenodd" fill="#1DA58D" d="M644.6,509.4c0.3,0.5,1.1,1.4,2.5,2.8c1.3,1.4,2.2,2.3,2.5,2.7
					l1.3,1.5c1,1.8,1.3,3.6,0.8,5.5c-1.7-2-3.3-3.9-5-5.8C645,514.3,644.3,512,644.6,509.4z"/>
			</g>
		</g>
		<g>
			<g>
				<path fill-rule="evenodd" clip-rule="evenodd" fill="#CE2F2B" d="M647.2,524.4c-0.8-1.4-1.1-3-0.9-4.9c0.3,0.5,1,1.4,2.2,2.5
					c1.1,1.1,2.2,2.1,3,3.2l1.3,1.5c1.2,1.8,1.6,3.7,1.3,5.7c0-0.1-0.1-0.1-0.1-0.2l-0.1-0.1c-0.2-0.3-0.3-0.5-0.5-0.7
					c-0.4-0.5-0.9-1.1-1.5-1.7c-0.6-0.6-1.2-1.3-1.9-1.9s-1.2-1.3-1.7-1.9C647.8,525.2,647.4,524.7,647.2,524.4z"/>
				<path fill-rule="evenodd" clip-rule="evenodd" fill="#15806D" d="M654.1,532.5c0.8,1.5,1.1,3.1,0.9,4.7l-1.4-1.5
					c-0.9-1-1.9-2-3.1-3.2c-1.1-1.1-1.8-1.9-2.2-2.3c-1-1.6-1.4-3.6-1.1-5.7c0.2,0.3,0.6,0.8,1.1,1.5c0.5,0.7,1,1.3,1.7,1.9
					s1.3,1.3,1.9,1.9c0.6,0.7,1.1,1.2,1.5,1.7c0.2,0.2,0.3,0.5,0.5,0.7l0.1,0.1C654,532.3,654.1,532.4,654.1,532.5z"/>
				<path fill-rule="evenodd" clip-rule="evenodd" fill="#9F2420" d="M646.3,519.5c-1-1.6-1.4-3.5-1-5.7c1.2,1.9,2.6,3.5,4,4.9
					c2.9,2.7,4.1,5.4,3.6,8.1l-1.3-1.5c-0.9-1.1-1.9-2.1-3-3.2C647.3,520.9,646.6,520,646.3,519.5z"/>
				<path fill-rule="evenodd" clip-rule="evenodd" fill="#1DA58D" d="M655,537.2c1.1,1.8,1.5,3.6,1.1,5.4c-1.8-2.2-3.7-4.2-5.6-6.1
					c-1.7-1.7-2.4-3.9-2.2-6.4c0.3,0.5,1.1,1.3,2.2,2.3c1.1,1.1,2.2,2.2,3.1,3.2L655,537.2z"/>
			</g>
		</g>
		<g>
			<g>
				<path fill-rule="evenodd" clip-rule="evenodd" fill="#CE2F2B" d="M650.8,540.4c0.5,0.7,1.4,1.6,2.7,2.7s2.4,2.1,3.1,2.9l1.5,1.6
					c1.3,1.8,1.9,3.7,1.8,5.7c-0.3-0.4-0.6-0.7-0.7-1c-0.5-0.5-0.9-1-1.3-1.4c-0.4-0.4-1-1-1.9-1.7s-1.7-1.5-2.4-2.3
					c-0.7-0.8-1.2-1.4-1.4-1.7C651.2,543.9,650.8,542.3,650.8,540.4z"/>
				<path fill-rule="evenodd" clip-rule="evenodd" fill="#15806D" d="M661.2,558.1c-1.9-1.5-3.5-2.9-4.8-4.2
					c-1.3-1.3-2.1-2.3-2.6-2.9c-1.2-1.6-1.8-3.6-1.7-5.8c0.2,0.3,0.7,0.9,1.4,1.7c0.7,0.8,1.5,1.6,2.4,2.3s1.5,1.3,1.9,1.7
					c0.4,0.4,0.8,0.9,1.3,1.4c0.2,0.2,0.4,0.6,0.7,1C660.9,554.9,661.3,556.5,661.2,558.1z"/>
				<path fill-rule="evenodd" clip-rule="evenodd" fill="#9F2420" d="M650.8,540.4c-1.2-1.6-1.7-3.5-1.6-5.7
					c1.4,1.9,2.9,3.5,4.5,4.9c3.2,2.6,4.6,5.3,4.4,8.1l-1.5-1.6c-0.7-0.8-1.8-1.8-3.1-2.9S651.2,541.1,650.8,540.4z"/>
				<path fill-rule="evenodd" clip-rule="evenodd" fill="#1DA58D" d="M653.9,551c0.4,0.6,1.3,1.6,2.6,2.9c1.3,1.3,2.9,2.7,4.8,4.2
					c1.3,1.8,1.9,3.6,1.7,5.4c-2-2.2-4.1-4.2-6.1-6.1C654.9,555.7,653.9,553.6,653.9,551z"/>
			</g>
		</g>
		<g>
			<g>
				<path fill-rule="evenodd" clip-rule="evenodd" fill="#1DA58D" d="M618.8,438c1.4,0.1,2.8,0.1,4.4,0.1l4.1-0.1
					c1.9,0.5,3.4,1.6,4.5,3.3c-2.3-0.6-4.6-0.7-6.8-0.5S620.7,440,618.8,438z"/>
				<path fill-rule="evenodd" clip-rule="evenodd" fill="#CE2F2B" d="M609,433.7c1.4-0.8,2.8-1.3,4.2-1.5c1.4-0.1,2.6,0,3.8,0.1
					l1.9,0.2c1.9,0.4,3.4,1.3,4.6,2.9c0,0-0.8,0-2.2,0c-1.4,0.1-2.8,0-4-0.2c-1.3-0.2-2.3-0.3-3.1-0.4
					C612.8,434.6,611.1,434.2,609,433.7z"/>
				<path fill-rule="evenodd" clip-rule="evenodd" fill="#15806D" d="M627.2,438l-4.1,0.1c-1.5,0.1-3,0.1-4.4-0.1
					c-1.7-0.4-3.3-1.5-4.6-3.2c0.8,0.1,1.8,0.3,3.1,0.4c1.3,0.2,2.6,0.2,4,0.2c1.4-0.1,2.1-0.1,2.2,0
					C625,435.9,626.3,436.8,627.2,438z"/>
				<path fill-rule="evenodd" clip-rule="evenodd" fill="#9F2420" d="M618.9,432.5l-1.9-0.2c-1.1-0.2-2.4-0.2-3.8-0.1
					c-1.4,0.2-2.8,0.6-4.2,1.5c-2.3,0.5-4,0.4-5-0.3c1.2-1.3,3-2.4,5.4-3.3c2.4-0.9,4.1-1.2,5.2-0.8
					C616.7,430.2,618.1,431.2,618.9,432.5z"/>
			</g>
		</g>
		<g>
			<g>
				<path fill-rule="evenodd" clip-rule="evenodd" fill="#CE2F2B" d="M346.5,334.4c0.3,1.9,0.1,3.4-0.5,4.5c-0.2,0.3-0.5,0.9-1,1.7
					c-0.5,0.8-1.2,1.6-2,2.6c-0.8,1-1.5,1.7-1.9,2.1c-0.4,0.4-0.7,0.7-0.8,0.8l0,0c-0.3-1.9,0-3.7,0.9-5.3l1.1-1.4
					c0.6-0.6,1.5-1.5,2.5-2.5S346.3,335,346.5,334.4z"/>
				<path fill-rule="evenodd" clip-rule="evenodd" fill="#9F2420" d="M341.2,340.9c-0.6-2.8,0.2-5.3,2.6-7.7c1.3-1,3-2.6,5-4.8
					c-0.6,2.6-1.4,4.6-2.2,6.1c-0.2,0.6-0.8,1.4-1.8,2.5s-1.8,1.9-2.5,2.5L341.2,340.9z"/>
				<path fill-rule="evenodd" clip-rule="evenodd" fill="#15806D" d="M346,339c0.4,2.3,0.2,4.2-0.7,5.7c-0.2,0.5-0.9,1.3-2,2.5
					l-3.6,3.6c-0.3-1.5-0.2-3,0.4-4.4c0,0,0,0,0-0.1l0,0c0.1-0.1,0.3-0.4,0.8-0.8c0.4-0.4,1.1-1.1,1.9-2.1c0.9-1,1.5-1.8,2-2.6
					C345.5,339.9,345.8,339.3,346,339z"/>
				<path fill-rule="evenodd" clip-rule="evenodd" fill="#1DA58D" d="M345.3,344.7c0.4,2.9-0.2,4.9-1.8,6.2c-1.7,1.2-3.1,3-4.4,5.4
					c-0.5-2-0.2-3.8,0.6-5.6l3.6-3.6C344.4,345.9,345.1,345.1,345.3,344.7z"/>
			</g>
		</g>
		<g>
			<g>
				<path fill-rule="evenodd" clip-rule="evenodd" fill="#15806D" d="M580.7,431.8c-1.7,0.6-3.6,0.4-5.7-0.5c1.8-0.6,4.2-2,7.1-4
					c0.6-0.4,1.1-0.8,1.5-1c0,0,0.7,0,1.9-0.1s2.1,0.2,2.7,1c-1.8,1.4-3.4,2.5-4.6,3.3C582.3,431.2,581.3,431.7,580.7,431.8z"/>
				<path fill-rule="evenodd" clip-rule="evenodd" fill="#1DA58D" d="M588.1,427.1c1.9-0.6,3.8-0.6,5.8,0.1
					c-2.6,1.4-4.9,2.8-6.8,4.1c-1.9,1.2-4.1,1.4-6.5,0.5c0.6-0.2,1.6-0.7,2.8-1.4C584.7,429.7,586.3,428.6,588.1,427.1z"/>
				<path fill-rule="evenodd" clip-rule="evenodd" fill="#CE2F2B" d="M575,431.3c-1.4,0.5-3,0.3-4.8-0.4c0.5-0.1,1.4-0.5,2.5-1.3
					s2.9-1.8,5.2-3.2c1.6-0.6,3.4-0.6,5.6-0.2c-0.4,0.3-0.9,0.6-1.5,1C579.1,429.4,576.8,430.7,575,431.3z"/>
				<path fill-rule="evenodd" clip-rule="evenodd" fill="#9F2420" d="M570.2,430.9c-3.1,1.2-5.6,1.5-7.5,0.7
					c2.3-0.8,4.8-2.2,7.4-4.2c2.6-2,5.2-2.3,7.8-1c-2.3,1.4-4,2.5-5.2,3.2S570.8,430.8,570.2,430.9z"/>
			</g>
		</g>
		<g>
			<g>
				<path fill-rule="evenodd" clip-rule="evenodd" fill="#9F2420" d="M548.8,430.4c-3.1,1-5.8,1.2-8.1,0.6c3.6-1.5,5.9-2.8,7-3.8
					c2.6-2.1,5.3-2.6,8.1-1.4l-1.6,1c-1.4,0.8-2.5,1.5-3.3,2.2C550.1,429.8,549.4,430.2,548.8,430.4z"/>
				<path fill-rule="evenodd" clip-rule="evenodd" fill="#CE2F2B" d="M553.8,430.7c-1.3,0.5-3,0.3-4.9-0.3c0.5-0.2,1.2-0.6,2.1-1.3
					c0.9-0.7,2-1.5,3.3-2.2l1.6-1c1.8-0.6,3.7-0.6,5.7,0.2c0,0-0.2,0.1-0.6,0.2c-0.3,0.1-1,0.5-2.1,1.3c-1,0.7-2.1,1.4-3.1,2.1
					S554.1,430.6,553.8,430.7z"/>
				<path fill-rule="evenodd" clip-rule="evenodd" fill="#15806D" d="M553.8,430.7c0.3-0.1,1-0.5,2-1.2s2.1-1.4,3.1-2.1
					c1-0.7,1.7-1.1,2.1-1.3c0.3-0.1,0.5-0.2,0.6-0.2c1.6-0.4,3.1-0.2,4.7,0.4l-1.4,1c-1,0.6-2,1.4-3,2.1c-1,0.9-1.8,1.5-2.3,1.7
					C558,431.8,556.1,431.6,553.8,430.7z"/>
				<path fill-rule="evenodd" clip-rule="evenodd" fill="#1DA58D" d="M559.6,431.2c0.5-0.2,1.3-0.7,2.3-1.7c1-0.8,2-1.5,3-2.1l1.4-1
					c1.8-0.6,3.8-0.7,5.9-0.1c-2.3,1.5-4.3,2.9-6,4.2C564.4,431.8,562.2,432,559.6,431.2z"/>
			</g>
		</g>
		<g>
			<g>
				<path fill-rule="evenodd" clip-rule="evenodd" fill="#1DA58D" d="M538.3,430.6c0.4-0.1,1-0.5,1.8-1.2c0.8-0.7,2-1.6,3.6-2.7
					l1.5-1c1.8-0.7,3.7-0.8,5.6-0.1c-2.3,1.5-4.4,3-6.2,4.4C542.9,431.4,540.7,431.6,538.3,430.6z"/>
				<path fill-rule="evenodd" clip-rule="evenodd" fill="#15806D" d="M532.3,430.6c1.3-0.3,2.6-1,4-2.1c1.4-1.1,2.7-2.1,4-3
					c1.7-0.5,3.3-0.5,4.9,0.2l-1.5,1c-1.6,1.1-2.8,2-3.6,2.7c-0.8,0.7-1.4,1.1-1.8,1.2C536.7,431.2,534.7,431.2,532.3,430.6z"/>
				<path fill-rule="evenodd" clip-rule="evenodd" fill="#CE2F2B" d="M527.7,429.9c0.5-0.1,1.2-0.5,2.2-1.3c0.9-0.7,2.6-1.8,5.1-3.3
					c1.8-0.8,3.6-0.7,5.4,0.2c-1.3,1-2.6,2-4,3c-1.4,1.1-2.7,1.8-4,2.1C531.2,430.7,529.7,430.5,527.7,429.9z"/>
				<path fill-rule="evenodd" clip-rule="evenodd" fill="#9F2420" d="M535,425.3c-2.5,1.4-4.2,2.5-5.1,3.3c-0.9,0.7-1.6,1.2-2.2,1.3
					c-1.6,0.7-3.5,0.6-5.8-0.4c2.2-0.8,4.2-2,6.1-3.6C529.9,424.2,532.2,424,535,425.3z"/>
			</g>
		</g>
		<g>
			<g>
				<path fill-rule="evenodd" clip-rule="evenodd" fill="#9F2420" d="M516.3,423.2l-1.7,0.9c-0.9,0.5-2,1.2-3.3,2.1
					c-1.3,0.9-2.2,1.4-2.8,1.5c-2.5,0.2-4.5-0.4-5.9-1.6c2.4,0,4.3-0.6,5.8-1.7C511.4,422.1,514,421.8,516.3,423.2z"/>
				<path fill-rule="evenodd" clip-rule="evenodd" fill="#1DA58D" d="M525.9,424.2c1.8-0.6,3.6-0.5,5.3,0.3
					c-2.2,1.3-4.3,2.6-6.3,3.9c-2.1,1.3-4.2,1.4-6.5,0.4c0.7-0.2,1.6-0.7,2.8-1.6c1.2-0.8,2.2-1.5,3.1-2.1L525.9,424.2z"/>
				<path fill-rule="evenodd" clip-rule="evenodd" fill="#15806D" d="M521.6,423.6c1.5-0.4,2.9-0.2,4.2,0.6l-1.5,1
					c-0.9,0.6-1.9,1.3-3.1,2.1c-1.2,0.8-2.1,1.4-2.8,1.6c-1.6,0.5-3.4,0.3-5.3-0.7c1.3-0.3,2.7-1,4.3-2.1
					C519,425,520.4,424.2,521.6,423.6z"/>
				<path fill-rule="evenodd" clip-rule="evenodd" fill="#CE2F2B" d="M521.6,423.6c-1.2,0.5-2.6,1.3-4.2,2.4c-1.6,1.1-3,1.8-4.3,2.1
					c-1.2,0.4-2.7,0.2-4.5-0.6c0.6-0.1,1.5-0.6,2.8-1.5c1.3-0.9,2.3-1.6,3.3-2.1l1.7-0.9C518.2,422.5,519.9,422.7,521.6,423.6z"/>
			</g>
		</g>
		<g>
			<g>
				<path fill-rule="evenodd" clip-rule="evenodd" fill="#1DA58D" d="M481.5,420.8c0.5-0.1,1.3-0.5,2.4-1.1c1.2-0.6,2.9-1.4,5-2.3
					c1.8-0.3,3.6-0.1,5.3,0.7c-2.4,1.1-4.7,2.2-6.7,3.3C485.7,422.3,483.7,422.1,481.5,420.8z"/>
				<path fill-rule="evenodd" clip-rule="evenodd" fill="#9F2420" d="M479.5,415.1l-1.7,0.7c-1.1,0.4-2.2,0.9-3.4,1.5
					c-1.2,0.7-2.1,1.1-2.6,1.1c-1.6,0.3-3.3-0.1-5.2-1.4c1.9-0.3,3.6-0.9,5-1.8C474.6,413.5,477.2,413.5,479.5,415.1z"/>
				<path fill-rule="evenodd" clip-rule="evenodd" fill="#CE2F2B" d="M484.6,416.1c-3.6,1.7-5.7,2.6-6.2,2.8
					c-0.5,0.2-1.2,0.4-2.1,0.6c-1.3,0.2-2.8-0.1-4.5-1.1c0.6-0.1,1.5-0.5,2.6-1.1c1.1-0.6,2.3-1.1,3.4-1.5l1.7-0.7
					C481.3,414.8,483,415.1,484.6,416.1z"/>
				<path fill-rule="evenodd" clip-rule="evenodd" fill="#15806D" d="M476.3,419.5c0.9-0.2,1.6-0.4,2.1-0.6c0.5-0.2,2.6-1.1,6.2-2.8
					c1.6-0.1,3,0.3,4.4,1.2c-2.1,0.9-3.8,1.7-5,2.3c-1.1,0.7-1.9,1-2.4,1.1C479.9,421.1,478.1,420.7,476.3,419.5z"/>
			</g>
		</g>
		<g>
			<g>
				<path fill-rule="evenodd" clip-rule="evenodd" fill="#CE2F2B" d="M495.2,423.9c-1.3,0.2-2.8-0.1-4.5-1.1
					c0.6-0.1,1.5-0.5,2.8-1.2c1.3-0.7,2.4-1.3,3.3-1.7l1.7-0.7c1.8-0.4,3.6-0.1,5.3,1.1c-0.4,0.1-1.4,0.6-3.1,1.4
					c-1.6,0.8-2.8,1.3-3.4,1.6C496.5,423.5,495.9,423.7,495.2,423.9z"/>
				<path fill-rule="evenodd" clip-rule="evenodd" fill="#9F2420" d="M490.7,422.8c-1.6,0.4-3.4,0.1-5.3-0.9c2-0.7,3.7-1.6,5.2-2.6
					c2.9-1.8,5.6-1.9,7.9-0.2l-1.7,0.7c-0.9,0.4-2,1-3.3,1.7C492.2,422.3,491.3,422.7,490.7,422.8z"/>
				<path fill-rule="evenodd" clip-rule="evenodd" fill="#15806D" d="M508,421.4l-1.5,0.7c-0.9,0.5-1.9,1-3.1,1.7
					c-1.2,0.7-2.1,1.1-2.8,1.3c-1.6,0.3-3.4-0.1-5.3-1.3c0.7-0.2,1.4-0.4,2-0.7c0.7-0.3,1.8-0.8,3.4-1.6c1.6-0.8,2.6-1.3,3.1-1.4
					c0,0,0.5-0.1,1.4-0.1C506,420.2,507,420.6,508,421.4z"/>
				<path fill-rule="evenodd" clip-rule="evenodd" fill="#1DA58D" d="M508,421.4c1.8-0.4,3.5-0.1,5.1,1.1c-2.9,1.2-5.2,2.3-7,3.3
					c-1.8,1-3.7,0.8-5.6-0.6c0.7-0.1,1.7-0.6,2.8-1.3c1.2-0.7,2.2-1.3,3.1-1.7L508,421.4z"/>
			</g>
		</g>
		<g>
			<g>
				<path fill-rule="evenodd" clip-rule="evenodd" fill="#15806D" d="M349.9,416c-1.1,0.5-2,0.2-2.8-1c0.5-0.2,1-0.6,1.3-0.9
					c0.3-0.4,0.7-0.8,1.1-1.2c0.4-0.4,0.8-0.8,1.2-1.2c0.4-0.4,0.8-0.8,1-1c1.4-0.9,3-0.7,4.6,0.5c-0.7-0.2-1.5,0.2-2.5,1
					c-0.7,0.6-1.4,1.4-2.2,2.3C350.9,415.2,350.3,415.8,349.9,416z"/>
				<path fill-rule="evenodd" clip-rule="evenodd" fill="#1DA58D" d="M356.3,411c0.9-0.1,2.2,0.3,3.7,1.1c-2.9,1.1-5,2.4-6.4,3.8
					c-1.2,1.3-2.4,1.3-3.7,0.1c0.4-0.2,1-0.8,1.7-1.7c0.8-0.9,1.5-1.7,2.2-2.3C354.8,411.2,355.6,410.9,356.3,411z"/>
				<path fill-rule="evenodd" clip-rule="evenodd" fill="#CE2F2B" d="M347.1,415c-1,0.2-1.9,0-2.5-0.7c0.2-0.5,0.6-1.2,1.3-2
					c0.8-0.9,1.7-1.7,2.5-2.5c1.8-0.9,2.9-0.7,3.4,0.8c-0.2,0.3-0.6,0.6-1,1c-0.4,0.4-0.8,0.8-1.2,1.2c-0.4,0.4-0.7,0.8-1.1,1.2
					C348.1,414.4,347.7,414.8,347.1,415z"/>
				<path fill-rule="evenodd" clip-rule="evenodd" fill="#9F2420" d="M348.3,409.8c-0.8,0.8-1.6,1.6-2.5,2.5c-0.7,0.8-1.1,1.5-1.3,2
					c-1.7,0.3-2.7-0.4-3-1.9c1-0.3,1.9-1.3,2.8-2.8C345.1,408.1,346.4,408.1,348.3,409.8z"/>
			</g>
		</g>
		<g>
			<g>
				<path fill-rule="evenodd" clip-rule="evenodd" fill="#15806D" d="M344.2,406.4c0,0.3-0.3,1-1,2c-0.7,1-1.3,2.1-1.8,3.3
					c-1.1-0.7-1.7-1.6-1.9-2.6c0.1,0,0.5-0.6,0.9-1.6c0.7-1.4,1.1-2.4,1.3-3.1c0.2-0.7,0.3-1.2,0.3-1.4
					C343.6,404.1,344.3,405.2,344.2,406.4z"/>
				<path fill-rule="evenodd" clip-rule="evenodd" fill="#9F2420" d="M340.1,400.3c-1.2,2.1-1.9,3.5-2.1,4.2l-0.3,1.2
					c-2.2-1.3-2.6-3-1.2-5.2c0.8-1.1,2.1-2.1,3.8-3.1C341.2,398.2,341.2,399.1,340.1,400.3z"/>
				<path fill-rule="evenodd" clip-rule="evenodd" fill="#1DA58D" d="M341.3,411.7c0.5-1.2,1.1-2.3,1.8-3.3c0.7-1,1-1.6,1-2
					c0.8-0.3,1.4-0.1,1.8,0.7c0.4,0.8,0.4,1.3-0.1,1.7c-0.9,0.7-2,2.4-3.6,5.1C341.6,413.7,341.3,412.9,341.3,411.7z"/>
				<path fill-rule="evenodd" clip-rule="evenodd" fill="#CE2F2B" d="M342,403c0,0.3-0.1,0.7-0.3,1.4c-0.2,0.7-0.6,1.7-1.3,3.1
					c-0.5,1-0.8,1.5-0.9,1.6c-1.4-1-2-2.1-1.8-3.4l0.3-1.2c0.2-0.7,0.9-2.1,2.1-4.2C341.5,401.2,342.1,402.1,342,403z"/>
			</g>
		</g>
		<g>
			<g>
				<path fill-rule="evenodd" clip-rule="evenodd" fill="#9F2420" d="M340.1,374.6c-0.3,0.3-0.9,0.6-2,1.1c-1.1,0.5-2.1,0.9-3,1.3
					l-0.7,0.4c-1.3-1.8-0.6-3.2,2.1-4.1c1.4-0.5,3-1.3,4.8-2.6C342.1,372,341.8,373.3,340.1,374.6z"/>
				<path fill-rule="evenodd" clip-rule="evenodd" fill="#CE2F2B" d="M340.2,377.3c-1.2,1-2.4,1.6-3.5,2c-1.1,0.4-1.9,0.8-2.5,1.3
					l-0.4,0.3v-0.1h-0.1c-0.5-1.5-0.3-2.6,0.6-3.3l0.7-0.4c0.9-0.4,1.9-0.9,3-1.3c1.1-0.5,1.8-0.9,2-1.1
					C340.8,375.7,340.9,376.6,340.2,377.3z"/>
				<path fill-rule="evenodd" clip-rule="evenodd" fill="#15806D" d="M340.2,377.3c0.9,1.4,0.9,2.4,0.1,3.2c-0.2,0.2-0.9,0.5-2,0.9
					c-1,0.4-1.9,0.8-2.8,1.2l-1.1,0.5c-0.7-1-0.9-1.7-0.5-2.1l0.4-0.3c0.6-0.5,1.4-0.9,2.5-1.3C337.9,378.9,339,378.2,340.2,377.3z"
					/>
				<path fill-rule="evenodd" clip-rule="evenodd" fill="#1DA58D" d="M340.3,380.4c0.8,1.5,0.4,2.6-1.1,3.3
					c-1.7,0.6-3.4,1.4-4.9,2.4c-0.9-1.3-0.9-2.3,0.1-3.1l1.1-0.5c0.9-0.4,1.8-0.8,2.8-1.2C339.4,380.9,340.1,380.6,340.3,380.4z"/>
			</g>
		</g>
		<g>
			<g>
				<path fill-rule="evenodd" clip-rule="evenodd" fill="#CE2F2B" d="M344.4,353c0.7,1.2,0.7,2.1-0.1,2.6c-0.1,0.2-0.7,0.5-1.7,1
					c-1.1,0.5-1.9,0.9-2.4,1.1c-0.5,0.2-1,0.4-1.4,0.7c-0.4,0.2-0.7,0.4-1,0.6c-0.8-1.3-0.7-2.3,0.3-3.2l1.4-0.7
					c1.6-0.7,2.7-1.2,3.4-1.4C343.5,353.5,344,353.3,344.4,353z"/>
				<path fill-rule="evenodd" clip-rule="evenodd" fill="#9F2420" d="M338.1,355.9c-1.3-1.8-0.5-3.1,2.3-4c2.8-0.9,4.3-2.1,4.7-3.6
					c1,1.6,0.7,3.2-0.7,4.6c-0.3,0.2-0.8,0.5-1.5,0.7c-0.7,0.3-1.8,0.7-3.4,1.4L338.1,355.9z"/>
				<path fill-rule="evenodd" clip-rule="evenodd" fill="#15806D" d="M337.8,359c0.2-0.2,0.6-0.4,1-0.6c0.4-0.2,0.9-0.5,1.4-0.7
					c0.5-0.2,1.3-0.6,2.4-1.1c1.1-0.5,1.7-0.8,1.7-1c1,1.4,1,2.5,0.1,3.2c-0.1,0.2-0.7,0.5-1.9,0.9c-1.1,0.4-2.2,0.8-3.3,1.2
					l-1.3,0.6C337.2,360.7,337.2,359.8,337.8,359z"/>
				<path fill-rule="evenodd" clip-rule="evenodd" fill="#1DA58D" d="M337.9,361.6l1.3-0.6c1.1-0.4,2.2-0.8,3.3-1.2
					c1.1-0.4,1.7-0.7,1.9-0.9c0.8,1.6,0.3,2.7-1.3,3.4c-1.8,0.7-3.5,1.5-5.3,2.4C336.9,363.4,336.9,362.4,337.9,361.6z"/>
			</g>
		</g>
		<g>
			<g>
				<path fill-rule="evenodd" clip-rule="evenodd" fill="#CE2F2B" d="M599.1,427.5c1.4-0.5,3-0.7,4.8-0.4l1.9,0.4l-0.8,0.3
					c-1,0.4-2.1,1-3.4,1.9c-1.3,0.9-3.1,1.8-5.4,2.7c-1.4,0.5-3,0.3-4.8-0.4c0.5-0.2,1.4-0.7,2.6-1.5c1.1-0.9,2.3-1.6,3.3-2.1
					L599.1,427.5z"/>
				<path fill-rule="evenodd" clip-rule="evenodd" fill="#9F2420" d="M591.4,432.1c-3.1,1.2-5.5,1.3-7.5,0.3
					c3.2-1.3,5.5-2.5,6.9-3.6c2.9-2.1,5.6-2.5,8.2-1.3l-1.7,0.9c-1.1,0.5-2.2,1.2-3.3,2.1C592.8,431.4,592,431.9,591.4,432.1z"/>
				<path fill-rule="evenodd" clip-rule="evenodd" fill="#15806D" d="M605.8,427.6L605.8,427.6c1.5-0.3,2.7-0.1,3.5,0.6l-1.5,1
					c-1.1,0.6-2.2,1.4-3.4,2.2c-1.1,0.9-2,1.4-2.5,1.6c-1.7,0.6-3.6,0.4-5.7-0.5c2.3-0.9,4.1-1.8,5.4-2.7c1.3-0.9,2.4-1.5,3.4-1.9
					L605.8,427.6z"/>
				<path fill-rule="evenodd" clip-rule="evenodd" fill="#1DA58D" d="M609.3,428.2c1.8-0.5,3.8,0,5.8,1.4c-1.3-0.5-3.1,0.1-5.3,1.7
					c-2.8,2-5.5,2.5-7.9,1.7c0.5-0.2,1.4-0.7,2.5-1.6c1.1-0.8,2.3-1.5,3.4-2.2L609.3,428.2z"/>
			</g>
		</g>
		<g>
			<g>
				<path fill-rule="evenodd" clip-rule="evenodd" fill="#CE2F2B" d="M392.1,418.3c-1.4,0.4-2.8,0.3-4.4-0.3
					c0.7-0.2,1.6-0.7,2.8-1.4c1.1-0.7,2.5-1.4,4.3-2.1l1.8-0.8c2-0.5,3.8-0.4,5.4,0.3c-0.1,0-0.4,0.1-0.8,0.2
					c-0.4,0.1-1,0.3-1.7,0.7c-0.8,0.4-1.8,0.9-2.8,1.4c-1,0.6-1.8,1-2.4,1.2C393.6,417.7,392.9,418,392.1,418.3z"/>
				<path fill-rule="evenodd" clip-rule="evenodd" fill="#15806D" d="M397.4,418.7c-1.8,0.5-3.6,0.4-5.3-0.5
					c0.8-0.3,1.5-0.6,2.1-0.8c0.6-0.3,1.4-0.7,2.4-1.2c1-0.6,1.9-1,2.8-1.4c0.7-0.3,1.3-0.6,1.7-0.7c0.4-0.1,0.7-0.2,0.8-0.2
					c1.5-0.4,2.9-0.2,4.2,0.5l-2,0.8c-1.1,0.6-2.4,1.3-3.9,2.1C399,418,398.1,418.5,397.4,418.7z"/>
				<path fill-rule="evenodd" clip-rule="evenodd" fill="#9F2420" d="M387.7,417.9c-1.8,0.5-3.5,0.3-5.1-0.6c2.1-0.6,4-1.4,5.7-2.5
					c3.5-2.1,6.2-2.5,8.3-1.3l-1.8,0.8c-1.8,0.7-3.2,1.4-4.3,2.1C389.3,417.2,388.4,417.7,387.7,417.9z"/>
				<path fill-rule="evenodd" clip-rule="evenodd" fill="#1DA58D" d="M406.2,414.4c1.9-0.7,3.5-0.6,4.8,0.2
					c-2.5,1.1-4.9,2.3-7.2,3.6c-2.1,1.1-4.2,1.3-6.2,0.5c0.6-0.2,1.5-0.7,2.8-1.4c1.5-0.8,2.8-1.5,3.9-2.1L406.2,414.4z"/>
			</g>
		</g>
		<g>
			<g>
				<path fill-rule="evenodd" clip-rule="evenodd" fill="#CE2F2B" d="M334.8,395.3c-0.9-1.4-1-2.7-0.3-4l0.7-1.2
					c0.5-0.7,1.2-1.4,2.1-2.2c0.9-0.7,1.7-1.3,2.5-1.9c0.3,1.6,0.3,2.8-0.2,3.7c-0.3,0.8-1.2,1.9-2.5,3.3
					C335.7,394.4,334.9,395.2,334.8,395.3z"/>
				<path fill-rule="evenodd" clip-rule="evenodd" fill="#15806D" d="M335.6,398.7c-0.8-1.1-1.1-2.3-0.8-3.4
					c0.1-0.1,0.9-0.8,2.2-2.3c1.3-1.5,2.2-2.6,2.5-3.3c1.1,1.7,1.4,3.1,0.7,4.3c0,0.3-0.6,0.9-1.8,1.8c-0.7,0.6-1.4,1.2-1.9,1.8
					L335.6,398.7z"/>
				<path fill-rule="evenodd" clip-rule="evenodd" fill="#9F2420" d="M334.4,391.3c-1.4-3.6-1.1-5.7,0.9-6.1c2-0.4,3.8-1.5,5.3-3.4
					c0.2,1.8-0.1,3.2-0.9,4.1c-0.7,0.6-1.5,1.2-2.5,1.9c-0.9,0.8-1.6,1.5-2.1,2.2L334.4,391.3z"/>
				<path fill-rule="evenodd" clip-rule="evenodd" fill="#1DA58D" d="M340.3,394c1.1,1.9,1,3.4-0.5,4.5c-1.5,1.1-2.9,2.7-4.2,4.5
					c-0.5-1.6-0.6-3-0.1-4.3l1-1c0.6-0.6,1.2-1.2,1.9-1.8C339.7,394.8,340.3,394.2,340.3,394z"/>
			</g>
		</g>
		<g>
			<g>
				<path fill-rule="evenodd" clip-rule="evenodd" fill="#9F2420" d="M342.9,364.3c-0.3,0.2-1.1,0.4-2.1,0.6
					c-1.1,0.1-2.5,0.4-4.1,0.9c-0.8-1.6-0.1-2.5,2-2.7c2.1-0.2,4.1-1.1,6-2.7C345.4,362.2,344.8,363.5,342.9,364.3z"/>
				<path fill-rule="evenodd" clip-rule="evenodd" fill="#15806D" d="M335.5,369c0.5-0.2,1.4-0.4,2.7-0.6c1.5-0.3,2.9-0.7,4.2-1.4
					c0.6,1.6,0.4,2.6-0.6,3.1c-0.3,0.1-1,0.2-2.1,0.4c-1.1,0.2-2.1,0.3-3,0.5l-1.3,0.3C334.9,370.2,334.9,369.4,335.5,369z"/>
				<path fill-rule="evenodd" clip-rule="evenodd" fill="#1DA58D" d="M335.4,371.3l1.3-0.3c0.9-0.2,1.9-0.4,3-0.5
					c1.1-0.2,1.9-0.3,2.1-0.4c0.4,1.6-0.2,2.7-1.8,3c-1.8,0.2-3.6,0.6-5.3,1.2C334,372.9,334.3,371.9,335.4,371.3z"/>
				<path fill-rule="evenodd" clip-rule="evenodd" fill="#CE2F2B" d="M342.4,367c-1.4,0.6-2.8,1.1-4.2,1.4c-1.3,0.2-2.2,0.4-2.7,0.6
					h-0.1c-0.2-1.6,0.2-2.7,1.3-3.2c1.6-0.5,3-0.8,4.1-0.9c1.1-0.2,1.8-0.3,2.1-0.6C343.3,365.6,343.2,366.5,342.4,367z"/>
			</g>
		</g>
		<g>
			<g>
				<path fill-rule="evenodd" clip-rule="evenodd" fill="#15806D" d="M410.5,419.8c0.7-0.2,1.5-0.4,2.2-0.8c0.8-0.4,1.6-0.8,2.6-1.3
					c0.9-0.5,1.8-0.9,2.6-1.2c0.8-0.3,1.4-0.6,1.8-0.7l0.7-0.1c1.5-0.4,2.9-0.2,4.2,0.6l-2,0.8c-1.1,0.5-2.5,1.2-4,1.9
					c-1.3,0.7-2.3,1.2-2.9,1.4C414,420.9,412.2,420.7,410.5,419.8z"/>
				<path fill-rule="evenodd" clip-rule="evenodd" fill="#1DA58D" d="M415.8,420.4c0.6-0.2,1.6-0.7,2.9-1.4c1.5-0.8,2.8-1.4,4-1.9
					l2-0.8c1.9-0.6,3.3-0.6,4.2,0c-2,1.3-4.1,2.5-6.3,3.7S418.1,421.2,415.8,420.4z"/>
				<path fill-rule="evenodd" clip-rule="evenodd" fill="#CE2F2B" d="M405.9,419.3c0.8-0.2,1.8-0.7,3-1.4c1.5-0.8,2.9-1.4,4.2-1.9
					l1.8-0.7c2-0.5,3.9-0.3,5.5,0.5l-0.7,0.1c-0.5,0.1-1.1,0.3-1.8,0.7c-0.8,0.3-1.7,0.8-2.6,1.2c-0.9,0.5-1.8,0.9-2.6,1.3
					c-0.8,0.4-1.5,0.6-2.2,0.8C409.1,420.2,407.6,420,405.9,419.3z"/>
				<path fill-rule="evenodd" clip-rule="evenodd" fill="#9F2420" d="M414.9,415.2l-1.8,0.7c-1.3,0.5-2.8,1.2-4.2,1.9
					c-1.2,0.8-2.2,1.2-3,1.4c-1.8,0.5-3.5,0.4-5.2-0.2c2.1-0.9,4-1.8,5.8-2.8C410.1,414.4,412.9,414,414.9,415.2z"/>
			</g>
		</g>
		<g>
			<g>
				<path fill-rule="evenodd" clip-rule="evenodd" fill="#15806D" d="M379.7,418.4c-1.7,0.7-3.4,0.6-5.1-0.1
					c0.4-0.1,0.8-0.3,1.1-0.6c1-0.5,1.9-1.1,2.9-1.8c1-0.6,1.8-1.2,2.6-1.7c0.6-0.4,1.2-0.7,1.6-0.9c0.2-0.1,0.4-0.2,0.5-0.2
					l0.2-0.1c0,0,0,0-0.1,0.1c1.4-0.5,2.8-0.5,4.1,0.2l-1.8,1c-1,0.7-2.2,1.4-3.5,2.4C381.1,417.6,380.2,418.1,379.7,418.4z"/>
				<path fill-rule="evenodd" clip-rule="evenodd" fill="#1DA58D" d="M387.5,413.4c1.7-0.8,3.2-0.8,4.5-0.1
					c-2.3,1.3-4.4,2.7-6.5,4.2c-1.9,1.3-3.9,1.6-5.8,0.9c0.6-0.3,1.4-0.8,2.5-1.7c1.3-0.9,2.5-1.7,3.5-2.4L387.5,413.4z"/>
				<path fill-rule="evenodd" clip-rule="evenodd" fill="#9F2420" d="M370.4,418.3c-1.7,0.6-3.2,0.7-4.7,0.1c1.8-0.9,3.4-2,4.9-3.2
					c3.1-2.3,5.7-2.9,7.7-1.9l-1.7,0.9c-1.2,0.7-2.4,1.5-3.8,2.4C371.9,417.4,371,418,370.4,418.3z"/>
				<path fill-rule="evenodd" clip-rule="evenodd" fill="#CE2F2B" d="M383.4,413.2c-0.1,0-0.3,0.1-0.5,0.2c-0.4,0.2-1,0.5-1.6,0.9
					c-0.8,0.5-1.6,1-2.6,1.7c-1,0.7-2,1.3-2.9,1.8c-0.4,0.3-0.8,0.5-1.1,0.6c-1.3,0.5-2.7,0.5-4.2,0c0.6-0.3,1.5-0.8,2.5-1.7
					c1.3-0.9,2.6-1.7,3.8-2.4l1.7-0.9C380.1,412.6,381.8,412.6,383.4,413.2z"/>
			</g>
		</g>
		<g>
			<g>
				<path fill-rule="evenodd" clip-rule="evenodd" fill="#9F2420" d="M362.6,412.6l-1.6,0.8c-1.1,0.6-2.2,1.4-3.3,2.2
					c-0.9,0.8-1.7,1.3-2.2,1.5c-1.5,0.5-2.9,0.4-4.3-0.5c1.6-0.7,3.2-1.5,4.5-2.6C358.4,412,360.7,411.5,362.6,412.6z"/>
				<path fill-rule="evenodd" clip-rule="evenodd" fill="#CE2F2B" d="M362.6,412.6c1.5-0.6,2.9-0.5,4.2,0.3l-0.5,0.2
					c-0.4,0.2-1.2,0.7-2.4,1.6c-1.2,0.9-2.8,1.8-4.6,2.8l0,0c-1.2,0.3-2.5,0.2-3.8-0.3c0.6-0.3,1.3-0.8,2.2-1.5
					c1.1-0.8,2.2-1.5,3.3-2.2L362.6,412.6z"/>
				<path fill-rule="evenodd" clip-rule="evenodd" fill="#15806D" d="M363.6,417.9c-1.4,0.5-2.8,0.4-4.2-0.4
					c1.9-0.9,3.4-1.9,4.6-2.8c1.2-0.9,2-1.5,2.4-1.6l0.5-0.2c0,0,0.1,0,0.1,0c1.2-0.4,2.4-0.2,3.6,0.4l-1.7,0.9
					c-0.9,0.6-1.9,1.3-3,2.1C364.8,417.1,364.1,417.6,363.6,417.9z"/>
				<path fill-rule="evenodd" clip-rule="evenodd" fill="#1DA58D" d="M370.6,413.3c1.4-0.7,2.4-0.6,3.2,0.2
					c-1.6,1.1-3.3,2.4-5.1,3.8c-1.6,1.1-3.3,1.3-5.1,0.5c0.5-0.2,1.2-0.7,2.2-1.5c1.1-0.8,2.2-1.5,3-2.1L370.6,413.3z"/>
			</g>
		</g>
		<g>
			<g>
				<path fill-rule="evenodd" clip-rule="evenodd" fill="#1DA58D" d="M458.6,419.1c0.9-0.3,2.3-0.9,4.2-1.8s3.6-1.6,5.1-2.1l2.2-1
					c2.8-0.8,5.1-0.8,7-0.2c-3.4,1.3-6.6,2.6-9.8,4C464.6,419.3,461.7,419.7,458.6,419.1z"/>
				<path fill-rule="evenodd" clip-rule="evenodd" fill="#15806D" d="M458.6,419.1c-2.5,0.7-5,0.7-7.5,0.1c0.4-0.1,1.3-0.4,2.6-0.8
					c1.3-0.4,2.6-1,3.9-1.6c1.3-0.7,2.3-1.1,2.9-1.3c0.6-0.2,1.2-0.4,1.8-0.6c0.6-0.2,1.1-0.3,1.5-0.4c0.4-0.1,0.6-0.1,0.4-0.1
					c2-0.6,3.9-0.6,5.8-0.2l-2.2,1c-1.5,0.5-3.2,1.3-5.1,2.1S459.5,418.8,458.6,419.1z"/>
				<path fill-rule="evenodd" clip-rule="evenodd" fill="#CE2F2B" d="M456.4,414.5c3.5-0.8,6.2-0.8,8-0.1c0.2,0,0,0-0.4,0.1
					c-0.4,0.1-1,0.2-1.5,0.4c-0.6,0.2-1.2,0.4-1.8,0.6c-0.6,0.2-1.6,0.7-2.9,1.3c-1.3,0.7-2.6,1.2-3.9,1.6c-1.3,0.4-2.2,0.7-2.6,0.8
					c-2.1,0.6-4.3,0.6-6.5,0.2c0.6-0.2,1.8-0.7,3.6-1.5c1.8-0.8,3.7-1.7,5.6-2.4L456.4,414.5z"/>
				<path fill-rule="evenodd" clip-rule="evenodd" fill="#9F2420" d="M444.6,419.5c-2.4,0.6-4.8,0.6-7.3-0.1
					c2.9-0.7,5.4-1.7,7.6-2.9c4.6-2.2,8.4-2.9,11.5-2.1l-2.5,1c-2,0.8-3.8,1.6-5.6,2.4C446.5,418.8,445.2,419.3,444.6,419.5z"/>
			</g>
		</g>
		<g>
			<g>
				<path fill-rule="evenodd" clip-rule="evenodd" fill="#15806D" d="M436,420c-2,0.8-3.9,0.9-5.7,0.4c-0.1,0,0.3-0.2,1-0.5
					c0.7-0.3,2.2-1.1,4.4-2.3c2.2-1.2,3.9-2.1,5-2.6c1.5-0.5,3-0.5,4.5-0.1l-1.7,1c-1.6,0.9-3.1,1.8-4.5,2.7
					C437.4,419.5,436.4,419.9,436,420z"/>
				<path fill-rule="evenodd" clip-rule="evenodd" fill="#1DA58D" d="M445.1,414.9c2.2-0.9,4.2-1,5.9-0.5c-3,1.4-5.7,2.8-8.2,4.2
					c-2.2,1.3-4.5,1.8-6.8,1.4c0.5-0.1,1.4-0.6,2.9-1.5c1.4-0.9,3-1.8,4.5-2.7L445.1,414.9z"/>
				<path fill-rule="evenodd" clip-rule="evenodd" fill="#9F2420" d="M434.8,415.5c-2.2,1.2-3.7,2-4.6,2.4c-0.9,0.4-2.5,1.4-5,3.1
					c-1.9,0.6-3.7,0.7-5.5,0.1c2.2-0.8,4.1-1.7,5.8-2.9c3.7-2.4,6.7-3.2,8.9-2.5c0,0,0.1,0,0.1,0
					C434.5,415.5,434.6,415.5,434.8,415.5z"/>
				<path fill-rule="evenodd" clip-rule="evenodd" fill="#CE2F2B" d="M430.2,420.4c-1.6,0.6-3.3,0.7-5,0.5c2.4-1.7,4.1-2.7,5-3.1
					c0.9-0.4,2.4-1.2,4.6-2.4c2.2-0.7,4.1-0.9,5.8-0.5c-1.2,0.6-2.8,1.5-5,2.6c-2.2,1.2-3.6,2-4.4,2.3
					C430.5,420.3,430.2,420.4,430.2,420.4z"/>
			</g>
		</g>
	</g>
	<g>
		<g>
			
				<radialGradient id="SVGID_10_" cx="170.3506" cy="188.8501" r="21.4495" gradientTransform="matrix(1.1465 0 0 1.1425 347.7999 393.9075)" gradientUnits="userSpaceOnUse">
				<stop  offset="0" style="stop-color:#FFFFFF"/>
				<stop  offset="0.6824" style="stop-color:#FFFFFF;stop-opacity:0"/>
				<stop  offset="1" style="stop-color:#FFFFFF;stop-opacity:0"/>
			</radialGradient>
			<path fill-rule="evenodd" clip-rule="evenodd" fill="url(#SVGID_10_)" d="M568,609.4c0,0.1,0,0.1-0.1,0.2c-0.1,0-0.1,0.1-0.2,0.1
				c-15.4-1.8-31.8-1.6-49.1,0.5c-0.1,0-0.2,0-0.2-0.1c-0.1,0-0.1-0.1-0.1-0.2c0-0.1,0-0.2,0.1-0.2c0-0.1,0.1-0.1,0.2-0.1
				c17.4-2.1,33.8-2.3,49.2-0.5c0.1,0,0.1,0,0.2,0.1C568,609.3,568,609.4,568,609.4z"/>
			
				<radialGradient id="SVGID_11_" cx="229.9375" cy="192.2998" r="27.9125" gradientTransform="matrix(1.1465 0 0 1.1424 347.7999 393.9407)" gradientUnits="userSpaceOnUse">
				<stop  offset="0" style="stop-color:#FFFFFF"/>
				<stop  offset="0.6824" style="stop-color:#FFFFFF;stop-opacity:0"/>
				<stop  offset="1" style="stop-color:#FFFFFF;stop-opacity:0"/>
			</radialGradient>
			<path fill-rule="evenodd" clip-rule="evenodd" fill="url(#SVGID_11_)" d="M579.3,612.2c0-0.1,0-0.2,0-0.2c0-0.1,0-0.1,0.1-0.1
				c0.1,0,0.2,0,0.2,0c11.4,4.2,32.6,5.2,63.7,2.9c0.1,0,0.2,0,0.2,0.1c0,0,0.1,0.1,0.1,0.2c0,0.1,0,0.2-0.1,0.2
				c0,0-0.1,0.1-0.2,0.1c-31.2,2.3-52.5,1.3-64-3C579.3,612.4,579.3,612.3,579.3,612.2z"/>
			
				<radialGradient id="SVGID_12_" cx="203.8999" cy="181.1001" r="5.25" gradientTransform="matrix(1.1465 0 0 1.1438 347.7999 393.6448)" gradientUnits="userSpaceOnUse">
				<stop  offset="0" style="stop-color:#FFFFFF"/>
				<stop  offset="0.6824" style="stop-color:#FFFFFF;stop-opacity:0"/>
				<stop  offset="1" style="stop-color:#FFFFFF;stop-opacity:0"/>
			</radialGradient>
			<path fill-rule="evenodd" clip-rule="evenodd" fill="url(#SVGID_12_)" d="M584.2,593.6c0-0.1,0.1-0.1,0.2-0.1s0.2,0,0.2,0.1
				c0,0,0.1,0.1,0.1,0.2s0,0.2-0.1,0.2c-2.2,2.4-3.1,4.6-2.8,6.5c0.4,1.9,2,3.5,4.9,4.8c0.1,0,0.1,0.1,0.2,0.2c0,0,0,0.1,0,0.2
				c0,0.1-0.1,0.1-0.2,0.2c-0.1,0-0.2,0-0.2,0c-3.1-1.5-4.9-3.2-5.3-5.2C580.9,598.5,581.8,596.2,584.2,593.6z"/>
			
				<radialGradient id="SVGID_13_" cx="239.2627" cy="185.1001" r="27.2376" gradientTransform="matrix(1.1465 0 0 1.1423 347.7999 393.9293)" gradientUnits="userSpaceOnUse">
				<stop  offset="0" style="stop-color:#FFFFFF"/>
				<stop  offset="0.6824" style="stop-color:#FFFFFF;stop-opacity:0"/>
				<stop  offset="1" style="stop-color:#FFFFFF;stop-opacity:0"/>
			</radialGradient>
			<path fill-rule="evenodd" clip-rule="evenodd" fill="url(#SVGID_13_)" d="M590.6,606.7c0-0.1,0-0.1,0.1-0.2
				c0.1,0,0.2-0.1,0.2-0.1c22.1,3.4,42.9,2.4,62.3-2.9c0.1,0,0.2,0,0.2,0.1c0,0,0.1,0.1,0.1,0.2c0,0.1,0,0.2,0,0.2
				c-0.1,0-0.1,0.1-0.2,0.1c-19.5,5.4-40.3,6.3-62.5,2.9c-0.1,0-0.1,0-0.2-0.1C590.7,606.9,590.6,606.8,590.6,606.7z"/>
			
				<radialGradient id="SVGID_14_" cx="245.5996" cy="178.3501" r="20.3505" gradientTransform="matrix(1.1465 0 0 1.1423 347.7999 393.9041)" gradientUnits="userSpaceOnUse">
				<stop  offset="0" style="stop-color:#FFFFFF"/>
				<stop  offset="0.6824" style="stop-color:#FFFFFF;stop-opacity:0"/>
				<stop  offset="1" style="stop-color:#FFFFFF;stop-opacity:0"/>
			</radialGradient>
			<path fill-rule="evenodd" clip-rule="evenodd" fill="url(#SVGID_14_)" d="M605.9,600.5c0-0.1,0-0.1,0.1-0.2
				c0.1,0,0.2-0.1,0.2-0.1c15.4,2.4,30.8,0.5,46.1-5.8c0.1,0,0.2,0,0.2,0c0.1,0,0.1,0,0.2,0.1c0,0.1,0,0.2,0,0.2
				c0,0.1-0.1,0.1-0.2,0.2c-15.5,6.3-31,8.3-46.5,5.8c-0.1,0-0.1,0-0.2-0.1S605.9,600.6,605.9,600.5z"/>
			
				<radialGradient id="SVGID_15_" cx="280.2998" cy="179.6538" r="10.5969" gradientTransform="matrix(1.1465 0 0 1.1425 347.7999 393.8791)" gradientUnits="userSpaceOnUse">
				<stop  offset="0" style="stop-color:#FFFFFF"/>
				<stop  offset="0.6824" style="stop-color:#FFFFFF;stop-opacity:0"/>
				<stop  offset="1" style="stop-color:#FFFFFF;stop-opacity:0"/>
			</radialGradient>
			<path fill-rule="evenodd" clip-rule="evenodd" fill="url(#SVGID_15_)" d="M671.2,586.9c0,0,0.1,0.1,0.2,0.2
				c3.1,5.5,4.3,10.3,3.6,14.3c-0.7,4.1-3.2,7.4-7.6,9.9c-0.1,0-0.2,0-0.2,0c-0.1,0-0.1-0.1-0.2-0.1c-0.1-0.1-0.1-0.2-0.1-0.2
				c0-0.1,0.1-0.1,0.2-0.2c4.2-2.4,6.6-5.6,7.3-9.5c0.6-3.9-0.6-8.6-3.6-13.9c-0.1-0.1-0.1-0.2-0.1-0.2c0-0.1,0.1-0.1,0.2-0.2
				C671,586.9,671.1,586.9,671.2,586.9z"/>
			
				<radialGradient id="SVGID_16_" cx="275.0498" cy="195.8999" r="10.8" gradientTransform="matrix(1.1465 0 0 1.1425 347.7999 393.9303)" gradientUnits="userSpaceOnUse">
				<stop  offset="0" style="stop-color:#FFFFFF"/>
				<stop  offset="0.6824" style="stop-color:#FFFFFF;stop-opacity:0"/>
				<stop  offset="1" style="stop-color:#FFFFFF;stop-opacity:0"/>
			</radialGradient>
			<path fill-rule="evenodd" clip-rule="evenodd" fill="url(#SVGID_16_)" d="M671.8,611.3c0,0,0.1,0.1,0.1,0.2
				c-0.2,7.9-7.6,12-22,12.1c-0.1,0-0.1,0-0.2-0.1c-0.1-0.1-0.1-0.2-0.1-0.2c0-0.1,0-0.1,0.1-0.2c0-0.1,0.1-0.1,0.2-0.1
				c14-0.1,21.1-4,21.4-11.5c0-0.1,0-0.1,0.1-0.2c0-0.1,0.1-0.1,0.2-0.1C671.7,611.2,671.7,611.2,671.8,611.3z"/>
			
				<radialGradient id="SVGID_17_" cx="105.8008" cy="169.5" r="7.5494" gradientTransform="matrix(1.1465 0 0 1.1427 347.7999 393.7939)" gradientUnits="userSpaceOnUse">
				<stop  offset="0" style="stop-color:#FFFFFF"/>
				<stop  offset="0.6824" style="stop-color:#FFFFFF;stop-opacity:0"/>
				<stop  offset="1" style="stop-color:#FFFFFF;stop-opacity:0"/>
			</radialGradient>
			<path fill-rule="evenodd" clip-rule="evenodd" fill="url(#SVGID_17_)" d="M475.3,581.1c0,0.1,0,0.2-0.1,0.2L463.4,594
				c-0.1,0-0.2,0.1-0.2,0.1c-0.1,0-0.1,0-0.2-0.1c-0.1-0.1-0.1-0.2-0.1-0.2s0-0.1,0.1-0.2l11.8-12.6c0-0.1,0.1-0.1,0.2-0.1
				c0.1,0,0.2,0,0.2,0.1C475.3,581,475.3,581,475.3,581.1z"/>
			
				<radialGradient id="SVGID_18_" cx="100.7998" cy="188.75" r="8.25" gradientTransform="matrix(1.1465 0 0 1.143 347.7999 393.8062)" gradientUnits="userSpaceOnUse">
				<stop  offset="0" style="stop-color:#FFFFFF"/>
				<stop  offset="0.6824" style="stop-color:#FFFFFF;stop-opacity:0"/>
				<stop  offset="1" style="stop-color:#FFFFFF;stop-opacity:0"/>
			</radialGradient>
			<path fill-rule="evenodd" clip-rule="evenodd" fill="url(#SVGID_18_)" d="M458.7,601.2c0.1,0,0.1,0,0.2,0.1c0,0.1,0,0.2,0,0.2
				c-1.5,3.3-1.5,6.2,0.1,8.6c1.6,2.5,4.7,4.5,9.3,6.1c0.1,0,0.1,0,0.2,0.1c0,0.1,0,0.2,0,0.2c0,0.1-0.1,0.1-0.2,0.2
				c-0.1,0-0.1,0-0.2,0c-4.8-1.6-8-3.7-9.6-6.2c-1.7-2.6-1.7-5.6-0.2-9.2c0-0.1,0-0.1,0.1-0.1C458.5,601.2,458.6,601.2,458.7,601.2z
				"/>
			
				<radialGradient id="SVGID_19_" cx="139.3823" cy="180.7998" r="9.85" gradientTransform="matrix(1.1465 0 -6.547356e-002 0.9297 345.0397 432.3461)" gradientUnits="userSpaceOnUse">
				<stop  offset="0" style="stop-color:#FFFFFF"/>
				<stop  offset="0.6824" style="stop-color:#FFFFFF;stop-opacity:0"/>
				<stop  offset="1" style="stop-color:#FFFFFF;stop-opacity:0"/>
			</radialGradient>
			<path fill-rule="evenodd" clip-rule="evenodd" fill="url(#SVGID_19_)" d="M495,590.9c0.1,0,0.2,0,0.2,0.1c0,0,0,0.1-0.1,0.2
				c-1.8,5-2.1,8.9-0.9,11.7c1.2,2.7,4,4.3,8.3,4.8c0.1,0,0.1,0,0.2,0.1c0,0.1,0.1,0.2,0.1,0.2c0,0,0,0.1-0.1,0.1
				c-0.1,0-0.1,0.1-0.2,0.1c-4.5-0.5-7.4-2.2-8.7-5.1s-1-6.9,0.9-12c0-0.1,0.1-0.1,0.2-0.2C494.9,590.9,494.9,590.9,495,590.9z"/>
			
				<radialGradient id="SVGID_20_" cx="181.25" cy="200.1001" r="56.45" gradientTransform="matrix(1.1465 0 0 1.1425 347.7999 393.9633)" gradientUnits="userSpaceOnUse">
				<stop  offset="0" style="stop-color:#FFFFFF"/>
				<stop  offset="0.6824" style="stop-color:#FFFFFF;stop-opacity:0"/>
				<stop  offset="1" style="stop-color:#FFFFFF;stop-opacity:0"/>
			</radialGradient>
			<path fill-rule="evenodd" clip-rule="evenodd" fill="url(#SVGID_20_)" d="M490.6,621.4c0-0.1,0-0.1,0.1-0.2
				c0-0.1,0.1-0.1,0.2-0.1l129.4,2.2c0.1,0,0.2,0,0.2,0.1c0,0,0.1,0.1,0.1,0.1c0,0.1,0,0.2-0.1,0.2c-0.1,0-0.2,0.1-0.2,0.1
				l-129.4-2.2c-0.1,0-0.1,0-0.2-0.1C490.6,621.6,490.6,621.5,490.6,621.4z"/>
		</g>
	</g>
	<g>
		<g>
			
				<linearGradient id="SVGID_21_" gradientUnits="userSpaceOnUse" x1="3.165" y1="-54.7607" x2="1.6485" y2="-117.5689" gradientTransform="matrix(1.1465 0 0 1.1465 347.7999 393.1505)">
				<stop  offset="3.921569e-003" style="stop-color:#82715F"/>
				<stop  offset="1" style="stop-color:#5C453F"/>
			</linearGradient>
			<path fill-rule="evenodd" clip-rule="evenodd" fill="url(#SVGID_21_)" d="M353.6,326.8c0,0.2-0.1,0.4-0.1,0.6
				c-0.1,0.4-0.3,0.7-0.5,1.1c-0.4,0.6-0.9,1-1.5,1H351c-0.5-0.1-0.9-0.4-1.3-0.9c0-0.1-0.1-0.2-0.1-0.2c-0.2-0.5-0.4-1.1-0.5-1.8
				c0,0,0-0.1,0-0.2c0-0.2,0-0.4-0.1-0.7l-0.5-60.2v-0.1c0-0.2,0-0.3,0.1-0.5c0-0.3,0.2-0.5,0.3-0.7c0.3-0.3,0.6-0.5,1-0.5
				c0.3-0.1,0.7,0,1,0.3c0.3,0.2,0.4,0.6,0.4,1l2.3,60.3c0,0.1,0,0.2,0,0.3l0.1,0.4C353.6,326.5,353.6,326.7,353.6,326.8z"/>
			<path fill-rule="evenodd" clip-rule="evenodd" fill="#504038" d="M348.9,346.7l0.1-19.6c0.1,0.5,0.2,1,0.5,1.4
				c0,0.1,0.1,0.2,0.1,0.2c0.4,0.5,0.8,0.7,1.3,0.9h0.5c0.6-0.1,1.1-0.4,1.5-1c0.2-0.3,0.4-0.7,0.5-1.1c0-0.2,0.1-0.4,0.1-0.6v29.6
				c0,0.8-0.2,1.5-0.6,2.1c-0.5,0.7-1,1-1.7,1.1c-0.4,0-0.8-0.1-1.1-0.4c-0.2-0.2-0.4-0.3-0.5-0.5c-0.3-0.5-0.5-1-0.6-1.6
				L348.9,346.7z"/>
			
				<linearGradient id="SVGID_22_" gradientUnits="userSpaceOnUse" x1="-820.25" y1="-75.8755" x2="818.1501" y2="-75.8755" gradientTransform="matrix(1.1465 0 0 1.1465 347.7999 393.1505)">
				<stop  offset="0" style="stop-color:#F5F3F1"/>
				<stop  offset="1" style="stop-color:#CEC6C2"/>
			</linearGradient>
			<path fill-rule="evenodd" clip-rule="evenodd" fill="url(#SVGID_22_)" d="M349.5,328.5c-0.3-0.4-0.4-0.9-0.5-1.4l-0.1,19.6
				l-1.1-66.3l0.7-14.8l0.5,60.2c0,0.3,0.1,0.5,0.1,0.7c0,0.1,0,0.1,0,0.2C349.1,327.4,349.3,328,349.5,328.5z"/>
		</g>
	</g>
	<g>
		
			<path fill-rule="evenodd" clip-rule="evenodd" fill="none" stroke="#363636" stroke-linecap="round" stroke-linejoin="round" stroke-miterlimit="3" stroke-opacity="0.498" d="
			M339.8,350.7l3.6-3.6c1.1-1.2,1.8-2,2-2.5 M340.3,346.2c0-0.2,0.3-0.4,0.7-0.9c0.4-0.4,1.1-1.1,1.9-2.1c0.8-1,1.5-1.9,2-2.6
			c0.5-0.8,0.8-1.3,1-1.7 M346.5,334.4c-0.2,0.6-0.8,1.4-1.8,2.5c-1,1.1-1.8,1.9-2.5,2.5l-1.1,1.4 M344.4,353
			c-0.3,0.2-0.8,0.5-1.5,0.7c-0.6,0.3-1.6,0.7-3,1.3c-0.1,0-0.2,0.1-0.3,0.1l-1.4,0.7 M337.8,359c0.2-0.2,0.6-0.4,1-0.6
			c0.4-0.2,0.9-0.4,1.4-0.6c0.5-0.2,1.2-0.6,2.4-1.1c1.1-0.5,1.6-0.9,1.7-1 M345.1,348.4c-0.4,1.5-1.9,2.6-4.7,3.6
			c-0.5,0.2-0.9,0.3-1.3,0.5 M344.4,358.9c-0.1,0.2-0.7,0.6-1.8,1c-1.1,0.4-2.3,0.8-3.3,1.2l-1.3,0.6 M337.2,363.5
			c0.3-0.2,0.8-0.3,1.5-0.4c2.1-0.2,4-1.1,5.9-2.6 M341.7,372c-0.3,0.6-0.9,1-1.8,1.1c-1.8,0.2-3.6,0.6-5.3,1.2 M335.4,371.3
			l1.3-0.3c0.9-0.2,1.9-0.4,3-0.5c1.1-0.2,1.9-0.3,2.1-0.4 M342.4,367c-1.4,0.6-2.8,1.1-4.2,1.4c-1.3,0.2-2.2,0.4-2.7,0.6
			 M342.9,364.3c-0.3,0.2-1.1,0.4-2.1,0.6c-1.1,0.1-2.5,0.4-4.1,0.9 M340.1,374.6c-0.3,0.3-0.9,0.7-2,1.1c-1.1,0.5-2.1,0.9-3,1.3
			l-0.7,0.4 M333.9,380.9l0.4-0.3c0.6-0.5,1.4-0.9,2.5-1.3c1.1-0.4,2.2-1.1,3.4-2.1 M334.2,385.9c0.3-0.3,0.7-0.6,1.2-0.7
			c0.5-0.1,1-0.2,1.4-0.4c0.2-0.1,0.5-0.2,0.7-0.3c1.1-0.6,2.2-1.5,3.2-2.6 M339.8,385.9c-0.7,0.6-1.5,1.2-2.5,1.9
			c-0.9,0.8-1.6,1.5-2.1,2.2l-0.7,1.2 M340.3,380.4c-0.2,0.2-0.9,0.5-2,0.9c-1,0.4-1.9,0.8-2.8,1.2l-1.1,0.5 M334.8,395.3
			c0.2-0.1,0.9-0.8,2.2-2.3c1.3-1.5,2.2-2.6,2.5-3.3 M340.5,397.7c-0.2,0.2-0.4,0.5-0.7,0.7c-1.5,1.1-2.9,2.7-4.2,4.5 M340.1,400.3
			c-1.2,2.1-1.9,3.6-2.1,4.2l-0.3,1.2 M335.6,398.7l1-1c0.6-0.6,1.2-1.2,1.9-1.8c1.1-1,1.7-1.6,1.8-1.8 M339.4,409.1
			c0.2,0,0.5-0.6,1-1.5c0.6-1.4,1.1-2.4,1.3-3.1c0.2-0.7,0.2-1.2,0.3-1.4 M348.3,409.8c-0.8,0.8-1.6,1.6-2.5,2.5
			c-0.7,0.8-1.1,1.5-1.3,2 M344.2,406.4c0,0.3-0.3,1-1,2c-0.7,1-1.3,2-1.8,3.3 M346.3,408.6c-0.1,0.1-0.2,0.2-0.3,0.3
			c-0.8,0.7-2,2.4-3.6,5 M634.3,445.7l-1.9-1.1c-1.2-0.6-2.5-1.2-4.1-1.5s-3.5-1.2-5.9-2.5c0.8,0.3,1.7,0.4,2.6,0.3
			c2.2-0.2,4.4-0.1,6.6,0.5 M627.8,445.1c0,0,0.7,0.4,2,1.3c1.3,0.8,3.7,2.2,7.5,4.1 M643.9,464.6l-1.3-1.4c-1-1.1-1.9-2.1-2.8-2.9
			c-0.9-0.8-1.6-1.4-2.3-1.9 M638.3,463.1c0.2,0.3,0.5,0.6,0.8,0.9c1,1.3,2.2,2.6,3.6,3.9c1.4,1.2,2.2,1.9,2.3,2.1 M631,450.2
			c0.4,0.4,1.4,0.9,3,1.5c1.5,0.7,2.8,1.3,4.1,2l1.9,1 M634,454.6c0.6,0.4,1.3,0.8,2.1,1.1c2.7,1.1,5.1,2.6,7.1,4.4 M646.9,480.1
			c-1.8-2.1-3.6-3.8-5.3-5.3c-0.2-0.2-0.4-0.4-0.6-0.5 M645.9,474.7l-1.3-1.3c-0.9-0.9-1.9-1.8-3-2.7c-1.2-0.9-1.9-1.5-2.2-1.9
			 M647.2,485.2l-1.1-1.6c-0.3-0.5-1.1-1.4-2.3-2.8s-1.9-2.3-2.1-2.9 M641.9,482.8c0.9,1.5,1.5,2.5,1.8,2.9c0.3,0.5,0.7,1.1,1.3,1.8
			c0.6,0.7,1.4,1.7,2.5,3 M648,495.4c-1.6-1.6-2.8-3-3.7-4.2c-1-1.1-1.6-2-2-2.7 M648.5,500.6c-0.5-0.9-1.2-1.8-2.1-2.6
			c-1.4-1.3-2.6-3-3.7-4.9 M643.9,503.7c0.2,0.3,0.7,1.1,1.4,2.1c0.7,1,1.4,1.9,2.1,2.5c0.7,0.6,1.1,1.1,1.4,1.3s0.5,0.6,0.9,1.1
			c0.1,0.2,0.2,0.5,0.4,0.7 M643.4,498.8c0.3,0.6,1,1.5,2.1,2.8c1.1,1.2,2,2.2,2.7,2.9l1.2,1.6 M596.2,432.5
			c2.3-0.9,4.1-1.8,5.4-2.7c1.3-0.9,2.4-1.5,3.4-1.9l0.8-0.3 M599.1,427.5l-1.7,0.9c-1.1,0.5-2.2,1.2-3.3,2.1
			c-1.2,0.9-2.1,1.4-2.6,1.5 M594,427.2c-1,0.3-2,0.8-3,1.6c-1.4,1.1-3.7,2.3-6.8,3.6 M583.5,426.3c-0.4,0.2-0.9,0.6-1.5,1
			c-2.9,2.1-5.3,3.4-7.1,4 M580.7,431.8c0.6-0.2,1.6-0.6,2.9-1.4c1.2-0.8,2.8-1.9,4.6-3.3 M614.1,434.8c0.8,0.1,1.9,0.3,3.2,0.5
			c1.3,0.2,2.6,0.2,4,0.2c1.4-0.1,2.1-0.1,2.2-0.1 M618.9,432.5l-1.9-0.2c-1.1-0.2-2.4-0.2-3.8-0.1c-1.4,0.2-2.8,0.6-4.2,1.5
			 M601.9,433c0.5-0.2,1.4-0.7,2.5-1.6c1.1-0.8,2.3-1.5,3.4-2.2l1.5-1 M604.1,433.4c1.8,0,3.7-0.6,5.7-2.1c2.3-1.6,4-2.2,5.3-1.7
			 M627.2,438l-4.1,0.1c-1.5,0.1-3,0.1-4.4-0.1 M555.8,425.8l-1.6,1c-1.4,0.8-2.5,1.5-3.3,2.2c-0.8,0.7-1.5,1.2-2.1,1.3
			 M553.8,430.7c0.3-0.1,1-0.5,2.1-1.1c1-0.7,2.1-1.4,3.1-2.1c1-0.7,1.7-1.1,2.1-1.3c0.3-0.1,0.5-0.2,0.6-0.2 M550.8,425.6
			c-2.3,1.5-4.3,3-6.1,4.4c-0.8,0.7-1.8,1.1-2.8,1.2 M538.3,430.6c0.4-0.1,1-0.5,1.8-1.2c0.8-0.7,2-1.6,3.6-2.7l1.5-1 M540.4,425.5
			c-1.3,1-2.6,2-4,3c-1.4,1-2.7,1.7-4,2.1 M570.2,430.9c0.5-0.1,1.4-0.5,2.5-1.3c1.1-0.7,2.9-1.8,5.2-3.2 M559.6,431.2
			c0.5-0.2,1.3-0.7,2.3-1.7c1-0.8,2-1.5,3-2.1l1.4-1 M572.2,426.3c-2.3,1.5-4.3,2.9-6,4.2c-1,0.7-2.1,1.1-3.3,1.1 M652.8,526.7
			l-1.3-1.5c-0.9-1.1-1.9-2.1-3-3.2c-1.2-1.1-1.9-1.9-2.2-2.5 M647.2,524.4c0.2,0.3,0.6,0.9,1.1,1.5c0.5,0.7,1,1.3,1.7,1.9
			c0.6,0.6,1.3,1.2,1.9,1.9c0.6,0.7,1.1,1.2,1.5,1.7c0.2,0.2,0.3,0.5,0.5,0.7l0.1,0.1c0,0,0.1,0.1,0.1,0.2c0.8,1.5,1.1,3.1,0.9,4.7
			l-1.4-1.5c-0.9-1-1.9-2-3.1-3.2c-1.1-1.1-1.8-1.9-2.2-2.3 M651.7,521.5c-0.6-1-1.4-1.9-2.5-2.9c-1.4-1.3-2.7-2.9-3.9-4.7
			 M644.6,509.4c0.3,0.5,1.1,1.5,2.5,2.9c1.3,1.4,2.2,2.3,2.5,2.6l1.3,1.5 M656.2,542.1c-0.7-0.8-1.5-1.7-2.5-2.5
			c-1.6-1.3-3-2.9-4.4-4.8 M650.8,540.4c0.5,0.6,1.4,1.5,2.7,2.7c1.3,1.1,2.4,2.1,3.1,2.9l1.5,1.6 M652.2,545.2
			c0.2,0.3,0.7,0.9,1.4,1.8c0.7,0.8,1.5,1.6,2.4,2.3c0.9,0.7,1.5,1.3,1.9,1.7c0.4,0.4,0.8,0.9,1.3,1.4c0.2,0.2,0.4,0.6,0.7,1
			 M662.9,563.5c-2-2.2-4.1-4.2-6.1-6.1c-0.7-0.6-1.2-1.3-1.6-1.9 M656.7,560.7c0.3,0.5,1.1,1.4,2.4,2.5c1.3,1.1,2.4,2.1,3.4,3.2
			l1.5,1.6 M653.9,551c0.4,0.6,1.3,1.6,2.6,2.9c1.3,1.3,2.9,2.7,4.8,4.2 M668.9,585.8c-4.4-4.9-7-8.2-8-9.9 M659.8,571.4
			c0.3,0.6,1.6,1.9,3.7,3.8c2.1,1.9,3.3,3,3.7,3.2 M665.6,573.5c-1.7-1.8-2.9-3-3.6-3.7c-0.7-0.8-1.5-1.6-2.3-2.4
			c-0.8-0.8-1.3-1.4-1.5-1.8 M494.1,418c-1.1,0.2-2.3,0.6-3.5,1.3c-1.5,1-3.2,1.9-5.2,2.6 M490.7,422.8c0.6-0.1,1.5-0.5,2.8-1.2
			c1.3-0.7,2.4-1.3,3.3-1.7l1.7-0.7 M503.1,426.3c1,0.2,2,0,3-0.5c1.8-1,4.1-2.1,6.9-3.3 M503.7,420.3c-0.4,0.1-1.4,0.6-3,1.4
			c-1.6,0.8-2.8,1.3-3.4,1.6c-0.7,0.3-1.4,0.5-2.1,0.6 M500.5,425.1c0.7-0.2,1.7-0.6,2.9-1.3c1.1-0.7,2.2-1.3,3.1-1.8l1.5-0.7
			 M522,429.5c1-0.1,1.9-0.5,2.9-1c2.1-1.3,4.2-2.6,6.3-3.9 M525.9,424.2l-1.5,1c-0.9,0.6-1.9,1.3-3.1,2.1c-1.2,0.8-2.2,1.3-2.9,1.5
			 M527.7,429.9c0.5-0.1,1.3-0.5,2.2-1.3c0.9-0.8,2.6-1.9,5-3.3 M508.6,427.6c0.6-0.1,1.5-0.6,2.8-1.5c1.2-0.9,2.3-1.6,3.3-2.1
			l1.7-0.9 M513.1,428.2c1.3-0.3,2.7-1,4.3-2.1c1.6-1.1,3-1.9,4.2-2.5 M464.4,414.4c0.2,0,0,0-0.4,0.1c-0.5,0.1-1,0.2-1.5,0.4
			c-0.6,0.2-1.2,0.4-1.8,0.6c-0.6,0.2-1.6,0.7-2.9,1.3c-1.3,0.7-2.7,1.2-4,1.6c-1.3,0.4-2.2,0.7-2.6,0.8 M471.8,418.4
			c0.6-0.1,1.5-0.5,2.6-1.1c1.1-0.6,2.3-1.1,3.4-1.5l1.7-0.7 M458.6,419.1c0.9-0.3,2.3-0.9,4.2-1.8c1.9-0.9,3.6-1.6,5.1-2.2l2.2-1
			 M481.5,420.8c0.5-0.1,1.3-0.5,2.4-1.1c1.2-0.6,2.9-1.4,5-2.3 M484.6,416.1c-3.6,1.6-5.7,2.6-6.2,2.8c-0.5,0.2-1.2,0.4-2.1,0.6
			 M468,417.8c3-1.3,6-2.5,9.2-3.7 M436,420c0.3-0.1,0.7-0.3,1.4-0.6c0.4-0.2,0.9-0.5,1.4-0.8c1.5-0.9,3-1.8,4.5-2.7l1.7-1
			 M450.9,414.5c-3,1.3-5.7,2.7-8.1,4.2c-0.9,0.5-1.8,0.9-2.7,1.2 M456.4,414.5l-2.5,1c-1.9,0.8-3.8,1.6-5.6,2.4
			c-1.8,0.8-3.1,1.4-3.7,1.5 M420.4,415.7l-0.7,0.2c-0.5,0.1-1.1,0.3-1.8,0.6c-0.8,0.3-1.7,0.8-2.6,1.3c-1,0.5-1.8,0.9-2.6,1.3
			s-1.5,0.6-2.2,0.8 M419.7,421c0.2-0.1,0.4-0.1,0.6-0.2c2-0.8,3.7-1.7,5.2-2.8c1.2-0.8,2.3-1.4,3.4-1.8 M415.8,420.4
			c0.6-0.2,1.6-0.7,2.9-1.4c1.5-0.8,2.8-1.4,4-1.9l2-0.8 M434.4,415.6c-2,1.1-3.4,1.9-4.2,2.3c-0.9,0.4-2.6,1.4-5,3 M430.2,420.4
			c-0.1,0,0.3-0.2,1-0.5c0.7-0.3,2.2-1.1,4.4-2.3c2.2-1.2,3.8-2.1,5-2.6 M396.5,413.6l-1.8,0.8c-1.8,0.7-3.2,1.5-4.3,2.2
			c-1.1,0.7-2,1.1-2.8,1.4 M392.1,418.3c0.8-0.3,1.5-0.5,2.1-0.8s1.4-0.7,2.5-1.3c1-0.6,1.9-1.1,2.8-1.4c0.7-0.3,1.3-0.6,1.7-0.6
			c0.4-0.1,0.6-0.2,0.7-0.2 M397.4,418.7c0.6-0.2,1.5-0.7,2.8-1.4c1.5-0.8,2.8-1.5,3.9-2.1l2-0.8 M400.8,419.2
			c2.1-0.9,4-1.8,5.8-2.8c1.6-0.9,3.1-1.5,4.4-1.7c1.6-0.3,2.9-0.1,4,0.6l-1.8,0.7c-1.3,0.5-2.8,1.2-4.2,1.9c-1.2,0.8-2.2,1.2-3,1.4
			 M383.4,413.2c-0.2,0-0.3,0.1-0.5,0.2c-0.5,0.2-1,0.5-1.7,0.9c-0.8,0.5-1.6,1-2.6,1.7c-1,0.7-2,1.3-2.9,1.8
			c-0.4,0.3-0.8,0.5-1.1,0.6 M370.4,418.3c0.6-0.3,1.5-0.8,2.5-1.7c1.3-0.9,2.6-1.7,3.8-2.4l1.7-0.9 M379.7,418.4
			c0.6-0.3,1.4-0.8,2.5-1.7c1.3-0.9,2.5-1.7,3.5-2.4l1.8-1 M392.1,413.3c-2.3,1.3-4.4,2.7-6.5,4.2c-0.3,0.2-0.7,0.4-1,0.6
			 M362.6,412.6l-1.6,0.8c-1.1,0.6-2.2,1.4-3.3,2.2c-0.9,0.8-1.7,1.3-2.2,1.5 M359.9,412.1c-1.3,0.2-2.6,0.9-4.1,2
			c-1.4,1-2.9,1.9-4.5,2.6 M351.7,410.6c-0.2,0.3-0.6,0.6-1,1c-0.5,0.4-0.9,0.8-1.2,1.2c-0.4,0.4-0.7,0.8-1.1,1.3
			c-0.3,0.4-0.8,0.7-1.3,0.9 M349.9,416c0.4-0.2,1-0.8,1.7-1.7c0.8-0.9,1.5-1.7,2.2-2.3c1-0.8,1.8-1.2,2.5-1 M363.6,417.9
			c0.5-0.2,1.2-0.7,2.2-1.5c1.1-0.8,2.2-1.5,3-2.1l1.7-0.9 M373.8,413.6c-1.6,1.1-3.3,2.4-5.1,3.8c-1,0.6-1.9,1-2.9,1 M359.4,417.5
			c1.9-1,3.4-1.9,4.6-2.8c1.2-0.9,2-1.5,2.4-1.6l0.5-0.2 M348.7,328.4c-2,2.2-3.7,3.8-5,4.8"/>
	</g>
</g>
</svg>
