<svg xmlns="http://www.w3.org/2000/svg" id="Layer_1" width="700" height="700" viewBox="0 0 700 700"><style>.a{fill-opacity:0.498;}.b{stop-color:#FFF;}.c{stop-color:#999;}.d{stop-color:#C3C2C2;}.e{stop-color:#E2E0E0;}.f{stop-color:#ADACAC;}.g{stop-color:#D9D3D3;}.h{stop-color:#B8B7B7;}.i{stop-color:#070707;}.j{stop-color:#F7F7F5;}.k{stop-color:#525252;}.l{stop-color:#23C8AA;}.m{stop-color:#1EB196;}.n{stop-color:#BF2625;}.o{stop-color:#87231D;}.p{stop-color:#EEEFEF;}.q{stop-color:#5A5F62;}.r{stop-color:#000;}.s{stop-color:#414141;}.t{stop-color:#514F4F;}.u{stop-color:#888484;}.v{stop-color:#E0D8D8;}.w{stop-color:#EEEAEA;}.x{stop-color:#C9BFBF;}.y{stop-color:#8E8D8D;}.z{stop-color:#B0B0B0;}.A{fill:#9F2420;}.B{fill:#15806D;}.C{fill:#1DA58D;}.D{fill:#CE2F2B;}.E{stop-color:#FFF;stop-opacity:0;}</style><path d="M546.9 464.6l-2.9-14.2h7.9c1.1 3.4 2.6 8.1 4.4 14.2H546.9z" class="a"/><path d="M587.2 567.3l0.9 10.5c0 0.2 0 0.4-0.1 0.6l-5 19.1c0 0.2-0.1 0.3-0.2 0.5 -1.9 3-1.9 5.4 0.3 7.2 2.9 2.1 8.5 3.5 16.7 4.2 38.5 1.3 59.7-3.5 63.5-14.3 0.1-0.5 0.4-0.8 0.9-1 0.4-0.2 0.9-0.3 1.3-0.1 0.4 0.1 0.7 0.4 1 0.9 0.2 0.4 0.2 0.9 0.1 1.3 -3.9 12.5-26.2 18.1-67 16.7h-0.1c-9.2-0.8-15.3-2.5-18.5-5 -3.9-2.9-4.3-6.7-1.3-11.5l4.9-18.6 -0.9-10.2c0-0.5 0.1-0.9 0.4-1.3 0.3-0.4 0.7-0.6 1.2-0.6 0.5 0 0.9 0.1 1.3 0.4C587 566.4 587.2 566.8 587.2 567.3zM610.6 563.7c0.4 0.2 0.6 0.6 0.7 1l3.1 12.2c0.1 0.3 0.1 0.6 0 1 -0.1 0.3-0.3 0.6-0.6 0.7 -8.5 7-12.9 12.5-13.4 16.6 0 3.4 3.6 5.8 10.7 7 17 1.1 29.7-0.2 38.2-4.1 8-3.6 12-9.6 12-17.9 0-0.5 0.2-0.9 0.5-1.2s0.7-0.5 1.2-0.5c0.5 0 0.9 0.2 1.2 0.5 0.3 0.3 0.5 0.7 0.5 1.2 0 9.8-4.7 16.8-14 21.1 -8.9 4.1-22.2 5.5-39.9 4.4 0 0-0.1 0-0.2 0 -9.7-1.6-14.3-5.2-13.7-10.7 0.2-4.7 4.8-10.8 13.8-18.3l-2.8-11.1c-0.1-0.5 0-0.9 0.2-1.3 0.2-0.4 0.5-0.7 1-0.8S610.2 563.4 610.6 563.7zM578 617.5c-0.1 0-0.2-0.1-0.3-0.1 -16.2-5-33.3-5.8-51.2-2.2 -0.1 0-0.1 0-0.2 0 -14.3 1.3-23.8 0.3-28.5-3.1 -2.8-2-4.2-4.5-4.1-7.7 0-2.9 1.3-6.5 3.9-10.5 0-0.1 0.1-0.2 0.2-0.2 4.5-4.7 6.8-9.3 6.8-13.7 -0.2-4.5-2.6-8.8-7.4-13 -0.3-0.3-0.5-0.7-0.6-1.2 0-0.5 0.1-0.9 0.5-1.3 0.3-0.3 0.7-0.5 1.2-0.6 0.5 0 0.9 0.1 1.2 0.5 5.6 5 8.4 10.2 8.5 15.5 0.2 5.2-2.3 10.5-7.6 16 -2.1 3.3-3.2 6.2-3.3 8.6 0 2 0.8 3.7 2.6 4.9 4.4 2.9 13.1 3.7 26.2 2.5 18.4-3.6 35.9-2.8 52.6 2.3 47.7 5.5 77.4 3.9 89.1-4.7 0.4-0.3 0.8-0.4 1.3-0.3 0.5 0 0.8 0.2 1.1 0.6 0.3 0.4 0.4 0.8 0.3 1.3 -0.1 0.5-0.3 0.8-0.7 1.1C657.6 621.3 627.1 623.1 578 617.5zM556.9 457.2c0.3-0.4 0.7-0.6 1.1-0.6 37.1-2.4 59.5 1.1 67.2 10.7 0.3 0.4 0.4 0.8 0.4 1.3 0 0.5-0.2 0.8-0.6 1.1 -0.4 0.3-0.8 0.4-1.3 0.4 -0.5 0-0.8-0.2-1.1-0.6 -7.4-8.6-28.7-11.8-64-9.4l3.6 16.6H456l-0.9-8.3 101.3-9.9v-0.1C556.4 457.9 556.5 457.5 556.9 457.2zM653.3 409c-1.5-4.5-5.9-9-13.4-13.5 -31.5-11.7-61.7-8.4-90.5 9.9 0.1 0 0.2-0.1 0.3-0.1 4.4-2 18-5.2 40.9-9.7C612.8 391.2 633.7 395.6 653.3 409zM656.3 440.9l0.7-5.7c-1.4-11.2-19.9-16.2-55.5-15 0 0-0.1 0-0.1 0 -18.8-1.1-32.4-2.6-41-4.5 -4.5-1-7.7-2.1-9.6-3.4 -1.5-1-2.3-2.1-2.6-3.2 -2.4 0.5-4.6 1-6.6 1.5 -0.1 0-0.2 0.1-0.3 0.1 -7.2 1.7-10.8 3.2-10.8 4.6 0.5 1.7 4.7 3.7 12.8 6.1 7.6 2.2 13.7 3.8 18.2 4.9 22.7 0.7 39.4 2.2 50.1 4.3 11.3 2.2 19 10 23.2 23.4 0 0.2 0.1 0.3 0.1 0.5 0.4 8 0.8 15.5 1.3 22.5 0.2 3.3 0.5 6.5 0.7 9.6 1.8 22.8 4.2 38.3 7.2 46.5 1.2 3.4 2.4 5.4 3.7 6 1 0.1 2.2-0.9 3.5-2.9 0.3-11.1-0.3-25-1.6-41.7 0-0.2 0-0.3 0-0.3l6.7-53.1V440.9zM656.4 416.3c-0.1-0.1-0.1-0.1-0.2-0.2 -0.5-0.8-1.1-1.5-1.8-2.2 -19.7-14.5-40.8-19.5-63.1-15 -21.6 4.2-34.7 7.3-39.6 9.2 0 0.4 0.4 0.8 1 1.3 1.6 1.1 4.4 2.1 8.4 3 8.4 1.9 21.9 3.3 40.5 4.4 31-1.1 49.8 2.7 56.4 11.3l0.7-5.8C658.3 420.1 657.5 418.1 656.4 416.3zM641.4 392.3c0.1 0 0.2 0.1 0.3 0.2 10.6 6.5 15.9 13 15.7 19.6 0.6 0.7 1.2 1.4 1.7 2.2 0 0 0.1 0 0.1 0.1 1.5 2.3 2.4 4.9 2.9 7.7 0 0.2 0 0.3 0 0.5l-1.6 12.8c0 0.1 0 0.2 0 0.2 0.1 1.8-0.2 3.7-0.7 5.8l-6.6 53c1.3 16.9 1.9 31 1.5 42.2 1.4 12.1 4.7 23.7 10.1 34.7 0.7 1.4 1.4 2.8 2 4.1 8.1 17.7 11.2 31.8 9.3 42.5 -0.9 6.5-15.5 10.3-44 11.5 -27.3 1.1-67.7 0-121.4-3.4 -24.2 0-40.4-2.4-48.7-7.2 -4.7-2.7-7.1-6.1-7.2-10.1 -0.3-3.8 1.7-8.3 5.8-13.3 0.1-0.2 0.3-0.3 0.5-0.3 8-4.9 13.1-11.4 15.2-19.4 1-4 1.4-8.3 1-13 0-0.5 0.1-0.9 0.5-1.2 0.3-0.4 0.7-0.6 1.1-0.6s0.9 0.1 1.3 0.5c0.3 0.3 0.5 0.7 0.5 1.1 0.3 5.1 0 9.8-1.1 14.2 -2.4 8.8-7.9 15.9-16.6 21.2 -3.3 4.1-5 7.7-4.9 10.7 0.2 2.9 2 5.3 5.5 7.3 8 4.5 23.7 6.7 47.1 6.8 0 0 0.1 0 0.1 0 53.4 3.4 93.8 4.5 121 3.4 26.1-1.1 39.6-3.9 40.7-8.6 1.7-10.1-1.3-23.6-9.1-40.5 -0.6-1.3-1.3-2.7-1.9-4v-0.1c-5-10.2-8.3-20.8-9.9-31.8 -1.7 1.5-3.3 2-5 1.4 -2.2-0.5-4.2-3.2-6-8.1 -3-8.4-5.4-24.2-7.3-47.4v-0.1c-0.2-3.1-0.5-6.3-0.7-9.6 -0.5-7-0.9-14.4-1.3-22.4 -3.7-11.9-10.6-18.8-20.5-20.9 -10.6-2.1-27.2-3.6-49.8-4.3 -0.1 0-0.2 0-0.3 0 -4.6-1.1-10.8-2.7-18.6-4.9 -10.1-3-15.2-6-15.3-9 -0.7-3.2 3.8-6 13.4-8.3C572.5 384.1 606.1 379.1 641.4 392.3z" fill-opacity="0.247"/><path d="M603.4 580.9c2.7-2.8 5-5.3 6.9-7.6 0.2-0.2 0.4-0.4 0.7-0.4s0.6 0.1 0.9 0.3c0.2 0.2 0.4 0.4 0.4 0.7s0 0.6-0.2 0.9c-2 2.3-4.3 4.9-7 7.7 -6.5 6.8-8.6 11.6-6.2 14.5 2.9 3 10.8 4.2 23.4 3.5 25.5-1.4 38-8.9 37.5-22.4 0-0.3 0.1-0.6 0.3-0.8 0.2-0.3 0.4-0.4 0.7-0.4s0.6 0.1 0.9 0.3c0.2 0.2 0.3 0.4 0.3 0.7 0.8 15-12.4 23.3-39.7 24.8 -13.7 0.8-22.1-0.7-25.2-4.3C593.5 594.8 595.6 588.9 603.4 580.9z" fill="#930000"/><path d="M592.2 573.2c-3 5.8-7.1 13.2-12.4 22.2 -5.9 10 8.1 14.5 42 13.4 33.9-1.1 48.4-10 43.5-26.7" style="fill:none;stroke-linejoin:round;stroke-width:2;stroke:#930000"/><path d="M663.9 577.3c0.2-0.3 0.4-0.4 0.7-0.5s0.6 0.1 0.9 0.3c0.2 0.2 0.4 0.4 0.4 0.7 0 0.3 0 0.6-0.2 0.9 -2 2.7-0.7 10.6 3.9 23.8 2.6 7.4 2 12.9-1.5 16.6 -3.4 3.7-9.8 5.6-19.2 5.6 -50.3 0.3-93 0-128.2-1 -29.5 0.3-48.8-2.4-58-7.9 -5-3-7.2-6.8-6.7-11.4 0.5-4.4 3.6-9.5 9.4-15.2 6.4-6.5 11.3-12 14.6-16.7 0.2-0.3 0.4-0.4 0.7-0.5 0.3-0.1 0.5 0 0.8 0.2 0.2 0.2 0.4 0.4 0.5 0.7 0 0.3 0 0.6-0.2 0.9 -3.4 4.7-8.3 10.4-14.8 17 -5.3 5.3-8.2 9.9-8.7 13.9 -0.4 3.7 1.4 6.7 5.6 9.2 9 5.3 27.9 7.8 56.8 7.6h0.1c35.2 1 77.9 1.3 128.1 1 8.5 0 14.4-1.6 17.5-4.8 2.9-3.2 3.2-8 1-14.3C662.4 589 661.2 580.3 663.9 577.3z" fill="#23C8AA"/><linearGradient id="SVGID_1_" gradientUnits="userSpaceOnUse" x1="85.895" y1="0.184" x2="139.162" y2="91.885" gradientTransform="matrix(1.1465 0 0 1.1465 347.7999 393.1505)"><stop offset="0" class="b"/><stop offset="0.7098" class="b"/><stop offset="1" stop-color="#C4C4C4"/></linearGradient><path d="M561.7 469.5c0 0.3-0.1 0.6-0.2 0.9 -0.6 2-2.3 3-5.2 3H418.4c-3.7 0-5.5-1.6-5.5-4.8l-0.4-15.7 -0.1-1.7c0-3.2 1.8-4.8 5.5-4.8h133.7c3.2-0.1 5.1 1.5 5.5 4.8l4.5 17.4C561.7 469 561.7 469.2 561.7 469.5z" fill="url(#SVGID_1_)"/><linearGradient id="SVGID_2_" gradientUnits="userSpaceOnUse" x1="56.4" y1="62.175" x2="186.6" y2="62.175" gradientTransform="matrix(1.1465 0 0 1.1465 347.7999 393.1505)"><stop offset="0" stop-color="#585656"/><stop offset="1" stop-color="#484848"/></linearGradient><path d="M561.7 469.5l0.1 2.7c-0.4 2.5-2.2 3.7-5.4 3.7H418.4c-3.7 0-5.5-1.6-5.5-4.8l-0.5-17.5c0-0.3 0-0.5 0.1-0.7l0.4 15.7c0 3.2 1.8 4.8 5.5 4.8h137.9c2.9 0 4.6-1 5.2-3C561.6 470.1 561.6 469.8 561.7 469.5z" fill="url(#SVGID_2_)"/><linearGradient id="SVGID_3_" gradientUnits="userSpaceOnUse" x1="-71.351" y1="-57.099" x2="-62.601" y2="-57.099" gradientTransform="matrix(-1.1465 0 -0.2474 -1.1465 347.7987 393.1513)"><stop offset="0" class="c"/><stop offset="1" class="d"/><stop offset="1" class="e"/></linearGradient><path d="M442.1 456.6c0.3 0 0.6 0 1 0l1.2 4c-0.4 0-0.8 0-1.2 0h-8.9c-0.1-0.3-0.2-0.6-0.2-0.9l-0.5-2.3c0-0.3-0.1-0.6-0.1-0.9H442.1z" fill="url(#SVGID_3_)"/><linearGradient id="SVGID_4_" gradientUnits="userSpaceOnUse" x1="65.605" y1="62.512" x2="72.019" y2="62.512" gradientTransform="matrix(1.144 -7.596844e-002 0.4035 1.1222 347.8004 393.15)"><stop offset="0" class="c"/><stop offset="0.4863" class="f"/><stop offset="0.5725" class="g"/><stop offset="0.7647" class="h"/><stop offset="1" class="d"/><stop offset="1" class="e"/></linearGradient><path d="M450.1 460.3c-0.1-0.1-0.2-0.2-0.3-0.2 -0.9-0.4-1.5-1-1.7-1.7 -0.2-0.6-0.1-1.2 0.3-1.8 0 0 0.1 0 0.1-0.1 0.6-0.5 1.4-0.9 2.4-1 1 0 2 0.2 2.8 0.6 0.9 0.5 1.5 1 1.7 1.7 0.3 0.7 0.2 1.4-0.3 1.9 -0.5 0.5-1.3 0.8-2.3 0.9C451.8 460.7 450.9 460.6 450.1 460.3z" fill="url(#SVGID_4_)"/><linearGradient id="SVGID_5_" gradientUnits="userSpaceOnUse" x1="78.501" y1="53.112" x2="78.501" y2="49.187" gradientTransform="matrix(1.1465 0 0 1.1465 347.7999 393.1505)"><stop offset="0" class="c"/><stop offset="0.4863" class="f"/><stop offset="0.5725" class="g"/><stop offset="0.7647" class="h"/><stop offset="1" class="d"/><stop offset="1" class="e"/></linearGradient><path d="M441 453.2c-0.1 0-0.2 0-0.3 0.1 -0.8 0.5-1.8 0.7-2.9 0.7 -1.1 0-2.1-0.2-2.9-0.5 0 0-0.1-0.1-0.2-0.2 -0.8-0.3-1.1-0.8-1.1-1.5 0-0.6 0.4-1.1 1.1-1.6 0.8-0.5 1.9-0.7 3-0.7 1.1 0 2.1 0.2 2.9 0.7 0.8 0.5 1.3 1 1.3 1.6C442 452.3 441.7 452.8 441 453.2z" fill="url(#SVGID_5_)"/><linearGradient id="SVGID_6_" gradientUnits="userSpaceOnUse" x1="76.776" y1="52.216" x2="81.342" y2="54.883" gradientTransform="matrix(1.1465 0 0 1.1465 347.7999 393.1505)"><stop offset="0" class="c"/><stop offset="0.4863" class="f"/><stop offset="0.5725" class="g"/><stop offset="0.7647" class="h"/><stop offset="1" class="d"/><stop offset="1" class="e"/></linearGradient><path d="M434.9 453.5c0.8 0.3 1.8 0.5 2.9 0.5 1.1 0 2.1-0.2 2.9-0.7 0.1 0 0.2-0.1 0.3-0.1l-2.3 4.3L434.9 453.5z" fill="url(#SVGID_6_)"/><linearGradient id="SVGID_7_" gradientUnits="userSpaceOnUse" x1="55.599" y1="-101.205" x2="60.091" y2="-101.205" gradientTransform="matrix(-0.8358 0.7848 -1.4623 -0.1997 347.7989 393.15)"><stop offset="0" class="c"/><stop offset="0.4863" class="f"/><stop offset="0.5725" class="g"/><stop offset="0.7647" class="h"/><stop offset="1" class="d"/><stop offset="1" class="e"/></linearGradient><path d="M448.3 456.6c-0.4 0.5-0.5 1.1-0.3 1.8 0.3 0.7 0.8 1.3 1.7 1.7 0.1 0.1 0.2 0.2 0.3 0.2l-7.5-1L448.3 456.6z" fill="url(#SVGID_7_)"/><linearGradient id="SVGID_8_" gradientUnits="userSpaceOnUse" x1="-100.675" y1="-21.295" x2="-93.876" y2="-21.295" gradientTransform="matrix(-1.037 -0.489 0.3982 -1.0798 347.7998 393.1502)"><stop offset="0" class="c"/><stop offset="0.4863" class="f"/><stop offset="0.5725" class="g"/><stop offset="0.7647" class="h"/><stop offset="1" class="d"/><stop offset="1" class="e"/></linearGradient><path d="M437.3 465.4l1.8-5.3 5.5 4.6c-1.1-0.4-2.3-0.5-3.5-0.5 -1.4 0.1-2.5 0.4-3.4 1C437.6 465.3 437.5 465.4 437.3 465.4z" fill="url(#SVGID_8_)"/><linearGradient id="SVGID_9_" gradientUnits="userSpaceOnUse" x1="66.013" y1="-67.551" x2="70.833" y2="-67.551" gradientTransform="matrix(0.226 1.124 -1.1602 4.627400e-002 347.8003 393.1501)"><stop offset="0" class="c"/><stop offset="0.4863" class="f"/><stop offset="0.5725" class="g"/><stop offset="0.7647" class="h"/><stop offset="1" class="d"/><stop offset="1" class="e"/></linearGradient><path d="M444.6 464.8c0 0.1 0 0.2 0.1 0.2 1.1 0.5 1.7 1.1 1.9 1.8 0.1 0.8-0.3 1.4-1.1 1.9 -0.9 0.7-2 1-3.3 1 -1.5 0-2.7-0.2-3.8-0.6 -1.1-0.5-1.7-1.1-1.8-1.9 -0.2-0.6 0-1.2 0.6-1.7 0.2 0 0.4-0.1 0.4-0.2 0.9-0.5 2.1-0.9 3.4-1C442.3 464.2 443.5 464.4 444.6 464.8z" fill="url(#SVGID_9_)"/><linearGradient id="SVGID_10_" gradientUnits="userSpaceOnUse" x1="-53.582" y1="-61.242" x2="-47.097" y2="-61.242" gradientTransform="matrix(-1.1446 6.628940e-002 -0.317 -1.1301 347.8015 393.1511)"><stop offset="0" class="c"/><stop offset="0.4863" class="f"/><stop offset="0.5725" class="g"/><stop offset="0.7647" class="h"/><stop offset="1" class="d"/><stop offset="1" class="e"/></linearGradient><path d="M427.2 457.3c0.7 0.5 1.2 1 1.4 1.5 0.2 0.7-0.1 1.2-0.6 1.7 -0.1 0.1-0.1 0.2-0.2 0.2 -0.6 0.4-1.3 0.6-2.3 0.6 -1 0.1-1.9-0.1-2.8-0.5 -0.8-0.4-1.3-1-1.5-1.7 -0.2-0.6 0.1-1.2 0.7-1.7 0.5-0.5 1.3-0.8 2.3-0.9 1.1 0 2.1 0.2 2.9 0.6C427.1 457.3 427.2 457.3 427.2 457.3z" fill="url(#SVGID_10_)"/><linearGradient id="SVGID_11_" gradientUnits="userSpaceOnUse" x1="112.506" y1="22.138" x2="118.076" y2="22.138" gradientTransform="matrix(1.0395 0.4837 -1.7228 0.4629 347.7996 393.1503)"><stop offset="0" class="c"/><stop offset="0.4863" class="f"/><stop offset="0.5725" class="g"/><stop offset="0.7647" class="h"/><stop offset="1" class="d"/><stop offset="1" class="e"/></linearGradient><path d="M427.2 457.3l7.2 1.7 -6.6 1.8c0-0.1 0.1-0.2 0.2-0.2 0.6-0.5 0.8-1.1 0.6-1.7C428.4 458.3 427.9 457.8 427.2 457.3z" fill="url(#SVGID_11_)"/><path d="M455.3 458.3L455.3 458.3c0 0.2 0 0.3-0.1 0.5 -0.2 0.3-0.5 0.5-1 0.7 -0.6 0.3-1.4 0.5-2.4 0.5 -0.9 0-1.7-0.2-2.3-0.5 -0.5-0.2-0.7-0.5-0.8-0.7 -0.1-0.2-0.2-0.3-0.2-0.5v-0.1c0-0.5 0.3-0.9 1-1.3 0.6-0.3 1.4-0.5 2.3-0.5 1 0 1.7 0.2 2.4 0.5C455 457.3 455.3 457.7 455.3 458.3z"/><linearGradient id="SVGID_12_" gradientUnits="userSpaceOnUse" x1="88.2" y1="57.125" x2="93.6" y2="57.125" gradientTransform="matrix(1.1465 0 0 1.1465 347.7999 393.1505)"><stop offset="2.352941e-002" class="i"/><stop offset="0.3961" class="j"/><stop offset="1" class="k"/></linearGradient><path d="M455.1 457.5v0.9c0 0.4-0.3 0.7-1 1 -0.6 0.3-1.3 0.5-2.2 0.5 -0.8 0-1.6-0.2-2.2-0.5 -0.6-0.3-0.9-0.6-0.9-1v-0.9c0 0.1 0 0.3 0.1 0.4 0.1 0.2 0.4 0.4 0.7 0.6 0.6 0.3 1.3 0.5 2.2 0.5 0.9 0 1.6-0.2 2.2-0.5 0.4-0.2 0.7-0.4 0.9-0.6C455.1 457.8 455.1 457.6 455.1 457.5z" fill="url(#SVGID_12_)"/><radialGradient id="SVGID_13_" cx="90.75" cy="55.8" r="2.9" gradientTransform="matrix(1.1465 0 0 1.1465 347.7999 393.1505)" gradientUnits="userSpaceOnUse"><stop offset="0" class="j"/><stop offset="1" class="k"/></radialGradient><path d="M448.9 457.5L448.9 457.5c0-0.5 0.3-0.8 0.9-1.1 0.6-0.3 1.3-0.4 2.2-0.4 0.9 0 1.6 0.1 2.2 0.4 0.7 0.3 1 0.7 1 1.1v0.1c0 0.1 0 0.2-0.1 0.3 -0.2 0.2-0.4 0.4-0.9 0.6 -0.6 0.3-1.3 0.5-2.2 0.5 -0.8 0-1.6-0.2-2.2-0.5 -0.4-0.2-0.6-0.4-0.7-0.6C449 457.7 448.9 457.6 448.9 457.5z" fill="url(#SVGID_13_)"/><polygon points="453.3 457.7 452.1 457.5 451.6 458.2 450.9 458 451.4 457.4 450.2 457.3 450.5 456.9 451.7 457 452.2 456.4 452.9 456.6 452.4 457.1 453.6 457.3 "/><path d="M441 451.9c-0.2 0.3-0.5 0.5-1 0.7 -0.6 0.3-1.4 0.5-2.4 0.5 -0.9 0-1.7-0.2-2.3-0.5 -0.5-0.2-0.7-0.5-0.8-0.7 -0.1-0.2-0.2-0.3-0.2-0.5v-0.1c0-0.5 0.3-0.9 1-1.3 0.6-0.3 1.4-0.5 2.3-0.5 1 0 1.7 0.2 2.4 0.5 0.7 0.4 1.1 0.8 1.1 1.4v0.1C441.1 451.6 441 451.8 441 451.9z"/><linearGradient id="SVGID_14_" gradientUnits="userSpaceOnUse" x1="75.75" y1="51.175" x2="81.15" y2="51.175" gradientTransform="matrix(1.1465 0 0 1.1465 347.7999 393.1505)"><stop offset="2.352941e-002" class="i"/><stop offset="0.3961" class="j"/><stop offset="1" class="k"/></linearGradient><path d="M440.8 450.7v0.9c0 0.4-0.3 0.7-1 1 -0.6 0.3-1.3 0.5-2.2 0.5 -0.8 0-1.6-0.2-2.2-0.5 -0.6-0.3-0.9-0.6-0.9-1v-0.9c0 0.1 0 0.3 0.1 0.4 0.1 0.2 0.4 0.4 0.7 0.6 0.6 0.3 1.3 0.5 2.2 0.5 0.9 0 1.6-0.2 2.2-0.5 0.4-0.2 0.7-0.4 0.9-0.6C440.8 450.9 440.8 450.8 440.8 450.7z" fill="url(#SVGID_14_)"/><radialGradient id="SVGID_15_" cx="78.3" cy="49.85" r="2.9" gradientTransform="matrix(1.1465 0 0 1.1465 347.7999 393.1505)" gradientUnits="userSpaceOnUse"><stop offset="0" class="j"/><stop offset="1" class="k"/></radialGradient><path d="M434.6 450.6L434.6 450.6c0-0.5 0.3-0.8 0.9-1.1 0.6-0.3 1.3-0.4 2.2-0.4 0.9 0 1.6 0.1 2.2 0.4 0.7 0.3 1 0.7 1 1.1v0.1c0 0.1 0 0.2-0.1 0.3 -0.2 0.2-0.4 0.4-0.9 0.6 -0.6 0.3-1.3 0.5-2.2 0.5 -0.8 0-1.6-0.2-2.2-0.5 -0.4-0.2-0.6-0.4-0.7-0.6C434.7 450.9 434.7 450.8 434.6 450.6z" fill="url(#SVGID_15_)"/><polygon points="438.7 449.7 438.1 450.3 439.3 450.5 439 450.9 437.9 450.7 437.3 451.3 436.7 451.2 437.2 450.6 436 450.5 436.3 450.1 437.5 450.2 438 449.6 "/><path d="M421.5 459.4c-0.1-0.2-0.2-0.3-0.2-0.5v-0.1c0-0.5 0.3-0.9 1-1.3 0.6-0.3 1.4-0.5 2.3-0.5 1 0 1.7 0.2 2.3 0.5 0.7 0.4 1.1 0.8 1.1 1.4v0.1c0 0.1 0 0.2-0.1 0.4 -0.2 0.3-0.5 0.5-1 0.7 -0.6 0.3-1.4 0.5-2.3 0.5 -0.9 0-1.7-0.2-2.3-0.5C421.8 459.9 421.5 459.6 421.5 459.4z"/><radialGradient id="SVGID_16_" cx="66.9" cy="56.35" r="2.9" gradientTransform="matrix(1.1465 0 0 1.1465 347.7999 393.1505)" gradientUnits="userSpaceOnUse"><stop offset="0" class="j"/><stop offset="1" class="k"/></radialGradient><path d="M427.8 458.2c0 0.1 0 0.2-0.1 0.3 -0.2 0.2-0.4 0.4-0.9 0.6 -0.6 0.3-1.3 0.5-2.2 0.5 -0.8 0-1.6-0.2-2.2-0.5 -0.4-0.2-0.6-0.4-0.7-0.6 -0.1-0.1-0.1-0.3-0.1-0.4V458c0-0.4 0.3-0.8 0.9-1.1 0.6-0.3 1.3-0.4 2.2-0.4 0.9 0 1.6 0.1 2.2 0.4C427.4 457.3 427.8 457.6 427.8 458.2L427.8 458.2z" fill="url(#SVGID_16_)"/><linearGradient id="SVGID_17_" gradientUnits="userSpaceOnUse" x1="64.35" y1="57.675" x2="69.751" y2="57.675" gradientTransform="matrix(1.1465 0 0 1.1465 347.7999 393.1505)"><stop offset="2.352941e-002" class="i"/><stop offset="0.3961" class="j"/><stop offset="1" class="k"/></linearGradient><path d="M421.6 458.1c0 0.1 0 0.3 0.1 0.4 0.1 0.2 0.4 0.4 0.7 0.6 0.6 0.3 1.3 0.5 2.2 0.5 0.9 0 1.6-0.2 2.2-0.5 0.4-0.2 0.7-0.4 0.9-0.6 0.1-0.1 0.1-0.2 0.1-0.3v0.9c0 0.4-0.3 0.7-1 1 -0.6 0.3-1.3 0.5-2.2 0.5 -0.8 0-1.6-0.2-2.2-0.5 -0.6-0.3-0.9-0.6-0.9-1V458.1z" fill="url(#SVGID_17_)"/><polygon points="423.2 457.5 424.4 457.6 424.9 457.1 425.6 457.2 425.1 457.8 426.2 457.9 425.9 458.3 424.8 458.2 424.3 458.8 423.6 458.7 424.1 458 422.9 457.9 "/><path d="M444.7 467.8c-0.2 0.3-0.5 0.5-1 0.7 -0.6 0.3-1.4 0.5-2.4 0.5 -0.9 0-1.7-0.2-2.3-0.5 -0.5-0.2-0.7-0.5-0.8-0.7 -0.1-0.2-0.2-0.3-0.2-0.5v-0.1c0-0.5 0.3-0.9 1-1.3 0.6-0.3 1.4-0.5 2.3-0.5 1 0 1.7 0.2 2.4 0.5 0.7 0.4 1.1 0.8 1.1 1.4v0.1C444.9 467.6 444.8 467.7 444.7 467.8z"/><linearGradient id="SVGID_18_" gradientUnits="userSpaceOnUse" x1="79.05" y1="65.074" x2="84.45" y2="65.074" gradientTransform="matrix(1.1465 0 0 1.1465 347.7999 393.1505)"><stop offset="2.352941e-002" class="i"/><stop offset="0.3961" class="j"/><stop offset="1" class="k"/></linearGradient><path d="M444.6 466.6v0.9c0 0.4-0.3 0.7-1 1 -0.6 0.3-1.3 0.5-2.2 0.5 -0.8 0-1.6-0.2-2.2-0.5 -0.6-0.3-0.9-0.6-0.9-1v-0.9c0 0.1 0 0.3 0.1 0.4 0.1 0.2 0.4 0.4 0.7 0.6 0.6 0.3 1.3 0.5 2.2 0.5 0.9 0 1.6-0.2 2.2-0.5 0.4-0.2 0.7-0.4 0.9-0.6C444.6 466.9 444.6 466.8 444.6 466.6z" fill="url(#SVGID_18_)"/><radialGradient id="SVGID_19_" cx="81.6" cy="63.75" r="2.9" gradientTransform="matrix(1.1465 0 0 1.1465 347.7999 393.1505)" gradientUnits="userSpaceOnUse"><stop offset="0" class="j"/><stop offset="1" class="k"/></radialGradient><path d="M438.4 466.6L438.4 466.6c0-0.5 0.3-0.8 0.9-1.1 0.6-0.3 1.3-0.4 2.2-0.4 0.9 0 1.6 0.1 2.2 0.4 0.6 0.3 1 0.7 1 1.1v0.1c0 0.1 0 0.2-0.1 0.3 -0.2 0.2-0.4 0.4-0.9 0.6 -0.6 0.3-1.3 0.5-2.2 0.5 -0.8 0-1.6-0.2-2.2-0.5 -0.4-0.2-0.6-0.4-0.7-0.6C438.5 466.8 438.4 466.7 438.4 466.6z" fill="url(#SVGID_19_)"/><polygon points="442.4 465.7 441.9 466.2 443.1 466.4 442.8 466.8 441.6 466.6 441.1 467.3 440.4 467.2 441 466.5 439.8 466.4 440 466 441.2 466.1 441.8 465.6 "/><path d="M548.9 457.1c0 0 0 0.1 0 0.1 0.3 0.1 0.5 0.2 0.7 0.5 0.2 0.2 0.3 0.5 0.2 0.9 0 0.3-0.2 0.6-0.4 0.7 -0.3 0.2-0.6 0.3-0.9 0.2 -0.5-0.1-1-0.1-1.4-0.2 -7.5 5.4-27 8.9-58.5 10.4 -0.3 0-0.6-0.1-0.8-0.3 -0.3-0.2-0.4-0.5-0.4-0.8s0.1-0.6 0.3-0.8c0.2-0.3 0.5-0.4 0.8-0.4 25.6-1.1 43.1-3.6 52.5-7.4 -12.1 1.9-23.7 3.2-34.7 3.7 -6.6 0.3-11.5 0.4-14.7 0.5 -4.1 0-6.2-0.3-6.1-1.1 -0.1-0.3 0-0.6 0.2-0.9 0.2-0.3 0.4-0.4 0.7-0.5 0.3-0.1 0.6 0 0.9 0.2 0.3 0.2 0.4 0.4 0.5 0.7 0-0.4 1.2-0.6 3.8-0.7 3.2 0 8.1-0.2 14.7-0.5 9.9-0.5 20.3-1.5 31.1-3.1 -4.1-0.4-8.5-0.7-13.4-1.1 -9.6-0.7-21.9-0.4-36.8 0.9 -0.3 0-0.6 0-0.9-0.2 -0.2-0.2-0.4-0.5-0.4-0.8 0-0.3 0.1-0.6 0.3-0.9 0.2-0.2 0.5-0.4 0.8-0.4 15.1-1.3 27.4-1.6 37.1-0.9 4.8 0.3 9.2 0.7 13.2 1.1 -4.5-2.8-10-4.1-16.6-4.1h-0.1c-10.3 0.3-21.3 0.5-33.1 0.4 -0.3 0-0.6-0.1-0.8-0.3 -0.2-0.2-0.3-0.5-0.3-0.8s0.1-0.6 0.3-0.8 0.5-0.3 0.8-0.3c11.8 0.1 22.8-0.1 33.1-0.4 7.1-0.1 13.1 1.4 18 4.5 3.1 2 6.1 2.7 8.8 2.1 0.3-0.1 0.6 0 0.9 0.1C548.6 456.5 548.8 456.7 548.9 457.1z" class="a"/><linearGradient id="SVGID_20_" gradientUnits="userSpaceOnUse" x1="104.344" y1="8.523" x2="145.321" y2="55.096" gradientTransform="matrix(1.1465 0 0 1.1465 347.7999 393.1505)"><stop offset="0" class="l"/><stop offset="1" class="m"/></linearGradient><path d="M548.7 456.6c0 0.3 0 0.6-0.2 0.9 -0.2 0.2-0.4 0.4-0.7 0.5 -14.6 2.6-28.4 4.2-41.4 4.8 -6.6 0.3-11.5 0.4-14.7 0.5 -4.1 0-6.2-0.3-6.1-1.1 -0.1-0.3 0-0.6 0.2-0.9 0.2-0.3 0.4-0.4 0.7-0.5 0.3-0.1 0.6 0 0.9 0.2 0.3 0.2 0.4 0.4 0.5 0.7 0-0.4 1.2-0.7 3.8-0.7 3.2 0 8.1-0.2 14.7-0.5 13-0.6 26.7-2.2 41.2-4.8 0.3-0.1 0.6 0 0.9 0.2C548.4 456 548.6 456.3 548.7 456.6z" fill="url(#SVGID_20_)"/><linearGradient id="SVGID_21_" gradientUnits="userSpaceOnUse" x1="102.962" y1="52.421" x2="163.637" y2="52.421" gradientTransform="matrix(1.1465 0 0 1.1465 347.7999 393.1505)"><stop offset="0" class="n"/><stop offset="1" class="o"/></linearGradient><path d="M548.9 456.2c0 0.3 0 0.6-0.2 0.9s-0.4 0.4-0.7 0.5c-3.3 0.8-6.8 0-10.5-2.4 -4.5-2.8-10.1-4.2-16.7-4.1 -0.9 0-1.9 0.1-2.9 0.1 -0.1 0-0.2 0.1-0.3 0.1 -9.4 0.3-19.4 0.4-29.9 0.3 -0.3 0-0.6-0.1-0.8-0.3s-0.3-0.5-0.3-0.8c0-0.3 0.1-0.6 0.3-0.8 0.2-0.2 0.5-0.3 0.8-0.3 10.5 0.1 17.9 0.1 22.2-0.1 4.4-0.1 6.2-0.2 5.5-0.1 -0.7 0-0.2 0 1.5 0 1.6-0.1 2.5-0.2 2.6-0.2 0.4 0 0.8-0.1 1.1-0.1h0.1c7.1-0.1 13.1 1.4 18 4.5 3.1 1.9 6.1 2.6 8.8 2.1 0.3-0.1 0.6 0 0.9 0.1C548.6 455.6 548.8 455.8 548.9 456.2z" fill="url(#SVGID_21_)"/><linearGradient id="SVGID_22_" gradientUnits="userSpaceOnUse" x1="110.915" y1="12.971" x2="151.892" y2="59.544" gradientTransform="matrix(1.1465 0 0 1.1465 347.7999 393.1505)"><stop offset="0" class="l"/><stop offset="1" class="m"/></linearGradient><path d="M549.8 457.6c0 0.3-0.2 0.6-0.5 0.7 -0.2 0.2-0.5 0.3-0.8 0.2 -6.8-0.9-15.1-1.6-24.7-2.3 -9.6-0.7-21.9-0.4-36.8 0.9 -0.3 0-0.6 0-0.9-0.2 -0.2-0.2-0.4-0.5-0.4-0.8 0-0.3 0.1-0.6 0.3-0.9 0.2-0.2 0.5-0.4 0.8-0.4 15.1-1.3 27.4-1.6 37.1-0.9 9.6 0.6 17.9 1.4 24.8 2.3 0.3 0 0.6 0.2 0.7 0.5C549.8 457 549.9 457.2 549.8 457.6z" fill="url(#SVGID_22_)"/><linearGradient id="SVGID_23_" gradientUnits="userSpaceOnUse" x1="103.962" y1="60.437" x2="164.637" y2="60.437" gradientTransform="matrix(1.1465 0 0 1.1465 347.7999 393.1505)"><stop offset="0" class="n"/><stop offset="1" class="o"/></linearGradient><path d="M546.1 456.3c0.1-0.1 0.3-0.2 0.4-0.2v2.7c-7.9 5.2-27.2 8.5-57.9 9.9 -0.3 0-0.6-0.1-0.8-0.3 -0.3-0.2-0.4-0.5-0.4-0.8s0.1-0.6 0.3-0.8c0.2-0.3 0.5-0.4 0.8-0.4C519.9 465 539.1 461.6 546.1 456.3z" fill="url(#SVGID_23_)"/><radialGradient id="SVGID_24_" cx="116.343" cy="48.9" r="3.65" gradientTransform="matrix(1.1465 0 5.104347e-002 0.6557 349.6685 417.1506)" gradientUnits="userSpaceOnUse"><stop offset="0" class="b"/><stop offset="0.1216" class="p"/><stop offset="0.5686" class="q"/><stop offset="1" class="r"/></radialGradient><path d="M486.9 449.3c0.5 0.2 0.9 0.5 1 0.7 0.5 0 0.8 0.1 1 0.2 0.1 0 0.2 0.2 0.2 0.4 -0.3 0.3-0.7 0.3-1.2 0.2l-0.6 0.3c-0.6 0.3-1.2 0.4-1.9 0.4 -0.7 0-1.3-0.1-1.7-0.4 -0.5-0.2-0.7-0.5-0.7-0.9 0-0.3 0.2-0.6 0.6-0.9 0.5-0.2 1-0.3 1.7-0.3C485.7 449 486.3 449.1 486.9 449.3z" fill="url(#SVGID_24_)"/><radialGradient id="SVGID_25_" cx="116.796" cy="54" r="3.65" gradientTransform="matrix(1.1465 0 5.104347e-002 0.6557 349.8633 419.6538)" gradientUnits="userSpaceOnUse"><stop offset="0" class="b"/><stop offset="0.1216" class="p"/><stop offset="0.5686" class="q"/><stop offset="1" class="r"/></radialGradient><path d="M484.5 457c-0.5-0.2-0.7-0.5-0.7-0.9s0.2-0.6 0.6-0.9c0.4-0.2 1-0.3 1.7-0.3 0.6 0 1.3 0.1 1.8 0.3 0.5 0.2 0.8 0.5 1 0.7 0.5 0 0.8 0.1 0.9 0.2 0.1 0 0.2 0.2 0.2 0.4 -0.3 0.3-0.7 0.3-1.1 0.2l-0.7 0.3c-0.6 0.3-1.2 0.4-1.8 0.4C485.6 457.4 485 457.2 484.5 457z" fill="url(#SVGID_25_)"/><radialGradient id="SVGID_26_" cx="117.246" cy="59.15" r="3.65" gradientTransform="matrix(1.1465 0 5.104347e-002 0.6557 350.0601 422.1814)" gradientUnits="userSpaceOnUse"><stop offset="0" class="b"/><stop offset="0.1216" class="p"/><stop offset="0.5686" class="q"/><stop offset="1" class="r"/></radialGradient><path d="M487 460.7c0.6 0 1.2 0.1 1.8 0.3s0.9 0.5 1 0.7c0.5 0 0.8 0.1 1 0.2 0.1 0 0.2 0.2 0.2 0.4 -0.3 0.3-0.7 0.3-1.2 0.2l-0.6 0.3c-0.6 0.3-1.2 0.4-1.9 0.4 -0.7 0-1.3-0.1-1.7-0.4 -0.5-0.2-0.7-0.5-0.7-0.9 0-0.3 0.2-0.6 0.6-0.9C485.8 460.9 486.4 460.7 487 460.7z" fill="url(#SVGID_26_)"/><radialGradient id="SVGID_27_" cx="117.441" cy="64.35" r="3.65" gradientTransform="matrix(1.1465 0 5.104347e-002 0.6557 350.2587 424.7336)" gradientUnits="userSpaceOnUse"><stop offset="0" class="b"/><stop offset="0.1216" class="p"/><stop offset="0.5686" class="q"/><stop offset="1" class="r"/></radialGradient><path d="M486 467c0.5-0.2 1-0.3 1.7-0.3 0.7 0 1.2 0.1 1.8 0.3 0.5 0.2 0.9 0.5 1 0.7 0.5 0 0.9 0.1 1 0.2 0.1 0 0.2 0.2 0.2 0.4 -0.3 0.3-0.6 0.3-1.1 0.2l-0.7 0.3c-0.6 0.3-1.2 0.4-1.9 0.4 -0.7 0-1.3-0.1-1.7-0.4 -0.5-0.2-0.7-0.5-0.7-0.9C485.4 467.6 485.6 467.3 486 467z" fill="url(#SVGID_27_)"/><path d="M502.8 573.6c-1.3 3.1-3 6.5-5 10.2 -10.9 20.1-3.4 28.9 22.6 26.3 26-2.6 45.6-1.7 58.9 2.7 12.5 4.2 37.3 4.8 74.5 1.9 22-2.6 25.3-14.9 9.7-37" style="fill:none;stroke-linejoin:round;stroke-width:2;stroke:#23C8AA"/><linearGradient id="SVGID_28_" gradientUnits="userSpaceOnUse" x1="171.612" y1="52.075" x2="179.587" y2="52.075" gradientTransform="matrix(1.1465 0 0 1.1465 347.7999 393.1505)"><stop offset="0" stop-color="#DBDBDB"/><stop offset="1" class="s"/></linearGradient><path d="M552.6 450.8h-6.3c-0.1 0-0.1 0-0.2 0 -0.1 0.2-0.2 0.6-0.2 1.2 -0.1 1-0.2 2.2-0.2 3.7l-1.1-5.7h7.8L552.6 450.8z" fill="url(#SVGID_28_)"/><linearGradient id="SVGID_29_" gradientUnits="userSpaceOnUse" x1="177.025" y1="58" x2="177.025" y2="50.3" gradientTransform="matrix(1.1465 0 0 1.1465 347.7999 393.1505)"><stop offset="0" class="t"/><stop offset="0.2196" class="u"/><stop offset="0.4078" class="v"/><stop offset="0.7137" class="w"/><stop offset="0.7294" class="b"/><stop offset="0.8549" class="b"/><stop offset="0.9255" class="x"/><stop offset="1" class="y"/></linearGradient><path d="M546.5 451.3c-0.1-0.3-0.2-0.4-0.2-0.5h6.3 1.1 1.3c0.1 0.1 0.2 0.2 0.2 0.5H546.5z" fill="url(#SVGID_29_)"/><linearGradient id="SVGID_30_" gradientUnits="userSpaceOnUse" x1="172.513" y1="50.538" x2="171.057" y2="57.186" gradientTransform="matrix(1.1465 0 0 1.1465 347.7999 393.1505)"><stop offset="0" class="b"/><stop offset="0.1333" class="z"/><stop offset="1" class="s"/></linearGradient><path d="M546.4 451.3c0-0.1-0.1-0.2-0.1-0.2 -0.1 0-0.2 0.4-0.2 1.3 0 0.7-0.2 2.1-0.4 4.1l-1.1-6 0.1-0.5 1.1 5.7c0-1.5 0.1-2.7 0.2-3.7 0.1-0.6 0.2-1.1 0.2-1.2 0 0 0.1 0 0.2 0 0.1 0.1 0.2 0.2 0.2 0.5H546.4z" fill="url(#SVGID_30_)"/><linearGradient id="SVGID_31_" gradientUnits="userSpaceOnUse" x1="172.95" y1="54.563" x2="172.95" y2="57.338" gradientTransform="matrix(1.1465 0 0 1.1465 347.7999 393.1505)"><stop offset="0" class="t"/><stop offset="0.2196" class="u"/><stop offset="0.4078" class="v"/><stop offset="0.7137" class="w"/><stop offset="0.7294" class="b"/><stop offset="0.8549" class="b"/><stop offset="0.9255" class="x"/><stop offset="1" class="y"/></linearGradient><path d="M545.6 456.5c0.2-2 0.4-3.3 0.4-4.1 0.1-0.8 0.2-1.3 0.2-1.3 0 0 0.1 0.1 0.1 0.2 0 0.2 0.1 0.6 0.1 1.1 0 0.8 0.1 1.7 0.1 2.9 0 0.3 0 0.7 0 1.2H545.6z" fill="url(#SVGID_31_)"/><path d="M662.4 568.4l-1.5-1.5c-1-1.1-2.1-2.1-3.3-3.2 -1.3-1.1-2.1-1.9-2.4-2.5 -1.2-1.6-1.7-3.5-1.6-5.7 1.4 1.9 2.9 3.5 4.5 4.9C661.2 563 662.7 565.7 662.4 568.4z" class="A"/><path d="M658.3 571.8c-1.2-1.6-1.8-3.6-1.7-5.7 0.2 0.3 0.5 0.7 0.8 1 1.2 1.5 2.4 2.7 3.8 3.8 0.3 0.3 0.6 0.5 0.9 0.8 0.5 0.5 0.9 1 1.4 1.5 0.2 0.2 0.3 0.5 0.5 0.7l0.1 0.1c0 0 0.1 0.1 0.2 0.2 1 1.5 1.4 3.1 1.3 4.7l-0.8-0.8 -0.7-0.7c0 0-0.1-0.1-0.1-0.1 0 0-0.1-0.1-0.1-0.1 -0.9-0.9-2-1.9-3.2-2.9C659.4 573.1 658.7 572.3 658.3 571.8z" class="B"/><path d="M664.7 578c1.7 3.2 1.2 3.9-1.7 2 -0.2-0.2-0.5-0.5-0.8-0.8 -0.4-0.3-0.7-0.7-1.1-1 -1.8-1.7-2.8-3.9-2.8-6.4 0.4 0.5 1.2 1.3 2.4 2.4 1.2 1 2.2 2 3.2 2.9 0 0 0.1 0.1 0.1 0.1 0 0 0.1 0.1 0.1 0.1L664.7 578z" class="C"/><path d="M656.6 566c-1-1.4-1.4-3-1.4-4.9 0.3 0.5 1.1 1.4 2.4 2.5 1.3 1.1 2.4 2.1 3.3 3.2l1.5 1.5c1.3 1.8 1.9 3.7 1.8 5.7 -0.1-0.1-0.1-0.1-0.2-0.2l-0.1-0.1c-0.2-0.3-0.3-0.5-0.5-0.7 -0.5-0.5-1-1-1.4-1.5 -0.3-0.3-0.6-0.5-0.9-0.8 -1.3-1.1-2.6-2.3-3.8-3.8C657.1 566.7 656.8 566.4 656.6 566z" class="D"/><linearGradient id="SVGID_32_" gradientUnits="userSpaceOnUse" x1="274.563" y1="162.767" x2="277.568" y2="164.507" gradientTransform="matrix(1.1465 0 0 1.1465 347.7999 393.1505)"><stop offset="0" stop-color="#127362"/><stop offset="1" class="l"/></linearGradient><path d="M663 580c2.9 1.9 3.5 1.2 1.7-2l0.8 0.8c1.3 1.8 2 4 2 6.8 -1.3-1.8-2.5-3.4-3.7-4.7l-0.1-0.1c0 0-0.1 0-0.1-0.1 -0.2-0.1-0.3-0.2-0.3-0.3 0 0-0.1 0-0.1-0.1l-0.1-0.1C663.1 580.3 663.1 580.2 663 580L663 580z" fill="url(#SVGID_32_)"/><radialGradient id="SVGID_33_" cx="276.7" cy="160.5" r="3.863" fx="276.6245" fy="160.5" gradientTransform="matrix(-0.8052 0.8162 -2.2151 -2.1852 1243.3636 702.0469)" gradientUnits="userSpaceOnUse"><stop offset="0" stop-color="#25C5A9"/><stop offset="0.5529" stop-color="#1C9D87"/><stop offset="1" stop-color="#04332A"/></radialGradient><path d="M663.4 580.5c0.1 0.1 0.2 0.2 0.3 0.3 -0.1 0-0.2-0.1-0.2-0.2C663.5 580.6 663.4 580.6 663.4 580.5z" fill="url(#SVGID_33_)"/><path d="M634.7 459.1c-0.3-0.4-1.1-1.1-2.1-1.9 -1.1-1-2.1-2-2.9-2.9l-1.4-1.3c-1.1-1.7-2-3.7-2.5-6 2.5 1.8 4.7 3.3 6.4 4.6C633.8 452.8 634.7 455.3 634.7 459.1z" class="C"/><path d="M636.4 469.5c-0.2-0.5-0.9-1.3-2.1-2.3 -1.1-0.9-2-1.8-2.9-2.8l-1.7-1.7c-0.9-1.5-1.2-3.2-0.9-5.3 0.1 0.1 0.2 0.2 0.2 0.2 0.8 1 1.9 2 3.2 3 1.2 1 2.3 2.4 3.3 4.1C636.3 466 636.6 467.6 636.4 469.5z" class="A"/><path d="M628.2 452.9l1.4 1.3c0.8 0.9 1.8 1.9 2.9 2.9 1.1 0.9 1.8 1.5 2.1 1.9 1 1.6 1.3 3.5 0.9 5.7 -1-1.7-2.1-3-3.3-4.1 -1.3-1-2.3-2-3.2-3 -0.1 0-0.2-0.1-0.2-0.2C628.1 456 627.9 454.5 628.2 452.9z" class="B"/><path d="M629.7 462.7l1.7 1.7c0.9 1 1.9 1.9 2.9 2.8 1.1 1 1.8 1.8 2.1 2.3 1 1.5 1.4 3.3 1 5.6 -1.2-1.8-2.4-3.2-3.8-4.4C630.7 468.4 629.4 465.7 629.7 462.7z" class="D"/><path d="M630.8 448.2L630.8 448.2c-0.5-1-1.9-1.8-4.1-2.3 -1.3-0.3-2.8-1-4.4-1.9l-0.2-0.1c-1.1-1.1-1.8-2.5-1.9-4.1l1.5 0.7c1.1 0.5 2.4 1.1 3.7 1.5 1.4 0.4 2.3 0.8 2.7 1C629.6 444.2 630.5 445.9 630.8 448.2z" class="B"/><path d="M625.1 448.6c-1.5-1.1-2.5-2.7-3-4.8l0.2 0.1c1.6 1 3 1.6 4.4 1.9 2.2 0.5 3.5 1.3 4 2.3h0c1 1.1 1.9 2.5 2.5 4.2 -0.3-0.4-0.9-0.7-1.8-0.9 -0.8-0.2-2.4-0.9-4.8-2L625.1 448.6z" class="A"/><path d="M633.3 452.4c1.2 1 1.6 2.4 1.3 4.2 -0.7-0.8-1.9-1.5-3.6-2.1 -3.5-1-5.4-3-5.8-5.9l1.6 0.9c2.3 1.1 3.9 1.8 4.8 2C632.3 451.7 632.9 452 633.3 452.4z" class="D"/><path d="M620.2 439.7c-1.6-1.1-2.4-2.1-2.6-3 2.2 0.1 4.5 0.3 6.9 0.7 2.4 0.4 3.6 2.2 3.6 5.6 -0.4-0.3-1.3-0.6-2.7-1 -1.3-0.5-2.6-1-3.7-1.5L620.2 439.7z" class="C"/><path d="M632.1 473.2c-0.8-1.5-1-3-0.6-4.6l1.4 1.4c0.8 0.9 1.8 1.9 2.9 2.9 1.1 0.9 1.8 1.5 2.2 1.9 1 1.6 1.3 3.5 0.9 5.7 -0.2-0.4-0.4-0.7-0.7-1 -1-1.3-2.1-2.5-3.3-3.4 -0.3-0.2-0.6-0.5-0.8-0.7 -0.4-0.5-0.8-0.9-1.3-1.4 -0.1-0.3-0.2-0.5-0.4-0.6v-0.1C632.2 473.4 632.2 473.3 632.1 473.2z" class="B"/><path d="M638.8 480.5c0.8 1.3 1 2.8 0.8 4.8 -0.2-0.5-0.9-1.3-2.1-2.3 -1.1-0.9-2.1-1.9-3-2.8l-1.2-1.4c-1.1-1.6-1.6-3.5-1.3-5.5 0.1 0.1 0.2 0.2 0.2 0.2v0.1c0.2 0.1 0.3 0.3 0.4 0.6 0.4 0.5 0.8 0.9 1.3 1.4 0.2 0.2 0.5 0.5 0.8 0.7 1.3 0.9 2.4 2 3.3 3.4C638.4 479.8 638.6 480.1 638.8 480.5z" class="D"/><path d="M631.4 468.6c-1.5-1.7-2.1-3.7-1.9-6.1 2.4 2 4.5 3.7 6.2 5 1.8 1.3 2.5 3.8 2.1 7.4 -0.3-0.4-1.1-1.1-2.2-1.9 -1.1-1-2.1-2-2.9-2.9L631.4 468.6z" class="C"/><path d="M639.6 485.3c1 1.5 1.4 3.3 1 5.6 -1.2-1.8-2.5-3.2-3.8-4.4 -2.8-2.3-4-4.9-3.4-7.7l1.2 1.4c0.9 1 1.9 1.9 3 2.8C638.7 484 639.4 484.7 639.6 485.3z" class="A"/><path d="M640.3 496.5c0.7 1.7 0.7 3.6 0 5.8 -0.1-0.2-0.2-0.4-0.2-0.6 -0.1-0.2-0.6-1-1.5-2.4 -1-1.4-1.7-2.6-2.4-3.5 -0.6-0.9-1-1.4-1.1-1.5v-0.1c-0.1 0-0.1-0.1-0.2-0.3 -0.5-1.6-0.5-3.1 0.1-4.6l1.1 1.6c0.6 1 1.5 2 2.4 3.3C639.5 495.2 640.1 496 640.3 496.5z" class="B"/><path d="M635 489.3c-0.8-1.8-1.3-4.2-1.4-7.1 2.4 2.8 4.4 5 6 6.6 1.6 1.6 1.8 4.2 0.8 7.6 -0.3-0.5-0.9-1.2-1.8-2.3 -1-1.2-1.8-2.3-2.4-3.3L635 489.3z" class="C"/><path d="M640.3 507c0.8 1.6 0.8 3.5 0.1 5.7 -0.9-2-1.9-3.6-3-4.9 -2.4-2.7-3.1-5.4-2.2-8.2l1 1.7c0.7 1.1 1.5 2.1 2.5 3.2C639.6 505.6 640.2 506.4 640.3 507z" class="A"/><path d="M634.9 493.9c0 0.2 0.1 0.2 0.2 0.3v0.1c0.1 0.2 0.5 0.7 1.1 1.5 0.6 0.9 1.4 2 2.4 3.5 1 1.4 1.5 2.2 1.5 2.4 0.1 0.2 0.1 0.4 0.2 0.6 0.5 1.4 0.5 3 0 4.8 -0.2-0.6-0.7-1.4-1.7-2.6 -1-1.1-1.8-2.1-2.5-3.2l-1-1.7C634.4 497.7 634.3 495.8 634.9 493.9z" class="D"/><path d="M644.1 516.5c-0.8-0.8-1.9-1.7-3.5-2.5 -1.6-0.9-3-1.7-4.2-2.4 -1.5-1.4-1.8-3.8-1.1-7.1 1.1 2.4 2.6 4.2 4.6 5.1C641.8 510.6 643.2 512.9 644.1 516.5z" class="C"/><path d="M645.8 522c-0.9-1.2-2-2.2-3.3-2.9 -1.3-0.7-2.7-1.7-4.3-2.9l-0.1-0.1c-0.1 0-0.2-0.1-0.2-0.2 -1-1.3-1.5-2.8-1.5-4.4 1.2 0.7 2.6 1.5 4.2 2.4 1.6 0.9 2.7 1.7 3.5 2.5 1 1.3 1.6 3.1 1.7 5.4 0.1 0.1 0.1 0.1 0.2 0.2l-0.2-0.2C645.8 521.9 645.8 521.9 645.8 522z" class="B"/><path d="M647.3 526.5c-0.5-0.6-1.3-1.2-2.6-1.9 -1.3-0.7-2.3-1.4-3.2-2.2l-1.5-1.3c-1.4-1.5-2.1-3.2-2.1-5.2 0.1 0.1 0.2 0.2 0.2 0.2l0.1 0.1c1.6 1.2 3 2.2 4.3 2.9 1.3 0.7 2.4 1.7 3.3 2.9C646.7 523 647.2 524.5 647.3 526.5z" class="D"/><path d="M640 521.1l1.5 1.3c0.9 0.7 2 1.5 3.2 2.2 1.3 0.7 2.1 1.4 2.6 1.9 1.3 1.2 2 3 1.9 5.2 -1.5-1.5-3-2.7-4.5-3.6C641.6 526.4 640 524 640 521.1z" class="A"/><path d="M646.8 502.9c-0.3-1.5 0-3.2 0.7-4.9 0.1 0.6 0.5 1.5 1.3 2.9 0.7 1.3 1.4 2.6 1.9 3.8l0.7 1.8c0.6 2 0.4 4-0.6 5.8 0-0.1 0-0.1 0-0.1 -0.1-0.4-0.2-0.8-0.4-1.1 -0.2-0.3-0.3-0.7-0.5-1 -0.2-0.3-0.6-1-1.1-2 -0.6-1-1.1-2.3-1.6-4C647 503.6 646.8 503.2 646.8 502.9z" class="D"/><path d="M646 508.5c-0.5-1.8-0.2-3.7 0.7-5.7 0.1 0.3 0.2 0.7 0.4 1.1 0.5 1.6 1 3 1.6 4 0.6 1 0.9 1.7 1.1 2 0.2 0.3 0.4 0.7 0.5 1 0.1 0.3 0.3 0.7 0.4 1.1 0 0 0 0.1 0 0.1 0.3 1.6 0.1 3.2-0.7 4.7l-0.8-1.8c-0.5-1.2-1.2-2.4-1.9-3.8C646.6 510.1 646.1 509.1 646 508.5z" class="B"/><path d="M647.4 498c-0.5-1.8-0.6-3.7-0.6-5.8 1.6 1.9 3.2 4 4.7 6.2 1.5 2.2 1.5 4.9-0.2 8.1l-0.7-1.8c-0.5-1.2-1.2-2.5-1.9-3.8C648 499.5 647.5 498.6 647.4 498z" class="A"/><path d="M650.1 517c0.5 1.9 0.3 3.8-0.6 5.4 -1.7-2.3-3-4.5-4-6.7 -1-2.3-0.8-4.6 0.5-7.2 0.1 0.6 0.6 1.5 1.3 2.8 0.8 1.3 1.4 2.6 1.9 3.8L650.1 517z" class="C"/><path d="M645.7 524.8c-0.8-1.4-1.1-3-0.9-4.9 0.3 0.5 1 1.4 2.1 2.5 1.1 1.1 2.2 2.1 3 3.2l1.3 1.6c1.2 1.8 1.6 3.6 1.3 5.7 0-0.1-0.1-0.1-0.1-0.2l-0.1-0.1c-1-0.8-2.1-1.9-3.3-3.4 -1.2-1.5-2.1-2.6-2.6-3.4C646.2 525.5 646 525.2 645.7 524.8z" class="D"/><path d="M652.5 532.9c0.8 1.5 1.1 3.1 0.9 4.7l-1.4-1.5c-0.9-1-1.9-2-3.1-3.2 -1.1-1.1-1.8-1.9-2.2-2.4 -1-1.6-1.3-3.5-1-5.7 0.2 0.3 0.5 0.7 0.7 1 0.5 0.8 1.4 1.9 2.6 3.4 1.2 1.5 2.3 2.6 3.3 3.4l0.1 0.1C652.5 532.8 652.5 532.8 652.5 532.9z" class="B"/><path d="M644.8 520c-1-1.6-1-3.7 0.1-6.4 0.7 2.8 2.1 5.1 4.1 6.9 2.1 1.8 2.8 4 2.3 6.8l-1.3-1.6c-0.9-1.1-1.9-2.1-3-3.2C645.8 521.3 645.1 520.5 644.8 520z" class="A"/><path d="M653.4 537.6c1.1 1.8 1.5 3.6 1.1 5.4 -1.8-2.2-3.7-4.2-5.6-6.1 -1.6-1.7-2.4-3.9-2.2-6.4 0.3 0.5 1.1 1.3 2.2 2.4 1.1 1.1 2.2 2.2 3.1 3.2L653.4 537.6z" class="C"/><path d="M656.5 548.1l-1.5-1.6c-1-1.1-2.1-2.1-3.4-3.2 -1.3-1.1-2.1-1.9-2.4-2.4 -1.2-1.6-1.7-3.5-1.6-5.7 1.4 1.9 2.9 3.5 4.5 4.9C655.3 542.7 656.8 545.3 656.5 548.1z" class="A"/><path d="M650.7 545.7c-1-1.4-1.4-3-1.4-4.8 0.3 0.5 1.1 1.3 2.4 2.4 1.3 1.1 2.4 2.1 3.4 3.2l1.5 1.6c1.3 1.8 1.9 3.7 1.8 5.7 -0.1-0.1-0.1-0.1-0.2-0.2l-0.1-0.1c-0.2-0.3-0.3-0.5-0.5-0.7 -0.5-0.5-0.9-1-1.4-1.5 -0.3-0.3-0.6-0.5-0.9-0.8 -1.4-1.1-2.7-2.4-3.8-3.8C651.1 546.4 650.9 546 650.7 545.7z" class="D"/><path d="M652.3 551.5c-1.2-1.6-1.8-3.6-1.7-5.8 0.2 0.3 0.5 0.7 0.8 1 1.2 1.5 2.5 2.8 3.8 3.8 0.3 0.3 0.6 0.5 0.9 0.8 0.5 0.5 0.9 1 1.4 1.5 0.2 0.2 0.4 0.5 0.5 0.7l0.1 0.1c0 0 0.1 0.1 0.2 0.2 1 1.5 1.4 3 1.3 4.6l-1.5-1.5c-1-1-2.1-2-3.4-3.1C653.5 552.8 652.7 552 652.3 551.5z" class="B"/><path d="M659.6 558.5c1.3 1.8 1.9 3.6 1.7 5.5 -2-2.2-4-4.3-6.1-6.1 -1.9-1.7-2.8-3.8-2.9-6.4 0.4 0.5 1.2 1.3 2.4 2.4 1.3 1.1 2.4 2.1 3.4 3.1L659.6 558.5z" class="C"/><path d="M649.2 455.1c-0.4-1.7-0.1-3.5 0.9-5.5 0.4 1.6 1.3 3.7 2.8 6.2 1.4 2.5 1.4 5.1-0.2 7.7l-0.6-1.8c-0.5-1.2-1-2.5-1.7-3.7C649.6 456.6 649.2 455.7 649.2 455.1z" class="A"/><path d="M650.7 473.6c-0.8-1-1.5-2.2-2.2-3.4s-1.2-2.8-1.5-4.8c-0.3-1.8 0.1-3.7 1.2-5.7 0.2 1 0.6 2.4 1.2 4 0.6 1.6 1.4 3.3 2.3 5v0.1c0 0 0.1 0.1 0.1 0.2C651.9 470.7 651.5 472.2 650.7 473.6z" class="B"/><path d="M651.7 469c0-0.1-0.1-0.2-0.1-0.2v-0.1c-0.9-1.7-1.7-3.4-2.3-5 -0.6-1.6-1-2.9-1.2-4 -0.2-1.5 0.1-3 1-4.7 0 0.6 0.4 1.5 1.1 2.9 0.7 1.3 1.3 2.5 1.7 3.7l0.6 1.8C653.1 465.5 652.8 467.3 651.7 469z" class="D"/><path d="M646.9 465.5c0.4 2 0.9 3.5 1.5 4.8s1.4 2.3 2.2 3.4c0.4 1.9 0.4 4.1 0.1 6.4 -1.9-2.8-3.4-5.1-4.6-7C644.9 471.1 645.2 468.6 646.9 465.5z" class="C"/><path d="M651.2 484.1l-1.1-1.6c-0.7-1.1-1.6-2.1-2.6-3.2 -1-1.1-1.6-1.9-1.8-2.4 -0.8-1.6-0.9-3.5-0.3-5.7 0.9 1.9 2 3.5 3.3 4.8C651.3 478.6 652.1 481.3 651.2 484.1z" class="A"/><path d="M646 481.7c0.6 1.5 1.4 2.8 2.6 3.9 1.1 1.1 2.2 2.4 3.1 3.9l0.1 0.1c0 0 0.1 0.1 0.1 0.2 0.6 1.5 0.7 3 0.2 4.6l-1.1-1.5c-0.8-1-1.6-2-2.6-3.1 -1-1-1.6-1.8-1.9-2.3C645.4 485.8 645.3 483.8 646 481.7z" class="B"/><path d="M651.2 484.1c1 1.8 1.1 3.6 0.6 5.6 0-0.1-0.1-0.1-0.1-0.2l-0.1-0.1c-0.9-1.5-1.9-2.8-3.1-3.9 -1.1-1.1-2-2.4-2.6-3.9 -0.6-1.3-0.7-2.9-0.2-4.8 0.2 0.5 0.8 1.3 1.8 2.4 1 1 1.9 2.1 2.6 3.2L651.2 484.1z" class="D"/><path d="M646.2 487.4c0.3 0.5 0.9 1.3 1.9 2.3 1 1.1 1.9 2.1 2.6 3.1l1.1 1.5c0.9 1.8 1.1 3.6 0.5 5.4 -1.6-2.2-3.2-4.2-4.8-6C646.2 492 645.7 489.9 646.2 487.4z" class="C"/><path d="M647.7 417.5l0.1-0.3v-0.1c0.1-0.3 0.2-0.5 0.2-0.7 0.2-0.6 0.3-1.2 0.5-1.8 0.1-0.3 0.1-0.6 0-1 0.1-1.6 0.3-3.1 0.8-4.5 0.1-0.4 0.3-0.8 0.5-1 0.5-1.3 1.5-2.1 2.9-2.5 -0.3 0.3-0.6 1.3-0.6 3 -0.1 1.3-0.3 2.6-0.7 3.8l-0.3 1.8C650.4 415.8 649.3 416.8 647.7 417.5z" class="D"/><path d="M651.1 414.3l0.3-1.8c0.3-1.2 0.6-2.5 0.7-3.8 0.1-1.7 0.3-2.7 0.6-3 0.5-1.4 1.7-2.4 3.4-2.9 -0.8 1.6-1.2 3.4-1.4 5.3C654.4 411.9 653.2 413.9 651.1 414.3z" class="A"/><path d="M649.8 408.1c-0.2 0.3-0.3 0.6-0.5 1 -0.5 1.4-0.7 2.9-0.8 4.5 0.1 0.4 0.1 0.7 0 1 -0.2 0.6-0.4 1.2-0.5 1.8 0 0.2-0.1 0.4-0.2 0.7v0.1l-0.1 0.3c-0.5 1.1-1.5 1.7-2.9 1.9l0.6-1.6c0.2-1.1 0.4-2.4 0.5-3.8 0.1-1.6 0.2-2.5 0.2-2.9C646.9 409.4 648.1 408.4 649.8 408.1z" class="B"/><path d="M646.2 411c-0.1 0.4-0.2 1.4-0.2 2.9 -0.2 1.5-0.3 2.8-0.5 3.8l-0.6 1.6c-2.5 0.6-4.8 0-6.9-1.7 3.3 0.5 5-0.4 5.1-2.5C643.4 413.1 644.5 411.7 646.2 411z" class="C"/><path d="M654.6 411.6l0.9 1.7c0.6 1.1 1.3 2.3 2.1 3.5 0.9 1.1 1.4 2 1.6 2.5 0.6 1.8 0.4 3.7-0.5 5.7 -0.9-2.3-1.8-3.9-2.4-4.8 -0.7-0.9-1.2-1.8-1.6-2.6 -0.4-0.8-0.6-1.3-0.7-1.3C653.7 414.6 653.8 413 654.6 411.6z" class="B"/><path d="M659.3 419.2c-0.2-0.5-0.7-1.4-1.6-2.5 -0.8-1.2-1.5-2.4-2.1-3.5l-0.9-1.7c-0.7-1.9-1.1-3.6-1.1-5.1 2.4 1.7 4.4 3.5 5.8 5.3C660.7 413.6 660.7 416.1 659.3 419.2z" class="C"/><path d="M654 416.2c0 0.1 0.3 0.5 0.7 1.3 0.4 0.8 0.9 1.7 1.6 2.6 0.7 0.9 1.5 2.5 2.4 4.8 0.4 1.4 0.3 3-0.4 4.6 -0.1-0.5-0.6-1.4-1.5-2.6 -0.8-1.1-1.5-2.3-2.1-3.5l-0.9-1.7C653.2 419.9 653.2 418 654 416.2z" class="D"/><path d="M656.5 443l-0.6-1.8c-0.5-1.2-1-2.4-1.7-3.7 -0.7-1.3-1.1-2.3-1.1-2.9 -0.4-1.7 0-3.6 1.1-5.6 0.6 2.1 1.6 4.3 2.9 6.7C658.5 438.2 658.3 440.6 656.5 443z" class="A"/><path d="M652 439.3c-0.2-1.5 0.1-3 1-4.7 0 0.6 0.4 1.5 1.1 2.9 0.7 1.3 1.3 2.5 1.7 3.7l0.6 1.8c0.5 1.9 0.2 3.8-0.9 5.6 -0.1-0.6-0.6-1.5-1.3-2.9 -0.7-1.4-1.2-2.5-1.5-3.3C652.5 441.5 652.2 440.5 652 439.3z" class="D"/><path d="M650.8 444.9c-0.3-1.8 0.1-3.7 1.2-5.6 0.2 1.2 0.5 2.2 0.8 3 0.3 0.8 0.9 1.9 1.5 3.3 0.7 1.4 1.1 2.4 1.3 2.9 0 0.1 0 0.2 0.1 0.3l-0.1-0.1c0.1 1.6-0.2 3.1-1.1 4.4l-0.7-1.8c-0.5-1.1-1-2.4-1.7-3.7C651.4 446.3 651 445.4 650.8 444.9z" class="B"/><path d="M654.5 453.1c0.4 1.9 0.1 3.7-0.9 5.3 -0.9-1.9-1.9-4.1-3-6.4s-1-4.7 0.1-7.1c0.2 0.5 0.6 1.4 1.3 2.6 0.6 1.3 1.2 2.6 1.7 3.7L654.5 453.1z" class="C"/><path d="M646.1 409.8l0.3-1.6c0.3-1.2 0.4-2.7 0.6-4.5 0.1-1.8 0.4-2.8 0.7-3.1 0.6-1.5 1.8-2.6 3.6-3.1 -0.8 1.8-1.3 3.7-1.5 5.7C649.6 407.1 648.4 409.4 646.1 409.8z" class="A"/><path d="M642.8 413.1c0.1-0.2 0.3-0.8 0.4-1.9 0.3-2.4 0.6-4.3 0.9-5.6 0.3-1.4 0.5-2.2 0.7-2.4 0.5-1.3 1.5-2.2 3-2.6 -0.4 0.3-0.6 1.3-0.7 3.1 -0.1 1.8-0.3 3.3-0.6 4.5l-0.3 1.6C645.5 411.3 644.4 412.4 642.8 413.1z" class="D"/><path d="M639.6 415.2c0.3-0.4 0.5-1.2 0.6-2.4 0.2-1.7 0.3-3.1 0.3-4.3 0.1-1.1 0.2-1.9 0.5-2.3 0.8-1.7 2-2.7 3.8-3 -0.2 0.3-0.4 1.1-0.7 2.4 -0.3 1.3-0.6 3.2-0.9 5.6 -0.1 1.1-0.3 1.8-0.4 1.9h0C642.1 414.3 641 415 639.6 415.2z" class="B"/><path d="M641 406.2c-0.2 0.4-0.4 1.2-0.5 2.3 -0.1 1.1-0.2 2.6-0.3 4.3 -0.1 1.2-0.3 2-0.6 2.4 -0.6 1.8-1.5 2.8-2.6 2.8 0.2-2.2 0.5-4.6 0.7-7.2C638.1 408.5 639.2 406.9 641 406.2z" class="C"/><path d="M646.7 417.1l-3.8-2c2.5-0.7 4.6-0.7 6.2 0 3.3 1.5 5.1 3.7 5.3 6.6l-1.6-1c-1.1-0.7-2.4-1.4-3.6-1.9C647.9 418 647 417.5 646.7 417.1z" class="A"/><path d="M646.7 417.1c0.3 0.4 1.2 1 2.6 1.6 1.3 0.6 2.5 1.2 3.6 1.9l1.6 1c1.5 1.3 2.4 3 2.6 5 -1.8-1.7-3.6-3-5.6-4 -1.9-0.9-2.9-1.4-2.9-1.3C647.6 420.4 646.9 418.9 646.7 417.1z" class="D"/><path d="M651.1 426.6L651.1 426.6c4.2 1.4 7.1 3.6 8.7 6.7 0.2 1.8-0.4 4-1.8 6.5 0-2.6-0.9-4.8-2.6-6.6C652.5 430.9 651.1 428.7 651.1 426.6z" class="C"/><path d="M659.7 433.3c-1.6-3.1-4.5-5.3-8.6-6.6l-0.1-0.1c-1.4-1.3-2.2-3-2.4-5.3 0 0 1 0.4 2.9 1.3 1.9 0.9 3.8 2.2 5.6 4C658.2 427.8 659.1 430 659.7 433.3z" class="B"/><path d="M639.5 418.9c0.6-0.1 1.8-0.5 3.3-1l7-2.5c1.8-0.1 3.1 1.2 3.8 3.7 -1.4-1.2-3.4-0.9-6 0.7C644.6 420.6 641.9 420.3 639.5 418.9z" class="C"/><path d="M644.5 414.7c-0.7 0.5-2.1 1-4.2 1.5 -2.5 0.6-4.2 1.2-5.2 1.8 -2.3 0.6-3.9 0.7-4.8 0.4 -0.9-0.3-1.7-0.5-2.3-0.8 0.7-0.1 1.5-0.4 2.4-0.9 0.9-0.5 1.8-1 2.6-1.4 2.1-1 3.8-1.5 5.2-1.4C641.3 413.7 643.4 414 644.5 414.7z" class="D"/><path d="M638.2 413.8c-1.4 0-3.1 0.5-5.2 1.4 -0.8 0.4-1.7 0.9-2.6 1.4 -0.9 0.5-1.7 0.8-2.4 0.9 -2.1 0.4-4.2 0.1-6.3-1.1 2.4-0.6 4.9-1.7 7.5-3.3C631.7 411.6 634.7 411.8 638.2 413.8z" class="A"/><path d="M635.2 418c1-0.6 2.7-1.2 5.2-1.8 2.1-0.5 3.5-1 4.2-1.5 2.9-0.8 4.7-0.5 5.3 0.7l-7 2.5c-1.6 0.6-2.7 0.9-3.3 1C638 419 636.6 418.7 635.2 418z" class="B"/><path d="M620.4 411.7l-0.2 0.1 -2.8 2.8c-1.2 1.1-2.8 2.3-4.8 3.3 -1.3 0.7-2.9 0.9-4.7 0.6 0.5-0.2 1.3-0.9 2.4-2.1 1-1 1.9-1.9 2.9-2.7l1.5-1.2C616.4 411.5 618.3 411.2 620.4 411.7z" class="D"/><path d="M614.8 412.5l-1.5 1.2c-1 0.8-2 1.7-2.9 2.7 -1.1 1.2-1.9 1.9-2.4 2.1 -1.5 0.9-3.8 0.9-6.8 0.2 1.9-0.5 4-1.8 6.1-3.9C609.4 412.6 611.9 411.8 614.8 412.5z" class="A"/><path d="M618.5 417.3c0.4-0.1 1-0.4 1.7-0.8 0.7-0.5 1.5-1.2 2.4-2.2 0.9-1 1.7-2 2.5-3.1 2.6-0.9 4.8-0.6 6.6 1 -0.5-0.1-2.3 0.9-5.3 2.9C623.3 417.2 620.7 417.9 618.5 417.3z" class="C"/><path d="M612.6 417.9c2-1.1 3.5-2.2 4.8-3.3l2.8-2.8 0.2-0.1c1.4-0.7 2.9-0.8 4.6-0.4 -0.8 1-1.6 2.1-2.5 3.1 -0.9 1-1.7 1.8-2.4 2.2 -0.7 0.5-1.2 0.7-1.7 0.8C616.8 418.2 614.9 418.4 612.6 417.9z" class="B"/><path d="M605.4 413c1.8-0.8 3.8-1 5.9-0.6 -2.4 1.6-4.5 3.3-6.4 5 -1.9 1.7-4.2 2-6.7 0.8 0.5-0.3 1.2-0.9 2.3-1.9 1.2-0.9 2.3-1.7 3.3-2.4L605.4 413z" class="C"/><path d="M598.1 418.2c-1.8 0.7-3.7 0.6-5.8-0.1 1.1-0.5 2.1-1 3-1.7 0.9-0.7 1.5-1.1 1.9-1.5 0.4-0.3 1.5-1 3.2-2.1l0.2-0.1c1.5-0.5 3-0.4 4.6 0.2l-1.6 1c-1 0.7-2.1 1.4-3.3 2.4C599.4 417.3 598.6 417.9 598.1 418.2z" class="B"/><path d="M595 412.9l-1.6 1c-1.1 0.7-2.2 1.5-3.3 2.4 -1.2 1.1-2.1 1.7-2.7 1.8 -1.5 0.6-3.5 0.6-5.8-0.1 2.1-0.8 3.8-1.8 5.2-3C589.6 412.6 592.3 411.9 595 412.9z" class="A"/><path d="M592.4 418.1c-1.4 0.6-3 0.6-4.9 0 0.6-0.1 1.5-0.7 2.7-1.8 1.1-0.9 2.2-1.7 3.3-2.4l1.6-1c1.8-0.8 3.6-0.8 5.7-0.2l-0.2 0.1c-1.8 1.1-2.8 1.8-3.2 2.1 -0.4 0.3-1 0.8-1.9 1.5C594.5 417 593.5 417.6 592.4 418.1z" class="D"/><path d="M578.1 416.7c0.5-0.2 1.6-0.7 3.2-1.6l4.7-2.3c1.9-0.5 3.8-0.6 5.8-0.2 -2.7 1.6-5.1 3.1-7.2 4.5C582.5 418.3 580.3 418.2 578.1 416.7z" class="C"/><path d="M586 412.8l-4.7 2.3c-1.6 0.9-2.7 1.5-3.2 1.6 -1.9 0.4-3.8 0.1-5.7-1 1.4-0.2 2.7-0.8 4.1-1.7 1.4-0.9 3-1.6 4.8-2.1l0.3-0.1C583 411.6 584.5 411.9 586 412.8z" class="B"/><path d="M567.6 414.9c0.6 0 1.5-0.4 2.9-1.3 1.2-0.7 2.4-1.4 3.6-1.9l1.7-0.7c1.9-0.5 3.8-0.2 5.7 0.7l-0.3 0.1c-1.8 0.5-3.4 1.3-4.8 2.1 -1.4 0.9-2.7 1.5-4.1 1.7C570.9 416 569.3 415.8 567.6 414.9z" class="D"/><path d="M575.8 411l-1.7 0.7c-1.2 0.5-2.4 1.2-3.6 1.9 -1.3 0.8-2.3 1.3-2.9 1.3 -1.6 0.4-3.5 0.1-5.6-0.9 2.1-0.5 3.9-1.2 5.5-2.2C570.5 409.9 573.3 409.6 575.8 411z" class="A"/><path d="M540.2 405.5c-0.2-0.5-0.2-0.9-0.1-1.3 -0.1-0.9-0.2-1.9-0.3-2.8 -0.4-1.1-0.4-1.7 0.1-1.9 0.8-0.5 2.4-1.3 4.6-2.2 -0.3 1.8-0.3 3.3-0.1 4.4C545 404.3 543.6 405.6 540.2 405.5z" class="A"/><path d="M539.9 399.5c-0.5 0.2-0.5 0.8-0.1 1.9 0.1 1 0.2 1.9 0.3 2.8 -0.1 0.4-0.1 0.9 0.1 1.3 -0.5 1-1.4 2.4-2.7 4.2 0 0 0-0.1-0.1-0.1 -0.1-0.3-0.1-0.6-0.1-1 -0.2-0.5-0.3-1.1-0.5-1.8 -0.1-0.3-0.2-0.6-0.4-0.9 -0.7-1.3-0.9-2.7-0.9-4.1 -0.1-0.4-0.1-0.8-0.1-1C535.9 399.7 537.4 399.2 539.9 399.5z" class="D"/><path d="M536.3 415.2c-0.1-0.6-0.2-1.2-0.3-1.9 -0.5-1.3-1-2.7-1.5-4.2 -0.6-1.2-1.1-2.2-1.2-2.8 -0.5-2.3 0.2-4.1 2.3-5.4 -0.1 0.3-0.1 0.6 0.1 1 -0.1 1.5 0.2 2.8 0.9 4.1 0.2 0.3 0.3 0.6 0.4 0.9 0.1 0.7 0.3 1.3 0.5 1.8 0 0.3 0 0.7 0.1 1 0 0 0.1 0.1 0.1 0.1l-0.1 0.1C537.5 411.7 537.1 413.5 536.3 415.2z" class="B"/><path d="M533.2 406.2c0.2 0.7 0.6 1.6 1.2 2.8 0.5 1.6 1.1 3 1.5 4.2 0.1 0.7 0.2 1.3 0.3 1.9 0.4 1.6 0.7 2.5 1 2.9 -2.8-1.3-4.6-2.9-5.2-4.9C531.5 411 531.9 408.7 533.2 406.2z" class="C"/><path d="M544.3 409.9c1.3-1.2 2-2.6 2.3-4.4 0.3-1.7 0.4-2.6 0.5-2.8 1.2-1 3.4-1.7 6.5-2.1 -0.7 0.2-1.7 1.8-3 4.8C549.2 408.6 547.1 410 544.3 409.9z" class="A"/><path d="M539.7 411.8c1.1-0.9 1.7-2.2 2-3.8 0.2-1.3 0.4-2.2 0.6-2.7 0.2-0.5 0.4-0.9 0.6-1.1 1.3-0.9 2.7-1.4 4.2-1.4 -0.1 0.1-0.3 1-0.5 2.8 -0.2 1.7-1 3.2-2.3 4.4C543.3 411.1 541.8 411.8 539.7 411.8z" class="D"/><path d="M537.9 412.9c-0.5-1-0.7-2.3-0.4-4 0.2-1.6 0.6-2.6 1.1-3 0.9-1.1 2.3-1.6 4.2-1.7 -0.2 0.2-0.4 0.6-0.6 1.1 -0.2 0.5-0.4 1.4-0.6 2.7 -0.3 1.6-1 2.9-2 3.8C539.4 412.1 538.8 412.5 537.9 412.9z" class="B"/><path d="M538.6 406c-0.5 0.4-0.9 1.3-1.1 3 -0.2 1.6-0.1 3 0.4 4 -1.7 0.1-2.5-1.1-2.3-3.6C535.8 406.7 536.8 405.6 538.6 406z" class="C"/><path d="M535.3 416.9c0.9-0.1 2.1-0.3 3.7-0.7 1.6-0.4 2.8-0.5 3.8-0.4 1 0.1 1.4 0.2 1.3 0.1v0c1.4 0.4 2.7 1 4 1.8 -1.8 0-3.4 0.2-4.7 0.8 -1.3 0.6-2.6 0.9-3.7 1.1C538.2 419.4 536.7 418.5 535.3 416.9z" class="B"/><path d="M539.7 419.7c1.1-0.2 2.3-0.6 3.7-1.1 1.3-0.6 2.9-0.8 4.7-0.8 2.1 0.1 3.4 0.6 3.8 1.5 -3.4 1.9-6.2 3-8.3 3.3C541.5 422.8 540.2 421.8 539.7 419.7z" class="C"/><path d="M544.1 415.9c0.1 0-0.4 0-1.3-0.1 -1-0.1-2.2 0-3.8 0.4 -1.6 0.4-2.8 0.6-3.7 0.7 -2.2-1.3-3.3-3.1-3.4-5.4 1.6 0.4 2.8 0.6 3.8 0.6 1 0 2.3-0.1 3.8-0.3C541.1 411.7 542.6 413 544.1 415.9z" class="D"/><path d="M558.6 412.5c-1.9 0.1-3.6-0.6-5-2.1 0.3 0 0.9-0.2 1.7-0.6 0.4-0.2 0.9-0.5 1.7-0.9 2.8-1.3 5.3-1.7 7.7-1.1 0.1 0 0.2 0.1 0.3 0.1 0.2 0.1 0.3 0.2 0.5 0.2 0.5 0.3 1.1 0.7 1.8 1.4l-1.8 0.3c-0.8 0.2-1.7 0.5-2.6 0.9h-0.1c-0.5 0.2-0.9 0.3-1.4 0.5 -0.5 0.2-0.9 0.4-1.3 0.6C559.5 412.3 558.9 412.5 558.6 412.5z" class="B"/><path d="M567.3 409.6c1.9-0.2 3.8-0.1 5.7 0.5 -4.2 1.6-7.1 2.8-8.8 3.7 -1.7 0.9-3.5 0.5-5.6-1.3 0.3-0.1 0.9-0.3 1.6-0.6 0.4-0.2 0.8-0.4 1.3-0.6 0.5-0.2 1-0.4 1.4-0.5h0.1c0.9-0.3 1.8-0.6 2.6-0.9L567.3 409.6z" class="C"/><path d="M553.6 410.4c-1.5-0.3-2.7-1.1-3.7-2.5h-0.1c0.2-0.2 0.5-0.5 0.8-0.9 2-2.1 3.9-2.9 5.6-2.4h0c2.3 0.3 4.2 0.9 5.8 1.8 1.6 0.9 2.5 1.3 2.5 1.3 -2.4-0.5-4.9-0.2-7.7 1.1 -0.7 0.4-1.3 0.7-1.7 0.9C554.5 410.2 553.9 410.4 553.6 410.4z" class="D"/><path d="M581.3 384.4c-0.3 0.3-1.1 1.2-2.2 2.7 -1.1 1.5-2.3 2.8-3.6 4 -1.6 1.2-3.3 1.7-5.3 1.5 1.9-1.9 3.6-3.8 5.1-5.7C576.9 385.2 578.9 384.3 581.3 384.4z" class="C"/><path d="M587 383.2c-1.1 1.1-2.3 2.4-3.4 3.8 -1.1 1.4-2.3 2.5-3.5 3.3 -1.3 0.8-2.8 1-4.5 0.8 1.3-1.1 2.5-2.4 3.6-4 1.1-1.5 1.8-2.4 2.2-2.7C583 383.3 584.8 382.9 587 383.2z" class="B"/><path d="M580.1 390.2c1.2-0.8 2.4-1.8 3.5-3.3 1.1-1.4 2.3-2.7 3.4-3.8 1.3-0.9 2.8-1.3 4.8-1.1 -0.5 0.2-1.3 0.9-2.2 2.3 -0.8 1.2-2.1 2.7-3.9 4.5C584.1 389.9 582.3 390.3 580.1 390.2z" class="D"/><path d="M585.6 388.9c1.8-1.8 3.1-3.3 3.9-4.5 1-1.4 1.7-2.1 2.2-2.3 1.3-1 3.2-1.5 5.7-1.3 -1.8 1.2-3.5 2.9-5.1 5.2C590.7 388.2 588.5 389.2 585.6 388.9z" class="A"/><path d="M621.9 390.5c-0.4 0.1-1.2 0.6-2.3 1.4 -1.1 0.8-2.4 1.5-3.8 2.2l-1.7 0.6c-1.9 0.6-3.7 0.5-5.5-0.4 2.5-1.1 4.8-2.3 6.8-3.6C617.5 389.6 619.7 389.6 621.9 390.5z" class="C"/><path d="M614.1 394.6l1.7-0.6c1.4-0.6 2.7-1.4 3.8-2.2 1.1-0.8 1.9-1.3 2.3-1.4 1.9-0.4 3.8-0.1 5.8 0.9 -0.4 0-0.8 0.2-1.2 0.3 -0.8 0.3-1.5 0.6-2.3 0.9l0 0c-2.4 1.5-4.3 2.4-5.7 2.9C617.2 395.8 615.7 395.5 614.1 394.6z" class="B"/><path d="M632.6 392.2c-0.6-0.1-1.6 0.4-3 1.3 -1.2 0.8-2.4 1.4-3.6 1.9l-1.7 0.9c-1.8 0.5-3.8 0.2-5.8-0.6 1.4-0.5 3.3-1.4 5.7-2.9l0 0c0.7-0.4 1.5-0.7 2.3-0.9 0.4-0.2 0.8-0.3 1.2-0.3C629.2 391 630.8 391.3 632.6 392.2z" class="D"/><path d="M624.4 396.2l1.7-0.9c1.2-0.5 2.4-1.1 3.6-1.9 1.4-1 2.4-1.4 3-1.3 1.6-0.5 3.3 0.5 5.3 2.8 -2.6-0.6-4.9-0.1-6.8 1.3C629.1 397.7 626.9 397.7 624.4 396.2z" class="A"/><path d="M640.7 386.8c-0.4 0-1.3 0.4-2.6 1 -0.1 0-0.2 0.1-0.3 0.1 -2.1 0.9-3.8 1.4-5 1.3 -1.8 0.2-3.5-0.3-4.9-1.5 2.5-0.5 4.8-1.2 6.9-2.1C636.9 385 638.9 385.4 640.7 386.8z" class="C"/><path d="M632.8 389.2c1.2 0.1 2.9-0.3 5-1.3 0.1 0 0.2-0.1 0.3-0.1 1.4-0.6 2.3-1 2.6-1 1.8 0 3.5 0.7 5.1 2.1 -0.3 0-0.7 0-1.1 0.1 -1.5 0.1-4.3 0.8-8.1 1.9v0.1c-0.1 0-0.1 0-0.2 0h0C635.1 390.9 633.9 390.3 632.8 389.2z" class="B"/><path d="M652.3 392.7c-0.9-0.6-2.3-0.9-4.3-0.9 -1.9 0-3.9 0.3-6 1.1h-0.3c-1.8 0-3.5-0.6-5.2-1.8V391c3.9-1.1 6.6-1.8 8.1-1.9 0.4-0.1 0.8-0.2 1.1-0.1C647.1 388.8 649.3 390.1 652.3 392.7z" class="D"/><path d="M641.7 392.9h0.3c2.1-0.7 4-1.1 6-1.1 1.9 0 3.4 0.3 4.3 0.9 0.2 0.2 0.5 0.4 0.7 0.6 1.5 1 1.9 2.8 1.1 5.3 -2-2.3-4.2-3.5-6.8-3.6C644.9 394.8 643 394.1 641.7 392.9z" class="A"/><path d="M622.8 381.5c-0.2 0.1-1.1 0.6-2.7 1.6 -1.6 1-3.3 1.9-5.1 2.5 -1.9 0.6-3.7 0.5-5.5-0.4 2.5-1.1 4.8-2.3 6.8-3.6C618.4 380.6 620.6 380.6 622.8 381.5z" class="C"/><path d="M633.5 383.2c-0.5 0.2-1.4 0.6-2.7 1.4 -1.3 0.8-3.2 1.6-5.5 2.7 -1.8 0.5-3.8 0.2-5.8-0.6 0.7-0.2 1.7-0.6 2.9-1.4 2.1-1.1 3.3-1.7 3.6-1.8 0.3-0.1 0.8-0.3 1.3-0.6 0.5-0.2 0.9-0.4 1.3-0.4C630.1 382 631.8 382.3 633.5 383.2z" class="D"/><path d="M628.6 382.4c-0.4 0-0.8 0.2-1.3 0.4 -0.5 0.2-0.9 0.4-1.3 0.6 -0.3 0.1-1.5 0.7-3.6 1.8 -1.2 0.7-2.2 1.2-2.9 1.4 -1.4 0.2-2.9-0.1-4.5-1 1.8-0.6 3.5-1.5 5.1-2.5 1.6-1 2.5-1.6 2.7-1.6C624.8 381.1 626.7 381.4 628.6 382.4z" class="B"/><path d="M625.3 387.2c2.3-1 4.1-1.9 5.5-2.7 1.3-0.8 2.2-1.2 2.7-1.4 1.6-0.5 3.6 0.5 6.1 3 -2.4-1-4.4-1-6 0.1C630.6 388.3 627.8 388.7 625.3 387.2z" class="A"/><path d="M607.9 380.2c-0.3 0.1-0.7 0.3-1 0.6 -1.4 0.8-2.6 1.7-3.6 2.8 -1 1-1.9 1.8-2.9 2.3l-0.2 0.1c-1.3 0.5-2.8 0.5-4.5-0.1 2-1 3.5-2.1 4.4-3.6 1-1.1 1.6-1.8 2-2C603.9 379.6 605.8 379.5 607.9 380.2z" class="B"/><path d="M602.1 380.4c-0.4 0.2-1.1 0.9-2 2 -0.9 1.4-2.4 2.6-4.4 3.6 -1.7 0.9-3.5 1.6-5.4 2 2.1-2.4 4-4.5 5.6-6.2C597.6 380.3 599.7 379.9 602.1 380.4z" class="C"/><path d="M612.8 380c-0.6 0-1.4 0.6-2.5 1.8 -0.9 1-1.9 1.9-2.9 2.6l-1.4 1.1c-1.6 0.8-3.6 0.9-5.8 0.4l0.2-0.1c1-0.5 1.9-1.3 2.9-2.3 1-1.1 2.2-2 3.6-2.8 0.3-0.3 0.7-0.5 1-0.6C609.2 379.5 610.8 379.5 612.8 380z" class="D"/><path d="M606 385.6l1.4-1.1c1-0.7 1.9-1.6 2.9-2.6 1.1-1.2 1.9-1.8 2.5-1.8 1.4-0.8 3.6-0.5 6.5 0.9 -2.4 0.4-4.5 1.5-6.4 3.3C611 386 608.7 386.5 606 385.6z" class="A"/><path d="M654.4 400.7c1.4 1.1 2 2.6 1.9 4.4v0c-1.8-1.6-4.8-3.1-9.1-4.6 -0.9-0.8-1.3-2-1.1-3.5l2.8 1.3c0.9 0.4 2 0.8 3.3 1.4S654.2 400.5 654.4 400.7z" class="B"/><path d="M646.1 396.9c-1.6-1-2.4-2-2.5-2.8 2.6 0.3 5.1 0.7 7.6 1.3 2.5 0.6 3.5 2.3 3.2 5.2 -0.2-0.2-1-0.5-2.3-1.1s-2.4-1-3.3-1.4L646.1 396.9z" class="C"/><path d="M649.6 404.6c-1.4-1.1-2.2-2.5-2.4-4.2 4.3 1.5 7.3 3 9.1 4.6v0h0c0.1 0.1 0.3 0.2 0.4 0.4 0.9 0.8 1.3 1.9 1.3 3.2 -1.1-0.7-1.9-1.1-2.3-1.3 -0.4-0.2-1.9-0.8-4.4-2L649.6 404.6z" class="A"/><path d="M658.2 408.7c1.8 1.1 2.5 3.2 2.1 6.4 -3.3-3.4-6-5.4-8-6 -2.1-0.7-2.9-2.1-2.6-4.4l1.8 0.8c2.6 1.1 4 1.8 4.4 2C656.3 407.6 657.1 408 658.2 408.7z" class="D"/><path d="M560.7 420.9c1.5-0.2 3 0.1 4.5 1 -3 0.9-5.8 2.4-8.5 4.5 -0.1 0-0.2 0.1-0.2 0.1 -1.3 0-2.9-0.5-4.9-1.6 1.9-0.4 3.5-1 4.8-1.9 1.3-0.9 2.6-1.6 4-2L560.7 420.9z" class="B"/><path d="M555 420.2c1.8-0.5 3.7-0.2 5.7 0.7l-0.3 0.1c-1.3 0.4-2.7 1.1-4 2 -1.3 0.9-2.9 1.5-4.8 1.9 -1.5 0.3-3.1 0.1-4.8-0.7 0.6 0 1.5-0.4 2.9-1.3 1.2-0.7 2.4-1.4 3.6-1.9L555 420.2z" class="D"/><path d="M546.8 424.1c-1.6 0.4-3.2-0.2-4.8-1.6 1.5-0.1 3.1-0.6 4.6-1.5 3.1-2 5.9-2.3 8.4-0.8l-1.7 0.7c-1.2 0.5-2.4 1.2-3.6 1.9C548.3 423.7 547.4 424.1 546.8 424.1z" class="A"/><path d="M565.2 421.9c1.9-0.5 3.9-0.5 6 0.2 -2.9 1.3-5.4 2.7-7.5 4.1 -2.2 1.4-4.6 1.5-7.3 0.3 0.1 0 0.2-0.1 0.2-0.1C559.4 424.3 562.3 422.8 565.2 421.9z" class="C"/><path d="M577 427.9c4-2 6.4-3.7 7.3-5 1.8-0.8 3.8-0.9 5.8-0.5 -1.5 0.9-3.4 2.4-5.8 4.5C582 429.1 579.6 429.4 577 427.9z" class="C"/><path d="M579.8 422.5c-1.6 0.7-3.2 1.6-4.8 2.8 -1.4 1.1-2.7 1.9-3.8 2.3 -1.4 0.5-3 0.5-4.8-0.1 0.6-0.1 1.5-0.7 2.8-1.7 1.1-0.9 2.2-1.6 3.3-2.3l1.6-1C575.8 421.8 577.8 421.8 579.8 422.5z" class="D"/><path d="M574 422.5l-1.6 1c-1.1 0.6-2.2 1.4-3.3 2.3 -1.3 1.1-2.2 1.6-2.8 1.7 -1.6 0.5-3.5 0.4-5.7-0.3 1.9-0.8 3.7-1.7 5.2-2.9C568.7 422 571.4 421.4 574 422.5z" class="A"/><path d="M584.4 422.9c-0.9 1.3-3.4 3-7.3 5 -1.8 0.7-3.8 0.6-5.8-0.3 1.1-0.4 2.4-1.1 3.8-2.3 1.6-1.2 3.2-2.2 4.8-2.8C581.3 422.1 582.8 422.2 584.4 422.9z" class="B"/><path d="M596.8 427.7c0.8-0.4 1.9-1.3 3.2-2.9 0.4-0.5 1.1-1.1 2.1-1.9l1.4-1.1c1.8-1 4.1 0.2 7 3.4 -3.2-1.1-5.7-0.8-7.5 0.9C601.3 427.5 599.2 428 596.8 427.7z" class="C"/><path d="M598.9 421.9c-1.8 1.1-3.2 2.2-4.4 3.4 -1.1 1.2-2.3 2.1-3.5 2.6 -1.3 0.7-3 0.8-4.9 0.5 0.6-0.2 1.4-0.8 2.6-1.9 1-1 2-1.9 3-2.7l1.5-1.1C595 421.7 596.8 421.5 598.9 421.9z" class="D"/><path d="M593.3 422.6l-1.5 1.1c-1 0.8-2 1.7-3 2.7 -1.1 1.1-2 1.8-2.6 1.9 -1.5 0.7-3.3 0.8-5.6 0.3 1.8-1 3.4-2.1 4.8-3.4C587.9 422.7 590.6 421.8 593.3 422.6z" class="A"/><path d="M603.6 421.8l-1.4 1.1c-1 0.8-1.7 1.5-2.1 1.9 -1.3 1.5-2.4 2.5-3.2 2.9 -1.7 0.8-3.6 0.8-5.8 0.2 1.2-0.5 2.4-1.4 3.5-2.6 1.1-1.2 2.6-2.4 4.4-3.4C600.4 421.4 601.9 421.3 603.6 421.8z" class="B"/><path d="M626.3 435.6c0.7 0.7 1.1 2 1.1 3.8 -1.6-1-3.2-1.6-4.5-1.8 -1.4-0.2-3-0.2-4.9 0 -1.1-0.7-2-1.8-2.5-3.3 1.8 0.2 3.6 0.2 5.6 0.1C623 434.2 624.8 434.6 626.3 435.6zM603.5 427.7l3.8-1.6c2.7-1.2 4.9-1.4 6.6-0.6 0.9 0.3 1.5 0.8 1.8 1.3 0.3 0.5 0.5 0.7 0.4 0.6 -1.9-0.6-3.5-0.5-5 0.2 -1.5 0.7-3 1.3-4.6 1.7h-0.1C605 429.5 604 428.9 603.5 427.7z" class="D"/><path d="M617.3 428.9c-0.5 0-1.5 0.1-3 0.5 -1.6 0.5-3.5 0.7-5.8 0.5 -0.7-0.1-1.3-0.2-1.9-0.5h0.1c1.6-0.5 3.1-1 4.6-1.7 1.5-0.7 3.2-0.7 5-0.2 0.1 0 0.1 0.1 0.2 0.1 0.2 0.1 0.4 0.3 0.5 0.5C617.1 428.3 617.2 428.6 617.3 428.9z" class="B"/><path d="M603.5 427.7c-1.7 0.6-3.1 0.6-4.4 0.1 1.6-0.5 3.2-1.6 4.8-3.1 1.7-1.3 3.5-1.9 5.2-1.7 1.7 0.2 3.3 1 4.9 2.5 -1.7-0.8-3.9-0.6-6.6 0.6L603.5 427.7zM626.3 435.6c-1.6-1-3.3-1.4-5.3-1.2 -1.9 0.2-3.8 0.1-5.6-0.1 -1.8-0.2-3.2-1-4.1-2.3h0.3c1.1 0.2 2.7 0.1 4.9-0.3 1.4-0.3 2.5-0.4 3.2-0.4 0.7 0 1.3 0.1 1.7 0.2C622.7 431.7 624.3 433.1 626.3 435.6z" class="A"/><path d="M608.4 429.8c2.3 0.2 4.3 0.1 5.8-0.5 1.5-0.3 2.5-0.5 3-0.5 1.8 0.3 3.2 1.2 4.2 2.7 -0.5-0.2-1-0.2-1.7-0.2 -0.7 0-1.8 0.1-3.2 0.4 -2.2 0.4-3.8 0.5-4.9 0.3h-0.3C610 431.7 609 430.9 608.4 429.8z" class="C"/><path d="M563.6 403.4c1.7-1.8 3-3.3 3.9-4.6 0.9-1.3 1.7-2 2.2-2.2 1.3-1 3.5-1.7 6.6-1.9 -2.2 1.5-3.8 3.3-5 5.3C570.3 402.1 567.7 403.2 563.6 403.4z" class="A"/><path d="M558.2 404.7c0.4-0.1 1.1-0.8 2.2-2 1-1.2 1.8-2.1 2.3-2.7 0.5-0.6 1.3-1.3 2.3-2.1 1.3-0.9 2.8-1.3 4.8-1.1 -0.6 0.2-1.3 0.9-2.2 2.2 -0.9 1.3-2.2 2.8-3.9 4.6C562.1 404.5 560.3 404.9 558.2 404.7z" class="D"/><path d="M565 397.8c-1 0.8-1.8 1.5-2.3 2.1 -0.5 0.6-1.3 1.5-2.3 2.7 -1 1.2-1.8 1.9-2.2 2 -1.9 1-3.4 1.3-4.7 1l1.3-1.2c1.6-1.6 2.6-2.8 3.1-3.7 0.5-0.9 0.9-1.5 1.3-1.7C560.9 397.9 562.8 397.5 565 397.8z" class="B"/><path d="M559.3 399c-0.3 0.3-0.8 0.8-1.3 1.7 -0.5 0.9-1.5 2.1-3.1 3.7l-1.3 1.2c-1.6 1.2-3.5 2.4-5.9 3.5 1.4-1.3 2.5-3.1 3.4-5.3 0.6-1.4 1.3-2.4 2.1-3C554.8 399.6 556.8 399 559.3 399z" class="C"/><path d="M560.1 395.7l0.2-0.2c1.9-1.5 3.5-3 4.6-4.5 1.1-1.4 1.8-2.2 2.2-2.3 1.3-0.9 2.8-1.3 4.7-1.1 -0.5 0.2-1.3 0.9-2.2 2.2 -0.8 1.2-1.7 2.2-2.6 3.1l-1.3 1.4C564.2 395.4 562.3 395.8 560.1 395.7z" class="D"/><path d="M565.7 394.3l1.3-1.4c1-0.9 1.8-1.9 2.6-3.1 0.9-1.3 1.6-2.1 2.2-2.2 1.3-1 3.2-1.8 5.6-2.3 -1 1.1-2.5 2.9-4.4 5.6C571 393.5 568.6 394.7 565.7 394.3z" class="A"/><path d="M567.1 388.7c-0.3 0.2-1.1 0.9-2.2 2.3 -1.1 1.5-2.6 2.9-4.6 4.5l-0.2 0.2c-1.3 0.8-2.8 1.3-4.8 1.7l1.6-2.1c0.8-0.9 1.7-1.9 2.6-3.2 0.8-1.3 1.4-2.1 1.8-2.3C563 388.8 564.9 388.4 567.1 388.7z" class="B"/><path d="M561.3 389.8c-0.3 0.3-0.9 1.1-1.8 2.3 -1 1.2-1.8 2.3-2.6 3.2l-1.6 2.1c-1.3 1.7-2.7 2.6-4.4 2.8 0.6-3.7 1.9-6.4 3.7-8.1C556.4 390.5 558.7 389.7 561.3 389.8z" class="C"/><path d="M579.7 399.4c-1.3 0.8-2.8 1-4.5 0.8l1-1c1.3-1.4 2.4-2.7 3.1-3.7 0.8-1 1.3-1.7 1.6-2 1.6-1.1 3.5-1.5 5.7-1.2 -0.3 0.2-0.7 0.4-1 0.7 -0.5 0.5-1.1 1.1-1.8 1.9 -0.7 0.8-1.4 1.7-2.3 2.7 -0.7 0.8-1.2 1.3-1.6 1.6l0 0L579.7 399.4z" class="B"/><path d="M591.4 391.1c-0.5 0.2-1.3 0.9-2.2 2.3 -0.8 1.2-1.7 2.2-2.6 3.1l-1.3 1.4c-1.5 1.1-3.4 1.5-5.6 1.4l0.2-0.1 0 0c0.4-0.3 0.9-0.8 1.6-1.6 0.9-1 1.7-1.9 2.3-2.7 0.7-0.8 1.3-1.4 1.8-1.9 0.3-0.3 0.6-0.6 1-0.7C587.9 391.4 589.5 391 591.4 391.1z" class="D"/><path d="M585.3 398l1.3-1.4c1-0.9 1.8-1.9 2.6-3.1 1-1.4 1.7-2.1 2.2-2.3 1.3-1 3.6-1.3 6.8-0.7 -2.3 1.1-4.3 2.8-6 4.9C590.5 397.5 588.2 398.4 585.3 398z" class="A"/><path d="M575.2 400.2c-1.6 1.2-3.3 1.7-5.3 1.5 0.7-2 2-3.9 3.9-5.7 2.3-1.8 4.7-2.6 7.2-2.6 -0.3 0.3-0.9 0.9-1.6 2 -0.8 1-1.8 2.3-3.1 3.7L575.2 400.2z" class="C"/><path d="M601.2 390.3c-0.4 0.2-1.1 1-2 2.2 -1.1 1.1-2.1 2.1-3 2.9l-1.4 1c-1.7 1-3.2 1.4-4.7 1 1.6-1.6 3.3-3.4 4.9-5.2C596.7 390.6 598.7 390 601.2 390.3z" class="C"/><path d="M607 389.7c-0.3 0.1-0.9 0.5-1.6 1 -0.7 0.5-1.6 1.4-2.6 2.7 -1 1.2-2.2 2.1-3.6 2.7 -1.3 0.6-2.8 0.7-4.5 0.3l1.4-1c0.9-0.8 1.9-1.8 3-2.9 1-1.2 1.6-1.9 2-2.2C602.9 389.4 604.9 389.3 607 389.7z" class="B"/><path d="M605.1 395.2l1.4-1.3c1-0.8 2-1.7 2.9-2.8 1.1-1.2 1.9-1.9 2.5-1.9 1.4-0.9 3.4-0.6 5.9 0.7 -2.1 0.4-4.1 1.6-5.8 3.5C610.1 395.3 607.8 395.9 605.1 395.2z" class="A"/><path d="M599.3 396.1c1.3-0.5 2.5-1.4 3.6-2.7 1-1.2 1.9-2.1 2.6-2.7 0.7-0.6 1.2-0.9 1.6-1 1.3-0.7 2.9-0.9 4.8-0.5 -0.6 0.1-1.4 0.7-2.5 1.9 -0.9 1.1-1.8 2-2.9 2.8l-1.4 1.3C603.4 396.1 601.5 396.4 599.3 396.1z" class="D"/><path d="M649.1 399.7c-0.5-0.2-1.5 0-2.9 0.7 -1.2 0.5-2.5 0.9-4 1.3l-1.4 0.3c-1.8 0-3.5-0.6-5.2-1.8 1.3 0.1 2.9-0.3 4.6-0.9 1.7-0.7 2.9-1.1 3.5-1.1 0.4-0.1 0.8-0.2 1.1-0.1C646.3 397.9 647.7 398.5 649.1 399.7z" class="D"/><path d="M639.8 395.9c1.8 0 3.5 0.7 5.1 2.1 -0.3 0-0.7 0-1.1 0.1 -0.6 0.1-1.8 0.4-3.5 1.1 -1.7 0.7-3.3 1-4.6 0.9 -1.3 0-2.5-0.7-3.8-1.9 1.6-0.1 2.8-0.3 3.7-0.7 0.9-0.3 1.8-0.7 2.5-1.1C638.9 396.2 639.4 395.9 639.8 395.9z" class="B"/><path d="M631.8 398.3c-1.8 0.2-3.4-0.1-4.8-1.1 1.6-0.8 3.9-1.6 6.9-2.5 2.1-0.6 4-0.2 5.9 1.2 -0.4 0-1 0.3-1.7 0.7 -0.8 0.4-1.6 0.8-2.5 1.1C634.7 398 633.4 398.2 631.8 398.3z" class="C"/><path d="M649.1 399.7c1.6 0.3 3.2 1.5 4.8 3.6 -1.8-1.1-3.6-1.3-5.3-0.7 -3.2 1.5-5.8 1.2-7.7-0.6l1.4-0.3c1.4-0.4 2.7-0.8 4-1.3C647.6 399.7 648.6 399.5 649.1 399.7z" class="A"/><path d="M547 401.7c1.2-2.1 2.1-3.8 2.6-5.2 0.5-1.3 0.7-2 0.7-1.9 0.9-1.1 2.2-1.7 4-1.9 -0.6 1.5-1.2 3-1.7 4.5C551.7 400.3 549.9 401.8 547 401.7z" class="A"/><path d="M542.4 403.6l0.1-0.2c0.2 0 0.8-1.1 1.9-3.4 1.1-2.3 1.7-3.6 1.8-4 0.9-0.9 2.2-1.4 4.1-1.4 0 0-0.2 0.6-0.7 1.9 -0.5 1.3-1.3 3-2.6 5.2C546 402.9 544.5 403.5 542.4 403.6z" class="D"/><path d="M541.4 397.8c-0.2 0.2-0.4 0.8-0.7 1.8 -0.3 0.9-0.4 1.4-0.5 1.4 -0.5 1.8-1.1 3-1.8 3.8 -1 1.3-2.5 1.9-4.4 1.9 -1.4-1.8-1-3.8 1.2-6C537 398.9 539.1 397.9 541.4 397.8z" class="C"/><path d="M546.2 396.1c-0.1 0.4-0.7 1.7-1.8 4 -1.1 2.2-1.7 3.4-1.9 3.4l-0.1 0.2c-1 0.9-2.3 1.3-4 1.2 0.8-0.8 1.4-2 1.8-3.8 0 0 0.2-0.5 0.5-1.4 0.3-0.9 0.5-1.5 0.7-1.8C542.4 396.6 544 396 546.2 396.1z" class="B"/><path d="M578.9 452.3l-1.7 1c-1 0.6-2.1 1.4-3.4 2.3 -1.1 0.8-1.9 1.4-2.3 1.7 -1.7 0.6-3.6 0.5-5.7-0.3 0.2-0.1 0.4-0.2 0.6-0.3 0.6-0.3 1.5-0.8 2.8-1.6 3.1-1.9 4.7-2.9 4.9-3l0.1 0.1c0-0.1 0.2-0.1 0.3-0.2C575.9 451.5 577.4 451.6 578.9 452.3z" class="B"/><path d="M578.9 452.3c1.9-0.8 4.7-1 8.4-0.5 -3.6 1.7-6.3 3.3-8 4.7s-4.4 1.6-7.8 0.7c0.5-0.3 1.2-0.8 2.3-1.7 1.3-0.9 2.4-1.7 3.4-2.3L578.9 452.3z" class="C"/><path d="M565.8 456.9c-1.4 0.5-3 0.4-4.8-0.2 0.6-0.1 1.5-0.6 2.6-1.5 1.2-0.9 2.3-1.7 3.4-2.2l1.7-1c1.8-0.8 3.7-0.8 5.7 0 -0.2 0-0.3 0.1-0.3 0.2L574 452c-0.2 0.1-1.8 1.1-4.9 3 -1.3 0.8-2.2 1.3-2.8 1.6C566.1 456.7 565.9 456.8 565.8 456.9z" class="D"/><path d="M560.9 456.7c-1.7 0.7-3.5 0.6-5.6-0.2 1.9-0.8 3.6-1.7 4.9-2.8 2.9-2.3 5.7-2.8 8.4-1.7l-1.7 1c-1.1 0.6-2.2 1.3-3.4 2.2C562.4 456 561.5 456.6 560.9 456.7z" class="A"/><path d="M593.2 457.3c0.5-0.2 1.5-0.8 2.8-1.6 1.3-0.8 2.4-1.7 3.2-2.5l1.2-1.2c1.8-0.9 4.4-0.3 7.8 1.7 -3.3 0.3-5.8 1.2-7.3 2.8C599.2 458.1 596.7 458.3 593.2 457.3z" class="C"/><path d="M600.4 452l-1.2 1.2c-0.8 0.8-1.9 1.7-3.2 2.5 -1.3 0.8-2.3 1.3-2.8 1.6 -1.7 0.7-3.6 0.7-5.8 0 0.7-0.2 1.3-0.4 1.9-0.7 0.6-0.3 1.2-0.7 1.8-1.1 0.6-0.5 2.1-1.6 4.3-3.4h0.1c0-0.1 0.1-0.1 0.2-0.2C597.3 451.4 598.8 451.4 600.4 452z" class="B"/><path d="M582.7 457.3c0.5-0.2 1.4-0.7 2.5-1.7 1.1-1 2.2-1.8 3.3-2.4l1.7-1c1.8-0.8 3.7-0.9 5.6-0.3 -0.1 0-0.2 0.1-0.2 0.2h-0.1c-2.2 1.8-3.6 2.9-4.3 3.4 -0.6 0.5-1.2 0.8-1.8 1.1 -0.6 0.3-1.2 0.5-1.9 0.7C586 457.8 584.5 457.8 582.7 457.3z" class="D"/><path d="M590.1 452.2l-1.7 1c-1.1 0.6-2.2 1.5-3.3 2.4 -1.1 1-2 1.5-2.5 1.7 -1.6 0.8-3.6 0.9-5.7 0.2 2-1 3.7-2.1 5-3.2C584.6 451.9 587.4 451.2 590.1 452.2z" class="A"/><path d="M622 456.6c-2.4-0.1-4.5 0.4-6.5 1.4 -1.9 1-3.2 1.6-3.7 1.8 -1.7 0.4-3.6 0.1-5.6-1 0.2 0 0.7-0.2 1.5-0.5 0.4-0.2 0.8-0.3 1.3-0.5 0.4-0.2 0.8-0.3 1.2-0.5 2.8-1.2 4.4-1.9 5-2.4C616.9 454.7 619.2 455.2 622 456.6z" class="B"/><path d="M622 456.6c2.6 0.5 4.2 2.4 5 5.8 -3.7-2.3-6.4-2.9-8-1.7 -1.7 1.1-4.1 0.9-7.2-0.8 0.5-0.2 1.8-0.8 3.7-1.8C617.5 457 619.6 456.5 622 456.6z" class="C"/><path d="M601.4 458.2c-1.8 0.5-3.7 0.4-5.9-0.3 2.3-1 4.2-1.9 5.6-2.8 3.2-1.9 6-2.2 8.5-0.8l-1.8 0.7c-1.1 0.5-2.3 1.2-3.6 1.9C603 457.7 602 458.1 601.4 458.2z" class="A"/><path d="M606.2 458.9c-1.5 0.3-3.1 0.1-4.8-0.7 0.6-0.1 1.5-0.5 2.8-1.3 1.3-0.7 2.5-1.4 3.6-1.9l1.8-0.7c1.9-0.5 3.8-0.3 5.6 0.7 -0.6 0.4-2.2 1.2-5 2.4 -0.4 0.2-0.8 0.3-1.2 0.5 -0.5 0.2-1 0.4-1.3 0.5C606.9 458.7 606.4 458.9 606.2 458.9z" class="D"/><path d="M628.8 464.2l-1.9-0.5c-1.2-0.2-2.6-0.4-4-0.6 -1.5-0.1-2.4-0.1-3-0.1 -2-0.6-3.6-1.3-4.6-2.1 2.4-0.9 4.5-1.3 6.1-1.1C625.1 460.2 627.5 461.6 628.8 464.2z" class="A"/><path d="M633 468c-0.7 0.1-2.2 0-4.5-0.4 -2.2-0.3-3.6-0.6-4.2-0.9 -0.6-0.2-0.9-0.4-1-0.5 -1.5-0.9-2.6-1.9-3.5-3.2 0.5-0.1 1.5-0.1 3 0.1 1.5 0.2 2.8 0.3 4 0.6l1.9 0.5C630.7 465 632.1 466.2 633 468z" class="D"/><path d="M637.1 472.6l-1.3-0.6c-1.4-0.5-2.8-0.8-4.4-1 -1.6-0.2-3-0.5-4-1 -1.5-0.7-2.8-1.9-4-3.7 0.1 0.1 0.4 0.2 1 0.5 0.6 0.2 2 0.5 4.2 0.9 2.2 0.3 3.7 0.5 4.5 0.4C634.4 468.7 635.8 470.3 637.1 472.6z" class="B"/><path d="M627.3 470c1.1 0.5 2.4 0.8 4 1 1.6 0.2 3.1 0.5 4.4 1l1.3 0.6c1.4 1.1 2.1 4 1.9 8.7 -1.9-3.1-3.9-4.9-5.9-5.4C631 475.3 629.1 473.4 627.3 470z" class="C"/><path d="M553.4 454.4l2.4-1.6c1.5-0.6 4.3-1 8.4-1.1l-9.3 5.5c-0.6 0.5-1.1 0.9-1.4 1.1 0 0-0.1 0-0.1 0.1V454.4z" class="C"/><path d="M553.4 454.4v-1.9c0.8 0 1.6 0.1 2.4 0.3L553.4 454.4z" class="B"/><radialGradient id="SVGID_34_" cx="228.763" cy="192.65" r="27.763" gradientTransform="matrix(1.1465 0 0 1.1465 347.7999 393.1505)" gradientUnits="userSpaceOnUse"><stop offset="0" class="b"/><stop offset="0.6824" class="E"/><stop offset="1" class="E"/></radialGradient><path d="M578.2 612.8c-0.1 0-0.1-0.1-0.1-0.2 0-0.1 0-0.2 0-0.2 0-0.1 0-0.1 0.1-0.1 0.1 0 0.2 0 0.2 0 11.3 4.2 32.4 5.2 63.4 2.9 0.1 0 0.2 0 0.2 0.1 0 0 0.1 0.1 0.1 0.2 0 0.1 0 0.2-0.1 0.2 0 0-0.1 0.1-0.2 0.1C610.8 618.1 589.6 617.1 578.2 612.8z" fill="url(#SVGID_34_)"/><radialGradient id="SVGID_35_" cx="169.45" cy="189.2" r="21.35" gradientTransform="matrix(1.1465 0 0 1.1465 347.7999 393.1505)" gradientUnits="userSpaceOnUse"><stop offset="0" class="b"/><stop offset="0.6824" class="E"/><stop offset="1" class="E"/></radialGradient><path d="M566.8 609.8c0 0.1 0 0.1-0.1 0.2s-0.1 0.1-0.2 0.1c-15.3-1.8-31.6-1.7-48.9 0.5 -0.1 0-0.2 0-0.2-0.1s-0.1-0.1-0.1-0.2c0-0.1 0-0.2 0.1-0.2 0-0.1 0.1-0.1 0.2-0.1 17.3-2.2 33.7-2.3 49-0.5 0.1 0 0.1 0 0.2 0.1C566.8 609.7 566.8 609.8 566.8 609.8z" fill="url(#SVGID_35_)"/><radialGradient id="SVGID_36_" cx="201.1" cy="180.85" r="5.225" gradientTransform="matrix(1.1465 0 0 1.1465 347.7999 393.1505)" gradientUnits="userSpaceOnUse"><stop offset="0" class="b"/><stop offset="0.6824" class="E"/><stop offset="1" class="E"/></radialGradient><path d="M581.5 593.5c0 0.1 0 0.1-0.1 0.2 -2.2 2.4-3.1 4.6-2.8 6.5 0.4 1.9 2 3.5 4.9 4.8 0.1 0 0.1 0.1 0.2 0.2 0 0 0 0.1 0 0.2 0 0.1-0.1 0.1-0.2 0.2 -0.1 0-0.2 0-0.2 0 -3.1-1.5-4.8-3.2-5.2-5.2 -0.4-2.1 0.6-4.4 2.9-6.9 0-0.1 0.1-0.1 0.2-0.1s0.2 0 0.2 0.1C581.4 593.4 581.5 593.4 581.5 593.5z" fill="url(#SVGID_36_)"/><radialGradient id="SVGID_37_" cx="238.038" cy="185.45" r="27.137" gradientTransform="matrix(1.1465 0 0 1.1465 347.7999 393.1505)" gradientUnits="userSpaceOnUse"><stop offset="0" class="b"/><stop offset="0.6824" class="E"/><stop offset="1" class="E"/></radialGradient><path d="M589.4 607.3c0-0.1-0.1-0.2-0.1-0.2 0-0.1 0-0.1 0.1-0.2 0.1 0 0.2-0.1 0.2-0.1 22 3.4 42.7 2.5 62-2.9 0.1 0 0.2 0 0.2 0.1 0 0 0.1 0.1 0.1 0.2 0 0.1 0 0.2 0 0.2 -0.1 0-0.1 0.1-0.2 0.1 -19.4 5.4-40.2 6.3-62.3 2.9C589.5 607.4 589.5 607.4 589.4 607.3z" fill="url(#SVGID_37_)"/><radialGradient id="SVGID_38_" cx="244.35" cy="178.7" r="20.263" gradientTransform="matrix(1.1465 0 0 1.1465 347.7999 393.1505)" gradientUnits="userSpaceOnUse"><stop offset="0" class="b"/><stop offset="0.6824" class="E"/><stop offset="1" class="E"/></radialGradient><path d="M604.7 601.1c0-0.1-0.1-0.2-0.1-0.2s0-0.1 0.1-0.2c0.1 0 0.2-0.1 0.2-0.1 15.3 2.4 30.6 0.5 45.9-5.8 0.1 0 0.2 0 0.2 0 0.1 0 0.1 0 0.2 0.1 0 0.1 0 0.2 0 0.2 0 0.1-0.1 0.1-0.2 0.2 -15.4 6.3-30.9 8.3-46.3 5.8C604.8 601.2 604.7 601.2 604.7 601.1z" fill="url(#SVGID_38_)"/><radialGradient id="SVGID_39_" cx="278.9" cy="180.003" r="10.547" gradientTransform="matrix(1.1465 0 0 1.1465 347.7999 393.1505)" gradientUnits="userSpaceOnUse"><stop offset="0" class="b"/><stop offset="0.6824" class="E"/><stop offset="1" class="E"/></radialGradient><path d="M669.3 587.4c0-0.1 0.1-0.1 0.2-0.1 0 0 0.1 0.1 0.2 0.2 3 5.5 4.2 10.3 3.6 14.3 -0.6 4.1-3.2 7.4-7.5 9.9 -0.1 0-0.2 0-0.2 0s-0.1-0.1-0.2-0.1c-0.1-0.1-0.1-0.2-0.1-0.2s0.1-0.1 0.2-0.2c4.2-2.5 6.6-5.7 7.2-9.5 0.6-3.9-0.6-8.6-3.5-13.9 -0.1-0.1-0.1-0.2-0.1-0.2C669.2 587.5 669.3 587.4 669.3 587.4z" fill="url(#SVGID_39_)"/><radialGradient id="SVGID_40_" cx="273.65" cy="196.25" r="10.75" gradientTransform="matrix(1.1465 0 0 1.1465 347.7999 393.1505)" gradientUnits="userSpaceOnUse"><stop offset="0" class="b"/><stop offset="0.6824" class="E"/><stop offset="1" class="E"/></radialGradient><path d="M669.7 611.8c0-0.1 0-0.1 0.1-0.2 0-0.1 0.1-0.1 0.2-0.1 0.1 0 0.2 0 0.2 0.1 0 0 0.1 0.1 0.1 0.2 -0.2 7.9-7.5 11.9-22 12 -0.1 0-0.1 0-0.2-0.1 -0.1-0.1-0.1-0.2-0.1-0.2 0-0.1 0-0.1 0.1-0.2 0-0.1 0.1-0.1 0.2-0.1C662.3 623.2 669.4 619.4 669.7 611.8z" fill="url(#SVGID_40_)"/><radialGradient id="SVGID_41_" cx="105.15" cy="169.85" r="7.513" gradientTransform="matrix(1.1465 0 0 1.1465 347.7999 393.1505)" gradientUnits="userSpaceOnUse"><stop offset="0" class="b"/><stop offset="0.6824" class="E"/><stop offset="1" class="E"/></radialGradient><path d="M474.5 581.4c0 0 0.1 0.1 0.1 0.2s0 0.2-0.1 0.2l-11.8 12.6c-0.1 0-0.2 0.1-0.2 0.1s-0.1 0-0.2-0.1c-0.1-0.1-0.1-0.2-0.1-0.2 0-0.1 0-0.1 0.1-0.2l11.8-12.6c0-0.1 0.1-0.1 0.2-0.1C474.3 581.2 474.4 581.3 474.5 581.4z" fill="url(#SVGID_41_)"/><radialGradient id="SVGID_42_" cx="100.2" cy="189.1" r="8.213" gradientTransform="matrix(1.1465 0 0 1.1465 347.7999 393.1505)" gradientUnits="userSpaceOnUse"><stop offset="0" class="b"/><stop offset="0.6824" class="E"/><stop offset="1" class="E"/></radialGradient><path d="M457.6 601.8c0-0.1 0-0.1 0.1-0.1 0.1 0 0.2 0 0.2 0 0.1 0 0.1 0 0.2 0.1 0 0.1 0 0.2 0 0.2 -1.5 3.3-1.5 6.2 0.1 8.6 1.6 2.5 4.7 4.5 9.3 6.1 0.1 0 0.1 0 0.2 0.1 0 0.1 0 0.2 0 0.2 0 0.1-0.1 0.1-0.2 0.2 -0.1 0-0.1 0-0.2 0 -4.8-1.6-8-3.7-9.6-6.2C456.1 608.3 456.1 605.3 457.6 601.8z" fill="url(#SVGID_42_)"/><radialGradient id="SVGID_43_" cx="126.45" cy="181.6" r="9.8" gradientTransform="matrix(1.1465 0 0 0.974 347.7999 424.4878)" gradientUnits="userSpaceOnUse"><stop offset="0" class="b"/><stop offset="0.6824" class="E"/><stop offset="1" class="E"/></radialGradient><path d="M494 591.4c0.1 0 0.2 0.1 0.2 0.1 0 0 0 0.1 0 0.2 -1.5 5.2-1.5 9.3-0.1 12.2 1.4 2.8 4.3 4.5 8.6 5 0.1 0 0.1 0 0.2 0.1 0 0.1 0.1 0.2 0.1 0.2 0 0 0 0.1-0.1 0.1 -0.1 0-0.1 0.1-0.2 0.1 -4.5-0.6-7.6-2.3-9.1-5.3 -1.5-3-1.5-7.1 0-12.5 0 0 0.1-0.1 0.2-0.1C493.9 591.4 494 591.4 494 591.4z" fill="url(#SVGID_43_)"/><radialGradient id="SVGID_44_" cx="180.3" cy="200.4" r="56.2" gradientTransform="matrix(1.1465 0 0 1.1465 347.7999 393.1505)" gradientUnits="userSpaceOnUse"><stop offset="0" class="b"/><stop offset="0.6824" class="E"/><stop offset="1" class="E"/></radialGradient><path d="M489.9 622c-0.1-0.1-0.1-0.2-0.1-0.2 0-0.1 0-0.1 0.1-0.2 0-0.1 0.1-0.1 0.2-0.1l128.9 2.2c0.1 0 0.2 0 0.2 0.1 0 0 0.1 0.1 0.1 0.2 0 0.1 0 0.2-0.1 0.2 -0.1 0-0.2 0.1-0.2 0.1l-128.9-2.2C490 622.1 489.9 622 489.9 622z" fill="url(#SVGID_44_)"/><linearGradient id="SVGID_45_" gradientUnits="userSpaceOnUse" x1="177.18" y1="57.999" x2="177.18" y2="50.299" gradientTransform="matrix(1.1465 0 0 1.1465 347.7999 393.1505)"><stop offset="0" class="t"/><stop offset="0.2196" class="u"/><stop offset="0.4078" class="v"/><stop offset="0.7137" class="w"/><stop offset="0.7294" class="b"/><stop offset="0.8549" class="b"/><stop offset="0.9255" class="x"/><stop offset="1" class="y"/></linearGradient><path d="M555 459.6h-8.6c0.1-0.1 0.2-0.5 0.2-1.3 0.1-0.5 0.1-1.2 0.2-2.1 0-0.4 0-0.8 0-1.2 0-1.4-0.1-2.5-0.2-3.3 0-0.2-0.1-0.3-0.1-0.5h8.7c0 0.2 0.1 0.4 0.1 0.7 0.2 1 0.2 2.2 0.2 3.4 0 0.3 0 0.6 0 0.9 0 0.8-0.1 1.5-0.2 2.1C555.2 459.2 555.1 459.6 555 459.6z" fill="url(#SVGID_45_)"/><linearGradient id="SVGID_46_" gradientUnits="userSpaceOnUse" x1="174.714" y1="51.02" x2="173.259" y2="57.669" gradientTransform="matrix(1.1465 0 0 1.1465 347.7999 393.1505)"><stop offset="0" class="b"/><stop offset="0.1333" class="z"/><stop offset="1" class="s"/></linearGradient><path d="M547.2 463.9l-0.1 0.5 -0.9-4.7c0.2-0.5 0.2-1 0.3-1.4 0-0.6 0.1-1.2 0.1-1.8 0-0.5 0-0.9 0-1.2 0-1.1 0-2.1-0.1-2.9 0-0.5-0.1-0.9-0.1-1.1h0.2c0 0.1 0 0.3 0.1 0.5 0.1 0.8 0.2 1.9 0.2 3.3 0 0.4 0 0.8 0 1.2 0 0.8-0.1 1.5-0.2 2.1 -0.1 0.8-0.2 1.2-0.2 1.3L547.2 463.9z" fill="url(#SVGID_46_)"/><linearGradient id="SVGID_47_" gradientUnits="userSpaceOnUse" x1="173.237" y1="59.85" x2="181.962" y2="59.85" gradientTransform="matrix(1.1465 0 0 1.1465 347.7999 393.1505)"><stop offset="0" stop-color="#CCC"/><stop offset="1" class="s"/></linearGradient><polygon points="556.5 463.9 547.2 463.9 546.4 459.6 555 459.6 " fill="url(#SVGID_47_)"/><linearGradient id="SVGID_48_" gradientUnits="userSpaceOnUse" x1="177.95" y1="61.725" x2="177.95" y2="62.075" gradientTransform="matrix(1.1465 0 0 1.1465 347.7999 393.1505)"><stop offset="0" class="b"/><stop offset="0.1333" class="z"/><stop offset="1" class="s"/></linearGradient><polygon points="547.1 464.3 547.2 463.9 556.5 463.9 556.4 464.3 " fill="url(#SVGID_48_)"/><path d="M549.5 462.3c0-0.1-0.1-0.2-0.1-0.2v-0.1c0-0.2 0.2-0.5 0.5-0.7 0.3-0.2 0.7-0.2 1.1-0.2 0.5 0 0.9 0.1 1.3 0.2 0.3 0.2 0.5 0.5 0.5 0.7 0 0.1 0 0.2-0.1 0.2 -0.1 0.2-0.2 0.3-0.5 0.4 -0.3 0.2-0.8 0.2-1.3 0.2 -0.5 0-0.8-0.1-1.1-0.2C549.7 462.6 549.6 462.5 549.5 462.3z"/><linearGradient id="SVGID_49_" gradientUnits="userSpaceOnUse" x1="176" y1="60.324" x2="178.8" y2="60.324" gradientTransform="matrix(1.1465 0 0 1.1465 347.7999 393.1505)"><stop offset="2.352941e-002" class="i"/><stop offset="0.3961" class="j"/><stop offset="1" class="k"/></linearGradient><path d="M549.6 461.7c0 0 0 0.1 0.1 0.2 0.1 0.1 0.2 0.2 0.4 0.3 0.3 0.2 0.7 0.2 1.1 0.2 0.5 0 0.8-0.1 1.1-0.2 0.2-0.1 0.3-0.2 0.4-0.3 0 0 0.1-0.1 0.1-0.2v0.5c0 0.2-0.2 0.4-0.5 0.5 -0.3 0.2-0.7 0.2-1.1 0.2 -0.4 0-0.8-0.1-1.1-0.2 -0.3-0.2-0.5-0.3-0.5-0.6V461.7z" fill="url(#SVGID_49_)"/><radialGradient id="SVGID_50_" cx="177.35" cy="59.65" r="1.5" gradientTransform="matrix(1.1465 0 0 1.1465 347.7999 393.1505)" gradientUnits="userSpaceOnUse"><stop offset="0" class="j"/><stop offset="1" class="k"/></radialGradient><path d="M552.8 461.7c0 0.1 0 0.1-0.1 0.2 -0.1 0.1-0.2 0.2-0.4 0.3 -0.3 0.2-0.7 0.2-1.1 0.2 -0.4 0-0.8-0.1-1.1-0.2 -0.2-0.1-0.3-0.2-0.4-0.3 0-0.1-0.1-0.1-0.1-0.2v-0.1c0-0.2 0.2-0.4 0.5-0.6 0.3-0.1 0.7-0.2 1.1-0.2 0.5 0 0.8 0.1 1.1 0.2C552.6 461.2 552.8 461.4 552.8 461.7z" fill="url(#SVGID_50_)"/><polygon points="550.9 461.7 550.3 461.6 550.4 461.4 551.1 461.4 551.4 461.1 551.7 461.2 551.4 461.5 552 461.6 551.9 461.8 551.2 461.7 551 462.1 550.7 462 "/><path d="M575.6 391c1.3-1.1 2.4-2.4 3.6-3.9 1.1-1.5 1.8-2.4 2.2-2.7M567.1 388.7c-0.3 0.2-1.1 0.9-2.2 2.3 -1.1 1.5-2.6 2.9-4.6 4.5l-0.2 0.2M577.3 385.2c-1 1.1-2.4 3-4.4 5.6 -0.5 0.7-1 1.2-1.5 1.7M565.7 394.3l1.3-1.4c1-0.9 1.8-1.9 2.6-3.1 0.1-0.2 0.2-0.3 0.3-0.4 0.8-1.1 1.4-1.7 1.9-1.8M555.4 397.4l1.5-2.1c0.8-0.9 1.7-1.9 2.6-3.2 0.8-1.3 1.4-2.1 1.8-2.3M585.6 388.9c1.8-1.8 3.1-3.3 3.9-4.5 1-1.4 1.7-2.1 2.2-2.3M580 390.3c1.3-0.8 2.5-1.9 3.6-3.3 1.1-1.4 2.2-2.7 3.4-3.8M580 399.2c0.3-0.3 0.9-0.8 1.6-1.6 0.9-1 1.7-1.9 2.4-2.7 0.6-0.8 1.2-1.4 1.8-1.9 0.3-0.3 0.6-0.6 1-0.7M590.3 387.9c2.1-2.4 4-4.5 5.6-6.2 0.5-0.4 1-0.7 1.6-1M590 397.3c0.1-0.1 0.2-0.1 0.3-0.2 1.5-1.6 3.1-3.3 4.6-5 1-0.9 2-1.5 3.2-1.7M601.2 390.3c-0.4 0.2-1.1 1-2 2.2 -1.1 1.1-2.1 2.1-3 2.9l-1.4 1M602.1 380.4c-0.4 0.2-1.1 0.9-2 2 -0.9 1.4-2.4 2.6-4.4 3.6M600.3 385.9c1.1-0.6 2.1-1.4 3-2.4 1-1.1 2.2-2 3.6-2.8 0.3-0.3 0.7-0.5 1-0.6M606 385.6l1.4-1.1c1-0.7 1.9-1.6 2.9-2.6 1.1-1.2 1.9-1.8 2.5-1.8M607 389.7c-0.3 0.1-0.9 0.5-1.5 1 -0.7 0.5-1.6 1.4-2.6 2.6 -1 1.3-2.2 2.2-3.5 2.7M605 395.2l1.4-1.3c1-0.8 2-1.7 2.9-2.8 1.1-1.2 1.9-1.9 2.5-1.9M619.2 380.9c-2.4 0.4-4.5 1.5-6.3 3.3 -0.7 0.7-1.5 1.2-2.3 1.5M621.9 390.6c-0.4 0.1-1.2 0.6-2.2 1.3 -1.1 0.8-2.4 1.5-3.8 2.2l-1.6 0.6M619.6 386.6c0.8-0.2 1.7-0.6 2.9-1.4 2.1-1.1 3.3-1.7 3.6-1.8 0.3-0.2 0.8-0.3 1.3-0.6 0.5-0.3 0.9-0.4 1.3-0.5M622.8 381.5c-0.2 0.1-1.1 0.6-2.7 1.7 -1.5 1-3.2 1.8-5 2.5M639.6 386.2c-2.4-1-4.4-1-6 0.1 -1.7 1.2-3.4 1.8-5.2 1.9M640.7 386.8c-0.4 0-1.3 0.4-2.6 1 -0.1 0-0.2 0.1-0.3 0.1 -2.1 1-3.8 1.4-5 1.3M618.6 395.6c1.4-0.5 3.3-1.4 5.7-2.9 0.7-0.4 1.4-0.7 2.2-1 0.4-0.2 0.8-0.3 1.2-0.3M625.3 387.2c2.3-1 4.2-1.9 5.5-2.6 1.3-0.8 2.2-1.2 2.7-1.4M636.5 391c3.9-1.1 6.6-1.8 8.1-1.9 0.4-0.1 0.8-0.2 1.1-0.1M641.7 392.9h0.3c2.1-0.7 4.1-1.1 6-1 1.9 0 3.3 0.3 4.2 0.9M654.4 400.7c-0.2-0.2-1-0.6-2.2-1.1 -0.5-0.2-1-0.4-1.4-0.6 -0.5-0.2-1-0.4-1.4-0.6 -0.2-0.1-0.4-0.2-0.5-0.2l-2.8-1.3M643.7 394.1c2.6 0.3 5.1 0.7 7.6 1.3 1.6 0.4 2.6 1.2 3 2.6M656.4 405.1c-0.3-0.3-0.6-0.5-0.9-0.7 -0.4-0.3-0.8-0.5-1.1-0.7 -0.2-0.1-0.4-0.2-0.5-0.3 -1.6-2.1-3.1-3.2-4.7-3.5M647.1 403.2c0 0.2-0.1 0.3-0.1 0.5 -0.1 1.8-0.3 3.2-0.6 4.5l-0.3 1.6c0.4-0.1 0.8-0.2 1.1-0.4 0.2-0.2 0.5-0.4 0.8-0.6 0.7-0.7 1.2-1.8 1.5-3.3 0-0.3 0-0.6 0.1-0.9l1.8 0.8c0.3 0.1 0.5 0.2 0.8 0.3 0.1 0 0.2 0.1 0.2 0.1 1 0.4 1.7 0.8 2.3 1s1 0.4 1.1 0.5c0.4 0.2 1.1 0.6 2.2 1.3M649.6 405.5c0 0.8 0.2 1.5 0.5 2 -0.1 0.2-0.2 0.4-0.3 0.6 -0.2 0.3-0.3 0.6-0.5 1 -0.5 1.4-0.7 2.9-0.8 4.5 0 0.3 0.1 0.5 0.1 0.7 0.6 0.2 1 0.5 1.2 1 0.1 0 0.1 0 0.2 0.1 0.2 0 0.3 0 0.5 0.1 0.2-0.4 0.4-0.8 0.6-1.2l0.3-1.8c0.3-1.1 0.5-2.3 0.7-3.6 0.1 0 0.2 0 0.2 0.1 0.6 0.2 1.2 0.5 1.8 0.9 1.7 1 3.8 2.7 6.2 5.2M650.4 415.5c1.3 0.1 2.3 1.1 2.9 2.8 0.1 0.3 0.2 0.6 0.3 0.9 -1-0.8-2.4-1-4-0.3 1.1 0.5 2.2 1.1 3.2 1.8l1.6 1c-0.1-1.2-0.4-2.3-1-3.2 0.1-0.8 0.3-1.5 0.6-2.2 -0.4-1.6-0.2-3.2 0.6-4.6 -0.1-0.3-0.2-0.6-0.3-0.9 -0.5 2.1-1.6 3.4-3.3 3.7M654.3 410.6c-0.1-0.3-0.2-0.5-0.2-0.7M654 416.2c0 0.1 0.3 0.5 0.7 1.4 0.4 0.8 0.9 1.7 1.6 2.6 0.6 0.9 1.5 2.5 2.4 4.8M649.8 415.4C649.8 415.4 649.8 415.4 649.8 415.4c0.1 0.1 0.1 0.1 0.2 0.1M659.3 419.2c-0.2-0.5-0.7-1.4-1.6-2.5 -0.8-1.2-1.5-2.4-2.1-3.5l-0.9-1.7M640.8 402l1.4-0.3c1.4-0.4 2.7-0.8 4-1.3 0.3-0.1 0.5-0.2 0.8-0.3 0.2-0.1 0.5-0.2 0.7-0.2M639.8 395.9c-0.4 0.1-0.9 0.3-1.7 0.7 -0.8 0.4-1.6 0.7-2.5 1.1 -0.9 0.3-2.2 0.5-3.7 0.6M644.9 398c-0.3 0-0.7 0-1.1 0.1 -0.6 0.1-1.8 0.5-3.5 1.1 -1.8 0.7-3.3 1-4.6 0.9M642.9 413c0.1-0.3 0.2-0.9 0.3-1.8 0.3-2.4 0.6-4.3 0.9-5.6 0.2-0.9 0.3-1.5 0.5-1.9M627 397.2c1.6-0.8 3.9-1.6 6.9-2.5 1.3-0.4 2.6-0.3 3.8 0.1M647.3 409.4c-0.5 0.4-0.8 1-1.1 1.6 -0.1 0.4-0.2 1.4-0.2 2.9 0 0.2 0 0.4-0.1 0.5 -0.4 0.1-0.9 0.2-1.4 0.3 -0.3 0.2-0.7 0.4-1.1 0.6 -0.1 0-0.2 0.1-0.3 0.1 -0.7 0.3-1.6 0.5-2.7 0.8 -0.5 0.1-0.9 0.2-1.3 0.3 -0.8 0.2-1.4 0.4-1.9 0.6 -0.8 0.3-1.4 0.6-1.9 0.9M637.4 413.4c0.1-0.8 0.2-1.7 0.2-2.6 0.1-0.5 0.2-0.9 0.3-1.3M628 417.6c0.7-0.1 1.5-0.4 2.4-0.9 0.9-0.5 1.8-1 2.6-1.4 1.6-0.8 3.1-1.3 4.3-1.4 0.3 0 0.6-0.1 0.9-0.1 0.6 0 1.3 0 1.8 0 0-0.3 0.1-0.7 0.1-1.1 0.2-1.7 0.3-3.1 0.3-4.2 0.1-1.1 0.2-1.9 0.5-2.3M631.6 412.2c-0.2 0-0.3 0.1-0.5 0.1 -0.8 0.3-2.4 1.2-4.8 2.8 -1.2 0.8-2.4 1.4-3.4 1.8M640 413.8c0.8 0 1.5 0 2.2 0.1 0.4 0 0.7 0.1 1.1 0.2 0.5-1.6 1.5-2.6 2.9-3.2M639.4 418.9c1-0.2 2.2-0.5 3.5-1l7-2.5M643.3 414.2c0.5 0.1 0.9 0.3 1.2 0.5M622.4 443.9c1.6 1 3 1.6 4.4 1.9 2.2 0.5 3.6 1.3 4.1 2.3M648.7 421.4c0.2 0.1 1.2 0.5 2.9 1.3 1.5 0.7 2.9 1.6 4.3 2.8 0.4 0.3 0.8 0.7 1.3 1.1 0.5 0.6 1 1.4 1.4 2.4M657.9 439.8c-0.1-2.6-1-4.7-2.6-6.5 -0.8-0.6-1.4-1.2-1.9-1.8M651.1 426.7c4.1 1.3 7 3.6 8.6 6.6M652.1 439.4c0.2 1.1 0.4 2.1 0.7 2.9 0.3 0.8 0.9 1.9 1.5 3.3 0.7 1.4 1.1 2.4 1.3 2.9 0 0.1 0.1 0.2 0.1 0.3M650.8 444.9c0.2 0.5 0.6 1.4 1.3 2.6 0.6 1.3 1.2 2.6 1.7 3.7l0.7 1.8M653.1 434.8c0.1 0.6 0.4 1.5 1 2.7 0.7 1.3 1.3 2.5 1.7 3.7l0.6 1.8M649.7 418.8c-0.6 0.2-1.3 0.6-2.1 1M648.1 408.7c0.5-0.3 1.1-0.5 1.7-0.6M649.2 455.2c0.1 0.6 0.4 1.5 1.1 2.8 0.7 1.3 1.3 2.5 1.7 3.7l0.6 1.8M653.7 458.4c-0.9-1.9-1.9-4.1-3-6.4 -0.4-0.8-0.6-1.5-0.7-2.4M651.6 468.8c-0.9-1.7-1.6-3.4-2.3-5 -0.6-1.6-1.1-2.9-1.2-4M625.1 448.6l1.6 0.9c2.3 1.1 3.9 1.8 4.8 2 0.3 0.1 0.7 0.2 1 0.3 0.3 0.2 0.6 0.3 0.8 0.6M634.7 459.1c-0.3-0.4-1.1-1.1-2.1-1.9 -1.1-1-2.1-2-2.9-2.9l-0.2-0.2c-0.4-0.2-0.8-0.4-1.2-0.6M634.5 456.7c-0.7-0.8-1.9-1.5-3.6-2.1 -0.6-0.2-1.1-0.3-1.5-0.6M628.9 457.5c0.1 0.1 0.2 0.2 0.2 0.2 0.8 1 1.9 2 3.2 3 1.2 1 2.3 2.4 3.3 4.1 0.6 0.9 0.9 2 0.9 3.2 -0.2-0.2-0.5-0.4-0.7-0.6 -1.8-1.3-3.8-2.9-6.2-4.9M627.3 470c1.1 0.5 2.4 0.8 4.1 1 1 0.1 2 0.3 3 0.6 0.5 0.1 1 0.2 1.4 0.4l1.3 0.6 0.9 1M633 468c-0.4 0-1.1 0-2.1-0.1 -0.6-0.1-1.5-0.2-2.4-0.3 -2.3-0.4-3.7-0.7-4.2-0.9 -0.6-0.2-0.9-0.4-1-0.5M639.1 481.1c-2-3-4-4.7-6-5.3 -0.3-0.1-0.7-0.2-1-0.3M646.9 465.5c0.4 1.9 0.9 3.5 1.5 4.8 0.6 1.2 1.4 2.4 2.2 3.4M650.9 479c-0.5-1-1.2-2-2.1-2.9 -1.3-1.3-2.4-2.9-3.3-4.7M619.9 463.1c0.5-0.1 1.5-0.1 3 0.1 1.5 0.2 2.8 0.3 4 0.6l1.9 0.5M633.6 482.3c2.4 2.8 4.3 5 5.9 6.5 0.5 0.5 0.9 1.1 1.1 1.8M651.6 489.5c-0.9-1.5-1.9-2.8-3-3.9 -1.1-1.1-1.9-2.3-2.5-3.7M646.2 487.4c0.3 0.5 0.9 1.3 1.9 2.3 1 1.1 1.9 2.1 2.6 3.1l1.1 1.5M639.6 485.3c-0.2-0.5-0.9-1.3-2.1-2.3 -1.1-0.9-2.1-1.9-3-2.8l-1.1-1.3M640.3 496.5c-0.3-0.5-0.9-1.2-1.8-2.3 -1-1.2-1.8-2.3-2.4-3.3l-1-1.4M640.3 507c-0.2-0.6-0.7-1.4-1.7-2.6 -1-1.1-1.8-2.1-2.5-3.2l-1-1.7M640.9 510.4c-0.3-0.3-0.7-0.6-1.1-0.7 -0.8-0.4-1.6-1-2.3-1.7 -0.1-0.1-0.1-0.1-0.2-0.2 -0.3-0.4-0.6-0.7-0.9-1.1 -0.1-0.1-0.2-0.2-0.2-0.3 -0.4-0.6-0.7-1.2-1-1.8M635.1 494.2c0.1 0.2 0.5 0.7 1.1 1.5 0.6 0.9 1.4 2 2.4 3.5 1 1.4 1.5 2.2 1.5 2.4 0.1 0.2 0.2 0.3 0.2 0.6M652.2 499.5c-1.5-2.1-3-4-4.6-5.8 -0.3-0.3-0.5-0.6-0.6-0.9M647.4 498c0.1 0.6 0.5 1.5 1.3 2.9 0.7 1.3 1.4 2.6 1.9 3.8l0.7 1.8M646.8 503c0.1 0.3 0.2 0.7 0.3 1 0.5 1.6 1 3 1.6 4 0.5 1 0.9 1.7 1.1 2 0.2 0.3 0.4 0.7 0.5 1 0.2 0.3 0.3 0.6 0.4 1.1M645.8 477.1c0.3 0.5 0.8 1.3 1.7 2.2 1 1 1.9 2.1 2.6 3.2l1.1 1.6M632.5 392.2c-0.6 0-1.6 0.4-2.9 1.3 -1.2 0.8-2.4 1.4-3.6 1.9l-1.7 0.9M617.7 389.9c-2.1 0.4-4.1 1.6-5.8 3.5 -0.5 0.5-1.1 1-1.8 1.4M611.3 412.5c-2.4 1.6-4.5 3.2-6.4 4.9 -0.8 0.7-1.7 1.2-2.7 1.4M598.2 418.2c0.5-0.3 1.2-0.9 2.2-1.9 1.2-0.9 2.3-1.7 3.3-2.4l1.6-1M607.9 418.5c0.5-0.2 1.3-0.9 2.4-2.1 1-1 1.9-1.9 2.9-2.7l1.5-1.2M620.4 411.7l-3 2.9c-1.2 1.1-2.7 2.2-4.6 3.3M618.5 417.3c0.4-0.1 1-0.3 1.7-0.8 0.7-0.5 1.5-1.2 2.4-2.2 0.9-1 1.7-2.1 2.5-3.1M591.4 391.2c-0.5 0.2-1.3 0.9-2.2 2.2 -0.8 1.2-1.7 2.2-2.6 3.1l-1.3 1.4M587.5 418.1c0.6-0.1 1.5-0.7 2.7-1.8 1.1-0.9 2.2-1.7 3.3-2.4l1.6-1M578.1 416.7c0.5-0.2 1.6-0.7 3.2-1.6l4.7-2.3M591.8 412.5c-2.7 1.6-5.1 3.1-7.2 4.5 -0.9 0.6-1.8 0.9-2.8 1M581.5 411.8l-0.3 0.1c-1.8 0.5-3.4 1.3-4.8 2.2 -1.4 0.9-2.8 1.4-4.1 1.7M600.5 412.9c-1.8 1.1-2.8 1.8-3.2 2.1 -0.4 0.3-1.1 0.8-1.9 1.5 -0.8 0.6-1.9 1.2-3.1 1.7M596.8 427.7c0.8-0.4 1.9-1.3 3.2-2.9 0.4-0.5 1.1-1.1 2.1-1.9l1.4-1.1M593.3 422.6l-1.5 1.1c-1 0.8-2 1.7-3 2.7 -1.1 1.1-1.9 1.8-2.5 1.9M598.9 421.9c-1.8 1.1-3.2 2.2-4.4 3.4 -1.1 1.2-2.3 2-3.6 2.6M608.3 423.1c-1.5 0-3 0.6-4.4 1.7 -1.4 1.3-2.8 2.3-4.2 2.9 -0.2 0.1-0.4 0.1-0.5 0.2M580.6 428.7c1.8-1 3.4-2.1 4.8-3.4 1.5-1.6 3.1-2.6 4.8-2.9M611.4 432h0.3c1.1 0.2 2.7 0.1 4.9-0.3 1.5-0.3 2.5-0.4 3.2-0.4s1.3 0.1 1.7 0.2M615.5 434.3c1.8 0.2 3.6 0.2 5.6 0.1 1.9-0.2 3.7 0.2 5.3 1.2M606.6 429.3c1.6-0.5 3.1-1 4.6-1.7s3.2-0.7 5-0.2M617.3 428.9c-0.5 0-1.5 0.1-3 0.5 -1.6 0.5-3.5 0.7-5.8 0.5M603.5 427.7l3.8-1.6c1.1-0.5 2.1-0.8 3-1 0 0 0.1 0 0.1 0 1.3-0.2 2.4-0.1 3.4 0.4M627.4 439.3c-1.6-1-3.1-1.6-4.5-1.7 -1.4-0.2-3-0.2-4.9 0M628.1 443c-0.4-0.3-1.3-0.6-2.7-1 -1.3-0.5-2.6-1-3.7-1.5l-1.5-0.7M581 393.5c-0.3 0.3-0.9 0.9-1.6 2 -0.8 1-1.8 2.3-3.2 3.7l-1 1M570 401.7c0.7-2 2-3.9 3.8-5.6 0.7-0.5 1.4-1 2.1-1.3M569.8 396.6c-0.6 0.2-1.3 0.9-2.2 2.2 -0.9 1.3-2.2 2.8-3.9 4.6M559.3 399c-0.3 0.3-0.8 0.9-1.3 1.8 -0.5 0.9-1.6 2.1-3.2 3.7l-1.3 1.2c-1 0.8-2.2 1.5-3.6 2.3 -0.7 0.4-1.5 0.8-2.3 1.2 1.4-1.3 2.5-3.1 3.4-5.3 0.6-1.4 1.3-2.4 2.1-3M565 397.8c-1 0.8-1.7 1.5-2.2 2.1 -0.5 0.6-1.3 1.5-2.4 2.8 -1 1.1-1.6 1.8-2.1 2M558.6 412.5c0.3-0.1 0.9-0.3 1.5-0.6 0.4-0.2 0.8-0.4 1.3-0.6 0.5-0.2 1-0.4 1.4-0.5h0.1c0.9-0.3 1.8-0.6 2.6-0.9l1.8-0.3M573 410.1c-1.1 0.4-2.2 0.8-3.1 1.2 -2.6 1-4.5 1.8-5.7 2.5 -0.5 0.3-0.9 0.4-1.4 0.5M560.7 420.9l-0.3 0.1c-1.3 0.5-2.7 1.1-4 2 -1.3 0.9-2.9 1.5-4.8 1.9M564.7 407.8c-2.4-0.5-4.9-0.2-7.7 1.1 -0.7 0.4-1.3 0.7-1.7 0.9 -0.8 0.3-1.4 0.5-1.7 0.6M567.6 414.9c0.5 0 1.3-0.3 2.3-0.9 0.2-0.1 0.4-0.2 0.6-0.3 1.2-0.7 2.4-1.4 3.6-1.9l1.7-0.7M554.2 392.7c-0.7 1.7-1.2 3.2-1.6 4.5 -0.3 1.3-0.8 2.3-1.5 3M544.4 409.8c1.2-1.1 1.9-2.6 2.2-4.2 0.2-1.7 0.4-2.6 0.5-2.8M547 401.7c1.2-2.1 2.1-3.8 2.6-5.2 0.3-0.8 0.6-1.5 0.8-1.9M541.4 397.8c-0.2 0.2-0.3 0.6-0.5 1.2 0 0.2-0.1 0.3-0.2 0.6 -0.3 1-0.4 1.4-0.5 1.4 -0.1 0.4-0.2 0.8-0.3 1.1 -0.4 1.2-0.9 2.1-1.5 2.6 -0.5 0.6-1.1 1.1-1.8 1.4 0 0 0 0.1 0.1 0.2 -0.6 0.5-1 1.5-1 2.9 -0.1 1.3 0.1 2.2 0.5 2.8 0.5 0 1-0.1 1.5-0.1 -0.1-0.3-0.1-0.7-0.2-1.1 0-0.3 0-0.7 0-1 0 0 0-0.1 0-0.1 0 0 0-0.1 0.1-0.1 0-0.3 0-0.5 0.1-0.7 0.2-1.6 0.6-2.6 1.1-3M536.6 406.2c-0.8 0.3-1.6 0.5-2.6 0.5M542.9 404.3c-0.2 0.2-0.4 0.6-0.6 1.1l-0.1 0.1c-0.2 0.5-0.4 1.4-0.6 2.6 -0.3 1.6-0.9 2.9-1.9 3.8h-0.1c0 0-0.1 0-0.2 0 -0.7 0.1-1.3 0.1-1.9 0.2M546.2 396.1c-0.1 0.4-0.7 1.7-1.8 4 0 0.1-0.1 0.2-0.1 0.2 -1 2.1-1.6 3.2-1.8 3.2M536.1 412.1c-0.2 0-0.3 0-0.5 0h-0.1c-1 0-2.3-0.2-3.8-0.6M533.2 406.3c0.2 0.6 0.6 1.6 1.2 2.8 0.4 1.1 0.8 2.1 1.1 3.1M535.3 416.9c0.4 0 0.9-0.1 1.5-0.2 0.7-0.2 1.4-0.3 2.2-0.5 1.6-0.4 2.8-0.5 3.8-0.4l1.3 0.1M539.7 419.7c1.1-0.2 2.3-0.6 3.7-1.1 1.3-0.6 2.9-0.8 4.7-0.8M546.8 424.1c0.6 0 1.5-0.5 2.9-1.3 1.2-0.7 2.4-1.4 3.6-1.9l1.7-0.7M551.9 419.2c-1.6 0-3.4 0.5-5.2 1.7 -1.5 0.9-3 1.4-4.5 1.5M571.2 427.6c1.1-0.4 2.4-1.1 3.8-2.2 1.6-1.2 3.2-2.2 4.8-2.9M573.9 422.6l-1.5 0.9c-0.8 0.5-1.7 1.1-2.5 1.7 -0.3 0.2-0.5 0.4-0.7 0.6 -1.2 1-2.1 1.6-2.6 1.7M560.8 427.3c1.9-0.8 3.6-1.8 5-2.9 1.4-1.1 2.7-1.8 4-2.2 0.4-0.1 0.8-0.1 1.1-0.2M556.7 426.3c2.7-2.1 5.5-3.6 8.5-4.4M574 452c-0.2 0.1-1.5 1-4.1 2.6 -0.3 0.1-0.5 0.3-0.8 0.5 -1.3 0.8-2.2 1.3-2.8 1.6 -0.2 0.1-0.4 0.2-0.6 0.2M571.5 457.2c0.5-0.3 1.2-0.8 2.3-1.7 1.3-0.9 2.4-1.7 3.4-2.3l1.6-0.9M568.7 451.9l-1.7 1c-1.1 0.6-2.2 1.3-3.4 2.2 -1.1 0.8-1.9 1.4-2.5 1.5M555.9 456.7l8.3-5M615.3 461.1c2.4-0.9 4.5-1.3 6.1-1.1 2.2 0.2 4 0.7 5.3 1.8M611.8 459.9c0.6-0.2 1.8-0.8 3.7-1.8 1.9-1.1 4.1-1.5 6.5-1.4M601.4 458.2c0.6-0.1 1.5-0.5 2.8-1.3 1.3-0.7 2.5-1.4 3.6-1.9l1.8-0.7M615.3 454.9c-0.6 0.4-2.2 1.2-5 2.4 -0.4 0.2-0.8 0.3-1.2 0.5 -0.5 0.2-1 0.4-1.3 0.5 -0.8 0.3-1.4 0.5-1.5 0.5M593.2 457.3c0.5-0.2 1.5-0.7 2.8-1.5 1.3-0.8 2.3-1.7 3.2-2.5l1.2-1.2M608.1 453.6c-2.1-0.6-4.4-0.1-6.9 1.4 -1.4 0.9-3.2 1.8-5.5 2.8M587 451.9c-1.7 0.2-3.4 1-5.1 2.5 -1.3 1.1-2.9 2.2-4.9 3.2M595.4 452.1c-2.2 1.8-3.6 2.9-4.2 3.4 -0.6 0.4-1.3 0.8-1.8 1.1 -0.6 0.3-1.3 0.6-1.9 0.7M582.7 457.3c0.5-0.2 1.4-0.7 2.5-1.7 1.1-1 2.2-1.8 3.3-2.4l1.7-1M577 427.9c4-2 6.4-3.7 7.3-5M640 521.1l1.5 1.3c0.9 0.7 1.9 1.5 3.2 2.2 0.3 0.2 0.7 0.4 1 0.6 0-0.1 0-0.2 0-0.3 0.1 0.2 0.3 0.4 0.5 0.6 0.1 0.1 0.2 0.2 0.3 0.4 0.5 0.8 1.3 1.9 2.5 3.3 0 0 0.1 0.1 0.1 0.2 1.2 1.5 2.3 2.6 3.3 3.4l0.1 0.1c0 0 0.1 0.1 0.1 0.2 0.3-2-0.1-3.9-1.3-5.7l-1.3-1.6c-0.9-1.1-1.9-2.1-3-3.2 -0.5-0.5-0.9-0.9-1.2-1.2 -0.5-0.5-0.8-1-0.9-1.3M644.9 513.6c0 0.1 0.1 0.2 0.1 0.4 0.7 2.6 2.1 4.8 4 6.5 0.3 0.3 0.7 0.6 1 1M644.1 516.5c-0.8-0.8-1.9-1.6-3.5-2.5s-3-1.7-4.2-2.4M646 508.5c0.1 0.6 0.6 1.5 1.3 2.8 0.8 1.3 1.4 2.6 1.9 3.8l0.8 1.8M644.7 520.8c-0.7-0.7-1.5-1.3-2.3-1.7 -1.3-0.7-2.7-1.6-4.3-2.9M646 528.9c-0.4-0.3-0.8-0.5-1.2-0.7 -1.6-0.8-2.8-1.8-3.6-3M656.5 548.1l-1.5-1.6c-1-1.1-2.1-2.1-3.4-3.2 -1.3-1.1-2.1-1.9-2.4-2.4 -1.2-1.6-1.7-3.5-1.6-5.7 0 0.1 0.1 0.2 0.2 0.2 -0.8-1.4-1.1-3-1-4.8 0.3 0.5 1.1 1.3 2.2 2.4 1.1 1.1 2.2 2.2 3.1 3.2l1.4 1.5c0.3-1.6 0-3.2-0.9-4.7M653.4 537.6c1 1.6 1.5 3.3 1.3 4.9 -0.7-0.8-1.5-1.7-2.5-2.5 -1.5-1.3-3-2.8-4.4-4.6M650.7 545.7c0.2 0.3 0.5 0.7 0.8 1 1.2 1.5 2.5 2.8 3.8 3.8 0.3 0.3 0.6 0.5 0.9 0.8 0.5 0.5 0.9 1 1.4 1.5 0.2 0.2 0.4 0.5 0.5 0.7M652.3 551.5c0.4 0.5 1.2 1.3 2.4 2.4 1.3 1.1 2.4 2.1 3.4 3.1l1.5 1.5c1.3 1.8 1.8 3.6 1.7 5.4 0 0 0 0.1 0 0.1 -2-2.2-4-4.3-6.1-6.1 -0.7-0.6-1.2-1.2-1.6-1.9M658.3 571.8c0.4 0.5 1.2 1.3 2.4 2.4 1.2 1 2.2 2 3.2 2.9 0 0 0.1 0.1 0.1 0.1 0 0 0.1 0.1 0.1 0.1l1.5 1.5M655.2 561.2c0.3 0.5 1.1 1.4 2.4 2.5 1.3 1.1 2.4 2.1 3.3 3.2l1.5 1.5c1.3 1.8 1.9 3.7 1.8 5.7 -0.1-0.1-0.1-0.1-0.2-0.2l-0.1-0.1c-0.2-0.3-0.3-0.5-0.5-0.7 -0.5-0.5-1-1-1.4-1.5 -0.3-0.3-0.6-0.5-0.9-0.8 -1.3-1.1-2.6-2.3-3.8-3.8 -0.3-0.3-0.6-0.7-0.8-1" style="fill:none;stroke-linejoin:round;stroke-opacity:0.498;stroke:#363636"/></svg>