<?xml version="1.0" encoding="UTF-8" standalone="no"?>
<!-- Generator: Adobe Illustrator 16.0.0, SVG Export Plug-In . SVG Version: 6.00 Build 0)  -->
<!DOCTYPE svg  PUBLIC '-//W3C//DTD SVG 1.1//EN'  'http://www.w3.org/Graphics/SVG/1.1/DTD/svg11.dtd'>
<svg id="Layer_1" xmlns="http://www.w3.org/2000/svg" xml:space="preserve" height="700px" viewBox="0 0 700 700" width="700px" version="1.1" y="0px" x="0px" xmlns:xlink="http://www.w3.org/1999/xlink" enable-background="new 0 0 700 700">
						<radialGradient id="SVGID_1_" gradientUnits="userSpaceOnUse" cy="651.05" cx="-24.655" gradientTransform="matrix(1.0975 -.3316 -.2788 -1.1973 798.97 1279.1)" r="4.8837">
						<stop stop-opacity=".8" offset="0"/>
						<stop stop-opacity=".502" offset=".6627"/>
						<stop stop-opacity="0" offset="1"/>
					</radialGradient>
					<path d="m594 503.3c1 1.2 1.5 2.601 1.5 4.4 0.1 1.8-0.4 3.2-1.3 4.399-1 1.301-2.2 1.9-3.601 1.9-1.399 0-2.6-0.5-3.6-1.7s-1.6-2.7-1.6-4.399c0-1.801 0.5-3.2 1.399-4.5 1-1.301 2.2-1.9 3.601-1.9 1.3 0 2.5 0.6 3.6 1.8z" fill="url(#SVGID_1_)"/>
						<linearGradient id="SVGID_2_" y2="691.68" gradientUnits="userSpaceOnUse" x2="19.712" gradientTransform="matrix(1.1465 0 0 -1.1465 572.04 1297.8)" y1="690.34" x1="12.283">
						<stop stop-color="#696971" offset="0"/>
						<stop stop-color="#B0B0B5" offset=".1725"/>
						<stop stop-color="#888891" offset=".4784"/>
						<stop stop-color="#787880" offset=".6745"/>
						<stop stop-color="#F2F2F2" offset=".8667"/>
						<stop stop-color="#6B6B6F" offset="1"/>
						<stop stop-color="#3B3B40" offset="1"/>
						<stop stop-color="#6B6B6F" offset="1"/>
					</linearGradient>
					<path d="m590.6 501.2c1.2 0 2.2 0.399 3 1.3 0.4 0.4 0.7 0.8 1 1.2 0.101 0.2 0.101 0.3 0.101 0.5 0.1 0.3 0.2 0.5 0.3 0.7 0 0.199 0.1 0.399 0.1 0.6v0.1c0 1.101-0.5 2.101-1.399 3-0.8 0.801-1.9 1.2-3 1.2-1.101 0-2.2-0.399-3-1.2-0.8-0.8-1.3-1.899-1.3-3.1v-0.2-0.1c0.1-0.4 0.199-0.7 0.199-1 0.2-0.601 0.601-1.2 1-1.7 0.801-0.8 1.801-1.3 2.9-1.3h0.1zm-3.2 4.3c0 0.1 0 0.2 0.1 0.3 0 0.7 0.3 1.4 0.8 2 0.7 0.601 1.5 0.9 2.3 0.9 0.9 0 1.7-0.3 2.4-0.9 0.5-0.6 0.8-1.3 0.9-2.2v-0.199c0-0.801-0.301-1.601-0.9-2.301-0.7-0.6-1.5-0.899-2.4-0.899-0.8 0-1.6 0.3-2.3 0.899-0.6 0.7-0.9 1.5-0.9 2.4z" fill="url(#SVGID_2_)"/>
								<linearGradient id="SVGID_3_" y2="686.26" gradientUnits="userSpaceOnUse" x2="16.319" gradientTransform="matrix(1.1465 0 0 -1.1465 572.04 1297.8)" y1="693.83" x1="16.319">
								<stop stop-color="#575350" offset="0"/>
								<stop stop-color="#54504D" offset=".3961"/>
								<stop stop-color="#353231" offset="1"/>
							</linearGradient>
							<path d="m590.7 502.3c1.2 0 2.2 0.4 3 1.3 0.399 0.4 0.7 0.801 0.899 1.301 0.101 0.199 0.101 0.3 0.101 0.399 0.2 0.3 0.2 0.601 0.3 0.9 0 0.2 0.1 0.399 0.1 0.6v0.101c0 1.1-0.5 2.1-1.399 3-0.8 0.8-1.8 1.3-3 1.3s-2.2-0.4-3-1.3c-0.8-0.9-1.3-1.9-1.3-3v-0.3c0-0.3 0.1-0.699 0.199-1.1 0.2-0.6 0.601-1.2 1.101-1.7 0.8-0.8 1.8-1.2 2.899-1.3l0.1-0.2zm-2.2 2c-0.6 0.601-1 1.4-1 2.3 0 0.101 0.1 0.2 0.2 0.301 0 0.8 0.3 1.399 0.8 2 0.7 0.6 1.4 0.899 2.3 0.899 0.8 0 1.601-0.3 2.3-0.899 0.5-0.601 0.801-1.301 0.9-2.101v-0.2c0-0.899-0.3-1.6-0.9-2.3-0.699-0.6-1.5-0.899-2.3-0.899-0.9 0-1.7 0.3-2.3 0.9z" fill="url(#SVGID_3_)"/>
								<radialGradient id="SVGID_4_" gradientUnits="userSpaceOnUse" cy="690.04" cx="16.312" gradientTransform="matrix(1.1465 0 0 -1.1465 572.04 1297.8)" r="2.9375">
								<stop offset="0"/>
								<stop stop-color="#2F1A17" offset="1"/>
							</radialGradient>
							<path d="m588.6 504.4c-0.6 0.6-0.899 1.199-0.899 2 0 0.1 0 0.199 0.1 0.3 0 0.7 0.3 1.2 0.8 1.8 0.601 0.5 1.2 0.8 1.9 0.8 0.8 0 1.5-0.3 2.1-0.8 0.5-0.5 0.801-1.2 0.801-1.9v-0.2c0-0.801-0.301-1.4-0.801-2-0.6-0.601-1.3-0.9-2.1-0.9-0.7 0.1-1.3 0.3-1.9 0.9zm-0.1-0.1c0.7-0.6 1.4-0.899 2.3-0.899 0.8 0 1.601 0.3 2.3 0.899 0.601 0.601 0.9 1.4 0.9 2.3v0.2c-0.1 0.8-0.4 1.5-0.9 2.101-0.699 0.6-1.5 0.899-2.3 0.899-0.899 0-1.6-0.3-2.3-0.899-0.5-0.601-0.8-1.2-0.8-2-0.101-0.101-0.2-0.2-0.2-0.301 0-0.9 0.3-1.6 1-2.3z" fill="url(#SVGID_4_)"/>
								<radialGradient id="SVGID_5_" gradientUnits="userSpaceOnUse" cy="690.04" cx="16.312" gradientTransform="matrix(1.1465 0 0 -1.1465 572.04 1297.8)" r="2.9375">
								<stop stop-color="#461F18" offset="0"/>
								<stop stop-color="#2F1A17" offset="1"/>
							</radialGradient>
							<path d="m588.6 504.4c0.601-0.601 1.2-0.9 1.9-0.9 0.8 0 1.5 0.3 2.1 0.9 0.5 0.6 0.801 1.199 0.801 2v0.199c0 0.7-0.301 1.4-0.801 1.9-0.6 0.5-1.3 0.8-2.1 0.8-0.7 0-1.4-0.3-1.9-0.8s-0.8-1.1-0.8-1.8c0-0.101-0.1-0.2-0.1-0.3 0.1-0.7 0.4-1.4 0.9-2z" fill="url(#SVGID_5_)"/>
							<radialGradient id="SVGID_6_" gradientUnits="userSpaceOnUse" cy="589.54" cx="25.869" gradientTransform="matrix(1.135 .1622 .0659 -.4612 523 770)" r="2.2364">
							<stop stop-color="#fff" offset="0"/>
							<stop stop-color="#fff" offset=".1765"/>
							<stop stop-color="#fff" stop-opacity=".4235" offset=".3059"/>
							<stop stop-color="#fff" stop-opacity=".2314" offset=".4902"/>
							<stop stop-color="#fff" stop-opacity=".0824" offset=".651"/>
							<stop stop-color="#fff" stop-opacity="0" offset="1"/>
						</radialGradient>
						<path d="m591.1 503.3c-0.699-0.1-1.199-0.3-1.699-0.6s-0.7-0.601-0.601-0.9c0-0.3 0.3-0.399 0.8-0.5 0.5-0.2 1.101-0.2 1.801-0.1 0.6 0.1 1.199 0.2 1.699 0.5s0.7 0.6 0.7 0.899c0 0.301-0.3 0.4-0.8 0.5-0.7 0.3-1.3 0.3-1.9 0.2z" fill="url(#SVGID_6_)"/>
								<radialGradient id="SVGID_7_" gradientUnits="userSpaceOnUse" cy="691.09" cx="16.512" gradientTransform="matrix(1.1465 0 0 -1.1465 572.04 1297.8)" r="2.2">
								<stop stop-color="#fff" offset="0"/>
								<stop stop-color="#fff" offset=".1765"/>
								<stop stop-color="#fff" stop-opacity=".4235" offset=".3059"/>
								<stop stop-color="#fff" stop-opacity=".2314" offset=".4902"/>
								<stop stop-color="#fff" stop-opacity=".0824" offset=".651"/>
								<stop stop-color="#fff" stop-opacity="0" offset="1"/>
							</radialGradient>
							<path d="m591 503c0.6 0 1.2 0.3 1.7 0.8s0.8 1.101 0.8 1.7c0 0.8-0.3 1.4-0.8 1.8-0.5 0.5-1.101 0.7-1.7 0.7-0.7 0-1.3-0.2-1.7-0.7-0.5-0.399-0.7-1-0.7-1.8 0-0.6 0.2-1.2 0.7-1.7 0.4-0.5 1-0.8 1.7-0.8z" fill="url(#SVGID_7_)"/>
								<radialGradient id="SVGID_8_" gradientUnits="userSpaceOnUse" cy="689.84" cx="14.461" gradientTransform="matrix(1.1465 0 0 -1.1465 572.04 1297.8)" r=".9128">
								<stop stop-color="#fff" offset="0"/>
								<stop stop-color="#fff" offset=".1765"/>
								<stop stop-color="#fff" stop-opacity=".4235" offset=".3059"/>
								<stop stop-color="#fff" stop-opacity=".2314" offset=".4902"/>
								<stop stop-color="#fff" stop-opacity=".0824" offset=".651"/>
								<stop stop-color="#fff" stop-opacity="0" offset="1"/>
							</radialGradient>
							<path d="m589.3 506.3c0.2 0.2 0.3 0.4 0.3 0.601 0 0.3-0.1 0.6-0.3 0.699-0.2 0.2-0.399 0.301-0.7 0.301-0.3 0-0.6-0.101-0.699-0.301-0.2-0.199-0.2-0.399-0.2-0.699 0-0.301 0.1-0.5 0.2-0.601 0.199-0.2 0.399-0.3 0.699-0.3s0.5 0.1 0.7 0.3z" fill="url(#SVGID_8_)"/>
						<linearGradient id="SVGID_9_" y2="682.53" gradientUnits="userSpaceOnUse" x2="47.196" gradientTransform="matrix(1.1465 0 0 -1.1465 572.04 1297.8)" y1="678.85" x1="36.098">
						<stop stop-color="#544940" offset="0"/>
						<stop stop-color="#584D44" offset=".1412"/>
						<stop stop-color="#BDB0A5" offset=".2588"/>
						<stop stop-color="#9A9089" offset=".3922"/>
						<stop stop-color="#CDCDCD" offset=".7922"/>
						<stop stop-color="#AFAEAD" offset="1"/>
					</linearGradient>
					<path d="m623.5 511.1c1.3 0 2.1 0.601 2.2 1.801 0.1 0.1 0.1 0.3 0.1 0.5v7.899c0 1.601-0.8 2.4-2.399 2.4h-7.4c-1.6 0-2.3-0.8-2.3-2.4v-7.9-0.5c0.2-1.2 1-1.801 2.3-1.801h7.5z" fill="url(#SVGID_9_)"/>
						<linearGradient id="SVGID_10_" y2="674.43" gradientUnits="userSpaceOnUse" x2="43.084" gradientTransform="matrix(1.1465 0 0 -1.1465 572.04 1297.8)" y1="686.3" x1="40.603">
						<stop stop-color="#93857B" offset="0"/>
						<stop stop-color="#B1B1B1" offset="1"/>
					</linearGradient>
					<path d="m623.8 511.5c1.101 0 1.8 0.4 2.101 1.3 0 0.3 0.1 0.601 0.1 0.9v8c0 1.5-0.7 2.2-2.2 2.2h-7.5c-1.5 0-2.3-0.7-2.3-2.2v-8c0-0.3 0.1-0.7 0.2-0.9 0.3-0.899 1-1.3 2.1-1.3h7.5z" fill="url(#SVGID_10_)"/>
					<path d="m620.1 515c-0.699 0-1.399 0.3-1.899 0.8s-0.8 1.2-0.8 1.9v0.3c0 0.7 0.3 1.2 0.8 1.7s1.2 0.8 1.899 0.8c0.7 0 1.4-0.3 2.101-0.8 0.399-0.5 0.7-1.101 0.7-1.8v-0.2c0-0.8-0.2-1.4-0.7-1.9-0.7-0.6-1.4-0.8-2.1-0.8zm-3.4-1c1-1 2.1-1.4 3.399-1.4 1.301 0 2.4 0.5 3.301 1.4 0.6 0.5 0.899 1.1 1.1 1.8 0.1 0.2 0.1 0.3 0.2 0.4 0 0.2 0.1 0.3 0.1 0.6v0.601 0.1 0.4 0.1c-0.1 1.1-0.6 2.1-1.399 2.9-0.9 1-2 1.399-3.301 1.399-1.3 0-2.399-0.5-3.399-1.399-0.8-0.801-1.3-1.7-1.4-2.801v-0.1c0-0.2-0.1-0.4-0.1-0.5v-0.1-0.2-0.2c0-0.2 0.1-0.4 0.1-0.6s0.101-0.4 0.2-0.601c0.3-0.7 0.6-1.3 1.2-1.8z" fill="#36312E"/>
							<linearGradient id="SVGID_11_" y2="682.3" gradientUnits="userSpaceOnUse" x2="45.685" gradientTransform="matrix(1.1465 0 0 -1.1465 572.04 1297.8)" y1="679.13" x1="38.21">
							<stop stop-color="#3A3938" offset="0"/>
							<stop stop-color="#BDBCBA" offset=".4627"/>
							<stop stop-color="#8D8C8A" offset=".7529"/>
							<stop stop-color="#434342" offset="1"/>
						</linearGradient>
						<path d="m620.2 515c-0.7 0-1.4 0.2-1.9 0.7s-0.8 1.2-0.8 1.899c0 0.101 0 0.2 0.1 0.301 0 0.6 0.301 1.199 0.7 1.699 0.5 0.5 1.2 0.7 1.9 0.7 0.8 0 1.5-0.2 2-0.7 0.399-0.5 0.7-1.1 0.7-1.8v-0.1c0-0.8-0.2-1.4-0.7-1.9-0.6-0.5-1.2-0.8-2-0.8zm-4.7 2c0-0.2 0.1-0.4 0.2-0.6 0-0.2 0-0.4 0.1-0.601 0.2-0.7 0.5-1.3 1-1.8 1-0.9 2.101-1.3 3.4-1.3s2.399 0.4 3.3 1.3c0.5 0.5 0.9 1.1 1.1 1.8 0.101 0.101 0.101 0.2 0.2 0.3 0 0.2 0.101 0.4 0.101 0.601s0 0.3 0 0.6v0.101 0.3 0.1c-0.101 1.1-0.601 2-1.4 2.8-0.9 0.9-2 1.4-3.3 1.4s-2.4-0.5-3.4-1.4c-0.7-0.8-1.2-1.7-1.3-2.7v-0.199-0.5-0.1-0.1z" fill="url(#SVGID_11_)"/>
						<path d="m620.2 515c0.8 0 1.5 0.2 2 0.7s0.7 1.2 0.7 1.899v0.101c0 0.7-0.301 1.3-0.7 1.8-0.5 0.5-1.2 0.7-2 0.7-0.7 0-1.4-0.2-1.9-0.7s-0.7-1.1-0.7-1.7c0-0.1-0.1-0.2-0.1-0.3 0-0.8 0.3-1.4 0.8-1.9 0.5-0.3 1.1-0.6 1.9-0.6z" fill="#312D2E"/>
						<linearGradient id="SVGID_12_" y2="676.19" gradientUnits="userSpaceOnUse" x2="44.02" gradientTransform="matrix(1.1465 0 0 -1.1465 572.04 1297.8)" y1="683.59" x1="40.57">
						<stop stop-color="#575350" offset=".0353"/>
						<stop stop-color="#524E4B" offset=".4196"/>
						<stop stop-color="#3A3836" offset="1"/>
					</linearGradient>
					<path d="m615.9 518.9c0-0.2-0.101-0.301-0.101-0.5v-0.1-0.2-0.1c0-0.2 0.101-0.4 0.101-0.6 0.1-0.2 0.1-0.4 0.199-0.5 0.2-0.7 0.601-1.4 1.101-1.9 0.899-0.9 2-1.3 3.3-1.3s2.4 0.4 3.3 1.3c0.601 0.5 1 1.2 1.101 1.9 0 0.1 0.1 0.2 0.199 0.3 0 0.2 0 0.3 0.101 0.5v0.6 0.101 0.3 0.1c-0.101 1.101-0.5 2-1.4 2.8-0.899 0.9-2 1.301-3.3 1.301s-2.3-0.4-3.3-1.301c-0.7-0.8-1.2-1.699-1.3-2.8v0.1z" fill="url(#SVGID_12_)"/>
						<linearGradient id="SVGID_13_" y2="680.34" gradientUnits="userSpaceOnUse" x2="44.536" gradientTransform="matrix(1.1465 0 0 -1.1465 572.04 1297.8)" y1="678.63" x1="40.128">
						<stop stop-color="#312D2E" offset="0"/>
						<stop stop-color="#3F3B3B" offset=".2627"/>
						<stop stop-color="#585454" offset=".4627"/>
						<stop stop-color="#403B3C" offset=".6941"/>
						<stop stop-color="#312D2E" offset="1"/>
					</linearGradient>
					<path d="m623.3 518.9c0 0.699-0.3 1.3-0.8 1.8s-1.2 0.7-1.9 0.7c-0.699 0-1.399-0.2-1.899-0.7s-0.8-1.101-0.8-1.7v-0.3c0-0.7 0.3-1.4 0.8-1.9s1.2-0.7 1.899-0.7c0.7 0 1.4 0.2 1.9 0.7s0.8 1.2 0.8 1.9v0.2z" fill="url(#SVGID_13_)"/>
						<radialGradient id="SVGID_14_" gradientUnits="userSpaceOnUse" cy="680.94" cx="41.612" gradientTransform="matrix(1.1465 0 0 -1.1465 572.04 1297.8)" r="4.4625">
						<stop offset="0"/>
						<stop stop-opacity=".7059" offset=".3804"/>
						<stop stop-opacity=".3059" offset=".5529"/>
						<stop stop-opacity="0" offset="1"/>
					</radialGradient>
					<path d="m623.3 518.9c0 0.699-0.3 1.3-0.8 1.8s-1.2 0.7-1.9 0.7c-0.699 0-1.399-0.2-1.899-0.7s-0.8-1.101-0.8-1.7v-0.3c0-0.7 0.3-1.4 0.8-1.9s1.2-0.7 1.899-0.7c0.7 0 1.4 0.2 1.9 0.7s0.8 1.2 0.8 1.9v0.2z" fill="url(#SVGID_14_)"/>
						<radialGradient id="SVGID_15_" gradientUnits="userSpaceOnUse" cy="539.64" cx="-12.992" gradientTransform="matrix(1.107 -.2983 -.1021 -.3533 688.26 700.72)" r="1.8259">
						<stop stop-color="#fff" offset="0"/>
						<stop stop-color="#fff" offset=".1765"/>
						<stop stop-color="#fff" stop-opacity=".4235" offset=".3059"/>
						<stop stop-color="#fff" stop-opacity=".2314" offset=".4902"/>
						<stop stop-color="#fff" stop-opacity=".0824" offset=".651"/>
						<stop stop-color="#fff" stop-opacity="0" offset="1"/>
					</radialGradient>
					<path d="m620.3 514c-0.3 0.2-0.8 0.4-1.3 0.6-0.6 0.2-1.1 0.2-1.5 0.2-0.3 0-0.6-0.1-0.7-0.3 0-0.2 0.101-0.4 0.5-0.6 0.3-0.2 0.8-0.4 1.3-0.5 0.5-0.2 1-0.2 1.5-0.2 0.4 0 0.7 0.1 0.7 0.2 0 0.2-0.1 0.4-0.5 0.6z" fill="url(#SVGID_15_)"/>
						<linearGradient id="SVGID_16_" y2="678.84" gradientUnits="userSpaceOnUse" x2="45.07" gradientTransform="matrix(1.1465 0 0 -1.1465 572.04 1297.8)" y1="677.29" x1="41.02">
						<stop stop-color="#333" offset="0"/>
						<stop stop-color="#C2C0C0" offset=".3725"/>
						<stop stop-color="#333" offset=".9922"/>
					</linearGradient>
					<path d="m619.5 524.4l-1.3-5.4c0-0.7 0.3-1.3 0.8-1.8s1.1-0.7 1.7-0.7c0.7 0 1.3 0.2 1.7 0.7 0.1 0.1 0.1 0.2 0.199 0.2l3 5.699-6.1 1.3z" fill="url(#SVGID_16_)"/>
						<radialGradient id="SVGID_17_" gradientUnits="userSpaceOnUse" cy="676.54" cx="43.962" gradientTransform="matrix(1.1465 0 0 -1.1465 572.04 1297.8)" r="5.1875">
						<stop stop-color="#fff" offset="0"/>
						<stop stop-color="#8D8D8D" offset=".2627"/>
						<stop stop-color="#787878" offset=".4118"/>
						<stop stop-color="#020202" offset="1"/>
					</radialGradient>
					<path d="m620.3 526.1c-0.6-0.6-0.899-1.399-0.899-2.3 0-0.899 0.3-1.6 0.899-2.2 0.601-0.6 1.4-1 2.2-1 0.9 0 1.6 0.301 2.2 1 0.6 0.601 0.899 1.301 0.899 2.2 0 0.9-0.3 1.601-0.899 2.3-0.601 0.601-1.4 0.9-2.2 0.9-0.8 0.1-1.6-0.2-2.2-0.9z" fill="url(#SVGID_17_)"/>
						<radialGradient id="SVGID_18_" gradientUnits="userSpaceOnUse" cy="653.04" cx="12.719" gradientTransform="matrix(.9882 -.5814 -.1831 -.3113 722.05 722.49)" r="1.014">
						<stop stop-color="#fff" offset="0"/>
						<stop stop-color="#fff" offset=".1765"/>
						<stop stop-color="#fff" stop-opacity=".4235" offset=".3059"/>
						<stop stop-color="#fff" stop-opacity=".2314" offset=".4902"/>
						<stop stop-color="#fff" stop-opacity=".0824" offset=".651"/>
						<stop stop-color="#fff" stop-opacity="0" offset="1"/>
					</radialGradient>
					<path d="m614.1 512.4c0-0.101 0-0.2 0.2-0.4s0.4-0.3 0.601-0.5c0.3-0.2 0.5-0.3 0.8-0.3 0.2 0 0.399 0 0.399 0.1 0 0.101 0 0.2-0.199 0.4-0.101 0.2-0.301 0.3-0.601 0.5s-0.6 0.3-0.8 0.3-0.4 0-0.4-0.1z" fill="url(#SVGID_18_)"/>
						<radialGradient id="SVGID_19_" gradientUnits="userSpaceOnUse" cy="636.5" cx="-28.108" gradientTransform="matrix(1.0975 -.3316 -.2788 -1.1973 798.71 1278)" r="4.8837">
						<stop stop-opacity=".8" offset="0"/>
						<stop stop-opacity=".502" offset=".6627"/>
						<stop stop-opacity="0" offset="1"/>
					</radialGradient>
					<path d="m590.6 531.4c-1.399 0-2.6-0.5-3.6-1.7s-1.6-2.7-1.6-4.4c0-1.8 0.5-3.2 1.399-4.5 1-1.3 2.2-1.899 3.601-1.899 1.399 0 2.6 0.6 3.699 1.8 1 1.2 1.5 2.6 1.5 4.399 0.101 1.801-0.399 3.2-1.3 4.4-1.1 1.3-2.3 1.9-3.7 1.9z" fill="url(#SVGID_19_)"/>
						<linearGradient id="SVGID_20_" y2="676.52" gradientUnits="userSpaceOnUse" x2="19.706" gradientTransform="matrix(1.1465 0 0 -1.1465 572.04 1297.8)" y1="675.17" x1="12.275">
						<stop stop-color="#696971" offset="0"/>
						<stop stop-color="#B0B0B5" offset=".1725"/>
						<stop stop-color="#888891" offset=".4784"/>
						<stop stop-color="#787880" offset=".6745"/>
						<stop stop-color="#F2F2F2" offset=".8667"/>
						<stop stop-color="#6B6B6F" offset="1"/>
						<stop stop-color="#3B3B40" offset="1"/>
						<stop stop-color="#6B6B6F" offset="1"/>
					</linearGradient>
					<path d="m590.6 519.7c-0.8 0-1.6 0.3-2.3 0.899-0.6 0.7-0.899 1.5-0.899 2.301 0 0.1 0 0.199 0.1 0.3 0 0.7 0.3 1.399 0.8 2 0.7 0.6 1.5 0.899 2.3 0.899 0.9 0 1.7-0.3 2.4-0.899 0.5-0.601 0.8-1.3 0.9-2.2v-0.2c0-0.8-0.301-1.6-0.9-2.3-0.8-0.5-1.5-0.8-2.4-0.8zm-0.2-1.1h0.199c1.2 0 2.2 0.4 3 1.301 0.4 0.399 0.7 0.8 1 1.199 0.101 0.2 0.101 0.301 0.101 0.5 0.1 0.301 0.2 0.5 0.3 0.7 0 0.2 0.1 0.4 0.1 0.601v0.1c0 1.1-0.5 2.1-1.399 3-0.8 0.8-1.9 1.2-3 1.2-1.101 0-2.2-0.4-3-1.2s-1.3-1.9-1.3-3.1v-0.2-0.1c0.1-0.399 0.199-0.699 0.199-1 0.2-0.699 0.601-1.199 1-1.699 0.7-0.9 1.7-1.3 2.8-1.3z" fill="url(#SVGID_20_)"/>
								<linearGradient id="SVGID_21_" y2="671.06" gradientUnits="userSpaceOnUse" x2="16.319" gradientTransform="matrix(1.1465 0 0 -1.1465 572.04 1297.8)" y1="678.63" x1="16.319">
								<stop stop-color="#575350" offset="0"/>
								<stop stop-color="#54504D" offset=".3961"/>
								<stop stop-color="#353231" offset="1"/>
							</linearGradient>
							<path d="m590.7 519.7c1.2 0 2.2 0.399 3 1.3 0.399 0.4 0.7 0.8 0.899 1.3 0.101 0.2 0.101 0.3 0.101 0.4 0.2 0.3 0.2 0.6 0.3 0.899 0 0.2 0.1 0.4 0.1 0.601v0.1c0 1.101-0.5 2.101-1.399 3-0.8 0.8-1.8 1.3-3 1.3s-2.2-0.399-3-1.3c-0.8-0.899-1.3-1.899-1.3-3v-0.3c0-0.3 0.1-0.7 0.199-1.1 0.2-0.601 0.601-1.2 1.101-1.7 0.8-0.8 1.8-1.2 2.899-1.3l0.1-0.2zm-3.2 4.3c0 0.1 0.1 0.2 0.2 0.3 0 0.8 0.3 1.4 0.8 2 0.7 0.601 1.4 0.9 2.3 0.9 0.8 0 1.601-0.3 2.3-0.9 0.5-0.6 0.801-1.3 0.9-2.1v-0.2c0-0.9-0.3-1.6-0.9-2.3-0.699-0.601-1.5-0.9-2.3-0.9-0.899 0-1.6 0.3-2.3 0.9-0.7 0.7-1 1.4-1 2.3z" fill="url(#SVGID_21_)"/>
								<radialGradient id="SVGID_22_" gradientUnits="userSpaceOnUse" cy="674.84" cx="16.312" gradientTransform="matrix(1.1465 0 0 -1.1465 572.04 1297.8)" r="2.938">
								<stop offset="0"/>
								<stop stop-color="#2F1A17" offset="1"/>
							</radialGradient>
							<path d="m587.8 523.9c0 0.1 0 0.199 0.101 0.3 0 0.6 0.3 1.2 0.8 1.8 0.6 0.5 1.2 0.8 1.899 0.8 0.801 0 1.5-0.3 2.101-0.8 0.5-0.5 0.8-1.2 0.8-1.9v-0.2c0-0.801-0.3-1.4-0.8-2-0.601-0.601-1.3-0.9-2.101-0.9-0.699 0-1.399 0.3-1.899 0.9-0.6 0.5-0.9 1.2-0.9 2zm-0.3 0.1c0-0.9 0.3-1.6 1-2.3 0.7-0.601 1.4-0.9 2.3-0.9 0.8 0 1.601 0.3 2.3 0.9 0.601 0.7 0.9 1.399 0.9 2.3v0.2c-0.1 0.8-0.4 1.5-0.9 2.1-0.699 0.601-1.5 0.9-2.3 0.9-0.899 0-1.6-0.3-2.3-0.9-0.5-0.6-0.8-1.2-0.8-2-0.2-0.1-0.2-0.2-0.2-0.3z" fill="url(#SVGID_22_)"/>
								<radialGradient id="SVGID_23_" gradientUnits="userSpaceOnUse" cy="674.84" cx="16.312" gradientTransform="matrix(1.1465 0 0 -1.1465 572.04 1297.8)" r="2.9375">
								<stop stop-color="#461F18" offset="0"/>
								<stop stop-color="#2F1A17" offset="1"/>
							</radialGradient>
							<path d="m587.8 523.9c0-0.801 0.3-1.4 0.9-2 0.6-0.601 1.2-0.9 1.899-0.9 0.801 0 1.5 0.3 2.101 0.9 0.5 0.6 0.8 1.199 0.8 2v0.199c0 0.7-0.3 1.4-0.8 1.9-0.601 0.5-1.3 0.8-2.101 0.8-0.699 0-1.399-0.3-1.899-0.8s-0.8-1.1-0.8-1.8c-0.1-0.1-0.1-0.2-0.1-0.3z" fill="url(#SVGID_23_)"/>
							<radialGradient id="SVGID_24_" gradientUnits="userSpaceOnUse" cy="574.34" cx="25.869" gradientTransform="matrix(1.135 .1622 .0659 -.4612 524 780.42)" r="2.236">
							<stop stop-color="#fff" offset="0"/>
							<stop stop-color="#fff" offset=".1765"/>
							<stop stop-color="#fff" stop-opacity=".4235" offset=".3059"/>
							<stop stop-color="#fff" stop-opacity=".2314" offset=".4902"/>
							<stop stop-color="#fff" stop-opacity=".0824" offset=".651"/>
							<stop stop-color="#fff" stop-opacity="0" offset="1"/>
						</radialGradient>
						<path d="m588.7 519.3c0-0.3 0.3-0.399 0.8-0.5 0.5-0.2 1.1-0.2 1.8-0.1 0.601 0.1 1.2 0.2 1.7 0.5s0.7 0.6 0.7 0.899c0 0.301-0.3 0.4-0.8 0.5-0.601 0.2-1.2 0.2-1.801 0.101-0.699-0.101-1.199-0.3-1.699-0.601-0.5-0.2-0.7-0.5-0.7-0.8z" fill="url(#SVGID_24_)"/>
								<radialGradient id="SVGID_25_" gradientUnits="userSpaceOnUse" cy="675.89" cx="16.512" gradientTransform="matrix(1.1465 0 0 -1.1465 572.04 1297.8)" r="2.2">
								<stop stop-color="#fff" offset="0"/>
								<stop stop-color="#fff" offset=".1765"/>
								<stop stop-color="#fff" stop-opacity=".4235" offset=".3059"/>
								<stop stop-color="#fff" stop-opacity=".2314" offset=".4902"/>
								<stop stop-color="#fff" stop-opacity=".0824" offset=".651"/>
								<stop stop-color="#fff" stop-opacity="0" offset="1"/>
							</radialGradient>
							<path d="m589.3 524.7c-0.5-0.4-0.7-1-0.7-1.8 0-0.601 0.2-1.2 0.7-1.7s1-0.8 1.7-0.8c0.6 0 1.2 0.3 1.7 0.8s0.8 1.1 0.8 1.7c0 0.8-0.3 1.399-0.8 1.8-0.5 0.5-1.101 0.7-1.7 0.7-0.7 0-1.3-0.2-1.7-0.7z" fill="url(#SVGID_25_)"/>
								<radialGradient id="SVGID_26_" gradientUnits="userSpaceOnUse" cy="674.64" cx="14.461" gradientTransform="matrix(1.1465 0 0 -1.1465 572.04 1297.8)" r=".9128">
								<stop stop-color="#fff" offset="0"/>
								<stop stop-color="#fff" offset=".1765"/>
								<stop stop-color="#fff" stop-opacity=".4235" offset=".3059"/>
								<stop stop-color="#fff" stop-opacity=".2314" offset=".4902"/>
								<stop stop-color="#fff" stop-opacity=".0824" offset=".651"/>
								<stop stop-color="#fff" stop-opacity="0" offset="1"/>
							</radialGradient>
							<path d="m588.6 525.4c-0.3 0-0.6-0.101-0.699-0.301-0.2-0.199-0.2-0.399-0.2-0.699 0-0.301 0.1-0.5 0.2-0.601 0.199-0.2 0.399-0.3 0.699-0.3 0.301 0 0.5 0.1 0.7 0.3s0.3 0.4 0.3 0.601c0 0.3-0.1 0.6-0.3 0.699-0.2 0.2-0.4 0.3-0.7 0.3z" fill="url(#SVGID_26_)"/>
					<radialGradient id="SVGID_27_" gradientUnits="userSpaceOnUse" cy="951.32" cx="-222.06" gradientTransform="matrix(-1.1465 0 -.098 -1.2945 341.25 1802.6)" r="6.8754">
					<stop stop-opacity=".8" offset="0"/>
					<stop stop-opacity=".4431" offset=".7412"/>
					<stop stop-opacity="0" offset=".9804"/>
				</radialGradient>
				<path d="m500.5 560.7c0.3 0 0.6-0.101 1-0.101 2.5 0 4.7 1 6.6 2.9 1.601 1.7 2.601 3.7 3 6 0.101 0.3 0.101 0.6 0.101 1 0.2 2.7-0.5 5-2.101 7-1.6 2-3.6 2.9-6.1 2.9-0.3 0-0.6 0-0.9-0.101-2.1-0.199-3.899-1.1-5.6-2.899-1.9-1.9-3-4.3-3.2-7-0.1-1.3 0-2.601 0.3-3.8 0.4-1.101 1-2.2 1.801-3.2 1.3-1.6 3.1-2.6 5.1-2.7z" fill="url(#SVGID_27_)"/>
				<path d="m501.1 560.7c1.9 0 3.601 0.7 5 2.1 1.4 1.4 2.101 3 2.101 5 0 1.9-0.7 3.601-2.101 5-1.399 1.4-3 2.101-5 2.101-1.899 0-3.6-0.7-5-2.101-1.399-1.399-2.1-3-2.1-5 0-1.899 0.7-3.6 2.1-5 1.5-1.4 3.1-2.1 5-2.1z" fill="#42423E"/>
						<linearGradient id="SVGID_28_" y2="636.32" gradientUnits="userSpaceOnUse" x2="-55.982" gradientTransform="matrix(1.1465 0 0 -1.1465 572.04 1297.8)" y1="636.32" x1="-67.807">
						<stop stop-color="#232321" offset="0"/>
						<stop stop-color="#7D7D7B" offset=".2275"/>
						<stop stop-color="#E6E6E6" offset=".4863"/>
						<stop stop-color="#656563" offset=".8314"/>
						<stop stop-color="#1E1E1E" offset="1"/>
					</linearGradient>
					<path d="m505.8 573c-1.3 1.3-2.899 2-4.8 2s-3.5-0.7-4.8-2-1.9-2.9-1.9-4.8c0-1.8 0.7-3.4 1.9-4.8 1.3-1.301 2.899-1.9 4.8-1.9 1.8 0 3.4 0.6 4.8 1.9 1.3 1.399 2 3 2 4.8 0.1 2-0.6 3.5-2 4.8z" fill="url(#SVGID_28_)"/>
					<linearGradient id="SVGID_29_" y2="637.45" gradientUnits="userSpaceOnUse" x2="-55.55" gradientTransform="matrix(1.1465 0 0 -1.1465 572.04 1297.8)" y1="637.45" x1="-68.925">
					<stop stop-color="#41413E" offset="0"/>
					<stop stop-color="#8A8A86" offset=".4863"/>
					<stop stop-color="#3D3D3A" offset="1"/>
				</linearGradient>
				<path d="m506.2 571.3h-10.5v-0.6s0 0.1-0.101 0.1l0.101-0.3c-0.2-0.6-0.3-1.3-0.3-2.1 0-1.601 0.6-2.9 1.699-4.101 1.101-1.199 2.5-1.7 4.101-1.7 1.6 0 2.899 0.601 4 1.7 1.1 1.101 1.7 2.5 1.7 4.101 0 1-0.2 1.8-0.601 2.6v0.3h-0.1z" fill="url(#SVGID_29_)"/>
				<path d="m503.3 563.2l-0.2 6.7-0.1 0.1-0.1 0.1s-0.101 0-0.101-0.1c-0.1 0-0.1-0.1-0.1-0.1l0.2-6.801c0.3-0.1 0.3 0 0.4 0.1zm-1.6-0.5l-0.101 6.8v0.1l-0.1 0.101c-0.1 0-0.1 0-0.1-0.101l-0.101-0.1 0.101-6.8h0.3zm-1.6 0.1l0.101 7.101-0.1 0.1c-0.1 0-0.1 0-0.1-0.1l-0.1-0.101-0.1-6.9c0.1-0.1 0.2-0.1 0.3-0.1zm5.9 2.7l-0.5 5.8-0.1 0.101h-0.2c-0.101 0-0.101-0.101-0.101-0.101l0.5-6.2c0.2 0.1 0.3 0.3 0.4 0.4zm-1.1-1.3l-0.5 6.7v0.199h-0.2c0-0.1-0.101-0.1-0.101-0.199l0.5-6.9c0.1 0 0.2 0.1 0.3 0.2zm-6.7-0.8l0.3 6.399v0.101l-0.1 0.1s-0.101 0-0.101-0.1c-0.1 0-0.1-0.101-0.1-0.101l-0.3-6.2c0.1-0.1 0.2-0.2 0.3-0.2zm-1.3 1l0.5 6.8s-0.101 0.1-0.101 0.2h-0.2c0-0.101-0.1-0.101-0.1-0.2l-0.5-6.5c0.2-0.1 0.3-0.2 0.4-0.3zm-1.1 1.6l0.5 5.7h-0.3l-0.5-5c0.1-0.3 0.2-0.5 0.3-0.7z" fill="#3E4042"/>
				<path d="m502.1 562.8l-0.199 6.7v0.1h-0.2c-0.101 0-0.101-0.1-0.101-0.1l0.101-6.8c0.1 0 0.2 0 0.4 0.1zm1.6 0.5l-0.3 6.5s0 0.101-0.101 0.101h-0.2l-0.1-0.1 0.3-6.7c0.2 0.1 0.3 0.2 0.4 0.2zm-3.3-0.6l0.1 6.899v0.2h-0.2c-0.1-0.1-0.1-0.1-0.1-0.2l-0.1-6.9h0.3zm5.6 2.8c0.1 0.2 0.2 0.3 0.2 0.5l-0.5 5.3s-0.101 0-0.101 0.101h-0.2l-0.1-0.1 0.7-5.8zm-1-1.1s0.1 0 0.2 0.1l-0.5 6.3v0.101s-0.101 0-0.101 0.1l-0.1-0.1-0.1-0.101 0.5-6.6s0.1 0.1 0.1 0.2zm-6.8-1c0.1-0.101 0.2-0.101 0.3-0.2l0.2 6.6h-0.2l-0.1-0.1-0.2-6.3zm-2.2 2.1l0.5 6.4v0.2c-0.1-0.1-0.2-0.199-0.2-0.3l-0.5-5.7c0.1-0.3 0.2-0.4 0.2-0.6zm1.2-1.4l0.5 7.101-0.101 0.1s-0.1 0-0.1 0.1l-0.1-0.1-0.101-0.1-0.5-6.8c0.2-0.1 0.3-0.2 0.4-0.3z" fill="#636669"/>
						<radialGradient id="SVGID_30_" gradientUnits="userSpaceOnUse" cy="627.01" cx="-62.138" gradientTransform="matrix(1.1465 0 0 -1.0272 572.04 1214.8)" r="8.2875">
						<stop stop-color="#1A1A1A" offset="0"/>
						<stop stop-color="#666762" offset="1"/>
					</radialGradient>
					<path d="m505.7 571.3l0.1 1.4c-0.1 1.1-0.6 2.1-1.399 2.899-0.9 0.9-2.101 1.4-3.4 1.4s-2.5-0.5-3.4-1.4c-1-0.899-1.399-2.1-1.399-3.399v-0.2c0-0.2 0.1-0.4 0.1-0.6 0.101-0.2 0.2-0.4 0.2-0.601 0.2-0.7 0.6-1.399 1.1-1.899 0.9-0.9 2.101-1.4 3.4-1.4s2.5 0.5 3.4 1.4c0.6 0.6 1 1.399 1.3 2.199-0.1 0 0 0.1 0 0.2z" fill="url(#SVGID_30_)"/>
						<line stroke-linejoin="round" y2="572.8" x2="505.8" stroke="#00f" stroke-linecap="round" stroke-miterlimit="3" y1="571.3" x1="505.7" fill="none"/>
						<radialGradient id="SVGID_31_" gradientUnits="userSpaceOnUse" cy="613.63" cx="-61.781" gradientTransform="matrix(1.1464 -.015 0 -.8761 572.03 1108.1)" r="2.8639">
						<stop stop-color="#535360" offset="0"/>
						<stop stop-color="#2A2A31" offset=".4235"/>
						<stop offset="1"/>
					</radialGradient>
					<path d="m502.6 570.7c0.5 0.399 0.7 0.899 0.7 1.5 0 0.6-0.2 1.1-0.7 1.5-0.399 0.5-0.899 0.7-1.5 0.7-0.6 0-1.1-0.2-1.6-0.601-0.4-0.399-0.6-0.899-0.6-1.5 0-0.6 0.199-1.1 0.6-1.5 0.5-0.5 1-0.7 1.6-0.7s1.1 0.2 1.5 0.6z" fill="url(#SVGID_31_)"/>
				<path d="m500.9 567.5h-0.1c-0.8 0-1.6 0.3-2.399 0.7-0.301 0.2-0.601 0.399-0.9 0.7-0.3 0.3-0.5 0.699-0.7 1.1-0.3 0.6-0.5 1.4-0.5 2.2v0.2c0.101 0.8 0.3 1.6 0.8 2.3 0.2 0.3 0.4 0.5 0.7 0.7 0.3 0.3 0.7 0.6 1.101 0.8 0.699 0.3 1.399 0.399 2.199 0.399h0.101c0.8-0.1 1.6-0.3 2.2-0.699 0.3-0.2 0.6-0.5 0.899-0.9 0.3-0.3 0.5-0.6 0.7-0.9 0.4-0.699 0.6-1.5 0.5-2.399v-0.1c0-0.8-0.2-1.5-0.6-2.1-0.2-0.4-0.5-0.8-0.9-1.1-0.3-0.301-0.6-0.5-0.9-0.601-0.6-0.2-1.4-0.4-2.2-0.3zm4.5 1.2c-0.101 0.1-0.2 0.3-0.101 0.5 0 0.1 0 0.2 0.101 0.3 0.1 0.1 0.1 0.1 0.199 0.2 0.2 0.2 0.301 0.2 0.601 0.2 0.2 0.399 0.3 0.899 0.3 1.399-0.1 0-0.2 0.101-0.2 0.2-0.1 0.2-0.2 0.3-0.2 0.5s0.101 0.4 0.2 0.6c0.101 0.101 0.2 0.101 0.2 0.2 0 0.5-0.2 1-0.3 1.4h-0.1c-0.199 0-0.399 0.1-0.5 0.2 0 0 0 0.1-0.1 0.1-0.1 0.2-0.2 0.3-0.1 0.4 0 0.2 0 0.3 0.1 0.5-0.2 0.2-0.3 0.3-0.4 0.5-0.199 0.2-0.399 0.399-0.6 0.6-0.1-0.1-0.2-0.1-0.4-0.1-0.1 0-0.199 0-0.3 0.1-0.1 0-0.1 0-0.2 0.1-0.199 0.2-0.199 0.301-0.199 0.5l0.1 0.101c-0.4 0.2-0.9 0.3-1.4 0.399 0 0 0-0.1-0.1-0.1-0.2-0.2-0.3-0.2-0.6-0.2h-0.1c-0.2 0-0.3 0.101-0.5 0.3 0 0-0.1 0.101-0.1 0.2-0.5 0-1-0.1-1.5-0.3 0-0.2-0.101-0.4-0.2-0.5-0.1 0-0.2-0.1-0.2-0.1-0.1 0-0.2-0.101-0.399-0.101-0.101 0-0.2 0.101-0.301 0.2-0.3-0.2-0.5-0.399-0.8-0.6-0.1-0.101-0.2-0.2-0.3-0.4 0-0.1 0.1-0.2 0.1-0.399 0-0.2 0-0.301-0.1-0.5l-0.1-0.1c-0.2-0.1-0.301-0.2-0.601-0.2h-0.1c-0.2-0.5-0.4-1-0.5-1.5 0.1 0 0.1 0 0.2-0.1 0.199-0.2 0.199-0.3 0.199-0.5s-0.1-0.4-0.3-0.6-0.1-0.101-0.2-0.2c0-0.5 0.101-1 0.2-1.5 0.2 0 0.4-0.101 0.601-0.3 0 0 0-0.101 0.1-0.101 0.1-0.2 0.1-0.3 0.1-0.399 0-0.2 0-0.301-0.1-0.5 0.2-0.2 0.3-0.4 0.5-0.7 0.2-0.2 0.4-0.3 0.6-0.5 0.101 0 0.2 0.1 0.301 0.1 0.199 0 0.3 0 0.399-0.1l0.101-0.101c0.199-0.199 0.3-0.399 0.199-0.6 0.5-0.2 1.101-0.4 1.7-0.5 0 0.1 0.101 0.1 0.2 0.2 0.1 0.2 0.3 0.2 0.5 0.2h0.1c0.2 0 0.4-0.101 0.601-0.301 0 0 0.1-0.1 0.1-0.199 0.5 0.1 1.101 0.199 1.5 0.399 0 0.2 0.101 0.4 0.3 0.5 0 0 0.101 0.101 0.2 0.101 0.101 0.1 0.2 0.1 0.3 0.1 0.2 0 0.301 0 0.4-0.1 0.2 0.1 0.3 0.199 0.5 0.399 0 0.2 0.2 0.5 0.4 0.7z" fill="#666762"/>
					<radialGradient id="SVGID_32_" gradientUnits="userSpaceOnUse" cy="672.55" cx="-61.788" gradientTransform="matrix(1.1465 0 0 -3.1666 572.04 2701.4)" r=".5246">
					<stop stop-color="#fff" offset="0"/>
					<stop stop-color="#fff" offset=".1765"/>
					<stop stop-color="#fff" stop-opacity=".4235" offset=".3059"/>
					<stop stop-color="#fff" stop-opacity=".2314" offset=".4902"/>
					<stop stop-color="#fff" stop-opacity=".0824" offset=".651"/>
					<stop stop-color="#fff" stop-opacity="0" offset="1"/>
				</radialGradient>
				<path d="m501.7 570.5c0.1 0.3 0.2 0.7 0.2 1.1s-0.101 0.801-0.2 1.101c-0.101 0.3-0.3 0.5-0.5 0.5s-0.3-0.2-0.4-0.5c-0.1-0.3-0.2-0.7-0.2-1.101 0-0.399 0.101-0.8 0.2-1.1 0.101-0.3 0.2-0.5 0.4-0.5 0.2 0.1 0.3 0.2 0.5 0.5z" fill="url(#SVGID_32_)"/>
					<radialGradient id="SVGID_33_" gradientUnits="userSpaceOnUse" cy="669.56" cx="46.171" gradientTransform="matrix(-.0104 1.1465 1.7671 .0161 -681.49 503.02)" r="2.2626">
					<stop stop-color="#fff" offset="0"/>
					<stop stop-color="#fff" offset=".1765"/>
					<stop stop-color="#fff" stop-opacity=".4235" offset=".3059"/>
					<stop stop-color="#fff" stop-opacity=".2314" offset=".4902"/>
					<stop stop-color="#fff" stop-opacity=".0824" offset=".651"/>
					<stop stop-color="#fff" stop-opacity="0" offset="1"/>
				</radialGradient>
				<path d="m504 565c0.8 0.5 1.1 1.1 1.1 1.8s-0.399 1.3-1.199 1.8c-0.7 0.5-1.601 0.7-2.7 0.7-1.101 0-2.101-0.3-2.8-0.8-0.801-0.5-1.101-1.1-1.101-1.8s0.4-1.3 1.2-1.8c0.7-0.5 1.7-0.7 2.8-0.7 1 0 1.9 0.3 2.7 0.8z" fill="url(#SVGID_33_)"/>
					<radialGradient id="SVGID_34_" gradientUnits="userSpaceOnUse" cy="818.08" cx="67.95" gradientTransform="matrix(.734 .8808 1.879 -1.6148 -1089.9 1829.6)" r=".4878">
					<stop stop-color="#fff" offset="0"/>
					<stop stop-color="#fff" offset=".1765"/>
					<stop stop-color="#fff" stop-opacity=".4235" offset=".3059"/>
					<stop stop-color="#fff" stop-opacity=".2314" offset=".4902"/>
					<stop stop-color="#fff" stop-opacity=".0824" offset=".651"/>
					<stop stop-color="#fff" stop-opacity="0" offset="1"/>
				</radialGradient>
				<path d="m496.8 569.3c-0.3 0.101-0.5 0.101-0.6-0.1-0.101-0.101-0.101-0.3 0-0.5 0.1-0.2 0.3-0.5 0.6-0.7 0.2-0.2 0.5-0.3 0.7-0.4 0.3 0 0.4 0 0.5 0.101 0.1 0.1 0.1 0.3 0 0.5s-0.2 0.5-0.5 0.7c-0.3 0.2-0.5 0.3-0.7 0.4z" fill="url(#SVGID_34_)"/>
					<radialGradient id="SVGID_35_" gradientUnits="userSpaceOnUse" cy="679.69" cx="48.66" gradientTransform="matrix(-.0949 1.1426 4.3556 .3619 -2455.4 275.14)" r=".4632">
					<stop stop-color="#fff" offset="0"/>
					<stop stop-color="#fff" offset=".1765"/>
					<stop stop-color="#fff" stop-opacity=".4235" offset=".3059"/>
					<stop stop-color="#fff" stop-opacity=".2314" offset=".4902"/>
					<stop stop-color="#fff" stop-opacity=".0824" offset=".651"/>
					<stop stop-color="#fff" stop-opacity="0" offset="1"/>
				</radialGradient>
				<path d="m500.5 576.2c0.5 0.1 1 0.2 1.3 0.3 0.4 0.1 0.601 0.2 0.601 0.4 0 0.199-0.2 0.3-0.601 0.3-0.399 0.1-0.899 0.1-1.399 0-0.601 0-1-0.101-1.4-0.2-0.4-0.2-0.6-0.3-0.6-0.4 0-0.199 0.199-0.3 0.6-0.3s0.9-0.1 1.5-0.1z" fill="url(#SVGID_35_)"/>
					<radialGradient id="SVGID_36_" gradientUnits="userSpaceOnUse" cy="952.62" cx="-271.14" gradientTransform="matrix(-1.1465 0 -.0978 -1.2945 341.32 1805.8)" r="12.013">
					<stop stop-opacity=".8" offset="0"/>
					<stop stop-opacity=".4431" offset=".7412"/>
					<stop stop-opacity="0" offset=".9804"/>
				</radialGradient>
				<path d="m555.3 554.3c0.5 0 1.101-0.1 1.7-0.1 4.4 0 8.2 1.6 11.5 4.899 2.9 3 4.6 6.5 5.2 10.5 0.2 0.5 0.2 1.101 0.2 1.7 0.399 4.7-0.801 8.8-3.601 12.2s-6.399 5.1-10.7 5.1c-0.5 0-1.1 0-1.6-0.1-3.6-0.3-6.9-2-9.8-5-3.4-3.4-5.2-7.5-5.601-12.2-0.1-2.399 0.101-4.6 0.601-6.6 0.7-2 1.7-3.9 3.1-5.7 2.4-2.7 5.4-4.4 9-4.7z" fill="url(#SVGID_36_)"/>
					<linearGradient id="SVGID_37_" y2="636.84" gradientUnits="userSpaceOnUse" x2="-4.2252" gradientTransform="matrix(1.1465 0 0 -1.1465 572.04 1297.8)" y1="636.84" x1="-23.95">
					<stop offset="0"/>
					<stop stop-color="#3C3C3C" offset=".5059"/>
					<stop offset="1"/>
				</linearGradient>
				<path d="m563.8 559.7c2.3 2.2 3.4 4.899 3.4 8 0 3.1-1.101 5.7-3.4 7.899-2.2 2.301-4.8 3.4-8 3.4-3.1 0-5.7-1.1-8-3.4-2.2-2.199-3.3-4.899-3.3-8 0-3.1 1.1-5.8 3.3-8 2.3-2.199 4.9-3.3 8-3.3 3.2 0.1 5.8 1.2 8 3.4z" fill="url(#SVGID_37_)"/>
					<linearGradient id="SVGID_38_" y2="636.06" gradientUnits="userSpaceOnUse" x2="-4.7725" gradientTransform="matrix(1.1465 0 0 -1.1465 572.04 1297.8)" y1="636.06" x1="-23.672">
					<stop offset="0"/>
					<stop stop-color="#696969" offset=".5059"/>
					<stop offset="1"/>
				</linearGradient>
				<path d="m563.3 560.9c2.101 2.1 3.2 4.699 3.2 7.699 0 2.9-1.1 5.5-3.2 7.601-2.1 2.1-4.6 3.2-7.6 3.2-2.9 0-5.5-1.101-7.601-3.2-2.1-2.101-3.199-4.7-3.199-7.7 0-2.9 1.1-5.5 3.199-7.6 2.101-2.101 4.7-3.2 7.601-3.2 3 0 5.5 1.1 7.6 3.2z" fill="url(#SVGID_38_)"/>
					<linearGradient id="SVGID_39_" y2="639.02" gradientUnits="userSpaceOnUse" x2="-3.1194" gradientTransform="matrix(1.1465 0 0 -1.1465 572.04 1297.8)" y1="635.48" x1="-24.192">
					<stop offset="0"/>
					<stop stop-color="#4A4A4A" offset=".4863"/>
					<stop offset="1"/>
				</linearGradient>
				<path d="m562.9 562.3c1.8 1.8 2.8 4 2.8 6.5 0 1.5-0.3 2.9-1 4.2v0.5h-16.9v-1.4c-0.399-1-0.6-2.1-0.6-3.3 0-2.5 0.899-4.7 2.7-6.5 1.8-1.8 4-2.7 6.5-2.7 2.6 0 4.7 0.9 6.5 2.7z" fill="url(#SVGID_39_)"/>
				<path d="m559.2 560l1.899 12.6s0 0.101-0.1 0.2c-0.1 0-0.1 0-0.1 0.101-0.101 0-0.2-0.101-0.2-0.101v-0.2l-2.1-12.7c0.2 0 0.4 0 0.6 0.1zm2.7 1.5l1.699 12.7s-0.1 0.1-0.1 0.2h-0.2-0.1c0-0.101-0.101-0.2-0.101-0.2l-1.8-13.101c0.2 0 0.4 0.2 0.6 0.4zm-10.9-0.1l2.6 10.8v0.2c-0.1 0-0.1 0-0.199 0.1l-0.101-0.1c-0.1-0.101-0.2-0.2-0.1-0.2l-2.601-10.5c0.1-0.1 0.2-0.2 0.4-0.3zm2.8-1.4l2.601 12.2s0.1 0.1 0.1 0.2h-0.2-0.2c-0.1-0.101-0.1-0.2-0.1-0.2l-2.6-12c0.1-0.2 0.2-0.2 0.4-0.2zm2-0.4c0.2 0 0.3-0.1 0.601-0.1l2.199 12.3v0.2s-0.1 0-0.199 0.1l-0.1-0.1c-0.1 0-0.1-0.1-0.1-0.1v-0.1l-2.4-12.2zm9 13.2l-1.2-9.6c0.2 0.2 0.4 0.5 0.601 0.8l0.899 8c-0.1 0.2-0.2 0.5-0.3 0.8zm-16.9-7.5l2.899 10.3v0.2s0 0.101-0.1 0.101c0 0-0.101 0-0.2-0.101l-0.2-0.2-2.8-9.5c0.2-0.3 0.3-0.6 0.4-0.8zm4 9.2l-3-11.1c0.1-0.2 0.199-0.301 0.3-0.5l3 11.5s0 0.1 0.1 0.199c-0.1 0-0.2 0-0.2 0.101l-0.1-0.1c0-0.1-0.1-0.1-0.1-0.1z" fill="#666"/>
				<path d="m558.6 559.9l2.101 12.6c0 0.1-0.101 0.2-0.101 0.2l-0.1 0.1c-0.1 0-0.1 0-0.2-0.1-0.1-0.101-0.2-0.2-0.1-0.2l-2.2-12.7c0.2-0.1 0.4 0 0.6 0.1zm5 3.2l1.101 9.7c-0.1 0.1-0.1 0.1-0.1 0.2v1.1h-0.2l-1.4-11.7c0.2 0.2 0.4 0.4 0.6 0.7zm-2.3-2.1l1.8 13.1c0 0.101 0 0.2-0.1 0.2s-0.1 0-0.2 0.101l-0.1-0.101c-0.101-0.1-0.101-0.2-0.101-0.2l-1.899-13.5c0.2 0.1 0.4 0.2 0.6 0.4zm-10.7 0.7l2.6 10.4v0.2c-0.101 0-0.101 0.101-0.2 0.101s-0.1-0.101-0.1-0.101c-0.101-0.1-0.2-0.1-0.2-0.2l-2.6-10.1c0.2 0 0.3-0.1 0.5-0.3zm2.7-1.6l2.601 12v0.2c-0.101 0-0.101 0.101-0.2 0.101-0.101 0-0.2 0-0.2-0.101l-0.1-0.2-2.6-11.9c0.2 0 0.3 0 0.5-0.1zm2.5-0.5l2.4 12.301v0.1s0 0.1-0.101 0.2c-0.1 0-0.199 0.1-0.199 0.1-0.101 0-0.101 0-0.101-0.1-0.1-0.101-0.1-0.2-0.1-0.2l-2.3-12.2c0.1-0.2 0.2-0.2 0.4-0.2zm-8.2 6.6l2.801 9.399s0 0.101 0.1 0.2h-0.1c-0.2-0.1-0.301-0.3-0.5-0.5h-0.1l-2.5-8.3c0.1-0.3 0.2-0.6 0.3-0.8zm1.3-2.7l3 11s0.1 0.1 0.1 0.2c-0.1 0-0.1 0-0.2 0.1l-0.1-0.1c-0.101-0.101-0.2-0.101-0.2-0.2l-2.9-10.4c0.1-0.3 0.2-0.4 0.3-0.6z"/>
						<radialGradient id="SVGID_40_" gradientUnits="userSpaceOnUse" cy="625.53" cx="-13.338" gradientTransform="matrix(1.1465 0 0 -1.0275 572.04 1215.2)" r="13.251">
						<stop offset="0"/>
						<stop stop-color="#333" offset="1"/>
					</radialGradient>
					<path d="m564.7 575.7c-0.2 1.8-1 3.3-2.3 4.6-1.5 1.5-3.301 2.3-5.4 2.3-2.2 0-4-0.8-5.5-2.3s-2.2-3.2-2.2-5.399v-0.5c0-0.301 0-0.601 0.101-0.9 0.1-0.4 0.199-0.7 0.3-1.1 0.3-1.101 1-2.101 1.8-3 1.5-1.5 3.3-2.2 5.5-2.2s4 0.7 5.4 2.2c1 1 1.699 2.1 2.1 3.399 0 0.2 0.1 0.4 0.2 0.601v2.3z" fill="url(#SVGID_40_)"/>
						<line stroke-linejoin="round" y2="575.7" x2="564.7" stroke="#00f" stroke-linecap="round" stroke-miterlimit="3" y1="573.4" x1="564.6" fill="none"/>
						<radialGradient id="SVGID_41_" gradientUnits="userSpaceOnUse" cy="611.22" cx="-12.781" gradientTransform="matrix(1.1464 -.0125 0 -.8747 572.03 1108.1)" r="4.5883">
						<stop stop-color="#535360" offset="0"/>
						<stop stop-color="#2A2A31" offset=".4235"/>
						<stop offset="1"/>
					</radialGradient>
					<path d="m559.6 572.5c0.7 0.6 1 1.5 1 2.5s-0.3 1.8-1 2.5c-0.699 0.7-1.5 1.1-2.5 1.1s-1.8-0.3-2.5-1c-0.699-0.6-1-1.5-1-2.5s0.301-1.8 1-2.5c0.7-0.699 1.5-1.1 2.5-1.1s1.8 0.3 2.5 1z" fill="url(#SVGID_41_)"/>
					<linearGradient id="SVGID_42_" y2="623.01" gradientUnits="userSpaceOnUse" x2="-13.032" gradientTransform="matrix(1.1465 0 0 -1.1465 572.04 1297.8)" y1="638.48" x1="-13.032">
					<stop stop-color="#333" offset="0"/>
					<stop offset="1"/>
				</linearGradient>
				<path d="m562.1 569.1c-0.5-0.399-0.899-0.699-1.399-1-1.2-0.6-2.5-1-3.9-0.899h-0.1c-1.4 0.1-2.7 0.5-3.8 1.2-0.5 0.3-0.9 0.699-1.4 1.199-0.5 0.601-0.9 1.2-1.1 1.801-0.5 1.1-0.801 2.3-0.7 3.6v0.2c0.1 1.399 0.6 2.6 1.3 3.7 0.3 0.5 0.7 0.899 1.1 1.3 0.5 0.5 1.2 0.899 1.9 1.2 1 0.5 2.2 0.699 3.5 0.699h0.1c1.301-0.1 2.5-0.399 3.601-1.1 0.5-0.3 1-0.8 1.399-1.3 0.4-0.5 0.801-1 1.101-1.4 0.6-1.1 0.899-2.399 0.899-3.7v-0.199c-0.1-1.301-0.399-2.4-1-3.4-0.5-0.7-0.9-1.3-1.5-1.9zm2 0.1c-0.199 0.2-0.199 0.399-0.199 0.7 0 0.199 0 0.399 0.1 0.6 0.1 0.1 0.2 0.2 0.3 0.2 0.2 0.2 0.5 0.3 0.9 0.3h0.1c0.3 0.7 0.5 1.5 0.601 2.4-0.2 0-0.301 0.1-0.4 0.199-0.2 0.2-0.3 0.5-0.3 0.9s0.2 0.7 0.5 0.9l0.3 0.3c-0.1 0.8-0.3 1.6-0.6 2.3h-0.1c-0.3 0-0.6 0.1-0.8 0.4-0.1 0.1-0.1 0.1-0.1 0.2-0.2 0.199-0.301 0.5-0.2 0.699 0 0.2 0.1 0.4 0.2 0.601-0.2 0.3-0.5 0.6-0.7 0.8-0.3 0.3-0.601 0.7-1 0.9-0.2-0.101-0.4-0.2-0.601-0.2-0.199 0-0.399 0.1-0.6 0.2-0.1 0-0.1 0.1-0.2 0.199-0.3 0.2-0.399 0.5-0.399 0.801l0.1 0.1c-0.7 0.3-1.4 0.5-2.1 0.6-0.101-0.1-0.2-0.2-0.2-0.2-0.3-0.3-0.601-0.399-1-0.3h-0.1c-0.3 0-0.5 0.2-0.699 0.4-0.101 0.1-0.2 0.2-0.2 0.3-0.8 0-1.601-0.2-2.4-0.5 0-0.3-0.1-0.6-0.3-0.8-0.1-0.1-0.2-0.2-0.4-0.2-0.199-0.1-0.3-0.1-0.6-0.1-0.2 0-0.4 0.1-0.6 0.2-0.5-0.301-0.9-0.601-1.301-1-0.199-0.2-0.399-0.301-0.5-0.601 0.101-0.2 0.101-0.399 0.101-0.6 0-0.3-0.101-0.5-0.2-0.7-0.1 0-0.1-0.1-0.2-0.2-0.3-0.2-0.6-0.3-0.899-0.3h-0.1c-0.399-0.7-0.7-1.5-0.899-2.5 0.1 0 0.199-0.1 0.199-0.2 0.301-0.2 0.4-0.5 0.301-0.8v-0.1c0-0.301-0.101-0.601-0.4-0.9-0.1-0.1-0.2-0.2-0.3-0.2 0-0.899 0.2-1.7 0.399-2.5 0.301 0 0.601-0.1 0.9-0.399 0 0 0.1-0.101 0.2-0.2 0.1-0.2 0.1-0.4 0.1-0.601 0-0.3-0.1-0.5-0.2-0.699 0.2-0.301 0.5-0.7 0.9-1.101 0.3-0.3 0.6-0.6 1-0.899 0.2 0 0.3 0.1 0.5 0.1s0.4 0 0.6-0.1c0-0.101 0.101-0.2 0.2-0.2 0.3-0.3 0.4-0.601 0.3-0.9 0.801-0.4 1.7-0.6 2.7-0.8 0 0.1 0.101 0.2 0.2 0.3 0.2 0.2 0.5 0.3 0.8 0.3h0.101c0.3 0 0.6-0.2 0.899-0.399 0.101-0.101 0.101-0.2 0.2-0.301 0.9 0.101 1.8 0.301 2.5 0.601 0 0.3 0.2 0.6 0.4 0.8 0.1 0.1 0.199 0.1 0.3 0.2 0.2 0.1 0.399 0.2 0.6 0.2s0.4-0.101 0.601-0.2c0.199 0.2 0.5 0.399 0.8 0.6 0.3 0.6 0.6 1 0.9 1.4z" fill="url(#SVGID_42_)"/>
					<radialGradient id="SVGID_43_" gradientUnits="userSpaceOnUse" cy="670.33" cx="-12.738" gradientTransform="matrix(1.1465 0 0 -3.1361 572.04 2676.2)" r=".85">
					<stop stop-color="#fff" offset="0"/>
					<stop stop-color="#fff" offset=".1765"/>
					<stop stop-color="#fff" stop-opacity=".4235" offset=".3059"/>
					<stop stop-color="#fff" stop-opacity=".2314" offset=".4902"/>
					<stop stop-color="#fff" stop-opacity=".0824" offset=".651"/>
					<stop stop-color="#fff" stop-opacity="0" offset="1"/>
				</radialGradient>
				<path d="m558.1 572.2c0.2 0.5 0.301 1.1 0.301 1.8 0 0.8-0.101 1.4-0.301 1.8-0.199 0.5-0.399 0.8-0.6 0.8-0.3 0-0.5-0.3-0.7-0.8s-0.3-1.1-0.3-1.8 0.1-1.3 0.3-1.8 0.4-0.8 0.7-0.8c0.2 0 0.4 0.2 0.6 0.8z" fill="url(#SVGID_43_)"/>
					<radialGradient id="SVGID_44_" fx="-13.452" gradientUnits="userSpaceOnUse" cy="626.34" cx="-14.188" gradientTransform="matrix(1.1465 0 0 -1.1465 572.04 1297.8)" r="6.95">
					<stop stop-color="#fff" offset="0"/>
					<stop stop-color="#FEFEFE" stop-opacity=".2314" offset=".6118"/>
					<stop stop-color="#FDFDFD" stop-opacity="0" offset="1"/>
				</radialGradient>
				<path d="m563.9 577.5l0.1 0.1c-0.4 1-1 1.801-1.8 2.601-1.4 1.5-3.2 2.2-5.2 2.2-2.1 0-3.8-0.7-5.3-2.2h0.1c-0.8-0.7-1.399-1.601-1.7-2.601v-0.1s0-0.1 0.101-0.1h0.1s0.101 0 0.101 0.1c0.3 0.9 0.8 1.7 1.6 2.5 1.4 1.4 3.1 2.1 5.1 2.1s3.7-0.699 5-2.1c0.8-0.8 1.4-1.6 1.8-2.5l-0.001-0.1c-0.1 0.1-0.1 0.1 0 0.1z" fill="url(#SVGID_44_)"/>
					<radialGradient id="SVGID_45_" gradientUnits="userSpaceOnUse" cy="696.87" cx="92.719" gradientTransform="matrix(-.0091 1.1465 4.5933 .0365 -2645.4 424.48)" r="1.9625">
					<stop stop-color="#fff" offset="0"/>
					<stop stop-color="#fff" offset=".1765"/>
					<stop stop-color="#fff" stop-opacity=".4235" offset=".3059"/>
					<stop stop-color="#fff" stop-opacity=".2314" offset=".4902"/>
					<stop stop-color="#fff" stop-opacity=".0824" offset=".651"/>
					<stop stop-color="#fff" stop-opacity="0" offset="1"/>
				</radialGradient>
				<path d="m554.6 554.1c2.4 0 4.4 0.2 6.101 0.601 1.8 0.5 2.7 1.1 2.7 1.7s-0.9 1.1-2.7 1.5c-1.601 0.399-3.7 0.6-6.101 0.6-2.5 0-4.6-0.3-6.3-0.7-1.8-0.5-2.7-1-2.7-1.6 0-0.601 0.9-1.101 2.7-1.5 1.7-0.5 3.8-0.7 6.3-0.6z" fill="url(#SVGID_45_)"/>
					<radialGradient id="SVGID_46_" gradientUnits="userSpaceOnUse" cy="683.29" cx="94.456" gradientTransform="matrix(-.0088 1.1465 3.2569 .025 -1667.9 441.09)" r="1.9623">
					<stop stop-color="#fff" offset="0"/>
					<stop stop-color="#fff" offset=".1765"/>
					<stop stop-color="#fff" stop-opacity=".4235" offset=".3059"/>
					<stop stop-color="#fff" stop-opacity=".2314" offset=".4902"/>
					<stop stop-color="#fff" stop-opacity=".0824" offset=".651"/>
					<stop stop-color="#fff" stop-opacity="0" offset="1"/>
				</radialGradient>
				<path d="m556.6 564.2c1.7 0 3.2 0.3 4.4 0.7 1.2 0.5 1.8 1 1.8 1.6s-0.6 1.1-1.8 1.5c-1.2 0.5-2.6 0.7-4.4 0.6-1.8 0-3.3-0.199-4.5-0.699-1.3-0.5-1.899-1-1.899-1.601 0-0.6 0.6-1.1 1.899-1.5 1.3-0.4 2.7-0.6 4.5-0.6z" fill="url(#SVGID_46_)"/>
					<radialGradient id="SVGID_47_" gradientUnits="userSpaceOnUse" cy="952.83" cx="-317.73" gradientTransform="matrix(-1.1465 0 -.0974 -1.2936 340.85 1805.5)" r="7.2127">
					<stop stop-opacity=".8" offset="0"/>
					<stop stop-opacity=".4431" offset=".7412"/>
					<stop stop-opacity="0" offset=".9804"/>
				</radialGradient>
				<path d="m610.2 561.9c0.3 0 0.6-0.101 1-0.101 2.6 0 4.899 1 6.899 3 1.7 1.8 2.801 3.9 3.101 6.3 0.1 0.301 0.2 0.7 0.2 1.101 0.199 2.8-0.5 5.3-2.2 7.3s-3.8 3-6.4 3c-0.3 0-0.7 0-1-0.1-2.1-0.2-4.1-1.2-5.8-3-2-2.101-3.2-4.5-3.4-7.301-0.1-1.5 0-2.8 0.301-4 0.399-1.199 1-2.399 1.8-3.399 1.5-1.6 3.3-2.6 5.5-2.8z" fill="url(#SVGID_47_)"/>
				<path d="m618.3 569.3c0 1.9-0.7 3.601-2.1 4.9-1.4 1.399-3 2.1-5 2.1-1.9 0-3.601-0.7-4.9-2.1-1.399-1.4-2.1-3-2.1-5 0-1.9 0.7-3.601 2.1-4.9 1.4-1.399 3-2.1 4.9-2.1 1.899 0 3.6 0.7 5 2.1s2.1 3.1 2.1 5z" fill="#42423E"/>
					<linearGradient id="SVGID_48_" y2="635.01" gradientUnits="userSpaceOnUse" x2="39.95" gradientTransform="matrix(1.1465 0 0 -1.1465 572.04 1297.8)" y1="635.01" x1="28.174">
					<stop stop-color="#232321" offset="0"/>
					<stop stop-color="#7D7D7B" offset=".2275"/>
					<stop stop-color="#E6E6E6" offset=".4863"/>
					<stop stop-color="#656563" offset=".8314"/>
					<stop stop-color="#1E1E1E" offset="1"/>
				</linearGradient>
				<path d="m617.9 569.8c0 1.8-0.7 3.4-2 4.7-1.301 1.3-2.9 2-4.801 2-1.8 0-3.399-0.7-4.8-2-1.3-1.3-2-2.9-2-4.8 0-1.8 0.7-3.4 2-4.8 1.3-1.301 2.9-1.9 4.8-1.9s3.5 0.6 4.801 1.9c1.3 1.5 2 3.1 2 4.9z" fill="url(#SVGID_48_)"/>
					<linearGradient id="SVGID_49_" y2="636.84" gradientUnits="userSpaceOnUse" x2="41.008" gradientTransform="matrix(1.1465 0 0 -1.1465 572.04 1297.8)" y1="634.64" x1="27.885">
					<stop stop-color="#41413E" offset="0"/>
					<stop stop-color="#8A8A86" offset=".4863"/>
					<stop stop-color="#3D3D3A" offset="1"/>
				</linearGradient>
				<path d="m616.7 572.8h-10.5v-0.8c-0.2-0.6-0.3-1.3-0.3-2 0-1.6 0.6-3 1.699-4.1 1.101-1.101 2.5-1.7 4.101-1.7 1.6 0 2.899 0.6 4 1.7 1.1 1.1 1.7 2.5 1.7 4.1 0 1-0.2 1.8-0.601 2.6v0.2h-0.1z" fill="url(#SVGID_49_)"/>
				<path d="m616.4 566.9l0.6 5c-0.1 0.199-0.2 0.3-0.2 0.5l-0.7-6c0 0.1 0.2 0.3 0.3 0.5zm-0.4 6.5s-0.1 0-0.1 0.1l-0.101-0.1-0.1-0.101-1.101-8.1c0.101 0.1 0.2 0.2 0.4 0.2l1 7.899v0.1zm-3.1-9c0.1 0 0.199 0 0.3 0.1l1.3 7.8s0 0.101-0.1 0.2h-0.1-0.2v-0.2l-1.2-7.9zm-3 0l1.6 7.6v0.1h-0.2c0-0.1-0.1-0.1-0.1-0.199l-1.601-7.5c0.1 0.1 0.2 0.1 0.3 0zm1.6-0.2l1.4 7.7v0.1h-0.2l-0.101-0.1v-0.1l-1.5-7.6h0.4zm-5.3 3.6l1.8 6.4v0.1s0 0.101-0.1 0.101c0 0-0.101 0-0.101-0.101-0.1 0-0.1-0.1-0.1-0.1l-1.7-5.9c0.1-0.2 0.1-0.4 0.2-0.5zm0.9-1.5l1.801 7.2s0 0.1 0.1 0.1c-0.1 0-0.1 0-0.1 0.101l-0.1-0.1-0.1-0.1-1.9-6.9 0.3-0.3zm1-0.9l1.7 6.699v0.101s-0.1 0-0.1 0.1l-0.101-0.1-0.1-0.101-1.7-6.5c0.2-0.1 0.2-0.2 0.3-0.2z" fill="#666"/>
				<path d="m616 566.4l0.7 6.1s0 0.1-0.101 0.1v0.7h-0.1l-0.9-7.3c0.2 0.1 0.3 0.2 0.4 0.4zm-0.3 7h-0.2c-0.1 0-0.1-0.101-0.1-0.2l-1.301-8.4c0.2 0 0.301 0.101 0.4 0.2l1.1 8.2c0.1 0.1 0.1 0.2 0.1 0.2zm-3.2-9.1c0.1 0 0.2 0 0.3 0.101l1.3 7.899s-0.1 0.101-0.1 0.2c-0.1-0.1-0.1-0.1-0.1-0.2l-1.4-8zm-1.3 0l1.5 7.601v0.1l-0.101 0.1-0.1 0.101s-0.1 0-0.1-0.101c0-0.1-0.101-0.1-0.101-0.1l-1.5-7.6c0.1-0.1 0.2-0.1 0.4-0.1zm-1.6 0.3l1.601 7.5v0.101 0.1l-0.101 0.1s-0.1 0-0.1-0.1l-0.1-0.1-1.601-7.4c0.1-0.2 0.2-0.2 0.3-0.2zm-2 1.2c0.101-0.1 0.2-0.2 0.301-0.2l1.6 6.5v0.101l-0.1 0.1s-0.101 0-0.101-0.1c-0.1 0-0.1-0.101-0.1-0.101l-1.6-6.3zm-1.5 2.5l1.7 5.9s0 0.1 0.101 0.1h-0.1l-0.3-0.3-0.1-0.1-1.5-5.101c0.1-0.1 0.1-0.3 0.2-0.5zm0.8-1.7l1.8 6.9 0.1 0.1s-0.1 0-0.1 0.101l-0.1-0.1c-0.1 0-0.1-0.1-0.1-0.1l-1.8-6.5c0-0.2 0.1-0.3 0.2-0.4z" fill="#3E4042"/>
						<radialGradient id="SVGID_50_" gradientUnits="userSpaceOnUse" cy="633.79" cx="34.312" gradientTransform="matrix(1.1465 0 0 -1.1465 572.04 1297.8)" r="6.4626">
						<stop stop-color="#1A1A1A" offset="0"/>
						<stop stop-color="#666762" offset="1"/>
					</radialGradient>
					<path d="m616.7 572.8l0.1 1.4c-0.2 1.1-0.6 2.1-1.399 2.899-0.9 0.9-2.101 1.4-3.4 1.4s-2.5-0.5-3.4-1.4c-0.899-0.899-1.399-2-1.399-3.399v-0.3c0-0.2 0-0.4 0.1-0.601 0-0.3 0.1-0.5 0.2-0.7 0.2-0.699 0.6-1.3 1.1-1.899 1-0.9 2.101-1.4 3.4-1.4 1.4 0 2.5 0.5 3.4 1.4 0.6 0.6 1 1.3 1.3 2.1-0.2 0.3-0.1 0.4 0 0.5z" fill="url(#SVGID_50_)"/>
						<line stroke-linejoin="round" y2="574.2" x2="616.7" stroke="#00f" stroke-linecap="round" stroke-miterlimit="3" y1="572.8" x1="616.7" fill="none"/>
						<radialGradient id="SVGID_51_" gradientUnits="userSpaceOnUse" cy="610.55" cx="34.978" gradientTransform="matrix(1.1464 -.015 0 -.8711 572.03 1105.4)" r="2.8627">
						<stop stop-color="#535360" offset="0"/>
						<stop stop-color="#2A2A31" offset=".4235"/>
						<stop offset="1"/>
					</radialGradient>
					<path d="m610.5 575.3c-0.4-0.399-0.6-0.899-0.6-1.5 0-0.6 0.199-1.1 0.6-1.5 0.4-0.5 0.9-0.7 1.5-0.7s1.1 0.2 1.5 0.601c0.5 0.399 0.7 0.899 0.7 1.5 0 0.6-0.2 1.1-0.7 1.5-0.4 0.399-0.9 0.6-1.5 0.6-0.6 0.2-1.1 0-1.5-0.5z" fill="url(#SVGID_51_)"/>
				<path d="m616.5 573.6v-0.199c0-0.801-0.2-1.5-0.6-2.101-0.301-0.399-0.601-0.7-0.9-1.1-0.3-0.2-0.6-0.4-0.9-0.601-0.699-0.399-1.5-0.6-2.399-0.5h-0.1c-0.8 0-1.6 0.301-2.3 0.7-0.3 0.2-0.6 0.5-0.899 0.8-0.301 0.301-0.601 0.7-0.7 1.101-0.3 0.7-0.5 1.399-0.5 2.2v0.199c0.1 0.9 0.3 1.601 0.8 2.301 0.2 0.3 0.4 0.5 0.7 0.699 0.3 0.301 0.7 0.601 1.1 0.801 0.7 0.3 1.4 0.399 2.2 0.399h0.1c0.801-0.1 1.601-0.3 2.2-0.7 0.3-0.199 0.601-0.5 0.9-0.8s0.5-0.6 0.7-0.899c0.5-0.7 0.7-1.5 0.6-2.3zm-0.8-4.1l0.7 0.7c-0.101 0.1-0.2 0.2-0.101 0.399 0 0.2 0 0.301 0.101 0.4 0.1 0 0.1 0.1 0.199 0.1 0.2 0.2 0.301 0.301 0.5 0.2h0.101c0.2 0.5 0.3 0.9 0.3 1.4-0.1 0-0.2 0.1-0.2 0.2-0.1 0.2-0.2 0.3-0.2 0.6s0.101 0.4 0.2 0.5c0.101 0.1 0.2 0.1 0.2 0.2 0 0.5-0.2 1-0.3 1.4h-0.1c-0.199 0-0.399 0.1-0.5 0.199l-0.1 0.101c-0.1 0.2-0.2 0.3-0.1 0.5 0 0.2 0 0.3 0.1 0.399-0.2 0.2-0.3 0.301-0.4 0.5-0.199 0.2-0.399 0.4-0.6 0.601-0.1-0.101-0.2-0.101-0.4-0.101-0.1 0-0.199 0-0.3 0.101-0.1 0-0.1 0-0.2 0.1-0.199 0.2-0.199 0.3-0.199 0.5l0.1 0.1c-0.4 0.2-0.9 0.301-1.3 0.4 0 0-0.101-0.1-0.2-0.1-0.2-0.2-0.3-0.2-0.6-0.2h-0.1c-0.2 0-0.3 0.1-0.5 0.3 0 0-0.1 0.1-0.1 0.2-0.5 0-1-0.1-1.5-0.3 0-0.2-0.101-0.4-0.2-0.5-0.1 0-0.2-0.101-0.2-0.101-0.1 0-0.2-0.1-0.3-0.1-0.2 0-0.3 0.1-0.4 0.2-0.3-0.2-0.5-0.4-0.8-0.601-0.1-0.1-0.2-0.199-0.3-0.399 0.1-0.101 0.1-0.2 0.1-0.4s-0.1-0.3-0.199-0.5-0.101 0-0.101-0.1c-0.2-0.2-0.3-0.2-0.6-0.2h-0.2c-0.3-0.5-0.4-1-0.5-1.5 0 0 0.1-0.1 0.1-0.2 0.2-0.2 0.2-0.3 0.2-0.5s-0.1-0.399-0.3-0.6-0.1-0.101-0.2-0.101c0-0.5 0.101-1.1 0.3-1.5 0.2 0 0.4-0.1 0.5-0.199 0 0 0.101-0.101 0.101-0.2 0.1-0.101 0.1-0.2 0.1-0.4s-0.1-0.3-0.2-0.399c0.2-0.2 0.301-0.5 0.601-0.7 0.2-0.2 0.3-0.4 0.6-0.5 0.1 0 0.2 0.1 0.3 0.1 0.101 0 0.2-0.1 0.3-0.1 0 0 0.101-0.101 0.2-0.101 0.2-0.199 0.2-0.399 0.2-0.6 0.5-0.2 1.1-0.4 1.7-0.5 0 0.1 0.1 0.2 0.2 0.2 0.1 0.1 0.3 0.2 0.5 0.2h0.1c0.2 0 0.4-0.101 0.6-0.2 0 0 0.101-0.101 0.101-0.2 0.6 0 1.1 0.2 1.5 0.4 0 0.199 0.1 0.399 0.3 0.5 0 0 0.1 0.1 0.2 0.1s0.2 0.1 0.3 0.1 0.2 0 0.4-0.1c0.2 0 0.3 0.2 0.5 0.3z" fill="#666762"/>
					<radialGradient id="SVGID_52_" gradientUnits="userSpaceOnUse" cy="671.25" cx="35.012" gradientTransform="matrix(1.1465 0 0 -3.1666 572.04 2698.7)" r=".5245">
					<stop stop-color="#fff" offset="0"/>
					<stop stop-color="#fff" offset=".1765"/>
					<stop stop-color="#fff" stop-opacity=".4235" offset=".3059"/>
					<stop stop-color="#fff" stop-opacity=".2314" offset=".4902"/>
					<stop stop-color="#fff" stop-opacity=".0824" offset=".651"/>
					<stop stop-color="#fff" stop-opacity="0" offset="1"/>
				</radialGradient>
				<path d="m611.7 572.1c0.1-0.3 0.3-0.5 0.5-0.5s0.3 0.2 0.399 0.5c0.101 0.301 0.2 0.7 0.2 1.101 0 0.5-0.1 0.899-0.2 1.1-0.1 0.3-0.199 0.5-0.399 0.5s-0.3-0.2-0.5-0.5c-0.101-0.3-0.2-0.6-0.2-1.1 0.1-0.5 0.1-0.8 0.2-1.1z" fill="url(#SVGID_52_)"/>
					<radialGradient id="SVGID_53_" fx="34.521" gradientUnits="userSpaceOnUse" cy="628.89" cx="34.062" gradientTransform="matrix(1.1465 0 0 -1.1465 572.04 1297.8)" r="4.3372">
					<stop stop-color="#fff" offset="0"/>
					<stop stop-color="#FEFEFE" stop-opacity=".2314" offset=".6118"/>
					<stop stop-color="#FDFDFD" stop-opacity="0" offset="1"/>
				</radialGradient>
				<path d="m616.2 575.4c-0.2 0.6-0.601 1.1-1.101 1.6-0.899 0.9-2 1.4-3.3 1.4s-2.3-0.5-3.3-1.4c-0.5-0.5-0.8-1-1-1.6v-0.101h0.201c0.2 0.601 0.5 1.101 1 1.601 0.8 0.8 1.899 1.3 3.2 1.3 1.3 0 2.3-0.4 3.199-1.3 0.5-0.5 0.9-1 1.101-1.601v0.1z" fill="url(#SVGID_53_)"/>
					<radialGradient id="SVGID_54_" gradientUnits="userSpaceOnUse" cy="681.54" cx="142.6" gradientTransform="matrix(-.01 1.1465 3.2522 .0283 -1603.3 385.68)" r="1.2254">
					<stop stop-color="#fff" offset="0"/>
					<stop stop-color="#fff" offset=".1765"/>
					<stop stop-color="#fff" stop-opacity=".4235" offset=".3059"/>
					<stop stop-color="#fff" stop-opacity=".2314" offset=".4902"/>
					<stop stop-color="#fff" stop-opacity=".0824" offset=".651"/>
					<stop stop-color="#fff" stop-opacity="0" offset="1"/>
				</radialGradient>
				<path d="m611.8 567.1c1.101 0 2 0.101 2.7 0.4 0.8 0.3 1.1 0.6 1.1 1s-0.399 0.7-1.1 1-1.6 0.4-2.7 0.4c-1.1 0-2.1-0.101-2.8-0.4-0.8-0.3-1.1-0.7-1.1-1s0.399-0.7 1.1-1 1.6-0.5 2.8-0.4z" fill="url(#SVGID_54_)"/>
					<radialGradient id="SVGID_55_" gradientUnits="userSpaceOnUse" cy="678.32" cx="145.48" gradientTransform="matrix(-.0953 1.1425 4.3248 .3607 -2308.3 167.31)" r=".4635">
					<stop stop-color="#fff" offset="0"/>
					<stop stop-color="#fff" offset=".1765"/>
					<stop stop-color="#fff" stop-opacity=".4235" offset=".3059"/>
					<stop stop-color="#fff" stop-opacity=".2314" offset=".4902"/>
					<stop stop-color="#fff" stop-opacity=".0824" offset=".651"/>
					<stop stop-color="#fff" stop-opacity="0" offset="1"/>
				</radialGradient>
				<path d="m609.4 578.1c0-0.199 0.199-0.3 0.6-0.3 0.4-0.1 0.9-0.1 1.4-0.1 0.5 0.1 1 0.2 1.399 0.3 0.4 0.1 0.601 0.2 0.601 0.4 0 0.199-0.2 0.3-0.601 0.3-0.399 0.1-0.8 0.1-1.399 0-0.601 0-1-0.101-1.4-0.2-0.5-0.2-0.7-0.3-0.6-0.4z" fill="url(#SVGID_55_)"/>
					<radialGradient id="SVGID_56_" gradientUnits="userSpaceOnUse" cy="691.74" cx="141.47" gradientTransform="matrix(-.0117 1.1465 4.5858 .0468 -2560.1 367.59)" r="1.2246">
					<stop stop-color="#fff" offset="0"/>
					<stop stop-color="#fff" offset=".1765"/>
					<stop stop-color="#fff" stop-opacity=".4235" offset=".3059"/>
					<stop stop-color="#fff" stop-opacity=".2314" offset=".4902"/>
					<stop stop-color="#fff" stop-opacity=".0824" offset=".651"/>
					<stop stop-color="#fff" stop-opacity="0" offset="1"/>
				</radialGradient>
				<path d="m606.5 561.1c1-0.3 2.3-0.399 3.9-0.3 1.5 0 2.8 0.101 3.8 0.4 1.1 0.3 1.7 0.6 1.7 1 0 0.399-0.601 0.7-1.7 1-1 0.3-2.3 0.399-3.8 0.3-1.601 0-2.9-0.1-3.9-0.4-1.1-0.3-1.7-0.699-1.7-1 0-0.3 0.6-0.7 1.7-1z" fill="url(#SVGID_56_)"/>
					<linearGradient id="SVGID_57_" y2="623.93" gradientUnits="userSpaceOnUse" x2="-44.257" gradientTransform="matrix(1.1465 0 0 -1.1465 572.04 1297.8)" y1="647.96" x1="-44.257">
					<stop stop-opacity=".502" offset=".5686"/>
					<stop stop-opacity="0" offset=".9765"/>
				</linearGradient>
				<path d="m528.9 566.3v15.4 0.399h-15.2v-15.8h15.2z" fill="url(#SVGID_57_)"/>
					<path d="m517.7 561.9l-0.101 8h-2.1l0.1-6.101h-0.1l-0.1-1.5h0.1v0.101c0.2 0.199 0.5 0.3 0.8 0.3s0.601-0.101 0.9-0.3c0.1-0.101 0.2-0.2 0.3-0.301l0.2-0.2zm2.5-2.1c0 0.3 0.2 0.5 0.3 0.7 0.2 0.2 0.3 0.2 0.5 0.3 0.1 0 0.2 0.101 0.3 0.101 0.3 0 0.601-0.101 0.8-0.301h0.101c0.2-0.199 0.3-0.399 0.3-0.699l0.1 1.399c0 0.101 0 0.2-0.1 0.3l0.2 8.9h-2.6l0.1-10.7zm7.1 3l0.3 7.601h-1.9l-0.2-7.9 0.2-0.2c0 0.2 0 0.2 0.1 0.3v0.101c0.3 0.199 0.601 0.3 0.9 0.3 0.2 0.1 0.5 0 0.6-0.2zm0.7 8.3c0.2 0.2 0.5 0.301 0.8 0.301v0.1c0 0.1 0 0.6 0.101 1.4-0.2 0-0.4-0.101-0.601-0.2-0.1 0-0.1-0.101-0.2-0.2-0.199-0.2-0.3-0.5-0.3-0.9 0.1-0.1 0.1-0.3 0.2-0.5zm-13.3 1c-0.2 0.2-0.4 0.2-0.601 0.301-0.1 0-0.199 0.1-0.199 0.1 0-0.4-0.101-0.8-0.101-1.1v-0.301-0.1c0.3 0 0.601-0.1 0.7-0.3v-0.1c0.1 0 0.1-0.1 0.2-0.199 0.2 0.199 0.3 0.5 0.3 0.8 0 0.4-0.1 0.7-0.3 0.9z" fill="#0B0B0B"/>
					<path d="m527.3 562.8l0.101-0.1c0.699 0.899 1.1 1.8 1.399 2.899 0 0.2 0.101 0.4 0.101 0.9v0.1 0.7l0.1 3.3h-1.4l-0.3-7.8zm-7.1-3l0.1 10.601h-2.6v-0.5l0.1-8-0.1-1.301c0.6-0.4 1.5-0.7 2.5-0.8zm5.4 2.6l-0.2 0.2 0.199 7.9h-2.9l-0.2-8.9c0-0.1 0.1-0.199 0.1-0.3l-0.1-1.399c0.9 0.1 1.7 0.399 2.5 0.8 0.1 0.1 0.2 0.2 0.3 0.2 0 0 0.101 0 0.101 0.1l0.2 1.4zm-10.1-0.1l0.1 1.5h0.101l-0.1 6.1h-1.8l-0.1-4.101c0.4-1.5 1-2.6 1.8-3.5z" fill="#2C2C2C"/>
					<path d="m524.9 576.9c0-0.2 0.1-0.4 0.199-0.601v1.4c-0.1-0.2-0.2-0.5-0.2-0.8zm-7.2-0.5c0.1 0.199 0.2 0.399 0.2 0.6 0 0.3 0 0.6-0.2 0.8v-1.4z"/>
					<polygon points="517.6 576.3 517.6 576.4 517.5 576.3" fill="#1A1A1A"/>
					<path d="m529 569.8c0 0.101 0.1 0.2 0.1 0.4 0 0.1 0 0.2 0.101 0.2v0.1h-0.2c-0.3 0-0.6 0.2-0.7 0.3-0.1 0.101-0.1 0.2-0.2 0.2-0.1 0.2-0.199 0.4-0.199 0.6 0 0.301 0.1 0.601 0.3 0.9 0 0.1 0.1 0.1 0.2 0.2 0.199 0.1 0.3 0.1 0.6 0.2-0.1 0.5-0.3 1-0.5 1.399-0.3 0.7-0.7 1.4-1.3 2v-0.1h-0.1v-0.1c-0.199-0.2-0.399-0.301-0.699-0.301-0.2 0-0.4 0-0.601 0.101h-0.1c-0.101 0.1-0.2 0.1-0.2 0.2-0.1 0.1-0.2 0.199-0.2 0.199-0.2 0.2-0.2 0.4-0.2 0.601 0 0.3 0 0.6 0.2 0.899v0.101c-0.8 0.399-1.6 0.6-2.5 0.8 0-0.3-0.1-0.6-0.3-0.9-0.2-0.2-0.5-0.3-0.9-0.3h-0.1c-0.3 0-0.6 0.2-0.7 0.3-0.2 0.2-0.3 0.5-0.3 0.9-1-0.1-1.8-0.4-2.6-0.9 0.199-0.2 0.3-0.5 0.199-0.8 0-0.2-0.1-0.4-0.199-0.6l-0.1-0.1v-0.1h-0.1v-0.1l-0.1-0.1h-0.1v-0.1c-0.1 0-0.2-0.101-0.3-0.2-0.2-0.1-0.3-0.1-0.6-0.1-0.301 0-0.601 0.1-0.801 0.3 0 0 0 0.1-0.1 0.1-0.5-0.6-0.9-1.2-1.2-1.899-0.3-0.5-0.5-1.101-0.6-1.801v-0.1c0.1 0 0.2 0 0.2-0.1 0.199 0 0.399-0.101 0.5-0.301h0.1c0.2-0.199 0.3-0.5 0.3-0.899 0-0.3-0.1-0.601-0.3-0.8v-0.1h-0.1c-0.2-0.2-0.5-0.3-0.7-0.3 0-0.2 0.1-0.5 0.2-0.7 0.399-1.5 0.899-2.5 1.5-3.2l0.1 0.101c0.2 0.2 0.5 0.3 0.8 0.3h0.101c0.3 0 0.5-0.1 0.8-0.3v-0.1s0.1-0.1 0.2-0.1c0 0 0.1-0.1 0.1-0.2 0.1-0.2 0.2-0.3 0.2-0.5v-0.1c0-0.2 0-0.5-0.101-0.7l-0.1-0.1v-0.1c0.8-0.5 1.7-0.7 2.6-0.899h0.101c0 0.3 0.1 0.5 0.3 0.699 0 0.101 0.1 0.101 0.1 0.2 0.101 0 0.2 0.101 0.3 0.101 0 0 0 0.1 0.101 0.1 0.1 0 0.2 0.1 0.3 0.1 0.2 0 0.4-0.1 0.6-0.199 0.101 0 0.101-0.101 0.2-0.101 0 0 0.101 0 0.101-0.1 0.199-0.2 0.3-0.4 0.3-0.7 0.899 0.2 1.7 0.4 2.5 0.8 0 0 0.1 0.101 0.2 0.101 0 0 0 0.1 0.1 0.1s0.1 0.1 0.2 0.1h0.1l-0.1 0.101v0.1h-0.1c-0.1 0.2-0.1 0.3-0.199 0.5 0 0.101 0 0.2 0.1 0.3 0 0.2 0 0.301 0.1 0.4 0 0.1 0.101 0.2 0.2 0.2 0.101 0.1 0.2 0.2 0.2 0.2l0.1 0.1c0.301 0.2 0.5 0.2 0.801 0.2 0.3 0 0.6-0.101 0.699-0.3h0.101c0.6 0.699 1 1.5 1.3 2.399 0 0.101 0.1 0.2 0.1 0.3v0.101c-0.1 0.6-0.1 0.8-0.1 0.9zm-5.9-3.6c-0.199 0-0.399-0.101-0.6-0.101-0.3-0.1-0.7-0.1-1.1-0.1h-0.2c-0.4 0-0.8 0.1-1.2 0.2-0.1 0-0.2 0-0.3 0.1-0.5 0.2-1 0.4-1.4 0.601-0.3 0.199-0.5 0.3-0.8 0.5 0 0.1-0.1 0.199-0.2 0.199-0.2 0.2-0.399 0.4-0.6 0.601-0.3 0.399-0.5 0.8-0.7 1.1l-0.1 0.101c-0.2 0.5-0.301 1.1-0.301 1.699v0.301c0 1 0.2 1.899 0.7 2.699 0.101 0.101 0.101 0.2 0.2 0.2 0.2 0.3 0.5 0.7 0.8 0.9 0.101 0.1 0.2 0.2 0.3 0.2v0.1h0.101c0.1 0.1 0.2 0.1 0.2 0.2 0.5 0.399 1.1 0.7 1.8 0.899 0.2 0.101 0.5 0.101 0.7 0.2 0.3 0 0.699 0.101 1.1 0.101h0.201c0.3 0 0.7 0 1-0.101 0.2 0 0.399-0.1 0.6-0.2 0.601-0.199 1.2-0.399 1.7-0.699 0.1-0.101 0.2-0.101 0.2-0.2 0 0 0.1-0.101 0.2-0.2 0.1-0.1 0.199-0.2 0.3-0.2 0.3-0.3 0.6-0.6 0.7-0.899 0 0 0.1 0 0.1-0.101 0.2-0.3 0.4-0.7 0.6-1.1 0.2-0.601 0.301-1.2 0.301-1.8 0-0.4 0-0.801-0.101-1.101v-0.1c-0.1-0.3-0.2-0.5-0.3-0.8s-0.2-0.5-0.4-0.7c-0.3-0.4-0.6-0.7-0.899-1v-0.1c-0.3-0.301-0.7-0.601-1.101-0.7-0.6-0.4-1-0.6-1.5-0.7z" fill="#1A1A1A"/>
						<linearGradient id="SVGID_58_" y2="627.81" gradientUnits="userSpaceOnUse" x2="-42.694" gradientTransform="matrix(1.1465 0 0 -1.1465 572.04 1297.8)" y1="638.54" x1="-45.562">
						<stop stop-color="#D2D2D2" offset="0"/>
						<stop stop-color="#4A4A4A" offset="1"/>
					</linearGradient>
					<path d="m523.1 566.2c0.5 0.1 0.9 0.3 1.301 0.6 0.399 0.2 0.699 0.4 1.1 0.7v0.1c0.3 0.301 0.6 0.7 0.9 1 0.199 0.2 0.3 0.5 0.399 0.7 0.101 0.3 0.2 0.5 0.3 0.8v0.101c0.101 0.399 0.101 0.8 0.101 1.1 0 0.6-0.101 1.3-0.3 1.8-0.2 0.4-0.301 0.7-0.601 1.101 0 0 0 0.1-0.1 0.1-0.2 0.3-0.4 0.6-0.7 0.9-0.1 0.1-0.2 0.199-0.3 0.199l-0.2 0.2c-0.1 0-0.2 0.101-0.2 0.2-0.5 0.3-1.1 0.6-1.7 0.7-0.199 0.1-0.399 0.1-0.6 0.2-0.3 0-0.6 0.1-1 0.1h-0.2c-0.399 0-0.7 0-1.1-0.1-0.2 0-0.5-0.101-0.7-0.2-0.6-0.2-1.2-0.5-1.8-0.9-0.101 0-0.2-0.1-0.2-0.2h-0.1v-0.1c-0.101-0.1-0.2-0.2-0.301-0.2-0.3-0.3-0.6-0.6-0.8-0.899 0-0.101-0.1-0.2-0.2-0.2-0.5-0.8-0.699-1.7-0.699-2.7v-0.3c0-0.601 0.199-1.2 0.3-1.7l0.1-0.1c0.2-0.4 0.4-0.801 0.7-1.101 0.2-0.2 0.4-0.399 0.6-0.6 0.101-0.1 0.101-0.2 0.2-0.2 0.3-0.2 0.5-0.4 0.8-0.5 0.4-0.3 0.9-0.5 1.4-0.6 0.1 0 0.2-0.101 0.3-0.101 0.4-0.1 0.8-0.1 1.2-0.199h0.201c0.399 0 0.8 0 1.1 0.1 0.4 0.1 0.6 0.2 0.8 0.2z" fill="url(#SVGID_58_)"/>
					<radialGradient id="SVGID_59_" gradientUnits="userSpaceOnUse" cy="375.41" cx="-142.1" gradientTransform="matrix(1.1075 -.2964 -.078 -.1716 706.09 586.11)" r=".9187">
					<stop stop-color="#fff" offset="0"/>
					<stop stop-color="#fff" offset=".1765"/>
					<stop stop-color="#fff" stop-opacity=".4235" offset=".3059"/>
					<stop stop-color="#fff" stop-opacity=".2314" offset=".4902"/>
					<stop stop-color="#fff" stop-opacity=".0824" offset=".651"/>
					<stop stop-color="#fff" stop-opacity="0" offset="1"/>
				</radialGradient>
				<path d="m519.5 564c-0.3 0.1-0.5 0.1-0.7 0.2-0.2 0-0.3 0-0.3-0.101 0 0 0-0.1 0.2-0.199 0.2-0.101 0.399-0.2 0.7-0.2 0.3-0.101 0.5-0.101 0.699-0.2 0.2 0 0.4 0 0.4 0.1 0 0-0.1 0.101-0.3 0.2-0.2 0-0.4 0.1-0.7 0.2z" fill="url(#SVGID_59_)"/>
					<radialGradient id="SVGID_60_" gradientUnits="userSpaceOnUse" cy="528.38" cx="-60.849" gradientTransform="matrix(1.1057 -.3031 -.0838 -.3055 630.57 710.05)" r="2.0191">
					<stop stop-color="#fff" offset="0"/>
					<stop stop-color="#fff" offset=".1765"/>
					<stop stop-color="#fff" stop-opacity=".4235" offset=".3059"/>
					<stop stop-color="#fff" stop-opacity=".2314" offset=".4902"/>
					<stop stop-color="#fff" stop-opacity=".0824" offset=".651"/>
					<stop stop-color="#fff" stop-opacity="0" offset="1"/>
				</radialGradient>
				<path d="m521.2 566.5c0.1 0.2-0.101 0.3-0.5 0.6-0.4 0.2-0.9 0.4-1.5 0.601-0.601 0.2-1.101 0.2-1.601 0.2-0.399 0-0.6-0.101-0.699-0.301 0-0.199 0.1-0.3 0.5-0.6 0.399-0.2 0.899-0.4 1.5-0.6 0.6-0.2 1.1-0.2 1.6-0.2 0.4 0 0.7 0.1 0.7 0.3z" fill="url(#SVGID_60_)"/>
						<radialGradient id="SVGID_61_" gradientUnits="userSpaceOnUse" cy="672.08" cx="-38.588" gradientTransform="matrix(1.1465 0 0 -2.6616 572.04 2356.2)" r="1.05">
						<stop stop-color="#fff" stop-opacity=".2392" offset="0"/>
						<stop stop-color="#fff" stop-opacity="0" offset="1"/>
					</radialGradient>
					<path d="m528.9 569.7c0-0.101 0-0.2-0.101-0.2-0.2-1-0.7-2-1.399-2.9v-0.1h0.1c0.6 0.8 1.1 1.7 1.4 2.7v0.5z" fill="url(#SVGID_61_)"/>
						<radialGradient id="SVGID_62_" gradientUnits="userSpaceOnUse" cy="536.28" cx="-42.388" gradientTransform="matrix(1.1465 0 0 -.4262 572.04 792.43)" r="2.3873">
						<stop stop-color="#fff" stop-opacity=".4196" offset="0"/>
						<stop stop-color="#fff" stop-opacity="0" offset="1"/>
					</radialGradient>
					<path d="m525.5 564.8c-0.8-0.5-1.8-0.899-2.9-1v-0.1h0.101c1 0.2 2 0.5 2.899 1.1v0.101h-0.1v-0.1z" fill="url(#SVGID_62_)"/>
						<radialGradient id="SVGID_63_" gradientUnits="userSpaceOnUse" cy="640.24" cx="-46.638" gradientTransform="matrix(1.1465 0 0 -1.1465 572.04 1297.8)" r="1.4126">
						<stop stop-color="#fff" stop-opacity=".5529" offset="0"/>
						<stop stop-color="#fff" stop-opacity="0" offset="1"/>
					</radialGradient>
					<path d="m517.7 564.5c0.8-0.5 1.7-0.7 2.6-0.9 0 0 0.101 0 0.101 0.101l-0.101 0.1c-0.899 0.1-1.8 0.4-2.5 0.9h-0.1v-0.2z" fill="url(#SVGID_63_)"/>
						<radialGradient id="SVGID_64_" gradientUnits="userSpaceOnUse" cy="669.66" cx="-49.688" gradientTransform="matrix(1.1465 0 0 -2.41 572.04 2180.8)" r="1.225">
						<stop stop-color="#fff" stop-opacity=".2392" offset="0"/>
						<stop stop-color="#fff" stop-opacity="0" offset="1"/>
					</radialGradient>
					<path d="m515.6 566.2c-0.8 1-1.3 2.1-1.6 3.2 0 0.199-0.1 0.3-0.1 0.6h-0.1v-0.1c0-0.2 0.101-0.4 0.101-0.601 0.3-1.1 0.9-2.1 1.7-3.1z" fill="url(#SVGID_64_)"/>
					<radialGradient id="SVGID_65_" gradientUnits="userSpaceOnUse" cy="634.55" cx="-44.688" gradientTransform="matrix(1.1465 0 0 -1.0806 572.04 1251.7)" r="6.9625">
					<stop stop-color="#fff" offset="0"/>
					<stop stop-color="#fff" stop-opacity="0" offset="1"/>
				</radialGradient>
				<path d="m526.4 569.4c-0.301-0.601-0.601-1.101-1.101-1.5-1.1-1-2.399-1.5-4-1.5-1.6 0-2.899 0.5-4 1.5-0.5 0.5-0.899 1-1.1 1.5-0.3 0.6-0.5 1.399-0.5 2.1 0 0.6 0.1 1.2 0.3 1.8v0.101s0 0.1-0.1 0.1h-0.1l-0.1-0.1c-0.2-0.5-0.3-1.101-0.3-1.801 0-0.8 0.2-1.5 0.5-2.199 0.3-0.601 0.7-1.2 1.3-1.801 1.1-1 2.5-1.5 4.1-1.5 1.601 0 3 0.5 4.101 1.5 0.5 0.5 1 1.101 1.3 1.801 0.3 0.6 0.399 1.399 0.399 2.1s-0.1 1.3-0.3 1.8l-0.1 0.1h-0.1s-0.101 0-0.101-0.1v-0.1c0.2-0.5 0.3-1.101 0.3-1.7v-0.1c0-0.7-0.1-1.4-0.4-2z" fill="url(#SVGID_65_)"/>
					<radialGradient id="SVGID_66_" gradientUnits="userSpaceOnUse" cy="952.72" cx="-299.88" gradientTransform="matrix(-1.1465 0 -.0972 -1.2944 340.66 1805.9)" r="7.0748">
					<stop stop-opacity=".8" offset="0"/>
					<stop stop-opacity=".4431" offset=".7412"/>
					<stop stop-opacity="0" offset=".9804"/>
				</radialGradient>
				<path d="m589.7 561.9h0.899c2.601 0 4.9 1 6.801 2.899 1.699 1.8 2.699 3.9 3 6.2 0.1 0.3 0.199 0.6 0.199 1 0.2 2.8-0.5 5.2-2.1 7.2-1.7 2-3.8 3-6.3 3-0.3 0-0.7 0-1-0.1-2.101-0.2-4.101-1.2-5.8-2.9-2-2-3.101-4.4-3.301-7.2-0.1-1.4 0-2.7 0.301-3.8 0.399-1.2 1-2.3 1.8-3.4 1.6-1.7 3.4-2.7 5.5-2.9z" fill="url(#SVGID_66_)"/>
					<linearGradient id="SVGID_67_" y2="635.49" gradientUnits="userSpaceOnUse" x2="21.111" gradientTransform="matrix(1.1465 0 0 -1.1465 572.04 1297.8)" y1="635.49" x1="9.0356">
					<stop offset="0"/>
					<stop stop-color="#3C3C3C" offset=".5059"/>
					<stop offset="1"/>
				</linearGradient>
				<path d="m584.4 564.3c1.399-1.3 3-2 4.899-2 1.9 0 3.601 0.7 4.9 2 1.399 1.4 2.1 3 2.1 4.9 0 1.899-0.7 3.5-2.1 4.8-1.4 1.4-3 2.1-4.9 2.1-1.899 0-3.5-0.699-4.899-2.1-1.301-1.3-2-3-2-4.9 0-1.8 0.6-3.5 2-4.8z" fill="url(#SVGID_67_)"/>
					<linearGradient id="SVGID_68_" y2="635.05" gradientUnits="userSpaceOnUse" x2="20.75" gradientTransform="matrix(1.1465 0 0 -1.1465 572.04 1297.8)" y1="635.05" x1="9.1748">
					<stop offset="0"/>
					<stop stop-color="#696969" offset=".5059"/>
					<stop offset="1"/>
				</linearGradient>
				<path d="m584.6 565c1.301-1.3 2.801-1.9 4.601-1.9s3.399 0.601 4.7 1.9c1.3 1.3 1.899 2.9 1.899 4.7s-0.7 3.399-1.899 4.7c-1.301 1.3-2.9 1.899-4.7 1.899s-3.3-0.7-4.601-1.899c-1.3-1.301-1.899-2.9-1.899-4.7-0.1-1.8 0.6-3.4 1.9-4.7z" fill="url(#SVGID_68_)"/>
					<linearGradient id="SVGID_69_" y2="636.93" gradientUnits="userSpaceOnUse" x2="21.793" gradientTransform="matrix(1.1465 0 0 -1.1465 572.04 1297.8)" y1="634.76" x1="8.897">
					<stop offset="0"/>
					<stop stop-color="#4A4A4A" offset=".4863"/>
					<stop offset="1"/>
				</linearGradient>
				<path d="m594.6 572.6h-10.3v-0.5l0.101-0.3c-0.2-0.6-0.301-1.3-0.301-2 0-1.5 0.5-2.899 1.601-4 1.1-1.1 2.399-1.6 4-1.6 1.5 0 2.8 0.5 4 1.6 1.1 1.101 1.7 2.5 1.7 4 0 1-0.2 1.8-0.601 2.601v0.199h-0.2z" fill="url(#SVGID_69_)"/>
				<path d="m593 565.3l1 7.8s0 0.101-0.1 0.101h-0.2l-0.1-0.1-1.1-8c0.3 0 0.4 0.1 0.5 0.2zm1.4 1.5l0.6 4.9c-0.1 0.2-0.2 0.399-0.2 0.5l-0.7-5.9c0.1 0.2 0.2 0.4 0.3 0.5zm-2.2 5.3l-1.3-7.699c0.1 0 0.199 0.1 0.3 0.1l1.2 7.6s0 0.101-0.101 0.2h-0.2c0.2-0.1 0.1-0.2 0.1-0.2zm-5.9-6.8l1.7 6.601v0.1h-0.2l-0.1-0.1-1.601-6.4c0-0.1 0.1-0.2 0.2-0.2zm1.8-0.9l1.5 7.5v0.1h-0.2c0-0.1-0.101-0.1-0.101-0.2l-1.5-7.3s0.1-0.1 0.3-0.1zm1.2-0.2h0.3l1.4 7.5v0.1h-0.2l-0.1-0.1v-0.1l-1.4-7.4zm-4.9 3.5l1.8 6.2v0.1s0 0.1-0.101 0.1c-0.1 0-0.1 0-0.1-0.1-0.1-0.1-0.1-0.1-0.1-0.2l-1.7-5.8c0.1 0 0.2-0.2 0.2-0.3zm0.9-1.5l1.8 7.1v0.101s-0.1 0-0.1 0.1l-0.1-0.1c-0.101 0-0.101-0.101-0.101-0.101l-1.8-6.7c0.1-0.2 0.2-0.3 0.3-0.4z" fill="#666"/>
				<path d="m594 566.3l0.7 5.9c0 0.1-0.101 0.1-0.101 0.2v0.6h-0.1l-0.9-7.2c0.2 0.2 0.3 0.4 0.4 0.5zm-1.4-1.3l1.101 8.1v0.101c-0.101 0-0.101 0-0.101 0.1l-0.1-0.1-0.1-0.101-1.101-8.3c0.1 0.1 0.2 0.1 0.3 0.2zm-0.6 7.1l-1.3-7.8c0.1 0 0.2 0 0.3 0.101l1.3 7.699s-0.1 0.101-0.1 0.2h-0.2c-0.1-0.1-0.1-0.2 0-0.2zm-4.3-7.6l1.6 7.3v0.101 0.1h-0.2l-0.1-0.1-1.6-7.301c0.1 0 0.2-0.1 0.3-0.1zm1.6-0.3l1.4 7.5v0.1l-0.1 0.1c-0.1 0-0.1 0-0.1-0.101l-0.1-0.1-1.4-7.5h0.3zm-5 4l1.7 5.7s0 0.1 0.1 0.1h-0.1l-0.3-0.3-1.5-5.101c-0.1-0.1 0-0.2 0.1-0.4zm0.7-1.6l1.8 6.7 0.101 0.101s-0.101 0-0.101 0.1l-0.1-0.1-0.1-0.1-1.8-6.399c0.1-0.1 0.1-0.2 0.2-0.3zm2.4 5.3l-1.601-6.2c0.101-0.101 0.2-0.2 0.3-0.2l1.601 6.4s0 0.1-0.101 0.1l-0.1 0.1-0.1-0.1v-0.1z"/>
						<radialGradient id="SVGID_70_" gradientUnits="userSpaceOnUse" cy="625.92" cx="15.512" gradientTransform="matrix(1.1465 0 0 -1.0282 572.04 1215.6)" r="8.1125">
						<stop offset="0"/>
						<stop stop-color="#333" offset="1"/>
					</radialGradient>
					<path d="m594.6 572.6l0.101 1.4c-0.101 1.1-0.601 2-1.4 2.8-0.899 0.9-2 1.4-3.3 1.4s-2.5-0.5-3.4-1.4c-0.899-0.899-1.399-2-1.399-3.3v-0.2c0-0.2 0.1-0.399 0.1-0.6s0.1-0.4 0.2-0.601c0.2-0.699 0.6-1.3 1.1-1.899 0.9-0.9 2-1.3 3.4-1.3 1.3 0 2.4 0.399 3.3 1.3 0.6 0.6 1.1 1.3 1.3 2.1v0.3z" fill="url(#SVGID_70_)"/>
						<line stroke-linejoin="round" y2="574.1" x2="594.7" stroke="#00f" stroke-linecap="round" stroke-miterlimit="3" y1="572.6" x1="594.6" fill="none"/>
						<radialGradient id="SVGID_71_" gradientUnits="userSpaceOnUse" cy="610.99" cx="15.877" gradientTransform="matrix(1.1464 -.0153 0 -.8713 572.03 1105.4)" r="2.8119">
						<stop stop-color="#535360" offset="0"/>
						<stop stop-color="#2A2A31" offset=".4235"/>
						<stop offset="1"/>
					</radialGradient>
					<path d="m590.1 571.4c0.601 0 1.101 0.199 1.5 0.6 0.4 0.4 0.601 0.9 0.601 1.5s-0.2 1.1-0.601 1.5c-0.399 0.5-0.899 0.7-1.5 0.7-0.6 0-1.1-0.2-1.5-0.601-0.399-0.399-0.6-0.899-0.6-1.5 0-0.6 0.2-1.1 0.6-1.5s0.9-0.7 1.5-0.7z" fill="url(#SVGID_71_)"/>
					<linearGradient id="SVGID_72_" y2="627.11" gradientUnits="userSpaceOnUse" x2="15.665" gradientTransform="matrix(1.1465 0 0 -1.1465 572.04 1297.8)" y1="636.58" x1="15.665">
					<stop stop-color="#333" offset="0"/>
					<stop offset="1"/>
				</linearGradient>
				<path d="m593.1 570.1c-0.3-0.3-0.5-0.5-0.8-0.6-0.8-0.4-1.6-0.6-2.399-0.5h-0.1c-0.8 0-1.6 0.2-2.3 0.7-0.3 0.2-0.5 0.399-0.8 0.7-0.3 0.3-0.601 0.699-0.7 1.1-0.3 0.7-0.5 1.4-0.5 2.2v0.2c0.1 0.8 0.3 1.6 0.8 2.199 0.2 0.301 0.4 0.601 0.7 0.7 0.3 0.3 0.7 0.601 1.1 0.8 0.601 0.301 1.4 0.4 2.101 0.4h0.1c0.8-0.1 1.5-0.3 2.2-0.7 0.3-0.2 0.6-0.5 0.9-0.8s0.5-0.6 0.699-0.9c0.4-0.699 0.601-1.5 0.5-2.3v-0.2c0-0.8-0.199-1.5-0.6-2.1l-0.9-0.9zm-0.2-1c0.1 0 0.199 0 0.3-0.1 0.2 0.2 0.3 0.3 0.5 0.4 0.2 0.199 0.399 0.5 0.6 0.699-0.1 0.101-0.1 0.301-0.1 0.5 0 0.101 0 0.2 0.1 0.301 0 0 0.101 0.1 0.101 0.199 0.199 0.2 0.3 0.2 0.6 0.2 0.2 0.5 0.3 0.9 0.3 1.4-0.1 0-0.2 0.1-0.2 0.2-0.1 0.2-0.199 0.3-0.199 0.5s0.1 0.399 0.199 0.5c0.101 0.1 0.2 0.1 0.2 0.2 0 0.5-0.2 1-0.3 1.399-0.2 0-0.3 0.101-0.5 0.2l-0.1 0.1c-0.101 0.101-0.101 0.2-0.101 0.4s0 0.3 0.101 0.4c-0.101 0.199-0.2 0.399-0.4 0.5-0.2 0.199-0.4 0.399-0.6 0.5-0.101-0.101-0.2-0.101-0.4-0.101-0.1 0-0.2 0-0.3 0.101-0.101 0-0.101 0-0.2 0.1-0.2 0.2-0.2 0.3-0.2 0.5 0 0 0.101 0 0.101 0.1-0.4 0.2-0.9 0.301-1.301 0.4 0 0-0.1-0.1-0.1-0.2-0.2-0.2-0.4-0.2-0.6-0.2h-0.1c-0.2 0-0.3 0.101-0.5 0.2 0 0.101-0.1 0.101-0.1 0.2-0.5 0-1-0.1-1.5-0.2 0-0.2-0.101-0.399-0.2-0.5 0 0-0.1-0.1-0.2-0.1s-0.2-0.101-0.3-0.101-0.2 0.101-0.3 0.2c-0.3-0.2-0.5-0.399-0.8-0.6-0.101-0.101-0.2-0.2-0.301-0.3 0.101-0.101 0.101-0.2 0.101-0.4s-0.101-0.3-0.2-0.5l-0.1-0.1c-0.2-0.101-0.301-0.2-0.601-0.2h-0.1c-0.2-0.5-0.4-1-0.5-1.5 0.1 0 0.1-0.101 0.2-0.2 0.2-0.1 0.2-0.3 0.2-0.5v-0.1c0-0.2-0.101-0.4-0.2-0.5 0-0.101-0.101-0.101-0.2-0.2 0-0.5 0.1-1 0.2-1.5 0.2 0 0.399-0.101 0.6-0.2 0 0 0-0.1 0.1-0.2 0.101-0.1 0.101-0.2 0.101-0.399 0-0.2-0.101-0.301-0.101-0.4 0.2-0.2 0.301-0.4 0.5-0.7 0.2-0.2 0.301-0.3 0.601-0.5 0.1 0 0.2 0.101 0.3 0.101s0.2 0 0.3-0.101 0.101-0.1 0.101-0.2c0.199-0.199 0.199-0.3 0.199-0.5 0.5-0.199 1.101-0.399 1.7-0.5 0 0.101 0 0.2 0.101 0.2 0.1 0.101 0.3 0.2 0.5 0.2h0.1c0.2 0 0.4-0.1 0.5-0.2 0.1 0 0.1-0.1 0.2-0.2 0.5 0 1 0.2 1.5 0.4 0 0.2 0.1 0.4 0.3 0.5 0 0 0.1 0 0.2 0.1-0.1 0.2 0 0.3 0.2 0.3z" fill="url(#SVGID_72_)"/>
					<radialGradient id="SVGID_73_" gradientUnits="userSpaceOnUse" cy="671.55" cx="15.862" gradientTransform="matrix(1.1465 0 0 -3.1879 572.04 2713.8)" r=".5127">
					<stop stop-color="#fff" offset="0"/>
					<stop stop-color="#fff" offset=".1765"/>
					<stop stop-color="#fff" stop-opacity=".4235" offset=".3059"/>
					<stop stop-color="#fff" stop-opacity=".2314" offset=".4902"/>
					<stop stop-color="#fff" stop-opacity=".0824" offset=".651"/>
					<stop stop-color="#fff" stop-opacity="0" offset="1"/>
				</radialGradient>
				<path d="m590.2 571.4c0.2 0 0.3 0.199 0.399 0.5 0.2 0.3 0.2 0.6 0.2 1.1s-0.1 0.8-0.2 1.1c-0.1 0.301-0.199 0.5-0.399 0.5s-0.3-0.199-0.4-0.5c-0.1-0.3-0.2-0.699-0.2-1.1 0-0.5 0.101-0.8 0.2-1.1 0.1-0.4 0.3-0.5 0.4-0.5z" fill="url(#SVGID_73_)"/>
					<radialGradient id="SVGID_74_" gradientUnits="userSpaceOnUse" cy="691.77" cx="122.38" gradientTransform="matrix(-.0119 1.1465 4.5978 .0478 -2590.6 388.76)" r="1.2004">
					<stop stop-color="#fff" offset="0"/>
					<stop stop-color="#fff" offset=".1765"/>
					<stop stop-color="#fff" stop-opacity=".4235" offset=".3059"/>
					<stop stop-color="#fff" stop-opacity=".2314" offset=".4902"/>
					<stop stop-color="#fff" stop-opacity=".0824" offset=".651"/>
					<stop stop-color="#fff" stop-opacity="0" offset="1"/>
				</radialGradient>
				<path d="m583.1 562.1c0-0.399 0.5-0.699 1.601-0.899 1-0.3 2.3-0.4 3.8-0.4s2.8 0.2 3.8 0.4c1.101 0.3 1.601 0.6 1.601 1 0 0.399-0.5 0.7-1.601 0.899-1 0.301-2.3 0.4-3.8 0.4s-2.8-0.2-3.8-0.5c-1.1-0.2-1.6-0.5-1.6-0.9z" fill="url(#SVGID_74_)"/>
					<radialGradient id="SVGID_75_" gradientUnits="userSpaceOnUse" cy="681.69" cx="123.71" gradientTransform="matrix(-.0102 1.1465 3.2602 .0289 -1631.1 406.79)" r="1.2001">
					<stop stop-color="#fff" offset="0"/>
					<stop stop-color="#fff" offset=".1765"/>
					<stop stop-color="#fff" stop-opacity=".4235" offset=".3059"/>
					<stop stop-color="#fff" stop-opacity=".2314" offset=".4902"/>
					<stop stop-color="#fff" stop-opacity=".0824" offset=".651"/>
					<stop stop-color="#fff" stop-opacity="0" offset="1"/>
				</radialGradient>
				<path d="m590.1 567c1 0 1.9 0.1 2.601 0.4 0.8 0.3 1.1 0.6 1.1 1 0 0.3-0.399 0.699-1.1 1-0.7 0.3-1.601 0.399-2.601 0.3-1.1 0-2-0.101-2.8-0.4s-1.1-0.6-1.1-1c0-0.399 0.399-0.7 1.1-1 0.8-0.2 1.7-0.3 2.8-0.3z" fill="url(#SVGID_75_)"/>
					<radialGradient id="SVGID_76_" gradientUnits="userSpaceOnUse" cy="678.73" cx="126.44" gradientTransform="matrix(-.0973 1.1424 4.3805 .373 -2371.4 180.29)" r=".4518">
					<stop stop-color="#fff" offset="0"/>
					<stop stop-color="#fff" offset=".1765"/>
					<stop stop-color="#fff" stop-opacity=".4235" offset=".3059"/>
					<stop stop-color="#fff" stop-opacity=".2314" offset=".4902"/>
					<stop stop-color="#fff" stop-opacity=".0824" offset=".651"/>
					<stop stop-color="#fff" stop-opacity="0" offset="1"/>
				</radialGradient>
				<path d="m588.1 577.5c0.4-0.1 0.801-0.1 1.4-0.1 0.5 0.1 1 0.199 1.3 0.3 0.4 0.1 0.601 0.2 0.601 0.399 0 0.2-0.2 0.2-0.601 0.301-0.399 0.1-0.8 0.1-1.3 0.1-0.6 0-1-0.1-1.4-0.2-0.399-0.2-0.6-0.3-0.6-0.399 0-0.3 0.2-0.4 0.6-0.4z" fill="url(#SVGID_76_)"/>
					<radialGradient id="SVGID_77_" gradientUnits="userSpaceOnUse" cy="950.89" cx="-202.29" gradientTransform="matrix(-1.1465 0 -.0989 -1.2949 342.22 1801.9)" r="7.825">
					<stop stop-opacity=".8" offset="0"/>
					<stop stop-opacity=".4431" offset=".7412"/>
					<stop stop-opacity="0" offset=".9804"/>
				</radialGradient>
				<path d="m477.7 558.6c0.3 0 0.7-0.1 1.1-0.1 2.8 0 5.3 1.1 7.5 3.3 1.9 1.9 3 4.2 3.4 6.9 0.1 0.3 0.1 0.7 0.1 1.1 0.3 3.101-0.5 5.8-2.3 8s-4.2 3.3-7 3.3c-0.3 0-0.7 0-1-0.1-2.4-0.2-4.5-1.3-6.4-3.3-2.199-2.2-3.399-4.9-3.699-8-0.101-1.5 0.1-3 0.399-4.3 0.4-1.301 1.101-2.601 2.101-3.7 1.5-1.8 3.5-2.8 5.8-3.1z" fill="url(#SVGID_77_)"/>
				<path d="m483.4 566.3c0.1 0.2 0.199 0.3 0.199 0.5l-0.5 5.3s-0.1 0-0.1 0.101l-0.1-0.101 0.5-5.8zm-0.9-1.1s0.1 0 0.2 0.1l-0.5 6.3v0.101s-0.101 0-0.101 0.1l-0.1-0.1-0.1-0.101 0.5-6.6c0 0.1 0 0.1 0.1 0.2zm-1.4-1.1l-0.3 6.5s0 0.101-0.1 0.101h-0.2l-0.1-0.101 0.3-6.6c0.2 0 0.3 0.1 0.4 0.1zm-1.6-0.5l-0.2 6.7v0.101h-0.2c-0.1 0-0.1-0.101-0.1-0.101l0.1-6.8c0.1 0 0.3 0 0.4 0.1zm-3.6 0.4l0.199 6.6h-0.1l-0.1-0.1-0.301-6.4c0.1 0 0.2 0 0.3-0.1zm1.9-0.5l0.101 6.9v0.199h-0.2c-0.101-0.1-0.101-0.1-0.101-0.199l-0.1-6.9h0.3zm-4.3 2.8l0.5 6.4v0.201c-0.1-0.101-0.2-0.2-0.2-0.301l-0.5-5.699c0-0.2 0.1-0.4 0.2-0.6zm1.2-1.4l0.5 7.1-0.101 0.1s-0.1 0-0.1 0.101l-0.1-0.101-0.1-0.1-0.5-6.8c0.2-0.1 0.2-0.2 0.4-0.3z" fill="#333"/>
					<linearGradient id="SVGID_78_" y2="636.71" gradientUnits="userSpaceOnUse" x2="-74.963" gradientTransform="matrix(1.1465 0 0 -1.1465 572.04 1297.8)" y1="636.71" x1="-87.314">
					<stop offset="0"/>
					<stop stop-color="#3C3C3C" offset=".5059"/>
					<stop offset="1"/>
				</linearGradient>
				<path d="m479 560.7c1.9 0 3.6 0.7 5 2.1s2.1 3 2.1 5c0 1.9-0.699 3.601-2.1 5-1.4 1.4-3 2.101-5 2.101-1.9 0-3.6-0.7-5-2.101-1.4-1.399-2.1-3-2.1-5 0-1.899 0.699-3.6 2.1-5 1.4-1.4 3.1-2.1 5-2.1z" fill="url(#SVGID_78_)"/>
					<linearGradient id="SVGID_79_" y2="636.32" gradientUnits="userSpaceOnUse" x2="-75.325" gradientTransform="matrix(1.1465 0 0 -1.1465 572.04 1297.8)" y1="636.32" x1="-87.15">
					<stop offset="0"/>
					<stop stop-color="#696969" offset=".5059"/>
					<stop offset="1"/>
				</linearGradient>
				<path d="m483.7 573c-1.3 1.3-2.9 2-4.8 2s-3.5-0.7-4.801-2c-1.3-1.3-1.899-2.9-1.899-4.8 0-1.8 0.6-3.4 1.899-4.8 1.301-1.301 2.9-1.9 4.801-1.9 1.8 0 3.399 0.6 4.8 1.9 1.3 1.399 2 3 2 4.8 0 2-0.7 3.5-2 4.8z" fill="url(#SVGID_79_)"/>
					<linearGradient id="SVGID_80_" y2="637.45" gradientUnits="userSpaceOnUse" x2="-74.9" gradientTransform="matrix(1.1465 0 0 -1.1465 572.04 1297.8)" y1="637.45" x1="-88.275">
					<stop offset="0"/>
					<stop stop-color="#4A4A4A" offset=".4863"/>
					<stop offset="1"/>
				</linearGradient>
				<path d="m484 571.1v0.2h-10.5v-0.6s0 0.1-0.1 0.1l0.1-0.3c-0.2-0.6-0.3-1.3-0.3-2.1 0-1.601 0.6-2.9 1.7-4.101 1.1-1.199 2.5-1.7 4.1-1.7s2.9 0.601 4 1.7c1.1 1.101 1.7 2.5 1.7 4.101-0.1 1-0.3 1.9-0.7 2.7z" fill="url(#SVGID_80_)"/>
				<path d="m481.1 563.2l-0.199 6.7-0.1 0.1-0.1 0.1s-0.101 0-0.101-0.1c-0.1 0-0.1-0.1-0.1-0.1l0.2-6.801c0.3 0 0.4 0 0.4 0.1zm-1.6-0.5l-0.1 6.8v0.1l-0.1 0.1c-0.1 0-0.1 0-0.1-0.101l-0.101-0.1 0.101-6.8h0.3zm-1.6 0.1l0.1 7.101-0.1 0.1c-0.101 0-0.101 0-0.101-0.1l-0.1-0.101-0.1-6.9c0.1-0.1 0.2-0.1 0.3-0.1zm5.9 2.7l-0.5 5.8-0.1 0.101h-0.2c-0.1 0-0.1-0.101-0.1-0.101l0.5-6.2c0.2 0.1 0.3 0.3 0.4 0.4zm-1.1-1.3l-0.5 6.7v0.199h-0.2c0-0.1-0.1-0.1-0.1-0.199l0.5-6.9c0.1 0 0.2 0.1 0.3 0.2zm-6.7-0.8l0.3 6.399v0.101l-0.1 0.1s-0.101 0-0.101-0.1c-0.1 0-0.1-0.101-0.1-0.101l-0.3-6.2c0.1-0.1 0.2-0.2 0.3-0.2zm-2.4 2.7l0.5 5.601h-0.2l-0.5-5c0-0.3 0.1-0.4 0.2-0.6zm1.1-1.7l0.5 6.8s-0.101 0.1-0.101 0.2h-0.1c0-0.101-0.1-0.101-0.1-0.2l-0.5-6.5 0.3-0.3z"/>
						<radialGradient id="SVGID_81_" gradientUnits="userSpaceOnUse" cy="627.01" cx="-81.488" gradientTransform="matrix(1.1465 0 0 -1.0272 572.04 1214.8)" r="8.2875">
						<stop offset="0"/>
						<stop stop-color="#333" offset="1"/>
					</radialGradient>
					<path d="m483.5 571.3l0.1 1.4c-0.1 1.1-0.6 2.1-1.399 2.899-0.9 0.9-2.101 1.4-3.4 1.4-1.399 0-2.5-0.5-3.399-1.4-1-0.899-1.4-2.1-1.4-3.399v-0.2c0-0.2 0.1-0.4 0.1-0.6 0.101-0.2 0.2-0.4 0.2-0.601 0.2-0.7 0.601-1.399 1.101-1.899 0.899-0.9 2.1-1.4 3.399-1.4 1.4 0 2.5 0.5 3.4 1.4 0.6 0.6 1 1.399 1.3 2.199-0.1 0 0 0.1 0 0.2z" fill="url(#SVGID_81_)"/>
						<line stroke-linejoin="round" y2="572.8" x2="483.6" stroke="#00f" stroke-linecap="round" stroke-miterlimit="3" y1="571.3" x1="483.5" fill="none"/>
						<radialGradient id="SVGID_82_" gradientUnits="userSpaceOnUse" cy="613.88" cx="-81.132" gradientTransform="matrix(1.1464 -.015 0 -.8761 572.03 1108)" r="2.8639">
						<stop stop-color="#535360" offset="0"/>
						<stop stop-color="#2A2A31" offset=".4235"/>
						<stop offset="1"/>
					</radialGradient>
					<path d="m480.4 570.7c0.5 0.399 0.699 0.899 0.699 1.5 0 0.6-0.199 1.1-0.699 1.5-0.4 0.5-0.9 0.7-1.5 0.7-0.601 0-1.101-0.2-1.601-0.601-0.399-0.399-0.6-0.899-0.6-1.5 0-0.6 0.2-1.1 0.6-1.5 0.5-0.5 1-0.7 1.601-0.7 0.6 0 1.1 0.2 1.5 0.6z" fill="url(#SVGID_82_)"/>
					<linearGradient id="SVGID_83_" y2="628.11" gradientUnits="userSpaceOnUse" x2="-81.195" gradientTransform="matrix(1.1465 0 0 -1.1465 572.04 1297.8)" y1="637.78" x1="-81.195">
					<stop stop-color="#333" offset="0"/>
					<stop offset="1"/>
				</linearGradient>
				<path d="m482.9 569.8c-0.2-0.399-0.5-0.8-0.9-1.1-0.3-0.3-0.6-0.5-0.9-0.601-0.699-0.399-1.5-0.6-2.399-0.6h-0.1c-0.8 0-1.6 0.3-2.399 0.7-0.3 0.2-0.601 0.4-0.9 0.7s-0.5 0.7-0.7 1.1c-0.3 0.6-0.5 1.4-0.5 2.2v0.2c0.101 0.8 0.301 1.6 0.801 2.3 0.199 0.3 0.399 0.5 0.699 0.7 0.301 0.3 0.7 0.6 1.101 0.8 0.7 0.3 1.399 0.4 2.2 0.4h0.1c0.8-0.101 1.6-0.301 2.2-0.7 0.3-0.2 0.6-0.5 0.899-0.9 0.301-0.3 0.5-0.6 0.7-0.9 0.4-0.699 0.601-1.5 0.5-2.399v-0.1c0.1-0.5-0.1-1.2-0.4-1.8zm-1.2-2.2c0.2 0 0.3 0 0.399-0.1 0.2 0.1 0.301 0.2 0.5 0.4 0.2 0.199 0.5 0.5 0.7 0.699-0.1 0.101-0.2 0.301-0.1 0.5 0 0.101 0 0.2 0.1 0.301 0.101 0.1 0.101 0.1 0.2 0.199 0.2 0.2 0.3 0.2 0.6 0.2 0.2 0.4 0.301 0.9 0.301 1.4-0.101 0-0.2 0.1-0.2 0.2-0.101 0.2-0.2 0.3-0.2 0.5s0.1 0.399 0.2 0.6c0.1 0.1 0.2 0.1 0.2 0.2 0 0.5-0.2 1-0.301 1.4h-0.1c-0.2 0-0.4 0.1-0.5 0.199 0 0 0 0.101-0.1 0.101-0.101 0.2-0.2 0.3-0.101 0.399 0 0.2 0 0.301 0.101 0.5-0.2 0.2-0.301 0.301-0.4 0.5-0.2 0.2-0.4 0.4-0.6 0.601-0.101-0.101-0.2-0.101-0.4-0.101-0.1 0-0.2 0-0.3 0.101-0.101 0-0.101 0-0.2 0.1-0.2 0.2-0.2 0.3-0.2 0.5l0.101 0.1c-0.4 0.2-0.9 0.301-1.4 0.4 0 0 0-0.1-0.1-0.1-0.2-0.2-0.301-0.2-0.601-0.2h-0.1c-0.2 0-0.3 0.1-0.5 0.3 0 0-0.101 0.1-0.101 0.2-0.5 0-1-0.1-1.5-0.3 0-0.2-0.1-0.4-0.199-0.5-0.101 0-0.2-0.101-0.2-0.101-0.101 0-0.2-0.1-0.4-0.1-0.1 0-0.2 0.1-0.3 0.2-0.3-0.2-0.5-0.4-0.8-0.601-0.101-0.1-0.2-0.199-0.3-0.399 0-0.101 0.1-0.2 0.1-0.4s0-0.3-0.1-0.5l-0.101-0.1c-0.2-0.101-0.3-0.2-0.6-0.2h-0.1c-0.199-0.5-0.399-1-0.5-1.5 0.101 0 0.101 0 0.2-0.1 0.2-0.2 0.2-0.301 0.2-0.5 0-0.2-0.1-0.4-0.3-0.601 0 0-0.101-0.1-0.2-0.2 0-0.5 0.1-1 0.2-1.5 0.2 0 0.399-0.1 0.6-0.3 0 0 0-0.1 0.101-0.1 0.1-0.2 0.1-0.3 0.1-0.4 0-0.2 0-0.3-0.1-0.5 0.199-0.2 0.3-0.399 0.5-0.7 0.199-0.199 0.399-0.3 0.6-0.5 0.1 0 0.2 0.101 0.3 0.101 0.2 0 0.3 0 0.4-0.101l0.1-0.1c0.2-0.2 0.3-0.4 0.2-0.6 0.5-0.2 1.1-0.4 1.7-0.5 0 0.1 0.1 0.1 0.2 0.199 0.1 0.2 0.3 0.2 0.5 0.2h0.1c0.2 0 0.4-0.1 0.6-0.3 0 0 0.101-0.1 0.101-0.2 0.5 0.101 1.1 0.2 1.5 0.4 0 0.2 0.1 0.399 0.3 0.5 0 0 0.1 0.1 0.2 0.1-0.3 0.2-0.1 0.2 0 0.1z" fill="url(#SVGID_83_)"/>
					<radialGradient id="SVGID_84_" gradientUnits="userSpaceOnUse" cy="672.55" cx="-81.138" gradientTransform="matrix(1.1465 0 0 -3.1666 572.04 2701.4)" r=".5246">
					<stop stop-color="#fff" offset="0"/>
					<stop stop-color="#fff" offset=".1765"/>
					<stop stop-color="#fff" stop-opacity=".4235" offset=".3059"/>
					<stop stop-color="#fff" stop-opacity=".2314" offset=".4902"/>
					<stop stop-color="#fff" stop-opacity=".0824" offset=".651"/>
					<stop stop-color="#fff" stop-opacity="0" offset="1"/>
				</radialGradient>
				<path d="m479.5 570.5c0.1 0.3 0.2 0.7 0.2 1.1s-0.101 0.801-0.2 1.101-0.3 0.5-0.5 0.5-0.3-0.2-0.4-0.5c-0.1-0.3-0.199-0.7-0.199-1.101 0-0.399 0.1-0.8 0.199-1.1 0.101-0.3 0.2-0.5 0.4-0.5 0.2 0.1 0.4 0.2 0.5 0.5z" fill="url(#SVGID_84_)"/>
					<radialGradient id="SVGID_85_" gradientUnits="userSpaceOnUse" cy="679.69" cx="29.31" gradientTransform="matrix(-.0949 1.1426 4.3556 .3619 -2479.4 297.25)" r=".464">
					<stop stop-color="#fff" offset="0"/>
					<stop stop-color="#fff" offset=".1765"/>
					<stop stop-color="#fff" stop-opacity=".4235" offset=".3059"/>
					<stop stop-color="#fff" stop-opacity=".2314" offset=".4902"/>
					<stop stop-color="#fff" stop-opacity=".0824" offset=".651"/>
					<stop stop-color="#fff" stop-opacity="0" offset="1"/>
				</radialGradient>
				<path d="m478.3 576.2c0.5 0.1 1 0.2 1.3 0.3 0.4 0.1 0.601 0.2 0.601 0.4 0 0.199-0.2 0.3-0.601 0.3-0.399 0-0.899 0.1-1.399 0-0.601 0-1-0.101-1.4-0.2-0.399-0.2-0.6-0.3-0.6-0.4 0-0.199 0.2-0.3 0.6-0.3 0.4-0.1 0.9-0.1 1.5-0.1z" fill="url(#SVGID_85_)"/>
					<radialGradient id="SVGID_86_" gradientUnits="userSpaceOnUse" cy="669.42" cx="26.821" gradientTransform="matrix(-.0104 1.1465 1.7671 .0161 -703.62 525.38)" r="2.2628">
					<stop stop-color="#fff" offset="0"/>
					<stop stop-color="#fff" offset=".1765"/>
					<stop stop-color="#fff" stop-opacity=".4235" offset=".3059"/>
					<stop stop-color="#fff" stop-opacity=".2314" offset=".4902"/>
					<stop stop-color="#fff" stop-opacity=".0824" offset=".651"/>
					<stop stop-color="#fff" stop-opacity="0" offset="1"/>
				</radialGradient>
				<path d="m476.2 565c0.8-0.5 1.7-0.7 2.8-0.7s2 0.3 2.8 0.7c0.8 0.5 1.101 1.1 1.101 1.8s-0.4 1.3-1.2 1.8c-0.7 0.5-1.601 0.7-2.8 0.7-1.101 0-2-0.3-2.801-0.8-0.8-0.5-1.1-1.1-1.1-1.8 0.1-0.5 0.4-1.2 1.2-1.7z" fill="url(#SVGID_86_)"/>
					<radialGradient id="SVGID_87_" gradientUnits="userSpaceOnUse" cy="664.03" cx="-20.946" gradientTransform="matrix(.744 .8723 1.9078 -1.6271 -775.38 1666.4)" r=".4783">
					<stop stop-color="#fff" offset="0"/>
					<stop stop-color="#fff" offset=".1765"/>
					<stop stop-color="#fff" stop-opacity=".4235" offset=".3059"/>
					<stop stop-color="#fff" stop-opacity=".2314" offset=".4902"/>
					<stop stop-color="#fff" stop-opacity=".0824" offset=".651"/>
					<stop stop-color="#fff" stop-opacity="0" offset="1"/>
				</radialGradient>
				<path d="m476.2 568.1c-0.3 0.2-0.5 0.4-0.7 0.5-0.2 0.101-0.4 0.101-0.5-0.1-0.1-0.1-0.1-0.3 0.1-0.5 0.101-0.2 0.2-0.5 0.5-0.7 0.2-0.2 0.5-0.3 0.7-0.399 0.2-0.101 0.3-0.101 0.5 0.1s0.101 0.3 0 0.5c-0.1 0.2-0.4 0.4-0.6 0.6z" fill="url(#SVGID_87_)"/>
		<path d="m489.82 544.36c-0.372 0-0.669 0.074-0.893 0.224-0.224 0.148-0.447 0.372-0.596 0.67-0.148 0.223-0.148 0.521-0.148 0.893s0.074 0.67 0.224 0.968c0.148 0.224 0.372 0.446 0.595 0.521 0.224 0.149 0.521 0.224 0.818 0.224 0.224 0 0.447 0 0.596-0.074s0.298-0.149 0.446-0.149l0.149 1.042c-0.149 0.074-0.372 0.149-0.596 0.149-0.298 0.074-0.596 0.074-0.968 0.148-0.596 0-1.041-0.148-1.413-0.372-0.447-0.223-0.745-0.521-0.968-0.967-0.224-0.372-0.372-0.894-0.372-1.414 0-0.521 0.148-1.043 0.372-1.415 0.223-0.446 0.596-0.744 1.041-1.041 0.447-0.225 0.968-0.372 1.638-0.372 0.224 0 0.446 0 0.744 0.074 0.224 0.073 0.446 0.148 0.596 0.223l-0.224 1.042c-0.148-0.074-0.223-0.148-0.446-0.148-0.15-0.21-0.37-0.21-0.6-0.21zm24.79 0.08c-0.298 0-0.52 0.075-0.669 0.224-0.223 0.148-0.298 0.372-0.372 0.521 0 0.075-0.075 0.149-0.075 0.224s-0.074 0.148-0.074 0.224v3.125h-1.339v-3.795-0.818c0-0.225 0-0.521-0.074-0.744h1.19l0.074 0.818c0.074-0.149 0.223-0.299 0.372-0.446 0.148-0.149 0.298-0.225 0.521-0.372 0.224-0.075 0.521-0.149 0.818-0.149 0.299 0 0.596 0.074 0.893 0.224 0.298 0.148 0.521 0.372 0.744 0.744 0.225 0.372 0.298 0.818 0.298 1.339v3.2h-1.339v-3.051c0-0.372-0.074-0.744-0.224-0.968-0.16-0.19-0.38-0.27-0.75-0.27zm6.69-1.04v1.041h-1.266v2.382c0 0.372 0.074 0.595 0.149 0.744 0.147 0.149 0.297 0.224 0.521 0.224 0.148 0 0.224 0 0.298-0.074 0.074 0 0.148 0 0.223-0.074v1.041c-0.074 0.075-0.223 0.075-0.372 0.149-0.148 0.074-0.372 0.074-0.595 0.074-0.224 0-0.446-0.074-0.671-0.148-0.223-0.075-0.372-0.224-0.445-0.372-0.149-0.149-0.299-0.372-0.373-0.596-0.073-0.224-0.073-0.521-0.073-0.893v-2.531h-0.819v-1.042h0.819v-1.19l1.339-0.372v1.563h1.266v0.08zm-26.19 4.16c0.149-0.149 0.298-0.298 0.372-0.446 0-0.075 0.074-0.148 0.074-0.224 0-0.074 0.075-0.148 0.075-0.224v-3.273h1.339v3.795 0.894c0 0.223 0 0.521 0.074 0.744h-1.265l-0.074-0.819c-0.074 0.149-0.149 0.224-0.372 0.372-0.149 0.149-0.298 0.298-0.521 0.372-0.223 0.149-0.521 0.149-0.818 0.149-0.372 0-0.67-0.074-0.967-0.224-0.298-0.148-0.521-0.372-0.671-0.744-0.148-0.372-0.223-0.818-0.223-1.339v-3.2h1.34v2.977c0 0.446 0.073 0.818 0.223 1.041 0.149 0.299 0.447 0.447 0.744 0.447 0.32-0.01 0.54-0.15 0.69-0.31zm3.35-3.34c0-0.299 0-0.521-0.074-0.818h1.19l0.074 1.041h0.074c0.148-0.372 0.373-0.669 0.67-0.894 0.223-0.147 0.521-0.223 0.819-0.223h0.147s0.075 0 0.149 0v1.34c-0.074 0-0.149-0.074-0.149-0.074s-0.147 0-0.223 0c-0.372 0-0.596 0.074-0.818 0.223-0.223 0.224-0.372 0.447-0.447 0.744 0 0.075 0 0.149-0.074 0.149v0.223 2.828h-1.339v-3.646-0.89zm9.45 0.22c-0.148 0.149-0.298 0.298-0.372 0.521-0.148 0.223-0.148 0.372-0.148 0.521h2.382c0-0.148 0-0.372-0.075-0.521-0.074-0.224-0.149-0.372-0.372-0.521-0.149-0.148-0.372-0.223-0.669-0.223-0.38 0-0.6 0.07-0.75 0.22zm-2.61-1.12h0.148v1.34c-0.074 0-0.148-0.074-0.148-0.074s-0.148 0-0.224 0c-0.372 0-0.596 0.074-0.818 0.223-0.224 0.224-0.372 0.447-0.446 0.744 0 0.075 0 0.149-0.075 0.149v0.223 2.828h-1.339v-3.646-0.967c0-0.298 0-0.521-0.074-0.819h1.19l0.074 1.042h0.074c0.149-0.372 0.372-0.67 0.67-0.893 0.224-0.149 0.521-0.224 0.819-0.224 0.01 0.08 0.08 0.08 0.15 0.08zm1.05 1.42c0.224-0.446 0.521-0.744 0.894-1.042 0.372-0.297 0.894-0.446 1.415-0.446 0.445 0 0.817 0.074 1.116 0.224 0.297 0.148 0.52 0.372 0.744 0.67 0.147 0.223 0.297 0.521 0.372 0.818 0.074 0.298 0.147 0.595 0.147 0.893 0 0.149 0 0.224-0.073 0.373v0.223h-3.647c0 0.298 0.075 0.595 0.224 0.744 0.148 0.223 0.372 0.372 0.596 0.446 0.223 0.075 0.521 0.149 0.818 0.149 0.298 0 0.595 0 0.819-0.074 0.223-0.075 0.446-0.149 0.669-0.149l0.223 0.968c-0.223 0.074-0.52 0.148-0.818 0.223s-0.67 0.075-1.042 0.149c-0.595 0-1.041-0.149-1.488-0.372-0.372-0.224-0.744-0.521-0.968-0.968-0.223-0.372-0.372-0.894-0.372-1.414 0.07-0.45 0.14-0.97 0.37-1.41z" fill="#202126"/>
		<path d="m610.3 503.6h1.4l-2.4 6.9h-1.4l-2.301-6.9h1.4l1 3.2c0.2 0.4 0.3 0.8 0.3 1.3 0.101 0.4 0.2 0.801 0.3 1.301 0.101-0.4 0.2-0.801 0.301-1.301 0.1-0.399 0.199-0.8 0.399-1.3l1-3.2zm-11.8 2.6c0.1-0.101 0.2-0.2 0.3-0.4 0.2-0.1 0.3-0.2 0.5-0.3s0.4-0.1 0.7-0.2c0.3 0 0.6 0.101 0.9 0.3 0.199 0.2 0.399 0.4 0.5 0.7 0.1-0.2 0.199-0.3 0.3-0.399 0.1-0.101 0.2-0.2 0.3-0.2 0.2-0.101 0.3-0.2 0.5-0.2 0.2-0.1 0.3-0.1 0.6-0.1 0.301 0 0.5 0.1 0.801 0.199 0.199 0.2 0.399 0.4 0.6 0.7s0.2 0.7 0.2 1.3v3h-1.3v-2.8c0-0.399-0.101-0.7-0.2-1-0.2-0.2-0.4-0.399-0.7-0.399-0.2 0-0.4 0.1-0.6 0.199-0.2 0.101-0.301 0.301-0.301 0.5v0.2c0 0.101-0.1 0.2-0.1 0.2v3h-1.2v-2.9c0-0.3-0.1-0.6-0.2-0.899-0.199-0.2-0.399-0.3-0.6-0.3-0.3 0-0.5 0.1-0.6 0.2-0.2 0.199-0.2 0.3-0.301 0.5 0 0.1-0.1 0.1-0.1 0.199 0 0.101-0.1 0.2-0.1 0.2v3h-1.2v-3.6-0.7c0-0.3 0-0.5-0.101-0.7h1.101l0.3 0.7z" fill="#202126"/>
		<path d="m603.6 522c0.2 0.2 0.4 0.4 0.601 0.7s0.2 0.7 0.2 1.3v3h-1.3v-2.8c0-0.4-0.1-0.7-0.199-1-0.2-0.2-0.4-0.4-0.7-0.4-0.2 0-0.4 0.101-0.601 0.2-0.199 0.1-0.3 0.3-0.3 0.5v0.2c0 0.1-0.1 0.2-0.1 0.2v3h-1.2v-2.9c0-0.3-0.1-0.6-0.2-0.9-0.2-0.199-0.399-0.3-0.6-0.3-0.3 0-0.5 0.101-0.601 0.2-0.199 0.2-0.199 0.3-0.3 0.5 0 0.1-0.1 0.1-0.1 0.2s-0.101 0.2-0.101 0.2v3h-1.2v-3.6-0.7c0-0.3 0-0.5-0.101-0.699h1.101l0.1 0.699h0.1c0.101-0.1 0.2-0.199 0.301-0.399 0.199-0.101 0.3-0.2 0.5-0.3 0.199-0.101 0.399-0.101 0.699-0.2 0.301 0 0.601 0.1 0.9 0.3 0.2 0.2 0.4 0.4 0.5 0.7 0.1-0.2 0.2-0.3 0.3-0.4 0.101-0.1 0.2-0.2 0.3-0.2 0.2-0.1 0.301-0.199 0.5-0.199 0.2-0.101 0.301-0.101 0.601-0.101 0.4-0.1 0.6 0 0.9 0.2zm4.4 0.2l-0.5 1.7h1.8l-0.6-1.7c-0.101-0.2-0.101-0.4-0.2-0.601-0.1-0.199-0.1-0.5-0.2-0.699-0.1 0.199-0.1 0.5-0.2 0.699 0 0.2 0 0.5-0.1 0.6zm-0.4-2.2h1.601l2.2 6.9h-1.3l-0.6-1.9h-2.2l-0.6 1.9h-1.3l2.2-6.9z" fill="#202126"/>
		<path d="m575.4 543.4h1.399l0.8 2.6c0.101 0.2 0.2 0.4 0.2 0.6s0.101 0.4 0.101 0.601h0.1c0-0.2 0.1-0.4 0.1-0.601 0.101-0.199 0.2-0.399 0.2-0.6l0.7-2.6h1.4l-1.9 5h-1.2l-1.9-5zm32.1 2c0-0.2 0-0.301-0.1-0.5-0.101-0.2-0.2-0.4-0.301-0.5-0.199-0.101-0.399-0.2-0.6-0.2s-0.5 0.1-0.6 0.2c-0.2 0.199-0.301 0.3-0.4 0.5-0.1 0.199-0.1 0.399-0.1 0.6h2.1v-0.1zm0.7-1.3c0.2 0.2 0.3 0.5 0.3 0.7 0.1 0.3 0.1 0.601 0.1 0.9v0.3s-0.1 0.1-0.1 0.2h-3.3c0 0.3 0.1 0.6 0.2 0.7 0.1 0.199 0.3 0.3 0.5 0.5 0.199 0.1 0.5 0.1 0.699 0.1 0.301 0 0.601 0 0.801-0.1 0.199 0 0.399-0.101 0.6-0.2l0.2 0.899c-0.2 0.101-0.5 0.2-0.7 0.2-0.3 0.101-0.6 0.101-1 0.101-0.6 0-1.1-0.101-1.4-0.301-0.399-0.199-0.699-0.5-0.899-0.899-0.2-0.4-0.3-0.8-0.3-1.3s0.1-0.9 0.3-1.301c0.2-0.399 0.5-0.8 0.899-1 0.301-0.199 0.801-0.399 1.301-0.399 0.399 0 0.8 0.1 1 0.2 0.4 0.3 0.6 0.5 0.8 0.7zm-24.1 0.4c-0.199-0.2-0.399-0.2-0.699-0.2-0.301 0-0.601 0.101-0.7 0.2-0.2 0.2-0.3 0.4-0.4 0.6-0.1 0.301-0.1 0.5-0.1 0.801 0 0.3 0.1 0.6 0.2 0.899 0.1 0.3 0.199 0.5 0.399 0.601 0.2 0.199 0.4 0.199 0.7 0.199 0.2 0 0.4-0.1 0.6-0.199 0.2-0.2 0.301-0.301 0.5-0.601 0.101-0.3 0.101-0.6 0.101-0.899 0-0.301 0-0.5-0.101-0.801-0.2-0.2-0.3-0.4-0.5-0.6zm0.7-0.9c0.3 0.2 0.601 0.5 0.9 0.9 0.2 0.4 0.3 0.8 0.3 1.3 0 0.601-0.1 1.101-0.3 1.5-0.3 0.4-0.601 0.7-1 0.9-0.4 0.2-0.8 0.3-1.3 0.3s-0.9-0.1-1.301-0.3c-0.399-0.2-0.699-0.5-0.899-0.9-0.2-0.399-0.3-0.8-0.3-1.399 0-0.601 0.1-1.101 0.3-1.4 0.2-0.4 0.5-0.7 0.899-0.9 0.4-0.2 0.801-0.3 1.4-0.3 0.5 0 0.9 0.1 1.3 0.3zm2.2-2.5h1.3v7.301h-1.3v-7.3zm14.4 3.4c-0.2-0.2-0.4-0.2-0.7-0.2s-0.601 0.2-0.9 0.5c-0.2 0.3-0.3 0.7-0.3 1.2 0 0.3 0 0.6 0.1 0.8 0.101 0.2 0.2 0.4 0.4 0.5 0.2 0.2 0.4 0.2 0.7 0.2s0.5-0.1 0.6-0.2c0.2-0.1 0.3-0.3 0.4-0.5 0-0.1 0.1-0.2 0.1-0.2v-0.199-0.8-0.199s0-0.101-0.1-0.101c0-0.4-0.2-0.7-0.3-0.8zm0.6-1.1h1.1c0 0.199 0 0.399-0.1 0.6v0.9 2.8c0 0.5-0.1 1-0.2 1.399-0.1 0.4-0.3 0.7-0.6 0.9s-0.601 0.4-0.9 0.5-0.6 0.2-1 0.2c-0.3 0-0.6 0-0.899-0.1-0.301-0.101-0.601-0.2-0.801-0.301l0.301-1c0.199 0.101 0.399 0.2 0.6 0.2 0.2 0.101 0.5 0.101 0.8 0.101s0.601 0 0.7-0.101c0.2-0.1 0.4-0.3 0.5-0.5s0.2-0.5 0.2-0.899v-0.4c-0.2 0.2-0.3 0.4-0.601 0.5-0.3 0.1-0.6 0.2-0.899 0.2-0.4 0-0.8-0.101-1.101-0.3-0.3-0.2-0.6-0.5-0.699-0.9-0.2-0.4-0.301-0.8-0.301-1.3 0-0.601 0.2-1.101 0.301-1.4 0.199-0.4 0.5-0.7 0.8-0.9 0.3-0.199 0.7-0.3 1.1-0.3s0.7 0.101 0.9 0.3c0.2 0.2 0.399 0.301 0.5 0.5h0.1l0.2-0.7zm-7.6 2.9c-0.2 0.2-0.2 0.4-0.2 0.601 0 0.199 0.1 0.399 0.2 0.5 0.199 0.1 0.3 0.199 0.5 0.199 0.3 0 0.5-0.1 0.699-0.199 0.2-0.101 0.301-0.301 0.301-0.5v-0.1-0.2-0.6c-0.301 0-0.601 0-0.9 0.1-0.2 0-0.4 0.1-0.6 0.2zm-2.1-2.9v1h-1.2v2.199c0 0.301 0.101 0.5 0.2 0.7 0.101 0.2 0.2 0.2 0.5 0.2 0.101 0 0.2 0 0.3-0.1h0.2l0.101 1c-0.101 0-0.2 0.1-0.4 0.1s-0.3 0.1-0.5 0.1c-0.3 0-0.5 0-0.6-0.1-0.2-0.1-0.301-0.2-0.5-0.3-0.2-0.2-0.301-0.3-0.301-0.6 0-0.2-0.1-0.5-0.1-0.9v-2.4h-0.7v-1h0.7v-1.1l1.2-0.3v1.399h1.1v0.1zm2.8-0.1c0.5 0 1 0.2 1.301 0.3 0.3 0.2 0.5 0.4 0.6 0.7s0.2 0.7 0.2 1v1.8 0.601s0.1 0.399 0.1 0.6h-1.1l-0.101-0.6h-0.1c-0.2 0.2-0.4 0.399-0.6 0.5-0.2 0.1-0.5 0.2-0.9 0.2s-0.6-0.101-0.9-0.2c-0.199-0.2-0.399-0.3-0.5-0.5-0.1-0.2-0.199-0.5-0.199-0.7 0-0.6 0.3-1.1 0.8-1.4s1.2-0.5 2.2-0.5v-0.1c0-0.1 0-0.2-0.101-0.3-0.1-0.2-0.2-0.3-0.3-0.3-0.1-0.101-0.3-0.2-0.6-0.2-0.301 0-0.5 0-0.7 0.1s-0.4 0.2-0.601 0.3l-0.2-0.9c0.199-0.101 0.399-0.2 0.699-0.301 0.3-0.1 0.6-0.1 1-0.1z" fill="#202126"/>
</svg>
