<?xml version="1.0" encoding="utf-8"?>
<!-- Generator: Adobe Illustrator 16.0.0, SVG Export Plug-In . SVG Version: 6.00 Build 0)  -->
<!DOCTYPE svg PUBLIC "-//W3C//DTD SVG 1.1//EN" "http://www.w3.org/Graphics/SVG/1.1/DTD/svg11.dtd">
<svg version="1.1" id="Layer_1" xmlns="http://www.w3.org/2000/svg" xmlns:xlink="http://www.w3.org/1999/xlink" x="0px" y="0px"
	 width="7px" height="7px" viewBox="0 0 7 7" enable-background="new 0 0 7 7" xml:space="preserve">
<g>
	<g>
		<g>
			<g>
				<g>
					<radialGradient id="SVGID_1_" cx="3.5" cy="3.4502" r="3.3625" gradientUnits="userSpaceOnUse">
						<stop  offset="0" style="stop-color:#000000"/>
						<stop  offset="1" style="stop-color:#2F1A17"/>
					</radialGradient>
					<path fill-rule="evenodd" clip-rule="evenodd" fill="url(#SVGID_1_)" d="M6.7,3.6C6.6,4.5,6.3,5.2,5.8,5.8
						C5.1,6.3,4.3,6.7,3.5,6.7c-0.9,0-1.6-0.3-2.3-0.9c-0.5-0.6-0.8-1.2-0.8-2C0.3,3.7,0.3,3.6,0.3,3.4c0-0.8,0.3-1.6,1-2.2
						c0.7-0.6,1.4-0.9,2.3-0.9c0.8,0,1.6,0.3,2.3,0.9c0.6,0.6,0.9,1.4,0.9,2.2C6.7,3.5,6.7,3.6,6.7,3.6z M6.3,3.4V3.3
						c0-0.8-0.3-1.4-0.8-2C4.8,0.7,4.1,0.5,3.3,0.5C2.6,0.5,2,0.7,1.4,1.3c-0.6,0.6-0.9,1.2-0.9,2c0,0.1,0,0.2,0,0.3
						c0,0.6,0.3,1.2,0.9,1.7C2,5.9,2.6,6.2,3.3,6.2c0.8,0,1.5-0.3,2.2-0.8C6,4.8,6.2,4.2,6.3,3.4z"/>
					<radialGradient id="SVGID_2_" cx="3" cy="2.3999" r="4.675" gradientUnits="userSpaceOnUse">
						<stop  offset="0" style="stop-color:#FFECF0"/>
						<stop  offset="0.2314" style="stop-color:#EA3158"/>
						<stop  offset="0.4196" style="stop-color:#DE062D"/>
						<stop  offset="0.7333" style="stop-color:#CE142D"/>
						<stop  offset="1" style="stop-color:#A50C1F"/>
					</radialGradient>
					<path fill-rule="evenodd" clip-rule="evenodd" fill="url(#SVGID_2_)" d="M6.3,3.4c0,0.8-0.3,1.4-0.8,1.9
						C4.8,5.9,4.1,6.2,3.3,6.2C2.6,6.2,2,5.9,1.4,5.3C0.8,4.8,0.5,4.2,0.5,3.6c0-0.1,0-0.2,0-0.3c0-0.8,0.3-1.4,0.9-2
						C2,0.7,2.6,0.5,3.3,0.5c0.8,0,1.5,0.3,2.2,0.8c0.5,0.6,0.8,1.2,0.8,2V3.4z"/>
				</g>
			</g>
			<g>
				<g>
					<radialGradient id="SVGID_3_" cx="1.3999" cy="3.75" r="1.051" gradientUnits="userSpaceOnUse">
						<stop  offset="0" style="stop-color:#FFFFFF"/>
						<stop  offset="0.1765" style="stop-color:#FFFFFF"/>
						<stop  offset="0.3059" style="stop-color:#FFFFFF;stop-opacity:0.4235"/>
						<stop  offset="0.4902" style="stop-color:#FFFFFF;stop-opacity:0.2314"/>
						<stop  offset="0.651" style="stop-color:#FFFFFF;stop-opacity:8.235294e-002"/>
						<stop  offset="1" style="stop-color:#FFFFFF;stop-opacity:0"/>
					</radialGradient>
					<path fill-rule="evenodd" clip-rule="evenodd" fill="url(#SVGID_3_)" d="M0.4,3.8c0-0.3,0.1-0.5,0.3-0.7
						c0.2-0.1,0.4-0.2,0.8-0.2C1.7,2.9,1.9,2.9,2,3c0.2,0.2,0.4,0.4,0.4,0.7C2.4,4,2.3,4.3,2,4.5C1.9,4.7,1.7,4.8,1.4,4.8
						c-0.3,0-0.6-0.1-0.8-0.3C0.5,4.3,0.4,4,0.4,3.8z"/>
				</g>
			</g>
		</g>
	</g>
</g>
</svg>
