<?xml version="1.0" encoding="utf-8"?>
<!-- Generator: Adobe Illustrator 16.0.0, SVG Export Plug-In . SVG Version: 6.00 Build 0)  -->
<!DOCTYPE svg PUBLIC "-//W3C//DTD SVG 1.1//EN" "http://www.w3.org/Graphics/SVG/1.1/DTD/svg11.dtd">
<svg version="1.1" id="Layer_2" xmlns="http://www.w3.org/2000/svg" xmlns:xlink="http://www.w3.org/1999/xlink" x="0px" y="0px"
	 width="700px" height="700px" viewBox="0 0 700 700" enable-background="new 0 0 700 700" xml:space="preserve">
<g>
	<g>
		<path fill-rule="evenodd" clip-rule="evenodd" fill-opacity="0.149" d="M635.1,538.6H647c0.3,0,0.5,0.1,0.7,0.2
			c0.2,0.1,0.4,0.3,0.6,0.5c16.2,20.6,22.4,36.4,18.6,47.5c-0.2,0.4-0.4,0.7-0.9,1c-0.5,0.2-0.9,0.2-1.3,0.1c-0.5-0.2-0.8-0.4-1-0.9
			c-0.2-0.5-0.3-0.9-0.1-1.3c3.1-10.1-2.8-24.6-17.5-43.6h-11.1c-0.5,0-0.9-0.2-1.2-0.5c-0.3-0.3-0.5-0.7-0.5-1.2s0.2-0.9,0.5-1.2
			C634.3,538.8,634.7,538.6,635.1,538.6z M605.9,517.8c0.3-0.3,0.8-0.5,1.3-0.5c0.5,0,0.9,0.2,1.2,0.6c0.3,0.3,0.4,0.8,0.4,1.3
			c-1.3,22.2,0.2,37.9,4.5,46.8c4.2,8.7,7.6,14,10.3,16c3.6,2.5,5.1,4.8,4.4,6.9c-0.2,1.1,0,2.3,0.6,3.6l-0.1-0.1
			c1,2.1-3.4,5.3-13.2,9.7c6.9-0.6,14.6-0.3,23,1c0.5,0,0.8,0.3,1.1,0.7c0.3,0.3,0.4,0.8,0.3,1.3c-0.1,0.5-0.3,0.8-0.7,1.1
			c-0.4,0.3-0.8,0.4-1.3,0.3c-8.4-1.3-16-1.6-22.8-0.9c-0.5,0-0.9-0.1-1.3-0.4c-0.4-0.3-0.6-0.7-0.6-1.1c0-0.4,0.1-0.8,0.3-1.1
			c-2.8,1.2-5.8,2.4-9.3,3.8c-3.6,1.4-5.8,2.7-6.7,3.7c0,0-0.1,0.1-0.1,0.1c0.2,0.3,0.7,0.6,1.4,1c4.5,2.1,15.2,3.6,32,4.7
			c0,0,0.1,0,0.2,0.1c19.6,2.8,33.7,2.4,42.2-1.4c0.4-0.2,0.9-0.2,1.3-0.1c0.5,0.2,0.8,0.5,1,0.9c0.2,0.4,0.2,0.9,0,1.3
			c-0.2,0.4-0.5,0.7-0.9,1c-9,4-23.7,4.5-44.1,1.6c-17.5-1.2-28.6-2.8-33.1-5c-1.6-0.8-2.6-1.6-3-2.4c-0.7-1.2-0.7-2.4,0.2-3.7
			c1-1.6,3.7-3.2,8.3-5c15.2-5.9,22.6-9.1,22.4-9.6c-0.9-2-1.2-3.9-0.8-5.6v-0.1c0-0.8-1.1-2-3-3.4c-3-2.1-6.8-7.8-11.4-17.3
			c-4.6-9.3-6.2-25.5-4.8-48.6C605.4,518.5,605.6,518.1,605.9,517.8z M626,463.8c-0.3,0.2-0.6,0.3-1,0.3l-30.1,0.1
			c-0.6,0.3-1.3,0.7-2.1,1.2c-2.9,1.6-4.6,2.4-5.1,2.4c-18,0.5-38.3,0.7-60.8,0.6c-22.5-0.2-35-0.2-37.3-0.1c-2.4,0.1-4.4-1.1-6-3.4
			h-24.8c-0.5,0-0.9-0.2-1.2-0.5c-0.3-0.3-0.5-0.7-0.5-1.2c0-0.5,0.2-0.9,0.5-1.2c0.3-0.3,0.7-0.5,1.2-0.5h51.8
			c0.5,0,0.9,0.2,1.2,0.5c0.3,0.3,0.5,0.7,0.5,1.2c0,0,0,0.1,0,0.1c1.6,0,1.9,0.2,1,0.5l-0.4,0.2c32,0.7,53.1,0.5,63.3-0.7
			c7.9-1,12.8-1.5,14.9-1.5c0.1-0.2,0.2-0.3,0.3-0.5c0.3-0.3,0.7-0.5,1.2-0.5l32.3-0.1C625.3,461.8,625.7,462.9,626,463.8z"/>
	</g>
	<g>
		<path fill-rule="evenodd" clip-rule="evenodd" fill="#B1B5B0" d="M623.6,535.2L623.6,535.2c4,11.7,7.3,24,9.9,36.8
			c3,14.2-5.4,24.8-25.3,31.9c-3.1,1.1-5.4,2.1-6.7,3c4.2,1.9,14.4,3.3,30.4,4.4c0.8,0,1.5,0.4,2,1c0.5,0.6,0.7,1.3,0.7,2.1
			c0,0.8-0.4,1.5-1,2c-0.6,0.5-1.3,0.7-2.1,0.7c-17.9-1.1-28.9-2.9-33.1-5.2c-1.9-1-3-2.1-3.3-3.3c-0.7-1.6-0.3-3.2,1.3-4.8
			c1.3-1.6,4.6-3.4,9.8-5.2h-0.1c16.3-5.8,23.5-14.3,21.6-25.5c-2.5-12.6-5.7-24.6-9.7-36c-3.7-10.8-7.3-17.4-10.6-19.8
			c-0.6-0.5-1.1-1.1-1.2-1.8c-0.2-0.8,0-1.5,0.5-2.2c0.4-0.6,1-1.1,1.8-1.2c0.8-0.2,1.5,0,2.1,0.5
			C615,515.1,619.3,522.7,623.6,535.2z"/>
	</g>
	<g>
		<g>
			<g>
				<polygon fill-rule="evenodd" clip-rule="evenodd" fill="#693D11" points="491,460 491,458.1 491.7,457.7 491.7,459.6 				"/>
				<rect x="415.2" y="458.1" fill-rule="evenodd" clip-rule="evenodd" fill="#9F5E1C" width="75.8" height="1.9"/>
				<polygon fill-rule="evenodd" clip-rule="evenodd" fill="#C96A0B" points="491,458.1 415.2,458.1 415.6,457.7 491.7,457.7 				
					"/>
			</g>
		</g>
		<g>
			<g>
				
					<linearGradient id="SVGID_1_" gradientUnits="userSpaceOnUse" x1="202.5752" y1="51.5" x2="202.5752" y2="63.1" gradientTransform="matrix(1.1465 0 0 1.1465 347.7999 393.1505)">
					<stop  offset="0" style="stop-color:#000000"/>
					<stop  offset="0.1412" style="stop-color:#303030"/>
					<stop  offset="0.2784" style="stop-color:#777777"/>
					<stop  offset="0.3647" style="stop-color:#616161"/>
					<stop  offset="0.5882" style="stop-color:#2B2B2B"/>
					<stop  offset="0.6353" style="stop-color:#202020"/>
					<stop  offset="0.8275" style="stop-color:#000000"/>
					<stop  offset="1" style="stop-color:#000000"/>
				</linearGradient>
				<path fill-rule="evenodd" clip-rule="evenodd" fill="url(#SVGID_1_)" d="M575.4,451.9h10.7c-0.4,0-0.7,0.6-1,1.9
					c-0.3,1.1-0.4,2.6-0.4,4.4c0,0.1,0,0.2,0,0.3c0,1.9,0.1,3.5,0.4,4.7c0.2,1,0.5,1.6,0.8,1.8h-10.1h-0.5c-0.3-0.2-0.6-0.8-0.8-1.8
					c-0.3-1.2-0.4-2.8-0.4-4.7c0-0.1,0-0.2,0-0.3c0-1.8,0.1-3.3,0.4-4.4C574.7,452.5,575.1,451.9,575.4,451.9z"/>
				
					<linearGradient id="SVGID_2_" gradientUnits="userSpaceOnUse" x1="157.9248" y1="51.1748" x2="157.9248" y2="62.6245" gradientTransform="matrix(1.1465 0 0 1.1465 347.7999 393.1505)">
					<stop  offset="2.745098e-002" style="stop-color:#474747"/>
					<stop  offset="9.803922e-002" style="stop-color:#FFFFFF"/>
					<stop  offset="0.2118" style="stop-color:#A8A5A5"/>
					<stop  offset="0.3608" style="stop-color:#E7DADA"/>
					<stop  offset="0.3765" style="stop-color:#FFFFFF"/>
					<stop  offset="0.5333" style="stop-color:#FFFFFF"/>
					<stop  offset="0.5569" style="stop-color:#DBD7D7"/>
					<stop  offset="0.7098" style="stop-color:#7F7D7D"/>
					<stop  offset="0.8784" style="stop-color:#414141"/>
					<stop  offset="1" style="stop-color:#000000"/>
					<stop  offset="1" style="stop-color:#000000"/>
				</linearGradient>
				<path fill-rule="evenodd" clip-rule="evenodd" fill="url(#SVGID_2_)" d="M575.2,465H484h-0.5c-0.3-0.2-0.6-0.8-0.8-1.8
					c-0.3-1.2-0.4-2.8-0.4-4.7c0-1.9,0.1-3.5,0.4-4.7c0.3-1.3,0.6-1.9,1-1.9h91.7c-0.4,0-0.7,0.6-1,1.9c-0.3,1.1-0.4,2.6-0.4,4.4
					c0,0.1,0,0.2,0,0.3c0,1.9,0.1,3.5,0.4,4.7C574.6,464.1,574.9,464.8,575.2,465z"/>
				
					<linearGradient id="SVGID_3_" gradientUnits="userSpaceOnUse" x1="224.6245" y1="56.2998" x2="224.6245" y2="61.2998" gradientTransform="matrix(1.1465 0 0 1.1465 347.7999 393.1505)">
					<stop  offset="0" style="stop-color:#2B2B2B"/>
					<stop  offset="1" style="stop-color:#000000"/>
				</linearGradient>
				<path fill-rule="evenodd" clip-rule="evenodd" fill="url(#SVGID_3_)" d="M605.3,455.3l0.2,0.1c0.2,0.2,0.2,0.4,0.3,0.8
					c0.2,0.6,0.2,1.3,0.2,2.2c0,0.9-0.1,1.7-0.2,2.2c0,0.4-0.1,0.7-0.3,0.9h-0.3c-0.1-0.1-0.2-0.4-0.3-0.9c-0.1-0.6-0.2-1.4-0.2-2.2
					c0-0.8,0.1-1.5,0.2-2.2C605,455.7,605.2,455.4,605.3,455.3z"/>
				
					<linearGradient id="SVGID_4_" gradientUnits="userSpaceOnUse" x1="219.7251" y1="55.1001" x2="219.7251" y2="59.5001" gradientTransform="matrix(1.1465 0 0 1.1465 347.7999 393.1505)">
					<stop  offset="0" style="stop-color:#000000"/>
					<stop  offset="0.1412" style="stop-color:#303030"/>
					<stop  offset="0.2784" style="stop-color:#777777"/>
					<stop  offset="0.3647" style="stop-color:#616161"/>
					<stop  offset="0.5882" style="stop-color:#2B2B2B"/>
					<stop  offset="0.6353" style="stop-color:#202020"/>
					<stop  offset="0.8275" style="stop-color:#000000"/>
					<stop  offset="1" style="stop-color:#000000"/>
				</linearGradient>
				<path fill-rule="evenodd" clip-rule="evenodd" fill="url(#SVGID_4_)" d="M594.8,455.3h10.5c-0.2,0-0.3,0.3-0.5,0.9
					c-0.1,0.6-0.2,1.4-0.2,2.2c0,0.9,0.1,1.6,0.2,2.2c0.1,0.5,0.2,0.7,0.3,0.9h-10.3l0.1-0.1l-0.3,0.1c-0.1-0.1-0.2-0.4-0.3-0.9
					c-0.1-0.6-0.2-1.4-0.2-2.2c0-0.1,0-0.2,0-0.3c0-0.7,0.1-1.3,0.2-1.9C594.5,455.7,594.6,455.3,594.8,455.3z"/>
				
					<linearGradient id="SVGID_5_" gradientUnits="userSpaceOnUse" x1="210.9497" y1="57.3999" x2="210.9497" y2="61.9999" gradientTransform="matrix(1.1465 0 0 1.1465 347.7999 393.1505)">
					<stop  offset="0" style="stop-color:#2C2C2C"/>
					<stop  offset="1" style="stop-color:#000000"/>
				</linearGradient>
				<path fill-rule="evenodd" clip-rule="evenodd" fill="url(#SVGID_5_)" d="M584.7,458.2h9.5c0,0.1,0,0.2,0,0.3
					c0,0.9,0.1,1.6,0.2,2.2c0.1,0.5,0.2,0.7,0.3,0.9l-8.2,3.4h-0.1h-0.5c-0.3-0.2-0.6-0.8-0.8-1.8c-0.3-1.2-0.4-2.8-0.4-4.7
					C584.7,458.3,584.7,458.2,584.7,458.2z"/>
				
					<linearGradient id="SVGID_6_" gradientUnits="userSpaceOnUse" x1="210.5854" y1="55.937" x2="211.7091" y2="51.7617" gradientTransform="matrix(1.1465 0 0 1.1465 347.7999 393.1505)">
					<stop  offset="0" style="stop-color:#2C2C2C"/>
					<stop  offset="1" style="stop-color:#000000"/>
				</linearGradient>
				<path fill-rule="evenodd" clip-rule="evenodd" fill="url(#SVGID_6_)" d="M586.1,451.9l8.7,3.5c-0.2,0-0.3,0.3-0.5,0.9
					c-0.1,0.6-0.2,1.2-0.2,1.9h-9.5c0-1.8,0.1-3.3,0.4-4.4C585.4,452.5,585.7,451.9,586.1,451.9z"/>
			</g>
		</g>
		<g>
			
				<radialGradient id="SVGID_7_" cx="224.2002" cy="56.7495" r="2.2504" gradientTransform="matrix(1.1465 0 0 1.1465 347.7999 393.1505)" gradientUnits="userSpaceOnUse">
				<stop  offset="0" style="stop-color:#FFFFFF;stop-opacity:0.2196"/>
				<stop  offset="1" style="stop-color:#FFFFFF;stop-opacity:0"/>
			</radialGradient>
			<path fill-rule="evenodd" clip-rule="evenodd" fill="url(#SVGID_7_)" d="M604.9,455.4c0.1,0,0.1,0,0.2,0.1c0.1,0,0.1,0,0.1,0.1
				c0,0.1,0,0.1,0,0.2c-0.6,0.8-0.7,2.5-0.2,5c0,0,0,0.1-0.1,0.2c0,0-0.1,0.1-0.1,0.1c-0.1,0-0.1,0-0.2-0.1c-0.1,0-0.1-0.1-0.1-0.1
				c-0.4-2.6-0.3-4.4,0.3-5.3C604.8,455.4,604.8,455.4,604.9,455.4z"/>
		</g>
		<g>
			
				<radialGradient id="SVGID_8_" cx="206.1001" cy="55.6499" r="5.2375" gradientTransform="matrix(1.1465 0 0 1.1465 347.7999 393.1505)" gradientUnits="userSpaceOnUse">
				<stop  offset="0" style="stop-color:#FFFFFF;stop-opacity:0.2196"/>
				<stop  offset="1" style="stop-color:#FFFFFF;stop-opacity:0"/>
			</radialGradient>
			<path fill-rule="evenodd" clip-rule="evenodd" fill="url(#SVGID_8_)" d="M584.4,451.9L584.4,451.9l1.1-0.1c0,0.1,0,0.2,0,0.4
				c-1.2,3.9-1.2,8,0,12.1c0,0.1,0,0.2-0.1,0.4c-0.1,0.1-0.2,0.2-0.3,0.3c-0.2,0-0.3,0-0.5-0.1c-0.1-0.1-0.2-0.2-0.2-0.3
				C583.2,460.3,583.2,456,584.4,451.9z"/>
		</g>
		<g>
			
				<radialGradient id="SVGID_9_" cx="211" cy="54.6001" r="3.5203" gradientTransform="matrix(1.1081 0.2941 -8.638679e-002 0.3254 360.6135 375.9164)" gradientUnits="userSpaceOnUse">
				<stop  offset="0" style="stop-color:#FFFFFF"/>
				<stop  offset="0.1922" style="stop-color:#FFFFFF"/>
				<stop  offset="0.2824" style="stop-color:#FFFFFF;stop-opacity:0.7529"/>
				<stop  offset="0.4157" style="stop-color:#FFFFFF;stop-opacity:0.6"/>
				<stop  offset="0.5882" style="stop-color:#FEFEFE;stop-opacity:0.3647"/>
				<stop  offset="0.8157" style="stop-color:#FCFCFC;stop-opacity:0.1059"/>
				<stop  offset="1" style="stop-color:#F9F9F9;stop-opacity:0"/>
			</radialGradient>
			<path fill-rule="evenodd" clip-rule="evenodd" fill="url(#SVGID_9_)" d="M589.4,456.8c-1.1-0.3-1.9-0.6-2.6-1
				c-0.7-0.4-1-0.8-0.9-1.1c0.1-0.3,0.5-0.5,1.4-0.5c0.8,0,1.7,0.1,2.8,0.4c1,0.3,1.9,0.6,2.6,1.1c0.7,0.4,0.9,0.8,0.9,1.1
				s-0.5,0.5-1.3,0.5C591.4,457.3,590.5,457.1,589.4,456.8z"/>
		</g>
		<g>
			
				<radialGradient id="SVGID_10_" cx="206.6494" cy="54.75" r="2.2376" gradientTransform="matrix(-5.011576e-008 1.1465 -0.3523 -1.539870e-008 604.0139 218.9955)" gradientUnits="userSpaceOnUse">
				<stop  offset="0" style="stop-color:#FFFFFF"/>
				<stop  offset="0.1922" style="stop-color:#FFFFFF"/>
				<stop  offset="0.2824" style="stop-color:#FFFFFF;stop-opacity:0.7529"/>
				<stop  offset="0.4157" style="stop-color:#FFFFFF;stop-opacity:0.6"/>
				<stop  offset="0.5882" style="stop-color:#FEFEFE;stop-opacity:0.3647"/>
				<stop  offset="0.8157" style="stop-color:#FCFCFC;stop-opacity:0.1059"/>
				<stop  offset="1" style="stop-color:#F9F9F9;stop-opacity:0"/>
			</radialGradient>
			<path fill-rule="evenodd" clip-rule="evenodd" fill="url(#SVGID_10_)" d="M584,455.9c0-0.7,0.1-1.3,0.2-1.8
				c0.2-0.5,0.3-0.7,0.6-0.7c0.2,0,0.4,0.2,0.6,0.7c0.1,0.5,0.2,1.1,0.2,1.8c0,0.7-0.1,1.3-0.2,1.8c-0.2,0.5-0.3,0.7-0.6,0.7
				c-0.2,0-0.4-0.2-0.6-0.7C584,457.2,584,456.6,584,455.9z"/>
		</g>
		<g>
			
				<radialGradient id="SVGID_11_" cx="214.8501" cy="56.2998" r="1.375" gradientTransform="matrix(-5.011576e-008 1.1465 -0.3544 -1.549033e-008 614.0801 211.3702)" gradientUnits="userSpaceOnUse">
				<stop  offset="0" style="stop-color:#FFFFFF"/>
				<stop  offset="0.1922" style="stop-color:#FFFFFF"/>
				<stop  offset="0.2824" style="stop-color:#FFFFFF;stop-opacity:0.7529"/>
				<stop  offset="0.4157" style="stop-color:#FFFFFF;stop-opacity:0.6"/>
				<stop  offset="0.5882" style="stop-color:#FEFEFE;stop-opacity:0.3647"/>
				<stop  offset="0.8157" style="stop-color:#FCFCFC;stop-opacity:0.1059"/>
				<stop  offset="1" style="stop-color:#F9F9F9;stop-opacity:0"/>
			</radialGradient>
			<path fill-rule="evenodd" clip-rule="evenodd" fill="url(#SVGID_11_)" d="M593.7,457.7c0-0.4,0-0.8,0.1-1.1
				c0.1-0.3,0.2-0.5,0.3-0.5c0.1,0,0.2,0.2,0.3,0.5c0.1,0.3,0.1,0.7,0.1,1.1c0,0.4,0,0.8-0.1,1.1c-0.1,0.3-0.2,0.5-0.3,0.5
				c-0.1,0-0.2-0.2-0.3-0.5C593.7,458.5,593.7,458.1,593.7,457.7z"/>
		</g>
		<g>
			<g>
				
					<radialGradient id="SVGID_12_" cx="197.4004" cy="54.3501" r="2.2374" gradientTransform="matrix(-5.011576e-008 1.1465 -0.3523 -1.539870e-008 593.2689 229.1412)" gradientUnits="userSpaceOnUse">
					<stop  offset="0" style="stop-color:#FFFFFF"/>
					<stop  offset="0.1922" style="stop-color:#FFFFFF"/>
					<stop  offset="0.2824" style="stop-color:#FFFFFF;stop-opacity:0.7529"/>
					<stop  offset="0.4157" style="stop-color:#FFFFFF;stop-opacity:0.6"/>
					<stop  offset="0.5882" style="stop-color:#FEFEFE;stop-opacity:0.3647"/>
					<stop  offset="0.8157" style="stop-color:#FCFCFC;stop-opacity:0.1059"/>
					<stop  offset="1" style="stop-color:#F9F9F9;stop-opacity:0"/>
				</radialGradient>
				<path fill-rule="evenodd" clip-rule="evenodd" fill="url(#SVGID_12_)" d="M573.4,455.5c0-0.7,0.1-1.3,0.2-1.8
					c0.2-0.5,0.3-0.7,0.6-0.7s0.4,0.2,0.6,0.7c0.1,0.5,0.2,1.1,0.2,1.8c0,0.7-0.1,1.3-0.2,1.8c-0.2,0.5-0.3,0.7-0.6,0.7
					s-0.4-0.2-0.6-0.7C573.4,456.7,573.4,456.2,573.4,455.5z"/>
			</g>
		</g>
	</g>
	<g>
		<path fill-rule="evenodd" clip-rule="evenodd" fill="#B1B5B0" d="M646.3,503.9L646.3,503.9c0.2,13.4,1,22.9,2.5,28.5
			c0.6,2.2,1.2,3.6,1.9,4.4c0-0.1,0.2-0.2,0.3-0.3c4.1-3.1,8.4-2.2,12.8,2.8c3.3,3.7,6.7,10.4,10.2,20c3.7,10.2,3.6,18.3-0.3,24.4
			c-3.7,6.1-11.1,10.2-22.2,12.2c-8.5,1.5-13.1,2.6-13.7,3.4c0.1,0,3.7,0.7,10.7,2.3c9.2,2.1,15.9,3.9,20.1,5.6c2.4,1,4.1,1.9,5,2.8
			c2.3,2.1,2.5,4.1,0.6,5.9c0,0-0.1,0-0.1,0.1c-2.1,3-16.4,3.3-42.7,1.1c-0.8-0.1-1.5-0.4-1.9-1c-0.5-0.6-0.8-1.3-0.7-2.1
			c0.1-0.8,0.4-1.5,1-1.9c0.6-0.5,1.3-0.8,2.1-0.7c18.2,1.6,29.9,2.1,35.1,1.5c-0.2-0.1-0.4-0.2-0.6-0.3c-3.9-1.5-10.3-3.3-19.2-5.3
			c-11.4-2.5-16.4-5.7-15-9.4c0.3-3,6.4-5.5,18.2-7.6c9.1-1.6,15.2-4.8,18.3-9.6c2.8-4.9,2.8-11.3-0.2-19.4
			c-3.2-8.7-6.2-14.8-9.1-18.2c-1.9-2.1-3.6-2.8-5.2-1.9c-2.8,1.9-5.2,1.9-7.3-0.1c-1.5-1.1-2.8-3.6-3.8-7.2
			c-1.6-6-2.5-15.9-2.7-29.9c-0.4-25.3-4.8-38.9-13.4-40.8c-6.3-1.1-11.6-1.8-15.9-2.1c-0.2,0-0.4,0-0.6-0.1c-0.1,0-0.2,0-0.4,0
			c-1.9,0-3.4,0-4.7,0c-0.8-1.9-0.8-3.8,0-5.7c1.3,0,2.8,0,4.5,0.1c0.3,0,0.5,0,0.7,0c0.3,0,0.6-0.1,0.9-0.1c4.5,0.3,10,1,16.5,2.2
			C639.8,459.1,645.8,474.6,646.3,503.9z"/>
	</g>
	<g>
		<path fill-rule="evenodd" clip-rule="evenodd" fill="#B1B5B0" d="M611.3,603.6c-0.2,0-0.4,0-0.6,0c5.8,1.4,23.7,2.7,53.7,4
			c0-0.8-0.2-1.4-0.6-1.9c-1.4-1.3-4-2.4-7.8-3C646.8,601.1,631.9,601.4,611.3,603.6z M607.1,601.1c0.7,0.3,1.2,0.9,1.4,1.7
			c0.1,0.2,0.5,0.4,1.2,0.6c-0.2-0.1-0.4-0.2-0.6-0.4c-0.6-0.5-1-1.1-1-1.9c-0.1-0.8,0.1-1.5,0.6-2.1s1.1-1,1.9-1
			c21.4-2.3,36.9-2.6,46.3-0.9c5.4,1,9.1,2.5,11,4.8c2.5,2.6,2.9,5.8,1.2,9.7c-0.1,0.2-0.2,0.4-0.2,0.6c-0.3,0.5-0.6,1-0.9,1.5
			c-0.5,0.6-1.1,1.1-1.8,1.2c-0.8,0.2-1.5,0-2.1-0.4c-0.4-0.3-0.7-0.6-1-1c-39.1-1.8-59-4.6-60-8.7c-0.3-0.8-0.2-1.5,0.1-2.2
			c0.3-0.7,0.9-1.2,1.7-1.5C605.6,600.7,606.4,600.7,607.1,601.1z"/>
	</g>
	<g>
		<g>
			
				<radialGradient id="SVGID_13_" cx="251.0498" cy="83.1499" r="25" gradientTransform="matrix(1.1465 0 0 1.1465 347.7999 393.1505)" gradientUnits="userSpaceOnUse">
				<stop  offset="0" style="stop-color:#FFFFFF"/>
				<stop  offset="1" style="stop-color:#FFFFFF;stop-opacity:0"/>
			</radialGradient>
			<path fill-rule="evenodd" clip-rule="evenodd" fill="url(#SVGID_13_)" d="M628.6,460.8c-0.1-0.1-0.1-0.2-0.1-0.2
				c0-0.1,0.1-0.1,0.2-0.2c0-0.1,0.1-0.1,0.2-0.1c11,2.8,16.1,21.5,15.2,56.4c0,0.1,0,0.2-0.1,0.2c-0.1,0-0.2,0.1-0.2,0.1
				s-0.1,0-0.2-0.1c-0.1-0.1-0.1-0.2-0.1-0.2c0.8-34.4-4.1-53-14.8-55.8C628.7,460.9,628.6,460.8,628.6,460.8z"/>
			
				<radialGradient id="SVGID_14_" cx="231.75" cy="57.1499" r="4.35" gradientTransform="matrix(1.1465 0 0 1.1465 347.7999 393.1505)" gradientUnits="userSpaceOnUse">
				<stop  offset="0" style="stop-color:#FFFFFF"/>
				<stop  offset="1" style="stop-color:#FFFFFF;stop-opacity:0"/>
			</radialGradient>
			<path fill-rule="evenodd" clip-rule="evenodd" fill="url(#SVGID_14_)" d="M618.7,458.8c0,0.1,0.1,0.2,0.1,0.2
				c0,0.1,0,0.1-0.1,0.2s-0.1,0.1-0.2,0.1l-9.9-0.7c-0.1,0-0.2,0-0.2-0.1c0-0.1-0.1-0.1-0.1-0.2c0-0.1,0-0.2,0.1-0.2
				c0.1,0,0.2-0.1,0.2-0.1l9.9,0.7C618.6,458.7,618.6,458.8,618.7,458.8z"/>
			
				<radialGradient id="SVGID_15_" cx="238.2998" cy="137.2002" r="27.5" gradientTransform="matrix(1.1465 0 0 1.1465 347.7999 393.1505)" gradientUnits="userSpaceOnUse">
				<stop  offset="0" style="stop-color:#FFFFFF"/>
				<stop  offset="1" style="stop-color:#FFFFFF;stop-opacity:0"/>
			</radialGradient>
			<path fill-rule="evenodd" clip-rule="evenodd" fill="url(#SVGID_15_)" d="M610.2,515.9c0-0.1,0-0.1,0.1-0.2
				c0.1,0,0.2-0.1,0.2-0.1s0.1,0,0.2,0.1c11.2,16,17.8,37.6,19.7,64.8c0,0.1,0,0.2-0.1,0.2c0,0-0.1,0.1-0.2,0.1
				c-0.1,0-0.2,0-0.2-0.1c-0.1,0-0.1-0.1-0.1-0.2c-1.9-27.1-8.5-48.7-19.6-64.5C610.3,516,610.2,516,610.2,515.9z"/>
			
				<radialGradient id="SVGID_16_" cx="249.7422" cy="190.9502" r="31.2084" gradientTransform="matrix(1.1465 0 0 1.1465 347.7999 393.1505)" gradientUnits="userSpaceOnUse">
				<stop  offset="0" style="stop-color:#FFFFFF"/>
				<stop  offset="1" style="stop-color:#FFFFFF;stop-opacity:0"/>
			</radialGradient>
			<path fill-rule="evenodd" clip-rule="evenodd" fill="url(#SVGID_16_)" d="M601.1,610.1c-0.1-0.1-0.1-0.2-0.1-0.2s0.1-0.1,0.2-0.2
				c0-0.1,0.1-0.1,0.2-0.1c18.3,4.7,40.1,6.2,65.6,4.2c0.1,0,0.2,0,0.2,0.1c0,0,0.1,0.1,0.1,0.2c0,0.1,0,0.2-0.1,0.2
				c0,0-0.1,0.1-0.2,0.1c-25.6,1.9-47.5,0.5-65.8-4.2C601.2,610.2,601.1,610.2,601.1,610.1z"/>
			
				<radialGradient id="SVGID_17_" cx="222.0498" cy="183.25" r="4.75" gradientTransform="matrix(1.1465 0 0 1.1465 347.7999 393.1505)" gradientUnits="userSpaceOnUse">
				<stop  offset="0" style="stop-color:#FFFFFF"/>
				<stop  offset="1" style="stop-color:#FFFFFF;stop-opacity:0"/>
			</radialGradient>
			<path fill-rule="evenodd" clip-rule="evenodd" fill="url(#SVGID_17_)" d="M597.8,606.7c0-0.1-0.1-0.2-0.1-0.2
				c0.4-2.3,3.4-4.5,8.8-6.7c0.1,0,0.2,0,0.2,0c0.1,0,0.1,0,0.2,0.1c0,0.1,0,0.2,0,0.2c0,0.1-0.1,0.1-0.2,0.2
				c-5.2,2.1-8.1,4.2-8.5,6.3c0,0.1,0,0.1-0.1,0.2c-0.1,0-0.2,0.1-0.2,0.1C597.9,606.8,597.8,606.8,597.8,606.7z"/>
			
				<radialGradient id="SVGID_18_" cx="251.1001" cy="186.3501" r="21.6" gradientTransform="matrix(1.1465 0 0 1.1465 347.7999 393.1505)" gradientUnits="userSpaceOnUse">
				<stop  offset="0" style="stop-color:#FFFFFF"/>
				<stop  offset="1" style="stop-color:#FFFFFF;stop-opacity:0"/>
			</radialGradient>
			<path fill-rule="evenodd" clip-rule="evenodd" fill="url(#SVGID_18_)" d="M608.6,605.6c-0.1,0-0.1-0.1-0.2-0.1
				c-0.1-0.1-0.1-0.2-0.1-0.2c0-0.1,0.1-0.1,0.2-0.2c0-0.1,0.1-0.1,0.2-0.1c11.8,3.4,29,4.8,51.6,4.1c0.1,0,0.2,0,0.2,0.1
				c0,0,0.1,0.1,0.1,0.2c0,0.1,0,0.2-0.1,0.2c-0.1,0-0.2,0.1-0.2,0.1C637.7,610.4,620.5,609,608.6,605.6z"/>
			
				<radialGradient id="SVGID_19_" cx="236.7002" cy="181.4502" r="9.85" gradientTransform="matrix(1.1465 0 0 1.1465 347.7999 393.1505)" gradientUnits="userSpaceOnUse">
				<stop  offset="0" style="stop-color:#FFFFFF"/>
				<stop  offset="1" style="stop-color:#FFFFFF;stop-opacity:0"/>
			</radialGradient>
			<path fill-rule="evenodd" clip-rule="evenodd" fill="url(#SVGID_19_)" d="M608.3,603.4c-0.1,0-0.2,0.1-0.2,0.1
				c-0.1,0-0.1,0-0.2-0.1c-0.1-0.1-0.1-0.2-0.1-0.2s0-0.1,0.1-0.2c2.9-2.9,10.3-4.3,22.4-4.2c0.1,0,0.2,0,0.2,0.1
				c0,0,0.1,0.1,0.1,0.2c0,0.1,0,0.2-0.1,0.2c-0.1,0-0.2,0.1-0.2,0.1C618.4,599.3,611.1,600.7,608.3,603.4z"/>
			
				<radialGradient id="SVGID_20_" cx="275.6499" cy="145.1372" r="19.6181" gradientTransform="matrix(1.1465 0 0 1.1465 347.7999 393.1505)" gradientUnits="userSpaceOnUse">
				<stop  offset="0" style="stop-color:#FFFFFF"/>
				<stop  offset="1" style="stop-color:#FFFFFF;stop-opacity:0"/>
			</radialGradient>
			<path fill-rule="evenodd" clip-rule="evenodd" fill="url(#SVGID_20_)" d="M656.8,538.2c-0.1-0.1-0.1-0.1-0.1-0.2
				c0-0.1,0-0.2,0.1-0.2c0-0.1,0.1-0.1,0.2-0.1s0.2,0,0.2,0.1c14,12.6,19,27,15,43.3c0,0.1-0.1,0.2-0.1,0.2c-0.1,0-0.2,0-0.2,0
				c-0.1,0-0.1-0.1-0.2-0.1c-0.1-0.1-0.1-0.2-0.1-0.2C675.6,565,670.7,550.7,656.8,538.2z"/>
			
				<radialGradient id="SVGID_21_" cx="253.3999" cy="180.6499" r="7.25" gradientTransform="matrix(1.1465 0 0 1.1465 347.7999 393.1505)" gradientUnits="userSpaceOnUse">
				<stop  offset="0" style="stop-color:#FFFFFF"/>
				<stop  offset="1" style="stop-color:#FFFFFF;stop-opacity:0"/>
			</radialGradient>
			<path fill-rule="evenodd" clip-rule="evenodd" fill="url(#SVGID_21_)" d="M641.9,593.2c0.1,0,0.1,0,0.2,0.1c0,0.1,0,0.2,0,0.2
				c0,0.1-0.1,0.1-0.2,0.2c-2.8,1-4.6,2.1-5.6,3.1c-0.8,0.9-0.9,1.8-0.1,2.8c1.8,2.1,7.2,4.1,16.3,6.2c0.1,0,0.1,0.1,0.2,0.2
				c0,0,0.1,0.1,0.1,0.2c0,0.1-0.1,0.1-0.1,0.2c-0.1,0-0.2,0.1-0.2,0.1c-9.3-2.1-14.9-4.2-16.7-6.4c-1-1.2-1-2.4,0.1-3.6
				c1-1.1,2.9-2.2,5.7-3.2C641.7,593.2,641.8,593.2,641.9,593.2z"/>
			
				<radialGradient id="SVGID_22_" cx="271.6001" cy="183.0996" r="6.1502" gradientTransform="matrix(1.1465 0 0 1.1465 347.7999 393.1505)" gradientUnits="userSpaceOnUse">
				<stop  offset="0" style="stop-color:#FFFFFF"/>
				<stop  offset="1" style="stop-color:#FFFFFF;stop-opacity:0"/>
			</radialGradient>
			<path fill-rule="evenodd" clip-rule="evenodd" fill="url(#SVGID_22_)" d="M653.1,599.1c0.1,0,0.2-0.1,0.2-0.1
				c4.3,0.5,7.4,1.3,9.5,2.6c2.1,1.3,3,3.1,2.7,5.3c0,0.1,0,0.1-0.1,0.2s-0.1,0.1-0.2,0.1c-0.1,0-0.2,0-0.2-0.1s-0.1-0.1-0.1-0.2
				c0.3-2-0.5-3.6-2.4-4.8c-2-1.3-5.1-2.1-9.2-2.5c-0.1,0-0.2,0-0.2-0.1c0-0.1-0.1-0.1-0.1-0.2C652.9,599.2,653,599.1,653.1,599.1z"
				/>
		</g>
	</g>
</g>
</svg>
