<?xml version="1.0" encoding="utf-8"?>
<!-- Generator: Adobe Illustrator 16.0.0, SVG Export Plug-In . SVG Version: 6.00 Build 0)  -->
<!DOCTYPE svg PUBLIC "-//W3C//DTD SVG 1.1//EN" "http://www.w3.org/Graphics/SVG/1.1/DTD/svg11.dtd">
<svg version="1.1" id="Layer_1" xmlns="http://www.w3.org/2000/svg" xmlns:xlink="http://www.w3.org/1999/xlink" x="0px" y="0px"
	 width="700px" height="700px" viewBox="0 0 700 700" enable-background="new 0 0 700 700" xml:space="preserve">
<g id="Layer_1_1_">
</g>
<g id="Layer_2">
	<g>
		<g>
			
				<path fill="none" stroke="#FFFFFF" stroke-linecap="round" stroke-linejoin="round" stroke-miterlimit="3" stroke-opacity="0.3294" d="
				M347.5,318.7c0.5,0.6,1.1,1.1,1.8,1.5c1,0.6,2.3,0.8,3.7,0.6c0.4,0,0.8-0.1,1.1-0.1c0.101,0,0.2,0,0.301,0
				c0.1,0,0.199-0.1,0.3-0.1"/>
			<g>
				<rect x="349.9" y="226" fill="#9F5E1C" width="1.899" height="40.4"/>
			</g>
			<g>
				<g>
					
						<linearGradient id="SVGID_1_" gradientUnits="userSpaceOnUse" x1="148.7959" y1="496.9033" x2="155.2203" y2="497.1446" gradientTransform="matrix(1 0 0 -1 202.3398 780.0391)">
						<stop  offset="0.0078" style="stop-color:#474747"/>
						<stop  offset="0.2196" style="stop-color:#6B6767"/>
						<stop  offset="0.4706" style="stop-color:#CDCDCD"/>
						<stop  offset="0.5569" style="stop-color:#DBD7D7"/>
						<stop  offset="0.8275" style="stop-color:#7F7D7D"/>
						<stop  offset="0.898" style="stop-color:#000000"/>
						<stop  offset="1" style="stop-color:#000000"/>
						<stop  offset="1" style="stop-color:#000000"/>
					</linearGradient>
					<path fill="url(#SVGID_1_)" d="M351.8,317.7l-0.899-69.3l0,0c0.899,0,1.8,0.2,2.5,0.6c0.1,0.1,0.199,0.1,0.3,0.2
						c0.1,0,0.2,0.1,0.2,0.1c0.5,0.4,0.8,0.9,1,1.4l3.699,66.9h-6.8V317.7z"/>
					
						<linearGradient id="SVGID_2_" gradientUnits="userSpaceOnUse" x1="146.4102" y1="496.9883" x2="149.9102" y2="496.9883" gradientTransform="matrix(1 0 0 -1 202.3398 780.0391)">
						<stop  offset="0" style="stop-color:#FFFFFF"/>
						<stop  offset="0.3333" style="stop-color:#DADADA"/>
						<stop  offset="0.3882" style="stop-color:#ABABAB"/>
						<stop  offset="1" style="stop-color:#434343"/>
					</linearGradient>
					<path fill="url(#SVGID_2_)" d="M351,248.4l0.9,69.3h-3.5v-68.6c0.399-0.2,0.8-0.4,1.1-0.5C349.9,248.5,350.4,248.4,351,248.4z"
						/>
					
						<linearGradient id="SVGID_3_" gradientUnits="userSpaceOnUse" x1="144.5225" y1="496.6387" x2="147.4975" y2="496.6387" gradientTransform="matrix(1 0 0 -1 202.3398 780.0391)">
						<stop  offset="0.0078" style="stop-color:#474747"/>
						<stop  offset="0.6196" style="stop-color:#6B6767"/>
						<stop  offset="1" style="stop-color:#EFEFEF"/>
					</linearGradient>
					<path fill="url(#SVGID_3_)" d="M348.4,249.1v68.6H346.6l0.2-66.2c0.101-0.6,0.3-1.1,0.601-1.5c0.3-0.3,0.5-0.5,0.6-0.6
						s0.2-0.2,0.2-0.2C348.2,249.3,348.3,249.2,348.4,249.1z"/>
				</g>
			</g>
			<g>
				<g>
					
						<linearGradient id="SVGID_4_" gradientUnits="userSpaceOnUse" x1="148.5723" y1="454.6426" x2="153.1472" y2="454.6426" gradientTransform="matrix(1 0 0 -1 202.3398 780.0391)">
						<stop  offset="0" style="stop-color:#403E3E"/>
						<stop  offset="0.4706" style="stop-color:#8A8383"/>
						<stop  offset="1" style="stop-color:#353434"/>
					</linearGradient>
					<path fill="url(#SVGID_4_)" d="M358.3,322.9c-1.1,5.2-2,7.5-2.8,6.9c-0.1-0.1-0.2-0.1-0.2-0.1l-0.1-0.1
						c-0.101,0-0.2-0.1-0.3-0.1c-0.5-0.3-1-0.4-1.601-0.4c-0.399,0-0.7,0-1,0.1c-0.3,0.1-0.6,0.3-0.899,0.5
						c-2.4-0.6-3.301-3.1-2.601-7.4c0.601-0.5,1.3-0.8,2.101-1.1c0.6-0.2,1.399-0.3,2.199-0.3c1.801,0,3.301,0.5,4.5,1.4
						c0,0,0,0,0,0.1c0.101,0,0.2,0.1,0.301,0.1C358,322.6,358.1,322.8,358.3,322.9z"/>
					
						<linearGradient id="SVGID_5_" gradientUnits="userSpaceOnUse" x1="143.8604" y1="460.2393" x2="157.3853" y2="460.2393" gradientTransform="matrix(1 0 0 -1 202.3398 780.0391)">
						<stop  offset="0" style="stop-color:#000000"/>
						<stop  offset="0.1412" style="stop-color:#383535"/>
						<stop  offset="0.2667" style="stop-color:#434040"/>
						<stop  offset="0.4784" style="stop-color:#776F6F"/>
						<stop  offset="1" style="stop-color:#000000"/>
					</linearGradient>
					<path fill="url(#SVGID_5_)" d="M348.7,322.2c-0.2,0.1-0.3,0.2-0.5,0.3c0,0.1-0.101,0.1-0.101,0.2c-0.6,0.5-1.1,1-1.399,1.6
						c-0.3,0.5-0.5,1.1-0.5,1.8l0.3-8.2c0-0.1,0-0.2,0-0.2c0.2-1,0.8-1.9,1.7-2.7c1.2-1,2.6-1.5,4.3-1.5s3.2,0.5,4.4,1.5
						c0.899,0.8,1.5,1.7,1.8,2.7v0.1c0,0.1,0,0.1,0,0.2l0.899,7.7c-0.1-1-0.6-2-1.399-2.8c-0.101-0.1-0.3-0.2-0.4-0.4
						c-0.1-0.1-0.2-0.1-0.3-0.1v-0.1c-1.3-1-2.8-1.4-4.5-1.4c-0.8,0-1.5,0.1-2.2,0.3C350,321.4,349.3,321.7,348.7,322.2z"/>
					
						<linearGradient id="SVGID_6_" gradientUnits="userSpaceOnUse" x1="153.6064" y1="452.9063" x2="156.1855" y2="451.4131" gradientTransform="matrix(1 0 0 -1 202.3398 780.0391)">
						<stop  offset="0" style="stop-color:#353434"/>
						<stop  offset="1" style="stop-color:#1E1D1D"/>
					</linearGradient>
					<path fill="url(#SVGID_6_)" d="M358.3,322.9c0.8,0.8,1.3,1.8,1.4,2.8v0.1c0.1,0.3,0.1,0.5,0.1,0.8c0,0.9-0.2,1.7-0.6,2.5
						l-3.3,3.6c0.199-0.3,0.3-0.6,0.3-1c0-0.1,0-0.2,0-0.3c0-0.2,0-0.4-0.101-0.6c-0.1-0.4-0.3-0.7-0.5-1
						C356.3,330.4,357.2,328.1,358.3,322.9z"/>
					
						<linearGradient id="SVGID_7_" gradientUnits="userSpaceOnUse" x1="149.501" y1="450.9941" x2="152.3633" y2="446.0367" gradientTransform="matrix(1 0 0 -1 202.3398 780.0391)">
						<stop  offset="0" style="stop-color:#646161"/>
						<stop  offset="1" style="stop-color:#403E3E"/>
					</linearGradient>
					<path fill="url(#SVGID_7_)" d="M351,333c-0.3-0.3-0.5-0.6-0.5-1c0-0.2,0-0.4,0-0.6c0-0.3,0.1-0.7,0.3-1.1
						c0.101-0.2,0.3-0.4,0.5-0.6l0,0c0.3-0.2,0.601-0.4,0.9-0.5c0.3-0.1,0.7-0.1,1-0.1c0.6,0,1.1,0.1,1.6,0.4
						c0.101,0,0.2,0.1,0.3,0.1c0,0.1,0.101,0.1,0.101,0.1s0.1,0.1,0.2,0.1c0.3,0.3,0.5,0.6,0.5,1c0.1,0.2,0.1,0.4,0.1,0.6
						c0,0.1,0,0.1,0,0.3c0,0.3-0.1,0.6-0.3,1c-0.2,0.2-0.3,0.4-0.5,0.5c-0.5,0.5-1.2,0.8-2,0.8c-0.2,0-0.3,0-0.5,0
						c-0.601-0.1-1.101-0.4-1.5-0.8C351.2,333,351.2,333,351,333z"/>
					
						<linearGradient id="SVGID_8_" gradientUnits="userSpaceOnUse" x1="144.9663" y1="450.165" x2="147.2888" y2="452.4674" gradientTransform="matrix(1 0 0 -1 202.3398 780.0391)">
						<stop  offset="0" style="stop-color:#171616"/>
						<stop  offset="0.4902" style="stop-color:#3A3939"/>
						<stop  offset="1" style="stop-color:#403E3E"/>
					</linearGradient>
					<path fill="url(#SVGID_8_)" d="M351.3,329.6L351.3,329.6c-0.3,0.2-0.399,0.5-0.5,0.6c-0.2,0.4-0.3,0.7-0.3,1.1
						c0,0.2,0,0.4,0,0.6c0.1,0.4,0.3,0.7,0.5,1l-4-3.7c-0.5-0.8-0.8-1.8-0.8-2.8c0-0.1,0-0.2,0-0.3v-0.2c0-0.6,0.2-1.2,0.5-1.8
						s0.8-1.1,1.399-1.6c0-0.1,0.101-0.1,0.101-0.2c0.2-0.1,0.3-0.2,0.5-0.3C348.1,326.6,349,329,351.3,329.6z"/>
				</g>
			</g>
			<g>
				<g>
					
						<linearGradient id="SVGID_9_" gradientUnits="userSpaceOnUse" x1="148.0977" y1="446.7383" x2="153.7227" y2="446.7383" gradientTransform="matrix(1 0 0 -1 202.3398 780.0391)">
						<stop  offset="0" style="stop-color:#202020"/>
						<stop  offset="0.1882" style="stop-color:#202020"/>
						<stop  offset="0.3255" style="stop-color:#383737"/>
						<stop  offset="0.4863" style="stop-color:#8E8E8E"/>
						<stop  offset="0.698" style="stop-color:#484444"/>
						<stop  offset="1" style="stop-color:#403E3E"/>
					</linearGradient>
					<path fill="url(#SVGID_9_)" d="M356,337.9c-0.1-0.4-0.3-0.8-0.8-1.1c-0.5-0.4-1.2-0.6-2-0.6s-1.4,0.2-2,0.6
						c-0.601,0.6-0.8,1.1-0.8,1.6v-7.8c0-0.1,0-0.3,0-0.4c0.1-0.5,0.3-1,0.8-1.4c0.6-0.4,1.2-0.6,2-0.6s1.5,0.2,2,0.6
						c0.399,0.4,0.7,0.8,0.8,1.1V337.9z"/>
					
						<linearGradient id="SVGID_10_" gradientUnits="userSpaceOnUse" x1="150.3726" y1="443.9307" x2="151.6528" y2="439.1758" gradientTransform="matrix(1 0 0 -1 202.3398 780.0391)">
						<stop  offset="0" style="stop-color:#3C3C3C"/>
						<stop  offset="1" style="stop-color:#101010"/>
					</linearGradient>
					<path fill="url(#SVGID_10_)" d="M350.5,338.3c0-0.5,0.3-1,0.8-1.6c0.601-0.4,1.2-0.6,2-0.6s1.5,0.2,2,0.6
						c0.4,0.4,0.7,0.8,0.8,1.1c0.101,0.2,0.101,0.4,0.101,0.6c0,0.7-0.3,1.3-0.9,1.8c-0.5,0.5-1.2,0.8-2,0.8s-1.399-0.3-2-0.8
						c-0.6-0.5-0.8-1-0.8-1.8V338.3z"/>
				</g>
			</g>
			<g>
				
					<radialGradient id="SVGID_11_" cx="149.3105" cy="462.5234" r="8.4123" gradientTransform="matrix(1 0 0 -1.0149 202.3398 787.9783)" gradientUnits="userSpaceOnUse">
					<stop  offset="0" style="stop-color:#FFFFFF"/>
					<stop  offset="0.2314" style="stop-color:#FFFFFF"/>
					<stop  offset="0.349" style="stop-color:#FFFFFF;stop-opacity:0.298"/>
					<stop  offset="1" style="stop-color:#FFFFFF;stop-opacity:0.0078"/>
				</radialGradient>
				<path fill="url(#SVGID_11_)" d="M359.5,324.5v0.6V325c-0.4-0.7-0.9-1.5-1.5-2.1c-1.3-1.4-3-2.1-4.9-2.1c-1.899,0-3.6,0.7-5,2.1
					c-0.6,0.7-1.1,1.4-1.399,2.1l-0.101,0.1l0,0v-0.5c0.301-0.7,0.801-1.3,1.301-1.9v-0.1c1.5-1.5,3.199-2.2,5.199-2.1
					c2,0,3.7,0.7,5.101,2.2v-0.1C358.7,323.2,359.2,323.8,359.5,324.5z"/>
			</g>
			<g>
				<path fill="none" d="M356,337.6c-0.2-0.3-0.3-0.5-0.5-0.7c-0.6-0.6-1.4-0.9-2.2-0.9s-1.6,0.3-2.2,0.9
					c-0.199,0.2-0.399,0.4-0.5,0.7"/>
			</g>
			<g>
				
					<radialGradient id="SVGID_12_" cx="150.7104" cy="333.9785" r="1.8748" gradientTransform="matrix(1 0 0 -0.36 202.3398 441.0326)" gradientUnits="userSpaceOnUse">
					<stop  offset="0" style="stop-color:#FFFFFF"/>
					<stop  offset="0.1922" style="stop-color:#FFFFFF"/>
					<stop  offset="0.2824" style="stop-color:#FFFFFF;stop-opacity:0.7529"/>
					<stop  offset="0.4157" style="stop-color:#FFFFFF;stop-opacity:0.6"/>
					<stop  offset="0.5882" style="stop-color:#FEFEFE;stop-opacity:0.3647"/>
					<stop  offset="0.8157" style="stop-color:#FCFCFC;stop-opacity:0.1059"/>
					<stop  offset="1" style="stop-color:#F9F9F9;stop-opacity:0"/>
				</radialGradient>
				<path fill="url(#SVGID_12_)" d="M353,320.1c0.5,0,1,0.1,1.4,0.3c0.3,0.1,0.5,0.3,0.5,0.4c0,0.2-0.2,0.4-0.5,0.5
					c-0.4,0.1-0.9,0.2-1.4,0.2s-0.9-0.1-1.3-0.2c-0.3-0.1-0.5-0.3-0.5-0.5c0-0.2,0.2-0.3,0.5-0.4C352.2,320.2,352.6,320.1,353,320.1
					z"/>
			</g>
			<g>
				
					<radialGradient id="SVGID_13_" cx="150.2598" cy="338.7563" r="2.8127" gradientTransform="matrix(1 0 0 -0.3556 202.3398 434.0753)" gradientUnits="userSpaceOnUse">
					<stop  offset="0" style="stop-color:#FFFFFF"/>
					<stop  offset="0.1922" style="stop-color:#FFFFFF"/>
					<stop  offset="0.2824" style="stop-color:#FFFFFF;stop-opacity:0.7529"/>
					<stop  offset="0.4157" style="stop-color:#FFFFFF;stop-opacity:0.6"/>
					<stop  offset="0.5882" style="stop-color:#FEFEFE;stop-opacity:0.3647"/>
					<stop  offset="0.8157" style="stop-color:#FCFCFC;stop-opacity:0.1059"/>
					<stop  offset="1" style="stop-color:#F9F9F9;stop-opacity:0"/>
				</radialGradient>
				<path fill="url(#SVGID_13_)" d="M350.7,312.9c0.5-0.2,1.2-0.3,1.899-0.3c0.7,0,1.4,0.1,2,0.3c0.5,0.2,0.801,0.4,0.801,0.7
					c0,0.3-0.301,0.5-0.801,0.6c-0.5,0.2-1.199,0.3-2,0.3c-0.8,0-1.399-0.1-1.899-0.3c-0.5-0.2-0.8-0.4-0.8-0.6
					C349.9,313.4,350.1,313.1,350.7,312.9z"/>
			</g>
			<g>
				
					<radialGradient id="SVGID_14_" cx="150.96" cy="322.7407" r="1.4875" gradientTransform="matrix(1 0 0 -0.3529 202.3398 441.9817)" gradientUnits="userSpaceOnUse">
					<stop  offset="0" style="stop-color:#FFFFFF"/>
					<stop  offset="0.1922" style="stop-color:#FFFFFF"/>
					<stop  offset="0.2824" style="stop-color:#FFFFFF;stop-opacity:0.7529"/>
					<stop  offset="0.4157" style="stop-color:#FFFFFF;stop-opacity:0.6"/>
					<stop  offset="0.5882" style="stop-color:#FEFEFE;stop-opacity:0.3647"/>
					<stop  offset="0.8157" style="stop-color:#FCFCFC;stop-opacity:0.1059"/>
					<stop  offset="1" style="stop-color:#F9F9F9;stop-opacity:0"/>
				</radialGradient>
				<path fill="url(#SVGID_14_)" d="M353.3,327.5c0.4,0,0.8,0.1,1,0.2c0.3,0.1,0.4,0.2,0.4,0.4c0,0.1-0.101,0.3-0.4,0.4
					s-0.6,0.1-1,0.1c-0.399,0-0.8-0.1-1-0.1c-0.3-0.1-0.5-0.2-0.5-0.4c0-0.2,0.2-0.3,0.5-0.4C352.5,327.6,352.9,327.5,353.3,327.5z"
					/>
			</g>
			<g>
				<g>
					
						<radialGradient id="SVGID_15_" cx="151.0605" cy="329.4658" r="0.7877" gradientTransform="matrix(1 0 0 -0.381 202.3398 461.6423)" gradientUnits="userSpaceOnUse">
						<stop  offset="0" style="stop-color:#FFFFFF"/>
						<stop  offset="0.1922" style="stop-color:#FFFFFF"/>
						<stop  offset="0.2824" style="stop-color:#FFFFFF;stop-opacity:0.7529"/>
						<stop  offset="0.4157" style="stop-color:#FFFFFF;stop-opacity:0.6"/>
						<stop  offset="0.5882" style="stop-color:#FEFEFE;stop-opacity:0.3647"/>
						<stop  offset="0.8157" style="stop-color:#FCFCFC;stop-opacity:0.1059"/>
						<stop  offset="1" style="stop-color:#F9F9F9;stop-opacity:0"/>
					</radialGradient>
					<path fill="url(#SVGID_15_)" d="M353.4,336.4c-0.2,0-0.4,0-0.601,0c-0.1-0.1-0.2-0.1-0.2-0.3c0-0.1,0.101-0.1,0.2-0.2
						c0.101-0.1,0.3-0.1,0.601-0.1c0.199,0,0.399,0,0.5,0.1c0.1,0.1,0.199,0.1,0.199,0.2s-0.1,0.2-0.199,0.3
						C353.8,336.4,353.6,336.4,353.4,336.4z"/>
				</g>
			</g>
		</g>
		<g>
			<g>
				<g>
					<path fill-opacity="0.149" d="M353.5,361.9c0.4,0,0.8,0.1,1.2,0.399c0.3,0.3,0.5,0.7,0.5,1.2c0.2,14.4,3.399,24.9,9.5,31.6
						c6.1,6.5,15.425,16.275,28.2,17.301c0.3,0,0.6,0,0.8,0.199v2.9c-0.2,0.1-0.4,0.1-0.601,0.1
						c-15.475-0.35-24.1-10.899-30.8-18.199c-6.7-7.2-10.1-18.4-10.399-33.801c0-0.399,0.1-0.8,0.5-1.1
						C352.7,362.1,353.1,361.9,353.5,361.9z M647.2,433.8c-0.3,0-0.5-0.1-0.8-0.2c-0.4-0.199-0.601-0.5-0.801-0.899
						c0-0.101-0.1-0.2-0.1-0.4c-0.1-0.1-0.1-0.3-0.2-0.5c-0.1-0.3-0.2-0.5-0.3-0.8l0,0c-7.3-17.1-29.8-23.9-67.5-20.3
						c-56,4.8-117.4,6.399-184.3,4.899V412.4c66.8,1.5,128.1-0.101,184.1-4.9c39.5-3.7,63.101,3.7,70.7,22.2v0.1
						c0.2,0.4,0.4,0.8,0.5,1.3c0.1,0.2,0.1,0.4,0.2,0.7c0.1,0.4,0.1,0.8-0.101,1.2c-0.199,0.4-0.5,0.6-0.899,0.8
						C647.5,433.8,647.4,433.8,647.2,433.8z"/>
					<path fill-opacity="0.2471" d="M648.5,431.1c0.1,0.2,0.2,0.4,0.3,0.7c1.3,7.2,1.101,15.601-0.5,25.2l0,0
						c-3.7,18-1.5,37.2,6.5,57.3c8.3,20.601,13.601,43.601,15.7,69c1.1,13.2-1.8,22.9-8.5,28.9c-6.6,6.1-17,8.5-31.3,7.4
						c-17.601-1.2-28.7-2.801-33.3-5c-1.601-0.801-2.5-1.601-3-2.4c-0.7-1.2-0.7-2.5,0.199-3.8c1-1.601,3.7-3.2,8.301-5
						c15.199-5.9,22.699-9.101,22.5-9.601c-0.9-2-1.2-3.899-0.801-5.6l0,0c-0.1-0.9-1.1-2-3.1-3.4c-3-2.1-6.8-7.8-11.4-17.3
						c-4.6-9.3-6.3-25.5-4.899-48.5c0-0.5,0.2-0.8,0.6-1.2c0.3-0.399,0.8-0.5,1.3-0.5c0.5,0.101,0.9,0.301,1.2,0.601
						s0.4,0.8,0.4,1.3c-1.3,22.2,0.2,37.8,4.5,46.8c4.2,8.7,7.6,14,10.3,16c3.6,2.5,5.1,4.8,4.4,6.9c-0.2,1.1,0,2.3,0.6,3.5h-0.1
						c1.399,2.7-6.7,7.5-24.2,14.3c-3.601,1.4-5.8,2.6-6.601,3.7c-0.1,0-0.1,0-0.199,0c0.199,0.3,0.699,0.7,1.5,1
						c4.5,2.1,15.1,3.6,32,4.7l0,0c13,1,22.6-1.2,28.699-6.601c5.9-5.5,8.301-14.1,7.301-26c-2.101-25-7.2-47.7-15.4-68
						c-8.4-20.899-10.7-40.6-6.8-59.3v0.1c1.399-8.3,2.2-15.8,2.3-22.6c0.2,0,0.3,0,0.5,0c0.4-0.2,0.7-0.4,0.9-0.8
						c0.199-0.4,0.199-0.8,0.1-1.2C648.7,431.5,648.6,431.3,648.5,431.1z M645.6,432.3c-0.1,0-0.1,0-0.1,0c0-0.2,0-0.3,0-0.5
						C645.5,432,645.5,432.2,645.6,432.3z"/>
				</g>
			</g>
			<g>
				<path fill="#B1B5B0" d="M648.2,434L648.2,434c0.5,5.1,0.1,10.7-1.101,16.8c0,0.101,0,0.101,0,0.2c-5,18.6-3.699,37.7,3.9,57.3
					c8,20.9,13.2,44.601,15.5,71.2c1.3,14.1-1,24.3-6.9,30.5c-5.8,6.5-15.1,8.8-28,7.1C613.7,616,602.7,614.2,598.5,611.9
					c-1.9-1-3-2.101-3.3-3.301c-0.7-1.6-0.2-3.199,1.3-4.8c1.3-1.6,4.6-3.399,9.8-5.2h-0.1c16.3-5.8,23.5-14.3,21.6-25.5
					c-2.5-12.6-5.7-24.6-9.7-36c-3.699-10.8-7.3-17.399-10.6-19.8c-0.7-0.5-1.1-1.1-1.2-1.8c-0.2-0.8,0-1.6,0.5-2.2
					c0.4-0.7,1-1.1,1.9-1.2c0.8-0.199,1.5,0,2.1,0.5c4.2,2.601,8.5,10.2,12.8,22.7l0,0c4,11.7,7.301,24,9.9,36.8
					c3,14.2-5.4,24.801-25.3,32c-3.101,1.101-5.4,2.101-6.7,3c4.2,1.9,14.4,3.301,30.5,4.301c0.1,0,0.2,0,0.3,0.1
					c10.601,1.4,18.3-0.4,23.101-5.4c4.699-5.3,6.5-14,5.5-26.1c-2.301-26-7.301-49.2-15.2-69.7c-8-20.7-9.4-40.899-4.101-60.5
					c0.601-3.399,1-6.6,1-9.7c0.101-2.1,0-4.1-0.199-6h0.1c-0.4-11.8-6.4-20.3-17.9-25.3c-12.3-5.399-30.6-7.2-55-5.3
					c-9.6,0.7-20.1,2-31.5,3.8c-27.3,6.7-54.699,8.601-82.3,5.8c-23.2-2.5-46.5-8.3-69.8-17.5l0,0C360.8,385.2,349,366.4,350.4,339
					c0-0.8,0.3-1.5,0.899-2c0.601-0.5,1.3-0.8,2.101-0.8c0.8,0.1,1.399,0.4,1.899,1c0.5,0.6,0.8,1.3,0.8,2.1
					c-1.3,24.601,9.4,41.601,32.101,51c22.8,9,45.5,14.8,68.2,17.101c27,2.799,53.8,0.899,80.6-5.601c0.1,0,0.2-0.1,0.3-0.1
					c11.601-1.9,22.2-3.2,32-3.9l0,0c25.5-2,44.7,0,57.601,5.8C640.7,409.5,647.8,419.7,648.2,434L648.2,434z"/>
			</g>
			<g>
				<g>
					
						<radialGradient id="SVGID_16_" cx="160.207" cy="409.5898" r="15.5096" gradientTransform="matrix(1 0 0 -1 202.3398 780.0391)" gradientUnits="userSpaceOnUse">
						<stop  offset="0" style="stop-color:#FFFFFF"/>
						<stop  offset="1" style="stop-color:#FFFFFF;stop-opacity:0"/>
					</radialGradient>
					<path fill="url(#SVGID_16_)" d="M356.2,359.2c0.1,1.8,1.1,4.7,3,8.6c2.8,5.601,6.5,10,11.1,13.3c0.2,0.101,0.3,0.301,0.3,0.5
						c0,0.2,0,0.4-0.1,0.7c-0.2,0.2-0.3,0.3-0.5,0.3s-0.5,0-0.7-0.1c-4.899-3.4-8.8-8-11.7-14c-2.1-4.2-3.199-7.3-3.1-9.3
						c0-0.2,0.1-0.4,0.3-0.601c0.101-0.199,0.3-0.3,0.5-0.3s0.5,0.101,0.7,0.3C356.1,358.7,356.2,358.9,356.2,359.2z"/>
					
						<radialGradient id="SVGID_17_" cx="433.8604" cy="359.8594" r="17.3786" gradientTransform="matrix(1 0 0 -1 202.3398 780.0391)" gradientUnits="userSpaceOnUse">
						<stop  offset="0" style="stop-color:#FFFFFF"/>
						<stop  offset="1" style="stop-color:#FFFFFF;stop-opacity:0"/>
					</radialGradient>
					<path fill="url(#SVGID_17_)" d="M625.5,406.7c0.2-0.101,0.4-0.2,0.6-0.101c6.9,1.801,12.2,5.601,16,11.4
						c2.4,3.8,4.2,8.7,5.5,14.8c0,0.2,0,0.5-0.1,0.601c-0.2,0.199-0.4,0.3-0.6,0.399c-0.2,0-0.5,0-0.7-0.2c-0.2-0.1-0.3-0.3-0.3-0.5
						c-1.2-5.8-3-10.5-5.301-14.1c-3.5-5.4-8.399-9-14.899-10.6c-0.3-0.101-0.5-0.2-0.601-0.4c-0.1-0.2-0.1-0.5,0-0.7
						C625.1,407,625.2,406.8,625.5,406.7z"/>
					
						<radialGradient id="SVGID_18_" cx="449.3262" cy="249.8394" r="44.6222" gradientTransform="matrix(1 0 0 -1 202.3398 780.0391)" gradientUnits="userSpaceOnUse">
						<stop  offset="0" style="stop-color:#FFFFFF"/>
						<stop  offset="1" style="stop-color:#FFFFFF;stop-opacity:0.0078"/>
					</radialGradient>
					<path fill="url(#SVGID_18_)" d="M662.3,573.5c0,0,0,0.1,0,0.2c-0.1,0.1-0.2,0.1-0.3,0.1s-0.1,0-0.1-0.1
						c-0.101-0.101-0.2-0.101-0.2-0.2c1.2-18.6-5.8-47.5-20.8-86.5c0-0.1,0-0.2,0-0.3c0-0.101,0-0.101,0.1-0.101s0.1,0,0.2,0
						c0.1,0,0.1,0,0.2,0.101C656.5,525.9,663.5,554.8,662.3,573.5z"/>
					
						<radialGradient id="SVGID_19_" cx="309.46" cy="374.29" r="56.0744" gradientTransform="matrix(1 0 0 -1 202.3398 780.0391)" gradientUnits="userSpaceOnUse">
						<stop  offset="0" style="stop-color:#FFFFFF"/>
						<stop  offset="1" style="stop-color:#FFFFFF;stop-opacity:0"/>
					</radialGradient>
					<path fill="url(#SVGID_19_)" d="M566.5,399.8c0,0.2,0,0.4-0.2,0.601c-0.1,0.199-0.3,0.3-0.5,0.399
						c-2.6,0.4-17.3,2.9-44.3,7.601c-15.7,2.699-29.8,4.1-42.2,4.1l0,0c-10.3-1-16.6-1.7-18.899-2.2h-2.5c-0.2,0-0.4-0.1-0.5-0.3
						c-0.2-0.2-0.301-0.4-0.301-0.7c0-0.2,0.101-0.399,0.301-0.5c0.1-0.2,0.3-0.3,0.5-0.3h2.5c0.1,0,0.1,0,0.199,0
						c2.2,0.5,8.5,1.2,18.801,2.2c12.3,0,26.199-1.4,41.8-4.2c27-4.7,41.8-7.3,44.399-7.6c0.2,0,0.5,0,0.601,0.199
						C566.3,399.3,566.4,399.5,566.5,399.8z"/>
					
						<radialGradient id="SVGID_20_" cx="412.6104" cy="255.79" r="11.2375" gradientTransform="matrix(1 0 0 -1 202.3398 780.0391)" gradientUnits="userSpaceOnUse">
						<stop  offset="0" style="stop-color:#FFFFFF"/>
						<stop  offset="1" style="stop-color:#FFFFFF;stop-opacity:0.0078"/>
					</radialGradient>
					<path fill="url(#SVGID_20_)" d="M608.5,513.4c0.1,0,0.2,0,0.3,0.1c5.2,3.7,9.5,11.7,13,24.2c0,0.1,0,0.2,0,0.3
						c-0.1,0-0.1,0.1-0.2,0.1c-0.1,0-0.199,0-0.3,0c-0.1-0.1-0.1-0.1-0.1-0.199c-3.4-12.301-7.7-20.2-12.8-23.9
						c-0.101,0-0.101-0.1-0.101-0.2c0-0.1,0-0.1,0-0.2C608.4,513.5,608.4,513.4,608.5,513.4z"/>
					
						<radialGradient id="SVGID_21_" cx="419.8604" cy="198.5889" r="17.7552" gradientTransform="matrix(1 0 0 -1 202.3398 780.0391)" gradientUnits="userSpaceOnUse">
						<stop  offset="0" style="stop-color:#FFFFFF"/>
						<stop  offset="1" style="stop-color:#FFFFFF;stop-opacity:0.0078"/>
					</radialGradient>
					<path fill="url(#SVGID_21_)" d="M629,565.3c0-0.1,0-0.2,0-0.3s0-0.1,0.2-0.1c0,0,0.1,0,0.2,0c0.1,0,0.1,0,0.199,0.1
						c5.301,15.4,0.601,26.4-14.199,33c-0.101,0-0.2,0-0.301,0c-0.1-0.1-0.1-0.1-0.1-0.2c0-0.1,0-0.1,0-0.2c0-0.1,0-0.199,0.1-0.199
						C629.6,591.1,634.2,580.3,629,565.3z"/>
					
						<radialGradient id="SVGID_22_" cx="422.8232" cy="168.6396" r="21.5865" gradientTransform="matrix(1 0 0 -1 202.3398 780.0391)" gradientUnits="userSpaceOnUse">
						<stop  offset="0" style="stop-color:#FFFFFF"/>
						<stop  offset="1" style="stop-color:#FFFFFF;stop-opacity:0.0078"/>
					</radialGradient>
					<path fill="url(#SVGID_22_)" d="M646.8,614.2c0,0-0.1,0-0.2,0c-15.199,1-29.5-0.4-42.899-4.3c-0.101,0-0.101-0.101-0.2-0.101
						c-0.1-0.1-0.1-0.2,0-0.3c0-0.1,0.1-0.1,0.2-0.2c0-0.1,0.1-0.1,0.2,0c13.399,3.8,27.6,5.2,42.699,4.3c0.101,0,0.2,0,0.301,0
						c0,0,0,0.101,0,0.2C646.8,614,646.8,614.1,646.8,614.2z"/>
				</g>
			</g>
		</g>
	</g>
</g>
</svg>
