<?xml version="1.0" encoding="utf-8"?>
<!-- Generator: Adobe Illustrator 16.0.0, SVG Export Plug-In . SVG Version: 6.00 Build 0)  -->
<!DOCTYPE svg PUBLIC "-//W3C//DTD SVG 1.1//EN" "http://www.w3.org/Graphics/SVG/1.1/DTD/svg11.dtd">
<svg version="1.1" xmlns="http://www.w3.org/2000/svg" xmlns:xlink="http://www.w3.org/1999/xlink" x="0px" y="0px" width="700px"
	 height="700px" viewBox="0 0 700 700" enable-background="new 0 0 700 700" xml:space="preserve">
<g id="Layer_3">
	<polygon opacity="0.25" points="394.5,446.5 307.3,446.5 312.3,399.5 392.5,399.5 	"/>
</g>
<g id="Layer_2">
	<g>
		<g>
			<g>
				
					<linearGradient id="SVGID_1_" gradientUnits="userSpaceOnUse" x1="-79.168" y1="608.0811" x2="-5.6401" y2="608.0811" gradientTransform="matrix(1.1465 0 0 -1.1465 400.0668 1125.8141)">
					<stop  offset="0" style="stop-color:#9E5E1E"/>
					<stop  offset="1" style="stop-color:#774614"/>
				</linearGradient>
				<rect x="309.3" y="422.6" fill="url(#SVGID_1_)" width="84.3" height="12.1"/>
				
					<linearGradient id="SVGID_2_" gradientUnits="userSpaceOnUse" x1="-73.8774" y1="642.1953" x2="-10.2559" y2="605.3809" gradientTransform="matrix(1.1465 0 0 -1.1465 400.0668 1125.8141)">
					<stop  offset="0" style="stop-color:#CC8F4C"/>
					<stop  offset="1" style="stop-color:#AD7539"/>
				</linearGradient>
				<polygon fill="url(#SVGID_2_)" points="393.6,422.6 309.3,422.6 310.7,397.6 392.5,397.6 				"/>
			</g>
		</g>
		<g>
			<g>
				
					<linearGradient id="SVGID_3_" gradientUnits="userSpaceOnUse" x1="-78.8218" y1="708.373" x2="-34.0186" y2="682.5037" gradientTransform="matrix(1.1465 0 0 -1.1465 400.0668 1125.8141)">
					<stop  offset="0" style="stop-color:#D9B072"/>
					<stop  offset="1" style="stop-color:#AD7539"/>
				</linearGradient>
				<polygon fill="url(#SVGID_3_)" points="372.1,343.7 330.8,343.7 331.5,331.5 346.1,331.5 346.1,338.8 346.3,338.8 346.3,341.4 
					358.2,341.4 358.2,331.5 371.5,331.5 				"/>
				
					<linearGradient id="SVGID_4_" gradientUnits="userSpaceOnUse" x1="-53.2051" y1="692.6729" x2="-35.8881" y2="628.0849" gradientTransform="matrix(1.1465 0 0 -1.1465 400.0668 1125.8141)">
					<stop  offset="0" style="stop-color:#9F5E1C"/>
					<stop  offset="1" style="stop-color:#8C5218"/>
				</linearGradient>
				<rect x="330.8" y="343.7" fill="url(#SVGID_4_)" width="41.3" height="68.3"/>
			</g>
		</g>
		<g>
			<g>
				<path fill="#8E541A" d="M358.5,342.5l0.1,1.2l0.1,0.8c-0.2,1.5-0.8,2.7-1.8,3.8c-0.8,0.8-1.7,1.3-2.7,1.6
					c-0.6,0.2-1.2,0.2-1.9,0.2c-1.2,0-2.3-0.3-3.3-0.9c-0.5-0.3-0.9-0.6-1.3-1c-1.3-1.3-1.9-2.8-1.9-4.6c0-0.2,0-0.3,0.1-0.5
					l0.3-11.6c0,1,0.2,1.9,0.6,2.8c0.3,0.6,0.6,1.1,1.1,1.5c0.3,0.3,0.6,0.6,1,0.9c0.5,0.3,1.1,0.5,1.8,0.7c0.5,0.1,1,0.2,1.5,0.2
					s1.1-0.1,1.5-0.2c0.1,0,0.2-0.1,0.3-0.1c0.9-0.3,1.7-0.8,2.4-1.5c0.5-0.5,0.8-1,1.1-1.5c0.4-0.8,0.6-1.8,0.6-2.8L358.5,342.5z"
					/>
				<path fill="#D9B072" d="M358.5,342.5c0.1,0.4,0.1,0.8,0.1,1.2h-0.1V342.5z"/>
				<path fill="#9F5E1C" d="M358.5,343.7L358.5,343.7c0.1,0.3,0.1,0.5,0.1,0.8L358.5,343.7z"/>
			</g>
		</g>
		<g>
			<path fill="#FFFFFF" fill-opacity="0.3373" d="M345.7,331.5h0.6l-0.5,12c0,0.1,0,0.2-0.1,0.2c-0.1,0-0.2,0.1-0.2,0.1h-14.6v-0.6
				h14.3L345.7,331.5z M358.2,331.5h0.6l0.3,11.6h13v0.6h-13.3c-0.1,0-0.1,0-0.2-0.1l-0.1-0.1l-0.1,0.1L358.2,331.5z"/>
		</g>
		<g>
			<rect x="309.3" y="422.6" fill="#FFFFFF" fill-opacity="0.3608" width="84.3" height="0.6"/>
		</g>
		<g>
			
				<radialGradient id="SVGID_5_" cx="-45.2378" cy="677.5439" r="4.55" gradientTransform="matrix(1.1465 0 0 -1.1465 400.0668 1125.8141)" gradientUnits="userSpaceOnUse">
				<stop  offset="0" style="stop-color:#FFFFFF;stop-opacity:0.3451"/>
				<stop  offset="1" style="stop-color:#FFFFFF;stop-opacity:7.843138e-003"/>
			</radialGradient>
			<path fill="url(#SVGID_5_)" d="M354.1,349.9c0.1,0,0.1,0.1,0.1,0.2s0,0.2-0.1,0.2c0,0.1-0.1,0.1-0.2,0.1c-2.5,0.5-4.5,0.2-6-0.9
				c-1.5-1.1-2.5-3-3-5.7c0-0.1,0-0.2,0.1-0.2c0-0.1,0.1-0.1,0.2-0.1c0.1,0,0.2,0,0.2,0.1c0.1,0,0.1,0.1,0.1,0.2
				c0.5,2.5,1.4,4.3,2.8,5.3c1.4,1,3.2,1.3,5.6,0.8C354,349.9,354,349.9,354.1,349.9z"/>
		</g>
		<g>
			
				<radialGradient id="SVGID_6_" cx="-53.6377" cy="-7.7075" r="32.0627" gradientTransform="matrix(1.1465 0 0 -0.1019 400.0668 411.5684)" gradientUnits="userSpaceOnUse">
				<stop  offset="0" style="stop-color:#FFFFFF;stop-opacity:0.498"/>
				<stop  offset="1" style="stop-color:#FFFFFF;stop-opacity:0"/>
			</radialGradient>
			<rect x="330.8" y="412.1" fill="url(#SVGID_6_)" width="41.3" height="0.6"/>
		</g>
	</g>
</g>
</svg>
